<svg role="img" viewBox="0 0 24 24" xmlns="http://www.w3.org/2000/svg">
  <title>Google Health Connect</title>
  <path fill="#EA4335" d="M12 20.6 10.8 19.5C6.6 15.8 4 13.5 4 10.5c0-2.2 1.7-3.9 3.9-3.9 1.3 0 2.5.6 3.3 1.5L12 9l.8-.9c.8-.9 2-1.5 3.3-1.5 2.2 0 3.9 1.7 3.9 3.9 0 3-2.6 5.3-6.8 9L12 20.6Z"/>
  <path fill="#34A853" d="M7.6 3.4a5.4 5.4 0 0 1 4.4 2.3 5.4 5.4 0 0 1 4.4-2.3c.9 0 1.8.2 2.6.6l-1.7 3a3.5 3.5 0 0 0-1.2-.2c-1.1 0-2.1.5-2.8 1.4L12 9.7l-1.3-1.5a3.5 3.5 0 0 0-2.8-1.4c-.4 0-.8.1-1.2.2L5 4c.8-.4 1.7-.6 2.6-.6Z"/>
  <path fill="#4285F4" d="M4.8 5.1 6.5 8a4 4 0 0 0-.8 2.5c0 1.4.8 2.7 2.6 4.6l-2.5 2.4c-2.1-2.2-3.3-4.3-3.3-7a7.1 7.1 0 0 1 2.3-5.4Z"/>
  <path fill="#FBBC04" d="m15.7 15.1 2.5 2.4c2.1-2.2 3.3-4.3 3.3-7 0-2.1-.9-4-2.3-5.4L17.5 8c.5.7.8 1.5.8 2.5 0 1.4-.8 2.7-2.6 4.6Z"/>
</svg>
