<svg width="30" height="30" viewBox="0 0 30 30" fill="none" xmlns="http://www.w3.org/2000/svg">
<g clip-path="url(#clip0_1844_39236)">
<path d="M18.1504 9.72669C17.3797 8.7459 16.3223 8.02985 15.1254 7.67824C13.9286 7.32663 12.6519 7.35696 11.4731 7.765C10.2943 8.17304 9.27211 8.93849 8.54877 9.95478C7.82544 10.971 7.437 12.1876 7.43753 13.435C7.43398 14.6208 7.7847 15.7805 8.44472 16.7656L7.43753 19.4438L9.86395 19.0089M17.4523 12.5766C18.7424 12.5766 19.9796 13.0891 20.8918 14.0013C21.804 14.9135 22.3165 16.1508 22.3165 17.4409C22.3196 18.3984 22.0366 19.335 21.5039 20.1305L22.3165 22.3052L19.5811 21.813C18.9232 22.1338 18.2015 22.3021 17.4696 22.3052C16.7377 22.3083 16.0145 22.1461 15.3539 21.8309C14.6934 21.5157 14.1125 21.0553 13.6545 20.4844C13.1966 19.9135 12.8734 19.2466 12.709 18.5333C12.5446 17.8202 12.5433 17.079 12.7051 16.3652C12.867 15.6514 13.1878 14.9834 13.6437 14.4108C14.0997 13.8382 14.6789 13.3759 15.3383 13.0584C15.9978 12.7408 16.7203 12.5761 17.4523 12.5766Z" stroke="white" stroke-width="0.991343" stroke-linecap="round" stroke-linejoin="round"/>
</g>
<defs>
<clipPath id="clip0_1844_39236">
<rect width="29.7403" height="29.7403" rx="14.8701" fill="white"/>
</clipPath>
</defs>
</svg>
