<svg width="30" height="30" viewBox="0 0 30 30" fill="none" xmlns="http://www.w3.org/2000/svg">
<g clip-path="url(#clip0_1844_39226)">
<path d="M14.8736 21.8321C18.7517 21.8321 21.8956 18.6883 21.8956 14.8101C21.8956 10.9319 18.7517 7.78809 14.8736 7.78809M14.8736 21.8321C10.9954 21.8321 7.85156 18.6883 7.85156 14.8101C7.85156 10.9319 10.9954 7.78809 14.8736 7.78809M14.8736 21.8321C16.0771 21.8321 18.0216 19.1686 18.0216 14.8101C18.0216 10.4516 16.0771 7.78809 14.8736 7.78809M14.8736 21.8321C13.6701 21.8321 11.726 19.1686 11.726 14.8101C11.726 10.4516 13.6701 7.78809 14.8736 7.78809M8.09329 14.8101H21.653" stroke="white" stroke-width="0.991343" stroke-linecap="round" stroke-linejoin="round"/>
</g>
<defs>
<clipPath id="clip0_1844_39226">
<rect width="29.7403" height="29.7403" rx="14.8701" fill="white"/>
</clipPath>
</defs>
</svg>
