<svg width="169" height="131" viewBox="0 0 169 131" fill="none" xmlns="http://www.w3.org/2000/svg">
<path d="M118.284 73.6378C118.282 73.6382 118.28 73.6378 118.28 73.6378C118.28 73.6378 118.284 73.6369 118.287 73.6361L118.284 73.6378Z" fill="#FAFAF8"/>
<path d="M118.294 73.6353L118.292 73.6345H118.296L118.294 73.6353Z" fill="#FAFAF8"/>
<path fill-rule="evenodd" clip-rule="evenodd" d="M69.4669 0.357899C73.0221 -0.420765 76.9169 0.0112835 80.5773 2.2469L80.5781 2.24773C84.0562 4.3725 86.8003 7.801 88.9967 12.0987C90.792 15.6116 89.4019 19.9161 85.8909 21.7129L85.89 21.7137C82.3794 23.5096 78.0773 22.1185 76.2817 18.6051C74.8144 15.7339 73.6229 14.7407 73.1367 14.4437C72.9237 14.3135 72.817 14.2965 72.7935 14.2928C72.766 14.2885 72.6907 14.2796 72.5202 14.317C72.0734 14.4149 71.3091 14.7704 70.3491 15.5682C69.4263 16.3353 68.5474 17.3264 67.8656 18.3259C67.6406 18.6558 67.3904 18.959 67.1233 19.2387C74.7976 20.9412 80.245 25.234 84.3371 28.4303C87.5505 30.9401 89.3296 32.2571 91.0179 32.8677C92.0769 33.2506 93.263 33.4365 95.515 32.295C105.501 27.233 114.739 24.1813 122.376 23.2226C124.078 21.7479 126.118 20.5784 128.406 19.8381C136.33 17.2747 145.538 20.6475 148.177 28.8121C149.361 32.4753 148.864 36.2124 147.266 39.3866C148.684 43.5196 149.912 48.622 150.012 54.0201C150.111 59.315 148.406 66.3169 145.247 72.4412C145.957 71.4419 147.463 70.7556 148.659 70.2151L149.084 70.0285C151.226 69.1122 154.665 68.009 158.156 68.1628L158.518 68.1827L158.906 68.2152C160.891 68.4094 163.498 69.1038 165.681 71.1897C167.996 73.4028 168.898 76.2766 168.992 79.0091L169 79.5532C168.986 83.0302 167.843 86.166 165.443 88.5445C163.342 90.6268 160.829 91.5365 159.434 92C158.673 92.2527 158.007 92.45 157.6 92.5753C157.02 93.4624 156.255 94.1966 155.374 94.7402C155.454 95.4848 155.42 96.2529 155.252 97.0201L155.165 97.3775L154.334 100.431C153.298 104.237 149.373 106.483 145.569 105.447L145.567 105.447C141.762 104.409 139.519 100.481 140.555 96.6758L141.386 93.6228L141.491 93.2702C142.034 91.6131 143.135 90.2799 144.525 89.4216C144.433 88.5612 144.495 87.6694 144.736 86.784L144.842 86.4227C145.371 84.7146 146.249 83.3963 147.23 82.3819C146.424 81.7596 145.205 80.7846 144.525 79.3505C143.887 78.0022 143.867 76.5669 143.865 75.5877C140.555 78.7685 137.471 80.0572 133.283 82.27C133.152 86.0096 132.861 89.4578 132.433 93.8149L132.195 96.2016C132.186 96.2825 132.174 96.6099 132.24 97.2611C132.303 97.8791 132.423 98.6687 132.614 99.6219C132.985 101.476 133.547 103.584 134.16 105.633C134.767 107.664 135.397 109.544 135.877 110.921C136.116 111.607 136.315 112.162 136.453 112.539C136.519 112.722 136.572 112.863 136.61 112.967C136.626 113.009 136.639 113.045 136.648 113.07C136.65 113.075 136.653 113.081 136.655 113.088L136.661 113.104C136.661 113.106 136.663 113.109 136.663 113.109L136.663 113.11V113.112C138.045 116.797 135.924 121.339 130.994 121.969C126.064 122.599 126.376 120.689 121.257 121.115C116.139 121.542 116.819 123.136 112.972 123.58C109.659 123.962 107.234 122.387 105.671 119.341C105.048 118.128 104.87 115.723 104.87 115.723C104.747 114.728 104.572 113.351 104.362 111.815C103.932 108.672 103.388 105.106 102.877 102.758C102.086 99.1232 101.036 97.3598 99.1299 94.1584C89.4323 97.7698 80.3493 98.4185 69.8693 97.1077C68.9368 96.991 68.0694 96.6979 67.2949 96.2683C68.1782 100.078 68.6714 104.966 67.9048 110.721C66.9585 117.823 63.0984 123.089 57.7783 126.41C52.691 129.585 46.5242 130.859 40.5653 130.989C28.7974 131.245 15.2143 127.08 6.47761 119.557C1.4481 115.227 -0.0440054 109.161 0.000981303 103.617C0.045672 98.1231 1.56834 92.2699 3.58337 86.8291C7.63335 75.8941 14.3823 64.7566 19.3384 57.8106C20.1196 56.716 21.1531 55.9084 22.3026 55.4097C20.8473 50.819 20.2755 46.2365 21.0338 41.8225C21.8219 37.2358 23.9728 33.2732 27.2363 30.0325C31.3257 25.9718 36.9892 23.2044 43.6045 21.2961C43.0803 18.4111 44.3764 15.3808 47.0594 13.8301C49.5779 12.3754 52.6142 12.6315 54.8257 14.2361C54.8363 12.8673 55.2398 11.4862 56.0687 10.2705L56.5278 9.61949C58.9572 6.27579 63.4433 1.67732 69.4669 0.357899ZM26.8198 59.6221C25.5277 58.6993 23.7326 58.9989 22.81 60.2915C17.9875 67.0502 11.459 77.8473 7.58315 88.3121L7.22741 89.2925C5.48631 94.1973 4.30306 99.1588 4.26653 103.652V104.103C4.31031 108.755 5.63549 113.201 9.26021 116.322C16.829 122.839 28.8018 126.712 39.4464 126.731L40.472 126.721C45.7774 126.606 50.9547 125.502 55.1206 123.032L55.5205 122.788C59.7118 120.172 62.7189 116.16 63.5984 110.691L63.6767 110.157C64.4631 104.254 63.7777 99.4129 62.8036 95.9048L62.6053 95.2212C62.4149 94.5919 62.2161 94.0112 62.0188 93.4806C61.669 92.2133 61.0954 90.9868 60.3343 89.8594C60.2843 89.775 60.2427 89.7031 60.2076 89.6468C60.1832 89.6075 60.1616 89.5747 60.1452 89.5492C60.137 89.5367 60.1295 89.5251 60.1235 89.5159L60.1118 89.4984L60.1102 89.4951C60.1102 89.4951 60.1052 89.4981 60.0893 89.5084L60.0885 89.5059L60.1085 89.4934C59.9964 89.3249 59.8698 89.1715 59.7311 89.0349C56.5195 84.9869 50.7873 82.5619 44.5401 84.9351L44.276 85.1294C33.2723 93.4316 43.8959 109.536 57.5017 104.785C57.7644 104.614 58.0149 104.436 58.2548 104.255C58.2961 105.829 58.223 107.547 57.9766 109.397L57.9241 109.759C57.3338 113.459 55.3902 116.073 52.5238 117.878C52.5589 113.09 47.1202 108.022 41.2351 110.312L40.8777 110.598C37.3273 113.602 38.1003 118.164 40.9435 120.949C40.7456 120.956 40.5462 120.964 40.3462 120.969C34.4945 121.096 28.1573 119.851 22.6067 117.607C25.1913 117.621 27.9526 117.138 30.8104 116.037C47.4694 104.753 32.7337 81.8991 13.6965 88.4363C17.1673 79.7628 22.4318 70.9102 26.659 64.8164L27.4896 63.6351C28.412 62.3422 28.1118 60.5452 26.8198 59.6221ZM53.1203 18.5793C52.3264 17.2037 50.568 16.7323 49.193 17.5264C47.8185 18.3208 47.3475 20.0797 48.1408 21.4553C48.6524 22.3421 48.9037 23.3094 48.9106 24.3488C40.7479 26.1691 34.3763 28.9552 30.2405 33.0619L29.7515 33.5646C27.3634 36.1092 25.8281 39.1096 25.2377 42.5461L25.1827 42.887C24.6448 46.4172 25.1135 50.2429 26.4299 54.3169L26.479 54.4561C27.0022 55.8328 28.4864 56.5925 29.9081 56.2109L30.0497 56.1692C31.5603 55.6805 32.3889 54.0586 31.9009 52.5471C30.8144 49.1843 30.5169 46.3604 30.8329 43.9891L30.9045 43.5206C31.3211 41.0965 32.4261 38.9979 34.2911 37.1458C36.8345 34.6204 40.8347 32.5158 46.4579 30.9028C44.3544 34.0218 41.3563 36.7907 39.1532 38.4113C37.8741 39.3522 37.5998 41.1535 38.54 42.4335C39.4511 43.6732 41.168 43.9693 42.4373 43.1313L42.5589 43.0471C45.2111 41.0962 48.888 37.7209 51.4816 33.7338L51.729 33.3462C52.5117 32.0965 53.2241 30.7144 53.7527 29.2506C54.1934 29.1727 54.6411 29.0967 55.0956 29.023L56.4795 28.8087C63.8558 27.7175 68.9835 29.853 73.5141 32.8818C72.3182 34.8191 72.2851 37.9212 73.6383 40.8896C75.4257 44.8104 78.9734 47.0588 81.6887 46.0565L81.9486 45.9498C83.6541 45.1712 84.5804 43.217 84.5954 40.878C85.5694 41.4304 86.574 41.9158 87.6138 42.2918C91.2486 43.6062 95.1655 43.5815 99.6098 41.4482L100.041 41.2356C108.236 37.0817 115.489 34.5947 121.296 33.5287C121.157 34.806 121.277 36.1103 121.687 37.3817C123.446 42.8237 129.893 45.6111 136.087 43.6073C136.711 43.4053 137.309 43.1612 137.877 42.882C138.995 46.2004 139.924 50.1624 139.999 54.2068C140.074 58.255 139.295 62.2564 137.124 65.7884L136.787 66.3169C135.038 68.9518 132.394 71.4376 128.45 73.4911C128.173 72.7061 127.81 71.9909 127.361 71.3487L127.163 71.0778C125.964 69.5073 124.41 68.6524 122.964 68.2084L122.677 68.125C121.181 67.7161 119.752 67.7079 118.754 67.7799C118.652 67.7873 118.553 67.796 118.458 67.8049L118.002 67.4473L117.487 67.0597C116.453 66.3001 114.933 65.2786 113.402 64.6872L113.095 64.5746C111.363 63.9736 109.731 63.6077 108.037 63.5643L107.697 63.5601C105.88 63.5602 104.147 63.9337 102.3 64.5746L102.028 64.668L101.781 64.8147L101.164 65.1873C98.1142 67.0715 95.6734 69.2746 94.8835 72.3549L94.811 72.6625C94.1222 75.8476 95.3867 79.0611 97.3012 82.2875C97.6028 82.7958 97.8883 83.2861 98.1601 83.7589C89.1501 87.6267 81.1129 88.4143 71.1114 87.1634C69.5361 86.9666 68.0993 88.0855 67.9023 89.6618C67.7057 91.2379 68.8231 92.6757 70.3983 92.8729C81.4971 94.2611 90.6939 93.3253 100.949 88.8181C103.865 93.9505 105.845 96.3341 107.045 101.849C107.596 104.377 108.158 108.09 108.588 111.237C108.802 112.796 108.979 114.193 109.103 115.199C109.165 115.701 109.214 116.107 109.247 116.385C109.264 116.524 109.276 116.633 109.285 116.705L109.295 116.787C109.296 116.796 109.297 116.803 109.297 116.807V116.812L109.298 116.813C109.474 118.342 110.818 119.451 112.336 119.354L112.483 119.341C114.011 119.164 115.121 117.82 115.023 116.301L115.01 116.154L115.009 116.152L115.008 116.145L115.007 116.123L114.996 116.036L114.957 115.705L114.81 114.493C114.747 113.981 114.67 113.369 114.582 112.687L114.285 110.457C113.908 107.699 113.41 104.36 112.888 101.713L112.663 100.625C111.169 93.7604 108.164 89.979 105.292 84.7942L104.72 83.7372C104.009 82.391 103.19 80.9417 102.246 79.3498C100.413 76.2606 100.216 74.7083 100.453 73.7845C100.601 73.2084 101.014 72.4984 102.054 71.6038C102.278 72.1165 102.481 72.5919 102.657 73.0143C102.904 73.6054 103.099 74.0905 103.231 74.4248C103.297 74.5916 103.348 74.7221 103.381 74.8082C103.398 74.8506 103.411 74.8825 103.419 74.9033C103.423 74.913 103.425 74.9211 103.427 74.9258C103.428 74.9275 103.429 74.9308 103.429 74.9308L103.485 75.0683C104.077 76.4179 105.601 77.1007 107.003 76.6447L107.138 76.5972C108.575 76.0502 109.32 74.4747 108.852 73.0268L108.804 72.8867L108.802 72.8817C108.801 72.8796 108.799 72.8767 108.798 72.8734C108.795 72.866 108.792 72.8548 108.787 72.8417C108.776 72.815 108.76 72.7764 108.742 72.7275C108.703 72.6288 108.648 72.4855 108.577 72.3048C108.433 71.9428 108.225 71.4254 107.963 70.7985C107.779 70.3574 107.566 69.8604 107.332 69.3221C107.455 69.3162 107.577 69.313 107.698 69.313C108.692 69.313 109.771 69.5101 111.211 70.0099C111.981 70.2772 113.057 70.9427 114.084 71.6971C114.23 71.8039 114.369 71.9097 114.501 72.0106L113.919 75.4409L113.898 75.5877C113.72 77.0988 114.756 78.5002 116.272 78.7579C117.837 79.0238 119.321 77.97 119.587 76.4038L120.078 73.5094C120.441 73.5292 120.811 73.5795 121.162 73.6753C121.789 73.8468 122.259 74.1315 122.594 74.5698C122.928 75.0081 123.348 75.888 123.348 77.6517C123.348 83.6343 122.974 87.832 122.23 95.1946L122.2 95.5505C122.081 97.3545 122.38 99.5248 122.794 101.591C123.249 103.866 123.905 106.3 124.565 108.507C125.227 110.721 125.906 112.747 126.419 114.219C126.675 114.955 126.891 115.557 127.043 115.974C127.119 116.183 127.181 116.346 127.222 116.459C127.243 116.515 127.259 116.559 127.27 116.589C127.276 116.603 127.28 116.616 127.283 116.624C127.285 116.627 127.287 116.631 127.287 116.633L127.288 116.637L127.289 116.638C127.851 118.123 129.509 118.873 130.994 118.312C132.433 117.768 133.181 116.192 132.716 114.743L132.667 114.603L132.664 114.596L132.654 114.569L132.612 114.454L132.445 114.002L131.849 112.326C131.479 111.263 131.02 109.904 130.547 108.402L130.073 106.857C129.519 105.005 128.99 103.053 128.593 101.233L128.431 100.461C128.037 98.4888 127.874 96.9459 127.936 95.9623L127.951 95.7731C128.619 89.1556 129.008 84.9032 129.083 79.5707C135.004 76.9229 139.11 73.3449 141.77 69.2046L142.022 68.8019C144.729 64.3969 145.714 59.5873 145.753 55.0121L145.748 54.1001C145.643 48.4642 144.157 43.0798 142.568 38.9398C144.361 36.4259 145.05 33.3436 144.205 30.4085L144.118 30.125C142.359 24.6832 135.912 21.8957 129.719 23.8995L129.314 24.0371C127.31 24.7554 125.597 25.9026 124.27 27.309C124.066 27.3277 123.86 27.3486 123.653 27.3707L122.98 27.4483C115.967 28.3163 107.183 31.1658 97.4428 36.103L97.1396 36.253C94.2309 37.6545 92.0079 37.6601 89.984 37.0224L89.5682 36.8816C87.4154 36.103 85.3482 34.6142 82.8242 32.6601L81.7128 31.7948C75.7939 27.1716 68.203 21.2583 55.6372 23.1176C55.2957 23.1681 54.9566 23.2196 54.6199 23.2726C54.4776 21.7118 54.016 20.1316 53.1203 18.5793ZM149.03 92.7244C147.498 92.3074 145.919 93.2116 145.501 94.7442L144.671 97.7973C144.254 99.33 145.157 100.912 146.689 101.329C148.173 101.733 149.702 100.897 150.176 99.4507L150.218 99.3091L151.049 96.2561C151.466 94.7232 150.562 93.1419 149.03 92.7244ZM62.4021 93.0947C62.4036 93.0937 62.4062 93.0921 62.4062 93.0921C62.4092 93.0902 62.4121 93.088 62.4121 93.088L62.4021 93.0947ZM158.223 72.4412C155.392 72.2451 151.305 73.4212 149.411 74.2764C147.964 74.9299 147.478 76.7324 148.131 78.1804C148.784 79.6281 151.332 80.0035 152.779 79.3505C154.316 78.6562 156.376 78.08 157.826 78.1804C158.508 78.2278 158.727 78.4024 158.764 78.4368C158.779 78.4513 158.821 78.4943 158.868 78.6218C158.92 78.7636 158.987 79.0404 158.985 79.5126L158.98 79.7306C158.939 80.7777 158.629 81.193 158.395 81.425L158.245 81.5602C157.863 81.872 157.264 82.162 156.279 82.4893C155.4 82.7813 153.718 83.2269 152.494 83.8102C151.082 84.4834 149.46 85.6704 148.852 87.9054C148.435 89.4382 149.339 91.0195 150.871 91.4371C152.355 91.8413 153.884 91.0055 154.358 89.5594L154.4 89.4178C154.414 89.368 154.422 89.3557 154.452 89.3257C154.506 89.271 154.647 89.1568 154.967 89.0042C155.569 88.7171 156.167 88.5516 157.072 88.2735L158.09 87.9493C159.288 87.5514 160.865 86.9458 162.181 85.7573L162.441 85.5121C163.831 84.1342 164.622 82.2958 164.723 80.0006L164.735 79.536C164.743 77.6079 164.214 75.8536 162.989 74.5342L162.735 74.2764C161.384 72.9859 159.679 72.5422 158.223 72.4412ZM35.4958 86.9758C40.4115 83.6191 35.2535 75.871 29.4916 78.1136L29.2741 78.2861C24.9225 81.9094 29.5858 88.8061 35.2225 87.0667L35.4958 86.9758ZM134.432 55.3831C132.685 54.932 129.869 54.5238 126.807 54.662L126.23 54.6945C123.32 54.8908 119.998 55.6151 117.17 57.5013C115.849 58.3825 115.492 60.1684 116.373 61.4902C117.226 62.7707 118.928 63.1461 120.234 62.3672L120.684 62.0821C122.338 61.0857 124.429 60.5837 126.601 60.4357L127.066 60.4098C129.528 60.2987 131.772 60.6382 132.996 60.9542C134.533 61.351 136.101 60.4257 136.498 58.8876C136.882 57.3976 136.026 55.8784 134.575 55.4239L134.432 55.3831ZM61.8539 45.7997C60.0088 41.7525 56.2882 39.4869 53.5436 40.7396C50.7992 41.9925 50.07 46.2892 51.9148 50.3363C53.7023 54.257 57.2499 56.5047 59.9652 55.5023L60.2251 55.3956C62.8838 54.1819 63.6514 50.1124 62.0197 46.1798L61.8539 45.7997ZM78.3554 5.89068C75.6981 4.26763 72.9377 3.96656 70.3791 4.52686L69.9276 4.63524C65.2982 5.83977 61.5982 9.73516 59.592 12.6764C58.6973 13.9885 59.0357 15.778 60.3468 16.6736C61.6173 17.5412 63.3359 17.2514 64.2557 16.0392L64.3424 15.9192C66.1081 13.3309 68.9038 10.7396 71.608 10.1472C72.8215 9.88138 74.0524 10.003 75.3587 10.8007C76.738 11.6433 78.3942 13.3636 80.0799 16.662C80.7802 18.032 82.4274 18.6005 83.8148 17.9774L83.9489 17.9132C85.3182 17.2124 85.8867 15.5635 85.2635 14.1753L85.1994 14.0419C83.2821 10.2903 81.0813 7.63875 78.5961 6.04156L78.3554 5.89068Z" fill="#FAFAF8"/>
<path fill-rule="evenodd" clip-rule="evenodd" d="M118.28 73.6378C118.28 73.6378 118.282 73.6382 118.284 73.6378L118.287 73.6361C118.284 73.6369 118.28 73.6378 118.28 73.6378ZM118.294 73.6353L118.296 73.6345H118.292L118.294 73.6353Z" fill="#1A1A1A"/>
<path d="M22.8099 60.0784C23.7325 58.7856 25.5275 58.486 26.8196 59.409C28.1118 60.3321 28.412 62.129 27.4895 63.422C23.1414 69.5159 17.3985 78.9714 13.6964 88.2233C32.7337 81.6859 47.4696 104.539 30.8103 115.824C27.9524 116.925 25.1912 117.408 22.6066 117.393C28.1574 119.638 34.4951 120.883 40.3469 120.755C40.5468 120.751 40.7456 120.743 40.9434 120.735C38.0082 117.861 37.2794 113.093 41.235 110.099C47.1203 107.808 52.5591 112.877 52.5237 117.664C55.4827 115.802 57.4578 113.077 57.9764 109.184C58.2229 107.334 58.296 105.616 58.2547 104.042C58.0148 104.223 57.7643 104.401 57.5016 104.572C43.7887 109.361 33.1052 92.964 44.54 84.722C50.7873 82.3487 56.5194 84.7736 59.731 88.8218C59.8697 88.9585 59.9962 89.1117 60.1084 89.2803L60.0884 89.2928L60.0892 89.2953C60.1066 89.284 60.11 89.282 60.11 89.282L60.1117 89.2853C60.1127 89.2869 60.1139 89.2885 60.115 89.2903C60.1174 89.2939 60.1205 89.2976 60.1234 89.302C60.1294 89.3112 60.1368 89.3234 60.145 89.3361C60.1615 89.3617 60.183 89.3943 60.2075 89.4337C60.2427 89.4901 60.2841 89.5617 60.3341 89.6463C61.0954 90.7738 61.6689 92.0001 62.0187 93.2675C62.216 93.7982 62.4148 94.3787 62.6052 95.0081C63.6796 98.5592 64.5153 103.647 63.6766 109.943C62.9115 115.687 59.8469 119.875 55.5204 122.575C51.2884 125.217 45.9485 126.389 40.4719 126.508C29.5785 126.746 17.073 122.836 9.26009 116.109C5.51827 112.887 4.22733 108.254 4.2664 103.439C4.30532 98.646 5.6492 93.3205 7.58303 88.099C11.4589 77.6341 17.9873 66.8372 22.8099 60.0784Z" fill="#1A1A1A"/>
<path fill-rule="evenodd" clip-rule="evenodd" d="M49.1929 17.3134C50.5679 16.519 52.3263 16.9904 53.1202 18.3662C54.0158 19.9184 54.4774 21.4981 54.6198 23.0587C54.9565 23.0057 55.2956 22.9542 55.6371 22.9037C68.2028 21.0444 75.7938 26.9578 81.7127 31.5809C84.7592 33.9605 87.1077 35.7787 89.5681 36.6685C91.7736 37.466 94.1805 37.5435 97.4427 35.8899C107.497 30.7934 116.532 27.9219 123.653 27.1577C123.86 27.1355 124.066 27.1147 124.27 27.096C125.685 25.5956 127.541 24.391 129.718 23.6864C135.912 21.6825 142.359 24.47 144.118 29.912C145.094 32.9313 144.418 36.1317 142.568 38.7267C144.156 42.8667 145.643 48.2503 145.747 53.8862C145.838 58.7304 144.91 63.8899 142.022 68.5889C139.372 72.8998 135.195 76.6244 129.083 79.3576C129.008 84.6903 128.619 88.9423 127.951 95.56C127.853 96.529 128.01 98.1441 128.431 100.247C128.838 102.281 129.44 104.527 130.073 106.644C130.704 108.753 131.355 110.696 131.849 112.112C132.095 112.82 132.301 113.394 132.445 113.789C132.517 113.986 132.574 114.139 132.612 114.241C132.631 114.292 132.644 114.331 132.653 114.356C132.658 114.368 132.662 114.377 132.664 114.383C132.665 114.386 132.667 114.39 132.667 114.39C133.228 115.876 132.479 117.537 130.994 118.099C129.509 118.66 127.85 117.91 127.289 116.425L129.978 115.408L127.288 116.424L127.287 116.42C127.286 116.418 127.285 116.415 127.283 116.411C127.28 116.402 127.275 116.391 127.27 116.376C127.259 116.346 127.243 116.302 127.222 116.246C127.181 116.133 127.119 115.97 127.043 115.761C126.891 115.343 126.675 114.742 126.418 114.006C125.906 112.534 125.227 110.508 124.565 108.294C123.905 106.086 123.249 103.653 122.794 101.378C122.352 99.1737 122.042 96.8516 122.23 94.9815C122.974 87.6186 123.348 83.4213 123.348 77.4386C123.348 75.6746 122.928 74.795 122.594 74.3567C122.259 73.9183 121.789 73.6337 121.161 73.4622C120.811 73.3664 120.44 73.3161 120.078 73.2963L119.588 76.1907C119.322 77.757 117.837 78.8108 116.272 78.5449C114.707 78.2788 113.654 76.794 113.919 75.2279L114.501 71.7975C114.369 71.6965 114.23 71.5908 114.084 71.484C113.057 70.7295 111.981 70.0641 111.211 69.7968C109.771 69.297 108.692 69.0999 107.698 69.0999C107.577 69.0999 107.455 69.1031 107.332 69.109C107.566 69.6474 107.779 70.1442 107.963 70.5854C108.225 71.2124 108.433 71.7297 108.576 72.0918C108.648 72.2726 108.703 72.4157 108.741 72.5144C108.76 72.5636 108.776 72.6019 108.786 72.6286C108.791 72.6419 108.795 72.6528 108.798 72.6603C108.799 72.6637 108.801 72.6665 108.801 72.6686L108.803 72.6711L108.804 72.6728L108.852 72.8137C109.32 74.2616 108.575 75.8372 107.138 76.3841C105.7 76.931 104.096 76.2483 103.484 74.8552L103.429 74.7177C103.429 74.7177 103.428 74.7147 103.427 74.7127C103.425 74.708 103.422 74.7002 103.419 74.6902C103.411 74.6693 103.398 74.637 103.381 74.5943C103.348 74.5081 103.297 74.3784 103.231 74.2117C103.099 73.8773 102.904 73.3918 102.657 72.8003C102.481 72.378 102.277 71.9034 102.054 71.3907C101.014 72.2855 100.601 72.9953 100.453 73.5714C100.216 74.4952 100.412 76.0472 102.246 79.1367C103.19 80.7286 104.009 82.1771 104.72 83.5233C107.756 89.275 111.069 93.0893 112.663 100.412C113.266 103.181 113.854 107.092 114.285 110.243C114.502 111.833 114.683 113.255 114.81 114.28C114.873 114.792 114.923 115.206 114.957 115.492C114.974 115.635 114.987 115.747 114.996 115.823C115 115.861 115.004 115.89 115.006 115.91C115.008 115.919 115.007 115.927 115.008 115.932C115.008 115.935 115.009 115.939 115.009 115.939L115.01 115.94C115.192 117.519 114.06 118.945 112.483 119.127C110.906 119.309 109.48 118.178 109.298 116.6L109.297 116.598V116.594C109.297 116.59 109.296 116.583 109.295 116.574C109.292 116.556 109.289 116.528 109.285 116.492C109.276 116.42 109.264 116.311 109.247 116.172C109.214 115.894 109.165 115.489 109.103 114.986C108.979 113.98 108.801 112.583 108.588 111.024C108.158 107.877 107.595 104.164 107.045 101.636C105.845 96.1208 103.865 93.7375 100.948 88.6051C90.6938 93.1123 81.497 94.048 70.3982 92.6598C68.823 92.4627 67.7055 91.0249 67.9022 89.4487C68.0991 87.8723 69.5359 86.7535 71.1113 86.9503C81.1128 88.2012 89.15 87.4136 98.16 83.5458C97.8882 83.073 97.6027 82.5828 97.3011 82.0744C95.3249 78.744 94.0411 75.4276 94.8834 72.1418C95.7259 68.8562 98.4465 66.5687 101.781 64.6016L102.028 64.4549L102.3 64.3615C104.147 63.7206 105.88 63.3463 107.697 63.3462C109.514 63.3462 111.248 63.7204 113.095 64.3615C114.727 64.928 116.383 66.0363 117.487 66.8466C117.848 67.112 118.176 67.3676 118.458 67.5918C118.553 67.5829 118.652 67.5742 118.754 67.5668C119.752 67.4948 121.18 67.5021 122.677 67.9111C124.201 68.3277 125.883 69.1894 127.162 70.8647C127.705 71.5751 128.134 72.3806 128.45 73.278C132.657 71.0877 135.384 68.4057 137.124 65.5753C139.295 62.0432 140.074 58.0421 139.999 53.9938C139.924 49.9493 138.996 45.9874 137.878 42.6689C137.309 42.9483 136.711 43.1921 136.087 43.3942C129.893 45.3981 123.446 42.6108 121.687 37.1687C121.276 35.8971 121.157 34.5931 121.296 33.3157C115.489 34.3817 108.236 36.8686 100.041 41.0225C95.4183 43.3658 91.3657 43.4355 87.6136 42.0787C86.5739 41.7027 85.5693 41.2174 84.5953 40.6649C84.5803 43.004 83.6541 44.9582 81.9485 45.7367C79.2038 46.9892 75.4832 44.7237 73.6381 40.6766C72.2848 37.7077 72.3176 34.6052 73.514 32.6679C68.9834 29.6392 63.8556 27.5044 56.4793 28.5957C55.5428 28.7342 54.6338 28.8819 53.7525 29.0375C53.2239 30.5014 52.5117 31.8834 51.7289 33.1331C49.126 37.2887 45.2965 40.8202 42.5588 42.834C41.2796 43.7749 39.4804 43.5002 38.5399 42.2204C37.5995 40.9404 37.8738 39.1392 39.1531 38.1982C41.3562 36.5776 44.3542 33.8088 46.4578 30.6897C40.8344 32.3028 36.8343 34.4073 34.291 36.9328C32.4258 38.7849 31.3209 40.8833 30.9044 43.3075C30.4808 45.7731 30.7418 48.7461 31.9008 52.3332C32.3892 53.8448 31.5603 55.4674 30.0496 55.9561C28.539 56.4448 26.9183 55.6152 26.4297 54.1038C25.0708 49.8982 24.6149 45.9575 25.2375 42.333C25.8673 38.6673 27.5722 35.4984 30.2404 32.8488C34.3761 28.742 40.7477 25.9561 48.9105 24.1358C48.9036 23.0961 48.6524 22.1291 48.1407 21.2422C47.3472 19.8665 47.8183 18.1077 49.1929 17.3134ZM118.28 73.4247C118.28 73.4247 118.282 73.4243 118.284 73.4239L118.287 73.423C118.283 73.4239 118.28 73.4247 118.28 73.4247Z" fill="#1A1A1A"/>
<path d="M145.529 94.8433C145.936 93.3079 147.277 91.9524 149.41 92.5188C150.944 92.9263 151.493 94.7836 151.086 96.3192L150.275 99.3776C149.868 100.913 148.293 101.828 146.759 101.42C145.224 101.013 144.311 99.4371 144.718 97.9017L145.529 94.8433Z" fill="#1A1A1A"/>
<path d="M149.41 74.1657C151.298 73.2982 155.274 72.2806 158.105 72.4584C159.562 72.5499 161.271 72.9824 162.629 74.2643C164.044 75.5996 164.658 77.4542 164.663 79.5108C164.669 82.0239 163.882 84.0224 162.408 85.5017C161.053 86.8627 159.348 87.5344 158.073 87.967C156.552 88.4833 155.758 88.654 154.957 89.0421C154.637 89.1969 154.498 89.3119 154.444 89.367C154.414 89.3972 154.406 89.4087 154.393 89.4586C153.985 90.9941 152.411 91.9089 150.876 91.5015C149.342 91.0939 148.428 89.5185 148.835 87.983C149.429 85.7439 151.042 84.5466 152.451 83.8642C153.671 83.273 155.35 82.8165 156.227 82.5188C157.35 82.1375 157.97 81.8074 158.336 81.44C158.584 81.1909 158.916 80.7335 158.913 79.5247C158.912 79.0521 158.843 78.7761 158.79 78.6347C158.743 78.5071 158.7 78.4647 158.685 78.4504C158.649 78.4166 158.43 78.2431 157.746 78.2001C156.296 78.109 154.239 78.6978 152.706 79.402C151.263 80.0644 148.793 79.8773 148.13 78.4338C147.468 76.99 147.812 74.9 149.41 74.1657Z" fill="#1A1A1A"/>
<path d="M29.4914 77.9005C35.2535 75.6577 40.4116 83.406 35.4957 86.7627C29.647 88.8489 24.6973 81.5284 29.4914 77.9005Z" fill="#1A1A1A"/>
<path d="M126.807 54.4489C129.869 54.3107 132.685 54.7189 134.432 55.17C135.97 55.567 136.894 57.1362 136.497 58.6745C136.101 60.2127 134.533 61.138 132.996 60.7411C131.772 60.4251 129.527 60.0856 127.066 60.1967C124.583 60.3088 122.173 60.8653 120.359 62.0749C119.038 62.9562 117.253 62.599 116.373 61.2771C115.492 59.9552 115.849 58.1695 117.17 57.2882C120.186 55.2762 123.765 54.5862 126.807 54.4489Z" fill="#1A1A1A"/>
<path d="M53.5434 40.5265C56.288 39.2738 60.0087 41.5388 61.8537 45.5858C63.6988 49.6331 62.9697 53.9297 60.225 55.1825C57.4803 56.4352 53.7597 54.1697 51.9147 50.1224C50.0699 46.0753 50.799 41.7794 53.5434 40.5265Z" fill="#1A1A1A"/>
<path d="M70.1026 4.59455C72.6549 4.00581 75.4184 4.27571 78.0936 5.86938C80.695 7.41927 83.0056 10.0945 85.0274 13.9449C85.7658 15.3513 85.2251 17.0906 83.8196 17.8295C82.414 18.5684 80.6758 18.0273 79.9373 16.621C78.2152 13.3413 76.5405 11.6401 75.1518 10.8128C73.8367 10.0294 72.6048 9.92151 71.3942 10.2008C68.6966 10.823 65.9294 13.4451 64.1924 16.053C63.3119 17.375 61.5263 17.7328 60.2051 16.8517C58.8841 15.9708 58.5267 14.1849 59.4069 12.8629C61.4441 9.80396 65.2746 5.70827 70.1026 4.59455Z" fill="#1A1A1A"/>
</svg>
