<svg width="159" height="136" viewBox="0 0 159 136" fill="none" xmlns="http://www.w3.org/2000/svg">
<path d="M26.8982 60.4002C27.9505 59.1067 29.8435 58.919 31.1258 59.9805C32.4079 61.042 32.5947 62.9507 31.5427 64.2442C26.5829 70.3408 19.9337 79.8724 15.4262 89.3336C35.7312 83.8059 49.4936 108.867 31.3356 119.548C28.2781 120.503 25.3647 120.815 22.6706 120.616C28.2995 123.368 34.8185 125.125 40.9275 125.405C41.1368 125.415 41.3452 125.419 41.5525 125.425C38.6944 122.197 38.269 117.135 42.6022 114.269C48.8972 112.279 54.2109 117.989 53.8392 123.017C57.0534 121.269 59.3024 118.545 60.1158 114.491C60.5023 112.565 60.6987 110.765 60.766 109.108C60.5036 109.281 60.2305 109.45 59.9452 109.611C45.3152 113.673 35.3278 95.6873 47.8247 87.8348C54.5061 85.7817 60.3132 88.7388 63.3763 93.2232C63.5093 93.3751 63.6294 93.5426 63.7332 93.7254L63.7114 93.7368C63.712 93.7377 63.7126 93.7386 63.7132 93.7394C63.7316 93.7291 63.7345 93.728 63.7349 93.728L63.7393 93.7368C63.7415 93.7408 63.7444 93.7451 63.7471 93.75C63.7528 93.7601 63.7595 93.7729 63.7671 93.7869C63.7825 93.8149 63.8026 93.8508 63.8255 93.894C63.8557 93.9511 63.8907 94.0224 63.9325 94.1056C64.6558 95.3546 65.173 96.6963 65.4496 98.0654C65.6166 98.6331 65.7814 99.2524 65.9345 99.9216C66.8056 103.729 67.3197 109.136 66.0041 115.693C64.804 121.675 61.3167 125.858 56.6176 128.39C52.0208 130.867 46.3717 131.721 40.6542 131.459C29.2822 130.938 16.5203 125.945 8.84757 118.323C5.17294 114.673 4.1522 109.712 4.53032 104.655C4.90675 99.6213 6.68079 94.1194 9.06256 88.769C13.8361 78.046 21.3975 67.1618 26.8982 60.4002Z" fill="#1A1A1A"/>
<path d="M66.2052 24.6351C72.7029 24.112 77.7454 25.4051 81.89 27.594C85.953 29.7399 89.0362 32.6956 91.6108 35.1757C94.3208 37.7862 96.308 39.6853 98.5279 40.6782C100.47 41.5465 102.809 41.7971 106.396 40.2603C116.261 36.0326 125.116 33.6822 132.265 33.0684C133.956 31.0195 136.389 29.429 139.293 28.695C145.89 27.0273 152.415 30.4123 153.867 36.2556C154.567 39.0728 153.956 41.9453 152.4 44.3536C153.849 49.1505 155.1 56.0378 154.288 63.1537C153.695 68.3531 151.986 73.7794 148.347 78.577C144.693 83.3938 139.231 87.3907 131.445 89.9297C119.064 93.9673 111.632 95.0745 103.354 95.9389C107.276 102.135 111.141 108.087 114.073 112.561C115.612 114.909 116.893 116.849 117.788 118.201C118.236 118.877 118.588 119.406 118.828 119.766C118.947 119.945 119.039 120.083 119.1 120.176C119.131 120.222 119.155 120.256 119.171 120.279C119.178 120.291 119.183 120.3 119.187 120.306C119.189 120.308 119.191 120.31 119.192 120.312L119.192 120.314L116.703 122.008C114.356 123.604 114.22 123.695 114.212 123.7L114.21 123.699C114.209 123.698 114.207 123.694 114.205 123.691C114.201 123.685 114.195 123.676 114.188 123.664C114.172 123.64 114.147 123.604 114.116 123.558C114.054 123.464 113.961 123.325 113.84 123.143C113.599 122.781 113.245 122.248 112.795 121.568C111.894 120.209 110.607 118.26 109.062 115.902C105.972 111.187 101.844 104.829 97.6976 98.2604C93.5555 91.6988 89.3764 84.8989 86.1933 79.3119C84.6043 76.5227 83.2401 73.9955 82.2486 71.9312C81.7537 70.9007 81.3317 69.9447 81.0187 69.1058C80.7287 68.3283 80.4436 67.4238 80.3764 66.5718C79.7047 58.0538 79.2655 53.1967 78.0367 46.3862C77.6668 44.336 76.9893 43.3602 76.4647 42.8785C75.9399 42.3968 75.2878 42.1521 74.4993 42.083C73.974 42.037 73.4338 42.0756 72.9282 42.1568L72.9718 45.8014C72.9914 47.4746 71.6623 48.8466 70.0036 48.8666C68.3453 48.8863 66.985 47.5472 66.965 45.8743L66.9146 41.6818C66.6992 41.5691 66.4666 41.4491 66.2217 41.3288C64.9055 40.6823 63.5242 40.1324 62.5564 39.9811C60.8095 39.7079 59.5196 39.7047 58.3584 39.9178C58.0868 39.9677 57.8125 40.0318 57.5324 40.111C57.9968 40.8037 58.4164 41.4401 58.7727 41.9944C59.1947 42.6508 59.5343 43.1936 59.7693 43.5739C59.8867 43.7639 59.9779 43.9146 60.0409 44.0182C60.0723 44.0699 60.0972 44.1105 60.114 44.1385C60.1223 44.1522 60.1286 44.1633 60.1332 44.171C60.1353 44.1745 60.1379 44.1775 60.1393 44.1797L60.1419 44.1841C60.9993 45.6164 60.5432 47.479 59.1235 48.3442C57.748 49.182 55.9724 48.7768 55.083 47.4486L54.9995 47.3178L54.996 47.3116C54.993 47.3066 54.9877 47.2987 54.9812 47.2879C54.9678 47.2657 54.9479 47.2307 54.9203 47.1852C54.8646 47.0937 54.7803 46.9568 54.6713 46.7804C54.4528 46.4269 54.1332 45.9146 53.733 45.2922C53.3913 44.7606 52.9895 44.1517 52.5466 43.4914C51.3407 44.9068 50.9343 45.9398 50.8763 46.7602C50.7901 47.9816 51.3992 49.7813 54.1073 52.9222C55.4958 54.5326 56.7125 56.0058 57.7857 57.3834C62.4259 63.3398 66.8787 66.9151 70.1551 74.8533C71.3818 77.8255 76.0139 90.5687 80.2954 102.442C82.4462 108.407 84.5227 114.191 86.061 118.483C86.8302 120.629 87.4638 122.403 87.9063 123.64C88.1274 124.259 88.3011 124.743 88.419 125.072C88.4779 125.237 88.5235 125.364 88.5539 125.449C88.569 125.491 88.5801 125.524 88.5878 125.546C88.5915 125.556 88.5946 125.564 88.5965 125.569C88.5975 125.572 88.5987 125.575 88.5992 125.576L88.6 125.577C89.1624 127.151 88.3528 128.888 86.7922 129.455C85.2317 130.023 83.51 129.207 82.9476 127.633V127.63C82.9471 127.629 82.9466 127.627 82.9458 127.625C82.9439 127.619 82.9401 127.61 82.9362 127.599C82.9286 127.578 82.9173 127.546 82.9023 127.504C82.872 127.419 82.8278 127.293 82.7691 127.129C82.6514 126.799 82.4775 126.315 82.2564 125.697C81.8143 124.461 81.1798 122.688 80.4112 120.544C78.8737 116.254 76.7989 110.474 74.6499 104.514C70.3318 92.5394 65.767 79.9888 64.6088 77.1827C61.7498 70.2557 58.5452 68.1659 53.0619 61.1272C52.0654 59.848 50.9152 58.4549 49.5742 56.8996C46.6742 53.5362 44.6182 50.1134 44.8853 46.33C45.1524 42.5468 47.6683 39.4532 51.0112 36.5384L51.2384 36.3408L51.4995 36.1924C53.4307 35.0929 55.2759 34.3246 57.2826 33.9561C59.2895 33.5876 61.2857 33.6502 63.4773 33.993C65.3868 34.2916 67.4465 35.1907 68.8512 35.8807C69.3528 36.1271 69.8072 36.3688 70.1908 36.577C70.3279 36.537 70.4733 36.4962 70.6251 36.4567C71.7164 36.1732 73.2926 35.8946 75.019 36.0458C76.7751 36.1996 78.7821 36.8119 80.5087 38.3971C82.2354 39.9825 83.4026 42.2849 83.9468 45.301C85.2331 52.4303 85.69 57.5439 86.3639 66.0916C86.3615 66.0603 86.3942 66.3091 86.6416 66.9722C86.8662 67.5741 87.2022 68.348 87.6539 69.2884C88.556 71.1667 89.8412 73.5536 91.401 76.2915C93.7581 80.4286 96.6913 85.2771 99.7665 90.223C99.8462 90.2085 99.9274 90.1969 100.009 90.1888C109.249 89.2759 116.425 88.4593 129.597 84.1638C136.366 81.9565 140.751 78.6188 143.576 74.8946C146.416 71.1512 147.822 66.8305 148.321 62.4609C148.884 57.5221 148.272 52.6556 147.372 48.8069C146.494 49.2469 145.55 49.6023 144.549 49.8552C137.952 51.5227 131.428 48.1378 129.976 42.2946C129.742 41.3544 129.655 40.4079 129.699 39.4744C123.873 40.3542 116.761 42.4012 108.745 45.8366C103.831 47.9424 99.7464 47.8521 96.0934 46.2185C92.719 44.7094 89.9396 41.9459 87.4615 39.5587C84.8479 37.041 82.3213 34.6625 79.1038 32.9631C75.9678 31.3068 72.0578 30.2424 66.6839 30.675C55.224 31.5976 47.577 34.8509 42.9573 38.9863C38.4065 43.06 36.5964 48.15 37.0019 53.406C37.1305 55.0741 35.8939 56.5318 34.2401 56.6616C32.5865 56.7912 31.1423 55.5438 31.0135 53.8757C30.4634 46.7453 32.9996 39.7984 38.97 34.4539C44.8715 29.1711 53.9209 25.6241 66.2052 24.6351Z" fill="#1A1A1A"/>
<path d="M119.193 120.314C120.12 121.702 119.757 123.585 118.381 124.52C117.006 125.455 115.139 125.087 114.212 123.7L116.703 122.008L119.193 120.314Z" fill="#1A1A1A"/>
<path d="M32.6203 79.6025C38.7839 77.6531 43.6176 86.1599 38.258 89.3397C32.0151 91.1181 27.3689 83.076 32.6203 79.6025Z" fill="#1A1A1A"/>
<path d="M136.986 62.5979C138.636 62.4196 140.116 63.6244 140.293 65.2882C140.469 66.9516 139.276 68.4444 137.627 68.6229C135.012 68.9057 133.418 69.531 132.438 70.1726C131.5 70.787 130.987 71.5052 130.661 72.2763C130.31 73.1067 130.148 74.0649 130.052 75.1861C129.999 75.8014 129.981 76.2324 129.932 76.8841C129.891 77.4367 129.83 78.1071 129.69 78.7473C129.331 80.3807 127.727 81.412 126.108 81.0503C124.488 80.6883 123.467 79.07 123.826 77.4364C123.867 77.2499 123.903 76.9491 123.941 76.432C123.972 76.0138 124.014 75.2739 124.067 74.6636C124.181 73.3333 124.409 71.6161 125.136 69.8986C125.887 68.122 127.14 66.4186 129.167 65.0906C131.154 63.7897 133.726 62.9504 136.986 62.5979Z" fill="#1A1A1A"/>
<path d="M49.199 8.12921C49.3551 6.46343 50.8205 5.24046 52.4718 5.3977C54.1232 5.55518 55.3357 7.0332 55.1796 8.69905C54.7193 13.6129 53.3336 17.8675 50.8563 21.2047C48.3495 24.5815 44.8712 26.819 40.6176 27.8943C39.0085 28.301 37.3765 27.3145 36.9732 25.6913C36.5703 24.0684 37.5483 22.4237 39.1571 22.0168C42.1871 21.2509 44.4361 19.7426 46.0473 17.5723C47.688 15.362 48.8114 12.266 49.199 8.12921Z" fill="#1A1A1A"/>
<path d="M71.6287 5.01313C73.0042 4.0782 74.87 4.44501 75.7971 5.83232C76.4083 6.74665 78.9792 9.31338 83.0642 9.79042C84.712 9.98289 85.894 11.4866 85.7033 13.1488C85.5125 14.811 84.0209 16.0025 82.3731 15.8101C76.2421 15.0941 72.2235 11.3233 70.8166 9.21795C69.8898 7.83044 70.2533 5.94832 71.6287 5.01313Z" fill="#1A1A1A"/>
<path fill-rule="evenodd" clip-rule="evenodd" d="M44.8073 7.32233C45.3769 3.3829 48.9165 0.544122 52.89 0.922461C56.8628 1.30148 59.8137 4.75817 59.6418 8.73594L59.6157 9.12227C59.1919 13.6448 58.0436 17.9123 55.9199 21.6094C59.0147 20.9263 62.3274 20.4381 65.8495 20.1546C73.1805 19.5644 79.0638 21.0271 83.9567 23.6113C88.6456 26.0879 92.1401 29.4708 94.6881 31.9253C97.5824 34.7134 98.9743 35.9611 100.334 36.5691L100.509 36.6429C100.914 36.8041 101.303 36.8841 101.772 36.8764C102.347 36.8669 103.258 36.7209 104.653 36.1231C114.074 32.0853 122.774 29.6319 130.163 28.7653C132.326 26.6851 135.083 25.1251 138.209 24.3348C146.648 22.2014 156.011 26.3961 158.189 35.1634C159.036 38.5716 158.561 41.9624 157.186 44.905C158.513 49.9496 159.515 56.6602 158.715 63.6682C158.051 69.4826 156.119 75.7295 151.886 81.3094C147.616 86.937 141.355 91.4225 132.816 94.2075C123.66 97.1931 117.082 98.6294 110.947 99.5326C113.468 103.46 115.836 107.1 117.79 110.082C119.324 112.423 120.6 114.357 121.492 115.703C121.938 116.375 122.289 116.901 122.527 117.26C122.609 117.383 122.666 117.469 122.713 117.539L122.866 117.768C122.874 117.78 122.881 117.792 122.889 117.802L123.044 118.032L123.079 118.104C123.296 118.464 123.451 118.765 123.629 119.216C124.087 120.372 124.153 122.358 124.153 122.358C124.045 124.652 122.904 126.867 120.872 128.248C113.84 131.954 109.061 126.414 101.659 127.908C94.2568 129.401 92.1781 132.276 88.3027 133.685C84.4581 135.082 80.2184 133.098 78.7882 129.246L78.7865 129.241C78.7839 129.234 78.778 129.218 78.7708 129.199C78.7659 129.186 78.76 129.17 78.7534 129.152C78.7575 129.163 78.7607 129.174 78.7639 129.182C78.7608 129.174 78.7573 129.165 78.7543 129.157L78.4906 128.419V128.415C78.3804 128.107 78.2391 127.712 78.064 127.223C77.6222 125.988 76.9879 124.216 76.2197 122.072C74.8737 118.317 73.1142 113.42 71.2557 108.261C71.2307 110.614 71.0091 113.172 70.5019 115.908L70.3713 116.586C68.8872 123.982 64.4953 129.242 58.7165 132.356C53.1908 135.333 46.6725 136.235 40.4518 135.95C28.1669 135.387 14.2997 130.049 5.71969 121.526C0.780433 116.619 -0.3498 110.14 0.0855047 104.317C0.517011 98.547 2.5145 92.5031 4.99637 86.9278C9.98433 75.7232 17.7995 64.4974 23.4526 57.5485L23.7033 57.2552C24.5535 56.3118 25.5941 55.6342 26.7167 55.2322C26.6468 54.9046 26.5961 54.5685 26.5696 54.2252C25.9181 45.7815 28.9335 37.531 35.8229 31.2641C34.2972 30.2646 33.1265 28.7047 32.6494 26.7845C31.6483 22.7517 34.0792 18.6666 38.0729 17.6566L38.462 17.5512C40.3596 16.9988 41.5905 16.0743 42.479 14.8777C43.4995 13.5028 44.4285 11.2659 44.7621 7.7069L44.8073 7.32233ZM31.1258 59.9805C29.8435 58.919 27.9505 59.1067 26.8982 60.4002C21.3975 67.1618 13.8361 78.046 9.06256 88.769L8.62251 89.7743C6.46385 94.8056 4.88326 99.9361 4.53032 104.655L4.4985 105.129C4.21812 110.021 5.28787 114.787 8.84757 118.323C16.5203 125.945 29.2822 130.938 40.6542 131.459C46.1929 131.713 51.6669 130.919 56.1827 128.618L56.6176 128.39C61.1697 125.938 64.5843 121.935 65.8844 116.249L66.0041 115.693C67.2374 109.546 66.8618 104.41 66.0924 100.655L65.9345 99.9216C65.7814 99.2524 65.6166 98.6331 65.4496 98.0654C65.173 96.6963 64.6558 95.3546 63.9325 94.1056C63.8907 94.0224 63.8557 93.9511 63.8255 93.894C63.8026 93.8508 63.7825 93.8149 63.7671 93.7869C63.7595 93.7729 63.7528 93.7601 63.7471 93.75C63.7444 93.7451 63.7415 93.7408 63.7393 93.7368L63.7349 93.728C63.7345 93.728 63.7316 93.7291 63.7132 93.7394L63.7114 93.7368L63.7332 93.7254C63.6294 93.5426 63.5093 93.3751 63.3763 93.2232C60.3132 88.7388 54.5061 85.7817 47.8247 87.8348L47.5352 88.0209C35.4836 95.9673 45.4296 113.641 59.9452 109.611C60.2305 109.45 60.5036 109.281 60.766 109.108C60.6987 110.765 60.5023 112.565 60.1158 114.491L60.0343 114.868C59.1599 118.714 56.9527 121.324 53.8392 123.017C54.2109 117.989 48.8972 112.279 42.6022 114.269C38.269 117.135 38.6944 122.197 41.5525 125.425C41.3452 125.419 41.1368 125.415 40.9275 125.405C34.8185 125.125 28.2995 123.368 22.6706 120.616C25.3647 120.815 28.2781 120.503 31.3356 119.548C49.4936 108.867 35.7312 83.8059 15.4262 89.3336C19.652 80.4638 25.7598 71.5321 30.5935 65.4269L31.5427 64.2442C32.5947 62.9507 32.4079 61.042 31.1258 59.9805ZM81.89 27.594C77.7454 25.4051 72.7029 24.112 66.2052 24.6351L65.0627 24.7352C53.3581 25.8473 44.6871 29.3362 38.97 34.4539L38.4194 34.9597C32.8434 40.2328 30.4807 46.9683 31.0135 53.8757C31.1423 55.5438 32.5865 56.7912 34.2401 56.6616C35.8939 56.5318 37.1305 55.0741 37.0019 53.406C36.5964 48.15 38.4065 43.06 42.9573 38.9863C47.577 34.8509 55.224 31.5976 66.6839 30.675C72.0578 30.2424 75.9678 31.3068 79.1038 32.9631C82.3213 34.6625 84.8479 37.041 87.4615 39.5587C89.9396 41.9459 92.719 44.7094 96.0934 46.2185C99.6322 47.801 103.575 47.9355 108.286 46.028L108.745 45.8366C116.761 42.4012 123.873 40.3542 129.699 39.4744C129.655 40.4079 129.742 41.3544 129.976 42.2946C131.428 48.1378 137.952 51.5227 144.549 49.8552C145.55 49.6023 146.494 49.2469 147.372 48.8069C148.272 52.6556 148.884 57.5221 148.321 62.4609L148.216 63.2802C147.64 67.3687 146.238 71.3854 143.576 74.8946L143.306 75.2431C140.474 78.8267 136.154 82.0255 129.597 84.1638C116.425 88.4593 109.249 89.2759 100.009 90.1888C99.9274 90.1969 99.8462 90.2085 99.7665 90.223L98.6197 88.3748C96.345 84.6908 94.1808 81.1045 92.3101 77.8755L91.401 76.2915C90.0901 73.9905 89.5937 72.9768 88.7351 71.2652C87.6782 69.1583 87.1113 67.6611 86.3634 65.1925C85.6155 62.7238 85.2904 53.0829 84.1778 46.6154L83.9468 45.301C83.4026 42.2849 82.2354 39.9825 80.5087 38.3971C78.7821 36.8119 76.7751 36.1996 75.019 36.0458C73.2926 35.8946 71.7164 36.1732 70.6251 36.4567L70.1908 36.577L69.5645 36.2434L68.8512 35.8807C67.4465 35.1907 65.3868 34.2916 63.4773 33.993C61.2857 33.6502 59.2895 33.5876 57.2826 33.9561C55.2759 34.3246 53.4307 35.0929 51.4995 36.1924L51.2384 36.3408L51.0112 36.5384C47.6683 39.4532 45.1524 42.5468 44.8853 46.33L44.8665 46.6839C44.7471 50.3274 46.7649 53.6414 49.5742 56.8996C50.9152 58.4549 52.0654 59.848 53.0619 61.1272C58.5452 68.1659 61.7498 70.2557 64.6088 77.1827C65.767 79.9888 70.3318 92.5394 74.6499 104.514C76.7989 110.474 78.8737 116.254 80.4112 120.544C81.1798 122.688 81.8143 124.461 82.2564 125.697C82.4775 126.315 82.6514 126.799 82.7691 127.129C82.8278 127.293 82.872 127.419 82.9023 127.504C82.9173 127.546 82.9286 127.578 82.9362 127.599C82.9401 127.61 82.9439 127.619 82.9458 127.625L82.9476 127.63V127.633C83.4925 129.157 85.1244 129.971 86.6446 129.505L86.7922 129.455C88.3037 128.906 89.1104 127.259 88.6483 125.726L88.6 125.577L88.5992 125.576C88.5992 125.576 88.5975 125.572 88.5965 125.569L88.5878 125.546L88.5539 125.449L86.061 118.483C85.2919 116.337 84.3877 113.818 83.4075 111.09L80.2954 102.442C76.2817 91.3115 71.9591 79.4164 70.4236 75.5232L70.1551 74.8533C66.9812 67.1634 62.7023 63.5679 58.2195 57.9357L57.7857 57.3834C56.9809 56.3503 56.0947 55.2631 55.1165 54.1049L54.1073 52.9222C51.3992 49.7813 50.7901 47.9816 50.8763 46.7602C50.9343 45.9398 51.3407 44.9068 52.5466 43.4914C52.9895 44.1517 53.3913 44.7606 53.733 45.2922C54.1332 45.9146 54.4528 46.4269 54.6713 46.7804C54.7803 46.9568 54.8646 47.0937 54.9203 47.1852C54.9479 47.2307 54.9678 47.2657 54.9812 47.2879C54.9877 47.2987 54.993 47.3066 54.996 47.3116L54.9995 47.3178L55.083 47.4486C55.9445 48.735 57.6371 49.1561 58.9924 48.4197L59.1235 48.3442C60.5432 47.479 60.9993 45.6164 60.1419 44.1841L60.1393 44.1797C60.1379 44.1775 60.1353 44.1745 60.1332 44.171C60.1286 44.1633 60.1223 44.1522 60.114 44.1385C60.0972 44.1105 60.0723 44.0699 60.0409 44.0182C59.9779 43.9146 59.8867 43.7639 59.7693 43.5739C59.5343 43.1936 59.1947 42.6508 58.7727 41.9944C58.4164 41.4401 57.9968 40.8037 57.5324 40.111C57.8125 40.0318 58.0868 39.9677 58.3584 39.9178C59.5196 39.7047 60.8095 39.7079 62.5564 39.9811C63.5242 40.1324 64.9055 40.6823 66.2217 41.3288C66.4666 41.4491 66.6992 41.5691 66.9146 41.6818L66.965 45.8743C66.9845 47.4947 68.2609 48.8025 69.8482 48.8649L70.0036 48.8666C71.6103 48.8471 72.9069 47.5592 72.9687 45.9577L72.9718 45.8014L72.9282 42.1568C73.4338 42.0756 73.974 42.037 74.4993 42.083C75.2878 42.1521 75.9399 42.3968 76.4647 42.8785C76.9893 43.3602 77.6668 44.336 78.0367 46.3862C79.2655 53.1967 79.7047 58.0538 80.3764 66.5718C80.4436 67.4238 80.7287 68.3283 81.0187 69.1058C81.3317 69.9447 81.7537 70.9007 82.2486 71.9312C83.2401 73.9955 84.6043 76.5227 86.1933 79.3119C89.3764 84.8989 93.5555 91.6988 97.6976 98.2604C101.844 104.829 105.972 111.187 109.062 115.902C110.607 118.26 111.894 120.209 112.795 121.568C113.245 122.248 113.599 122.781 113.84 123.143C113.961 123.325 114.054 123.464 114.116 123.558C114.147 123.604 114.172 123.64 114.188 123.664C114.195 123.676 114.201 123.685 114.205 123.691C114.207 123.694 114.209 123.698 114.21 123.699L114.212 123.7C115.139 125.087 117.006 125.455 118.381 124.52C119.757 123.585 120.12 121.702 119.193 120.314L116.703 122.008L119.192 120.314L119.192 120.312C119.192 120.312 119.189 120.308 119.187 120.306C119.183 120.3 119.178 120.291 119.171 120.279C119.155 120.256 119.131 120.222 119.1 120.176C119.039 120.083 118.947 119.945 118.828 119.766C118.588 119.406 118.236 118.877 117.788 118.201C117.341 117.525 116.795 116.702 116.171 115.755L114.073 112.561C111.141 108.087 107.276 102.135 103.354 95.9389C111.373 95.1015 118.599 94.0368 130.298 90.3003L131.445 89.9297C138.987 87.4701 144.348 83.6424 147.998 79.0265L148.347 78.577C151.759 74.0793 153.473 69.0288 154.163 64.131L154.288 63.1537C155.1 56.0378 153.849 49.1505 152.4 44.3536C153.908 42.0206 154.527 39.2518 153.928 36.5199L153.867 36.2556C152.415 30.4123 145.89 27.0273 139.293 28.695L138.754 28.8425C136.088 29.6295 133.851 31.1477 132.265 33.0684C125.116 33.6822 116.261 36.0326 106.396 40.2603L106.063 40.3999C102.883 41.6924 100.704 41.5463 98.8965 40.8336L98.5279 40.6782C96.5856 39.8095 94.8208 38.2471 92.5947 36.1213L91.6108 35.1757C89.1972 32.8506 86.3357 30.1078 82.6398 28.0058L81.89 27.594ZM38.258 89.3397C43.6176 86.1599 38.7839 77.6531 32.6203 79.6025L32.3804 79.7693C27.5916 83.2693 31.9686 90.845 37.9659 89.4161L38.258 89.3397ZM140.293 65.2882C140.116 63.6244 138.636 62.4196 136.986 62.5979C133.726 62.9504 131.154 63.7897 129.167 65.0906L128.795 65.3444C126.984 66.6321 125.84 68.2333 125.136 69.8986L125.005 70.2209C124.381 71.8294 124.174 73.4165 124.067 74.6636L123.996 75.6198C123.975 75.9332 123.957 76.2229 123.941 76.432C123.903 76.9491 123.867 77.2499 123.826 77.4364C123.467 79.07 124.488 80.6883 126.108 81.0503C127.676 81.4006 129.23 80.444 129.652 78.8992L129.69 78.7473C129.795 78.2674 129.855 77.7703 129.896 77.3188L129.932 76.8841C129.957 76.5586 129.972 76.2879 129.989 76.0219L130.052 75.1861C130.148 74.0649 130.31 73.1067 130.661 72.2763C130.987 71.5052 131.5 70.787 132.438 70.1726C133.357 69.5712 134.814 68.984 137.148 68.68L137.627 68.6229C139.224 68.4498 140.394 67.0436 140.305 65.4436L140.293 65.2882ZM52.4718 5.3977C50.8205 5.24046 49.3551 6.46343 49.199 8.12921C48.8114 12.266 47.688 15.362 46.0473 17.5723L45.7369 17.9718C44.1512 19.9284 41.9975 21.2987 39.1571 22.0168C37.5483 22.4237 36.5703 24.0684 36.9732 25.6913C37.3765 27.3145 39.0085 28.301 40.6176 27.8943C44.7382 26.8526 48.1311 24.7205 50.6182 21.5181L50.8563 21.2047C53.1786 18.0762 54.541 14.1414 55.0817 9.61308L55.1796 8.69905C55.3357 7.0332 54.1232 5.55518 52.4718 5.3977Z" fill="#FAFAF8"/>
<path d="M78.7647 129.184C78.7682 129.194 78.7718 129.202 78.7743 129.209L78.7821 129.23L78.7647 129.184Z" fill="#FAFAF8"/>
<path fill-rule="evenodd" clip-rule="evenodd" d="M69.138 1.28508C72.5547 -1.03711 77.1892 -0.125239 79.4915 3.31945L79.4811 3.30189C79.504 3.32025 79.8528 3.74024 80.5752 4.21942C81.3339 4.72257 82.3456 5.18111 83.5764 5.32484C87.6674 5.80283 90.6036 9.53619 90.1297 13.666C89.6703 17.6673 86.1789 20.5679 82.242 20.3108L81.8599 20.2757C74.208 19.3821 69.1155 14.7166 67.1204 11.7309C64.8184 8.28448 65.7215 3.60857 69.1371 1.28596L69.138 1.28508ZM75.7971 5.83232C74.87 4.44501 73.0042 4.0782 71.6287 5.01313C70.2533 5.94832 69.8898 7.83044 70.8166 9.21795C72.2235 11.3233 76.2421 15.0941 82.3731 15.8101C83.9693 15.9964 85.4185 14.8842 85.681 13.3034L85.7033 13.1488C85.8879 11.5388 84.7839 10.0773 83.2169 9.81239L83.0642 9.79042C79.2351 9.34327 76.7355 7.06021 75.9342 6.02287L75.7971 5.83232Z" fill="#FAFAF8"/>
</svg>
