<svg width="13" height="13" viewBox="0 0 13 13" fill="none" xmlns="http://www.w3.org/2000/svg">
<path d="M6.47958 12.2025C6.61245 12.2025 6.81851 12.1095 6.95808 12.0231C7.53636 11.651 8.10794 11.2654 8.42027 11.0262C8.7326 10.7869 8.59303 10.4213 8.21421 10.4213H4.74484C4.35942 10.4213 4.21985 10.7869 4.53889 11.0262C4.84462 11.2654 5.4162 11.651 5.99438 12.0231C6.14055 12.1095 6.34001 12.2025 6.47958 12.2025ZM2.79755 9.42442H10.1616C10.6866 9.42442 11.1186 8.99241 11.1186 8.46732C11.1186 7.94234 10.6866 7.51033 10.1616 7.51033H2.79755C2.27246 7.51033 1.84045 7.94234 1.84045 8.46732C1.84045 8.99241 2.27246 9.42442 2.79755 9.42442ZM1.116 6.51333H11.8431C12.3681 6.51333 12.8002 6.08132 12.8002 5.55634C12.8002 5.03784 12.3681 4.60594 11.8431 4.60594H1.116C0.591018 4.60594 0.159008 5.03784 0.159008 5.55634C0.159008 6.08132 0.591018 6.51333 1.116 6.51333ZM0.690696 3.60894H12.2618C12.8333 3.60894 13.0394 3.28991 12.9264 2.81141C12.5742 1.27613 11.2051 0 9.37737 0C8.07464 0 7.07775 0.717852 6.47958 1.81442C5.8814 0.724448 4.87782 0 3.58179 0C1.75407 0 0.378259 1.27613 0.0327349 2.81141C-0.086942 3.28991 0.119116 3.60894 0.690696 3.60894Z" fill="white"/>
</svg>
