<svg width="12" height="14" viewBox="0 0 12 14" fill="none" xmlns="http://www.w3.org/2000/svg">
<path d="M10.5197 5.56752C10.8519 5.43989 11.0485 5.23129 11.151 4.99835C11.2612 4.74764 11.2746 4.44248 11.1865 4.13872C11.0128 3.5406 10.473 3.0227 9.69933 3.02503C9.37341 3.13299 9.18152 3.32968 9.08098 3.55855C8.97161 3.80772 8.95902 4.122 9.04972 4.43828C9.22873 5.06187 9.77031 5.5866 10.5197 5.56752Z" fill="#1A1A1A" stroke="#1A1A1A" stroke-width="0.726985"/>
<path d="M4.06285 6.78216C5.09749 6.94611 5.82035 6.7139 6.28368 6.31147C6.75236 5.90434 7.00753 5.2769 7.01487 4.55384C7.02936 3.11027 6.04652 1.37112 4.01297 0.658024C2.9851 0.46347 2.23535 0.704634 1.73504 1.14353C1.22301 1.59283 0.929439 2.28654 0.899579 3.05806C0.840192 4.59507 1.83357 6.35388 4.06285 6.78216Z" fill="#1A1A1A" stroke="#1A1A1A" stroke-width="0.726985"/>
<path d="M7.83233 11.7027C8.15294 11.7678 8.36686 11.7702 8.56383 11.7376C8.77122 11.7033 8.97895 11.6273 9.30076 11.5011C10.2234 11.1392 10.8966 10.191 11.0871 9.23063C11.1813 8.75564 11.1512 8.30591 10.9991 7.94659C10.8508 7.59628 10.5802 7.31344 10.1473 7.1589C8.8027 6.67908 7.41117 7.61587 6.7614 8.89482C6.44289 9.52184 6.34618 10.161 6.49666 10.6579C6.63851 11.1261 7.0203 11.5376 7.83233 11.7027Z" fill="#1A1A1A" stroke="#1A1A1A" stroke-width="0.726985"/>
<path d="M3.96531 12.2342C4.50611 12.0561 4.75966 11.7292 4.84641 11.3531C4.94096 10.943 4.84818 10.4224 4.5786 9.89915C4.03301 8.84024 2.89206 7.99443 1.73572 8.1508C1.28302 8.24355 1.0511 8.50861 0.960906 8.86869C0.863337 9.25838 0.930791 9.78228 1.16974 10.3209C1.64715 11.3967 2.70518 12.3212 3.96531 12.2342Z" fill="#1A1A1A" stroke="#1A1A1A" stroke-width="0.726985"/>
</svg>
