<svg width="157" height="115" viewBox="0 0 157 115" fill="none" xmlns="http://www.w3.org/2000/svg">
<path fill-rule="evenodd" clip-rule="evenodd" d="M45.4775 5.17689C48.9372 2.00748 53.2267 0.315586 57.9572 0.0138329C61.619 -0.219573 64.7818 2.52851 65.0183 6.15512C65.2539 9.78249 62.4726 12.9089 58.8118 13.1424C56.868 13.2665 55.5416 13.8843 54.5078 14.8314C53.4952 15.7591 52.4375 17.3125 51.6082 19.8475C57.3533 18.1772 64.1441 17.6927 71.8492 18.4696C78.368 19.127 83.2915 21.3192 87.1688 24.3188C89.2102 25.8981 90.875 27.6405 92.2667 29.3014C95.3414 29.5117 98.3896 30.8173 100.759 33.4078L100.76 33.4084C102.084 34.8563 102.634 36.7274 102.439 38.5266C102.703 38.4888 102.995 38.4371 103.316 38.3659C113.853 36.0282 123.17 35.4333 130.393 36.4516C131.384 36.5913 132.354 36.7651 133.296 36.9738C135.55 35.4776 138.264 34.5423 141.186 34.356C148.922 33.8629 156.459 38.9576 156.973 46.8415C157.367 52.8962 153.403 57.8715 148.07 60.0545C147.933 63.3619 147.435 67.0036 146.315 70.6411C144.807 75.5352 142.119 80.5988 137.521 84.7237C132.883 88.8841 126.682 91.7467 118.754 92.7844C104.399 94.6633 92.6228 93.2706 84.1806 92.6142C79.8109 92.2744 76.7161 92.1638 74.3118 92.4926C72.1079 92.794 70.9816 93.4022 70.1743 94.2165L70.1737 94.2174C68.1077 96.2998 64.9863 96.7323 62.4802 95.5036C62.0843 97.4029 61.5066 99.4261 60.687 101.542L60.4648 102.104C57.9867 108.228 53.2989 112.054 47.7385 113.813C42.4215 115.494 36.5652 115.234 31.1589 114.001C20.4817 111.565 9.178 104.772 3.01457 96.0797C-0.533415 91.0759 -0.493632 85.3248 0.81484 80.3868C2.11144 75.4941 4.82441 70.6148 7.88686 66.2155C14.042 57.3737 22.679 48.9636 28.7396 43.8869L29.0059 43.675C29.9011 42.9989 30.9205 42.5815 31.9682 42.4142C31.959 42.1209 31.9683 41.8233 31.9998 41.5235L32.082 40.8287C32.9279 34.4735 36.1745 28.7211 41.7528 24.602C39.1094 23.1578 37.716 20.0575 38.5725 17.0571C39.8972 12.4181 42.0984 8.27277 45.4775 5.17689ZM35.0769 47.1973C34.122 46.0807 32.4332 45.9415 31.305 46.8865C25.4078 51.8264 17.0478 59.9834 11.1573 68.4449L10.6118 69.2389C7.919 73.222 5.71664 77.3826 4.65624 81.3841L4.55331 81.7865C3.5289 85.9486 3.70789 90.2167 6.265 93.8229C11.7767 101.596 22.1674 107.917 32.0513 110.171C36.8651 111.269 41.7891 111.457 46.1131 110.196L46.5299 110.07C50.9103 108.684 54.5408 105.784 56.5852 101.102L56.7783 100.644C58.8377 95.5536 59.3266 91.078 59.25 87.7266L59.2279 87.0716C59.2005 86.4768 59.1545 85.9216 59.0991 85.4104C59.0759 84.1815 58.8341 82.9372 58.3951 81.7411C58.3732 81.668 58.3547 81.6046 58.3382 81.5535C58.3252 81.513 58.3137 81.4784 58.3047 81.452C58.3004 81.4391 58.2965 81.427 58.2932 81.4175C58.2916 81.413 58.2895 81.4081 58.2882 81.4044C58.2876 81.4028 58.2864 81.3993 58.2864 81.3993L58.285 81.3964C58.285 81.3964 58.2804 81.3976 58.2657 81.4025L58.2645 81.4004L58.2846 81.3941C58.2247 81.2258 58.1481 81.067 58.0594 80.9192C56.0924 76.5697 51.4695 73.0959 45.2799 73.8003C33.0773 78.5667 38.9678 95.6187 52.4366 94.4507C52.712 94.3574 52.9782 94.2565 53.2353 94.1497C52.9126 95.5636 52.4541 97.0798 51.8088 98.6745L51.6783 98.9853C50.2997 102.153 47.9488 104.046 44.9505 105.008C46.0764 100.743 42.3277 94.9888 36.4939 95.7002C32.2401 97.476 31.8075 101.896 33.7983 105.126C33.6177 105.088 33.4355 105.051 33.2537 105.01C27.9443 103.798 22.5103 101.252 18.015 97.9918C20.3442 98.5902 22.9468 98.7843 25.7777 98.4489C43.3919 92.1505 35.3197 68.4163 16.6442 69.9422C21.7599 62.9866 28.5354 56.2764 33.7439 51.7947L34.7636 50.9292C35.8912 49.9843 36.0312 48.3136 35.0769 47.1973ZM71.4469 22.3791C60.5231 21.2777 52.027 22.8893 46.0139 26.494L45.4512 26.8416C39.7251 30.4897 36.5818 35.9058 35.9494 41.9296C35.7971 43.3841 36.8643 44.687 38.334 44.8383C39.7581 44.9846 41.0378 43.9962 41.2553 42.6118L41.2729 42.477C41.7541 37.8934 44.1509 33.8049 48.7875 31.0253C53.4945 28.2036 60.7143 26.6208 70.9051 27.6484C75.6839 28.1303 78.9419 29.6667 81.4269 31.5891C82.8917 32.7225 84.1206 34.0132 85.2598 35.395C83.5726 36.753 82.2781 38.6946 81.7582 41.0909C81.4483 42.5208 82.3685 43.9292 83.8134 44.2363C85.2581 44.5429 86.6813 43.6325 86.9919 42.2031C87.2396 41.0614 87.7742 40.204 88.4492 39.6072C90.0529 41.7852 91.8613 44.1032 94.2075 45.6866C97.0571 47.6094 100.492 48.3524 104.924 47.4607L105.356 47.3691C115.192 45.1869 123.317 44.7742 129.078 45.5864C129.883 45.6999 130.631 45.8369 131.324 45.992C131.131 46.7968 131.055 47.6352 131.111 48.4915L131.144 48.8706C131.575 52.766 134.678 55.8823 138.773 56.9424C138.866 60.2271 138.57 64.1418 137.396 67.9514L137.174 68.6388C136.019 72.0627 134.151 75.2936 131.259 77.8879L130.967 78.1438C128.013 80.6904 123.895 82.7069 118.116 83.5565L117.532 83.6376C106.007 85.1461 96.3901 84.3667 88.2908 83.6915L84.9114 83.4158C80.8562 83.1004 77.065 82.8977 73.7024 83.2708L73.0359 83.353C69.4313 83.846 66.168 85.083 63.5199 87.754C62.4851 88.7981 62.5013 90.4752 63.5561 91.4995C64.5781 92.4912 66.1998 92.5073 67.2412 91.5588L67.3403 91.4645C68.9305 89.8605 70.966 88.983 73.7683 88.5998C76.6503 88.2057 80.1422 88.3583 84.492 88.6965C93.073 89.3637 104.382 90.7017 118.234 88.8887C125.236 87.9722 130.544 85.5327 134.478 82.1437L134.854 81.8126C138.56 78.4875 140.867 74.4173 142.251 70.3156L142.516 69.4954C143.836 65.2097 144.211 60.856 144.132 57.1309C149.367 56.1849 153.203 52.052 153.022 47.3201L153.011 47.0948C152.674 41.9219 147.649 38.0161 141.723 38.2632L141.441 38.2781C138.584 38.4603 136.044 39.5779 134.196 41.2597L133.686 41.1162C132.655 40.8379 131.56 40.6086 130.412 40.4281L129.833 40.3424C123.232 39.4118 114.423 39.9288 104.185 42.2004L103.871 42.2667C100.672 42.9145 98.7379 42.3316 97.2233 41.3096C96.8487 41.0568 96.4898 40.7703 96.1377 40.4525C96.6739 40.3917 97.1968 40.1709 97.6274 39.7852C98.7226 38.8038 98.8069 37.1298 97.8159 36.0454C95.7669 33.8056 93.0233 32.9645 90.3722 33.2545C88.9427 31.4077 87.266 29.468 85.1514 27.7545L84.7231 27.4152C81.5417 24.954 77.4873 23.082 71.984 22.4377L71.4469 22.3791ZM122.566 61.0477C121.329 60.248 119.671 60.5921 118.862 61.8163L121.103 63.2654L118.86 61.819L118.859 61.8208C118.858 61.8225 118.857 61.8252 118.856 61.827C118.853 61.8306 118.85 61.8352 118.847 61.8396C118.841 61.8488 118.834 61.8602 118.826 61.8726C118.81 61.8982 118.788 61.9309 118.765 61.9698C118.717 62.048 118.654 62.1533 118.582 62.282C118.438 62.5389 118.251 62.8983 118.063 63.3345C117.696 64.1827 117.267 65.4461 117.21 66.8839C117.153 68.3638 117.493 70.0977 118.746 71.6527C119.98 73.183 121.872 74.2579 124.368 74.8929C125.799 75.2565 127.258 74.4028 127.626 72.9867C127.982 71.6143 127.183 70.2163 125.832 69.7992L125.7 69.7623C124.171 69.3733 123.427 68.866 123.064 68.4969L122.931 68.3483C122.652 68.002 122.539 67.6044 122.559 67.0892C122.579 66.6015 122.719 66.0825 122.902 65.6166L122.983 65.4202C123.089 65.1761 123.192 64.9784 123.265 64.8494C123.3 64.786 123.327 64.7404 123.342 64.7164C123.348 64.706 123.353 64.6994 123.354 64.6976C124.149 63.4749 123.798 61.8443 122.566 61.0477ZM33.2593 64.3061C28.1846 66.4248 30.8108 73.8735 36.3829 73.5936L36.651 73.5745C41.8541 71.6918 38.9714 63.6095 33.2593 64.3061ZM77.04 44.0215C71.9622 38.4708 62.6217 41.5103 60.9822 49.067C60.6723 50.497 61.5925 51.9054 63.0375 52.2124C64.4371 52.5095 65.8165 51.6643 66.1836 50.3114L66.216 50.1792C67.0714 46.2366 71.3336 45.6756 73.0718 47.5757C74.0327 48.6256 75.6503 48.7365 76.7466 47.8505L76.8514 47.7614C77.9467 46.7799 78.031 45.1059 77.04 44.0215ZM58.2125 3.93588C54.3135 4.1846 50.9095 5.55577 48.1749 8.06096L47.9234 8.29584C45.3546 10.7522 43.5426 14.1042 42.3941 18.1262C41.9925 19.5337 42.8201 20.9977 44.2423 21.3955C45.62 21.7804 47.0508 21.0236 47.5043 19.6965L47.545 19.5666C48.4807 16.2898 49.8375 13.9019 51.4781 12.2651L51.8105 11.9481C53.5681 10.3379 55.7791 9.39834 58.5566 9.22114C59.9853 9.12993 61.0807 7.94502 61.0616 6.5442L61.0561 6.4084C60.9639 4.99427 59.7656 3.91106 58.3497 3.9304L58.2125 3.93588Z" fill="#FAFAF8"/>
<path fill-rule="evenodd" clip-rule="evenodd" d="M75.1267 7.35185C75.3212 3.98955 78.0646 1.3096 81.4648 1.16104L81.8073 1.15487L82.4455 1.16884C88.9781 1.42131 93.6925 4.84301 95.6814 7.1716C98.0505 9.94642 97.6989 14.0959 94.8959 16.4408L94.8952 16.4417C92.0912 18.7863 87.8988 18.4366 85.5295 15.6634C85.6094 15.757 85.2659 15.3818 84.4834 14.9855C83.7631 14.6209 82.8233 14.3193 81.7192 14.3121C78.0478 14.2877 75.0924 11.3216 75.1162 7.69019L75.1267 7.35185ZM81.7812 5.08453C80.3032 5.07491 79.0968 6.2533 79.087 7.71602C79.0776 9.17835 80.2676 10.3726 81.7453 10.3824C85.4093 10.4064 87.9328 12.3906 88.5618 13.1267C89.4862 14.2084 91.0993 14.3739 92.2253 13.525L92.3326 13.44C93.4612 12.496 93.6027 10.8254 92.6492 9.70827C91.2014 8.01323 87.2804 5.12057 81.7812 5.08453Z" fill="#FAFAF8"/>
<path d="M31.305 46.8865C32.4332 45.9415 34.122 46.0807 35.0769 47.1973C36.0312 48.3136 35.8912 49.9843 34.7636 50.9292C29.446 55.3834 22.1008 62.523 16.6442 69.9422C35.3197 68.4163 43.3919 92.1505 25.7777 98.4489C22.9468 98.7843 20.3442 98.5902 18.015 97.9918C22.5103 101.252 27.9443 103.798 33.2537 105.01C33.4355 105.051 33.6177 105.088 33.7983 105.126C31.8075 101.896 32.2401 97.476 36.4939 95.7002C42.3277 94.9888 46.0764 100.743 44.9505 105.008C48.0457 104.015 50.4508 102.031 51.8088 98.6745C52.4541 97.0798 52.9126 95.5636 53.2353 94.1497C52.9782 94.2565 52.712 94.3574 52.4366 94.4507C38.9678 95.6187 33.0773 78.5667 45.2799 73.8003C51.4695 73.0959 56.0924 76.5697 58.0594 80.9192C58.1481 81.067 58.2247 81.2258 58.2846 81.3941L58.2645 81.4004L58.2657 81.4025C58.2804 81.3976 58.285 81.3964 58.285 81.3964L58.2864 81.3993C58.287 81.4009 58.2876 81.4026 58.2882 81.4044C58.2895 81.4081 58.2916 81.413 58.2932 81.4175C58.2965 81.427 58.3004 81.4391 58.3047 81.452C58.3137 81.4784 58.3252 81.513 58.3382 81.5535C58.3547 81.6046 58.3732 81.668 58.3951 81.7411C58.8341 82.9372 59.0759 84.1815 59.0991 85.4104C59.1545 85.9216 59.2005 86.4768 59.2279 87.0716C59.3853 90.4842 58.9751 95.2141 56.7783 100.644C54.7744 105.596 51.0516 108.639 46.5299 110.07C42.107 111.469 37.0205 111.305 32.0513 110.171C22.1674 107.917 11.7767 101.596 6.265 93.8229C3.62531 90.1003 3.51977 85.6728 4.65624 81.3841C5.78737 77.1157 8.21819 72.667 11.1573 68.4449C17.0478 59.9834 25.4078 51.8264 31.305 46.8865Z" fill="#1A1A1A"/>
<path d="M46.0139 26.494C52.027 22.8893 60.5231 21.2777 71.4469 22.3791C77.225 22.9618 81.439 24.8745 84.7231 27.4152C87.0419 29.2092 88.8474 31.2846 90.3722 33.2545C93.0233 32.9645 95.7669 33.8056 97.8159 36.0454C98.8069 37.1298 98.7226 38.8038 97.6274 39.7852C97.1968 40.1709 96.6739 40.3917 96.1377 40.4525C96.4898 40.7703 96.8487 41.0568 97.2233 41.3096C98.7869 42.3648 100.797 42.952 104.185 42.2004C114.423 39.9288 123.232 39.4118 129.833 40.3424C131.388 40.5616 132.85 40.8666 134.196 41.2597C136.044 39.5779 138.584 38.4603 141.441 38.2781C147.489 37.8925 152.668 41.8399 153.011 47.0948C153.325 51.9205 149.45 56.1699 144.132 57.1309C144.211 60.856 143.836 65.2097 142.516 69.4954C141.169 73.8718 138.807 78.2658 134.854 81.8126C130.884 85.3737 125.462 87.9427 118.234 88.8887C104.382 90.7017 93.073 89.3637 84.492 88.6965C80.1422 88.3583 76.6503 88.2057 73.7683 88.5998C70.966 88.983 68.9305 89.8605 67.3403 91.4645C66.3051 92.508 64.611 92.5236 63.5561 91.4995C62.5013 90.4752 62.4851 88.7981 63.5199 87.754C66.168 85.083 69.4313 83.846 73.0359 83.353C76.5609 82.871 80.5859 83.0794 84.9114 83.4158C93.6816 84.0977 104.36 85.3616 117.532 83.6376C123.816 82.8151 128.19 80.6412 131.259 77.8879C134.344 75.1205 136.264 71.6291 137.396 67.9514C138.57 64.1418 138.866 60.2271 138.773 56.9424C134.546 55.8481 131.376 52.5632 131.111 48.4915C131.055 47.6352 131.131 46.7968 131.324 45.992C130.631 45.8369 129.883 45.6999 129.078 45.5864C123.317 44.7742 115.192 45.1869 105.356 47.3691C100.715 48.399 97.1492 47.6717 94.2075 45.6866C91.8613 44.1032 90.0529 41.7852 88.4492 39.6072C87.7742 40.204 87.2396 41.0614 86.9919 42.2031C86.6813 43.6325 85.2581 44.5429 83.8134 44.2363C82.3685 43.9292 81.4483 42.5208 81.7582 41.0909C82.2781 38.6946 83.5726 36.753 85.2598 35.395C84.1206 34.0132 82.8917 32.7225 81.4269 31.5891C78.9419 29.6667 75.6839 28.1303 70.9051 27.6484C60.7143 26.6208 53.4945 28.2036 48.7875 31.0253C44.1509 33.8049 41.7541 37.8934 41.2729 42.477C41.1201 43.9318 39.8042 44.9895 38.334 44.8383C36.8643 44.687 35.7971 43.3841 35.9494 41.9296C36.6023 35.7113 39.9307 30.1408 46.0139 26.494Z" fill="#1A1A1A"/>
<path d="M118.862 61.8163C119.671 60.5921 121.329 60.248 122.566 61.0477C123.798 61.8443 124.149 63.4749 123.354 64.6976C123.353 64.6994 123.348 64.706 123.342 64.7164C123.327 64.7404 123.3 64.786 123.265 64.8494C123.192 64.9784 123.089 65.1761 122.983 65.4202C122.761 65.9336 122.581 66.5316 122.559 67.0892C122.539 67.6044 122.652 68.002 122.931 68.3483C123.23 68.7192 123.952 69.3177 125.7 69.7623C127.131 70.1265 127.994 71.5701 127.626 72.9867C127.258 74.4028 125.799 75.2565 124.368 74.8929C121.872 74.2579 119.98 73.183 118.746 71.6527C117.493 70.0977 117.153 68.3638 117.21 66.8839C117.267 65.4461 117.696 64.1827 118.063 63.3345C118.251 62.8983 118.438 62.5389 118.582 62.282C118.654 62.1533 118.717 62.048 118.765 61.9698C118.788 61.9309 118.81 61.8982 118.826 61.8726C118.834 61.8602 118.841 61.8488 118.847 61.8396C118.85 61.8352 118.853 61.8306 118.856 61.827C118.857 61.8252 118.858 61.8225 118.859 61.8208L118.86 61.819L121.103 63.2654L118.862 61.8163Z" fill="#1A1A1A"/>
<path d="M36.651 73.5745C41.8541 71.6918 38.9714 63.6095 33.2593 64.3061C28.1039 66.4584 30.8964 74.1118 36.651 73.5745Z" fill="#1A1A1A"/>
<path d="M60.9822 49.067C62.6217 41.5103 71.9622 38.4708 77.04 44.0215C78.031 45.1059 77.9467 46.7799 76.8514 47.7614C75.7557 48.743 74.0638 48.66 73.0718 47.5757C71.3336 45.6756 67.0714 46.2366 66.216 50.1792C65.9055 51.6091 64.4824 52.5192 63.0375 52.2124C61.5925 51.9054 60.6723 50.497 60.9822 49.067Z" fill="#1A1A1A"/>
<path d="M79.087 7.71602C79.0968 6.2533 80.3032 5.07491 81.7812 5.08453C87.2804 5.12057 91.2014 8.01323 92.6492 9.70827C93.6027 10.8254 93.4612 12.496 92.3326 13.44C91.2038 14.384 89.5159 14.2437 88.5618 13.1267C87.9328 12.3906 85.4093 10.4064 81.7453 10.3824C80.2676 10.3726 79.0776 9.17835 79.087 7.71602Z" fill="#1A1A1A"/>
<path d="M48.1749 8.06096C50.9095 5.55577 54.3135 4.1846 58.2125 3.93588C59.6875 3.84181 60.9609 4.94874 61.0561 6.4084C61.151 7.868 60.0315 9.12707 58.5566 9.22114C55.7791 9.39834 53.5681 10.3379 51.8105 11.9481C50.0207 13.5879 48.5431 16.0712 47.545 19.5666C47.143 20.9741 45.6646 21.7931 44.2423 21.3955C42.8201 20.9977 41.9925 19.5337 42.3941 18.1262C43.5798 13.9742 45.4725 10.5368 48.1749 8.06096Z" fill="#1A1A1A"/>
</svg>
