<svg width="17" height="17" viewBox="0 0 17 17" fill="none" xmlns="http://www.w3.org/2000/svg">
<path d="M2.98643 6.75932H4.24079V4.37359C4.24079 3.88168 4.48674 3.66032 4.94175 3.66032H13.341C13.8083 3.66032 14.042 3.88168 14.042 4.37359V6.75932H15.2963V4.39818C15.2963 3.08234 14.6077 2.39367 13.2549 2.39367H5.01553C3.6751 2.39367 2.98643 3.08234 2.98643 4.39818V6.75932ZM1.42464 4.17682C1.91654 4.17682 2.29776 3.7833 2.29776 3.30369C2.29776 2.82409 1.91654 2.41827 1.42464 2.41827C0.932731 2.41827 0.526911 2.81179 0.526911 3.30369C0.526911 3.7956 0.932731 4.17682 1.42464 4.17682ZM1.42464 6.57486C1.91654 6.57486 2.29776 6.18133 2.29776 5.68943C2.29776 5.20982 1.91654 4.804 1.42464 4.804C0.932731 4.804 0.526911 5.19752 0.526911 5.68943C0.526911 6.18133 0.945029 6.57486 1.42464 6.57486ZM15.7144 8.08746C15.7144 7.78002 15.4808 7.50947 15.1488 7.50947H2.18709C2.01492 7.25122 1.73208 7.10365 1.42464 7.10365C0.883541 7.10365 0.453125 7.53407 0.453125 8.07516C0.453125 8.61626 0.883541 9.04667 1.42464 9.04667C1.73208 9.04667 2.01492 8.8991 2.18709 8.65315H15.1488C15.4808 8.65315 15.7144 8.4072 15.7144 8.08746ZM4.24079 9.4279H2.98643V11.7644C2.98643 13.0926 3.6751 13.7812 5.01553 13.7812H13.2549C14.6077 13.7812 15.2963 13.0926 15.2963 11.7644V9.4279H14.042V11.8136C14.042 12.3055 13.8083 12.5269 13.341 12.5269H4.94175C4.48674 12.5269 4.24079 12.3055 4.24079 11.8136V9.4279ZM1.42464 11.334C1.91654 11.334 2.29776 10.9282 2.29776 10.4486C2.29776 9.9567 1.91654 9.57547 1.42464 9.57547C0.945029 9.57547 0.526911 9.9567 0.526911 10.4486C0.526911 10.9405 0.932731 11.334 1.42464 11.334ZM1.42464 13.7198C1.91654 13.7198 2.29776 13.3139 2.29776 12.8343C2.29776 12.367 1.91654 11.9612 1.42464 11.9612C0.932731 11.9612 0.526911 12.3547 0.526911 12.8343C0.526911 13.3262 0.932731 13.7198 1.42464 13.7198Z" fill="white"/>
</svg>
