<svg xmlns="http://www.w3.org/2000/svg" viewBox="6.246 31.891 55.290 55.290"><g transform="scale(0.0488,-0.0488) translate(0,-1950)"><path d="M186 998H1203C1236 998 1261 1023 1261 1056C1261 1088 1236 1113 1203 1113H186C153 1113 128 1088 128 1056C128 1023 153 998 186 998ZM186 673H1203C1236 673 1261 698 1261 731C1261 762 1236 789 1203 789H186C153 789 128 762 128 731C128 698 153 673 186 673ZM186 347H847C879 347 905 372 905 404C905 437 879 463 847 463H186C153 463 128 437 128 404C128 372 153 347 186 347Z" fill="currentColor"/></g></svg>