<svg width="80" height="39" viewBox="0 0 80 39" fill="none" xmlns="http://www.w3.org/2000/svg">
<g clip-path="url(#clip0_1772_27421)">
<rect width="79.0652" height="38.4429" rx="19.2214" fill="white"/>
<g opacity="0.5">
<g filter="url(#filter0_d_1772_27421)">
<rect width="25.6316" height="25.6316" rx="12.8158" transform="matrix(-1 0 0 1 32.2266 6.2583)" fill="#92D51F"/>
<rect x="-0.39228" y="0.39228" width="24.847" height="24.847" rx="12.4235" transform="matrix(-1 0 0 1 31.442 6.2583)" stroke="#1A1A1A" stroke-opacity="0.08" stroke-width="0.78456"/>
<path d="M16.152 24.4001C15.8779 24.4001 15.6791 24.2288 15.6791 23.9889C15.6791 23.9204 15.6928 23.8382 15.7408 23.7148L19.0991 14.764C19.2156 14.4625 19.4006 14.3185 19.7022 14.3185C19.99 14.3185 20.1682 14.4556 20.2847 14.764L23.6498 23.7148C23.6909 23.8313 23.7115 23.9135 23.7115 23.9889C23.7115 24.2288 23.5128 24.4001 23.2386 24.4001C22.9987 24.4001 22.8685 24.2905 22.7726 24.0369L21.7582 21.2749H17.6255L16.6112 24.0369C16.5221 24.2973 16.385 24.4001 16.152 24.4001ZM17.8997 20.4662H21.4841L19.7159 15.5727H19.6748L17.8997 20.4662Z" fill="white"/>
</g>
<g filter="url(#filter1_d_1772_27421)">
<rect width="10.393" height="10.393" rx="5.1965" transform="matrix(-1 0 0 1 34.5312 22.0105)" fill="white"/>
<rect x="-0.253617" y="0.253617" width="9.88576" height="9.88576" rx="4.94288" transform="matrix(-1 0 0 1 34.024 22.0105)" stroke="#1A1A1A" stroke-opacity="0.08" stroke-width="0.507234"/>
<g clip-path="url(#clip1_1772_27421)">
<path d="M30.6527 27.0198C30.5975 27.1384 30.5482 27.258 30.5047 27.3787C30.4642 27.4914 30.3752 27.5997 30.2377 27.7036C30.0738 27.8275 29.9133 27.841 29.7142 27.8434C29.0264 27.8524 28.3646 27.8604 27.7288 27.8673C27.6985 27.8676 27.6704 27.8776 27.6443 27.8972C27.6406 27.9001 27.6376 27.9038 27.6356 27.908C27.6336 27.9123 27.6326 27.9169 27.6328 27.9216C27.633 27.9263 27.6343 27.9309 27.6367 27.9349C27.639 27.939 27.6423 27.9425 27.6462 27.945C27.6663 27.958 27.6898 27.9647 27.7167 27.965C28.142 27.97 28.7969 27.9776 29.6814 27.9877C29.8457 27.9895 29.9507 28.0018 29.9966 28.0247C30.162 28.107 30.1849 28.2738 30.1455 28.4415C30.1336 28.493 30.122 28.5453 30.1105 28.5982" stroke="#FAC190" stroke-width="0.0482771"/>
<path d="M30.7737 27.0618C30.7579 27.0925 30.7448 27.123 30.7343 27.1533C30.7071 27.2316 30.6815 27.316 30.6575 27.4065C30.5982 27.6288 30.7184 27.8277 30.9573 27.8395C31.0928 27.8463 31.2519 27.8572 31.4346 27.8723C31.4399 27.8728 31.4451 27.8743 31.4498 27.8768C31.4545 27.8793 31.4587 27.8827 31.462 27.8868C31.4654 27.8909 31.4679 27.8957 31.4693 27.9008C31.4708 27.9059 31.4712 27.9113 31.4705 27.9165L31.4703 27.9182C31.4689 27.9294 31.4638 27.9397 31.4557 27.9475C31.4477 27.9553 31.4373 27.9601 31.4261 27.9612C31.2652 27.9757 31.124 27.9848 31.0025 27.9887C30.6911 27.9986 30.4444 28.1651 30.3075 28.4449C30.2929 28.4747 30.2763 28.5259 30.2578 28.5984" stroke="#FDD7A0" stroke-width="0.0482771"/>
<path d="M30.6535 27.0197C30.5983 27.1383 30.5489 27.2579 30.5055 27.3786C30.4649 27.4913 30.3759 27.5996 30.2385 27.7035C30.0746 27.8273 29.9141 27.8409 29.715 27.8433C29.0272 27.8523 28.3654 27.8603 27.7296 27.8672C27.6993 27.8675 27.6711 27.8775 27.6451 27.8971C27.6413 27.9 27.6384 27.9037 27.6364 27.9079C27.6344 27.9122 27.6334 27.9168 27.6336 27.9215C27.6338 27.9262 27.6351 27.9308 27.6374 27.9348C27.6398 27.9389 27.6431 27.9424 27.647 27.9449C27.6671 27.9579 27.6906 27.9646 27.7175 27.9649C28.1428 27.9699 28.7977 27.9775 29.6821 27.9876C29.8464 27.9894 29.9515 28.0017 29.9974 28.0246C30.1627 28.1069 30.1857 28.2737 30.1463 28.4414C30.1344 28.4929 30.1227 28.5451 30.1113 28.5981L26.0679 28.5974C26.0566 28.5974 26.0458 28.5932 26.0374 28.5858C26.029 28.5783 26.0237 28.568 26.0225 28.5568C25.9667 28.074 26.2554 27.6535 26.7322 27.5338C26.7775 27.5224 26.8225 27.5176 26.8671 27.5196C26.8707 27.5197 26.8743 27.5191 26.8777 27.5177C26.881 27.5163 26.884 27.5141 26.8864 27.5114C26.8888 27.5087 26.8906 27.5055 26.8917 27.5021C26.8927 27.4986 26.893 27.4949 26.8924 27.4913C26.8611 27.2765 26.9056 27.0968 27.0262 26.9523C27.247 26.688 27.6065 26.645 27.8954 26.8328C27.8969 26.8339 27.8987 26.8345 27.9005 26.8348C27.9024 26.8351 27.9043 26.835 27.9061 26.8345C27.9079 26.8341 27.9095 26.8332 27.911 26.8321C27.9124 26.8309 27.9136 26.8294 27.9145 26.8278C27.9302 26.7981 27.9323 26.7595 27.949 26.7242C28.1266 26.3528 28.4006 26.0997 28.7709 25.9648C29.2691 25.7835 29.8183 25.8975 30.2151 26.2509C30.3915 26.4079 30.5214 26.6131 30.6049 26.8664C30.6241 26.9245 30.6403 26.9756 30.6535 27.0197Z" fill="#F58220"/>
<path d="M30.6527 27.0198C30.6891 27.047 30.7274 27.0609 30.7678 27.0615C30.7521 27.0923 30.7389 27.1228 30.7285 27.153C30.7013 27.2314 30.6757 27.3158 30.6517 27.4062C30.5923 27.6285 30.7126 27.8275 30.9515 27.8393C31.087 27.846 31.2461 27.857 31.4287 27.8721C31.4341 27.8726 31.4392 27.8741 31.444 27.8766C31.4487 27.879 31.4528 27.8825 31.4562 27.8866C31.4596 27.8907 31.462 27.8955 31.4635 27.9006C31.465 27.9057 31.4654 27.911 31.4647 27.9163L31.4645 27.918C31.4631 27.9291 31.458 27.9395 31.4499 27.9473C31.4419 27.9551 31.4314 27.9599 31.4203 27.9609C31.2594 27.9754 31.1182 27.9846 30.9967 27.9885C30.6853 27.9984 30.4386 28.1649 30.3017 28.4447C30.2871 28.4744 30.2705 28.5256 30.252 28.5982H30.1105C30.122 28.5453 30.1336 28.493 30.1455 28.4415C30.1849 28.2738 30.162 28.107 29.9966 28.0247C29.9507 28.0018 29.8457 27.9895 29.6814 27.9877C28.7969 27.9776 28.142 27.97 27.7167 27.965C27.6898 27.9647 27.6663 27.958 27.6462 27.945C27.6423 27.9425 27.639 27.939 27.6367 27.9349C27.6343 27.9309 27.633 27.9263 27.6328 27.9216C27.6326 27.9169 27.6336 27.9123 27.6356 27.908C27.6376 27.9038 27.6406 27.9001 27.6443 27.8972C27.6704 27.8776 27.6985 27.8676 27.7288 27.8673C28.3646 27.8604 29.0264 27.8524 29.7142 27.8434C29.9133 27.841 30.0738 27.8275 30.2377 27.7036C30.3752 27.5997 30.4642 27.4914 30.5047 27.3787C30.5482 27.258 30.5975 27.1384 30.6527 27.0198Z" fill="white"/>
<path d="M30.2578 28.598C30.2763 28.5255 30.2929 28.4743 30.3075 28.4445C30.4444 28.1648 30.6911 27.9982 31.0025 27.9883C31.124 27.9844 31.2652 27.9753 31.4261 27.9608C31.4373 27.9598 31.4477 27.9549 31.4557 27.9471C31.4638 27.9393 31.4689 27.929 31.4703 27.9178L31.4705 27.9161C31.4712 27.9109 31.4708 27.9055 31.4693 27.9004C31.4679 27.8953 31.4654 27.8906 31.462 27.8864C31.4587 27.8823 31.4545 27.8789 31.4498 27.8764C31.4451 27.8739 31.4399 27.8724 31.4346 27.872C31.2519 27.8568 31.0928 27.8459 30.9573 27.8391C30.7184 27.8273 30.5982 27.6284 30.6575 27.4061C30.6815 27.3156 30.7071 27.2312 30.7343 27.1529C30.7448 27.1226 30.7579 27.0921 30.7737 27.0614C31.0516 27.0471 31.3009 27.1175 31.5217 27.2728C31.8285 27.4891 32.0267 27.8473 32.0243 28.2299C32.0236 28.3524 32.0111 28.4649 31.9866 28.5674C31.9846 28.5759 31.9797 28.5834 31.9729 28.5888C31.9661 28.5942 31.9576 28.5971 31.949 28.5971L30.2578 28.598Z" fill="#FAAE40"/>
</g>
</g>
<path d="M40.3378 22.8004C40.0071 22.8004 39.7849 22.598 39.7849 22.2968C39.7849 22.2129 39.8046 22.1043 39.854 21.971L42.0214 16.0957C42.1646 15.7007 42.4065 15.5181 42.7966 15.5181C43.1817 15.5181 43.4187 15.6958 43.5668 16.0908L45.7391 21.971C45.7885 22.1092 45.8083 22.203 45.8083 22.2968C45.8083 22.5881 45.5762 22.8004 45.2553 22.8004C44.9591 22.8004 44.7961 22.6622 44.6974 22.3462L44.1543 20.8107H41.429L40.8908 22.3413C40.7871 22.6622 40.6242 22.8004 40.3378 22.8004ZM41.7104 19.9072H43.8729L42.8015 16.782H42.7719L41.7104 19.9072ZM48.5458 22.8103C47.2325 22.8103 46.3636 21.7636 46.3636 20.1245C46.3636 18.4853 47.2325 17.4436 48.536 17.4436C49.2815 17.4436 49.8739 17.8188 50.1652 18.3915H50.185V16.0661C50.185 15.7156 50.4072 15.5033 50.7231 15.5033C51.0342 15.5033 51.2564 15.7156 51.2564 16.0661V22.282C51.2564 22.6178 51.0391 22.8152 50.7281 22.8152C50.4269 22.8152 50.185 22.6178 50.185 22.282V21.7982H50.1702C49.9036 22.4055 49.3555 22.8103 48.5458 22.8103ZM48.8273 21.9068C49.6468 21.9068 50.1949 21.2107 50.1949 20.1245C50.1949 19.0482 49.6468 18.3421 48.8273 18.3421C47.983 18.3421 47.4547 19.0334 47.4547 20.1245C47.4547 21.2205 47.983 21.9068 48.8273 21.9068ZM52.9867 22.8152C52.6658 22.8152 52.4535 22.5931 52.4535 22.2524V17.9768C52.4535 17.6411 52.6609 17.4337 52.9621 17.4337C53.2583 17.4337 53.4706 17.6361 53.4706 17.9768V18.4014H53.4953C53.7273 17.8237 54.2704 17.4386 54.9715 17.4386C55.6923 17.4386 56.2157 17.8089 56.423 18.4557H56.4477C56.7143 17.8237 57.3265 17.4386 58.0671 17.4386C59.094 17.4386 59.7655 18.12 59.7655 19.1518V22.2524C59.7655 22.5931 59.5483 22.8152 59.2274 22.8152C58.9064 22.8152 58.6941 22.5931 58.6941 22.2524V19.4086C58.6941 18.7371 58.3337 18.352 57.7018 18.352C57.0698 18.352 56.6304 18.8211 56.6304 19.4777V22.2524C56.6304 22.5931 56.428 22.8152 56.107 22.8152C55.7861 22.8152 55.5837 22.5931 55.5837 22.2524V19.3296C55.5837 18.7322 55.2035 18.352 54.6012 18.352C53.9692 18.352 53.52 18.8457 53.52 19.5123V22.2524C53.52 22.5931 53.3077 22.8152 52.9867 22.8152ZM61.4663 16.7425C61.1256 16.7425 60.8491 16.466 60.8491 16.1303C60.8491 15.7896 61.1256 15.523 61.4663 15.523C61.8119 15.523 62.0884 15.7896 62.0884 16.1303C62.0884 16.466 61.8119 16.7425 61.4663 16.7425ZM61.4663 22.8152C61.1454 22.8152 60.9331 22.5931 60.9331 22.2524V18.0015C60.9331 17.6559 61.1454 17.4337 61.4663 17.4337C61.7872 17.4337 61.9995 17.6559 61.9995 18.0015V22.2524C61.9995 22.5931 61.7872 22.8152 61.4663 22.8152ZM63.7249 22.8152C63.409 22.8152 63.1917 22.6029 63.1917 22.2524V17.9719C63.1917 17.646 63.3892 17.4337 63.7003 17.4337C64.0064 17.4337 64.2187 17.646 64.2187 17.9768V18.3866H64.2433C64.5248 17.7941 65.0679 17.4386 65.8677 17.4386C67.0131 17.4386 67.6698 18.1693 67.6698 19.3592V22.2524C67.6698 22.6029 67.4476 22.8152 67.1316 22.8152C66.8206 22.8152 66.5984 22.6029 66.5984 22.2524V19.5666C66.5984 18.7865 66.233 18.357 65.4925 18.357C64.742 18.357 64.2582 18.8902 64.2582 19.6949V22.2524C64.2582 22.6029 64.036 22.8152 63.7249 22.8152Z" fill="#1A1A1A"/>
</g>
</g>
<rect x="0.44701" y="0.44701" width="78.1711" height="37.5489" rx="18.7744" stroke="#1A1A1A" stroke-opacity="0.08" stroke-width="0.894021"/>
<defs>
<filter id="filter0_d_1772_27421" x="-12.628" y="-12.9634" width="95.4586" height="95.4574" filterUnits="userSpaceOnUse" color-interpolation-filters="sRGB">
<feFlood flood-opacity="0" result="BackgroundImageFix"/>
<feColorMatrix in="SourceAlpha" type="matrix" values="0 0 0 0 0 0 0 0 0 0 0 0 0 0 0 0 0 0 127 0" result="hardAlpha"/>
<feOffset dx="15.6912" dy="15.6912"/>
<feGaussianBlur stdDeviation="17.4565"/>
<feComposite in2="hardAlpha" operator="out"/>
<feColorMatrix type="matrix" values="0 0 0 0 0 0 0 0 0 0 0 0 0 0 0 0 0 0 0.08 0"/>
<feBlend mode="normal" in2="BackgroundImageFix" result="effect1_dropShadow_1772_27421"/>
<feBlend mode="normal" in="SourceGraphic" in2="effect1_dropShadow_1772_27421" result="shape"/>
</filter>
<filter id="filter1_d_1772_27421" x="11.7134" y="9.58326" width="55.5345" height="55.5369" filterUnits="userSpaceOnUse" color-interpolation-filters="sRGB">
<feFlood flood-opacity="0" result="BackgroundImageFix"/>
<feColorMatrix in="SourceAlpha" type="matrix" values="0 0 0 0 0 0 0 0 0 0 0 0 0 0 0 0 0 0 127 0" result="hardAlpha"/>
<feOffset dx="10.1447" dy="10.1447"/>
<feGaussianBlur stdDeviation="11.286"/>
<feComposite in2="hardAlpha" operator="out"/>
<feColorMatrix type="matrix" values="0 0 0 0 0 0 0 0 0 0 0 0 0 0 0 0 0 0 0.08 0"/>
<feBlend mode="normal" in2="BackgroundImageFix" result="effect1_dropShadow_1772_27421"/>
<feBlend mode="normal" in="SourceGraphic" in2="effect1_dropShadow_1772_27421" result="shape"/>
</filter>
<clipPath id="clip0_1772_27421">
<rect width="79.0652" height="38.4429" rx="19.2214" fill="white"/>
</clipPath>
<clipPath id="clip1_1772_27421">
<rect width="6.17947" height="6.17947" fill="white" transform="translate(25.9297 24.1384)"/>
</clipPath>
</defs>
</svg>
