<svg width="392" height="57" viewBox="0 0 392 57" fill="none" xmlns="http://www.w3.org/2000/svg">
<rect width="392" height="57" rx="16" fill="#F4F3F0"/>
<rect x="0.5" y="0.5" width="391" height="56" rx="15.5" stroke="#1A1A1A" stroke-opacity="0.08"/>
<rect x="5" y="5" width="108" height="47" rx="12" fill="white"/>
<path d="M36.1205 35.1406C35.5053 35.1406 35.1361 34.7539 35.1361 34.1211V23.1963C35.1361 22.5635 35.5053 22.1768 36.1205 22.1768C36.727 22.1768 37.1049 22.5635 37.1049 23.1963V34.1211C37.1049 34.7539 36.727 35.1406 36.1205 35.1406ZM40.3435 35.167C39.781 35.167 39.3943 34.7891 39.3943 34.165V26.5449C39.3943 25.9648 39.7458 25.5869 40.2995 25.5869C40.8445 25.5869 41.2224 25.9648 41.2224 26.5537V27.2832H41.2663C41.7673 26.2285 42.7341 25.5957 44.1579 25.5957C46.197 25.5957 47.3659 26.8965 47.3659 29.0146V34.165C47.3659 34.7891 46.9704 35.167 46.4079 35.167C45.8542 35.167 45.4587 34.7891 45.4587 34.165V29.3838C45.4587 27.9951 44.8083 27.2305 43.49 27.2305C42.154 27.2305 41.2927 28.1797 41.2927 29.6123V34.165C41.2927 34.7891 40.8972 35.167 40.3435 35.167ZM50.8946 35.167C50.3145 35.167 49.9366 34.8066 49.9366 34.1738V27.2568H49.2774C48.8291 27.2568 48.5215 26.9932 48.5215 26.5186C48.5215 26.0615 48.8291 25.7715 49.2774 25.7715H49.9366V24.8662C49.9366 23.0732 50.8067 22.2383 52.3975 22.2295C53.4082 22.2295 53.8916 22.5547 53.8916 23.0645C53.8916 23.3721 53.7422 23.5566 53.4346 23.6445C53.3028 23.6797 53.1446 23.7061 52.9512 23.7061C52.1514 23.7148 51.8174 24.0928 51.8174 24.9365V25.7715H53.0655C53.5137 25.7715 53.8213 26.0615 53.8213 26.5186C53.8213 26.9932 53.5137 27.2568 53.0655 27.2568H51.8438V34.1738C51.8438 34.8066 51.4659 35.167 50.8946 35.167ZM58.9671 35.1758C56.3216 35.1758 54.5814 33.3564 54.5814 30.377C54.5814 27.4062 56.3304 25.5869 58.9671 25.5869C61.6039 25.5869 63.3529 27.4062 63.3529 30.377C63.3529 33.3564 61.6127 35.1758 58.9671 35.1758ZM58.9671 33.6113C60.4613 33.6113 61.4193 32.4336 61.4193 30.377C61.4193 28.3291 60.4525 27.1514 58.9671 27.1514C57.4818 27.1514 56.515 28.3291 56.515 30.377C56.515 32.4336 57.4818 33.6113 58.9671 33.6113ZM65.9499 35.167C65.3786 35.167 65.0007 34.7803 65.0007 34.165V26.5449C65.0007 25.9648 65.3698 25.5869 65.9059 25.5869C66.4333 25.5869 66.8024 25.9648 66.8024 26.5449V27.3359H66.8464C67.1012 26.2988 67.9538 25.6045 68.8766 25.6045C69.2106 25.6045 69.4655 25.6836 69.6237 25.833C69.7995 25.9736 69.8786 26.2021 69.8786 26.501C69.8786 26.7998 69.7819 27.0195 69.5973 27.1689C69.404 27.3359 69.1227 27.415 68.7272 27.415C67.4264 27.4238 66.8991 28.2939 66.8991 29.4453V34.165C66.8991 34.7803 66.5124 35.167 65.9499 35.167ZM72.0361 35.167C71.4648 35.167 71.0869 34.7715 71.0869 34.165V26.5537C71.0869 25.9561 71.4561 25.5869 71.9922 25.5869C72.5195 25.5869 72.8975 25.9473 72.8975 26.5537V27.3096H72.9414C73.3545 26.2812 74.3213 25.5957 75.5693 25.5957C76.8525 25.5957 77.7842 26.2549 78.1533 27.4062H78.1973C78.6719 26.2812 79.7617 25.5957 81.0801 25.5957C82.9082 25.5957 84.1035 26.8086 84.1035 28.6455V34.165C84.1035 34.7715 83.7168 35.167 83.1455 35.167C82.5742 35.167 82.1963 34.7715 82.1963 34.165V29.1025C82.1963 27.9072 81.5547 27.2217 80.4297 27.2217C79.3047 27.2217 78.5225 28.0566 78.5225 29.2256V34.165C78.5225 34.7715 78.1621 35.167 77.5908 35.167C77.0195 35.167 76.6592 34.7715 76.6592 34.165V28.9619C76.6592 27.8984 75.9824 27.2217 74.9102 27.2217C73.7852 27.2217 72.9854 28.1006 72.9854 29.2871V34.165C72.9854 34.7715 72.6074 35.167 72.0361 35.167Z" fill="#1A1A1A"/>
<path d="M143.785 35.123C143.302 35.123 142.994 34.8066 142.994 34.3057V23.1348C142.994 22.6338 143.302 22.3174 143.785 22.3174H147.521C149.902 22.3174 151.581 23.9873 151.581 26.3867C151.581 28.7949 149.885 30.4736 147.503 30.4736H144.576V34.3057C144.576 34.8066 144.269 35.123 143.785 35.123ZM144.576 29.0674H147.107C148.918 29.0674 149.955 28.0742 149.955 26.3867C149.955 24.708 148.927 23.7236 147.107 23.7236H144.576V29.0674ZM154.108 35.1582C153.66 35.1582 153.343 34.8242 153.343 34.3408V26.4746C153.343 26.0176 153.642 25.7012 154.064 25.7012C154.486 25.7012 154.785 26.0176 154.785 26.4746V27.3535H154.82C155.083 26.4043 155.98 25.7012 156.894 25.7012C157.228 25.7012 157.465 25.7803 157.615 25.9209C157.746 26.0439 157.808 26.2197 157.808 26.4307C157.808 26.668 157.729 26.8438 157.571 26.9668C157.412 27.0986 157.175 27.1602 156.841 27.1602C155.461 27.1602 154.872 28.1533 154.872 29.3223V34.3408C154.872 34.8242 154.556 35.1582 154.108 35.1582ZM162.426 35.1582C159.895 35.1582 158.19 33.3389 158.19 30.4297C158.19 27.5117 159.895 25.7012 162.426 25.7012C164.949 25.7012 166.654 27.5117 166.654 30.4297C166.654 33.3389 164.949 35.1582 162.426 35.1582ZM162.426 33.8135C164.044 33.8135 165.098 32.583 165.098 30.4297C165.098 28.2764 164.044 27.0459 162.426 27.0459C160.809 27.0459 159.746 28.2764 159.746 30.4297C159.746 32.583 160.809 33.8135 162.426 33.8135ZM169.146 38.2256C168.697 38.2256 168.381 37.8916 168.381 37.4082V26.4746C168.381 26.0176 168.68 25.7012 169.11 25.7012C169.532 25.7012 169.831 26.0176 169.831 26.4746V27.4062H169.866C170.429 26.3779 171.492 25.7012 172.819 25.7012C175.148 25.7012 176.731 27.5645 176.731 30.4297C176.731 33.2949 175.157 35.1582 172.855 35.1582C171.545 35.1582 170.49 34.5166 169.945 33.5146H169.91V37.4082C169.91 37.8916 169.594 38.2256 169.146 38.2256ZM172.521 33.8135C174.147 33.8135 175.166 32.5039 175.166 30.4297C175.166 28.3643 174.147 27.0459 172.521 27.0459C170.956 27.0459 169.901 28.3994 169.901 30.4297C169.901 32.4688 170.956 33.8135 172.521 33.8135ZM182.245 35.1582C179.714 35.1582 178.009 33.3389 178.009 30.4297C178.009 27.5117 179.714 25.7012 182.245 25.7012C184.768 25.7012 186.473 27.5117 186.473 30.4297C186.473 33.3389 184.768 35.1582 182.245 35.1582ZM182.245 33.8135C183.863 33.8135 184.917 32.583 184.917 30.4297C184.917 28.2764 183.863 27.0459 182.245 27.0459C180.628 27.0459 179.565 28.2764 179.565 30.4297C179.565 32.583 180.628 33.8135 182.245 33.8135ZM191.373 35.1582C189.747 35.1582 188.472 34.4287 188.033 33.2861C187.98 33.1543 187.963 33.04 187.963 32.9258C187.963 32.5215 188.261 32.293 188.657 32.293C188.929 32.293 189.149 32.4336 189.325 32.75C189.782 33.5498 190.327 33.9102 191.496 33.9102C192.665 33.9102 193.456 33.4004 193.456 32.5479C193.456 31.8887 193.078 31.5371 192.049 31.2822L190.652 30.9307C188.885 30.4912 188.033 29.6562 188.033 28.373C188.033 26.7822 189.43 25.7012 191.496 25.7012C192.999 25.7012 194.335 26.5449 194.572 27.6436C194.59 27.7314 194.598 27.8018 194.598 27.8721C194.598 28.2324 194.37 28.4697 194.001 28.4697C193.702 28.4697 193.491 28.373 193.324 28.0566C192.928 27.292 192.34 26.958 191.408 26.958C190.309 26.958 189.545 27.5117 189.545 28.2939C189.545 28.9268 190.037 29.3662 191.039 29.6123L192.401 29.9463C194.308 30.4121 195.011 31.0801 195.011 32.4248C195.011 34.0596 193.544 35.1582 191.373 35.1582ZM200.597 35.1582C197.898 35.1582 196.316 33.418 196.316 30.4648C196.316 27.582 197.942 25.7012 200.465 25.7012C202.803 25.7012 204.446 27.4502 204.446 29.9551C204.446 30.5088 204.13 30.8428 203.603 30.8428H197.89C197.89 32.6885 198.9 33.8311 200.535 33.8311C201.625 33.8311 202.293 33.4443 203.005 32.4072C203.163 32.1875 203.339 32.0996 203.576 32.0996C203.98 32.0996 204.253 32.3633 204.253 32.7676C204.253 32.8906 204.209 33.0488 204.139 33.2158C203.55 34.4551 202.267 35.1582 200.597 35.1582ZM197.898 29.6475H202.864C202.829 28.0654 201.854 27.0283 200.438 27.0283C199.015 27.0283 197.995 28.0742 197.898 29.6475Z" fill="#6B6B68"/>
<line x1="233.5" y1="14" x2="233.5" y2="43" stroke="black" stroke-opacity="0.08"/>
<path d="M262.379 35.123C261.922 35.123 261.588 34.833 261.588 34.4287C261.588 34.3145 261.614 34.1826 261.685 33.9893L265.763 22.959C265.956 22.4404 266.281 22.1943 266.8 22.1943C267.283 22.1943 267.6 22.4316 267.793 22.9502L271.88 33.9893C271.95 34.1826 271.977 34.3145 271.977 34.4287C271.977 34.833 271.643 35.123 271.186 35.123C270.79 35.123 270.562 34.9385 270.412 34.5166L269.287 31.3701H264.269L263.152 34.5166C263.003 34.9385 262.775 35.123 262.379 35.123ZM264.726 30.0254H268.839L266.809 24.2422H266.756L264.726 30.0254ZM276.49 35.1582C274.495 35.1582 273.326 33.8662 273.326 31.792V26.5186C273.326 26.0352 273.642 25.7012 274.09 25.7012C274.539 25.7012 274.855 26.0352 274.855 26.5186V31.5195C274.855 33.0049 275.549 33.8047 276.964 33.8047C278.45 33.8047 279.346 32.7852 279.346 31.2295V26.5186C279.346 26.0352 279.663 25.7012 280.111 25.7012C280.559 25.7012 280.875 26.0352 280.875 26.5186V34.3848C280.875 34.8242 280.594 35.1582 280.155 35.1582C279.715 35.1582 279.425 34.8242 279.425 34.3848V33.5146H279.39C278.845 34.5693 277.896 35.1582 276.49 35.1582ZM283.534 32.8906V27.1162H282.769C282.33 27.1162 282.084 26.8877 282.084 26.4834C282.084 26.0879 282.33 25.8594 282.769 25.8594H283.534V24.2949C283.534 23.8115 283.85 23.4775 284.299 23.4775C284.747 23.4775 285.063 23.8115 285.063 24.2949V25.8594H286.241C286.68 25.8594 286.927 26.0879 286.927 26.4834C286.927 26.8877 286.68 27.1162 286.241 27.1162H285.063V32.5566C285.063 33.3301 285.336 33.6992 286.1 33.752L286.232 33.7607C286.733 33.7959 286.962 33.998 286.962 34.3584C286.962 34.8242 286.698 35.0703 285.845 35.0703H285.749C284.272 35.0703 283.534 34.3496 283.534 32.8906ZM292.178 35.1582C289.647 35.1582 287.941 33.3389 287.941 30.4297C287.941 27.5117 289.647 25.7012 292.178 25.7012C294.7 25.7012 296.405 27.5117 296.405 30.4297C296.405 33.3389 294.7 35.1582 292.178 35.1582ZM292.178 33.8135C293.795 33.8135 294.85 32.583 294.85 30.4297C294.85 28.2764 293.795 27.0459 292.178 27.0459C290.561 27.0459 289.497 28.2764 289.497 30.4297C289.497 32.583 290.561 33.8135 292.178 33.8135ZM298.897 35.1582C298.449 35.1582 298.132 34.8242 298.132 34.3408V26.4746C298.132 26.0176 298.431 25.7012 298.853 25.7012C299.275 25.7012 299.574 26.0176 299.574 26.4746V27.3184H299.609C300.119 26.334 301.094 25.7012 302.509 25.7012C304.513 25.7012 305.673 26.9932 305.673 29.0674V34.3408C305.673 34.8242 305.357 35.1582 304.909 35.1582C304.46 35.1582 304.144 34.8242 304.144 34.3408V29.3398C304.144 27.8633 303.45 27.0547 302.043 27.0547C300.602 27.0547 299.662 28.0742 299.662 29.6211V34.3408C299.662 34.8242 299.345 35.1582 298.897 35.1582ZM311.592 35.1582C309.061 35.1582 307.356 33.3389 307.356 30.4297C307.356 27.5117 309.061 25.7012 311.592 25.7012C314.115 25.7012 315.82 27.5117 315.82 30.4297C315.82 33.3389 314.115 35.1582 311.592 35.1582ZM311.592 33.8135C313.21 33.8135 314.264 32.583 314.264 30.4297C314.264 28.2764 313.21 27.0459 311.592 27.0459C309.975 27.0459 308.912 28.2764 308.912 30.4297C308.912 32.583 309.975 33.8135 311.592 33.8135ZM318.312 35.1582C317.846 35.1582 317.547 34.8066 317.547 34.3408V26.4746C317.547 26.0176 317.846 25.7012 318.268 25.7012C318.689 25.7012 318.988 26.0176 318.988 26.4746V27.3184H319.023C319.454 26.3516 320.386 25.7012 321.616 25.7012C322.864 25.7012 323.787 26.334 324.183 27.4414H324.218C324.728 26.3516 325.8 25.7012 327.083 25.7012C328.894 25.7012 330.063 26.8789 330.063 28.6895V34.3408C330.063 34.8066 329.764 35.1582 329.298 35.1582C328.832 35.1582 328.533 34.8066 328.533 34.3408V29.041C328.533 27.793 327.839 27.0547 326.635 27.0547C325.422 27.0547 324.569 27.9512 324.569 29.1904V34.3408C324.569 34.8066 324.271 35.1582 323.805 35.1582C323.339 35.1582 323.04 34.8066 323.04 34.3408V28.874C323.04 27.7754 322.302 27.0547 321.168 27.0547C319.955 27.0547 319.076 28.0039 319.076 29.2695V34.3408C319.076 34.8066 318.777 35.1582 318.312 35.1582ZM335.982 35.1582C333.451 35.1582 331.745 33.3389 331.745 30.4297C331.745 27.5117 333.451 25.7012 335.982 25.7012C338.504 25.7012 340.209 27.5117 340.209 30.4297C340.209 33.3389 338.504 35.1582 335.982 35.1582ZM335.982 33.8135C337.599 33.8135 338.654 32.583 338.654 30.4297C338.654 28.2764 337.599 27.0459 335.982 27.0459C334.365 27.0459 333.301 28.2764 333.301 30.4297C333.301 32.583 334.365 33.8135 335.982 33.8135ZM345.056 35.1582C343.061 35.1582 341.892 33.8662 341.892 31.792V26.5186C341.892 26.0352 342.209 25.7012 342.657 25.7012C343.105 25.7012 343.422 26.0352 343.422 26.5186V31.5195C343.422 33.0049 344.116 33.8047 345.531 33.8047C347.016 33.8047 347.913 32.7852 347.913 31.2295V26.5186C347.913 26.0352 348.229 25.7012 348.677 25.7012C349.126 25.7012 349.442 26.0352 349.442 26.5186V34.3848C349.442 34.8242 349.161 35.1582 348.721 35.1582C348.282 35.1582 347.992 34.8242 347.992 34.3848V33.5146H347.957C347.412 34.5693 346.463 35.1582 345.056 35.1582ZM354.781 35.1582C353.155 35.1582 351.881 34.4287 351.441 33.2861C351.389 33.1543 351.371 33.04 351.371 32.9258C351.371 32.5215 351.67 32.293 352.065 32.293C352.338 32.293 352.558 32.4336 352.733 32.75C353.19 33.5498 353.735 33.9102 354.904 33.9102C356.073 33.9102 356.864 33.4004 356.864 32.5479C356.864 31.8887 356.486 31.5371 355.458 31.2822L354.061 30.9307C352.294 30.4912 351.441 29.6562 351.441 28.373C351.441 26.7822 352.839 25.7012 354.904 25.7012C356.407 25.7012 357.743 26.5449 357.98 27.6436C357.998 27.7314 358.007 27.8018 358.007 27.8721C358.007 28.2324 357.778 28.4697 357.409 28.4697C357.11 28.4697 356.899 28.373 356.732 28.0566C356.337 27.292 355.748 26.958 354.816 26.958C353.718 26.958 352.953 27.5117 352.953 28.2939C352.953 28.9268 353.445 29.3662 354.447 29.6123L355.81 29.9463C357.717 30.4121 358.42 31.0801 358.42 32.4248C358.42 34.0596 356.952 35.1582 354.781 35.1582Z" fill="#6B6B68"/>
</svg>
