<svg width="158" height="39" viewBox="0 0 158 39" fill="none" xmlns="http://www.w3.org/2000/svg">
<rect width="157.94" height="38.3834" rx="11.1917" fill="white"/>
<rect x="0.5" y="0.5" width="156.94" height="37.3834" rx="10.6917" stroke="#1A1A1A" stroke-opacity="0.08"/>
<g opacity="0.5" clip-path="url(#clip0_1772_27257)">
<mask id="mask0_1772_27257" style="mask-type:luminance" maskUnits="userSpaceOnUse" x="13" y="12" width="15" height="15">
<path d="M27.4076 12.2026H13.4297V26.1806H27.4076V12.2026Z" fill="white"/>
</mask>
<g mask="url(#mask0_1772_27257)">
<mask id="mask1_1772_27257" style="mask-type:luminance" maskUnits="userSpaceOnUse" x="13" y="12" width="15" height="15">
<path d="M27.4076 12.2026H13.4297V26.1806H27.4076V12.2026Z" fill="white"/>
</mask>
<g mask="url(#mask1_1772_27257)">
<path d="M24.0997 15.5136L20.7892 15.1458L16.7429 15.5136L16.375 19.192L16.7428 22.8704L20.4213 23.3302L24.0997 22.8704L24.4676 19.1001L24.0997 15.5136Z" fill="white"/>
<path d="M18.2411 21.2188C17.9662 21.0331 17.7758 20.7618 17.6719 20.4032L18.3101 20.1402C18.3681 20.3609 18.4692 20.5319 18.6136 20.6533C18.7571 20.7747 18.9318 20.8345 19.1359 20.8345C19.3447 20.8345 19.524 20.771 19.6739 20.6441C19.8237 20.5172 19.8992 20.3553 19.8992 20.1595C19.8992 19.959 19.8201 19.7953 19.6619 19.6684C19.5038 19.5416 19.3051 19.478 19.0679 19.478H18.6991V18.8463H19.0301C19.2343 18.8463 19.4063 18.7912 19.546 18.6808C19.6858 18.5705 19.7557 18.4196 19.7557 18.2274C19.7557 18.0564 19.6932 17.9203 19.5681 17.8182C19.4431 17.7162 19.2849 17.6647 19.0927 17.6647C18.9051 17.6647 18.7561 17.7144 18.6457 17.8146C18.5354 17.9148 18.4553 18.038 18.4048 18.1833L17.7731 17.9203C17.8567 17.6831 18.0104 17.4734 18.2356 17.2922C18.4609 17.1111 18.7487 17.02 19.0982 17.02C19.3566 17.02 19.5892 17.0697 19.7953 17.1699C20.0012 17.2702 20.1631 17.409 20.2799 17.5856C20.3967 17.763 20.4546 17.9617 20.4546 18.1824C20.4546 18.4077 20.4004 18.598 20.2918 18.7543C20.1833 18.9107 20.0499 19.0302 19.8918 19.1139V19.1516C20.1005 19.2389 20.2707 19.3723 20.4049 19.5516C20.5383 19.731 20.6054 19.9453 20.6054 20.1954C20.6054 20.4455 20.5419 20.669 20.415 20.8649C20.2881 21.0608 20.1124 21.2152 19.8899 21.3274C19.6665 21.4396 19.4154 21.4966 19.1368 21.4966C18.814 21.4975 18.5161 21.4046 18.2411 21.2188Z" fill="#1A73E8"/>
<path d="M22.1646 18.0534L21.4675 18.5601L21.1172 18.0286L22.3743 17.1218H22.8562V21.3989H22.1646V18.0534Z" fill="#1A73E8"/>
<path d="M24.095 26.1797L27.4056 22.8692L25.7503 22.1335L24.095 22.8692L23.3594 24.5244L24.095 26.1797Z" fill="#EA4335"/>
<path d="M16 24.5249L16.7357 26.1802H24.0924V22.8696H16.7357L16 24.5249Z" fill="#34A853"/>
<path d="M14.5332 12.2026C13.9235 12.2026 13.4297 12.6965 13.4297 13.3061V22.87L15.085 23.6056L16.7402 22.87V15.5132H24.097L24.8326 13.8579L24.0971 12.2026H14.5332Z" fill="#4285F4"/>
<path d="M13.4297 22.8699V25.0769C13.4297 25.6866 13.9235 26.1804 14.5332 26.1804H16.7402V22.8699H13.4297Z" fill="#188038"/>
<path d="M24.0938 15.513V22.8698H27.4043V15.513L25.749 14.7773L24.0938 15.513Z" fill="#FBBC04"/>
<path d="M27.4043 15.5132V13.3061C27.4043 12.6964 26.9105 12.2026 26.3008 12.2026H24.0938V15.5132H27.4043Z" fill="#1967D2"/>
</g>
</g>
</g>
<path opacity="0.5" d="M39.0598 23.34C36.5378 23.34 34.9616 21.5722 34.9616 18.7288C34.9616 15.904 36.5564 14.1238 39.0474 14.1238C40.6854 14.1238 41.9959 14.9212 42.5522 16.2378C42.6387 16.417 42.682 16.6025 42.682 16.7694C42.682 17.1402 42.4347 17.3813 42.0639 17.3813C41.7362 17.3813 41.5199 17.2206 41.3654 16.8621C40.9512 15.8669 40.0735 15.3353 39.0474 15.3353C37.4279 15.3353 36.3771 16.6643 36.3771 18.7288C36.3771 20.8119 37.4156 22.1285 39.0536 22.1285C40.1415 22.1285 40.976 21.6649 41.3901 20.7006C41.5384 20.373 41.7177 20.237 42.0206 20.237C42.3976 20.237 42.6573 20.4966 42.6573 20.8613C42.6573 21.0529 42.6078 21.2322 42.5089 21.4362C41.934 22.6415 40.7163 23.34 39.0598 23.34ZM45.9425 23.3029C44.6691 23.3029 43.7728 22.5117 43.7728 21.3435C43.7728 20.2061 44.6506 19.5076 46.1897 19.4211L47.9761 19.316V18.8153C47.9761 18.0921 47.4878 17.6594 46.6718 17.6594C46.029 17.6594 45.6025 17.8882 45.2316 18.4816C45.0956 18.6794 44.9225 18.7659 44.6877 18.7659C44.3539 18.7659 44.1128 18.5434 44.1128 18.2096C44.1128 18.0736 44.1499 17.9252 44.2303 17.7769C44.5702 17.0413 45.553 16.5716 46.7213 16.5716C48.2975 16.5716 49.305 17.406 49.305 18.7103V22.6353C49.305 23.0557 49.0392 23.3091 48.6622 23.3091C48.2913 23.3091 48.0379 23.068 48.0255 22.6724V22.1223H47.9946C47.6176 22.8455 46.7893 23.3029 45.9425 23.3029ZM46.3071 22.2459C47.2405 22.2459 47.9761 21.6031 47.9761 20.7562V20.2432L46.369 20.3421C45.5716 20.3977 45.1203 20.7501 45.1203 21.3064C45.1203 21.875 45.5963 22.2459 46.3071 22.2459ZM51.4467 23.3091C51.0573 23.3091 50.7791 23.0433 50.7791 22.6044V14.8594C50.7791 14.4205 51.0573 14.1547 51.4467 14.1547C51.8361 14.1547 52.1143 14.4205 52.1143 14.8594V22.6044C52.1143 23.0433 51.8361 23.3091 51.4467 23.3091ZM56.4318 23.3153C54.4723 23.3153 53.3226 22.0728 53.3226 19.9712C53.3226 17.9067 54.497 16.5716 56.339 16.5716C58.0698 16.5716 59.2628 17.8202 59.2628 19.5942C59.2628 20.0269 59.0155 20.2741 58.6014 20.2741H54.6701V20.305C54.6701 21.4918 55.3377 22.2336 56.4008 22.2336C57.1302 22.2336 57.5876 21.9801 58.0821 21.3064C58.2243 21.1395 58.3603 21.0715 58.5519 21.0715C58.8733 21.0715 59.1082 21.2816 59.1082 21.6154C59.1082 21.7205 59.0711 21.8441 59.0155 21.9739C58.589 22.827 57.6433 23.3153 56.4318 23.3153ZM54.6763 19.3407H57.9276C57.8967 18.3208 57.26 17.6471 56.3329 17.6471C55.4119 17.6471 54.7443 18.327 54.6763 19.3407ZM61.0954 23.3091C60.6998 23.3091 60.4278 23.0433 60.4278 22.6044V17.2453C60.4278 16.8373 60.675 16.5716 61.0645 16.5716C61.4477 16.5716 61.7135 16.8373 61.7135 17.2515V17.7645H61.7444C62.0967 17.0228 62.7767 16.5777 63.778 16.5777C65.2121 16.5777 66.0342 17.4926 66.0342 18.9822V22.6044C66.0342 23.0433 65.756 23.3091 65.3604 23.3091C64.971 23.3091 64.6928 23.0433 64.6928 22.6044V19.2418C64.6928 18.2652 64.2354 17.7274 63.3083 17.7274C62.3687 17.7274 61.7629 18.395 61.7629 19.4026V22.6044C61.7629 23.0433 61.4848 23.3091 61.0954 23.3091ZM69.8942 23.3029C68.25 23.3029 67.1621 21.9925 67.1621 19.9403C67.1621 17.8882 68.25 16.5839 69.8819 16.5839C70.8152 16.5839 71.557 17.0537 71.9217 17.7707H71.9464V14.8594C71.9464 14.4205 72.2246 14.1547 72.6202 14.1547C73.0096 14.1547 73.2877 14.4205 73.2877 14.8594V22.6415C73.2877 23.0618 73.0158 23.3091 72.6263 23.3091C72.2493 23.3091 71.9464 23.0618 71.9464 22.6415V22.0358H71.9279C71.5941 22.7961 70.908 23.3029 69.8942 23.3029ZM70.2466 22.1717C71.2726 22.1717 71.9588 21.3002 71.9588 19.9403C71.9588 18.5928 71.2726 17.7089 70.2466 17.7089C69.1896 17.7089 68.5282 18.5743 68.5282 19.9403C68.5282 21.3126 69.1896 22.1717 70.2466 22.1717ZM76.6904 23.3029C75.417 23.3029 74.5208 22.5117 74.5208 21.3435C74.5208 20.2061 75.3985 19.5076 76.9376 19.4211L78.724 19.316V18.8153C78.724 18.0921 78.2357 17.6594 77.4198 17.6594C76.7769 17.6594 76.3504 17.8882 75.9795 18.4816C75.8435 18.6794 75.6705 18.7659 75.4356 18.7659C75.1018 18.7659 74.8607 18.5434 74.8607 18.2096C74.8607 18.0736 74.8978 17.9252 74.9782 17.7769C75.3181 17.0413 76.301 16.5716 77.4692 16.5716C79.0454 16.5716 80.053 17.406 80.053 18.7103V22.6353C80.053 23.0557 79.7872 23.3091 79.4101 23.3091C79.0392 23.3091 78.7858 23.068 78.7734 22.6724V22.1223H78.7425C78.3655 22.8455 77.5372 23.3029 76.6904 23.3029ZM77.0551 22.2459C77.9884 22.2459 78.724 21.6031 78.724 20.7562V20.2432L77.1169 20.3421C76.3195 20.3977 75.8683 20.7501 75.8683 21.3064C75.8683 21.875 76.3442 22.2459 77.0551 22.2459ZM82.1452 23.3091C81.7434 23.3091 81.4776 23.0371 81.4776 22.6044V17.2453C81.4776 16.8373 81.7372 16.5716 82.1143 16.5716C82.4852 16.5716 82.7448 16.8373 82.7448 17.2453V17.8016H82.7757C82.9549 17.0722 83.5545 16.5839 84.2035 16.5839C84.4384 16.5839 84.6177 16.6395 84.7289 16.7446C84.8526 16.8435 84.9082 17.0042 84.9082 17.2144C84.9082 17.4246 84.8402 17.5791 84.7104 17.6842C84.5744 17.8016 84.3766 17.8572 84.0985 17.8572C83.1836 17.8634 82.8128 18.4754 82.8128 19.2851V22.6044C82.8128 23.0371 82.5408 23.3091 82.1452 23.3091Z" fill="#1A1A1A"/>
<g opacity="0.5">
<path d="M96.3709 23.3764C96.0681 23.3764 95.8703 23.1478 95.8703 22.8449V20.6755H93.8183C93.5155 20.6755 93.2868 20.4777 93.2868 20.1749C93.2868 19.872 93.5155 19.6743 93.8183 19.6743H95.8703V17.4987C95.8703 17.1959 96.0681 16.9672 96.3709 16.9672C96.6738 16.9672 96.8716 17.1959 96.8716 17.4987V19.6743H98.9173C99.2202 19.6743 99.4489 19.872 99.4489 20.1749C99.4489 20.4777 99.2202 20.6755 98.9173 20.6755H96.8716V22.8449C96.8716 23.1478 96.6738 23.3764 96.3709 23.3764ZM104.273 23.8462C102.938 23.8462 101.875 23.123 101.325 21.8375C101.028 21.1514 100.886 20.348 100.886 19.3838C100.886 16.38 102.165 14.6185 104.347 14.6185C105.49 14.6185 106.485 15.1501 106.986 16.0215C107.097 16.2131 107.147 16.3677 107.147 16.5469C107.147 16.825 106.93 17.0228 106.634 17.0228C106.411 17.0228 106.257 16.9054 106.059 16.5902C105.632 15.9165 105.082 15.6013 104.334 15.6013C102.864 15.6013 102.017 16.893 101.961 19.2169V19.2973H101.98C102.344 18.4938 103.259 17.851 104.47 17.851C106.17 17.851 107.431 19.1057 107.431 20.7991C107.431 22.5606 106.102 23.8462 104.273 23.8462ZM104.26 22.8573C105.398 22.8573 106.3 21.9611 106.3 20.8362C106.3 19.6681 105.459 18.8275 104.279 18.8275C103.098 18.8275 102.227 19.6681 102.227 20.8053C102.227 21.9487 103.117 22.8573 104.26 22.8573ZM112.134 23.7782C111.813 23.7782 111.615 23.5742 111.615 23.2405V15.3788C111.615 14.9647 111.899 14.6865 112.326 14.6865C112.703 14.6865 112.931 14.8658 113.104 15.2799L115.985 22.2145H116.034L118.908 15.2799C119.081 14.872 119.322 14.6865 119.705 14.6865C120.126 14.6865 120.404 14.9585 120.404 15.3788V23.2405C120.404 23.5742 120.206 23.7782 119.885 23.7782C119.563 23.7782 119.365 23.5742 119.365 23.2405V16.8188H119.322L116.677 23.1478C116.535 23.4815 116.331 23.6298 116.009 23.6298C115.688 23.6298 115.478 23.4815 115.342 23.1601L112.697 16.8188H112.653V23.2405C112.653 23.5742 112.456 23.7782 112.134 23.7782ZM124.789 23.8029C122.891 23.8029 121.779 22.5791 121.779 20.5025C121.779 18.4752 122.922 17.1526 124.696 17.1526C126.34 17.1526 127.496 18.3825 127.496 20.144C127.496 20.5334 127.273 20.7682 126.903 20.7682H122.885C122.885 22.0662 123.596 22.8696 124.746 22.8696C125.512 22.8696 125.982 22.5977 126.482 21.8684C126.594 21.7139 126.717 21.6521 126.884 21.6521C127.168 21.6521 127.36 21.8375 127.36 22.1218C127.36 22.2083 127.329 22.3196 127.28 22.437C126.865 23.3085 125.963 23.8029 124.789 23.8029ZM122.891 19.9277H126.383C126.359 18.8152 125.673 18.0859 124.678 18.0859C123.676 18.0859 122.959 18.8213 122.891 19.9277ZM131.405 23.8029C129.508 23.8029 128.395 22.5791 128.395 20.5025C128.395 18.4752 129.538 17.1526 131.312 17.1526C132.956 17.1526 134.112 18.3825 134.112 20.144C134.112 20.5334 133.89 20.7682 133.519 20.7682H129.501C129.501 22.0662 130.212 22.8696 131.362 22.8696C132.128 22.8696 132.598 22.5977 133.098 21.8684C133.21 21.7139 133.333 21.6521 133.5 21.6521C133.784 21.6521 133.976 21.8375 133.976 22.1218C133.976 22.2083 133.945 22.3196 133.896 22.437C133.482 23.3085 132.579 23.8029 131.405 23.8029ZM129.508 19.9277H133C132.975 18.8152 132.289 18.0859 131.294 18.0859C130.292 18.0859 129.576 18.8213 129.508 19.9277ZM135.673 22.2083V18.1477H135.135C134.826 18.1477 134.653 17.987 134.653 17.7027C134.653 17.4245 134.826 17.2638 135.135 17.2638H135.673V16.1637C135.673 15.8238 135.895 15.5889 136.21 15.5889C136.525 15.5889 136.748 15.8238 136.748 16.1637V17.2638H137.576C137.885 17.2638 138.058 17.4245 138.058 17.7027C138.058 17.987 137.885 18.1477 137.576 18.1477H136.748V21.9734C136.748 22.5173 136.94 22.7769 137.477 22.814L137.57 22.8202C137.922 22.8449 138.083 22.9871 138.083 23.2405C138.083 23.568 137.898 23.7411 137.298 23.7411H137.23C136.192 23.7411 135.673 23.2343 135.673 22.2083ZM141.504 23.8029C140.36 23.8029 139.464 23.2899 139.155 22.4864C139.118 22.3937 139.106 22.3134 139.106 22.233C139.106 21.9487 139.316 21.788 139.594 21.788C139.786 21.788 139.94 21.8869 140.064 22.1094C140.385 22.6719 140.768 22.9253 141.59 22.9253C142.412 22.9253 142.969 22.5668 142.969 21.9673C142.969 21.5037 142.703 21.2565 141.98 21.0773L140.997 20.83C139.755 20.521 139.155 19.9339 139.155 19.0315C139.155 17.9128 140.138 17.1526 141.59 17.1526C142.647 17.1526 143.587 17.7459 143.754 18.5185C143.766 18.5803 143.772 18.6298 143.772 18.6792C143.772 18.9326 143.611 19.0995 143.352 19.0995C143.142 19.0995 142.993 19.0315 142.876 18.809C142.598 18.2713 142.184 18.0364 141.529 18.0364C140.756 18.0364 140.218 18.4258 140.218 18.9759C140.218 19.4209 140.564 19.7299 141.269 19.903L142.227 20.1378C143.568 20.4654 144.063 20.9351 144.063 21.8807C144.063 23.0303 143.03 23.8029 141.504 23.8029Z" fill="#6B6B68"/>
</g>
<defs>
<clipPath id="clip0_1772_27257">
<rect width="13.9779" height="13.9779" fill="white" transform="translate(13.4297 12.2026)"/>
</clipPath>
</defs>
</svg>
