<svg width="541" height="347" viewBox="0 0 541 347" fill="none" xmlns="http://www.w3.org/2000/svg">
<g filter="url(#filter0_d_1772_27323)">
<rect x="31.8516" y="31.8501" width="425" height="230.973" rx="32.4315" fill="white"/>
<path d="M68.1263 78.9499C67.827 78.9499 67.6275 78.7448 67.6275 78.4344V71.3677C67.6275 71.0518 67.8215 70.8523 68.1263 70.8523H70.626C72.1668 70.8523 73.1755 71.7945 73.1755 73.2356C73.1755 74.3496 72.5714 75.2142 71.5682 75.5301L73.0314 78.1407C73.109 78.2792 73.1367 78.379 73.1367 78.4898C73.1367 78.7503 72.915 78.9499 72.6268 78.9499C72.3996 78.9499 72.2666 78.8667 72.1391 78.6284L70.5373 75.6853H68.6252V78.4344C68.6252 78.7448 68.4256 78.9499 68.1263 78.9499ZM68.6252 74.8041H70.5373C71.5627 74.8041 72.1446 74.2498 72.1446 73.2688C72.1446 72.31 71.5239 71.7391 70.493 71.7391H68.6252V74.8041ZM76.9276 78.9499C75.226 78.9499 74.2284 77.8524 74.2284 75.9902C74.2284 74.1722 75.2538 72.9861 76.8445 72.9861C78.3188 72.9861 79.3552 74.0891 79.3552 75.6687C79.3552 76.0179 79.1557 76.2285 78.8231 76.2285H75.2205C75.2205 77.3924 75.8579 78.1129 76.8888 78.1129C77.5761 78.1129 77.9973 77.8691 78.4462 77.2151C78.546 77.0765 78.6568 77.0211 78.8065 77.0211C79.0614 77.0211 79.2333 77.1874 79.2333 77.4423C79.2333 77.5199 79.2056 77.6197 79.1612 77.725C78.7899 78.5065 77.9807 78.9499 76.9276 78.9499ZM75.226 75.4747H78.3576C78.3354 74.4771 77.7202 73.8231 76.8278 73.8231C75.9299 73.8231 75.287 74.4826 75.226 75.4747ZM82.2371 78.9499C81.0898 78.9499 80.3194 78.2571 80.3194 77.2206C80.3194 76.234 81.0787 75.6133 82.4089 75.5357L84.0661 75.4415V74.9593C84.0661 74.2554 83.6005 73.8341 82.8024 73.8341C82.1761 73.8341 81.7493 74.0614 81.4279 74.6323C81.3392 74.793 81.2117 74.865 81.0288 74.865C80.7794 74.865 80.602 74.6932 80.602 74.4327C80.602 74.3108 80.6408 74.1722 80.7184 74.0337C81.0454 73.4018 81.8879 72.9861 82.8246 72.9861C84.1769 72.9861 85.0305 73.7178 85.0305 74.865V78.4621C85.0305 78.7503 84.842 78.9499 84.576 78.9499C84.3044 78.9499 84.116 78.7503 84.116 78.4621V77.858H84.0938C83.7502 78.5175 83.013 78.9499 82.2371 78.9499ZM82.4532 78.1296C83.3622 78.1296 84.0661 77.4922 84.0661 76.6608V76.1897L82.5197 76.2839C81.7438 76.3338 81.3004 76.6774 81.3004 77.2206C81.3004 77.7693 81.7604 78.1296 82.4532 78.1296ZM88.6661 78.9499C87.1974 78.9499 86.1997 77.7749 86.1997 75.968C86.1997 74.1612 87.1918 72.9861 88.644 72.9861C89.4698 72.9861 90.1349 73.3907 90.4785 74.0226H90.5007V71.268C90.5007 70.9631 90.7002 70.7525 90.9829 70.7525C91.2656 70.7525 91.4651 70.9631 91.4651 71.268V78.4788C91.4651 78.7559 91.2711 78.9499 90.994 78.9499C90.7224 78.9499 90.5007 78.7614 90.5007 78.4788V77.8192H90.4841C90.1682 78.5065 89.5696 78.9499 88.6661 78.9499ZM88.849 78.1019C89.8411 78.1019 90.5062 77.2594 90.5062 75.968C90.5062 74.6821 89.8411 73.8341 88.849 73.8341C87.8292 73.8341 87.1863 74.6655 87.1863 75.968C87.1863 77.276 87.8292 78.1019 88.849 78.1019ZM93.5267 72.116C93.1997 72.116 92.9281 71.8444 92.9281 71.5174C92.9281 71.1848 93.1997 70.9188 93.5267 70.9188C93.8592 70.9188 94.1308 71.1848 94.1308 71.5174C94.1308 71.8444 93.8592 72.116 93.5267 72.116ZM93.5267 78.9499C93.244 78.9499 93.0445 78.7392 93.0445 78.4344V73.5016C93.0445 73.1968 93.244 72.9861 93.5267 72.9861C93.8093 72.9861 94.0089 73.1968 94.0089 73.5016V78.4344C94.0089 78.7392 93.8093 78.9499 93.5267 78.9499ZM96.0206 78.9499C95.7379 78.9499 95.5384 78.7392 95.5384 78.4344V73.4739C95.5384 73.1857 95.7268 72.9861 95.9929 72.9861C96.2589 72.9861 96.4474 73.1857 96.4474 73.4739V74.006H96.4695C96.791 73.3852 97.4062 72.9861 98.2985 72.9861C99.5622 72.9861 100.294 73.8009 100.294 75.1089V78.4344C100.294 78.7392 100.094 78.9499 99.8116 78.9499C99.529 78.9499 99.3294 78.7392 99.3294 78.4344V75.2807C99.3294 74.3496 98.8916 73.8397 98.0048 73.8397C97.0958 73.8397 96.5028 74.4826 96.5028 75.4581V78.4344C96.5028 78.7392 96.3032 78.9499 96.0206 78.9499ZM104.168 78.9499C102.466 78.9499 101.469 77.8524 101.469 75.9902C101.469 74.1722 102.494 72.9861 104.085 72.9861C105.559 72.9861 106.595 74.0891 106.595 75.6687C106.595 76.0179 106.396 76.2285 106.063 76.2285H102.461C102.461 77.3924 103.098 78.1129 104.129 78.1129C104.816 78.1129 105.238 77.8691 105.686 77.2151C105.786 77.0765 105.897 77.0211 106.047 77.0211C106.302 77.0211 106.473 77.1874 106.473 77.4423C106.473 77.5199 106.446 77.6197 106.401 77.725C106.03 78.5065 105.221 78.9499 104.168 78.9499ZM102.466 75.4747H105.598C105.576 74.4771 104.96 73.8231 104.068 73.8231C103.17 73.8231 102.527 74.4826 102.466 75.4747ZM109.799 78.9499C108.773 78.9499 107.97 78.4898 107.693 77.7693C107.659 77.6862 107.648 77.6141 107.648 77.5421C107.648 77.2871 107.837 77.143 108.086 77.143C108.258 77.143 108.397 77.2317 108.507 77.4312C108.796 77.9356 109.139 78.1628 109.876 78.1628C110.614 78.1628 111.112 77.8414 111.112 77.3037C111.112 76.8881 110.874 76.6664 110.226 76.5056L109.344 76.2839C108.23 76.0068 107.693 75.4803 107.693 74.6711C107.693 73.6679 108.574 72.9861 109.876 72.9861C110.824 72.9861 111.667 73.5182 111.816 74.211C111.827 74.2665 111.833 74.3108 111.833 74.3551C111.833 74.5824 111.689 74.732 111.456 74.732C111.268 74.732 111.135 74.6711 111.029 74.4715C110.78 73.9893 110.408 73.7787 109.821 73.7787C109.128 73.7787 108.646 74.1279 108.646 74.6212C108.646 75.0202 108.956 75.2974 109.588 75.4526L110.447 75.6632C111.65 75.9569 112.093 76.3781 112.093 77.2261C112.093 78.2571 111.168 78.9499 109.799 78.9499ZM115.313 78.9499C114.288 78.9499 113.484 78.4898 113.207 77.7693C113.174 77.6862 113.163 77.6141 113.163 77.5421C113.163 77.2871 113.351 77.143 113.601 77.143C113.773 77.143 113.911 77.2317 114.022 77.4312C114.31 77.9356 114.654 78.1628 115.391 78.1628C116.128 78.1628 116.627 77.8414 116.627 77.3037C116.627 76.8881 116.389 76.6664 115.74 76.5056L114.859 76.2839C113.745 76.0068 113.207 75.4803 113.207 74.6711C113.207 73.6679 114.088 72.9861 115.391 72.9861C116.339 72.9861 117.181 73.5182 117.331 74.211C117.342 74.2665 117.347 74.3108 117.347 74.3551C117.347 74.5824 117.203 74.732 116.971 74.732C116.782 74.732 116.649 74.6711 116.544 74.4715C116.294 73.9893 115.923 73.7787 115.335 73.7787C114.643 73.7787 114.16 74.1279 114.16 74.6212C114.16 75.0202 114.471 75.2974 115.103 75.4526L115.962 75.6632C117.165 75.9569 117.608 76.3781 117.608 77.2261C117.608 78.2571 116.682 78.9499 115.313 78.9499ZM123.76 78.9499C122.163 78.9499 121.099 77.8026 121.099 75.9791C121.099 74.1667 122.152 72.9861 123.749 72.9861C124.835 72.9861 125.783 73.6014 126.004 74.3995C126.027 74.4715 126.038 74.5436 126.038 74.6046C126.038 74.8595 125.877 75.0258 125.627 75.0258C125.417 75.0258 125.3 74.9371 125.167 74.6877C124.863 74.1168 124.425 73.8341 123.76 73.8341C122.756 73.8341 122.08 74.6766 122.08 75.968C122.08 77.2927 122.768 78.1019 123.76 78.1019C124.452 78.1019 124.874 77.8026 125.173 77.2483C125.312 76.9878 125.417 76.9102 125.627 76.9102C125.877 76.9102 126.043 77.082 126.043 77.3315C126.043 77.4035 126.027 77.4866 125.999 77.5753C125.722 78.3734 124.807 78.9499 123.76 78.9499ZM127.828 78.9499C127.545 78.9499 127.345 78.7392 127.345 78.4344V71.2569C127.345 70.9576 127.539 70.7525 127.828 70.7525C128.121 70.7525 128.31 70.9576 128.31 71.2569V74.006H128.332C128.653 73.363 129.285 72.9861 130.161 72.9861C131.425 72.9861 132.19 73.8397 132.19 75.1255V78.4344C132.19 78.7392 131.99 78.9499 131.707 78.9499C131.425 78.9499 131.225 78.7392 131.225 78.4344V75.3029C131.225 74.3884 130.765 73.8397 129.862 73.8397C128.903 73.8397 128.31 74.4937 128.31 75.4913V78.4344C128.31 78.7392 128.11 78.9499 127.828 78.9499ZM136.058 78.9499C134.356 78.9499 133.359 77.8524 133.359 75.9902C133.359 74.1722 134.384 72.9861 135.975 72.9861C137.449 72.9861 138.486 74.0891 138.486 75.6687C138.486 76.0179 138.286 76.2285 137.954 76.2285H134.351C134.351 77.3924 134.988 78.1129 136.019 78.1129C136.706 78.1129 137.128 77.8691 137.577 77.2151C137.676 77.0765 137.787 77.0211 137.937 77.0211C138.192 77.0211 138.364 77.1874 138.364 77.4423C138.364 77.5199 138.336 77.6197 138.292 77.725C137.92 78.5065 137.111 78.9499 136.058 78.9499ZM134.356 75.4747H137.488C137.466 74.4771 136.851 73.8231 135.958 73.8231C135.06 73.8231 134.417 74.4826 134.356 75.4747ZM142.066 78.9499C140.47 78.9499 139.405 77.8026 139.405 75.9791C139.405 74.1667 140.458 72.9861 142.055 72.9861C143.141 72.9861 144.089 73.6014 144.311 74.3995C144.333 74.4715 144.344 74.5436 144.344 74.6046C144.344 74.8595 144.183 75.0258 143.934 75.0258C143.723 75.0258 143.607 74.9371 143.474 74.6877C143.169 74.1168 142.731 73.8341 142.066 73.8341C141.063 73.8341 140.386 74.6766 140.386 75.968C140.386 77.2927 141.074 78.1019 142.066 78.1019C142.759 78.1019 143.18 77.8026 143.479 77.2483C143.618 76.9878 143.723 76.9102 143.934 76.9102C144.183 76.9102 144.349 77.082 144.349 77.3315C144.349 77.4035 144.333 77.4866 144.305 77.5753C144.028 78.3734 143.113 78.9499 142.066 78.9499ZM146.134 78.9499C145.851 78.9499 145.652 78.7392 145.652 78.4344V71.268C145.652 70.9631 145.851 70.7525 146.134 70.7525C146.416 70.7525 146.616 70.9631 146.616 71.268V75.6465L149.193 73.1469C149.31 73.0305 149.404 72.9861 149.542 72.9861C149.77 72.9861 149.953 73.169 149.953 73.3852C149.953 73.5182 149.914 73.6014 149.797 73.7122L147.835 75.5745L150.002 78.2127C150.097 78.3291 150.124 78.4178 150.124 78.5397C150.124 78.7725 149.93 78.9499 149.681 78.9499C149.531 78.9499 149.432 78.9055 149.321 78.7725L147.154 76.1675L146.616 76.6774V78.4344C146.616 78.7392 146.416 78.9499 146.134 78.9499ZM154.685 78.9499C154.392 78.9499 154.203 78.7503 154.203 78.44V73.8785H153.727C153.477 73.8785 153.316 73.7344 153.316 73.485C153.316 73.2466 153.477 73.0859 153.727 73.0859H154.203V72.443C154.203 71.34 154.73 70.8079 155.672 70.8079C156.182 70.8079 156.453 70.9742 156.453 71.2569C156.453 71.4342 156.37 71.5451 156.193 71.595C156.11 71.6171 156.016 71.6282 155.894 71.6282C155.384 71.6282 155.162 71.8832 155.162 72.4762V73.0859H156.016C156.265 73.0859 156.426 73.2466 156.426 73.485C156.426 73.7344 156.265 73.8785 156.016 73.8785H155.168V78.44C155.168 78.7503 154.979 78.9499 154.685 78.9499ZM159.679 78.9499C158.083 78.9499 157.007 77.8026 157.007 75.968C157.007 74.1279 158.083 72.9861 159.679 72.9861C161.27 72.9861 162.345 74.1279 162.345 75.968C162.345 77.8026 161.27 78.9499 159.679 78.9499ZM159.679 78.1019C160.699 78.1019 161.364 77.3259 161.364 75.968C161.364 74.6101 160.699 73.8341 159.679 73.8341C158.659 73.8341 157.989 74.6101 157.989 75.968C157.989 77.3259 158.659 78.1019 159.679 78.1019ZM164.03 78.9499C163.747 78.9499 163.547 78.7392 163.547 78.4344V73.4739C163.547 73.1857 163.736 72.9861 164.002 72.9861C164.268 72.9861 164.456 73.1857 164.456 73.4739V74.0281H164.479C164.645 73.4295 165.21 72.9861 165.787 72.9861C165.997 72.9861 166.147 73.036 166.241 73.1247C166.324 73.2023 166.363 73.3131 166.363 73.4462C166.363 73.5958 166.313 73.7067 166.213 73.7843C166.114 73.8674 165.964 73.9062 165.753 73.9062C164.883 73.9062 164.512 74.5325 164.512 75.2696V78.4344C164.512 78.7392 164.312 78.9499 164.03 78.9499Z" fill="#9A9A96"/>
<path d="M70.2594 94.9514C69.8223 94.9514 69.5816 94.7361 69.4486 94.2483L67.3266 86.6789C67.2823 86.5079 67.2633 86.3748 67.2633 86.2482C67.2633 85.8618 67.542 85.6084 67.9601 85.6084C68.3338 85.6084 68.5618 85.8111 68.6505 86.1975L70.2974 92.8675H70.3481L72.1343 86.3242C72.2674 85.8174 72.5081 85.6084 72.9451 85.6084C73.3695 85.6084 73.6166 85.8238 73.7433 86.3052L75.5359 92.8675H75.5865L77.2271 86.1975C77.3221 85.8048 77.5565 85.6084 77.9239 85.6084C78.3419 85.6084 78.6206 85.8618 78.6206 86.2482C78.6206 86.3748 78.6016 86.5079 78.551 86.6789L76.4353 94.2547C76.296 94.7361 76.0553 94.9514 75.6245 94.9514C75.1748 94.9514 74.9341 94.7487 74.7947 94.2547L72.9705 87.9584H72.9071L71.0892 94.2547C70.9498 94.7424 70.7028 94.9514 70.2594 94.9514ZM82.0125 94.9768C80.0046 94.9768 78.8264 93.7036 78.8264 91.5499C78.8264 89.4343 80.0299 88.0661 81.9175 88.0661C83.6911 88.0661 84.9136 89.3456 84.9136 91.1635C84.9136 91.6069 84.6602 91.8603 84.2359 91.8603H80.2073V91.892C80.2073 93.1082 80.8914 93.8683 81.9809 93.8683C82.7283 93.8683 83.197 93.6086 83.7038 92.9181C83.8495 92.7471 83.9888 92.6774 84.1852 92.6774C84.5146 92.6774 84.7553 92.8928 84.7553 93.2349C84.7553 93.3425 84.7173 93.4692 84.6602 93.6022C84.2232 94.4764 83.254 94.9768 82.0125 94.9768ZM80.2136 90.9038H83.5454C83.5137 89.8587 82.8613 89.1683 81.9112 89.1683C80.9674 89.1683 80.2833 89.865 80.2136 90.9038ZM88.9959 94.9768C86.988 94.9768 85.8098 93.7036 85.8098 91.5499C85.8098 89.4343 87.0133 88.0661 88.9009 88.0661C90.6745 88.0661 91.897 89.3456 91.897 91.1635C91.897 91.6069 91.6437 91.8603 91.2193 91.8603H87.1907V91.892C87.1907 93.1082 87.8748 93.8683 88.9643 93.8683C89.7117 93.8683 90.1804 93.6086 90.6872 92.9181C90.8329 92.7471 90.9722 92.6774 91.1686 92.6774C91.498 92.6774 91.7387 92.8928 91.7387 93.2349C91.7387 93.3425 91.7007 93.4692 91.6437 93.6022C91.2066 94.4764 90.2375 94.9768 88.9959 94.9768ZM87.197 90.9038H90.5288C90.4972 89.8587 89.8447 89.1683 88.8946 89.1683C87.9508 89.1683 87.2667 89.865 87.197 90.9038ZM93.8257 94.9704C93.4266 94.9704 93.1416 94.6981 93.1416 94.2483V86.3115C93.1416 85.8618 93.4266 85.5894 93.8257 85.5894C94.2247 85.5894 94.5098 85.8618 94.5098 86.3115V91.0305H94.5225L97.2905 88.3195C97.4616 88.1358 97.6073 88.0661 97.8099 88.0661C98.1457 88.0661 98.4054 88.3258 98.4054 88.6488C98.4054 88.8452 98.3484 88.9719 98.171 89.1366L96.1124 91.0875L98.3737 93.8873C98.5194 94.071 98.5574 94.1977 98.5574 94.3687C98.5574 94.7171 98.285 94.9704 97.9176 94.9704C97.6643 94.9704 97.5122 94.8881 97.3285 94.6347L95.1179 91.8983L94.5098 92.4684V94.2483C94.5098 94.6981 94.2247 94.9704 93.8257 94.9704ZM100.505 94.9704C100.106 94.9704 99.821 94.6981 99.821 94.2483V86.3115C99.821 85.8618 100.106 85.5894 100.505 85.5894C100.904 85.5894 101.189 85.8618 101.189 86.3115V94.2483C101.189 94.6981 100.904 94.9704 100.505 94.9704ZM103.549 97.3331C102.915 97.3331 102.567 97.0988 102.567 96.6744C102.567 96.383 102.769 96.193 103.099 96.193C103.245 96.193 103.295 96.1993 103.454 96.1993C103.834 96.1993 104.22 95.9903 104.467 95.3062L104.594 94.9198L102.364 89.0859C102.313 88.9466 102.288 88.8072 102.288 88.6995C102.288 88.3258 102.586 88.0661 102.985 88.0661C103.327 88.0661 103.523 88.2118 103.644 88.5918L105.341 93.6086H105.36L107.064 88.5918C107.178 88.2181 107.368 88.0661 107.717 88.0661C108.109 88.0661 108.382 88.3258 108.382 88.6932C108.382 88.8009 108.356 88.9402 108.312 89.0732L106 95.1858C105.411 96.7884 104.784 97.3331 103.549 97.3331ZM112.594 93.2539V89.2696H112.112C111.758 89.2696 111.542 89.0669 111.542 88.7312C111.542 88.3891 111.758 88.1864 112.112 88.1864H112.594V87.1983C112.594 86.7612 112.866 86.4699 113.284 86.4699C113.696 86.4699 113.968 86.7612 113.968 87.1983V88.1864H114.747C115.102 88.1864 115.317 88.3955 115.317 88.7312C115.317 89.0669 115.102 89.2696 114.747 89.2696H113.968V92.9498C113.968 93.4819 114.152 93.7226 114.646 93.7606L114.754 93.7669C115.146 93.8049 115.343 93.9633 115.343 94.2863C115.343 94.6981 115.026 94.9071 114.355 94.9071H114.285C113.164 94.9071 112.594 94.356 112.594 93.2539ZM119.229 94.9768C117.221 94.9768 116.043 93.7036 116.043 91.5499C116.043 89.4343 117.246 88.0661 119.134 88.0661C120.907 88.0661 122.13 89.3456 122.13 91.1635C122.13 91.6069 121.876 91.8603 121.452 91.8603H117.423V91.892C117.423 93.1082 118.107 93.8683 119.197 93.8683C119.944 93.8683 120.413 93.6086 120.92 92.9181C121.066 92.7471 121.205 92.6774 121.401 92.6774C121.731 92.6774 121.971 92.8928 121.971 93.2349C121.971 93.3425 121.933 93.4692 121.876 93.6022C121.439 94.4764 120.47 94.9768 119.229 94.9768ZM117.43 90.9038H120.762C120.73 89.8587 120.077 89.1683 119.127 89.1683C118.184 89.1683 117.499 89.865 117.43 90.9038ZM125.275 94.9641C123.97 94.9641 123.051 94.1533 123.051 92.9561C123.051 91.7906 123.951 91.0749 125.528 90.9862L127.359 90.8785V90.3654C127.359 89.6243 126.858 89.1809 126.022 89.1809C125.363 89.1809 124.926 89.4153 124.546 90.0234C124.407 90.2261 124.229 90.3148 123.989 90.3148C123.647 90.3148 123.4 90.0867 123.4 89.7447C123.4 89.6053 123.438 89.4533 123.52 89.3013C123.868 88.5475 124.876 88.0661 126.073 88.0661C127.688 88.0661 128.72 88.9212 128.72 90.2577V94.28C128.72 94.7107 128.448 94.9704 128.062 94.9704C127.682 94.9704 127.422 94.7234 127.409 94.318V93.7543H127.378C126.991 94.4954 126.142 94.9641 125.275 94.9641ZM125.648 93.881C126.605 93.881 127.359 93.2222 127.359 92.3544V91.8286L125.712 91.93C124.895 91.987 124.432 92.3481 124.432 92.9181C124.432 93.5009 124.92 93.881 125.648 93.881ZM130.864 94.9704C130.453 94.9704 130.18 94.6854 130.18 94.2483V88.7629C130.18 88.3321 130.446 88.0661 130.833 88.0661C131.213 88.0661 131.485 88.3258 131.485 88.7629V89.3076H131.517C131.815 88.5665 132.511 88.0724 133.411 88.0724C134.336 88.0724 135.007 88.5475 135.273 89.3773H135.305C135.647 88.5665 136.432 88.0724 137.382 88.0724C138.7 88.0724 139.561 88.9466 139.561 90.2704V94.2483C139.561 94.6854 139.283 94.9704 138.871 94.9704C138.459 94.9704 138.187 94.6854 138.187 94.2483V90.5998C138.187 89.7383 137.724 89.2443 136.914 89.2443C136.103 89.2443 135.539 89.846 135.539 90.6885V94.2483C135.539 94.6854 135.279 94.9704 134.868 94.9704C134.456 94.9704 134.196 94.6854 134.196 94.2483V90.4985C134.196 89.732 133.709 89.2443 132.936 89.2443C132.125 89.2443 131.549 89.8777 131.549 90.7328V94.2483C131.549 94.6854 131.276 94.9704 130.864 94.9704ZM147.061 95.0021C145.287 95.0021 144.071 94.2357 143.716 93.1715C143.672 93.0322 143.64 92.8801 143.64 92.7281C143.64 92.3164 143.894 92.0503 144.28 92.0503C144.603 92.0503 144.812 92.196 144.952 92.5381C145.237 93.3932 146.066 93.7923 147.124 93.7923C148.283 93.7923 149.113 93.1969 149.113 92.3797C149.113 91.6703 148.632 91.2269 147.409 90.9609L146.409 90.7518C144.584 90.3654 143.754 89.5166 143.754 88.1991C143.754 86.6345 145.129 85.5577 147.074 85.5577C148.651 85.5577 149.892 86.2988 150.247 87.5213C150.279 87.61 150.298 87.7177 150.298 87.8507C150.298 88.2181 150.038 88.4588 149.671 88.4588C149.329 88.4588 149.12 88.3005 148.974 87.9711C148.664 87.1286 147.967 86.7676 147.055 86.7676C145.984 86.7676 145.192 87.287 145.192 88.1231C145.192 88.7882 145.667 89.2316 146.852 89.485L147.846 89.694C149.766 90.0994 150.551 90.8658 150.551 92.196C150.551 93.919 149.196 95.0021 147.061 95.0021ZM152.613 97.3331C151.979 97.3331 151.631 97.0988 151.631 96.6744C151.631 96.383 151.834 96.193 152.163 96.193C152.309 96.193 152.359 96.1993 152.518 96.1993C152.898 96.1993 153.284 95.9903 153.531 95.3062L153.658 94.9198L151.428 89.0859C151.378 88.9466 151.352 88.8072 151.352 88.6995C151.352 88.3258 151.65 88.0661 152.049 88.0661C152.391 88.0661 152.587 88.2118 152.708 88.5918L154.405 93.6086H154.424L156.128 88.5918C156.242 88.2181 156.432 88.0661 156.781 88.0661C157.174 88.0661 157.446 88.3258 157.446 88.6932C157.446 88.8009 157.421 88.9402 157.376 89.0732L155.064 95.1858C154.475 96.7884 153.848 97.3331 152.613 97.3331ZM159.178 94.9704C158.773 94.9704 158.494 94.6981 158.494 94.2483V88.7565C158.494 88.3385 158.747 88.0661 159.147 88.0661C159.539 88.0661 159.812 88.3385 159.812 88.7629V89.2886H159.843C160.204 88.5285 160.901 88.0724 161.927 88.0724C163.397 88.0724 164.239 89.0099 164.239 90.5365V94.2483C164.239 94.6981 163.954 94.9704 163.549 94.9704C163.15 94.9704 162.865 94.6981 162.865 94.2483V90.8025C162.865 89.8017 162.396 89.2506 161.446 89.2506C160.483 89.2506 159.862 89.9347 159.862 90.9672V94.2483C159.862 94.6981 159.577 94.9704 159.178 94.9704ZM168.543 94.9768C166.637 94.9768 165.395 93.6529 165.395 91.5309C165.395 89.4216 166.63 88.0661 168.531 88.0661C169.816 88.0661 170.919 88.7502 171.21 89.6813C171.248 89.789 171.273 89.903 171.273 89.998C171.273 90.3464 171.026 90.5618 170.691 90.5618C170.399 90.5618 170.235 90.4478 170.07 90.1437C169.728 89.5103 169.259 89.2063 168.556 89.2063C167.485 89.2063 166.789 90.0994 166.789 91.5183C166.789 92.9688 167.498 93.8303 168.556 93.8303C169.297 93.8303 169.747 93.5009 170.07 92.9245C170.26 92.5951 170.406 92.4811 170.703 92.4811C171.039 92.4811 171.286 92.7091 171.286 93.0512C171.286 93.1588 171.261 93.2729 171.21 93.4059C170.862 94.3244 169.778 94.9768 168.543 94.9768ZM175.903 91.759C175.523 91.759 175.245 91.5246 175.245 91.1382C175.245 90.7582 175.523 90.5238 175.903 90.5238H178.938C179.318 90.5238 179.603 90.7582 179.603 91.1382C179.603 91.5246 179.318 91.759 178.938 91.759H175.903ZM186.887 95.0211C185.411 95.0211 184.404 94.2673 184.036 93.5389C183.935 93.3489 183.897 93.1969 183.897 93.0322C183.897 92.6901 184.125 92.4494 184.505 92.4494C184.803 92.4494 184.98 92.5824 185.215 92.9055C185.645 93.5389 186.108 93.8429 186.925 93.8429C188.388 93.8429 189.148 92.5191 189.186 90.3211V90.2197H189.161C188.793 91.1129 187.831 91.7083 186.652 91.7083C184.93 91.7083 183.618 90.4541 183.618 88.6995C183.618 86.8626 185.025 85.5324 186.957 85.5324C188.363 85.5324 189.471 86.2545 190.073 87.572C190.39 88.2751 190.554 89.1302 190.554 90.1501C190.554 93.2159 189.193 95.0211 186.887 95.0211ZM186.957 90.5555C188.078 90.5555 188.914 89.7637 188.914 88.6805C188.914 87.591 188.071 86.7422 186.976 86.7422C185.886 86.7422 185.025 87.5847 185.025 88.6488C185.025 89.7573 185.848 90.5555 186.957 90.5555ZM192.945 88.8199C192.483 88.8199 192.116 88.4525 192.116 87.9901C192.116 87.5277 192.483 87.1603 192.945 87.1603C193.408 87.1603 193.775 87.5277 193.775 87.9901C193.775 88.4525 193.408 88.8199 192.945 88.8199ZM192.945 93.4376C192.483 93.4376 192.116 93.0702 192.116 92.6078C192.116 92.139 192.483 91.778 192.945 91.778C193.408 91.778 193.775 92.139 193.775 92.6078C193.775 93.0702 193.408 93.4376 192.945 93.4376ZM198.833 95.0211C196.629 95.0211 195.33 93.1842 195.33 90.2704C195.33 87.3757 196.648 85.5387 198.833 85.5387C201.018 85.5387 202.323 87.3693 202.323 90.2641C202.323 93.1778 201.031 95.0211 198.833 95.0211ZM198.833 93.8303C200.151 93.8303 200.892 92.4874 200.892 90.2704C200.892 88.0851 200.138 86.7296 198.833 86.7296C197.528 86.7296 196.768 88.0914 196.768 90.2704C196.768 92.4811 197.509 93.8303 198.833 93.8303ZM207.058 95.0211C204.854 95.0211 203.555 93.1842 203.555 90.2704C203.555 87.3757 204.873 85.5387 207.058 85.5387C209.243 85.5387 210.548 87.3693 210.548 90.2641C210.548 93.1778 209.256 95.0211 207.058 95.0211ZM207.058 93.8303C208.375 93.8303 209.117 92.4874 209.117 90.2704C209.117 88.0851 208.363 86.7296 207.058 86.7296C205.753 86.7296 204.993 88.0914 204.993 90.2704C204.993 92.4811 205.734 93.8303 207.058 93.8303Z" fill="#6B6B68"/>
<rect x="216.852" y="81.8501" width="16.6465" height="16.6465" rx="8.32325" fill="white"/>
<rect x="216.566" y="81.5647" width="17.2172" height="17.2172" rx="8.60862" stroke="#1A1A1A" stroke-opacity="0.08" stroke-width="0.570737" stroke-linecap="round"/>
<mask id="mask0_1772_27323" style="mask-type:luminance" maskUnits="userSpaceOnUse" x="221" y="86" width="9" height="9">
<path d="M229.195 86.1499H221.148V94.1968H229.195V86.1499Z" fill="white"/>
</mask>
<g mask="url(#mask0_1772_27323)">
<mask id="mask1_1772_27323" style="mask-type:luminance" maskUnits="userSpaceOnUse" x="221" y="86" width="9" height="9">
<path d="M229.195 86.1499H221.148V94.1968H229.195V86.1499Z" fill="white"/>
</mask>
<g mask="url(#mask1_1772_27323)">
<path d="M227.291 88.0567L225.385 87.845L223.056 88.0567L222.844 90.1743L223.056 92.292L225.173 92.5567L227.291 92.292L227.503 90.1214L227.291 88.0567Z" fill="white"/>
<path d="M223.929 91.3405C223.771 91.2336 223.661 91.0775 223.602 90.871L223.969 90.7196C224.002 90.8466 224.061 90.9451 224.144 91.015C224.226 91.0849 224.327 91.1193 224.444 91.1193C224.565 91.1193 224.668 91.0827 224.754 91.0097C224.84 90.9366 224.884 90.8434 224.884 90.7307C224.884 90.6153 224.838 90.521 224.747 90.448C224.656 90.375 224.542 90.3384 224.405 90.3384H224.193V89.9747H224.383C224.501 89.9747 224.6 89.943 224.68 89.8794C224.761 89.8159 224.801 89.7291 224.801 89.6184C224.801 89.52 224.765 89.4416 224.693 89.3829C224.621 89.3241 224.53 89.2945 224.419 89.2945C224.312 89.2945 224.226 89.3231 224.162 89.3808C224.099 89.4385 224.053 89.5094 224.024 89.593L223.66 89.4416C223.708 89.305 223.796 89.1843 223.926 89.0801C224.056 88.9758 224.222 88.9233 224.423 88.9233C224.571 88.9233 224.705 88.952 224.824 89.0096C224.943 89.0673 225.036 89.1473 225.103 89.2489C225.17 89.3511 225.204 89.4655 225.204 89.5925C225.204 89.7222 225.172 89.8318 225.11 89.9218C225.047 90.0118 224.971 90.0806 224.88 90.1288V90.1505C225 90.2007 225.098 90.2775 225.175 90.3808C225.252 90.484 225.29 90.6074 225.29 90.7514C225.29 90.8954 225.254 91.024 225.181 91.1368C225.108 91.2495 225.007 91.3385 224.878 91.403C224.75 91.4676 224.605 91.5004 224.445 91.5004C224.259 91.501 224.088 91.4475 223.929 91.3405Z" fill="#1A73E8"/>
<path d="M226.181 89.518L225.78 89.8097L225.578 89.5037L226.302 88.9817H226.579V91.4439H226.181V89.518Z" fill="#1A73E8"/>
<path d="M227.283 94.1965L229.189 92.2907L228.236 91.8672L227.283 92.2907L226.859 93.2436L227.283 94.1965Z" fill="#EA4335"/>
<path d="M222.625 93.2429L223.049 94.1959H227.284V92.29H223.049L222.625 93.2429Z" fill="#34A853"/>
<path d="M221.784 86.1499C221.433 86.1499 221.148 86.4342 221.148 86.7852V92.2909L222.101 92.7144L223.054 92.2909V88.0557H227.289L227.713 87.1028L227.29 86.1499H221.784Z" fill="#4285F4"/>
<path d="M221.148 92.29V93.5606C221.148 93.9116 221.433 94.1959 221.784 94.1959H223.054V92.29H221.148Z" fill="#188038"/>
<path d="M227.297 88.0561V92.2913H229.203V88.0561L228.25 87.6326L227.297 88.0561Z" fill="#FBBC04"/>
<path d="M229.203 88.0557V86.7852C229.203 86.4342 228.918 86.1499 228.567 86.1499H227.297V88.0557H229.203Z" fill="#1967D2"/>
</g>
</g>
<rect x="229.016" y="81.8501" width="16.6465" height="16.6465" rx="8.32325" fill="white"/>
<rect x="228.73" y="81.5647" width="17.2172" height="17.2172" rx="8.60862" stroke="#1A1A1A" stroke-opacity="0.08" stroke-width="0.570737" stroke-linecap="round"/>
<g clip-path="url(#clip0_1772_27323)">
<mask id="mask2_1772_27323" style="mask-type:luminance" maskUnits="userSpaceOnUse" x="232" y="86" width="10" height="8">
<path d="M241.977 86.5481H232.695V93.7888H241.977V86.5481Z" fill="white"/>
</mask>
<g mask="url(#mask2_1772_27323)">
<path d="M233.328 93.7892H234.805V90.2032L232.695 88.6211V93.1564C232.695 93.506 232.979 93.7893 233.328 93.7893V93.7892Z" fill="#4285F4"/>
<path d="M239.867 93.7892H241.344C241.693 93.7892 241.977 93.506 241.977 93.1564V88.6211L239.867 90.2032V93.7892Z" fill="#34A853"/>
<path d="M239.867 87.4605V90.2027L241.977 88.6207V87.7769C241.977 86.9948 241.084 86.5481 240.458 87.0175L239.867 87.4605Z" fill="#FBBC04"/>
<path fill-rule="evenodd" clip-rule="evenodd" d="M234.797 90.2027V87.4604L237.328 89.359L239.86 87.4604V90.2027L237.328 92.1012L234.797 90.2027Z" fill="#EA4335"/>
<path d="M232.695 87.7769V88.6207L234.805 90.2027V87.4605L234.214 87.0175C233.588 86.5481 232.695 86.9948 232.695 87.7769Z" fill="#C5221F"/>
</g>
</g>
<path d="M68.873 130.946C68.3896 130.946 68.082 130.629 68.082 130.128V118.834C68.082 118.333 68.3896 118.017 68.873 118.017C69.3564 118.017 69.6641 118.333 69.6641 118.834V130.128C69.6641 130.629 69.3564 130.946 68.873 130.946ZM78.6022 130.981C76.7829 130.981 75.5612 129.882 75.5612 128.239C75.5612 126.674 76.7653 125.69 78.8746 125.567L81.5026 125.417V124.653C81.5026 123.537 80.7643 122.869 79.4987 122.869C78.5055 122.869 77.8287 123.229 77.319 124.134C77.1784 124.389 76.9762 124.503 76.6862 124.503C76.2907 124.503 76.0094 124.231 76.0094 123.818C76.0094 123.625 76.0709 123.405 76.194 123.185C76.7125 122.183 78.0485 121.524 79.5338 121.524C81.6784 121.524 83.0319 122.684 83.0319 124.503V130.208C83.0319 130.665 82.733 130.981 82.3112 130.981C81.8805 130.981 81.5817 130.665 81.5817 130.208V129.25H81.5465C81.0016 130.295 79.8327 130.981 78.6022 130.981ZM78.945 129.68C80.3864 129.68 81.5026 128.669 81.5026 127.351V126.604L79.0504 126.753C77.82 126.833 77.1168 127.377 77.1168 128.239C77.1168 129.109 77.8463 129.68 78.945 129.68ZM85.9189 130.981C85.4531 130.981 85.1543 130.629 85.1543 130.164V122.297C85.1543 121.84 85.4531 121.524 85.875 121.524C86.2968 121.524 86.5957 121.84 86.5957 122.297V123.141H86.6308C87.0615 122.174 87.9931 121.524 89.2236 121.524C90.4716 121.524 91.3945 122.157 91.79 123.264H91.8252C92.3349 122.174 93.4072 121.524 94.6904 121.524C96.5009 121.524 97.6699 122.702 97.6699 124.512V130.164C97.6699 130.629 97.3711 130.981 96.9052 130.981C96.4394 130.981 96.1406 130.629 96.1406 130.164V124.864C96.1406 123.616 95.4463 122.877 94.2421 122.877C93.0293 122.877 92.1767 123.774 92.1767 125.013V130.164C92.1767 130.629 91.8779 130.981 91.4121 130.981C90.9463 130.981 90.6474 130.629 90.6474 130.164V124.697C90.6474 123.598 89.9091 122.877 88.7754 122.877C87.5625 122.877 86.6836 123.827 86.6836 125.092V130.164C86.6836 130.629 86.3847 130.981 85.9189 130.981ZM106.845 130.981C105.219 130.981 103.945 130.251 103.505 129.109C103.453 128.977 103.435 128.863 103.435 128.749C103.435 128.344 103.734 128.116 104.129 128.116C104.402 128.116 104.622 128.256 104.797 128.573C105.254 129.373 105.799 129.733 106.968 129.733C108.137 129.733 108.928 129.223 108.928 128.371C108.928 127.711 108.55 127.36 107.522 127.105L106.125 126.753C104.358 126.314 103.505 125.479 103.505 124.196C103.505 122.605 104.903 121.524 106.968 121.524C108.471 121.524 109.807 122.368 110.045 123.466C110.062 123.554 110.071 123.625 110.071 123.695C110.071 124.055 109.842 124.292 109.473 124.292C109.174 124.292 108.963 124.196 108.796 123.879C108.401 123.115 107.812 122.781 106.88 122.781C105.782 122.781 105.017 123.334 105.017 124.117C105.017 124.75 105.509 125.189 106.511 125.435L107.874 125.769C109.781 126.235 110.484 126.903 110.484 128.248C110.484 129.882 109.016 130.981 106.845 130.981ZM116.069 130.981C113.371 130.981 111.789 129.241 111.789 126.288C111.789 123.405 113.415 121.524 115.937 121.524C118.275 121.524 119.919 123.273 119.919 125.778C119.919 126.332 119.602 126.666 119.075 126.666H113.362C113.362 128.511 114.373 129.654 116.008 129.654C117.098 129.654 117.766 129.267 118.477 128.23C118.636 128.01 118.811 127.922 119.049 127.922C119.453 127.922 119.726 128.186 119.726 128.59C119.726 128.713 119.682 128.872 119.611 129.039C119.022 130.278 117.739 130.981 116.069 130.981ZM113.371 125.47H118.337C118.302 123.888 117.326 122.851 115.911 122.851C114.487 122.851 113.468 123.897 113.371 125.47ZM125.478 130.981C122.78 130.981 121.197 129.241 121.197 126.288C121.197 123.405 122.823 121.524 125.346 121.524C127.684 121.524 129.327 123.273 129.327 125.778C129.327 126.332 129.011 126.666 128.484 126.666H122.771C122.771 128.511 123.781 129.654 125.416 129.654C126.506 129.654 127.174 129.267 127.886 128.23C128.044 128.01 128.22 127.922 128.457 127.922C128.862 127.922 129.134 128.186 129.134 128.59C129.134 128.713 129.09 128.872 129.02 129.039C128.431 130.278 127.148 130.981 125.478 130.981ZM122.78 125.47H127.745C127.71 123.888 126.735 122.851 125.32 122.851C123.896 122.851 122.876 123.897 122.78 125.47ZM131.898 120.144C131.379 120.144 130.949 119.713 130.949 119.195C130.949 118.667 131.379 118.246 131.898 118.246C132.425 118.246 132.856 118.667 132.856 119.195C132.856 119.713 132.425 120.144 131.898 120.144ZM131.898 130.981C131.45 130.981 131.133 130.647 131.133 130.164V122.341C131.133 121.858 131.45 121.524 131.898 121.524C132.346 121.524 132.663 121.858 132.663 122.341V130.164C132.663 130.647 132.346 130.981 131.898 130.981ZM135.673 130.981C135.224 130.981 134.908 130.647 134.908 130.164V122.297C134.908 121.84 135.207 121.524 135.629 121.524C136.051 121.524 136.349 121.84 136.349 122.297V123.141H136.385C136.894 122.157 137.87 121.524 139.285 121.524C141.289 121.524 142.449 122.816 142.449 124.89V130.164C142.449 130.647 142.133 130.981 141.684 130.981C141.236 130.981 140.92 130.647 140.92 130.164V125.163C140.92 123.686 140.225 122.877 138.819 122.877C137.378 122.877 136.437 123.897 136.437 125.444V130.164C136.437 130.647 136.121 130.981 135.673 130.981ZM148.272 134.268C146.742 134.25 145.468 133.644 144.826 132.633C144.703 132.44 144.651 132.264 144.651 132.062C144.651 131.675 144.932 131.403 145.336 131.403C145.591 131.403 145.74 131.491 145.978 131.754C146.76 132.616 147.402 132.95 148.333 132.967C149.968 132.994 150.961 132.053 150.961 130.691V129.25H150.926C150.363 130.243 149.274 130.893 147.99 130.893C145.661 130.893 144.132 129.056 144.132 126.217C144.132 123.352 145.661 121.524 148.026 121.524C149.318 121.524 150.328 122.157 150.935 123.185H150.961V122.315C150.961 121.84 151.286 121.524 151.726 121.524C152.165 121.524 152.49 121.84 152.49 122.315V130.638C152.49 132.818 150.873 134.294 148.272 134.268ZM148.298 129.548C149.889 129.548 150.961 128.23 150.961 126.217C150.961 124.205 149.889 122.869 148.298 122.869C146.725 122.869 145.696 124.169 145.696 126.217C145.696 128.265 146.725 129.548 148.298 129.548ZM161.701 130.981C160.075 130.981 158.801 130.251 158.361 129.109C158.308 128.977 158.291 128.863 158.291 128.749C158.291 128.344 158.59 128.116 158.985 128.116C159.258 128.116 159.477 128.256 159.653 128.573C160.11 129.373 160.655 129.733 161.824 129.733C162.993 129.733 163.784 129.223 163.784 128.371C163.784 127.711 163.406 127.36 162.378 127.105L160.98 126.753C159.214 126.314 158.361 125.479 158.361 124.196C158.361 122.605 159.759 121.524 161.824 121.524C163.327 121.524 164.663 122.368 164.9 123.466C164.918 123.554 164.927 123.625 164.927 123.695C164.927 124.055 164.698 124.292 164.329 124.292C164.03 124.292 163.819 124.196 163.652 123.879C163.257 123.115 162.668 122.781 161.736 122.781C160.638 122.781 159.873 123.334 159.873 124.117C159.873 124.75 160.365 125.189 161.367 125.435L162.729 125.769C164.637 126.235 165.34 126.903 165.34 128.248C165.34 129.882 163.872 130.981 161.701 130.981ZM170.881 130.981C168.35 130.981 166.645 129.162 166.645 126.252C166.645 123.334 168.35 121.524 170.881 121.524C173.403 121.524 175.109 123.334 175.109 126.252C175.109 129.162 173.403 130.981 170.881 130.981ZM170.881 129.636C172.498 129.636 173.553 128.406 173.553 126.252C173.553 124.099 172.498 122.869 170.881 122.869C169.264 122.869 168.2 124.099 168.2 126.252C168.2 128.406 169.264 129.636 170.881 129.636ZM177.6 130.981C177.134 130.981 176.835 130.629 176.835 130.164V122.297C176.835 121.84 177.134 121.524 177.556 121.524C177.978 121.524 178.277 121.84 178.277 122.297V123.141H178.312C178.743 122.174 179.674 121.524 180.905 121.524C182.153 121.524 183.076 122.157 183.471 123.264H183.506C184.016 122.174 185.088 121.524 186.372 121.524C188.182 121.524 189.351 122.702 189.351 124.512V130.164C189.351 130.629 189.052 130.981 188.586 130.981C188.121 130.981 187.822 130.629 187.822 130.164V124.864C187.822 123.616 187.127 122.877 185.923 122.877C184.71 122.877 183.858 123.774 183.858 125.013V130.164C183.858 130.629 183.559 130.981 183.093 130.981C182.627 130.981 182.329 130.629 182.329 130.164V124.697C182.329 123.598 181.59 122.877 180.457 122.877C179.244 122.877 178.365 123.827 178.365 125.092V130.164C178.365 130.629 178.066 130.981 177.6 130.981ZM195.314 130.981C192.616 130.981 191.034 129.241 191.034 126.288C191.034 123.405 192.66 121.524 195.182 121.524C197.52 121.524 199.164 123.273 199.164 125.778C199.164 126.332 198.847 126.666 198.32 126.666H192.607C192.607 128.511 193.618 129.654 195.253 129.654C196.343 129.654 197.011 129.267 197.722 128.23C197.881 128.01 198.056 127.922 198.294 127.922C198.698 127.922 198.971 128.186 198.971 128.59C198.971 128.713 198.927 128.872 198.856 129.039C198.267 130.278 196.984 130.981 195.314 130.981ZM192.616 125.47H197.582C197.547 123.888 196.571 122.851 195.156 122.851C193.732 122.851 192.713 123.897 192.616 125.47ZM205.527 130.981C205.061 130.981 204.762 130.629 204.762 130.164V122.297C204.762 121.84 205.061 121.524 205.483 121.524C205.905 121.524 206.204 121.84 206.204 122.297V123.141H206.239C206.669 122.174 207.601 121.524 208.831 121.524C210.08 121.524 211.002 122.157 211.398 123.264H211.433C211.943 122.174 213.015 121.524 214.298 121.524C216.109 121.524 217.278 122.702 217.278 124.512V130.164C217.278 130.629 216.979 130.981 216.513 130.981C216.047 130.981 215.748 130.629 215.748 130.164V124.864C215.748 123.616 215.054 122.877 213.85 122.877C212.637 122.877 211.785 123.774 211.785 125.013V130.164C211.785 130.629 211.486 130.981 211.02 130.981C210.554 130.981 210.255 130.629 210.255 130.164V124.697C210.255 123.598 209.517 122.877 208.383 122.877C207.17 122.877 206.291 123.827 206.291 125.092V130.164C206.291 130.629 205.993 130.981 205.527 130.981ZM223.197 130.981C220.666 130.981 218.961 129.162 218.961 126.252C218.961 123.334 220.666 121.524 223.197 121.524C225.719 121.524 227.425 123.334 227.425 126.252C227.425 129.162 225.719 130.981 223.197 130.981ZM223.197 129.636C224.814 129.636 225.869 128.406 225.869 126.252C225.869 124.099 224.814 122.869 223.197 122.869C221.58 122.869 220.516 124.099 220.516 126.252C220.516 128.406 221.58 129.636 223.197 129.636ZM232.236 130.981C231.735 130.981 231.454 130.761 231.234 130.208L228.325 122.623C228.273 122.491 228.246 122.359 228.246 122.227C228.246 121.805 228.554 121.524 229.011 121.524C229.354 121.524 229.582 121.708 229.723 122.104L232.228 129.197H232.263L234.776 122.104C234.917 121.708 235.146 121.524 235.48 121.524C235.937 121.524 236.235 121.805 236.235 122.227C236.235 122.359 236.209 122.491 236.156 122.623L233.256 130.208C233.054 130.735 232.729 130.981 232.236 130.981ZM241.337 130.981C238.639 130.981 237.057 129.241 237.057 126.288C237.057 123.405 238.683 121.524 241.205 121.524C243.543 121.524 245.187 123.273 245.187 125.778C245.187 126.332 244.871 126.666 244.343 126.666H238.63C238.63 128.511 239.641 129.654 241.276 129.654C242.366 129.654 243.034 129.267 243.746 128.23C243.904 128.01 244.079 127.922 244.317 127.922C244.721 127.922 244.994 128.186 244.994 128.59C244.994 128.713 244.95 128.872 244.879 129.039C244.29 130.278 243.007 130.981 241.337 130.981ZM238.639 125.47H243.605C243.57 123.888 242.594 122.851 241.179 122.851C239.755 122.851 238.736 123.897 238.639 125.47ZM247.678 130.981C247.213 130.981 246.914 130.629 246.914 130.164V122.297C246.914 121.84 247.213 121.524 247.634 121.524C248.056 121.524 248.355 121.84 248.355 122.297V123.141H248.39C248.821 122.174 249.753 121.524 250.983 121.524C252.231 121.524 253.154 122.157 253.55 123.264H253.585C254.094 122.174 255.167 121.524 256.45 121.524C258.26 121.524 259.429 122.702 259.429 124.512V130.164C259.429 130.629 259.131 130.981 258.665 130.981C258.199 130.981 257.9 130.629 257.9 130.164V124.864C257.9 123.616 257.206 122.877 256.002 122.877C254.789 122.877 253.936 123.774 253.936 125.013V130.164C253.936 130.629 253.637 130.981 253.172 130.981C252.706 130.981 252.407 130.629 252.407 130.164V124.697C252.407 123.598 251.669 122.877 250.535 122.877C249.322 122.877 248.443 123.827 248.443 125.092V130.164C248.443 130.629 248.144 130.981 247.678 130.981ZM265.393 130.981C262.694 130.981 261.112 129.241 261.112 126.288C261.112 123.405 262.738 121.524 265.261 121.524C267.599 121.524 269.242 123.273 269.242 125.778C269.242 126.332 268.926 126.666 268.398 126.666H262.686C262.686 128.511 263.696 129.654 265.331 129.654C266.421 129.654 267.089 129.267 267.801 128.23C267.959 128.01 268.135 127.922 268.372 127.922C268.776 127.922 269.049 128.186 269.049 128.59C269.049 128.713 269.005 128.872 268.935 129.039C268.346 130.278 267.063 130.981 265.393 130.981ZM262.694 125.47H267.66C267.625 123.888 266.649 122.851 265.234 122.851C263.811 122.851 262.791 123.897 262.694 125.47ZM271.734 130.981C271.286 130.981 270.969 130.647 270.969 130.164V122.297C270.969 121.84 271.268 121.524 271.69 121.524C272.112 121.524 272.411 121.84 272.411 122.297V123.141H272.446C272.955 122.157 273.931 121.524 275.346 121.524C277.35 121.524 278.51 122.816 278.51 124.89V130.164C278.51 130.647 278.194 130.981 277.745 130.981C277.297 130.981 276.981 130.647 276.981 130.164V125.163C276.981 123.686 276.286 122.877 274.88 122.877C273.439 122.877 272.498 123.897 272.498 125.444V130.164C272.498 130.647 272.182 130.981 271.734 130.981ZM281.133 128.713V122.939H280.369C279.929 122.939 279.683 122.71 279.683 122.306C279.683 121.911 279.929 121.682 280.369 121.682H281.133V120.118C281.133 119.634 281.45 119.3 281.898 119.3C282.346 119.3 282.663 119.634 282.663 120.118V121.682H283.841C284.28 121.682 284.526 121.911 284.526 122.306C284.526 122.71 284.28 122.939 283.841 122.939H282.663V128.379C282.663 129.153 282.935 129.522 283.7 129.575L283.832 129.583C284.333 129.619 284.561 129.821 284.561 130.181C284.561 130.647 284.298 130.893 283.445 130.893H283.348C281.872 130.893 281.133 130.172 281.133 128.713ZM290.968 120.144C290.45 120.144 290.019 119.713 290.019 119.195C290.019 118.667 290.45 118.246 290.968 118.246C291.495 118.246 291.926 118.667 291.926 119.195C291.926 119.713 291.495 120.144 290.968 120.144ZM290.968 130.981C290.52 130.981 290.203 130.647 290.203 130.164V122.341C290.203 121.858 290.52 121.524 290.968 121.524C291.416 121.524 291.733 121.858 291.733 122.341V130.164C291.733 130.647 291.416 130.981 290.968 130.981ZM294.743 130.981C294.295 130.981 293.978 130.647 293.978 130.164V122.297C293.978 121.84 294.277 121.524 294.699 121.524C295.121 121.524 295.42 121.84 295.42 122.297V123.141H295.455C295.964 122.157 296.94 121.524 298.355 121.524C300.359 121.524 301.519 122.816 301.519 124.89V130.164C301.519 130.647 301.203 130.981 300.755 130.981C300.306 130.981 299.99 130.647 299.99 130.164V125.163C299.99 123.686 299.296 122.877 297.889 122.877C296.448 122.877 295.507 123.897 295.507 125.444V130.164C295.507 130.647 295.191 130.981 294.743 130.981ZM310.87 130.981C310.369 130.981 310.088 130.761 309.868 130.208L306.959 122.623C306.907 122.491 306.88 122.359 306.88 122.227C306.88 121.805 307.188 121.524 307.645 121.524C307.988 121.524 308.216 121.708 308.357 122.104L310.862 129.197H310.897L313.41 122.104C313.551 121.708 313.78 121.524 314.114 121.524C314.571 121.524 314.869 121.805 314.869 122.227C314.869 122.359 314.843 122.491 314.79 122.623L311.89 130.208C311.688 130.735 311.363 130.981 310.87 130.981ZM317.247 120.144C316.728 120.144 316.297 119.713 316.297 119.195C316.297 118.667 316.728 118.246 317.247 118.246C317.774 118.246 318.205 118.667 318.205 119.195C318.205 119.713 317.774 120.144 317.247 120.144ZM317.247 130.981C316.798 130.981 316.482 130.647 316.482 130.164V122.341C316.482 121.858 316.798 121.524 317.247 121.524C317.695 121.524 318.011 121.858 318.011 122.341V130.164C318.011 130.647 317.695 130.981 317.247 130.981ZM320.749 128.713V122.939H319.984C319.545 122.939 319.299 122.71 319.299 122.306C319.299 121.911 319.545 121.682 319.984 121.682H320.749V120.118C320.749 119.634 321.065 119.3 321.514 119.3C321.962 119.3 322.278 119.634 322.278 120.118V121.682H323.456C323.895 121.682 324.142 121.911 324.142 122.306C324.142 122.71 323.895 122.939 323.456 122.939H322.278V128.379C322.278 129.153 322.551 129.522 323.315 129.575L323.447 129.583C323.948 129.619 324.177 129.821 324.177 130.181C324.177 130.647 323.913 130.893 323.06 130.893H322.964C321.487 130.893 320.749 130.172 320.749 128.713ZM328.356 130.981C326.536 130.981 325.315 129.882 325.315 128.239C325.315 126.674 326.519 125.69 328.628 125.567L331.256 125.417V124.653C331.256 123.537 330.518 122.869 329.252 122.869C328.259 122.869 327.582 123.229 327.073 124.134C326.932 124.389 326.73 124.503 326.44 124.503C326.044 124.503 325.763 124.231 325.763 123.818C325.763 123.625 325.824 123.405 325.948 123.185C326.466 122.183 327.802 121.524 329.287 121.524C331.432 121.524 332.785 122.684 332.785 124.503V130.208C332.785 130.665 332.487 130.981 332.065 130.981C331.634 130.981 331.335 130.665 331.335 130.208V129.25H331.3C330.755 130.295 329.586 130.981 328.356 130.981ZM328.698 129.68C330.14 129.68 331.256 128.669 331.256 127.351V126.604L328.804 126.753C327.573 126.833 326.87 127.377 326.87 128.239C326.87 129.109 327.6 129.68 328.698 129.68ZM335.752 130.981C335.303 130.981 334.987 130.647 334.987 130.164V118.799C334.987 118.316 335.303 117.982 335.752 117.982C336.2 117.982 336.516 118.316 336.516 118.799V130.164C336.516 130.647 336.2 130.981 335.752 130.981ZM341.934 130.981C340.308 130.981 339.034 130.251 338.595 129.109C338.542 128.977 338.524 128.863 338.524 128.749C338.524 128.344 338.823 128.116 339.219 128.116C339.491 128.116 339.711 128.256 339.887 128.573C340.344 129.373 340.889 129.733 342.057 129.733C343.226 129.733 344.017 129.223 344.017 128.371C344.017 127.711 343.64 127.36 342.611 127.105L341.214 126.753C339.447 126.314 338.595 125.479 338.595 124.196C338.595 122.605 339.992 121.524 342.057 121.524C343.56 121.524 344.896 122.368 345.134 123.466C345.151 123.554 345.16 123.625 345.16 123.695C345.16 124.055 344.932 124.292 344.562 124.292C344.264 124.292 344.053 124.196 343.886 123.879C343.49 123.115 342.901 122.781 341.97 122.781C340.871 122.781 340.106 123.334 340.106 124.117C340.106 124.75 340.599 125.189 341.6 125.435L342.963 125.769C344.87 126.235 345.573 126.903 345.573 128.248C345.573 129.882 344.105 130.981 341.934 130.981ZM348.592 128.784C349.04 128.784 349.357 129.047 349.357 129.478C349.357 129.636 349.339 129.768 349.286 129.961L348.478 132.985C348.381 133.363 348.179 133.539 347.81 133.539C347.458 133.539 347.186 133.336 347.186 132.985C347.186 132.853 347.203 132.765 347.212 132.712L347.836 129.452C347.933 128.968 348.179 128.784 348.592 128.784ZM222.639 155.823C222.155 155.823 221.848 155.506 221.848 155.005V143.958C221.848 143.457 222.155 143.14 222.639 143.14H226.11C229.872 143.14 232.096 145.487 232.096 149.477C232.096 153.476 229.881 155.823 226.11 155.823H222.639ZM223.43 154.399H226.005C228.879 154.399 230.479 152.641 230.479 149.495C230.479 146.322 228.888 144.564 226.005 144.564H223.43V154.399ZM237.795 155.981C235.264 155.981 233.559 154.162 233.559 151.252C233.559 148.334 235.264 146.524 237.795 146.524C240.318 146.524 242.023 148.334 242.023 151.252C242.023 154.162 240.318 155.981 237.795 155.981ZM237.795 154.636C239.413 154.636 240.467 153.406 240.467 151.252C240.467 149.099 239.413 147.869 237.795 147.869C236.178 147.869 235.115 149.099 235.115 151.252C235.115 153.406 236.178 154.636 237.795 154.636ZM248.518 159.242C247.779 159.242 247.366 158.969 247.366 158.486C247.366 158.152 247.595 157.923 247.981 157.923C248.201 157.923 248.263 157.932 248.5 157.932C249.08 157.932 249.634 157.581 249.994 156.473L250.205 155.832L247.059 147.631C247.006 147.482 246.98 147.341 246.98 147.227C246.98 146.805 247.305 146.524 247.744 146.524C248.105 146.524 248.333 146.682 248.474 147.086L250.996 154.293H251.023L253.554 147.086C253.694 146.682 253.897 146.524 254.274 146.524C254.714 146.524 255.022 146.814 255.022 147.227C255.022 147.341 254.995 147.482 254.942 147.631L251.567 156.464C250.776 158.565 250.029 159.242 248.518 159.242ZM260.079 155.981C257.548 155.981 255.843 154.162 255.843 151.252C255.843 148.334 257.548 146.524 260.079 146.524C262.602 146.524 264.307 148.334 264.307 151.252C264.307 154.162 262.602 155.981 260.079 155.981ZM260.079 154.636C261.697 154.636 262.751 153.406 262.751 151.252C262.751 149.099 261.697 147.869 260.079 147.869C258.462 147.869 257.399 149.099 257.399 151.252C257.399 153.406 258.462 154.636 260.079 154.636ZM269.154 155.981C267.159 155.981 265.99 154.689 265.99 152.615V147.341C265.99 146.858 266.306 146.524 266.755 146.524C267.203 146.524 267.519 146.858 267.519 147.341V152.342C267.519 153.828 268.214 154.627 269.629 154.627C271.114 154.627 272.01 153.608 272.01 152.052V147.341C272.01 146.858 272.327 146.524 272.775 146.524C273.223 146.524 273.54 146.858 273.54 147.341V155.208C273.54 155.647 273.258 155.981 272.819 155.981C272.38 155.981 272.09 155.647 272.09 155.208V154.337H272.054C271.509 155.392 270.56 155.981 269.154 155.981ZM282.153 155.981C281.669 155.981 281.379 155.752 281.23 155.243L278.997 147.579C278.953 147.429 278.936 147.297 278.936 147.183C278.936 146.779 279.226 146.524 279.683 146.524C280.061 146.524 280.263 146.7 280.377 147.148L282.179 154.118H282.214L284.13 147.209C284.253 146.761 284.561 146.524 285.027 146.524C285.484 146.524 285.774 146.752 285.897 147.201L287.83 154.118H287.866L289.667 147.148C289.782 146.7 289.984 146.524 290.362 146.524C290.819 146.524 291.109 146.779 291.109 147.183C291.109 147.297 291.091 147.429 291.047 147.579L288.815 155.243C288.674 155.735 288.358 155.981 287.883 155.981C287.373 155.981 287.083 155.761 286.934 155.243L285.035 148.748H285L283.111 155.243C282.97 155.726 282.636 155.981 282.153 155.981ZM295.13 155.981C293.31 155.981 292.089 154.882 292.089 153.239C292.089 151.674 293.293 150.69 295.402 150.567L298.03 150.417V149.653C298.03 148.537 297.292 147.869 296.026 147.869C295.033 147.869 294.356 148.229 293.846 149.134C293.706 149.389 293.504 149.503 293.214 149.503C292.818 149.503 292.537 149.231 292.537 148.818C292.537 148.625 292.598 148.405 292.721 148.185C293.24 147.183 294.576 146.524 296.061 146.524C298.206 146.524 299.559 147.684 299.559 149.503V155.208C299.559 155.665 299.26 155.981 298.839 155.981C298.408 155.981 298.109 155.665 298.109 155.208V154.25H298.074C297.529 155.295 296.36 155.981 295.13 155.981ZM295.472 154.68C296.914 154.68 298.03 153.669 298.03 152.351V151.604L295.578 151.753C294.347 151.833 293.644 152.377 293.644 153.239C293.644 154.109 294.374 154.68 295.472 154.68ZM302.446 155.981C301.998 155.981 301.682 155.647 301.682 155.164V147.297C301.682 146.84 301.98 146.524 302.402 146.524C302.824 146.524 303.123 146.84 303.123 147.297V148.141H303.158C303.668 147.157 304.644 146.524 306.059 146.524C308.062 146.524 309.223 147.816 309.223 149.89V155.164C309.223 155.647 308.906 155.981 308.458 155.981C308.01 155.981 307.693 155.647 307.693 155.164V150.163C307.693 148.686 306.999 147.877 305.593 147.877C304.151 147.877 303.211 148.897 303.211 150.444V155.164C303.211 155.647 302.894 155.981 302.446 155.981ZM311.846 153.713V147.939H311.081C310.642 147.939 310.396 147.71 310.396 147.306C310.396 146.911 310.642 146.682 311.081 146.682H311.846V145.118C311.846 144.634 312.162 144.3 312.611 144.3C313.059 144.3 313.375 144.634 313.375 145.118V146.682H314.553C314.992 146.682 315.239 146.911 315.239 147.306C315.239 147.71 314.992 147.939 314.553 147.939H313.375V153.379C313.375 154.153 313.648 154.522 314.412 154.575L314.544 154.583C315.045 154.619 315.274 154.821 315.274 155.181C315.274 155.647 315.01 155.893 314.158 155.893H314.061C312.584 155.893 311.846 155.172 311.846 153.713ZM321.601 155.981C321.136 155.981 320.837 155.629 320.837 155.164V147.297C320.837 146.84 321.136 146.524 321.558 146.524C321.979 146.524 322.278 146.84 322.278 147.297V148.141H322.313C322.744 147.174 323.676 146.524 324.906 146.524C326.154 146.524 327.077 147.157 327.473 148.264H327.508C328.018 147.174 329.09 146.524 330.373 146.524C332.184 146.524 333.352 147.702 333.352 149.512V155.164C333.352 155.629 333.054 155.981 332.588 155.981C332.122 155.981 331.823 155.629 331.823 155.164V149.864C331.823 148.616 331.129 147.877 329.925 147.877C328.712 147.877 327.859 148.774 327.859 150.013V155.164C327.859 155.629 327.56 155.981 327.095 155.981C326.629 155.981 326.33 155.629 326.33 155.164V149.697C326.33 148.598 325.592 147.877 324.458 147.877C323.245 147.877 322.366 148.827 322.366 150.092V155.164C322.366 155.629 322.067 155.981 321.601 155.981ZM339.316 155.981C336.617 155.981 335.035 154.241 335.035 151.288C335.035 148.405 336.661 146.524 339.184 146.524C341.522 146.524 343.165 148.273 343.165 150.778C343.165 151.332 342.849 151.666 342.322 151.666H336.609C336.609 153.511 337.619 154.654 339.254 154.654C340.344 154.654 341.012 154.267 341.724 153.23C341.882 153.01 342.058 152.922 342.295 152.922C342.699 152.922 342.972 153.186 342.972 153.59C342.972 153.713 342.928 153.872 342.858 154.039C342.269 155.278 340.986 155.981 339.316 155.981ZM336.617 150.47H341.583C341.548 148.888 340.573 147.851 339.157 147.851C337.734 147.851 336.714 148.897 336.617 150.47ZM349.256 153.713V147.939H348.491C348.052 147.939 347.806 147.71 347.806 147.306C347.806 146.911 348.052 146.682 348.491 146.682H349.256V145.118C349.256 144.634 349.572 144.3 350.02 144.3C350.469 144.3 350.785 144.634 350.785 145.118V146.682H351.963C352.402 146.682 352.648 146.911 352.648 147.306C352.648 147.71 352.402 147.939 351.963 147.939H350.785V153.379C350.785 154.153 351.057 154.522 351.822 154.575L351.954 154.583C352.455 154.619 352.683 154.821 352.683 155.181C352.683 155.647 352.42 155.893 351.567 155.893H351.471C349.994 155.893 349.256 155.172 349.256 153.713ZM357.9 155.981C355.368 155.981 353.663 154.162 353.663 151.252C353.663 148.334 355.368 146.524 357.9 146.524C360.422 146.524 362.127 148.334 362.127 151.252C362.127 154.162 360.422 155.981 357.9 155.981ZM357.9 154.636C359.517 154.636 360.571 153.406 360.571 151.252C360.571 149.099 359.517 147.869 357.9 147.869C356.282 147.869 355.219 149.099 355.219 151.252C355.219 153.406 356.282 154.636 357.9 154.636ZM366.886 152.263C366.341 152.263 366.104 151.859 366.104 151.358V151.112C366.104 149.925 366.658 149.143 367.862 148.422C368.881 147.798 369.277 147.227 369.277 146.331C369.277 145.188 368.416 144.415 367.124 144.415C365.955 144.415 365.181 145.003 364.891 146.058C364.742 146.594 364.548 146.761 364.153 146.761C363.705 146.761 363.459 146.498 363.459 146.041C363.459 145.663 363.529 145.364 363.687 145.021C364.206 143.773 365.498 143.043 367.185 143.043C369.365 143.043 370.912 144.371 370.912 146.251C370.912 147.631 370.2 148.581 369.075 149.257C367.959 149.917 367.642 150.409 367.642 151.332C367.642 151.885 367.431 152.263 366.886 152.263ZM366.877 155.911C366.315 155.911 365.876 155.471 365.876 154.909C365.876 154.337 366.315 153.907 366.877 153.907C367.449 153.907 367.879 154.337 367.879 154.909C367.879 155.471 367.449 155.911 366.877 155.911Z" fill="#6B6B68"/>
<path d="M356.229 130.963C355.614 130.963 355.245 130.577 355.245 129.944V119.019C355.245 118.386 355.614 118 356.229 118C356.836 118 357.214 118.386 357.214 119.019V129.944C357.214 130.577 356.836 130.963 356.229 130.963ZM360.514 122.957C360.022 122.957 359.661 122.605 359.661 122.095V118.834C359.661 118.316 360.022 117.973 360.514 117.973C361.006 117.973 361.358 118.316 361.358 118.834V122.095C361.358 122.605 361.006 122.957 360.514 122.957ZM366.776 130.981C364.438 130.981 362.891 129.118 362.891 126.2C362.891 123.282 364.438 121.427 366.758 121.427C368.085 121.427 369.14 122.095 369.659 123.115H369.694V118.975C369.694 118.351 370.089 117.973 370.652 117.973C371.206 117.973 371.601 118.351 371.601 118.975V130.041C371.601 130.638 371.214 130.99 370.661 130.99C370.124 130.99 369.694 130.638 369.694 130.041V129.179H369.667C369.193 130.26 368.217 130.981 366.776 130.981ZM367.277 129.373C368.736 129.373 369.711 128.133 369.711 126.2C369.711 124.284 368.736 123.027 367.277 123.027C365.774 123.027 364.833 124.257 364.833 126.2C364.833 128.151 365.774 129.373 367.277 129.373ZM378.518 130.99C377.946 130.99 377.568 130.594 377.568 129.988V122.376C377.568 121.779 377.938 121.41 378.474 121.41C379.001 121.41 379.379 121.77 379.379 122.376V123.132H379.423C379.836 122.104 380.803 121.418 382.051 121.418C383.334 121.418 384.266 122.078 384.635 123.229H384.679C385.153 122.104 386.243 121.418 387.562 121.418C389.39 121.418 390.585 122.631 390.585 124.468V129.988C390.585 130.594 390.198 130.99 389.627 130.99C389.056 130.99 388.678 130.594 388.678 129.988V124.925C388.678 123.73 388.036 123.044 386.911 123.044C385.786 123.044 385.004 123.879 385.004 125.048V129.988C385.004 130.594 384.644 130.99 384.072 130.99C383.501 130.99 383.141 130.594 383.141 129.988V124.785C383.141 123.721 382.464 123.044 381.392 123.044C380.267 123.044 379.467 123.923 379.467 125.11V129.988C379.467 130.594 379.089 130.99 378.518 130.99ZM396.575 130.999C393.929 130.999 392.189 129.179 392.189 126.2C392.189 123.229 393.938 121.41 396.575 121.41C399.211 121.41 400.96 123.229 400.96 126.2C400.96 129.179 399.22 130.999 396.575 130.999ZM396.575 129.434C398.069 129.434 399.027 128.256 399.027 126.2C399.027 124.152 398.06 122.974 396.575 122.974C395.089 122.974 394.122 124.152 394.122 126.2C394.122 128.256 395.089 129.434 396.575 129.434ZM405.922 130.99C405.245 130.99 404.876 130.708 404.612 130.023L401.87 122.807C401.808 122.64 401.764 122.456 401.764 122.28C401.764 121.752 402.169 121.41 402.722 121.41C403.162 121.41 403.461 121.647 403.619 122.157L405.913 128.968H405.948L408.242 122.139C408.4 121.647 408.699 121.41 409.13 121.41C409.675 121.41 410.061 121.77 410.061 122.271C410.061 122.438 410.026 122.623 409.965 122.781L407.222 130.023C406.976 130.691 406.572 130.99 405.922 130.99ZM415.269 130.999C412.483 130.999 410.848 129.232 410.848 126.244C410.848 123.308 412.518 121.41 415.137 121.41C417.598 121.41 419.294 123.185 419.294 125.708C419.294 126.323 418.942 126.674 418.354 126.674H412.764V126.718C412.764 128.406 413.713 129.46 415.225 129.46C416.262 129.46 416.912 129.1 417.615 128.142C417.817 127.905 418.011 127.808 418.283 127.808C418.74 127.808 419.074 128.107 419.074 128.582C419.074 128.731 419.022 128.907 418.942 129.091C418.336 130.304 416.991 130.999 415.269 130.999ZM412.773 125.347H417.396C417.352 123.897 416.446 122.939 415.128 122.939C413.818 122.939 412.869 123.906 412.773 125.347ZM68.9346 159.268C68.0557 159.268 67.5723 158.943 67.5723 158.354C67.5723 157.95 67.8535 157.686 68.3105 157.686C68.5127 157.686 68.583 157.695 68.8027 157.695C69.3301 157.695 69.8662 157.405 70.209 156.456L70.3848 155.919L67.291 147.825C67.2207 147.631 67.1855 147.438 67.1855 147.289C67.1855 146.77 67.5986 146.41 68.1523 146.41C68.627 146.41 68.8994 146.612 69.0664 147.139L71.4219 154.1H71.4482L73.8125 147.139C73.9707 146.621 74.2344 146.41 74.7178 146.41C75.2627 146.41 75.6406 146.77 75.6406 147.28C75.6406 147.429 75.6055 147.623 75.5439 147.807L72.3359 156.289C71.5186 158.512 70.6484 159.268 68.9346 159.268ZM80.804 155.999C78.1585 155.999 76.4183 154.179 76.4183 151.2C76.4183 148.229 78.1673 146.41 80.804 146.41C83.4407 146.41 85.1898 148.229 85.1898 151.2C85.1898 154.179 83.4495 155.999 80.804 155.999ZM80.804 154.434C82.2982 154.434 83.2562 153.256 83.2562 151.2C83.2562 149.152 82.2894 147.974 80.804 147.974C79.3187 147.974 78.3519 149.152 78.3519 151.2C78.3519 153.256 79.3187 154.434 80.804 154.434ZM90.0368 155.99C88.0241 155.99 86.7936 154.68 86.7936 152.562V147.42C86.7936 146.788 87.1803 146.41 87.7428 146.41C88.2965 146.41 88.692 146.788 88.692 147.42V152.193C88.692 153.599 89.36 154.355 90.6696 154.355C92.0407 154.355 92.8668 153.406 92.8668 151.964V147.42C92.8668 146.788 93.2623 146.41 93.8161 146.41C94.3786 146.41 94.7653 146.788 94.7653 147.42V155.023C94.7653 155.612 94.4049 155.99 93.86 155.99C93.3151 155.99 92.9459 155.612 92.9459 155.032V154.258H92.902C92.3922 155.366 91.4518 155.99 90.0368 155.99ZM97.7754 155.99C97.2041 155.99 96.8261 155.603 96.8261 154.988V147.368C96.8261 146.788 97.1953 146.41 97.7314 146.41C98.2588 146.41 98.6279 146.788 98.6279 147.368V148.159H98.6718C98.9267 147.122 99.7793 146.427 100.702 146.427C101.036 146.427 101.291 146.506 101.449 146.656C101.625 146.796 101.704 147.025 101.704 147.324C101.704 147.623 101.607 147.842 101.423 147.992C101.229 148.159 100.948 148.238 100.553 148.238C99.2519 148.247 98.7246 149.117 98.7246 150.268V154.988C98.7246 155.603 98.3379 155.99 97.7754 155.99ZM111.02 156.06C108.972 156.06 107.575 155.014 107.065 154.003C106.924 153.74 106.872 153.529 106.872 153.3C106.872 152.826 107.188 152.492 107.715 152.492C108.129 152.492 108.375 152.676 108.7 153.125C109.297 154.003 109.939 154.425 111.073 154.425C113.103 154.425 114.158 152.588 114.211 149.539V149.398H114.175C113.666 150.637 112.33 151.463 110.695 151.463C108.304 151.463 106.485 149.723 106.485 147.289C106.485 144.74 108.436 142.894 111.117 142.894C113.068 142.894 114.606 143.896 115.441 145.724C115.88 146.7 116.109 147.886 116.109 149.301C116.109 153.555 114.219 156.06 111.02 156.06ZM111.117 149.864C112.672 149.864 113.833 148.765 113.833 147.262C113.833 145.75 112.664 144.573 111.143 144.573C109.631 144.573 108.436 145.742 108.436 147.218C108.436 148.756 109.579 149.864 111.117 149.864ZM120.71 155.981C118.899 155.981 117.625 154.856 117.625 153.195C117.625 151.578 118.873 150.584 121.061 150.461L123.601 150.312V149.6C123.601 148.572 122.907 147.957 121.747 147.957C120.833 147.957 120.226 148.282 119.699 149.125C119.506 149.407 119.26 149.53 118.926 149.53C118.451 149.53 118.108 149.213 118.108 148.739C118.108 148.545 118.161 148.334 118.275 148.124C118.759 147.078 120.156 146.41 121.817 146.41C124.059 146.41 125.491 147.596 125.491 149.451V155.032C125.491 155.629 125.113 155.99 124.577 155.99C124.05 155.99 123.689 155.647 123.672 155.084V154.302H123.628C123.092 155.331 121.914 155.981 120.71 155.981ZM121.228 154.478C122.556 154.478 123.601 153.564 123.601 152.36V151.63L121.316 151.771C120.183 151.85 119.541 152.351 119.541 153.142C119.541 153.951 120.218 154.478 121.228 154.478ZM128.466 155.99C127.895 155.99 127.517 155.594 127.517 154.988V147.376C127.517 146.779 127.886 146.41 128.422 146.41C128.949 146.41 129.327 146.77 129.327 147.376V148.132H129.371C129.784 147.104 130.751 146.418 131.999 146.418C133.282 146.418 134.214 147.078 134.583 148.229H134.627C135.102 147.104 136.192 146.418 137.51 146.418C139.338 146.418 140.533 147.631 140.533 149.468V154.988C140.533 155.594 140.147 155.99 139.575 155.99C139.004 155.99 138.626 155.594 138.626 154.988V149.925C138.626 148.73 137.985 148.044 136.86 148.044C135.735 148.044 134.952 148.879 134.952 150.048V154.988C134.952 155.594 134.592 155.99 134.021 155.99C133.449 155.99 133.089 155.594 133.089 154.988V149.785C133.089 148.721 132.412 148.044 131.34 148.044C130.215 148.044 129.415 148.923 129.415 150.11V154.988C129.415 155.594 129.037 155.99 128.466 155.99ZM146.94 153.608V148.08H146.272C145.78 148.08 145.481 147.798 145.481 147.333C145.481 146.858 145.78 146.577 146.272 146.577H146.94V145.206C146.94 144.599 147.318 144.195 147.898 144.195C148.47 144.195 148.848 144.599 148.848 145.206V146.577H149.929C150.421 146.577 150.72 146.867 150.72 147.333C150.72 147.798 150.421 148.08 149.929 148.08H148.848V153.186C148.848 153.924 149.102 154.258 149.788 154.311L149.937 154.32C150.482 154.373 150.755 154.592 150.755 155.041C150.755 155.612 150.315 155.902 149.384 155.902H149.287C147.731 155.902 146.94 155.137 146.94 153.608ZM156.112 155.999C153.466 155.999 151.726 154.179 151.726 151.2C151.726 148.229 153.475 146.41 156.112 146.41C158.748 146.41 160.497 148.229 160.497 151.2C160.497 154.179 158.757 155.999 156.112 155.999ZM156.112 154.434C157.606 154.434 158.564 153.256 158.564 151.2C158.564 149.152 157.597 147.974 156.112 147.974C154.626 147.974 153.659 149.152 153.659 151.2C153.659 153.256 154.626 154.434 156.112 154.434ZM170.191 155.99C169.62 155.99 169.224 155.585 169.224 154.988V145.135H169.181L166.992 146.665C166.799 146.805 166.623 146.867 166.403 146.867C165.973 146.867 165.665 146.559 165.665 146.111C165.665 145.786 165.788 145.557 166.157 145.302L168.794 143.43C169.33 143.052 169.62 142.973 170.042 142.973C170.736 142.973 171.149 143.386 171.149 144.072V154.988C171.149 155.585 170.754 155.99 170.191 155.99ZM179.072 156.06C176.014 156.06 174.212 153.511 174.212 149.468C174.212 145.452 176.04 142.903 179.072 142.903C182.105 142.903 183.915 145.443 183.915 149.459C183.915 153.502 182.122 156.06 179.072 156.06ZM179.072 154.408C180.901 154.408 181.929 152.544 181.929 149.468C181.929 146.436 180.883 144.555 179.072 144.555C177.262 144.555 176.207 146.445 176.207 149.468C176.207 152.536 177.236 154.408 179.072 154.408ZM187.224 147.456C186.582 147.456 186.073 146.946 186.073 146.304C186.073 145.663 186.582 145.153 187.224 145.153C187.866 145.153 188.375 145.663 188.375 146.304C188.375 146.946 187.866 147.456 187.224 147.456ZM187.224 153.863C186.582 153.863 186.073 153.353 186.073 152.711C186.073 152.061 186.582 151.56 187.224 151.56C187.866 151.56 188.375 152.061 188.375 152.711C188.375 153.353 187.866 153.863 187.224 153.863ZM195.165 156.06C193.082 156.06 191.667 155.251 190.964 153.968C190.788 153.643 190.709 153.335 190.709 153.019C190.709 152.492 191.043 152.149 191.596 152.149C192.018 152.149 192.264 152.342 192.467 152.799C192.897 153.81 193.723 154.417 195.174 154.417C196.712 154.417 197.749 153.538 197.758 152.307C197.766 150.857 196.721 150.048 195.024 150.048H194.18C193.679 150.048 193.363 149.741 193.363 149.284C193.363 148.827 193.679 148.519 194.18 148.519H194.971C196.422 148.519 197.406 147.658 197.406 146.48C197.406 145.302 196.65 144.52 195.147 144.52C193.864 144.52 193.143 145.056 192.704 146.111C192.493 146.621 192.282 146.805 191.816 146.805C191.262 146.805 190.964 146.489 190.964 145.961C190.964 145.619 191.034 145.329 191.201 145.003C191.834 143.747 193.214 142.903 195.147 142.903C197.731 142.903 199.322 144.318 199.322 146.208C199.322 147.79 198.206 148.862 196.65 149.187V149.231C198.513 149.398 199.762 150.532 199.762 152.307C199.762 154.54 197.81 156.06 195.165 156.06ZM206.437 156.06C203.378 156.06 201.576 153.511 201.576 149.468C201.576 145.452 203.404 142.903 206.437 142.903C209.469 142.903 211.279 145.443 211.279 149.459C211.279 153.502 209.486 156.06 206.437 156.06ZM206.437 154.408C208.265 154.408 209.293 152.544 209.293 149.468C209.293 146.436 208.247 144.555 206.437 144.555C204.626 144.555 203.571 146.445 203.571 149.468C203.571 152.536 204.6 154.408 206.437 154.408ZM214.202 155.919C213.56 155.919 213.05 155.41 213.05 154.768C213.05 154.126 213.56 153.617 214.202 153.617C214.843 153.617 215.353 154.126 215.353 154.768C215.353 155.41 214.843 155.919 214.202 155.919Z" fill="#1A1A1A"/>
<rect x="66.8516" y="186.823" width="202" height="41" rx="12" fill="#1A1A1A"/>
<rect x="66.4821" y="186.453" width="202.739" height="41.7389" rx="12.3694" stroke="#1A1A1A" stroke-opacity="0.08" stroke-width="0.738854"/>
<path d="M91.1366 212.948C90.5975 212.948 90.3006 212.682 90.1366 212.081L87.5194 202.745C87.4647 202.534 87.4413 202.37 87.4413 202.213C87.4413 201.737 87.785 201.424 88.3006 201.424C88.7616 201.424 89.0428 201.674 89.1522 202.151L91.1834 210.377H91.2459L93.4491 202.307C93.6131 201.682 93.91 201.424 94.4491 201.424C94.9725 201.424 95.2772 201.69 95.4334 202.284L97.6444 210.377H97.7069L99.7303 202.151C99.8475 201.667 100.137 201.424 100.59 201.424C101.105 201.424 101.449 201.737 101.449 202.213C101.449 202.37 101.426 202.534 101.363 202.745L98.7538 212.088C98.5819 212.682 98.285 212.948 97.7538 212.948C97.1991 212.948 96.9022 212.698 96.7303 212.088L94.4803 204.323H94.4022L92.16 212.088C91.9881 212.69 91.6834 212.948 91.1366 212.948ZM104.289 212.963C102.679 212.963 101.547 211.963 101.547 210.487C101.547 209.049 102.656 208.167 104.601 208.057L106.859 207.924V207.292C106.859 206.377 106.242 205.831 105.211 205.831C104.398 205.831 103.859 206.12 103.39 206.87C103.218 207.12 103 207.229 102.703 207.229C102.281 207.229 101.976 206.948 101.976 206.526C101.976 206.354 102.023 206.167 102.125 205.979C102.554 205.049 103.797 204.456 105.273 204.456C107.265 204.456 108.539 205.51 108.539 207.159V212.12C108.539 212.651 108.203 212.971 107.726 212.971C107.258 212.971 106.937 212.667 106.922 212.167V211.471H106.883C106.406 212.385 105.359 212.963 104.289 212.963ZM104.75 211.627C105.929 211.627 106.859 210.815 106.859 209.745V209.096L104.828 209.221C103.82 209.292 103.25 209.737 103.25 210.44C103.25 211.159 103.851 211.627 104.75 211.627ZM111.246 212.971C110.753 212.971 110.402 212.635 110.402 212.081V202.292C110.402 201.737 110.753 201.401 111.246 201.401C111.738 201.401 112.089 201.737 112.089 202.292V212.081C112.089 212.635 111.738 212.971 111.246 212.971ZM114.89 212.971C114.398 212.971 114.046 212.635 114.046 212.081V202.292C114.046 201.737 114.398 201.401 114.89 201.401C115.382 201.401 115.734 201.737 115.734 202.292V208.112H115.749L119.163 204.768C119.374 204.542 119.554 204.456 119.804 204.456C120.218 204.456 120.538 204.776 120.538 205.174C120.538 205.417 120.468 205.573 120.249 205.776L117.71 208.182L120.499 211.635C120.679 211.862 120.726 212.018 120.726 212.229C120.726 212.659 120.39 212.971 119.937 212.971C119.624 212.971 119.437 212.87 119.21 212.557L116.484 209.182L115.734 209.885V212.081C115.734 212.635 115.382 212.971 114.89 212.971ZM126.476 212.971C125.968 212.971 125.632 212.62 125.632 212.081V205.315C125.632 204.784 125.96 204.456 126.437 204.456C126.905 204.456 127.241 204.776 127.241 205.315V205.987H127.28C127.648 205.073 128.507 204.463 129.616 204.463C130.757 204.463 131.585 205.049 131.913 206.073H131.952C132.374 205.073 133.343 204.463 134.515 204.463C136.14 204.463 137.202 205.542 137.202 207.174V212.081C137.202 212.62 136.858 212.971 136.351 212.971C135.843 212.971 135.507 212.62 135.507 212.081V207.581C135.507 206.518 134.937 205.909 133.937 205.909C132.937 205.909 132.241 206.651 132.241 207.69V212.081C132.241 212.62 131.921 212.971 131.413 212.971C130.905 212.971 130.585 212.62 130.585 212.081V207.456C130.585 206.51 129.983 205.909 129.03 205.909C128.03 205.909 127.319 206.69 127.319 207.745V212.081C127.319 212.62 126.983 212.971 126.476 212.971ZM142.558 212.979C140.081 212.979 138.628 211.409 138.628 208.752C138.628 206.143 140.112 204.456 142.44 204.456C144.628 204.456 146.136 206.034 146.136 208.276C146.136 208.823 145.823 209.135 145.3 209.135H140.331V209.174C140.331 210.674 141.175 211.612 142.518 211.612C143.44 211.612 144.018 211.292 144.643 210.44C144.823 210.229 144.995 210.143 145.237 210.143C145.643 210.143 145.94 210.409 145.94 210.831C145.94 210.963 145.893 211.12 145.823 211.284C145.284 212.362 144.089 212.979 142.558 212.979ZM140.339 207.956H144.448C144.409 206.667 143.604 205.815 142.433 205.815C141.268 205.815 140.425 206.674 140.339 207.956ZM151.51 210.854V205.94H150.917C150.479 205.94 150.213 205.69 150.213 205.276C150.213 204.854 150.479 204.604 150.917 204.604H151.51V203.385C151.51 202.846 151.846 202.487 152.362 202.487C152.87 202.487 153.206 202.846 153.206 203.385V204.604H154.167C154.604 204.604 154.87 204.862 154.87 205.276C154.87 205.69 154.604 205.94 154.167 205.94H153.206V210.479C153.206 211.135 153.432 211.432 154.042 211.479L154.174 211.487C154.659 211.534 154.901 211.729 154.901 212.127C154.901 212.635 154.51 212.893 153.682 212.893H153.596C152.213 212.893 151.51 212.213 151.51 210.854ZM157.225 212.971C156.733 212.971 156.381 212.635 156.381 212.081V202.276C156.381 201.745 156.702 201.401 157.217 201.401C157.741 201.401 158.053 201.745 158.053 202.276V205.979H158.092C158.545 205.018 159.444 204.463 160.694 204.463C162.498 204.463 163.577 205.667 163.577 207.526V212.081C163.577 212.635 163.225 212.971 162.725 212.971C162.233 212.971 161.881 212.635 161.881 212.081V207.854C161.881 206.643 161.272 205.917 160.084 205.917C158.834 205.917 158.069 206.776 158.069 208.073V212.081C158.069 212.635 157.717 212.971 157.225 212.971ZM166.213 212.971C165.705 212.971 165.369 212.627 165.369 212.081V205.307C165.369 204.792 165.698 204.456 166.174 204.456C166.643 204.456 166.971 204.792 166.971 205.307V206.01H167.01C167.237 205.088 167.994 204.471 168.815 204.471C169.112 204.471 169.338 204.542 169.479 204.674C169.635 204.799 169.705 205.002 169.705 205.268C169.705 205.534 169.619 205.729 169.455 205.862C169.283 206.01 169.033 206.081 168.682 206.081C167.526 206.088 167.057 206.862 167.057 207.885V212.081C167.057 212.627 166.713 212.971 166.213 212.971ZM173.967 212.979C171.615 212.979 170.068 211.362 170.068 208.713C170.068 206.073 171.623 204.456 173.967 204.456C176.311 204.456 177.865 206.073 177.865 208.713C177.865 211.362 176.318 212.979 173.967 212.979ZM173.967 211.588C175.295 211.588 176.147 210.542 176.147 208.713C176.147 206.893 175.287 205.846 173.967 205.846C172.647 205.846 171.787 206.893 171.787 208.713C171.787 210.542 172.647 211.588 173.967 211.588ZM182.174 212.971C180.385 212.971 179.291 211.807 179.291 209.924V205.354C179.291 204.792 179.635 204.456 180.135 204.456C180.627 204.456 180.978 204.792 180.978 205.354V209.596C180.978 210.846 181.572 211.518 182.736 211.518C183.955 211.518 184.689 210.674 184.689 209.393V205.354C184.689 204.792 185.041 204.456 185.533 204.456C186.033 204.456 186.377 204.792 186.377 205.354V212.112C186.377 212.635 186.057 212.971 185.572 212.971C185.088 212.971 184.76 212.635 184.76 212.12V211.432H184.721C184.268 212.417 183.432 212.971 182.174 212.971ZM191.654 215.917C190.162 215.901 188.982 215.323 188.42 214.432C188.31 214.245 188.263 214.073 188.263 213.877C188.263 213.487 188.553 213.206 188.982 213.206C189.24 213.206 189.404 213.292 189.631 213.518C190.303 214.221 190.881 214.526 191.685 214.542C193.06 214.557 193.896 213.776 193.896 212.627V211.323H193.857C193.396 212.213 192.428 212.799 191.256 212.799C189.185 212.799 187.842 211.182 187.842 208.643C187.842 206.073 189.17 204.471 191.295 204.471C192.459 204.471 193.365 205.057 193.865 205.987H193.896V205.323C193.896 204.776 194.263 204.456 194.748 204.456C195.232 204.456 195.592 204.776 195.592 205.323V212.596C195.592 214.627 194.099 215.94 191.654 215.917ZM191.709 211.424C193.029 211.424 193.904 210.346 193.904 208.659C193.904 206.971 193.029 205.862 191.709 205.862C190.412 205.862 189.568 206.94 189.568 208.651C189.568 210.37 190.412 211.424 191.709 211.424ZM198.322 212.971C197.83 212.971 197.478 212.635 197.478 212.081V202.276C197.478 201.745 197.798 201.401 198.314 201.401C198.838 201.401 199.15 201.745 199.15 202.276V205.979H199.189C199.642 205.018 200.541 204.463 201.791 204.463C203.595 204.463 204.673 205.667 204.673 207.526V212.081C204.673 212.635 204.322 212.971 203.822 212.971C203.33 212.971 202.978 212.635 202.978 212.081V207.854C202.978 206.643 202.369 205.917 201.181 205.917C199.931 205.917 199.166 206.776 199.166 208.073V212.081C199.166 212.635 198.814 212.971 198.322 212.971ZM210.775 203.362C210.236 203.362 209.798 202.924 209.798 202.393C209.798 201.854 210.236 201.432 210.775 201.432C211.322 201.432 211.759 201.854 211.759 202.393C211.759 202.924 211.322 203.362 210.775 203.362ZM210.775 212.971C210.267 212.971 209.931 212.62 209.931 212.081V205.354C209.931 204.807 210.267 204.456 210.775 204.456C211.283 204.456 211.618 204.807 211.618 205.354V212.081C211.618 212.62 211.283 212.971 210.775 212.971ZM213.997 210.854V205.94H213.403C212.966 205.94 212.7 205.69 212.7 205.276C212.7 204.854 212.966 204.604 213.403 204.604H213.997V203.385C213.997 202.846 214.333 202.487 214.849 202.487C215.357 202.487 215.693 202.846 215.693 203.385V204.604H216.653C217.091 204.604 217.357 204.862 217.357 205.276C217.357 205.69 217.091 205.94 216.653 205.94H215.693V210.479C215.693 211.135 215.919 211.432 216.528 211.479L216.661 211.487C217.146 211.534 217.388 211.729 217.388 212.127C217.388 212.635 216.997 212.893 216.169 212.893H216.083C214.7 212.893 213.997 212.213 213.997 210.854ZM223.559 212.971C223.044 212.971 222.708 212.651 222.708 212.088V205.94H222.122C221.723 205.94 221.45 205.706 221.45 205.284C221.45 204.877 221.723 204.62 222.122 204.62H222.708V203.815C222.708 202.221 223.481 201.479 224.895 201.471C225.794 201.471 226.223 201.76 226.223 202.213C226.223 202.487 226.091 202.651 225.817 202.729C225.7 202.76 225.559 202.784 225.387 202.784C224.677 202.792 224.38 203.127 224.38 203.877V204.62H225.489C225.887 204.62 226.161 204.877 226.161 205.284C226.161 205.706 225.887 205.94 225.489 205.94H224.403V212.088C224.403 212.651 224.067 212.971 223.559 212.971ZM228.43 203.362C227.891 203.362 227.454 202.924 227.454 202.393C227.454 201.854 227.891 201.432 228.43 201.432C228.977 201.432 229.415 201.854 229.415 202.393C229.415 202.924 228.977 203.362 228.43 203.362ZM228.43 212.971C227.923 212.971 227.587 212.62 227.587 212.081V205.354C227.587 204.807 227.923 204.456 228.43 204.456C228.938 204.456 229.274 204.807 229.274 205.354V212.081C229.274 212.62 228.938 212.971 228.43 212.971ZM232.004 212.971C231.497 212.971 231.161 212.627 231.161 212.081V205.307C231.161 204.792 231.489 204.456 231.965 204.456C232.434 204.456 232.762 204.792 232.762 205.307V206.01H232.801C233.028 205.088 233.786 204.471 234.606 204.471C234.903 204.471 235.129 204.542 235.27 204.674C235.426 204.799 235.497 205.002 235.497 205.268C235.497 205.534 235.411 205.729 235.247 205.862C235.075 206.01 234.825 206.081 234.473 206.081C233.317 206.088 232.848 206.862 232.848 207.885V212.081C232.848 212.627 232.504 212.971 232.004 212.971ZM239.602 212.979C237.985 212.979 236.797 212.315 236.407 211.307C236.352 211.182 236.336 211.065 236.336 210.956C236.336 210.534 236.641 210.284 237.063 210.284C237.344 210.284 237.586 210.417 237.797 210.729C238.219 211.393 238.711 211.69 239.688 211.69C240.649 211.69 241.297 211.276 241.297 210.596C241.297 210.057 240.977 209.768 240.094 209.557L238.797 209.252C237.203 208.877 236.422 208.096 236.422 206.924C236.422 205.44 237.711 204.456 239.664 204.456C241.149 204.456 242.368 205.213 242.602 206.182C242.618 206.276 242.633 206.354 242.633 206.432C242.633 206.807 242.399 207.057 241.977 207.057C241.703 207.057 241.461 206.963 241.297 206.698C240.93 206.073 240.43 205.745 239.602 205.745C238.696 205.745 238.071 206.19 238.071 206.831C238.071 207.346 238.469 207.706 239.336 207.909L240.61 208.206C242.336 208.604 243 209.221 243 210.44C243 211.963 241.633 212.979 239.602 212.979ZM244.957 210.854V205.94H244.363C243.926 205.94 243.66 205.69 243.66 205.276C243.66 204.854 243.926 204.604 244.363 204.604H244.957V203.385C244.957 202.846 245.293 202.487 245.809 202.487C246.317 202.487 246.652 202.846 246.652 203.385V204.604H247.613C248.051 204.604 248.317 204.862 248.317 205.276C248.317 205.69 248.051 205.94 247.613 205.94H246.652V210.479C246.652 211.135 246.879 211.432 247.488 211.479L247.621 211.487C248.106 211.534 248.348 211.729 248.348 212.127C248.348 212.635 247.957 212.893 247.129 212.893H247.043C245.66 212.893 244.957 212.213 244.957 210.854Z" fill="#FAFAF8"/>
<rect x="276.852" y="186.823" width="74" height="41" rx="12" fill="white"/>
<rect x="276.352" y="186.323" width="75" height="42" rx="12.5" stroke="#1A1A1A" stroke-opacity="0.08"/>
<path d="M302.698 213.01C299.51 213.01 297.518 210.776 297.518 207.182C297.518 203.612 299.533 201.362 302.682 201.362C304.752 201.362 306.408 202.37 307.112 204.034C307.221 204.26 307.276 204.495 307.276 204.706C307.276 205.174 306.963 205.479 306.494 205.479C306.08 205.479 305.807 205.276 305.612 204.823C305.088 203.565 303.979 202.893 302.682 202.893C300.635 202.893 299.307 204.573 299.307 207.182C299.307 209.815 300.619 211.479 302.69 211.479C304.065 211.479 305.119 210.893 305.643 209.674C305.83 209.26 306.057 209.088 306.44 209.088C306.916 209.088 307.244 209.417 307.244 209.877C307.244 210.12 307.182 210.346 307.057 210.604C306.33 212.127 304.791 213.01 302.698 213.01ZM309.912 212.971C309.42 212.971 309.068 212.635 309.068 212.081V202.276C309.068 201.745 309.389 201.401 309.904 201.401C310.428 201.401 310.74 201.745 310.74 202.276V205.979H310.779C311.233 205.018 312.131 204.463 313.381 204.463C315.186 204.463 316.264 205.667 316.264 207.526V212.081C316.264 212.635 315.912 212.971 315.412 212.971C314.92 212.971 314.568 212.635 314.568 212.081V207.854C314.568 206.643 313.959 205.917 312.772 205.917C311.522 205.917 310.756 206.776 310.756 208.073V212.081C310.756 212.635 310.404 212.971 309.912 212.971ZM320.463 212.963C318.853 212.963 317.721 211.963 317.721 210.487C317.721 209.049 318.83 208.167 320.775 208.057L323.033 207.924V207.292C323.033 206.377 322.416 205.831 321.385 205.831C320.572 205.831 320.033 206.12 319.564 206.87C319.392 207.12 319.174 207.229 318.877 207.229C318.455 207.229 318.15 206.948 318.15 206.526C318.15 206.354 318.197 206.167 318.299 205.979C318.728 205.049 319.971 204.456 321.447 204.456C323.439 204.456 324.713 205.51 324.713 207.159V212.12C324.713 212.651 324.377 212.971 323.9 212.971C323.432 212.971 323.111 212.667 323.096 212.167V211.471H323.057C322.58 212.385 321.533 212.963 320.463 212.963ZM320.924 211.627C322.103 211.627 323.033 210.815 323.033 209.745V209.096L321.002 209.221C319.994 209.292 319.424 209.737 319.424 210.44C319.424 211.159 320.025 211.627 320.924 211.627ZM327.006 210.854V205.94H326.412C325.974 205.94 325.709 205.69 325.709 205.276C325.709 204.854 325.974 204.604 326.412 204.604H327.006V203.385C327.006 202.846 327.342 202.487 327.857 202.487C328.365 202.487 328.701 202.846 328.701 203.385V204.604H329.662C330.099 204.604 330.365 204.862 330.365 205.276C330.365 205.69 330.099 205.94 329.662 205.94H328.701V210.479C328.701 211.135 328.927 211.432 329.537 211.479L329.67 211.487C330.154 211.534 330.396 211.729 330.396 212.127C330.396 212.635 330.006 212.893 329.177 212.893H329.092C327.709 212.893 327.006 212.213 327.006 210.854Z" fill="#1A1A1A"/>
</g>
<defs>
<filter id="filter0_d_1772_27323" x="0.00156212" y="9.72748e-05" width="540.7" height="346.673" filterUnits="userSpaceOnUse" color-interpolation-filters="sRGB">
<feFlood flood-opacity="0" result="BackgroundImageFix"/>
<feColorMatrix in="SourceAlpha" type="matrix" values="0 0 0 0 0 0 0 0 0 0 0 0 0 0 0 0 0 0 127 0" result="hardAlpha"/>
<feOffset dx="26" dy="26"/>
<feGaussianBlur stdDeviation="28.925"/>
<feComposite in2="hardAlpha" operator="out"/>
<feColorMatrix type="matrix" values="0 0 0 0 0 0 0 0 0 0 0 0 0 0 0 0 0 0 0.08 0"/>
<feBlend mode="normal" in2="BackgroundImageFix" result="effect1_dropShadow_1772_27323"/>
<feBlend mode="normal" in="SourceGraphic" in2="effect1_dropShadow_1772_27323" result="shape"/>
</filter>
<clipPath id="clip0_1772_27323">
<rect width="9.28155" height="9.28155" fill="white" transform="translate(232.695 85.5325)"/>
</clipPath>
</defs>
</svg>
