<svg width="104" height="39" viewBox="0 0 104 39" fill="none" xmlns="http://www.w3.org/2000/svg">
<g clip-path="url(#clip0_1772_27410)">
<rect width="103.065" height="38.4429" rx="19.2214" fill="white"/>
<g opacity="0.5">
<g filter="url(#filter0_d_1772_27410)">
<rect width="25.6316" height="25.6316" rx="12.8158" transform="matrix(-1 0 0 1 32.2344 6.25806)" fill="#2338C1"/>
<rect x="-0.39228" y="0.39228" width="24.847" height="24.847" rx="12.4235" transform="matrix(-1 0 0 1 31.4498 6.25806)" stroke="#1A1A1A" stroke-opacity="0.08" stroke-width="0.78456"/>
<path d="M16.9203 24.3044C16.6324 24.3044 16.4542 24.1194 16.4542 23.8178V14.9013C16.4542 14.5998 16.6324 14.4147 16.9203 14.4147H19.6617C22.6224 14.4147 24.3495 16.2309 24.3495 19.3562C24.3495 22.4882 22.6293 24.3044 19.6617 24.3044H16.9203ZM17.3932 23.4546H19.6069C22.0399 23.4546 23.3969 21.9879 23.3969 19.363C23.3969 16.7312 22.0399 15.2646 19.6069 15.2646H17.3932V23.4546Z" fill="white"/>
</g>
<g filter="url(#filter1_d_1772_27410)">
<rect width="10.393" height="10.393" rx="5.1965" transform="matrix(-1 0 0 1 34.5312 22.0107)" fill="white"/>
<rect x="-0.253617" y="0.253617" width="9.88576" height="9.88576" rx="4.94288" transform="matrix(-1 0 0 1 34.024 22.0107)" stroke="#1A1A1A" stroke-opacity="0.08" stroke-width="0.507234"/>
<path fill-rule="evenodd" clip-rule="evenodd" d="M29.3891 24.0042C27.5885 24.0042 26.1328 25.4705 26.1328 27.2846C26.1328 28.7347 27.0655 29.9622 28.3594 30.3967C28.5211 30.4293 28.5804 30.3261 28.5804 30.2392C28.5804 30.1632 28.5751 29.9025 28.5751 29.6309C27.6692 29.8265 27.4806 29.2398 27.4806 29.2398C27.335 28.8597 27.1194 28.7619 27.1194 28.7619C26.8229 28.561 27.1409 28.561 27.1409 28.561C27.4698 28.5827 27.6424 28.8977 27.6424 28.8977C27.9335 29.3974 28.4025 29.2562 28.5912 29.1693C28.6181 28.9574 28.7044 28.8108 28.7961 28.7294C28.0736 28.6533 27.3135 28.3709 27.3135 27.1108C27.3135 26.7523 27.4428 26.4591 27.6477 26.231C27.6154 26.1495 27.5021 25.8127 27.6801 25.3619C27.6801 25.3619 27.9551 25.275 28.575 25.6987C28.8404 25.6269 29.1141 25.5903 29.3891 25.59C29.6641 25.59 29.9443 25.6281 30.2031 25.6987C30.8232 25.275 31.0981 25.3619 31.0981 25.3619C31.2761 25.8127 31.1628 26.1495 31.1304 26.231C31.3407 26.4591 31.4647 26.7523 31.4647 27.1108C31.4647 28.3709 30.7046 28.6478 29.9767 28.7294C30.0954 28.8325 30.1977 29.028 30.1977 29.3376C30.1977 29.7776 30.1924 30.1306 30.1924 30.2392C30.1924 30.3261 30.2517 30.4293 30.4134 30.3968C31.7073 29.9622 32.64 28.7347 32.64 27.2846C32.6453 25.4705 31.1844 24.0042 29.3891 24.0042Z" fill="#24292F"/>
</g>
<path d="M41.8749 22.8103C40.5616 22.8103 39.6927 21.7636 39.6927 20.1245C39.6927 18.4853 40.5616 17.4436 41.8651 17.4436C42.6106 17.4436 43.203 17.8188 43.4943 18.3915H43.5141V16.0661C43.5141 15.7156 43.7363 15.5033 44.0522 15.5033C44.3633 15.5033 44.5855 15.7156 44.5855 16.0661V22.282C44.5855 22.6178 44.3682 22.8152 44.0572 22.8152C43.756 22.8152 43.5141 22.6178 43.5141 22.282V21.7982H43.4993C43.2327 22.4055 42.6846 22.8103 41.8749 22.8103ZM42.1564 21.9068C42.9759 21.9068 43.524 21.2107 43.524 20.1245C43.524 19.0482 42.9759 18.3421 42.1564 18.3421C41.3121 18.3421 40.7838 19.0334 40.7838 20.1245C40.7838 21.2205 41.3121 21.9068 42.1564 21.9068ZM48.034 22.8202C46.4689 22.8202 45.5506 21.8278 45.5506 20.1492C45.5506 18.5001 46.4887 17.4337 47.9599 17.4337C49.3424 17.4337 50.2952 18.431 50.2952 19.848C50.2952 20.1936 50.0977 20.3911 49.7669 20.3911H46.6269V20.4158C46.6269 21.3637 47.1601 21.9562 48.0093 21.9562C48.5919 21.9562 48.9572 21.7537 49.3522 21.2156C49.4658 21.0823 49.5744 21.028 49.7275 21.028C49.9842 21.028 50.1718 21.1958 50.1718 21.4625C50.1718 21.5464 50.1422 21.6451 50.0977 21.7488C49.7571 22.4301 49.0017 22.8202 48.034 22.8202ZM46.6318 19.6456H49.2288C49.2041 18.8309 48.6956 18.2928 47.955 18.2928C47.2194 18.2928 46.6861 18.8359 46.6318 19.6456ZM51.759 24.563C51.443 24.563 51.2258 24.3458 51.2258 23.9952V17.9817C51.2258 17.6411 51.4381 17.4337 51.7393 17.4337C52.0404 17.4337 52.2577 17.6411 52.2577 17.9817V18.4211H52.2774C52.5835 17.8237 53.1809 17.4436 53.9314 17.4436C55.2496 17.4436 56.1186 18.4804 56.1186 20.1245C56.1186 21.7686 55.2545 22.8103 53.9511 22.8103C53.2056 22.8103 52.6131 22.445 52.3169 21.8673H52.2922V23.9952C52.2922 24.3458 52.0701 24.563 51.759 24.563ZM53.65 21.9068C54.4942 21.9068 55.0225 21.2156 55.0225 20.1245C55.0225 19.0383 54.4942 18.3421 53.65 18.3421C52.8353 18.3421 52.2873 19.0531 52.2873 20.1245C52.2873 21.2057 52.8304 21.9068 53.65 21.9068ZM57.6169 22.8152C57.3058 22.8152 57.0837 22.6029 57.0837 22.2524V16.0661C57.0837 15.7156 57.3058 15.5033 57.6169 15.5033C57.9279 15.5033 58.1501 15.7156 58.1501 16.0661V22.2524C58.1501 22.6029 57.9279 22.8152 57.6169 22.8152ZM61.5789 22.8202C60.0928 22.8202 59.1152 21.7982 59.1152 20.1245C59.1152 18.4557 60.0977 17.4337 61.5789 17.4337C63.06 17.4337 64.0425 18.4557 64.0425 20.1245C64.0425 21.7982 63.065 22.8202 61.5789 22.8202ZM61.5789 21.9414C62.4182 21.9414 62.9564 21.2798 62.9564 20.1245C62.9564 18.9741 62.4133 18.3125 61.5789 18.3125C60.7445 18.3125 60.2014 18.9741 60.2014 20.1245C60.2014 21.2798 60.7445 21.9414 61.5789 21.9414ZM65.4718 24.6568C64.9781 24.6568 64.7065 24.4741 64.7065 24.1433C64.7065 23.9162 64.8645 23.7681 65.1212 23.7681C65.2348 23.7681 65.2743 23.7731 65.3977 23.7731C65.6939 23.7731 65.9951 23.6101 66.1877 23.0769L66.2864 22.7757L64.5485 18.2286C64.509 18.12 64.4893 18.0114 64.4893 17.9274C64.4893 17.6361 64.7213 17.4337 65.0324 17.4337C65.299 17.4337 65.452 17.5473 65.5458 17.8435L66.869 21.7537H66.8838L68.2119 17.8435C68.3008 17.5522 68.4489 17.4337 68.7204 17.4337C69.0265 17.4337 69.2388 17.6361 69.2388 17.9225C69.2388 18.0064 69.2191 18.115 69.1845 18.2187L67.3825 22.9831C66.9233 24.2322 66.4345 24.6568 65.4718 24.6568ZM70.5891 22.8152C70.2682 22.8152 70.0559 22.5931 70.0559 22.2524V17.9768C70.0559 17.6411 70.2632 17.4337 70.5644 17.4337C70.8606 17.4337 71.0729 17.6361 71.0729 17.9768V18.4014H71.0976C71.3297 17.8237 71.8727 17.4386 72.5738 17.4386C73.2947 17.4386 73.818 17.8089 74.0254 18.4557H74.05C74.3167 17.8237 74.9289 17.4386 75.6694 17.4386C76.6964 17.4386 77.3678 18.12 77.3678 19.1518V22.2524C77.3678 22.5931 77.1506 22.8152 76.8297 22.8152C76.5088 22.8152 76.2965 22.5931 76.2965 22.2524V19.4086C76.2965 18.7371 75.9361 18.352 75.3041 18.352C74.6721 18.352 74.2327 18.8211 74.2327 19.4777V22.2524C74.2327 22.5931 74.0303 22.8152 73.7094 22.8152C73.3885 22.8152 73.186 22.5931 73.186 22.2524V19.3296C73.186 18.7322 72.8059 18.352 72.2035 18.352C71.5716 18.352 71.1223 18.8457 71.1223 19.5123V22.2524C71.1223 22.5931 70.91 22.8152 70.5891 22.8152ZM80.7522 22.8202C79.1871 22.8202 78.2688 21.8278 78.2688 20.1492C78.2688 18.5001 79.2068 17.4337 80.6781 17.4337C82.0605 17.4337 83.0134 18.431 83.0134 19.848C83.0134 20.1936 82.8159 20.3911 82.4851 20.3911H79.3451V20.4158C79.3451 21.3637 79.8783 21.9562 80.7275 21.9562C81.3101 21.9562 81.6754 21.7537 82.0704 21.2156C82.184 21.0823 82.2926 21.028 82.4456 21.028C82.7024 21.028 82.89 21.1958 82.89 21.4625C82.89 21.5464 82.8604 21.6451 82.8159 21.7488C82.4753 22.4301 81.7199 22.8202 80.7522 22.8202ZM79.35 19.6456H81.947C81.9223 18.8309 81.4138 18.2928 80.6732 18.2928C79.9376 18.2928 79.4043 18.8359 79.35 19.6456ZM84.4772 22.8152C84.1612 22.8152 83.944 22.6029 83.944 22.2524V17.9719C83.944 17.646 84.1415 17.4337 84.4525 17.4337C84.7586 17.4337 84.9709 17.646 84.9709 17.9768V18.3866H84.9956C85.277 17.7941 85.8201 17.4386 86.6199 17.4386C87.7654 17.4386 88.422 18.1693 88.422 19.3592V22.2524C88.422 22.6029 88.1998 22.8152 87.8839 22.8152C87.5728 22.8152 87.3506 22.6029 87.3506 22.2524V19.5666C87.3506 18.7865 86.9853 18.357 86.2447 18.357C85.4943 18.357 85.0104 18.8902 85.0104 19.6949V22.2524C85.0104 22.6029 84.7882 22.8152 84.4772 22.8152ZM89.866 21.4773V18.3718H89.4908C89.2143 18.3718 89.0465 18.2138 89.0465 17.9521C89.0465 17.6855 89.2143 17.5275 89.4908 17.5275H89.866V16.7573C89.866 16.4166 90.0783 16.1895 90.4042 16.1895C90.7251 16.1895 90.9374 16.4166 90.9374 16.7573V17.5275H91.5447C91.8212 17.5275 91.989 17.6904 91.989 17.9521C91.989 18.2138 91.8212 18.3718 91.5447 18.3718H90.9374V21.2403C90.9374 21.655 91.0806 21.8426 91.4657 21.8722L91.5496 21.8772C91.8557 21.9068 92.0088 22.0302 92.0088 22.282C92.0088 22.6029 91.7619 22.7659 91.2386 22.7659H91.1843C90.3104 22.7659 89.866 22.3363 89.866 21.4773Z" fill="#1A1A1A"/>
</g>
</g>
<rect x="0.44701" y="0.44701" width="102.171" height="37.5489" rx="18.7744" stroke="#1A1A1A" stroke-opacity="0.08" stroke-width="0.894021"/>
<defs>
<filter id="filter0_d_1772_27410" x="-12.6202" y="-12.9637" width="95.4586" height="95.4574" filterUnits="userSpaceOnUse" color-interpolation-filters="sRGB">
<feFlood flood-opacity="0" result="BackgroundImageFix"/>
<feColorMatrix in="SourceAlpha" type="matrix" values="0 0 0 0 0 0 0 0 0 0 0 0 0 0 0 0 0 0 127 0" result="hardAlpha"/>
<feOffset dx="15.6912" dy="15.6912"/>
<feGaussianBlur stdDeviation="17.4565"/>
<feComposite in2="hardAlpha" operator="out"/>
<feColorMatrix type="matrix" values="0 0 0 0 0 0 0 0 0 0 0 0 0 0 0 0 0 0 0.08 0"/>
<feBlend mode="normal" in2="BackgroundImageFix" result="effect1_dropShadow_1772_27410"/>
<feBlend mode="normal" in="SourceGraphic" in2="effect1_dropShadow_1772_27410" result="shape"/>
</filter>
<filter id="filter1_d_1772_27410" x="11.7134" y="9.5835" width="55.5345" height="55.5369" filterUnits="userSpaceOnUse" color-interpolation-filters="sRGB">
<feFlood flood-opacity="0" result="BackgroundImageFix"/>
<feColorMatrix in="SourceAlpha" type="matrix" values="0 0 0 0 0 0 0 0 0 0 0 0 0 0 0 0 0 0 127 0" result="hardAlpha"/>
<feOffset dx="10.1447" dy="10.1447"/>
<feGaussianBlur stdDeviation="11.286"/>
<feComposite in2="hardAlpha" operator="out"/>
<feColorMatrix type="matrix" values="0 0 0 0 0 0 0 0 0 0 0 0 0 0 0 0 0 0 0.08 0"/>
<feBlend mode="normal" in2="BackgroundImageFix" result="effect1_dropShadow_1772_27410"/>
<feBlend mode="normal" in="SourceGraphic" in2="effect1_dropShadow_1772_27410" result="shape"/>
</filter>
<clipPath id="clip0_1772_27410">
<rect width="103.065" height="38.4429" rx="19.2214" fill="white"/>
</clipPath>
</defs>
</svg>
