<svg width="105" height="42" viewBox="0 0 105 42" fill="none" xmlns="http://www.w3.org/2000/svg">
<rect width="104.856" height="41.3058" rx="10.296" fill="white"/>
<rect x="0.5" y="0.5" width="103.856" height="40.3058" rx="9.796" stroke="#1A1A1A" stroke-opacity="0.08"/>
<g opacity="0.8" clip-path="url(#clip0_1772_27243)">
<path d="M21.1607 28.7228C18.6603 28.7228 17.1221 27.8352 17.1221 26.3038V22.997C16.0583 22.0687 15.4417 20.578 15.4417 18.9449C15.4417 15.1301 17.9352 12.5823 21.6418 12.5823C25.3348 12.5823 27.8079 15.0691 27.8079 18.8026C27.8079 19.0127 27.8012 19.189 27.7809 19.3651L28.6076 20.8559C28.8379 21.2624 28.9531 21.6622 28.9531 22.0281C28.9531 22.726 28.5262 23.302 27.8012 23.4917V24.7928C27.8012 26.0124 26.9339 26.629 25.8293 26.5003L25.1247 26.4325L25.1314 26.4799C25.0298 27.9029 23.5323 28.7228 21.1607 28.7228ZM23.9659 19.7853C25.1043 19.7853 25.8429 18.9044 25.8429 17.7524C25.8429 17.3458 25.7141 16.9392 25.4838 16.6005C25.2805 17.0274 24.8401 17.2984 24.2709 17.2984C24.0879 17.2984 23.9253 17.1426 23.9253 16.9663C23.9253 16.7834 24.0811 16.6344 24.2709 16.6344C24.6638 16.6344 24.9688 16.3091 24.9688 15.8822C24.9688 15.2046 24.3251 14.6896 23.4916 14.6896C23.3696 14.6896 23.2613 14.7032 23.1393 14.7167C23.2206 14.8997 23.3019 15.0962 23.3087 15.3808C23.3222 15.5773 23.1799 15.7332 22.9767 15.7332C22.7869 15.7332 22.6514 15.6044 22.6514 15.4011C22.6446 14.7641 22.1636 14.3441 21.4927 14.3441C21.0997 14.3441 20.6796 14.5338 20.395 14.8523C20.3204 14.8319 20.2391 14.8252 19.9613 14.8252C19.1888 14.8252 18.5722 15.4486 18.5722 16.2346C18.5722 17.8405 21.2081 18.1454 21.2081 19.9276C21.2081 20.0359 21.1878 20.1375 21.1539 20.2392C21.3436 20.2731 21.5402 20.2934 21.7163 20.2934C22.1229 20.2934 22.4956 20.2053 22.814 20.0359C22.2448 19.731 21.9128 19.1821 21.9128 18.4978C21.9128 18.3419 21.9264 18.1861 21.967 18.037C21.2081 17.8676 20.8016 17.3594 20.8083 16.5598C20.8083 16.3836 20.9574 16.2278 21.1336 16.2278C21.3098 16.2278 21.4588 16.3769 21.4588 16.5598C21.4588 17.0815 21.7299 17.4001 22.2788 17.4746C22.2923 17.4339 22.3329 17.3661 22.3735 17.3323C22.4482 17.2578 22.543 17.2374 22.6243 17.2374C22.8004 17.2374 22.9427 17.3661 22.9427 17.5355C22.9427 17.6304 22.9021 17.7456 22.7869 17.8541C22.6446 17.9964 22.5565 18.2199 22.5565 18.4842C22.5565 19.2431 23.1393 19.7853 23.9659 19.7853ZM18.7416 21.669C19.2566 21.669 19.6699 21.2285 19.7851 20.5848H19.9003C20.3611 20.5848 20.6322 20.3069 20.6322 19.914C20.6322 18.552 18.1724 18.2877 17.9828 16.3565C17.4812 16.6479 17.1695 17.1629 17.1695 17.7863C17.1695 18.4707 17.6642 18.8908 18.4299 18.8366C18.5993 18.823 18.7552 18.9789 18.7552 19.1619C18.7552 19.3313 18.6264 19.4736 18.4435 19.4938C18.0708 19.5141 17.7456 19.46 17.4677 19.338C17.461 19.4396 17.461 19.5481 17.461 19.643C17.461 20.8219 17.9962 21.669 18.7416 21.669Z" fill="#FB943F"/>
</g>
<path opacity="0.8" d="M36.6064 25.764C36.1199 25.764 35.828 25.4582 35.828 24.9579V16.4304C35.828 15.9301 36.1199 15.6243 36.6064 15.6243H41.4713C41.9091 15.6243 42.201 15.8884 42.201 16.2984C42.201 16.7084 41.9022 16.9725 41.4713 16.9725H37.3848V20.1416H41.1029C41.5199 20.1416 41.8049 20.3988 41.8049 20.7949C41.8049 21.198 41.5199 21.4552 41.1029 21.4552H37.3848V24.9579C37.3848 25.4582 37.086 25.764 36.6064 25.764ZM46.2978 25.7918C44.2059 25.7918 42.8298 24.3532 42.8298 21.9972C42.8298 19.6482 44.2128 18.2096 46.2978 18.2096C48.3827 18.2096 49.7657 19.6482 49.7657 21.9972C49.7657 24.3532 48.3897 25.7918 46.2978 25.7918ZM46.2978 24.5548C47.4792 24.5548 48.2368 23.6235 48.2368 21.9972C48.2368 20.3779 47.4723 19.4467 46.2978 19.4467C45.1233 19.4467 44.3588 20.3779 44.3588 21.9972C44.3588 23.6235 45.1233 24.5548 46.2978 24.5548ZM51.8193 25.7849C51.3675 25.7849 51.0687 25.4791 51.0687 24.9926V18.9671C51.0687 18.5084 51.3606 18.2096 51.7845 18.2096C52.2015 18.2096 52.4934 18.5084 52.4934 18.9671V19.5926H52.5281C52.7297 18.7725 53.4038 18.2235 54.1335 18.2235C54.3976 18.2235 54.5992 18.286 54.7243 18.4042C54.8633 18.5154 54.9258 18.6961 54.9258 18.9324C54.9258 19.1687 54.8494 19.3424 54.7034 19.4606C54.5505 19.5926 54.3281 19.6552 54.0154 19.6552C52.9868 19.6621 52.5698 20.3501 52.5698 21.2606V24.9926C52.5698 25.4791 52.264 25.7849 51.8193 25.7849ZM56.6319 25.7849C56.1801 25.7849 55.8813 25.4721 55.8813 24.9926V18.9741C55.8813 18.5015 56.1732 18.2096 56.5971 18.2096C57.0141 18.2096 57.3129 18.4945 57.3129 18.9741V19.5718H57.3477C57.6743 18.7586 58.4388 18.2165 59.4257 18.2165C60.4403 18.2165 61.177 18.7378 61.4689 19.6482H61.5037C61.879 18.7586 62.7407 18.2165 63.7832 18.2165C65.2288 18.2165 66.1739 19.1756 66.1739 20.6281V24.9926C66.1739 25.4721 65.8681 25.7849 65.4164 25.7849C64.9647 25.7849 64.6658 25.4721 64.6658 24.9926V20.9895C64.6658 20.0443 64.1585 19.5023 63.2689 19.5023C62.3793 19.5023 61.7608 20.1625 61.7608 21.0868V24.9926C61.7608 25.4721 61.4759 25.7849 61.0241 25.7849C60.5724 25.7849 60.2875 25.4721 60.2875 24.9926V20.8783C60.2875 20.0374 59.7523 19.5023 58.9044 19.5023C58.0149 19.5023 57.3824 20.1972 57.3824 21.1355V24.9926C57.3824 25.4721 57.0836 25.7849 56.6319 25.7849Z" fill="#1A1A1A"/>
<g opacity="0.8">
<path d="M72.8203 16.6379C72.8203 14.2727 74.7377 12.3552 77.103 12.3552H85.133C87.4983 12.3552 89.4157 14.2727 89.4157 16.6379V24.668C89.4157 27.0332 87.4983 28.9507 85.133 28.9507H77.103C74.7377 28.9507 72.8203 27.0332 72.8203 24.668V16.6379Z" fill="#FB943F"/>
<path d="M84.1496 20.1865L81.1178 17.6211L78.0859 20.1865M81.1178 17.6211L81.1177 23.6848" stroke="white" stroke-width="1.29936" stroke-linecap="round" stroke-linejoin="round"/>
</g>
<defs>
<clipPath id="clip0_1772_27243">
<rect width="13.5114" height="16.1405" fill="white" transform="matrix(-1 0 0 -1 28.9531 28.7231)"/>
</clipPath>
</defs>
</svg>
