<svg width="142" height="39" viewBox="0 0 142 39" fill="none" xmlns="http://www.w3.org/2000/svg">
<rect width="141.94" height="38.3834" rx="11.1917" fill="white"/>
<rect x="0.5" y="0.5" width="140.94" height="37.3834" rx="10.6917" stroke="#1A1A1A" stroke-opacity="0.08"/>
<g opacity="0.45" clip-path="url(#clip0_1772_27227)">
<mask id="mask0_1772_27227" style="mask-type:luminance" maskUnits="userSpaceOnUse" x="13" y="13" width="15" height="12">
<path d="M27.4076 13.7305H13.4297V24.6349H27.4076V13.7305Z" fill="white"/>
</mask>
<g mask="url(#mask0_1772_27227)">
<path d="M14.3828 24.6361H16.6065V19.2356L13.4297 16.853V23.6831C13.4297 24.2097 13.8562 24.6363 14.3828 24.6363V24.6361Z" fill="#4285F4"/>
<path d="M24.2266 24.6361H26.4504C26.9769 24.6361 27.4034 24.2097 27.4034 23.6831V16.853L24.2266 19.2356V24.6361Z" fill="#34A853"/>
<path d="M24.2266 15.106V19.2358L27.4034 16.8532V15.5825C27.4034 14.4047 26.0588 13.732 25.116 14.4389L24.2266 15.106Z" fill="#FBBC04"/>
<path fill-rule="evenodd" clip-rule="evenodd" d="M16.6016 19.2353V15.1055L20.4137 17.9646L24.2259 15.1055V19.2353L20.4137 22.0944L16.6016 19.2353Z" fill="#EA4335"/>
<path d="M13.4297 15.5823V16.853L16.6065 19.2356V15.1057L15.717 14.4386C14.7742 13.7318 13.4297 14.4045 13.4297 15.5823Z" fill="#C5221F"/>
</g>
</g>
<path opacity="0.45" d="M39.1216 23.34C36.5687 23.34 34.9616 21.5536 34.9616 18.6917C34.9616 15.8793 36.5626 14.1238 39.103 14.1238C40.7658 14.1238 42.1009 14.9521 42.5954 16.145C42.6758 16.3428 42.6943 16.4974 42.6943 16.6519C42.6943 17.0166 42.4533 17.2638 42.0762 17.2638C41.761 17.2638 41.557 17.1155 41.3839 16.7694C40.9327 15.8236 40.1415 15.3353 39.1092 15.3353C37.4032 15.3353 36.3771 16.5839 36.3771 18.6794C36.3771 20.8119 37.4341 22.1285 39.1339 22.1285C40.5804 22.1285 41.5817 21.2013 41.6003 19.8476V19.6931H39.8015C39.443 19.6931 39.1958 19.4705 39.1958 19.1368C39.1958 18.7968 39.443 18.5743 39.8015 18.5743H42.274C42.7005 18.5743 42.9663 18.8462 42.9663 19.2975V19.52C42.9663 21.875 41.5508 23.34 39.1216 23.34ZM45.0771 23.2906C44.6815 23.2906 44.4466 23.0433 44.4466 22.6292V15.051C44.4466 14.5132 44.7866 14.1732 45.3367 14.1732C45.8065 14.1732 46.0846 14.3834 46.2948 14.9026L48.9342 21.3126H48.9836L51.6168 14.9026C51.827 14.3896 52.1113 14.1732 52.5935 14.1732C53.1312 14.1732 53.4712 14.507 53.4712 15.051V22.6292C53.4712 23.0433 53.2301 23.2906 52.8407 23.2906C52.4451 23.2906 52.204 23.0433 52.204 22.6292V16.6272H52.1608L49.6759 22.6168C49.5276 22.9753 49.305 23.136 48.9589 23.136C48.6127 23.136 48.384 22.9753 48.2419 22.6292L45.7508 16.6272H45.7076V22.6292C45.7076 23.0433 45.4727 23.2906 45.0771 23.2906ZM56.8244 23.3029C55.5511 23.3029 54.6548 22.5117 54.6548 21.3435C54.6548 20.2061 55.5325 19.5076 57.0716 19.4211L58.858 19.316V18.8153C58.858 18.0921 58.3697 17.6594 57.5538 17.6594C56.9109 17.6594 56.4844 17.8882 56.1135 18.4816C55.9776 18.6794 55.8045 18.7659 55.5696 18.7659C55.2358 18.7659 54.9947 18.5434 54.9947 18.2096C54.9947 18.0736 55.0318 17.9252 55.1122 17.7769C55.4522 17.0413 56.435 16.5716 57.6032 16.5716C59.1794 16.5716 60.187 17.406 60.187 18.7103V22.6353C60.187 23.0557 59.9212 23.3091 59.5441 23.3091C59.1733 23.3091 58.9198 23.068 58.9075 22.6724V22.1223H58.8766C58.4995 22.8455 57.6712 23.3029 56.8244 23.3029ZM57.1891 22.2459C58.1224 22.2459 58.858 21.6031 58.858 20.7562V20.2432L57.2509 20.3421C56.4535 20.3977 56.0023 20.7501 56.0023 21.3064C56.0023 21.875 56.4782 22.2459 57.1891 22.2459ZM62.3225 15.7062C61.896 15.7062 61.5498 15.36 61.5498 14.9397C61.5498 14.5132 61.896 14.1794 62.3225 14.1794C62.7552 14.1794 63.1013 14.5132 63.1013 14.9397C63.1013 15.36 62.7552 15.7062 62.3225 15.7062ZM62.3225 23.3091C61.9207 23.3091 61.6549 23.0309 61.6549 22.6044V17.2824C61.6549 16.8497 61.9207 16.5716 62.3225 16.5716C62.7242 16.5716 62.99 16.8497 62.99 17.2824V22.6044C62.99 23.0309 62.7242 23.3091 62.3225 23.3091ZM65.1997 23.3091C64.8103 23.3091 64.5321 23.0433 64.5321 22.6044V14.8594C64.5321 14.4205 64.8103 14.1547 65.1997 14.1547C65.5891 14.1547 65.8673 14.4205 65.8673 14.8594V22.6044C65.8673 23.0433 65.5891 23.3091 65.1997 23.3091Z" fill="#1A1A1A"/>
<g opacity="0.45">
<path d="M78.5412 23.3764C78.2384 23.3764 78.0406 23.1478 78.0406 22.8449V20.6755H75.9887C75.6858 20.6755 75.4571 20.4777 75.4571 20.1749C75.4571 19.872 75.6858 19.6743 75.9887 19.6743H78.0406V17.4987C78.0406 17.1959 78.2384 16.9672 78.5412 16.9672C78.8441 16.9672 79.0419 17.1959 79.0419 17.4987V19.6743H81.0877C81.3905 19.6743 81.6192 19.872 81.6192 20.1749C81.6192 20.4777 81.3905 20.6755 81.0877 20.6755H79.0419V22.8449C79.0419 23.1478 78.8441 23.3764 78.5412 23.3764ZM86.2823 23.84C84.9782 23.84 83.8781 23.191 83.4578 22.1836C83.3774 21.992 83.328 21.8189 83.328 21.5903C83.328 21.275 83.5319 21.0711 83.8472 21.0711C84.1191 21.0711 84.2674 21.1947 84.3663 21.5099C84.6383 22.3752 85.3367 22.8635 86.307 22.8635C87.5061 22.8635 88.3466 22.0167 88.3466 20.8053C88.3466 19.631 87.4937 18.7966 86.3009 18.7966C85.689 18.7966 85.1204 19.0253 84.7495 19.4209C84.354 19.8411 84.2613 19.8968 83.9831 19.8968C83.637 19.8968 83.4454 19.6434 83.4454 19.322C83.4454 19.2725 83.4454 19.2354 83.4516 19.1798L83.7668 15.6445C83.8224 15.0203 84.1129 14.7731 84.7681 14.7731H88.495C88.8102 14.7731 89.0203 14.9708 89.0203 15.2675C89.0203 15.5642 88.8102 15.762 88.495 15.762H84.7619L84.4776 18.6916H84.5023C84.904 18.1477 85.6395 17.8386 86.511 17.8386C88.2354 17.8386 89.4591 19.0562 89.4591 20.7744C89.4591 22.573 88.1488 23.84 86.2823 23.84ZM91.2545 23.6917C90.9269 23.6917 90.7168 23.5124 90.7168 23.2343C90.7168 23.0056 90.7662 22.9067 91.032 22.6286L93.8874 19.6495C95.0864 18.3949 95.3707 17.919 95.3707 17.1711C95.3707 16.2626 94.6723 15.5951 93.7143 15.5951C92.7502 15.5951 92.0765 16.0957 91.7736 17.0537C91.6995 17.2824 91.5759 17.4431 91.273 17.4431C90.9454 17.4431 90.76 17.2391 90.76 16.9486C90.76 16.8683 90.7662 16.8003 90.7786 16.7261C90.9084 15.8114 91.8911 14.6247 93.7143 14.6247C95.3213 14.6247 96.4832 15.6631 96.4832 17.1031C96.4832 18.0797 96.0382 18.8152 94.5116 20.3789L92.2743 22.678V22.7028H96.168C96.4832 22.7028 96.6934 22.9005 96.6934 23.1972C96.6934 23.4939 96.4832 23.6917 96.168 23.6917H91.2545ZM101.427 23.7782C101.106 23.7782 100.908 23.5742 100.908 23.2405V15.3788C100.908 14.9647 101.193 14.6865 101.619 14.6865C101.996 14.6865 102.225 14.8658 102.398 15.2799L105.278 22.2145H105.327L108.201 15.2799C108.374 14.872 108.615 14.6865 108.999 14.6865C109.419 14.6865 109.697 14.9585 109.697 15.3788V23.2405C109.697 23.5742 109.499 23.7782 109.178 23.7782C108.857 23.7782 108.659 23.5742 108.659 23.2405V16.8188H108.615L105.97 23.1478C105.828 23.4815 105.624 23.6298 105.303 23.6298C104.981 23.6298 104.771 23.4815 104.635 23.1601L101.99 16.8188H101.947V23.2405C101.947 23.5742 101.749 23.7782 101.427 23.7782ZM113.075 23.8029C111.795 23.8029 110.936 23.0303 110.936 21.8746C110.936 20.7744 111.783 20.0822 113.266 19.9957L115.114 19.8906V19.3529C115.114 18.5679 114.595 18.0982 113.705 18.0982C113.007 18.0982 112.531 18.3516 112.172 18.9882C112.073 19.1675 111.931 19.2478 111.727 19.2478C111.449 19.2478 111.251 19.0562 111.251 18.7657C111.251 18.6298 111.295 18.4752 111.381 18.3207C111.746 17.6161 112.685 17.1526 113.73 17.1526C115.238 17.1526 116.19 17.9684 116.19 19.2478V23.259C116.19 23.5804 115.98 23.8029 115.683 23.8029C115.38 23.8029 115.17 23.5804 115.17 23.259V22.5853H115.145C114.762 23.3208 113.94 23.8029 113.075 23.8029ZM113.316 22.8882C114.329 22.8882 115.114 22.1774 115.114 21.2503V20.725L113.39 20.83C112.525 20.8857 112.03 21.2689 112.03 21.8746C112.03 22.4864 112.543 22.8882 113.316 22.8882ZM118.275 16.1822C117.911 16.1822 117.608 15.8794 117.608 15.5147C117.608 15.1439 117.911 14.8472 118.275 14.8472C118.646 14.8472 118.949 15.1439 118.949 15.5147C118.949 15.8794 118.646 16.1822 118.275 16.1822ZM118.275 23.8029C117.96 23.8029 117.738 23.568 117.738 23.2281V17.7274C117.738 17.3875 117.96 17.1526 118.275 17.1526C118.591 17.1526 118.813 17.3875 118.813 17.7274V23.2281C118.813 23.568 118.591 23.8029 118.275 23.8029ZM120.986 23.8029C120.67 23.8029 120.448 23.568 120.448 23.2281V15.2366C120.448 14.8967 120.67 14.6618 120.986 14.6618C121.301 14.6618 121.523 14.8967 121.523 15.2366V23.2281C121.523 23.568 121.301 23.8029 120.986 23.8029ZM125.333 23.8029C124.19 23.8029 123.294 23.2899 122.985 22.4864C122.948 22.3937 122.935 22.3134 122.935 22.233C122.935 21.9487 123.146 21.788 123.424 21.788C123.615 21.788 123.77 21.8869 123.893 22.1094C124.215 22.6719 124.598 22.9253 125.42 22.9253C126.242 22.9253 126.798 22.5668 126.798 21.9673C126.798 21.5037 126.533 21.2565 125.809 21.0773L124.827 20.83C123.584 20.521 122.985 19.9339 122.985 19.0315C122.985 17.9128 123.968 17.1526 125.42 17.1526C126.477 17.1526 127.416 17.7459 127.583 18.5185C127.596 18.5803 127.602 18.6298 127.602 18.6792C127.602 18.9326 127.441 19.0995 127.181 19.0995C126.971 19.0995 126.823 19.0315 126.706 18.809C126.427 18.2713 126.013 18.0364 125.358 18.0364C124.586 18.0364 124.048 18.4258 124.048 18.9759C124.048 19.4209 124.394 19.7299 125.099 19.903L126.057 20.1378C127.398 20.4654 127.892 20.9351 127.892 21.8807C127.892 23.0303 126.86 23.8029 125.333 23.8029Z" fill="#6B6B68"/>
</g>
<defs>
<clipPath id="clip0_1772_27227">
<rect width="13.9779" height="13.9779" fill="white" transform="translate(13.4297 12.2026)"/>
</clipPath>
</defs>
</svg>
