<svg width="115" height="39" viewBox="0 0 115 39" fill="none" xmlns="http://www.w3.org/2000/svg">
<rect width="114.426" height="38.3834" rx="11.1917" fill="white"/>
<rect x="0.5" y="0.5" width="113.426" height="37.3834" rx="10.6917" stroke="#1A1A1A" stroke-opacity="0.08"/>
<g opacity="0.5" clip-path="url(#clip0_1772_27218)">
<path d="M19.663 25.0606C19.7909 25.0606 19.9891 24.9711 20.1234 24.888C20.6797 24.53 21.2295 24.1591 21.53 23.929C21.8305 23.6988 21.6962 23.3471 21.3318 23.3471H17.9942C17.6235 23.3471 17.4892 23.6988 17.7961 23.929C18.0902 24.1591 18.6401 24.53 19.1963 24.888C19.3369 24.9711 19.5288 25.0606 19.663 25.0606ZM16.1209 22.3881H23.2052C23.7102 22.3881 24.1258 21.9725 24.1258 21.4673C24.1258 20.9623 23.7102 20.5467 23.2052 20.5467H16.1209C15.6158 20.5467 15.2002 20.9623 15.2002 21.4673C15.2002 21.9725 15.6158 22.3881 16.1209 22.3881ZM14.5033 19.5876H24.8227C25.3279 19.5876 25.7434 19.172 25.7434 18.667C25.7434 18.1682 25.3279 17.7527 24.8227 17.7527H14.5033C13.9982 17.7527 13.5827 18.1682 13.5827 18.667C13.5827 19.172 13.9982 19.5876 14.5033 19.5876ZM14.0941 16.7936H25.2255C25.7754 16.7936 25.9736 16.4867 25.8649 16.0264C25.5261 14.5494 24.209 13.3218 22.4507 13.3218C21.1975 13.3218 20.2385 14.0124 19.663 15.0672C19.0876 14.0187 18.1222 13.3218 16.8754 13.3218C15.1171 13.3218 13.7936 14.5494 13.4612 16.0264C13.346 16.4867 13.5443 16.7936 14.0941 16.7936Z" fill="#FF1A66"/>
</g>
<path opacity="0.5" d="M34.4597 23.2906C34.027 23.2906 33.7674 23.0186 33.7674 22.5735V14.8903C33.7674 14.4452 34.027 14.1732 34.4597 14.1732C34.8862 14.1732 35.152 14.4452 35.152 14.8903V18.0427H39.7323V14.8903C39.7323 14.4452 39.9919 14.1732 40.4246 14.1732C40.8511 14.1732 41.1169 14.4452 41.1169 14.8903V22.5735C41.1169 23.0186 40.8511 23.2906 40.4246 23.2906C39.9919 23.2906 39.7323 23.0186 39.7323 22.5735V19.2418H35.152V22.5735C35.152 23.0186 34.8862 23.2906 34.4597 23.2906ZM43.5738 23.3091C43.1473 23.3091 42.8815 23.0371 42.8815 22.5921V14.9892C42.8815 14.5441 43.1411 14.2721 43.5738 14.2721H46.3368C48.1727 14.2721 49.3162 15.3353 49.3162 16.9981C49.3162 18.191 48.6857 19.1553 47.6163 19.5324L49.1246 22.1965C49.2358 22.3881 49.2729 22.5179 49.2729 22.6724C49.2729 23.0371 48.97 23.3091 48.5683 23.3091C48.2468 23.3091 48.0799 23.1917 47.876 22.827L46.2008 19.7611H44.2661V22.5921C44.2661 23.0371 43.9941 23.3091 43.5738 23.3091ZM44.2661 18.6423H46.207C47.2764 18.6423 47.8883 18.055 47.8883 17.0351C47.8883 16.04 47.2393 15.4342 46.1699 15.4342H44.2661V18.6423ZM54.0354 23.2906C53.5471 23.2906 53.269 23.0804 53.0835 22.5735L50.2711 15.187C50.2216 15.0448 50.1969 14.9212 50.1969 14.7975C50.1969 14.4267 50.4812 14.1732 50.9015 14.1732C51.2539 14.1732 51.4702 14.3339 51.5877 14.6925L54.0292 21.634H54.0663L56.5079 14.6863C56.6315 14.3216 56.8232 14.1732 57.1755 14.1732C57.5896 14.1732 57.8802 14.4328 57.8802 14.7914C57.8802 14.9088 57.8554 15.0324 57.806 15.1684L54.9873 22.5797C54.7957 23.0866 54.5237 23.2906 54.0354 23.2906Z" fill="#1A1A1A"/>
<g opacity="0.5">
<path d="M67.2004 20.5766C66.8976 20.5766 66.6689 20.3789 66.6689 20.076C66.6689 19.7732 66.8976 19.5754 67.2004 19.5754H70.3772C70.6801 19.5754 70.9088 19.7732 70.9088 20.076C70.9088 20.3789 70.6801 20.5766 70.3772 20.5766H67.2004ZM74.787 23.8029C74.4717 23.8029 74.2492 23.568 74.2492 23.2281V15.9906H74.2245L72.5558 17.1588C72.4322 17.2453 72.3147 17.2886 72.1787 17.2886C71.9192 17.2886 71.7399 17.1031 71.7399 16.8312C71.7399 16.6334 71.8141 16.5036 72.049 16.3368L73.9588 14.9708C74.3049 14.7236 74.4532 14.6618 74.7066 14.6618C75.0898 14.6618 75.3247 14.8967 75.3247 15.2861V23.2281C75.3247 23.568 75.1022 23.8029 74.787 23.8029ZM80.7851 23.84C78.9 23.84 77.5526 22.7707 77.5526 21.2812C77.5526 20.1687 78.319 19.254 79.4686 18.9882V18.9635C78.4859 18.6607 77.874 17.9066 77.874 16.9672C77.874 15.6198 79.1102 14.6247 80.7851 14.6247C82.4724 14.6247 83.69 15.6136 83.69 16.9734C83.69 17.9004 83.0904 18.6483 82.1016 18.9635V18.9882C83.2573 19.2602 84.0237 20.1749 84.0237 21.2812C84.0237 22.7769 82.6764 23.84 80.7851 23.84ZM80.7851 18.5494C81.842 18.5494 82.5898 17.9375 82.5898 17.0722C82.5898 16.1946 81.8482 15.5827 80.7851 15.5827C79.722 15.5827 78.9804 16.2008 78.9804 17.0722C78.9804 17.9375 79.722 18.5494 80.7851 18.5494ZM80.7851 22.8696C82.015 22.8696 82.8865 22.1712 82.8865 21.2009C82.8865 20.2182 82.015 19.5259 80.7851 19.5259C79.5613 19.5259 78.6837 20.2243 78.6837 21.2009C78.6837 22.1712 79.5613 22.8696 80.7851 22.8696ZM85.9488 23.8029C85.6213 23.8029 85.4111 23.5557 85.4111 23.2281V17.6965C85.4111 17.3751 85.6213 17.1526 85.9179 17.1526C86.2146 17.1526 86.4248 17.3751 86.4248 17.6965V18.2898H86.4495C86.7523 17.61 87.4075 17.1526 88.2727 17.1526C89.1504 17.1526 89.7994 17.5976 90.0775 18.3763H90.1022C90.4607 17.61 91.2147 17.1526 92.1171 17.1526C93.3903 17.1526 94.2123 17.9808 94.2123 19.254V23.2281C94.2123 23.5557 94.0021 23.8029 93.6746 23.8029C93.347 23.8029 93.1369 23.5557 93.1369 23.2281V19.5012C93.1369 18.6236 92.6486 18.1044 91.8019 18.1044C90.9489 18.1044 90.3494 18.7348 90.3494 19.6063V23.2281C90.3494 23.5557 90.1393 23.8029 89.8117 23.8029C89.4841 23.8029 89.274 23.5557 89.274 23.2281V19.3838C89.274 18.6112 88.7548 18.1044 87.9575 18.1044C87.1046 18.1044 86.4866 18.7719 86.4866 19.6619V23.2281C86.4866 23.5557 86.2764 23.8029 85.9488 23.8029ZM97.9422 23.8029C96.7987 23.8029 95.9026 23.2899 95.5935 22.4864C95.5564 22.3937 95.5441 22.3134 95.5441 22.233C95.5441 21.9487 95.7542 21.788 96.0323 21.788C96.2239 21.788 96.3785 21.8869 96.5021 22.1094C96.8235 22.6719 97.2067 22.9253 98.0287 22.9253C98.8507 22.9253 99.4069 22.5668 99.4069 21.9673C99.4069 21.5037 99.1412 21.2565 98.4181 21.0773L97.4353 20.83C96.193 20.521 95.5935 19.9339 95.5935 19.0315C95.5935 17.9128 96.5762 17.1526 98.0287 17.1526C99.0856 17.1526 100.025 17.7459 100.192 18.5185C100.204 18.5803 100.21 18.6298 100.21 18.6792C100.21 18.9326 100.05 19.0995 99.7901 19.0995C99.58 19.0995 99.4317 19.0315 99.3142 18.809C99.0361 18.2713 98.622 18.0364 97.9669 18.0364C97.1943 18.0364 96.6566 18.4258 96.6566 18.9759C96.6566 19.4209 97.0027 19.7299 97.7073 19.903L98.6653 20.1378C100.006 20.4654 100.501 20.9351 100.501 21.8807C100.501 23.0303 99.4688 23.8029 97.9422 23.8029Z" fill="#6B6B68"/>
</g>
<defs>
<clipPath id="clip0_1772_27218">
<rect width="12.4639" height="11.7389" fill="white" transform="matrix(1 0 0 -1 13.4297 25.061)"/>
</clipPath>
</defs>
</svg>
