<svg width="183" height="70" viewBox="0 0 183 70" fill="none" xmlns="http://www.w3.org/2000/svg">
<g clip-path="url(#clip0_1772_27281)">
<rect width="182.798" height="69.6374" rx="11.0213" fill="white"/>
<path opacity="0.5" d="M185.195 37.574L178.594 36.34C175.742 35.8071 173.521 33.5606 173.02 30.7035L170.838 18.2498C170.616 16.9863 168.994 16.596 168.222 17.6205C167.827 18.1445 167.132 18.3425 166.521 18.1054L165.797 17.8247C164.611 17.3651 163.27 17.871 162.683 18.9989L159.498 25.1221C158.057 27.8932 154.442 28.6561 152.004 26.7038C150.59 25.5715 148.671 25.301 146.999 25.9984L144.829 26.9035C144.356 27.1005 143.842 27.1767 143.333 27.1251C142.104 27.0008 140.921 27.6218 140.325 28.7031L135.816 36.8856C134.282 39.6703 131.493 41.5387 128.334 41.8985L127.173 42.0307C126.337 42.1259 125.49 42.014 124.707 41.7049L124.05 41.4455C122.37 40.782 120.453 41.2782 119.306 42.6738C117.807 44.4964 115.095 44.7105 113.329 43.1456L108.853 39.1797C107.508 37.9881 105.754 37.3639 103.959 37.4382L103.737 37.4474C102.364 37.5043 101.011 37.11 99.884 36.325L98.9859 35.6994C97.4688 34.6427 95.4682 34.5912 93.8987 35.5684C92.5965 36.3791 90.977 36.4914 89.5754 35.868L87.3694 34.887C85.9974 34.2769 84.4968 34.0127 82.999 34.1177L81.3011 34.2367C79.9175 34.3337 78.5274 34.1931 77.1912 33.8211L76.2859 33.5691C74.5403 33.0831 72.6894 33.1302 70.9708 33.7043C69.6344 34.1508 68.2125 34.2803 66.8174 34.0826L64.3852 33.7379C62.759 33.5074 61.1096 33.4927 59.4796 33.6942L46.3006 35.3231C43.3809 35.684 40.4172 35.3491 37.6516 34.3459L35.9689 33.7355C34.3055 33.1321 32.5497 32.8234 30.7803 32.8234H26.5812C25.0103 32.8234 23.511 32.1668 22.4457 31.0122L19.8445 28.1931C18.8959 27.1649 17.2565 27.2152 16.3725 28.2995C15.5173 29.3486 13.9453 29.4356 12.9794 28.4872L6.59065 22.2138C5.90052 21.5361 4.86012 21.3627 3.98748 21.7799L3.74386 21.8963C2.65101 22.4188 1.34569 21.887 0.929051 20.7496L0.433356 19.3964C-0.072014 18.0168 -2.03373 18.0472 -2.49608 19.4418" stroke="#FB943F" stroke-width="0.6549" stroke-linecap="round"/>
<rect x="7.53125" y="7.7998" width="90.585" height="22.1" rx="8.50002" fill="white"/>
<rect x="8.02866" y="8.29721" width="89.5902" height="21.1052" rx="8.00261" stroke="#1A1A1A" stroke-opacity="0.08" stroke-width="0.99482"/>
<g opacity="0.5" clip-path="url(#clip1_1772_27281)">
<path d="M18.803 23.4438C20.867 23.4438 22.2287 22.0463 22.2287 19.9537C22.2287 16.4635 19.2617 15.0087 17.2048 15.0087C16.8393 15.0087 16.6172 15.152 16.6172 15.3957C16.6172 15.496 16.653 15.5892 16.7318 15.6895C17.1905 16.2342 17.6563 16.8935 17.6635 17.6604C17.6635 17.7679 17.6563 17.861 17.6277 17.9614C17.4127 17.5027 17.0185 17.1945 16.6602 17.1945C16.5025 17.1945 16.3878 17.3164 16.3878 17.4884C16.3878 17.5815 16.4237 17.8252 16.4237 18.0044C16.4237 18.8715 15.75 19.3875 15.75 20.785C15.75 22.376 16.9612 23.4438 18.803 23.4438ZM18.8962 22.3473C18.1723 22.3473 17.685 21.903 17.685 21.2437C17.685 20.5628 18.1723 20.3192 18.2368 19.882C18.244 19.839 18.2655 19.8319 18.2942 19.8605C18.4733 20.011 18.5808 20.2117 18.6883 20.4339C18.8962 20.1544 18.9893 19.5667 18.9248 18.936C18.9177 18.8859 18.9392 18.8787 18.975 18.8859C19.835 19.2872 20.265 20.14 20.265 20.8925C20.265 21.6593 19.8278 22.3473 18.8962 22.3473Z" fill="#FFA705"/>
</g>
<path opacity="0.5" d="M28.7315 22.3499C28.3829 22.3499 28.1737 22.1307 28.1737 21.7721V15.6611C28.1737 15.3025 28.3829 15.0833 28.7315 15.0833C29.0752 15.0833 29.2894 15.3025 29.2894 15.6611V21.3836H32.198C32.5067 21.3836 32.7159 21.5729 32.7159 21.8667C32.7159 22.1606 32.5067 22.3499 32.198 22.3499H28.7315ZM35.6966 22.4495C34.1975 22.4495 33.2114 21.4185 33.2114 19.7301C33.2114 18.0467 34.2025 17.0158 35.6966 17.0158C37.1908 17.0158 38.1819 18.0467 38.1819 19.7301C38.1819 21.4185 37.1958 22.4495 35.6966 22.4495ZM35.6966 21.5629C36.5433 21.5629 37.0862 20.8956 37.0862 19.7301C37.0862 18.5697 36.5383 17.9023 35.6966 17.9023C34.8549 17.9023 34.3071 18.5697 34.3071 19.7301C34.3071 20.8956 34.8549 21.5629 35.6966 21.5629ZM40.6496 22.4395C39.6237 22.4395 38.9015 21.802 38.9015 20.8607C38.9015 19.9443 39.6087 19.3815 40.8489 19.3118L42.2882 19.2271V18.8237C42.2882 18.241 41.8948 17.8923 41.2373 17.8923C40.7194 17.8923 40.3757 18.0766 40.0769 18.5547C39.9673 18.7141 39.8279 18.7838 39.6386 18.7838C39.3696 18.7838 39.1754 18.6045 39.1754 18.3356C39.1754 18.226 39.2053 18.1065 39.27 17.987C39.544 17.3943 40.3359 17.0158 41.2772 17.0158C42.5472 17.0158 43.359 17.6881 43.359 18.739V21.9016C43.359 22.2403 43.1449 22.4445 42.841 22.4445C42.5422 22.4445 42.338 22.2502 42.3281 21.9315V21.4882H42.3032C41.9993 22.0709 41.332 22.4395 40.6496 22.4395ZM40.9435 21.5878C41.6955 21.5878 42.2882 21.0699 42.2882 20.3875V19.9742L40.9933 20.0539C40.3508 20.0987 39.9872 20.3826 39.9872 20.8308C39.9872 21.289 40.3707 21.5878 40.9435 21.5878ZM46.4742 22.4395C45.1494 22.4395 44.2728 21.3836 44.2728 19.7301C44.2728 18.0766 45.1494 17.0257 46.4642 17.0257C47.2163 17.0257 47.814 17.4042 48.1078 17.982H48.1277V15.6362C48.1277 15.2825 48.3519 15.0684 48.6706 15.0684C48.9844 15.0684 49.2085 15.2825 49.2085 15.6362V21.9066C49.2085 22.2453 48.9894 22.4445 48.6756 22.4445C48.3718 22.4445 48.1277 22.2453 48.1277 21.9066V21.4185H48.1128C47.8438 22.0311 47.291 22.4395 46.4742 22.4395ZM46.7581 21.5281C47.5849 21.5281 48.1377 20.8258 48.1377 19.7301C48.1377 18.6444 47.5849 17.9322 46.7581 17.9322C45.9064 17.9322 45.3735 18.6294 45.3735 19.7301C45.3735 20.8358 45.9064 21.5281 46.7581 21.5281Z" fill="#1A1A1A"/>
<path opacity="0.5" d="M57.3124 22.4395C57.0583 22.4395 56.8791 22.2502 56.8791 21.9763V16.1442H56.8591L55.5144 17.0855C55.4148 17.1552 55.3202 17.1901 55.2106 17.1901C55.0014 17.1901 54.857 17.0407 54.857 16.8215C54.857 16.6621 54.9167 16.5576 55.106 16.4231L56.645 15.3224C56.9239 15.1232 57.0434 15.0734 57.2476 15.0734C57.5564 15.0734 57.7457 15.2626 57.7457 15.5764V21.9763C57.7457 22.2502 57.5664 22.4395 57.3124 22.4395ZM61.9366 22.4395C61.6826 22.4395 61.5033 22.2502 61.5033 21.9763V16.1442H61.4834L60.1387 17.0855C60.0391 17.1552 59.9444 17.1901 59.8349 17.1901C59.6257 17.1901 59.4813 17.0407 59.4813 16.8215C59.4813 16.6621 59.541 16.5576 59.7303 16.4231L61.2692 15.3224C61.5482 15.1232 61.6677 15.0734 61.8719 15.0734C62.1807 15.0734 62.3699 15.2626 62.3699 15.5764V21.9763C62.3699 22.2502 62.1906 22.4395 61.9366 22.4395ZM64.1304 24.0781C63.9262 24.0781 63.7768 23.9536 63.7768 23.7543C63.7768 23.6946 63.7918 23.6298 63.8017 23.595L66.1973 15.3871C66.2571 15.178 66.3717 15.0734 66.5709 15.0734C66.7751 15.0734 66.9145 15.2078 66.9145 15.4021C66.9145 15.4419 66.9145 15.4718 66.8996 15.5316L64.484 23.7892C64.4293 23.9735 64.3097 24.0781 64.1304 24.0781ZM68.0973 22.3499C67.8333 22.3499 67.664 22.2054 67.664 21.9813C67.664 21.797 67.7038 21.7173 67.918 21.4932L70.219 19.0926C71.1852 18.0816 71.4143 17.6981 71.4143 17.0954C71.4143 16.3633 70.8515 15.8254 70.0795 15.8254C69.3026 15.8254 68.7597 16.2288 68.5157 17.0008C68.4559 17.1851 68.3563 17.3146 68.1122 17.3146C67.8483 17.3146 67.6989 17.1502 67.6989 16.9161C67.6989 16.8514 67.7038 16.7966 67.7138 16.7368C67.8184 15.9997 68.6103 15.0435 70.0795 15.0435C71.3744 15.0435 72.3108 15.8802 72.3108 17.0407C72.3108 17.8276 71.9522 18.4203 70.722 19.6803L68.9191 21.5331V21.553H72.0568C72.3108 21.553 72.4801 21.7124 72.4801 21.9514C72.4801 22.1905 72.3108 22.3499 72.0568 22.3499H68.0973ZM75.8294 22.4395C75.5754 22.4395 75.3961 22.2502 75.3961 21.9763V16.1442H75.3762L74.0314 17.0855C73.9318 17.1552 73.8372 17.1901 73.7276 17.1901C73.5184 17.1901 73.374 17.0407 73.374 16.8215C73.374 16.6621 73.4338 16.5576 73.623 16.4231L75.162 15.3224C75.4409 15.1232 75.5604 15.0734 75.7646 15.0734C76.0734 15.0734 76.2627 15.2626 76.2627 15.5764V21.9763C76.2627 22.2502 76.0834 22.4395 75.8294 22.4395Z" fill="#6B6B68"/>
<g opacity="0.5">
<rect width="11.9" height="11.9" rx="3.15303" transform="matrix(1 0 0 -1 81.2422 24.7998)" fill="#FB943F"/>
<path d="M90.0261 19.2857L87.1927 21.6831L84.3594 19.2857M87.1927 21.6831L87.1927 16.0164" stroke="white" stroke-width="0.736644" stroke-linecap="round" stroke-linejoin="round"/>
</g>
<rect x="103.734" y="7.7998" width="69.8924" height="22.1" rx="8.50002" fill="white"/>
<rect x="104.232" y="8.29721" width="68.8975" height="21.1052" rx="8.00261" stroke="#1A1A1A" stroke-opacity="0.08" stroke-width="0.99482"/>
<g opacity="0.5">
<rect x="108.938" y="12.2839" width="13.1316" height="13.1316" rx="6.56581" fill="#B5FF3E"/>
<rect x="109.166" y="12.5127" width="12.674" height="12.674" rx="6.33701" stroke="#1A1A1A" stroke-opacity="0.08" stroke-width="0.4576"/>
<g clip-path="url(#clip2_1772_27281)">
<path d="M114.385 18.7608C114.756 18.9168 114.972 19.1807 115.47 19.1807C116.052 19.1807 116.22 18.8208 116.736 18.6888L114.87 16.7515C114.72 16.5955 114.498 16.5775 114.325 16.7035L113.023 17.6272C112.801 17.7831 112.825 18.0171 112.957 18.161C113.059 18.281 113.251 18.329 113.437 18.197L114.492 17.4532L115.086 18.065C115.158 18.131 115.17 18.239 115.074 18.311L114.385 18.7608ZM117.216 18.287C117.618 18.287 117.935 17.9691 117.935 17.5672C117.935 17.1653 117.618 16.8474 117.216 16.8474C116.814 16.8474 116.49 17.1653 116.49 17.5672C116.49 17.9691 116.814 18.287 117.216 18.287ZM111.727 20.0744H112.069C112.975 20.0744 113.167 19.5286 113.767 19.5286C114.373 19.5286 114.564 20.0744 115.47 20.0744C116.376 20.0744 116.568 19.5286 117.174 19.5286C117.773 19.5286 117.965 20.0744 118.871 20.0744H119.213C119.321 20.0744 119.417 19.9844 119.417 19.8705C119.417 19.7625 119.321 19.6665 119.213 19.6665H118.871C118.253 19.6665 118.037 19.1207 117.174 19.1207C116.31 19.1207 116.088 19.6665 115.47 19.6665C114.846 19.6665 114.63 19.1207 113.767 19.1207C112.903 19.1207 112.687 19.6665 112.069 19.6665H111.727C111.619 19.6665 111.523 19.7625 111.523 19.8705C111.523 19.9844 111.619 20.0744 111.727 20.0744ZM113.653 20.4403C113.755 20.4403 113.845 20.3563 113.845 20.2484C113.845 20.1404 113.755 20.0564 113.653 20.0564C113.545 20.0564 113.461 20.1404 113.461 20.2484C113.461 20.3563 113.545 20.4403 113.653 20.4403ZM117.3 20.4403C117.408 20.4403 117.492 20.3563 117.492 20.2484C117.492 20.1404 117.408 20.0564 117.3 20.0564C117.192 20.0564 117.108 20.1404 117.108 20.2484C117.108 20.3563 117.192 20.4403 117.3 20.4403ZM113.023 20.5842C113.131 20.5842 113.215 20.5003 113.215 20.3923C113.215 20.2843 113.131 20.2004 113.023 20.2004C112.921 20.2004 112.831 20.2843 112.831 20.3923C112.831 20.5003 112.921 20.5842 113.023 20.5842ZM114.277 20.5842C114.385 20.5842 114.469 20.5003 114.469 20.3923C114.469 20.2843 114.385 20.2004 114.277 20.2004C114.169 20.2004 114.085 20.2843 114.085 20.3923C114.085 20.5003 114.169 20.5842 114.277 20.5842ZM117.923 20.5842C118.031 20.5842 118.115 20.5003 118.115 20.3923C118.115 20.2843 118.031 20.2004 117.923 20.2004C117.821 20.2004 117.731 20.2843 117.731 20.3923C117.731 20.5003 117.821 20.5842 117.923 20.5842ZM116.676 20.5842C116.784 20.5842 116.868 20.5003 116.868 20.3923C116.868 20.2843 116.784 20.2004 116.676 20.2004C116.568 20.2004 116.484 20.2843 116.484 20.3923C116.484 20.5003 116.568 20.5842 116.676 20.5842ZM112.435 20.8602C112.543 20.8602 112.627 20.7762 112.627 20.6682C112.627 20.5603 112.543 20.4763 112.435 20.4763C112.333 20.4763 112.243 20.5603 112.243 20.6682C112.243 20.7762 112.333 20.8602 112.435 20.8602ZM114.858 20.8602C114.966 20.8602 115.05 20.7762 115.05 20.6682C115.05 20.5603 114.966 20.4763 114.858 20.4763C114.756 20.4763 114.666 20.5603 114.666 20.6682C114.666 20.7762 114.756 20.8602 114.858 20.8602ZM118.511 20.8602C118.619 20.8602 118.703 20.7762 118.703 20.6682C118.703 20.5603 118.619 20.4763 118.511 20.4763C118.409 20.4763 118.319 20.5603 118.319 20.6682C118.319 20.7762 118.409 20.8602 118.511 20.8602ZM116.088 20.8602C116.196 20.8602 116.28 20.7762 116.28 20.6682C116.28 20.5603 116.196 20.4763 116.088 20.4763C115.986 20.4763 115.902 20.5603 115.902 20.6682C115.902 20.7762 115.986 20.8602 116.088 20.8602ZM111.817 20.9741C111.925 20.9741 112.009 20.8901 112.009 20.7822C112.009 20.6742 111.925 20.5902 111.817 20.5902C111.715 20.5902 111.625 20.6742 111.625 20.7822C111.625 20.8901 111.715 20.9741 111.817 20.9741ZM119.129 20.9741C119.237 20.9741 119.321 20.8901 119.321 20.7822C119.321 20.6742 119.237 20.5902 119.129 20.5902C119.027 20.5902 118.943 20.6742 118.943 20.7822C118.943 20.8901 119.027 20.9741 119.129 20.9741ZM115.476 20.9741C115.584 20.9741 115.668 20.8901 115.668 20.7822C115.668 20.6742 115.584 20.5902 115.476 20.5902C115.368 20.5902 115.284 20.6742 115.284 20.7822C115.284 20.8901 115.368 20.9741 115.476 20.9741Z" fill="#1A1A1A"/>
</g>
<rect x="118.562" y="12.2839" width="13.1316" height="13.1316" rx="6.56581" fill="#B5FF3E"/>
<rect x="118.791" y="12.5127" width="12.674" height="12.674" rx="6.33701" stroke="#1A1A1A" stroke-opacity="0.08" stroke-width="0.4576"/>
<g clip-path="url(#clip3_1772_27281)">
<path d="M125.097 16.5791C125.457 16.5791 125.748 16.2885 125.748 15.9216C125.748 15.5618 125.457 15.2711 125.097 15.2711C124.73 15.2711 124.44 15.5618 124.44 15.9216C124.44 16.2885 124.73 16.5791 125.097 16.5791ZM122.149 20.2818H122.301C122.419 20.2818 122.509 20.1918 122.509 20.0673V19.4721H122.979L122.952 19.5205C122.875 19.6728 122.945 19.8527 123.083 19.9219C123.235 20.005 123.415 19.9358 123.485 19.7904L123.644 19.4721H126.55L126.703 19.7904C126.772 19.9358 126.959 20.005 127.104 19.9219C127.249 19.8527 127.312 19.6728 127.236 19.5205L127.215 19.4721H127.679V20.0673C127.679 20.1918 127.769 20.2818 127.886 20.2818H128.045C128.17 20.2818 128.253 20.1918 128.253 20.0673V19.4721H128.502C128.62 19.4721 128.703 19.3821 128.703 19.2714C128.703 19.1537 128.62 19.0706 128.502 19.0706H128.253V18.4755C128.253 18.3509 128.17 18.2678 128.045 18.2678H127.886C127.769 18.2678 127.679 18.3509 127.679 18.4755V19.0706H127.014L126.142 17.292C126.011 17.029 125.761 16.8767 125.457 16.8767H124.737C124.433 16.8767 124.184 17.029 124.052 17.292L123.173 19.0706H122.509V18.4755C122.509 18.3509 122.419 18.2678 122.301 18.2678H122.149C122.017 18.2678 121.934 18.3509 121.934 18.4755V19.0706H121.685C121.574 19.0706 121.484 19.1537 121.484 19.2714C121.484 19.3821 121.574 19.4721 121.685 19.4721H121.934V20.0673C121.934 20.1918 122.017 20.2818 122.149 20.2818ZM124.44 18.7938H125.755V18.1017C125.755 18.0533 125.831 18.0256 125.865 18.0948L126.35 19.0706H123.844L124.329 18.0948C124.363 18.0256 124.44 18.0464 124.44 18.1017V18.7938ZM123.879 22.5103C124.024 22.5449 124.184 22.4688 124.232 22.2612L124.516 20.9739L125.097 19.9219L125.678 20.9739L125.955 22.2612C126.004 22.4757 126.177 22.5449 126.329 22.5103C126.467 22.4688 126.578 22.3373 126.537 22.1297L126.253 20.8009C126.246 20.7801 126.246 20.7593 126.239 20.7317L125.893 19.7489H124.308L123.955 20.7317C123.941 20.7593 123.941 20.7801 123.934 20.8009L123.651 22.1297C123.602 22.3442 123.734 22.4826 123.879 22.5103Z" fill="#1A1A1A"/>
</g>
</g>
<path opacity="0.5" d="M138.486 22.4421C138.17 22.4421 137.952 22.2187 137.952 21.8884V16.4431H137.927L136.718 17.2883C136.611 17.366 136.514 17.4 136.392 17.4C136.154 17.4 135.984 17.23 135.984 16.9823C135.984 16.8026 136.052 16.6763 136.256 16.5354L137.714 15.5008C138.01 15.2919 138.17 15.2482 138.403 15.2482C138.787 15.2482 139.015 15.4765 139.015 15.8554V21.8884C139.015 22.2187 138.797 22.4421 138.486 22.4421ZM141.369 22.4421C141.063 22.4421 140.844 22.2333 140.844 21.8884V15.7922C140.844 15.4619 141.043 15.2482 141.364 15.2482C141.689 15.2482 141.884 15.4619 141.884 15.7922V18.0947H141.908C142.19 17.4972 142.748 17.1523 143.526 17.1523C144.648 17.1523 145.318 17.9004 145.318 19.0565V21.8884C145.318 22.2333 145.099 22.4421 144.789 22.4421C144.483 22.4421 144.264 22.2333 144.264 21.8884V19.2605C144.264 18.5076 143.885 18.0558 143.147 18.0558C142.369 18.0558 141.893 18.5901 141.893 19.3965V21.8884C141.893 22.2333 141.675 22.4421 141.369 22.4421ZM151.025 22.481C149.874 22.481 149.092 22.0341 148.703 21.3249C148.606 21.1452 148.563 20.9752 148.563 20.8003C148.563 20.5089 148.747 20.3194 149.053 20.3194C149.286 20.3194 149.422 20.4263 149.534 20.6789C149.772 21.2375 150.229 21.5727 151.03 21.5727C151.88 21.5727 152.453 21.0869 152.458 20.4068C152.463 19.6054 151.885 19.1585 150.948 19.1585H150.481C150.204 19.1585 150.03 18.9885 150.03 18.7359C150.03 18.4833 150.204 18.3133 150.481 18.3133H150.919C151.72 18.3133 152.264 17.8372 152.264 17.1863C152.264 16.5354 151.846 16.1031 151.016 16.1031C150.306 16.1031 149.908 16.3994 149.665 16.9823C149.549 17.264 149.432 17.366 149.175 17.366C148.869 17.366 148.703 17.1912 148.703 16.8997C148.703 16.7103 148.742 16.55 148.835 16.3702C149.184 15.6756 149.947 15.2093 151.016 15.2093C152.444 15.2093 153.323 15.9914 153.323 17.0357C153.323 17.9101 152.706 18.5027 151.846 18.6824V18.7067C152.876 18.799 153.566 19.4256 153.566 20.4068C153.566 21.6407 152.488 22.481 151.025 22.481ZM157.206 22.481C156.152 22.481 155.249 21.9661 154.914 21.1938C154.846 21.0432 154.807 20.8975 154.807 20.7226C154.807 20.4263 154.991 20.2465 155.288 20.2465C155.526 20.2465 155.667 20.3437 155.778 20.5963C156.007 21.2132 156.507 21.5678 157.221 21.5678C158.1 21.5678 158.717 20.946 158.717 20.0668C158.717 19.207 158.095 18.5998 157.221 18.5998C156.76 18.5998 156.347 18.7796 156.075 19.0613C155.774 19.3722 155.672 19.4256 155.414 19.4256C155.069 19.4256 154.889 19.1779 154.899 18.8719C154.899 18.8427 154.899 18.8184 154.899 18.7796L155.132 16.0788C155.181 15.5493 155.433 15.3405 155.968 15.3405H158.95C159.242 15.3405 159.431 15.5202 159.431 15.7971C159.431 16.0739 159.242 16.2585 158.95 16.2585H156.075L155.876 18.4347H155.895C156.201 17.9975 156.779 17.7401 157.474 17.7401C158.824 17.7401 159.781 18.6921 159.781 20.0377C159.781 21.4804 158.722 22.481 157.206 22.481ZM161.265 22.4421C160.949 22.4421 160.74 22.2236 160.74 21.8884V17.6818C160.74 17.3515 160.944 17.1475 161.241 17.1475C161.532 17.1475 161.741 17.3466 161.741 17.6818V18.0995H161.765C161.993 17.5312 162.528 17.1523 163.218 17.1523C163.927 17.1523 164.442 17.5166 164.646 18.153H164.67C164.932 17.5312 165.535 17.1523 166.263 17.1523C167.274 17.1523 167.934 17.8226 167.934 18.8379V21.8884C167.934 22.2236 167.72 22.4421 167.405 22.4421C167.089 22.4421 166.88 22.2236 166.88 21.8884V19.0905C166.88 18.4298 166.526 18.0509 165.904 18.0509C165.282 18.0509 164.85 18.5124 164.85 19.1585V21.8884C164.85 22.2236 164.651 22.4421 164.335 22.4421C164.019 22.4421 163.82 22.2236 163.82 21.8884V19.0127C163.82 18.425 163.446 18.0509 162.853 18.0509C162.231 18.0509 161.789 18.5367 161.789 19.1925V21.8884C161.789 22.2236 161.581 22.4421 161.265 22.4421Z" fill="#1A1A1A"/>
<g opacity="0.5">
<rect x="8.69531" y="53.4717" width="75.855" height="7.46115" rx="2.48705" fill="#29ADFF"/>
<rect x="9.00619" y="53.7826" width="75.2332" height="6.83939" rx="2.17617" stroke="#1A1A1A" stroke-opacity="0.08" stroke-width="0.621762"/>
<rect x="87.0391" y="53.4717" width="47.2539" height="7.46115" rx="2.48705" fill="#00FFEC"/>
<rect x="87.3499" y="53.7826" width="46.6322" height="6.83939" rx="2.17617" stroke="#1A1A1A" stroke-opacity="0.08" stroke-width="0.621762"/>
<rect x="136.781" y="53.4717" width="9.9482" height="7.46115" rx="2.48705" fill="#ABFF00"/>
<rect x="137.092" y="53.7826" width="9.32644" height="6.83939" rx="2.17617" stroke="#1A1A1A" stroke-opacity="0.08" stroke-width="0.621762"/>
<rect x="149.219" y="53.4717" width="16.1658" height="7.46115" rx="2.48705" fill="#FF7200"/>
<rect x="149.53" y="53.7826" width="15.5441" height="6.83939" rx="2.17617" stroke="#1A1A1A" stroke-opacity="0.08" stroke-width="0.621762"/>
<rect x="167.867" y="53.4717" width="6.21762" height="7.46115" rx="2.48705" fill="#FF006D"/>
<rect x="168.178" y="53.7826" width="5.59586" height="6.83939" rx="2.17617" stroke="#1A1A1A" stroke-opacity="0.08" stroke-width="0.621762"/>
</g>
</g>
<rect x="0.5" y="0.5" width="181.798" height="68.6374" rx="10.5213" stroke="#1A1A1A" stroke-opacity="0.08"/>
<defs>
<clipPath id="clip0_1772_27281">
<rect width="182.798" height="69.6374" rx="11.0213" fill="white"/>
</clipPath>
<clipPath id="clip1_1772_27281">
<rect width="8.05804" height="9.0653" fill="white" transform="translate(14.9922 14.3171)"/>
</clipPath>
<clipPath id="clip2_1772_27281">
<rect width="8.2351" height="5.28522" fill="white" transform="translate(111.383 16.207)"/>
</clipPath>
<clipPath id="clip3_1772_27281">
<rect width="7.51654" height="7.80018" fill="white" transform="translate(121.367 14.9497)"/>
</clipPath>
</defs>
</svg>
