<svg width="162" height="70" viewBox="0 0 162 70" fill="none" xmlns="http://www.w3.org/2000/svg">
<g clip-path="url(#clip0_1772_27308)">
<rect width="161.658" height="69.6374" rx="11.0213" fill="white"/>
<g opacity="0.5">
<mask id="mask0_1772_27308" style="mask-type:alpha" maskUnits="userSpaceOnUse" x="0" y="23" width="163" height="40">
<path d="M0.34375 34.9521L3.14521 39.9507L5.02442 44.6434L7.42759 45.5002L9.61228 40.7411L12.4524 45.7572L15.2925 42.8831L19.6619 48.4133L21.8466 48.1562L28.8319 49.855L33.8624 45.5391L35.0535 55.9607L38.6554 53.2216L43.2566 60.6341L45.8783 55.2753L46.7521 60.2914L49.8107 55.5324L51.1215 56.3035L52.8693 55.5324L54.1801 56.3035L57.8941 54.5899L59.4234 46.8869L60.9527 60.0344L62.7004 54.9326L64.2297 59.606L65.3221 54.5899H68.1622V46.8869L70.3469 55.5324L71.8761 49.0289L74.2793 50.9996L79.5867 48.4376L81.2703 23.6265L82.5337 27.9571L84.3309 26.1578L87.6065 42.4206L90.8835 35.6442L93.5046 38.4675L94.8155 38.1248L98.5295 55.5324L102.025 56.5605L104.21 54.3329L106.394 61.1949L110.982 50.6954L113.385 50.9525L115.789 46.6296L117.973 50.1424L121.032 46.6296L123.872 47.1437L126.494 45.2587L128.678 47.1437L131.955 45.9442L141.35 48.9429L145.282 45.2587H149.651L152.491 37.3093L154.021 42.154L158.39 31.0734L160.138 33.2312L161.449 23.9859L162.104 29.0877" stroke="#FB943F" stroke-width="0.6549" stroke-linecap="round"/>
</mask>
<g mask="url(#mask0_1772_27308)">
<rect x="0.453125" y="17.2527" width="161.76" height="12.0486" fill="#FF7C25"/>
<rect x="0.453125" y="29.3013" width="161.76" height="12.0486" fill="#07BEA6"/>
<rect x="0.453125" y="41.3499" width="161.76" height="12.0486" fill="#FF60FA"/>
<rect x="0.453125" y="53.3994" width="161.76" height="12.0486" fill="#3485FF"/>
</g>
</g>
<rect x="7.42188" y="7.46094" width="82.2966" height="22.1001" rx="8.50002" fill="white"/>
<rect x="7.92786" y="7.96693" width="81.2847" height="21.0881" rx="7.99404" stroke="#1A1A1A" stroke-opacity="0.08" stroke-width="1.01198"/>
<g opacity="0.5" clip-path="url(#clip1_1772_27308)">
<path d="M14.2188 22.1928C14.2188 22.4452 14.3789 22.6054 14.6313 22.6054H14.9224C15.1698 22.6054 15.3349 22.4452 15.3349 22.1928V21.4747C15.3882 21.4892 15.5484 21.4989 15.6648 21.4989H25.0692C25.1857 21.4989 25.3459 21.4892 25.3992 21.4747V22.1928C25.3992 22.4452 25.5642 22.6054 25.8117 22.6054H26.1029C26.3552 22.6054 26.5153 22.4452 26.5153 22.1928V19.3007C26.5153 18.3738 26.001 17.8643 25.0741 17.8643H15.66C14.7332 17.8643 14.2188 18.3738 14.2188 19.3007V22.1928ZM15.3834 17.1704H16.6159V16.4716C16.6159 16.0203 16.8683 15.7728 17.3293 15.7728H19.1393C19.5955 15.7728 19.8478 16.0203 19.8478 16.4716V17.1704H20.9494V16.4716C20.9494 16.0203 21.2017 15.7728 21.6869 15.7728H23.3854C23.8707 15.7728 24.123 16.0203 24.123 16.4716V17.1704H25.3604V15.7777C25.3604 14.8799 24.8751 14.4189 24.0017 14.4189H16.7372C15.8638 14.4189 15.3834 14.8799 15.3834 15.7777V17.1704Z" fill="#8635F8"/>
</g>
<path opacity="0.5" d="M34.2709 22.1056C33.9621 22.1056 33.7579 21.9164 33.7579 21.6524C33.7579 21.5229 33.7878 21.4283 33.8575 21.2938L36.7462 15.7904V15.7655H33.3993C33.1104 15.7655 32.9012 15.5812 32.9012 15.2923C32.9012 15.0084 33.1104 14.8241 33.3993 14.8241H37.2093C37.6277 14.8241 37.8917 15.0632 37.8917 15.4666C37.8917 15.6758 37.8219 15.8501 37.6676 16.1539L34.7739 21.7819C34.6544 22.016 34.5149 22.1056 34.2709 22.1056ZM39.4828 22.1056C39.1691 22.1056 38.9449 21.8915 38.9449 21.5378V15.2873C38.9449 14.9487 39.1491 14.7295 39.4779 14.7295C39.8115 14.7295 40.0108 14.9487 40.0108 15.2873V17.6481H40.0357C40.3245 17.0355 40.8973 16.6819 41.6942 16.6819C42.8447 16.6819 43.532 17.4489 43.532 18.6342V21.5378C43.532 21.8915 43.3078 22.1056 42.9891 22.1056C42.6753 22.1056 42.4512 21.8915 42.4512 21.5378V18.8434C42.4512 18.0714 42.0627 17.6082 41.3057 17.6082C40.5088 17.6082 40.0207 18.1561 40.0207 18.9829V21.5378C40.0207 21.8915 39.7966 22.1056 39.4828 22.1056ZM50.8232 22.1056C50.5144 22.1056 50.2903 21.8915 50.2903 21.5478V20.5816H47.3319C46.9334 20.5816 46.6794 20.3326 46.6794 19.9491C46.6794 19.6951 46.7392 19.4958 46.9285 19.1671C47.4365 18.2557 48.328 16.9209 49.2543 15.5762C49.6926 14.9287 49.9765 14.7295 50.4447 14.7295C51.0274 14.7295 51.3611 15.0333 51.3611 15.5712V19.6453H51.9289C52.2227 19.6453 52.417 19.8345 52.417 20.1134C52.417 20.3923 52.2227 20.5816 51.9289 20.5816H51.3611V21.5478C51.3611 21.8915 51.137 22.1056 50.8232 22.1056ZM50.3002 19.6602V15.7157H50.2803C49.0601 17.4638 48.3081 18.5894 47.7253 19.6303V19.6602H50.3002ZM55.9206 22.1455C54.1874 22.1455 53.1664 20.7011 53.1664 18.4101C53.1664 16.134 54.2024 14.6897 55.9206 14.6897C57.6389 14.6897 58.6649 16.129 58.6649 18.4051C58.6649 20.6961 57.6488 22.1455 55.9206 22.1455ZM55.9206 21.2091C56.9566 21.2091 57.5393 20.1533 57.5393 18.4101C57.5393 16.6918 56.9466 15.626 55.9206 15.626C54.8946 15.626 54.297 16.6968 54.297 18.4101C54.297 20.1483 54.8797 21.2091 55.9206 21.2091ZM60.271 22.1056C59.9472 22.1056 59.7331 21.8815 59.7331 21.5378V17.2247C59.7331 16.8861 59.9423 16.6769 60.2461 16.6769C60.5449 16.6769 60.7591 16.8811 60.7591 17.2247V17.6531H60.784C61.018 17.0703 61.5659 16.6819 62.2731 16.6819C63.0003 16.6819 63.5282 17.0554 63.7374 17.7078H63.7623C64.0312 17.0703 64.6488 16.6819 65.3959 16.6819C66.4318 16.6819 67.1092 17.3692 67.1092 18.4101V21.5378C67.1092 21.8815 66.89 22.1056 66.5663 22.1056C66.2426 22.1056 66.0284 21.8815 66.0284 21.5378V18.6691C66.0284 17.9917 65.6648 17.6033 65.0273 17.6033C64.3898 17.6033 63.9466 18.0764 63.9466 18.7388V21.5378C63.9466 21.8815 63.7424 22.1056 63.4186 22.1056C63.0949 22.1056 62.8907 21.8815 62.8907 21.5378V18.5894C62.8907 17.9868 62.5072 17.6033 61.8996 17.6033C61.2621 17.6033 60.8089 18.1013 60.8089 18.7737V21.5378C60.8089 21.8815 60.5947 22.1056 60.271 22.1056Z" fill="#1A1A1A"/>
<g opacity="0.5">
<rect width="11.9" height="11.9" rx="3.15303" transform="matrix(1 0 0 -1 72.7188 24.4609)" fill="#FB943F"/>
<path d="M81.5026 18.9468L78.6693 21.3442L75.8359 18.9468M78.6693 21.3442L78.6692 15.6776" stroke="white" stroke-width="0.736644" stroke-linecap="round" stroke-linejoin="round"/>
</g>
</g>
<rect x="0.5" y="0.5" width="160.658" height="68.6374" rx="10.5213" stroke="#1A1A1A" stroke-opacity="0.08"/>
<defs>
<clipPath id="clip0_1772_27308">
<rect width="161.658" height="69.6374" rx="11.0213" fill="white"/>
</clipPath>
<clipPath id="clip1_1772_27308">
<rect width="12.2966" height="8.18641" fill="white" transform="matrix(1 0 0 -1 14.2188 22.6042)"/>
</clipPath>
</defs>
</svg>
