<svg width="108" height="39" viewBox="0 0 108 39" fill="none" xmlns="http://www.w3.org/2000/svg">
<g clip-path="url(#clip0_1772_27375)">
<rect width="107.065" height="38.4429" rx="19.2214" fill="white"/>
<g opacity="0.5">
<g filter="url(#filter0_d_1772_27375)">
<rect width="25.6316" height="25.6316" rx="12.8158" transform="matrix(-1 0 0 1 32.2344 6.2583)" fill="#00D0FF"/>
<rect x="-0.39228" y="0.39228" width="24.847" height="24.847" rx="12.4235" transform="matrix(-1 0 0 1 31.4498 6.2583)" stroke="#1A1A1A" stroke-opacity="0.08" stroke-width="0.78456"/>
<path d="M15.2782 24.4621C13.414 24.4621 12.0844 23.578 11.7486 22.3306C11.7075 22.2004 11.6869 22.077 11.6869 21.9537C11.6869 21.6521 11.8514 21.4602 12.1187 21.4602C12.3586 21.4602 12.5094 21.5836 12.5711 21.844C12.8246 22.9817 13.9075 23.6122 15.3262 23.6122C16.8134 23.6122 17.8689 22.8241 17.8689 21.7001C17.8689 20.768 17.252 20.206 15.7306 19.8565L14.6545 19.6166C12.6944 19.178 11.872 18.335 11.872 16.9711C11.872 15.3742 13.3112 14.2571 15.2508 14.2571C16.8888 14.2571 18.2184 15.0932 18.5542 16.3954C18.5748 16.4777 18.5816 16.5736 18.5816 16.6901C18.5816 16.9506 18.4103 17.1219 18.1567 17.1219C17.91 17.1219 17.7661 16.9917 17.6907 16.7449C17.4097 15.6895 16.4639 15.1069 15.2234 15.1069C13.8869 15.1069 12.8315 15.806 12.8315 16.93C12.8315 17.8278 13.4415 18.3967 14.9081 18.7256L15.9841 18.9724C18.0128 19.4316 18.8284 20.1992 18.8284 21.5767C18.8284 23.3312 17.4165 24.4621 15.2782 24.4621ZM20.8055 24.4004C20.5176 24.4004 20.3394 24.2153 20.3394 23.9138V14.9013C20.3394 14.5998 20.5176 14.4147 20.8055 14.4147H23.7046C25.5961 14.4147 26.8778 15.6552 26.8778 17.492C26.8778 19.3287 25.5824 20.5761 23.6977 20.5761H21.2715V23.9138C21.2715 24.2153 21.0933 24.4004 20.8055 24.4004ZM21.2715 19.74H23.4852C25.0067 19.74 25.9183 18.897 25.9183 17.492C25.9183 16.087 25.0136 15.2509 23.4852 15.2509H21.2715V19.74Z" fill="white"/>
</g>
<g filter="url(#filter1_d_1772_27375)">
<rect width="10.393" height="10.393" rx="5.1965" transform="matrix(-1 0 0 1 34.5312 22.0107)" fill="white"/>
<rect x="-0.253617" y="0.253617" width="9.88576" height="9.88576" rx="4.94288" transform="matrix(-1 0 0 1 34.024 22.0107)" stroke="#1A1A1A" stroke-opacity="0.08" stroke-width="0.507234"/>
<g clip-path="url(#clip1_1772_27375)">
<mask id="mask0_1772_27375" style="mask-type:luminance" maskUnits="userSpaceOnUse" x="26" y="25" width="7" height="5">
<path d="M32.1296 25.03H26.5547V29.3791H32.1296V25.03Z" fill="white"/>
</mask>
<g mask="url(#mask0_1772_27375)">
<path d="M26.9348 29.3791H27.8217V27.2252L26.5547 26.2749V28.999C26.5547 29.209 26.7248 29.3791 26.9348 29.3791V29.3791Z" fill="#4285F4"/>
<path d="M30.8594 29.3791H31.7463C31.9563 29.3791 32.1264 29.209 32.1264 28.999V26.2749L30.8594 27.2252V29.3791Z" fill="#34A853"/>
<path d="M30.8594 25.5779V27.225L32.1264 26.2748V25.768C32.1264 25.2982 31.5901 25.0299 31.2141 25.3118L30.8594 25.5779Z" fill="#FBBC04"/>
<path fill-rule="evenodd" clip-rule="evenodd" d="M27.8203 27.2248V25.5776L29.3407 26.718L30.8612 25.5776V27.2248L29.3407 28.3651L27.8203 27.2248Z" fill="#EA4335"/>
<path d="M26.5547 25.768V26.2748L27.8217 27.225V25.5779L27.4669 25.3118C27.0909 25.0299 26.5547 25.2982 26.5547 25.768Z" fill="#C5221F"/>
</g>
</g>
</g>
<path d="M41.9038 22.8202C40.8818 22.8202 40.1314 22.4005 39.8845 21.7636C39.8499 21.6846 39.8401 21.6106 39.8401 21.5414C39.8401 21.2748 40.0326 21.1168 40.2992 21.1168C40.477 21.1168 40.63 21.2008 40.7633 21.3983C41.0299 21.8179 41.341 22.0055 41.9581 22.0055C42.5654 22.0055 42.9752 21.7439 42.9752 21.3143C42.9752 20.9737 42.7728 20.791 42.2149 20.6577L41.3953 20.4651C40.3881 20.2282 39.8944 19.7344 39.8944 18.9939C39.8944 18.0558 40.709 17.4337 41.9433 17.4337C42.8814 17.4337 43.6516 17.9126 43.7997 18.5248C43.8096 18.5841 43.8195 18.6334 43.8195 18.6828C43.8195 18.9198 43.6713 19.0778 43.4047 19.0778C43.2319 19.0778 43.0789 19.0185 42.9752 18.8507C42.7431 18.4557 42.4272 18.2483 41.9038 18.2483C41.3311 18.2483 40.9361 18.5298 40.9361 18.9346C40.9361 19.2605 41.1879 19.4876 41.736 19.6159L42.5407 19.8036C43.6318 20.0554 44.0515 20.4454 44.0515 21.2156C44.0515 22.1783 43.1875 22.8202 41.9038 22.8202ZM45.5103 24.563C45.1944 24.563 44.9771 24.3458 44.9771 23.9952V17.9817C44.9771 17.6411 45.1894 17.4337 45.4906 17.4337C45.7918 17.4337 46.009 17.6411 46.009 17.9817V18.4211H46.0287C46.3349 17.8237 46.9323 17.4436 47.6827 17.4436C49.0009 17.4436 49.8699 18.4804 49.8699 20.1245C49.8699 21.7686 49.0059 22.8103 47.7025 22.8103C46.9569 22.8103 46.3645 22.445 46.0682 21.8673H46.0436V23.9952C46.0436 24.3458 45.8214 24.563 45.5103 24.563ZM47.4013 21.9068C48.2455 21.9068 48.7738 21.2156 48.7738 20.1245C48.7738 19.0383 48.2455 18.3421 47.4013 18.3421C46.5866 18.3421 46.0386 19.0531 46.0386 20.1245C46.0386 21.2057 46.5817 21.9068 47.4013 21.9068ZM50.7215 19.7591C50.7215 17.2411 52.41 15.6069 54.8489 15.6069C57.1447 15.6069 58.7987 17.0535 58.7987 19.3049C58.7987 20.7811 58.0877 21.8426 56.9374 21.8426C56.3252 21.8426 55.8611 21.5513 55.7722 21.0527H55.7228C55.5056 21.5563 55.0612 21.8426 54.4885 21.8426C53.4715 21.8426 52.7753 20.9934 52.7753 19.7542C52.7753 18.5347 53.4715 17.7052 54.454 17.7052C54.9971 17.7052 55.4562 17.957 55.6586 18.3965H55.708V18.1496C55.708 17.8731 55.8709 17.7052 56.1326 17.7052C56.3992 17.7052 56.5572 17.8731 56.5572 18.1496V20.5984C56.5572 20.9342 56.7498 21.1267 57.1052 21.1267C57.6533 21.1267 58.0285 20.401 58.0285 19.3641C58.0285 17.3745 56.6016 16.2932 54.8391 16.2932C52.8198 16.2932 51.4917 17.7201 51.4917 19.7887C51.4917 21.9265 52.9234 23.1608 55.0464 23.1608C55.5303 23.1608 55.8709 23.0917 56.3153 22.9831C56.3943 22.9683 56.4585 22.9634 56.5078 22.9634C56.7103 22.9634 56.8238 23.072 56.8238 23.2448C56.8238 23.4176 56.7201 23.5509 56.4239 23.6496C56.0586 23.7731 55.5105 23.8521 54.8934 23.8521C52.4692 23.8521 50.7215 22.3265 50.7215 19.7591ZM54.6613 21.0724C55.2785 21.0724 55.6784 20.5639 55.6784 19.7542C55.6784 18.9642 55.2834 18.4606 54.6613 18.4606C54.0541 18.4606 53.6887 18.9445 53.6887 19.7591C53.6887 20.5787 54.0491 21.0724 54.6613 21.0724ZM61.3338 22.8152C60.9833 22.8152 60.7858 22.6523 60.6772 22.2771L59.4923 18.194C59.4528 18.0755 59.438 17.9817 59.438 17.8929C59.438 17.6164 59.6453 17.4337 59.9564 17.4337C60.223 17.4337 60.381 17.5769 60.4501 17.878L61.3832 21.6155H61.403L62.3904 17.9175C62.4645 17.6016 62.6768 17.4337 63.0026 17.4337C63.3235 17.4337 63.5309 17.6016 63.605 17.9175L64.5973 21.6155H64.622L65.5552 17.878C65.6243 17.5769 65.7773 17.4337 66.0439 17.4337C66.355 17.4337 66.5574 17.6164 66.5574 17.8929C66.5574 17.9817 66.5426 18.0706 66.508 18.194L65.3231 22.2771C65.2194 22.6424 65.0022 22.8152 64.6516 22.8152C64.2814 22.8152 64.074 22.6573 63.9752 22.2771L63.0026 18.8309H62.9779L62.0152 22.2771C61.9164 22.6424 61.6943 22.8152 61.3338 22.8152ZM68.8111 22.8103C67.7941 22.8103 67.0782 22.1783 67.0782 21.2452C67.0782 20.3368 67.7793 19.7789 69.0086 19.7097L70.4355 19.6258V19.2259C70.4355 18.6483 70.0454 18.3026 69.3937 18.3026C68.8803 18.3026 68.5396 18.4853 68.2434 18.9593C68.1347 19.1173 67.9965 19.1864 67.8089 19.1864C67.5423 19.1864 67.3497 19.0087 67.3497 18.7421C67.3497 18.6334 67.3793 18.5149 67.4435 18.3965C67.7151 17.8089 68.5001 17.4337 69.4332 17.4337C70.6922 17.4337 71.497 18.1002 71.497 19.142V22.2771C71.497 22.6128 71.2847 22.8152 70.9835 22.8152C70.6873 22.8152 70.4848 22.6227 70.475 22.3067V21.8673H70.4503C70.1491 22.445 69.4875 22.8103 68.8111 22.8103ZM69.1024 21.966C69.8479 21.966 70.4355 21.4526 70.4355 20.7762V20.3664L69.1518 20.4454C68.5149 20.4898 68.1545 20.7712 68.1545 21.2156C68.1545 21.6698 68.5346 21.966 69.1024 21.966ZM73.2076 22.8152C72.8966 22.8152 72.6744 22.6029 72.6744 22.2524V16.0661C72.6744 15.7156 72.8966 15.5033 73.2076 15.5033C73.5186 15.5033 73.7408 15.7156 73.7408 16.0661V22.2524C73.7408 22.6029 73.5186 22.8152 73.2076 22.8152ZM76.8882 22.8103C75.5749 22.8103 74.7059 21.7636 74.7059 20.1245C74.7059 18.4853 75.5749 17.4436 76.8783 17.4436C77.6238 17.4436 78.2163 17.8188 78.5076 18.3915H78.5273V16.0661C78.5273 15.7156 78.7495 15.5033 79.0655 15.5033C79.3765 15.5033 79.5987 15.7156 79.5987 16.0661V22.282C79.5987 22.6178 79.3815 22.8152 79.0704 22.8152C78.7693 22.8152 78.5273 22.6178 78.5273 22.282V21.7982H78.5125C78.2459 22.4055 77.6979 22.8103 76.8882 22.8103ZM77.1696 21.9068C77.9892 21.9068 78.5372 21.2107 78.5372 20.1245C78.5372 19.0482 77.9892 18.3421 77.1696 18.3421C76.3253 18.3421 75.7971 19.0334 75.7971 20.1245C75.7971 21.2205 76.3253 21.9068 77.1696 21.9068ZM83.0275 22.8202C81.5414 22.8202 80.5638 21.7982 80.5638 20.1245C80.5638 18.4557 81.5463 17.4337 83.0275 17.4337C84.5086 17.4337 85.4911 18.4557 85.4911 20.1245C85.4911 21.7982 84.5136 22.8202 83.0275 22.8202ZM83.0275 21.9414C83.8668 21.9414 84.405 21.2798 84.405 20.1245C84.405 18.9741 83.8619 18.3125 83.0275 18.3125C82.1931 18.3125 81.65 18.9741 81.65 20.1245C81.65 21.2798 82.1931 21.9414 83.0275 21.9414ZM86.9796 22.7757C86.6192 22.7757 86.3328 22.4894 86.3328 22.129C86.3328 21.7686 86.6192 21.4822 86.9796 21.4822C87.34 21.4822 87.6264 21.7686 87.6264 22.129C87.6264 22.4894 87.34 22.7757 86.9796 22.7757ZM89.5049 16.7425C89.1642 16.7425 88.8877 16.466 88.8877 16.1303C88.8877 15.7896 89.1642 15.523 89.5049 15.523C89.8505 15.523 90.127 15.7896 90.127 16.1303C90.127 16.466 89.8505 16.7425 89.5049 16.7425ZM89.5049 22.8152C89.184 22.8152 88.9717 22.5931 88.9717 22.2524V18.0015C88.9717 17.6559 89.184 17.4337 89.5049 17.4337C89.8258 17.4337 90.0381 17.6559 90.0381 18.0015V22.2524C90.0381 22.5931 89.8258 22.8152 89.5049 22.8152ZM91.7636 22.8152C91.4476 22.8152 91.2303 22.6029 91.2303 22.2524V17.9719C91.2303 17.646 91.4278 17.4337 91.7389 17.4337C92.045 17.4337 92.2573 17.646 92.2573 17.9768V18.3866H92.282C92.5634 17.7941 93.1065 17.4386 93.9063 17.4386C95.0517 17.4386 95.7084 18.1693 95.7084 19.3592V22.2524C95.7084 22.6029 95.4862 22.8152 95.1702 22.8152C94.8592 22.8152 94.637 22.6029 94.637 22.2524V19.5666C94.637 18.7865 94.2717 18.357 93.5311 18.357C92.7806 18.357 92.2968 18.8902 92.2968 19.6949V22.2524C92.2968 22.6029 92.0746 22.8152 91.7636 22.8152Z" fill="#1A1A1A"/>
</g>
</g>
<rect x="0.44701" y="0.44701" width="106.171" height="37.5489" rx="18.7744" stroke="#1A1A1A" stroke-opacity="0.08" stroke-width="0.894021"/>
<defs>
<filter id="filter0_d_1772_27375" x="-12.6202" y="-12.9634" width="95.4586" height="95.4574" filterUnits="userSpaceOnUse" color-interpolation-filters="sRGB">
<feFlood flood-opacity="0" result="BackgroundImageFix"/>
<feColorMatrix in="SourceAlpha" type="matrix" values="0 0 0 0 0 0 0 0 0 0 0 0 0 0 0 0 0 0 127 0" result="hardAlpha"/>
<feOffset dx="15.6912" dy="15.6912"/>
<feGaussianBlur stdDeviation="17.4565"/>
<feComposite in2="hardAlpha" operator="out"/>
<feColorMatrix type="matrix" values="0 0 0 0 0 0 0 0 0 0 0 0 0 0 0 0 0 0 0.08 0"/>
<feBlend mode="normal" in2="BackgroundImageFix" result="effect1_dropShadow_1772_27375"/>
<feBlend mode="normal" in="SourceGraphic" in2="effect1_dropShadow_1772_27375" result="shape"/>
</filter>
<filter id="filter1_d_1772_27375" x="11.7134" y="9.5835" width="55.5345" height="55.5369" filterUnits="userSpaceOnUse" color-interpolation-filters="sRGB">
<feFlood flood-opacity="0" result="BackgroundImageFix"/>
<feColorMatrix in="SourceAlpha" type="matrix" values="0 0 0 0 0 0 0 0 0 0 0 0 0 0 0 0 0 0 127 0" result="hardAlpha"/>
<feOffset dx="10.1447" dy="10.1447"/>
<feGaussianBlur stdDeviation="11.286"/>
<feComposite in2="hardAlpha" operator="out"/>
<feColorMatrix type="matrix" values="0 0 0 0 0 0 0 0 0 0 0 0 0 0 0 0 0 0 0.08 0"/>
<feBlend mode="normal" in2="BackgroundImageFix" result="effect1_dropShadow_1772_27375"/>
<feBlend mode="normal" in="SourceGraphic" in2="effect1_dropShadow_1772_27375" result="shape"/>
</filter>
<clipPath id="clip0_1772_27375">
<rect width="107.065" height="38.4429" rx="19.2214" fill="white"/>
</clipPath>
<clipPath id="clip1_1772_27375">
<rect width="6.33511" height="6.33511" fill="white" transform="translate(26.1797 24.0396)"/>
</clipPath>
</defs>
</svg>
