<svg width="138" height="39" viewBox="0 0 138 39" fill="none" xmlns="http://www.w3.org/2000/svg">
<g clip-path="url(#clip0_1772_27437)">
<rect width="137.065" height="38.4429" rx="19.2214" fill="white"/>
<g opacity="0.5">
<g filter="url(#filter0_d_1772_27437)">
<rect width="25.6316" height="25.6316" rx="12.8158" transform="matrix(-1 0 0 1 32.2344 6.25806)" fill="#4B93FF"/>
<rect x="-0.39228" y="0.39228" width="24.847" height="24.847" rx="12.4235" transform="matrix(-1 0 0 1 31.4498 6.25806)" stroke="#1A1A1A" stroke-opacity="0.08" stroke-width="0.78456"/>
<path d="M19.3778 25.3772C17.1573 25.3772 15.5736 24.3241 15.1736 22.8383C15.1246 22.6832 15.1001 22.5363 15.1001 22.3894C15.1001 22.0302 15.296 21.8016 15.6144 21.8016C15.9001 21.8016 16.0797 21.9485 16.1532 22.2587C16.4553 23.6139 17.7451 24.3649 19.435 24.3649C21.2064 24.3649 22.4636 23.4261 22.4636 22.0873C22.4636 20.9771 21.7289 20.3076 19.9166 19.8913L18.6349 19.6056C16.3001 19.0831 15.3205 18.079 15.3205 16.4544C15.3205 14.5523 17.0349 13.2217 19.3452 13.2217C21.2962 13.2217 22.88 14.2176 23.28 15.7687C23.3045 15.8667 23.3126 15.981 23.3126 16.1197C23.3126 16.43 23.1086 16.634 22.8065 16.634C22.5126 16.634 22.3412 16.4789 22.2514 16.185C21.9167 14.9279 20.7901 14.234 19.3125 14.234C17.7206 14.234 16.4634 15.0666 16.4634 16.4055C16.4634 17.4749 17.19 18.1525 18.937 18.5443L20.2187 18.8382C22.6351 19.3852 23.6065 20.2995 23.6065 21.9404C23.6065 24.0302 21.9248 25.3772 19.3778 25.3772Z" fill="white"/>
</g>
<g filter="url(#filter1_d_1772_27437)">
<rect width="10.393" height="10.393" rx="5.1965" transform="matrix(-1 0 0 1 34.5234 22.0105)" fill="white"/>
<rect x="-0.253617" y="0.253617" width="9.88576" height="9.88576" rx="4.94288" transform="matrix(-1 0 0 1 34.0162 22.0105)" stroke="#1A1A1A" stroke-opacity="0.08" stroke-width="0.507234"/>
<g clip-path="url(#clip1_1772_27437)">
<mask id="mask0_1772_27437" style="mask-type:luminance" maskUnits="userSpaceOnUse" x="26" y="25" width="7" height="5">
<path d="M32.1218 25.0298H26.5469V29.3789H32.1218V25.0298Z" fill="white"/>
</mask>
<g mask="url(#mask0_1772_27437)">
<path d="M26.927 29.3786H27.8139V27.2247L26.5469 26.2744V28.9985C26.5469 29.2085 26.717 29.3786 26.927 29.3786V29.3786Z" fill="#4285F4"/>
<path d="M30.8516 29.3786H31.7385C31.9485 29.3786 32.1186 29.2085 32.1186 28.9985V26.2744L30.8516 27.2247V29.3786Z" fill="#34A853"/>
<path d="M30.8516 25.5777V27.2248L32.1186 26.2745V25.7677C32.1186 25.298 31.5823 25.0297 31.2063 25.3116L30.8516 25.5777Z" fill="#FBBC04"/>
<path fill-rule="evenodd" clip-rule="evenodd" d="M27.8125 27.2245V25.5774L29.3329 26.7177L30.8533 25.5774V27.2245L29.3329 28.3648L27.8125 27.2245Z" fill="#EA4335"/>
<path d="M26.5469 25.7677V26.2745L27.8139 27.2248V25.5777L27.4591 25.3116C27.0831 25.0297 26.5469 25.298 26.5469 25.7677Z" fill="#C5221F"/>
</g>
</g>
</g>
<path d="M41.9135 22.8202C40.8915 22.8202 40.1411 22.4005 39.8942 21.7636C39.8596 21.6846 39.8498 21.6106 39.8498 21.5414C39.8498 21.2748 40.0423 21.1168 40.3089 21.1168C40.4867 21.1168 40.6397 21.2008 40.773 21.3983C41.0396 21.8179 41.3507 22.0055 41.9678 22.0055C42.5751 22.0055 42.9849 21.7439 42.9849 21.3143C42.9849 20.9737 42.7825 20.791 42.2246 20.6577L41.405 20.4651C40.3978 20.2282 39.9041 19.7344 39.9041 18.9939C39.9041 18.0558 40.7187 17.4337 41.953 17.4337C42.8911 17.4337 43.6613 17.9126 43.8094 18.5248C43.8193 18.5841 43.8291 18.6334 43.8291 18.6828C43.8291 18.9198 43.681 19.0778 43.4144 19.0778C43.2416 19.0778 43.0886 19.0185 42.9849 18.8507C42.7528 18.4557 42.4369 18.2483 41.9135 18.2483C41.3408 18.2483 40.9458 18.5298 40.9458 18.9346C40.9458 19.2605 41.1976 19.4876 41.7456 19.6159L42.5504 19.8036C43.6415 20.0554 44.0612 20.4454 44.0612 21.2156C44.0612 22.1783 43.1972 22.8202 41.9135 22.8202ZM46.784 22.8152C45.6533 22.8152 44.9621 22.0796 44.9621 20.8897V18.0015C44.9621 17.646 45.1794 17.4337 45.4953 17.4337C45.8064 17.4337 46.0286 17.646 46.0286 18.0015V20.6824C46.0286 21.4723 46.4038 21.8969 47.1394 21.8969C47.9096 21.8969 48.3737 21.3637 48.3737 20.554V18.0015C48.3737 17.646 48.5959 17.4337 48.9069 17.4337C49.2229 17.4337 49.4402 17.646 49.4402 18.0015V22.2722C49.4402 22.6029 49.2377 22.8152 48.9316 22.8152C48.6255 22.8152 48.4182 22.6029 48.4182 22.2771V21.8426H48.3935C48.1071 22.4647 47.5788 22.8152 46.784 22.8152ZM51.2397 24.6568C50.746 24.6568 50.4744 24.4741 50.4744 24.1433C50.4744 23.9162 50.6324 23.7681 50.8891 23.7681C51.0027 23.7681 51.0422 23.7731 51.1656 23.7731C51.4618 23.7731 51.763 23.6101 51.9556 23.0769L52.0543 22.7757L50.3164 18.2286C50.2769 18.12 50.2572 18.0114 50.2572 17.9274C50.2572 17.6361 50.4892 17.4337 50.8003 17.4337C51.0669 17.4337 51.2199 17.5473 51.3137 17.8435L52.6369 21.7537H52.6517L53.9798 17.8435C54.0687 17.5522 54.2168 17.4337 54.4883 17.4337C54.7945 17.4337 55.0067 17.6361 55.0067 17.9225C55.0067 18.0064 54.987 18.115 54.9524 18.2187L53.1504 22.9831C52.6912 24.2322 52.2024 24.6568 51.2397 24.6568ZM57.2358 22.8103C56.2187 22.8103 55.5028 22.1783 55.5028 21.2452C55.5028 20.3368 56.2039 19.7789 57.4333 19.7097L58.8601 19.6258V19.2259C58.8601 18.6483 58.4701 18.3026 57.8184 18.3026C57.3049 18.3026 56.9642 18.4853 56.668 18.9593C56.5594 19.1173 56.4212 19.1864 56.2335 19.1864C55.9669 19.1864 55.7744 19.0087 55.7744 18.7421C55.7744 18.6334 55.804 18.5149 55.8682 18.3965C56.1397 17.8089 56.9248 17.4337 57.8579 17.4337C59.1169 17.4337 59.9216 18.1002 59.9216 19.142V22.2771C59.9216 22.6128 59.7093 22.8152 59.4082 22.8152C59.1119 22.8152 58.9095 22.6227 58.8996 22.3067V21.8673H58.8749C58.5738 22.445 57.9122 22.8103 57.2358 22.8103ZM57.5271 21.966C58.2726 21.966 58.8601 21.4526 58.8601 20.7762V20.3664L57.5765 20.4454C56.9396 20.4898 56.5791 20.7712 56.5791 21.2156C56.5791 21.6698 56.9593 21.966 57.5271 21.966ZM62.9752 22.8202C61.9532 22.8202 61.2027 22.4005 60.9559 21.7636C60.9213 21.6846 60.9114 21.6106 60.9114 21.5414C60.9114 21.2748 61.104 21.1168 61.3706 21.1168C61.5483 21.1168 61.7014 21.2008 61.8347 21.3983C62.1013 21.8179 62.4123 22.0055 63.0295 22.0055C63.6368 22.0055 64.0466 21.7439 64.0466 21.3143C64.0466 20.9737 63.8441 20.791 63.2862 20.6577L62.4667 20.4651C61.4595 20.2282 60.9657 19.7344 60.9657 18.9939C60.9657 18.0558 61.7804 17.4337 63.0147 17.4337C63.9527 17.4337 64.723 17.9126 64.8711 18.5248C64.8809 18.5841 64.8908 18.6334 64.8908 18.6828C64.8908 18.9198 64.7427 19.0778 64.4761 19.0778C64.3033 19.0778 64.1502 19.0185 64.0466 18.8507C63.8145 18.4557 63.4985 18.2483 62.9752 18.2483C62.4025 18.2483 62.0075 18.5298 62.0075 18.9346C62.0075 19.2605 62.2593 19.4876 62.8073 19.6159L63.6121 19.8036C64.7032 20.0554 65.1229 20.4454 65.1229 21.2156C65.1229 22.1783 64.2589 22.8202 62.9752 22.8202ZM66.6212 22.8152C66.3102 22.8152 66.088 22.6029 66.088 22.2524V16.0562C66.088 15.7205 66.2904 15.5033 66.6163 15.5033C66.9471 15.5033 67.1445 15.7205 67.1445 16.0562V18.3965H67.1692C67.4556 17.7892 68.0234 17.4386 68.8133 17.4386C69.9538 17.4386 70.6351 18.199 70.6351 19.374V22.2524C70.6351 22.6029 70.413 22.8152 70.097 22.8152C69.7859 22.8152 69.5638 22.6029 69.5638 22.2524V19.5814C69.5638 18.8161 69.1787 18.357 68.4282 18.357C67.6383 18.357 67.1544 18.9 67.1544 19.7196V22.2524C67.1544 22.6029 66.9322 22.8152 66.6212 22.8152ZM71.6941 19.7591C71.6941 17.2411 73.3826 15.6069 75.8216 15.6069C78.1174 15.6069 79.7713 17.0535 79.7713 19.3049C79.7713 20.7811 79.0604 21.8426 77.91 21.8426C77.2978 21.8426 76.8337 21.5513 76.7448 21.0527H76.6954C76.4782 21.5563 76.0339 21.8426 75.4612 21.8426C74.4441 21.8426 73.7479 20.9934 73.7479 19.7542C73.7479 18.5347 74.4441 17.7052 75.4266 17.7052C75.9697 17.7052 76.4288 17.957 76.6313 18.3965H76.6806V18.1496C76.6806 17.8731 76.8436 17.7052 77.1052 17.7052C77.3718 17.7052 77.5298 17.8731 77.5298 18.1496V20.5984C77.5298 20.9342 77.7224 21.1267 78.0779 21.1267C78.6259 21.1267 79.0011 20.401 79.0011 19.3641C79.0011 17.3745 77.5743 16.2932 75.8117 16.2932C73.7924 16.2932 72.4643 17.7201 72.4643 19.7887C72.4643 21.9265 73.8961 23.1608 76.0191 23.1608C76.5029 23.1608 76.8436 23.0917 77.2879 22.9831C77.3669 22.9683 77.4311 22.9634 77.4805 22.9634C77.6829 22.9634 77.7964 23.072 77.7964 23.2448C77.7964 23.4176 77.6928 23.5509 77.3965 23.6496C77.0312 23.7731 76.4831 23.8521 75.866 23.8521C73.4418 23.8521 71.6941 22.3265 71.6941 19.7591ZM75.634 21.0724C76.2511 21.0724 76.651 20.5639 76.651 19.7542C76.651 18.9642 76.256 18.4606 75.634 18.4606C75.0267 18.4606 74.6613 18.9445 74.6613 19.7591C74.6613 20.5787 75.0217 21.0724 75.634 21.0724ZM82.9236 24.6766C81.9806 24.6667 81.2351 24.3013 80.8796 23.7385C80.8105 23.62 80.7809 23.5114 80.7809 23.388C80.7809 23.1411 80.9636 22.9634 81.2351 22.9634C81.398 22.9634 81.5017 23.0177 81.6449 23.1608C82.0695 23.6052 82.4348 23.7977 82.9434 23.8076C83.8123 23.8175 84.3406 23.3238 84.3406 22.598V21.7735H84.3159C84.0246 22.3363 83.4124 22.7066 82.6718 22.7066C81.3635 22.7066 80.5143 21.6846 80.5143 20.08C80.5143 18.4557 81.3536 17.4436 82.6965 17.4436C83.4322 17.4436 84.0049 17.8139 84.3208 18.4014H84.3406V17.9817C84.3406 17.6361 84.5726 17.4337 84.8787 17.4337C85.1849 17.4337 85.412 17.6361 85.412 17.9817V22.5783C85.412 23.8619 84.469 24.6914 82.9236 24.6766ZM82.9582 21.8377C83.7926 21.8377 84.3455 21.1563 84.3455 20.0899C84.3455 19.0235 83.7926 18.3224 82.9582 18.3224C82.1386 18.3224 81.6054 19.0037 81.6054 20.085C81.6054 21.1712 82.1386 21.8377 82.9582 21.8377ZM87.0979 22.8152C86.777 22.8152 86.5647 22.5931 86.5647 22.2524V17.9768C86.5647 17.6411 86.7721 17.4337 87.0732 17.4337C87.3695 17.4337 87.5818 17.6361 87.5818 17.9768V18.4014H87.6065C87.8385 17.8237 88.3816 17.4386 89.0827 17.4386C89.8035 17.4386 90.3268 17.8089 90.5342 18.4557H90.5589C90.8255 17.8237 91.4377 17.4386 92.1783 17.4386C93.2052 17.4386 93.8767 18.12 93.8767 19.1518V22.2524C93.8767 22.5931 93.6595 22.8152 93.3385 22.8152C93.0176 22.8152 92.8053 22.5931 92.8053 22.2524V19.4086C92.8053 18.7371 92.4449 18.352 91.8129 18.352C91.181 18.352 90.7416 18.8211 90.7416 19.4777V22.2524C90.7416 22.5931 90.5391 22.8152 90.2182 22.8152C89.8973 22.8152 89.6949 22.5931 89.6949 22.2524V19.3296C89.6949 18.7322 89.3147 18.352 88.7124 18.352C88.0804 18.352 87.6311 18.8457 87.6311 19.5123V22.2524C87.6311 22.5931 87.4188 22.8152 87.0979 22.8152ZM96.5303 22.8103C95.5133 22.8103 94.7974 22.1783 94.7974 21.2452C94.7974 20.3368 95.4985 19.7789 96.7278 19.7097L98.1547 19.6258V19.2259C98.1547 18.6483 97.7646 18.3026 97.1129 18.3026C96.5995 18.3026 96.2588 18.4853 95.9626 18.9593C95.8539 19.1173 95.7157 19.1864 95.5281 19.1864C95.2615 19.1864 95.0689 19.0087 95.0689 18.7421C95.0689 18.6334 95.0985 18.5149 95.1627 18.3965C95.4343 17.8089 96.2193 17.4337 97.1524 17.4337C98.4114 17.4337 99.2162 18.1002 99.2162 19.142V22.2771C99.2162 22.6128 99.0039 22.8152 98.7027 22.8152C98.4065 22.8152 98.204 22.6227 98.1942 22.3067V21.8673H98.1695C97.8683 22.445 97.2067 22.8103 96.5303 22.8103ZM96.8216 21.966C97.5671 21.966 98.1547 21.4526 98.1547 20.7762V20.3664L96.871 20.4454C96.2341 20.4898 95.8737 20.7712 95.8737 21.2156C95.8737 21.6698 96.2538 21.966 96.8216 21.966ZM100.922 16.7425C100.581 16.7425 100.305 16.466 100.305 16.1303C100.305 15.7896 100.581 15.523 100.922 15.523C101.267 15.523 101.544 15.7896 101.544 16.1303C101.544 16.466 101.267 16.7425 100.922 16.7425ZM100.922 22.8152C100.601 22.8152 100.389 22.5931 100.389 22.2524V18.0015C100.389 17.6559 100.601 17.4337 100.922 17.4337C101.243 17.4337 101.455 17.6559 101.455 18.0015V22.2524C101.455 22.5931 101.243 22.8152 100.922 22.8152ZM103.22 22.8152C102.909 22.8152 102.687 22.6029 102.687 22.2524V16.0661C102.687 15.7156 102.909 15.5033 103.22 15.5033C103.531 15.5033 103.753 15.7156 103.753 16.0661V22.2524C103.753 22.6029 103.531 22.8152 103.22 22.8152ZM105.75 22.7757C105.39 22.7757 105.103 22.4894 105.103 22.129C105.103 21.7686 105.39 21.4822 105.75 21.4822C106.111 21.4822 106.397 21.7686 106.397 22.129C106.397 22.4894 106.111 22.7757 105.75 22.7757ZM109.663 22.8202C108.177 22.8202 107.209 21.7883 107.209 20.1343C107.209 18.4903 108.172 17.4337 109.653 17.4337C110.655 17.4337 111.514 17.9669 111.741 18.6927C111.771 18.7766 111.791 18.8655 111.791 18.9395C111.791 19.2111 111.598 19.379 111.337 19.379C111.109 19.379 110.981 19.2901 110.853 19.0531C110.586 18.5594 110.221 18.3224 109.673 18.3224C108.838 18.3224 108.295 19.0185 108.295 20.1245C108.295 21.2551 108.848 21.9265 109.673 21.9265C110.25 21.9265 110.601 21.6698 110.853 21.2205C111.001 20.9638 111.114 20.8749 111.346 20.8749C111.608 20.8749 111.801 21.0527 111.801 21.3193C111.801 21.4032 111.781 21.4921 111.741 21.5958C111.47 22.3116 110.626 22.8202 109.663 22.8202ZM114.997 22.8202C113.511 22.8202 112.534 21.7982 112.534 20.1245C112.534 18.4557 113.516 17.4337 114.997 17.4337C116.479 17.4337 117.461 18.4557 117.461 20.1245C117.461 21.7982 116.484 22.8202 114.997 22.8202ZM114.997 21.9414C115.837 21.9414 116.375 21.2798 116.375 20.1245C116.375 18.9741 115.832 18.3125 114.997 18.3125C114.163 18.3125 113.62 18.9741 113.62 20.1245C113.62 21.2798 114.163 21.9414 114.997 21.9414ZM118.92 22.8152C118.599 22.8152 118.387 22.5931 118.387 22.2524V17.9768C118.387 17.6411 118.594 17.4337 118.895 17.4337C119.191 17.4337 119.404 17.6361 119.404 17.9768V18.4014H119.428C119.66 17.8237 120.204 17.4386 120.905 17.4386C121.626 17.4386 122.149 17.8089 122.356 18.4557H122.381C122.647 17.8237 123.26 17.4386 124 17.4386C125.027 17.4386 125.699 18.12 125.699 19.1518V22.2524C125.699 22.5931 125.481 22.8152 125.161 22.8152C124.84 22.8152 124.627 22.5931 124.627 22.2524V19.4086C124.627 18.7371 124.267 18.352 123.635 18.352C123.003 18.352 122.564 18.8211 122.564 19.4777V22.2524C122.564 22.5931 122.361 22.8152 122.04 22.8152C121.719 22.8152 121.517 22.5931 121.517 22.2524V19.3296C121.517 18.7322 121.137 18.352 120.534 18.352C119.902 18.352 119.453 18.8457 119.453 19.5123V22.2524C119.453 22.5931 119.241 22.8152 118.92 22.8152Z" fill="#1A1A1A"/>
</g>
</g>
<rect x="0.44701" y="0.44701" width="136.171" height="37.5489" rx="18.7744" stroke="#1A1A1A" stroke-opacity="0.08" stroke-width="0.894021"/>
<defs>
<filter id="filter0_d_1772_27437" x="-12.6202" y="-12.9637" width="95.4586" height="95.4574" filterUnits="userSpaceOnUse" color-interpolation-filters="sRGB">
<feFlood flood-opacity="0" result="BackgroundImageFix"/>
<feColorMatrix in="SourceAlpha" type="matrix" values="0 0 0 0 0 0 0 0 0 0 0 0 0 0 0 0 0 0 127 0" result="hardAlpha"/>
<feOffset dx="15.6912" dy="15.6912"/>
<feGaussianBlur stdDeviation="17.4565"/>
<feComposite in2="hardAlpha" operator="out"/>
<feColorMatrix type="matrix" values="0 0 0 0 0 0 0 0 0 0 0 0 0 0 0 0 0 0 0.08 0"/>
<feBlend mode="normal" in2="BackgroundImageFix" result="effect1_dropShadow_1772_27437"/>
<feBlend mode="normal" in="SourceGraphic" in2="effect1_dropShadow_1772_27437" result="shape"/>
</filter>
<filter id="filter1_d_1772_27437" x="11.7056" y="9.58326" width="55.5345" height="55.5369" filterUnits="userSpaceOnUse" color-interpolation-filters="sRGB">
<feFlood flood-opacity="0" result="BackgroundImageFix"/>
<feColorMatrix in="SourceAlpha" type="matrix" values="0 0 0 0 0 0 0 0 0 0 0 0 0 0 0 0 0 0 127 0" result="hardAlpha"/>
<feOffset dx="10.1447" dy="10.1447"/>
<feGaussianBlur stdDeviation="11.286"/>
<feComposite in2="hardAlpha" operator="out"/>
<feColorMatrix type="matrix" values="0 0 0 0 0 0 0 0 0 0 0 0 0 0 0 0 0 0 0.08 0"/>
<feBlend mode="normal" in2="BackgroundImageFix" result="effect1_dropShadow_1772_27437"/>
<feBlend mode="normal" in="SourceGraphic" in2="effect1_dropShadow_1772_27437" result="shape"/>
</filter>
<clipPath id="clip0_1772_27437">
<rect width="137.065" height="38.4429" rx="19.2214" fill="white"/>
</clipPath>
<clipPath id="clip1_1772_27437">
<rect width="6.33511" height="6.33511" fill="white" transform="translate(26.1641 24.0396)"/>
</clipPath>
</defs>
</svg>
