<svg width="72" height="39" viewBox="0 0 72 39" fill="none" xmlns="http://www.w3.org/2000/svg">
<g clip-path="url(#clip0_1772_27394)">
<rect width="71.0652" height="38.4429" rx="19.2214" fill="white"/>
<g opacity="0.5">
<g filter="url(#filter0_d_1772_27394)">
<rect width="25.6316" height="25.6316" rx="12.8158" transform="matrix(-1 0 0 1 32.2344 6.25806)" fill="#FAAE40"/>
<rect x="-0.39228" y="0.39228" width="24.847" height="24.847" rx="12.4235" transform="matrix(-1 0 0 1 31.4498 6.25806)" stroke="#1A1A1A" stroke-opacity="0.08" stroke-width="0.78456"/>
<path d="M20.2109 24.4618C17.8327 24.4618 16.3866 22.9815 16.3866 20.85V14.8051C16.3866 14.5036 16.5648 14.3185 16.8527 14.3185C17.1405 14.3185 17.3187 14.5036 17.3187 14.8051V20.7952C17.3187 22.4537 18.4016 23.5914 20.2109 23.5914C22.0271 23.5914 23.1031 22.4537 23.1031 20.7952V14.8051C23.1031 14.5036 23.2882 14.3185 23.5692 14.3185C23.857 14.3185 24.0421 14.5036 24.0421 14.8051V20.85C24.0421 22.9815 22.5891 24.4618 20.2109 24.4618Z" fill="white"/>
</g>
<g filter="url(#filter1_d_1772_27394)">
<rect width="10.393" height="10.393" rx="5.1965" transform="matrix(-1 0 0 1 34.5312 22.0107)" fill="white"/>
<rect x="-0.253617" y="0.253617" width="9.88576" height="9.88576" rx="4.94288" transform="matrix(-1 0 0 1 34.024 22.0107)" stroke="#1A1A1A" stroke-opacity="0.08" stroke-width="0.507234"/>
<g clip-path="url(#clip1_1772_27394)">
<path d="M30.6605 27.0198C30.6053 27.1384 30.556 27.258 30.5125 27.3787C30.472 27.4914 30.383 27.5997 30.2456 27.7036C30.0817 27.8275 29.9211 27.841 29.722 27.8434C29.0342 27.8524 28.3724 27.8604 27.7366 27.8673C27.7063 27.8676 27.6782 27.8776 27.6521 27.8972C27.6484 27.9001 27.6454 27.9038 27.6434 27.908C27.6414 27.9123 27.6405 27.9169 27.6406 27.9216C27.6408 27.9263 27.6422 27.9309 27.6445 27.9349C27.6468 27.939 27.6501 27.9425 27.654 27.945C27.6742 27.958 27.6977 27.9647 27.7245 27.965C28.1499 27.97 28.8047 27.9776 29.6892 27.9877C29.8535 27.9895 29.9586 28.0018 30.0044 28.0247C30.1698 28.107 30.1927 28.2738 30.1534 28.4415C30.1414 28.493 30.1298 28.5453 30.1184 28.5982" stroke="#FAC190" stroke-width="0.0482771"/>
<path d="M30.7815 27.0615C30.7657 27.0923 30.7526 27.1228 30.7421 27.153C30.7149 27.2314 30.6893 27.3158 30.6654 27.4062C30.606 27.6285 30.7262 27.8274 30.9652 27.8393C31.1007 27.846 31.2597 27.857 31.4424 27.8721C31.4477 27.8725 31.4529 27.8741 31.4576 27.8765C31.4623 27.879 31.4665 27.8824 31.4698 27.8866C31.4732 27.8907 31.4757 27.8955 31.4771 27.9006C31.4786 27.9057 31.479 27.911 31.4783 27.9163L31.4781 27.918C31.4767 27.9291 31.4716 27.9395 31.4636 27.9473C31.4555 27.9551 31.4451 27.9599 31.4339 27.9609C31.273 27.9754 31.1318 27.9846 31.0103 27.9884C30.6989 27.9983 30.4522 28.1649 30.3154 28.4447C30.3007 28.4744 30.2841 28.5256 30.2656 28.5982" stroke="#FDD7A0" stroke-width="0.0482771"/>
<path d="M30.6613 27.0197C30.6061 27.1383 30.5568 27.2579 30.5133 27.3786C30.4728 27.4913 30.3838 27.5996 30.2463 27.7035C30.0824 27.8273 29.9219 27.8409 29.7228 27.8433C29.035 27.8523 28.3732 27.8603 27.7374 27.8672C27.7071 27.8675 27.679 27.8775 27.6529 27.8971C27.6492 27.9 27.6462 27.9037 27.6442 27.9079C27.6422 27.9122 27.6412 27.9168 27.6414 27.9215C27.6416 27.9262 27.6429 27.9308 27.6453 27.9348C27.6476 27.9389 27.6509 27.9424 27.6548 27.9449C27.6749 27.9579 27.6984 27.9646 27.7253 27.9649C28.1506 27.9699 28.8055 27.9775 29.6899 27.9876C29.8542 27.9894 29.9593 28.0017 30.0052 28.0246C30.1705 28.1069 30.1935 28.2737 30.1541 28.4414C30.1422 28.4929 30.1305 28.5451 30.1191 28.5981L26.0757 28.5974C26.0644 28.5974 26.0536 28.5932 26.0452 28.5858C26.0369 28.5783 26.0315 28.568 26.0303 28.5568C25.9745 28.074 26.2632 27.6535 26.74 27.5338C26.7853 27.5224 26.8303 27.5176 26.8749 27.5196C26.8785 27.5197 26.8821 27.5191 26.8855 27.5177C26.8888 27.5163 26.8918 27.5141 26.8942 27.5114C26.8966 27.5087 26.8984 27.5055 26.8995 27.5021C26.9005 27.4986 26.9008 27.4949 26.9002 27.4913C26.8689 27.2765 26.9134 27.0968 27.034 26.9523C27.2548 26.688 27.6143 26.645 27.9032 26.8328C27.9048 26.8339 27.9065 26.8345 27.9084 26.8348C27.9102 26.8351 27.9121 26.835 27.9139 26.8345C27.9157 26.8341 27.9173 26.8332 27.9188 26.8321C27.9202 26.8309 27.9214 26.8294 27.9223 26.8278C27.938 26.7981 27.9401 26.7595 27.9568 26.7242C28.1345 26.3528 28.4084 26.0997 28.7787 25.9648C29.2769 25.7835 29.8261 25.8975 30.2229 26.2509C30.3993 26.4079 30.5292 26.6131 30.6128 26.8664C30.6319 26.9245 30.6481 26.9756 30.6613 27.0197Z" fill="#F58220"/>
<path d="M30.6605 27.0198C30.6969 27.047 30.7353 27.0609 30.7756 27.0615C30.7599 27.0923 30.7468 27.1228 30.7363 27.153C30.7091 27.2314 30.6835 27.3158 30.6595 27.4062C30.6002 27.6285 30.7204 27.8275 30.9593 27.8393C31.0948 27.846 31.2539 27.857 31.4366 27.8721C31.4419 27.8726 31.447 27.8741 31.4518 27.8766C31.4565 27.879 31.4606 27.8825 31.464 27.8866C31.4674 27.8907 31.4699 27.8955 31.4713 27.9006C31.4728 27.9057 31.4732 27.911 31.4725 27.9163L31.4723 27.918C31.4709 27.9291 31.4658 27.9395 31.4577 27.9473C31.4497 27.9551 31.4392 27.9599 31.4281 27.9609C31.2672 27.9754 31.126 27.9846 31.0045 27.9885C30.6931 27.9984 30.4464 28.1649 30.3095 28.4447C30.2949 28.4744 30.2783 28.5256 30.2598 28.5982H30.1184C30.1298 28.5453 30.1414 28.493 30.1534 28.4415C30.1927 28.2738 30.1698 28.107 30.0044 28.0247C29.9586 28.0018 29.8535 27.9895 29.6892 27.9877C28.8047 27.9776 28.1499 27.97 27.7245 27.965C27.6977 27.9647 27.6742 27.958 27.654 27.945C27.6501 27.9425 27.6468 27.939 27.6445 27.9349C27.6422 27.9309 27.6408 27.9263 27.6406 27.9216C27.6405 27.9169 27.6414 27.9123 27.6434 27.908C27.6454 27.9038 27.6484 27.9001 27.6521 27.8972C27.6782 27.8776 27.7063 27.8676 27.7366 27.8673C28.3724 27.8604 29.0342 27.8524 29.722 27.8434C29.9211 27.841 30.0817 27.8275 30.2456 27.7036C30.383 27.5997 30.472 27.4914 30.5125 27.3787C30.556 27.258 30.6053 27.1384 30.6605 27.0198Z" fill="white"/>
<path d="M30.2656 28.5983C30.2841 28.5257 30.3007 28.4745 30.3154 28.4448C30.4522 28.165 30.6989 27.9984 31.0103 27.9885C31.1318 27.9847 31.273 27.9755 31.4339 27.961C31.4451 27.96 31.4555 27.9552 31.4636 27.9474C31.4716 27.9396 31.4767 27.9292 31.4781 27.9181L31.4783 27.9164C31.479 27.9111 31.4786 27.9058 31.4771 27.9007C31.4757 27.8956 31.4732 27.8908 31.4698 27.8867C31.4665 27.8826 31.4623 27.8791 31.4576 27.8767C31.4529 27.8742 31.4477 27.8727 31.4424 27.8722C31.2597 27.8571 31.1007 27.8461 30.9652 27.8394C30.7262 27.8275 30.606 27.6286 30.6654 27.4063C30.6893 27.3159 30.7149 27.2315 30.7421 27.1531C30.7526 27.1229 30.7657 27.0924 30.7815 27.0616C31.0594 27.0473 31.3087 27.1178 31.5295 27.2731C31.8363 27.4894 32.0345 27.8476 32.0321 28.2302C32.0314 28.3526 32.0189 28.4651 31.9944 28.5676C31.9924 28.5761 31.9875 28.5837 31.9807 28.589C31.9739 28.5944 31.9654 28.5973 31.9568 28.5973L30.2656 28.5983Z" fill="#FAAE40"/>
</g>
</g>
<path d="M42.9104 22.8399C41.1232 22.8399 40.0271 21.7537 40.0271 20.2183V16.0908C40.0271 15.7353 40.2345 15.5181 40.5801 15.5181C40.9207 15.5181 41.133 15.7353 41.133 16.0908V20.1245C41.133 21.1415 41.7749 21.8574 42.9104 21.8574C44.046 21.8574 44.6928 21.1415 44.6928 20.1245V16.0908C44.6928 15.7353 44.9001 15.5181 45.2457 15.5181C45.5864 15.5181 45.7938 15.7353 45.7938 16.0908V20.2183C45.7938 21.7537 44.6977 22.8399 42.9104 22.8399ZM48.9954 22.8202C47.9734 22.8202 47.223 22.4005 46.9761 21.7636C46.9416 21.6846 46.9317 21.6106 46.9317 21.5414C46.9317 21.2748 47.1242 21.1168 47.3908 21.1168C47.5686 21.1168 47.7216 21.2008 47.8549 21.3983C48.1215 21.8179 48.4326 22.0055 49.0497 22.0055C49.657 22.0055 50.0668 21.7439 50.0668 21.3143C50.0668 20.9737 49.8644 20.791 49.3065 20.6577L48.4869 20.4651C47.4797 20.2282 46.986 19.7344 46.986 18.9939C46.986 18.0558 47.8006 17.4337 49.0349 17.4337C49.973 17.4337 50.7432 17.9126 50.8913 18.5248C50.9012 18.5841 50.9111 18.6334 50.9111 18.6828C50.9111 18.9198 50.7629 19.0778 50.4963 19.0778C50.3235 19.0778 50.1705 19.0185 50.0668 18.8507C49.8348 18.4557 49.5188 18.2483 48.9954 18.2483C48.4227 18.2483 48.0277 18.5298 48.0277 18.9346C48.0277 19.2605 48.2795 19.4876 48.8276 19.6159L49.6323 19.8036C50.7234 20.0554 51.1431 20.4454 51.1431 21.2156C51.1431 22.1783 50.2791 22.8202 48.9954 22.8202ZM54.3201 22.8202C52.755 22.8202 51.8367 21.8278 51.8367 20.1492C51.8367 18.5001 52.7748 17.4337 54.246 17.4337C55.6285 17.4337 56.5813 18.431 56.5813 19.848C56.5813 20.1936 56.3838 20.3911 56.053 20.3911H52.913V20.4158C52.913 21.3637 53.4462 21.9562 54.2954 21.9562C54.878 21.9562 55.2433 21.7537 55.6383 21.2156C55.7519 21.0823 55.8605 21.028 56.0136 21.028C56.2703 21.028 56.4579 21.1958 56.4579 21.4625C56.4579 21.5464 56.4283 21.6451 56.3838 21.7488C56.0432 22.4301 55.2878 22.8202 54.3201 22.8202ZM52.9179 19.6456H55.5149C55.4902 18.8309 54.9817 18.2928 54.2411 18.2928C53.5055 18.2928 52.9722 18.8359 52.9179 19.6456ZM58.0451 22.8152C57.7242 22.8152 57.5119 22.598 57.5119 22.2524V17.9719C57.5119 17.646 57.7193 17.4337 58.0204 17.4337C58.3167 17.4337 58.524 17.646 58.524 17.9719V18.4162H58.5487C58.6919 17.8336 59.1708 17.4436 59.6892 17.4436C59.8768 17.4436 60.02 17.488 60.1089 17.5719C60.2076 17.6509 60.252 17.7793 60.252 17.9472C60.252 18.115 60.1977 18.2385 60.094 18.3224C59.9854 18.4162 59.8274 18.4606 59.6053 18.4606C58.8746 18.4656 58.5783 18.9544 58.5783 19.6011V22.2524C58.5783 22.598 58.3611 22.8152 58.0451 22.8152Z" fill="#1A1A1A"/>
</g>
</g>
<rect x="0.44701" y="0.44701" width="70.1711" height="37.5489" rx="18.7744" stroke="#1A1A1A" stroke-opacity="0.08" stroke-width="0.894021"/>
<defs>
<filter id="filter0_d_1772_27394" x="-12.6202" y="-12.9637" width="95.4586" height="95.4574" filterUnits="userSpaceOnUse" color-interpolation-filters="sRGB">
<feFlood flood-opacity="0" result="BackgroundImageFix"/>
<feColorMatrix in="SourceAlpha" type="matrix" values="0 0 0 0 0 0 0 0 0 0 0 0 0 0 0 0 0 0 127 0" result="hardAlpha"/>
<feOffset dx="15.6912" dy="15.6912"/>
<feGaussianBlur stdDeviation="17.4565"/>
<feComposite in2="hardAlpha" operator="out"/>
<feColorMatrix type="matrix" values="0 0 0 0 0 0 0 0 0 0 0 0 0 0 0 0 0 0 0.08 0"/>
<feBlend mode="normal" in2="BackgroundImageFix" result="effect1_dropShadow_1772_27394"/>
<feBlend mode="normal" in="SourceGraphic" in2="effect1_dropShadow_1772_27394" result="shape"/>
</filter>
<filter id="filter1_d_1772_27394" x="11.7134" y="9.5835" width="55.5345" height="55.5369" filterUnits="userSpaceOnUse" color-interpolation-filters="sRGB">
<feFlood flood-opacity="0" result="BackgroundImageFix"/>
<feColorMatrix in="SourceAlpha" type="matrix" values="0 0 0 0 0 0 0 0 0 0 0 0 0 0 0 0 0 0 127 0" result="hardAlpha"/>
<feOffset dx="10.1447" dy="10.1447"/>
<feGaussianBlur stdDeviation="11.286"/>
<feComposite in2="hardAlpha" operator="out"/>
<feColorMatrix type="matrix" values="0 0 0 0 0 0 0 0 0 0 0 0 0 0 0 0 0 0 0.08 0"/>
<feBlend mode="normal" in2="BackgroundImageFix" result="effect1_dropShadow_1772_27394"/>
<feBlend mode="normal" in="SourceGraphic" in2="effect1_dropShadow_1772_27394" result="shape"/>
</filter>
<clipPath id="clip0_1772_27394">
<rect width="71.0652" height="38.4429" rx="19.2214" fill="white"/>
</clipPath>
<clipPath id="clip1_1772_27394">
<rect width="6.17947" height="6.17947" fill="white" transform="translate(25.9297 24.1387)"/>
</clipPath>
</defs>
</svg>
