<svg width="118" height="42" viewBox="0 0 118 42" fill="none" xmlns="http://www.w3.org/2000/svg">
<rect width="117.183" height="41.9326" rx="10.296" fill="white"/>
<rect x="0.5" y="0.5" width="116.183" height="40.9326" rx="9.796" stroke="#1A1A1A" stroke-opacity="0.08"/>
<g opacity="0.8">
<path d="M20.1015 28.3589H23.7688C25.8623 28.3589 26.9167 27.2892 26.9014 25.1499C26.8708 22.7509 26.8556 20.9936 26.7944 19.6947C26.6569 16.6844 25.9693 15.3091 23.9675 14.866C23.83 13.888 23.0354 13.2004 21.9352 13.2004C20.8349 13.2004 20.0251 13.888 19.8875 14.866C17.901 15.3244 17.2134 16.6844 17.0759 19.6947C17.0148 20.9936 16.9995 22.7509 16.9689 25.1499C16.9536 27.2892 18.008 28.3589 20.1015 28.3589ZM21.9352 14.1631C22.3783 14.1631 22.745 14.377 22.9284 14.7132C22.6228 14.6826 22.2866 14.6673 21.9352 14.6673C21.5837 14.6673 21.2475 14.6826 20.9419 14.7132C21.1253 14.377 21.492 14.1631 21.9352 14.1631ZM19.0624 21.9715C19.0624 21.4673 19.3833 21.1311 19.9028 21.1311H23.9675C24.487 21.1311 24.8079 21.4673 24.8079 21.9715V22.7203H19.0624V21.9715ZM19.9028 25.9751C19.3833 25.9751 19.0624 25.6389 19.0624 25.1346V23.5149H24.8079V25.1346C24.8079 25.6389 24.487 25.9751 23.9675 25.9751H19.9028Z" fill="#A1EB46"/>
</g>
<path opacity="0.8" d="M38.524 26.0775C38.0445 26.0775 37.7804 25.8412 37.6344 25.3061L35.3063 17.0011C35.2576 16.8134 35.2368 16.6675 35.2368 16.5285C35.2368 16.1045 35.5426 15.8265 36.0012 15.8265C36.4113 15.8265 36.6615 16.0489 36.7588 16.4729L38.5657 23.791H38.6213L40.5812 16.6119C40.7271 16.0559 40.9912 15.8265 41.4707 15.8265C41.9364 15.8265 42.2074 16.0628 42.3464 16.591L44.3132 23.791H44.3688L46.1688 16.4729C46.2731 16.042 46.5302 15.8265 46.9333 15.8265C47.392 15.8265 47.6978 16.1045 47.6978 16.5285C47.6978 16.6675 47.6769 16.8134 47.6213 17.0011L45.3001 25.313C45.1472 25.8412 44.8831 26.0775 44.4105 26.0775C43.9171 26.0775 43.653 25.8551 43.5001 25.313L41.4985 18.4049H41.429L39.4344 25.313C39.2816 25.8482 39.0105 26.0775 38.524 26.0775ZM51.4192 26.1053C49.2162 26.1053 47.9235 24.7084 47.9235 22.3455C47.9235 20.0242 49.244 18.5231 51.315 18.5231C53.2609 18.5231 54.6022 19.9269 54.6022 21.9215C54.6022 22.408 54.3243 22.686 53.8586 22.686H49.4385V22.7208C49.4385 24.0551 50.1891 24.8891 51.3845 24.8891C52.2046 24.8891 52.7189 24.6041 53.2748 23.8466C53.4347 23.659 53.5876 23.5825 53.803 23.5825C54.1644 23.5825 54.4285 23.8188 54.4285 24.1941C54.4285 24.3123 54.3868 24.4513 54.3243 24.5972C53.8447 25.5563 52.7814 26.1053 51.4192 26.1053ZM49.4455 21.6366H53.1011C53.0663 20.4899 52.3505 19.7323 51.308 19.7323C50.2725 19.7323 49.5219 20.4968 49.4455 21.6366ZM56.7114 17.5501C56.2318 17.5501 55.8426 17.1609 55.8426 16.6883C55.8426 16.2088 56.2318 15.8335 56.7114 15.8335C57.1979 15.8335 57.587 16.2088 57.587 16.6883C57.587 17.1609 57.1979 17.5501 56.7114 17.5501ZM56.7114 26.0984C56.2596 26.0984 55.9608 25.7856 55.9608 25.3061V19.3223C55.9608 18.8358 56.2596 18.5231 56.7114 18.5231C57.1631 18.5231 57.462 18.8358 57.462 19.3223V25.3061C57.462 25.7856 57.1631 26.0984 56.7114 26.0984ZM62.2051 28.7184C60.8776 28.7045 59.8282 28.1902 59.3278 27.398C59.2305 27.2312 59.1888 27.0783 59.1888 26.9045C59.1888 26.557 59.446 26.3068 59.8282 26.3068C60.0576 26.3068 60.2035 26.3833 60.4051 26.5848C61.0027 27.2103 61.517 27.4814 62.2329 27.4953C63.456 27.5092 64.1996 26.8142 64.1996 25.7926V24.6319H64.1649C63.7549 25.4242 62.8931 25.9455 61.8506 25.9455C60.0089 25.9455 58.8136 24.5069 58.8136 22.2482C58.8136 19.9617 59.995 18.537 61.8854 18.537C62.9209 18.537 63.7271 19.0582 64.1718 19.8852H64.1996V19.2945C64.1996 18.808 64.5263 18.5231 64.9572 18.5231C65.3881 18.5231 65.7078 18.808 65.7078 19.2945V25.7648C65.7078 27.5717 64.3803 28.7393 62.2051 28.7184ZM62.2537 24.7223C63.4282 24.7223 64.2066 23.7632 64.2066 22.2621C64.2066 20.7609 63.4282 19.774 62.2537 19.774C61.1 19.774 60.3495 20.7331 60.3495 22.2551C60.3495 23.7841 61.1 24.7223 62.2537 24.7223ZM68.1366 26.0984C67.6987 26.0984 67.386 25.7995 67.386 25.3061V16.5841C67.386 16.1115 67.6709 15.8057 68.1296 15.8057C68.5953 15.8057 68.8732 16.1115 68.8732 16.5841V19.8783H68.908C69.3111 19.0235 70.1103 18.53 71.2223 18.53C72.8277 18.53 73.7868 19.6003 73.7868 21.2543V25.3061C73.7868 25.7995 73.474 26.0984 73.0292 26.0984C72.5914 26.0984 72.2786 25.7995 72.2786 25.3061V21.5462C72.2786 20.469 71.7366 19.8227 70.6802 19.8227C69.5682 19.8227 68.8871 20.5872 68.8871 21.7408V25.3061C68.8871 25.7995 68.5744 26.0984 68.1366 26.0984ZM75.8194 24.215V19.8435H75.2913C74.9021 19.8435 74.6658 19.6211 74.6658 19.2528C74.6658 18.8775 74.9021 18.6551 75.2913 18.6551H75.8194V17.5709C75.8194 17.0914 76.1183 16.7717 76.577 16.7717C77.0287 16.7717 77.3275 17.0914 77.3275 17.5709V18.6551H78.1824C78.5716 18.6551 78.8079 18.8845 78.8079 19.2528C78.8079 19.6211 78.5716 19.8435 78.1824 19.8435H77.3275V23.8814C77.3275 24.4652 77.5291 24.7292 78.0712 24.7709L78.1893 24.7779C78.6202 24.8196 78.8356 24.9933 78.8356 25.3478C78.8356 25.7995 78.4882 26.0289 77.7515 26.0289H77.675C76.4449 26.0289 75.8194 25.4242 75.8194 24.215Z" fill="#1A1A1A"/>
<g opacity="0.8">
<path d="M85.1406 16.9511C85.1406 14.5859 87.0581 12.6685 89.4233 12.6685H97.4534C99.8186 12.6685 101.736 14.5859 101.736 16.9511V24.9812C101.736 27.3465 99.8186 29.2639 97.4534 29.2639H89.4233C87.0581 29.2639 85.1406 27.3465 85.1406 24.9812V16.9511Z" fill="#FB943F"/>
<path d="M96.4699 20.4997L93.4381 17.9343L90.4062 20.4997M93.4381 17.9343L93.438 23.998" stroke="white" stroke-width="1.29936" stroke-linecap="round" stroke-linejoin="round"/>
</g>
</svg>
