<svg width="139" height="83" viewBox="0 0 139 83" fill="none" xmlns="http://www.w3.org/2000/svg">
<path fill-rule="evenodd" clip-rule="evenodd" d="M41.0126 1.09179C43.8743 -0.836003 47.7295 -0.139716 49.7458 2.61951C49.7858 2.65486 49.8502 2.70843 49.9376 2.76592C50.1591 2.91145 50.4428 3.03633 50.7803 3.0754C54.2893 3.48178 56.803 6.65606 56.3974 10.1632C56.166 12.1606 55.0364 13.8364 53.4591 14.8342C55.6015 16.2297 57.2468 17.8148 58.4143 18.9297C60.168 20.6043 60.7039 21.0271 61.0926 21.2015C61.1786 21.1933 61.4477 21.1525 61.9575 20.936C67.2792 18.6751 72.283 17.2262 76.6616 16.6371C78.0856 15.4312 79.8122 14.5341 81.7254 14.0547L81.9955 13.9906C87.6848 12.7021 94.2469 15.4985 95.8222 21.7847C96.371 23.9751 96.154 26.1383 95.4123 28.0536C96.1389 31.046 96.6421 34.8832 96.1782 38.9137C96.0283 40.2151 95.7737 41.5605 95.3835 42.9158C99.5052 38.7364 105.22 36.3869 113.087 36.3869L113.252 36.3889C116.708 36.4766 119.482 39.3057 119.482 42.7815V42.7825C119.482 46.3116 116.621 49.1775 113.087 49.1776C107.924 49.1776 105.712 50.6147 104.395 51.9922C103.481 52.9485 102.741 54.1333 101.982 55.6878C102.196 55.9214 102.4 56.1535 102.594 56.381L102.706 56.5133L103.002 56.8616L103.31 57.4129L103.314 57.419L103.317 57.4251C104.061 58.7675 104.694 60.2612 104.997 62.0007C105.3 63.741 105.208 65.3609 104.961 66.8746C104.744 68.2087 104.254 69.466 103.854 70.3506C103.929 71.0322 103.957 71.8135 103.878 72.6538C103.717 74.3525 103.089 76.495 101.367 78.3583C99.6441 80.2216 97.3751 81.2129 95.0261 81.6217C91.0281 82.3174 88.14 82.5522 83.6298 82.8758H83.6288C80.1051 83.1276 77.0466 80.4747 76.7939 76.9542C76.752 76.3684 76.7906 75.7946 76.8999 75.2453C75.4683 75.7297 73.9188 76.2329 72.5455 76.672C71.1108 77.1307 69.7743 77.5499 68.7973 77.8539C68.6206 77.9089 68.4551 77.9597 68.3031 78.0069L68.2996 78.0109L67.5004 78.2553C67.42 78.28 67.3541 78.3005 67.3075 78.3148C67.2955 78.3185 67.284 78.3219 67.2711 78.326C67.2654 78.3277 67.2571 78.3303 67.2499 78.3325C67.2438 78.3344 67.2359 78.3369 67.2272 78.3396H67.2257L67.2217 78.3411L67.2202 78.3416C67.2168 78.3426 67.2092 78.3453 67.2 78.3482L67.1995 78.3477L66.5517 78.5536H66.3079C63.2115 79.042 60.1485 77.1903 59.2044 74.1073L59.2039 74.1063C58.2028 70.8331 59.9555 67.377 63.1393 66.2233L63.1959 66.2031L63.2529 66.184L63.3393 66.1552L63.3943 66.137L63.4493 66.1198C63.4585 66.117 63.4664 66.1148 63.4715 66.1133C63.473 66.1128 63.4743 66.1122 63.4756 66.1118L63.4781 66.1113C63.4806 66.1105 63.4829 66.1094 63.4852 66.1087L63.4882 66.1082C63.4903 66.1076 63.4927 66.107 63.4953 66.1062C63.5096 66.1018 63.5293 66.0955 63.5518 66.0885C63.6206 66.0674 63.7232 66.0359 63.8618 65.9931C64.1296 65.9105 64.5189 65.7901 64.9972 65.6412C65.952 65.3442 67.2554 64.9355 68.6499 64.4896C71.5522 63.5616 74.5012 62.5818 75.7448 62.0754L75.9841 61.9754C77.1497 61.4771 77.8926 60.9754 78.7462 60.2856C79.2712 59.8614 79.7774 59.4162 80.5188 58.7811C81.0722 58.3071 81.7015 57.7766 82.4358 57.1913C81.577 57.5622 80.678 57.9016 79.7378 58.2056C70.7565 61.1091 63.9641 61.8905 59.6926 62.6519C55.2968 63.4356 54.6512 64.0427 54.02 64.9758C52.0822 67.8405 48.23 68.635 45.3247 66.8105C45.2486 67.5479 45.1407 68.3101 44.994 69.0945L44.9122 69.5151C43.9507 74.2659 41.1356 77.7176 37.4579 79.7996L37.0994 79.9971C33.4632 81.9392 29.2789 82.4797 25.4371 82.3053C17.8879 81.9625 9.33207 78.7345 3.93439 73.4192C0.483023 70.0202 -0.224082 65.5962 0.0550155 61.8951C0.330883 58.2383 1.59395 54.5137 3.07966 51.2051C6.07227 44.5409 10.7227 37.9284 14.0726 33.8464C14.4581 33.3767 14.8962 32.9757 15.3716 32.6458C15.203 28.0907 16.7102 23.6551 19.9315 20.0414C19.5109 19.4298 19.1896 18.7342 18.9985 17.9719C18.1402 14.5445 20.2237 11.0728 23.6473 10.2147C24.455 10.0122 24.8091 9.70649 25.0509 9.38368C25.3551 8.97735 25.8029 8.08578 25.9712 6.30502L25.9889 6.14094C26.4011 2.70913 29.4778 0.213277 32.9389 0.53997H32.9399C35.5193 0.784038 37.5943 2.52915 38.3858 4.83031C38.7573 3.35641 39.6522 2.0087 41.0116 1.09229L41.0126 1.09179ZM67.157 78.3598C67.1265 78.369 67.0958 78.3778 67.0652 78.3865C67.0744 78.384 67.0849 78.3816 67.096 78.3785C67.1133 78.3736 67.1339 78.3677 67.157 78.3608C67.1692 78.3572 67.1826 78.3526 67.1969 78.3482C67.1832 78.3524 67.1697 78.356 67.157 78.3598ZM113.087 41.0397C106.107 41.0397 101.624 43.1151 98.5127 46.37C95.8208 49.1863 94.2759 52.7904 92.9233 56.0715C91.2375 56.2428 89.6742 57.2397 88.1599 58.5363C87.34 59.2383 86.6061 59.8397 85.9335 60.3598C82.1915 63.2538 81.1198 64.9102 77.5002 66.3844C76.0551 66.9729 72.9158 68.0104 70.0671 68.9213C68.6581 69.3719 67.3426 69.7844 66.3796 70.084L65.233 70.4395C65.0969 70.4814 64.9904 70.5143 64.9185 70.5364C64.8827 70.5474 64.855 70.556 64.8367 70.5616C64.8278 70.5644 64.8205 70.5663 64.816 70.5677C64.8139 70.5683 64.812 70.5689 64.8109 70.5692L64.7246 70.598C63.8581 70.912 63.3807 71.854 63.6533 72.7452C63.9351 73.6649 64.9094 74.1828 65.8293 73.9013L65.8298 73.9008H65.8313C65.8325 73.9004 65.8347 73.9 65.8368 73.8993C65.8416 73.8978 65.8489 73.8955 65.858 73.8927L65.9413 73.867C66.0143 73.8446 66.1221 73.8114 66.2594 73.769C66.5343 73.6843 66.9305 73.5617 67.4145 73.4111C68.3834 73.1096 69.7082 72.6944 71.1283 72.2403C73.938 71.3419 77.2185 70.2609 78.8144 69.611C83.0174 67.8991 84.9489 65.5258 88.065 63.1159C88.7945 62.5518 89.5745 61.9126 90.4263 61.1833C92.2411 59.6294 93.1522 59.4435 93.7371 59.5591C94.0696 59.6249 94.4862 59.8198 95.0266 60.2644C94.7441 60.4509 94.4821 60.6224 94.2486 60.7713C93.9215 60.9799 93.6522 61.1463 93.4665 61.26C93.3739 61.3168 93.3019 61.3604 93.254 61.3893C93.2302 61.4036 93.2121 61.4146 93.2005 61.4216C93.1951 61.4248 93.1909 61.4276 93.1884 61.4291L93.1853 61.4307L93.1091 61.4781C92.3415 61.9881 92.1008 63.0167 92.5765 63.8182C93.0522 64.6194 94.07 64.9004 94.8852 64.4709L94.964 64.427L94.965 64.4265L94.966 64.4255C94.9672 64.4248 94.9691 64.4236 94.971 64.4225C94.9752 64.42 94.9814 64.4168 94.9887 64.4124C95.0036 64.4035 95.025 64.3905 95.0523 64.374C95.1072 64.3409 95.1871 64.2927 95.2876 64.2311C95.4886 64.108 95.7754 63.9301 96.1221 63.7091C96.3662 63.5535 96.6407 63.3743 96.9375 63.1785C96.9538 63.2515 96.9679 63.3243 96.9804 63.3961C97.0836 63.9897 97.0785 64.6543 96.9299 65.566C96.8504 66.0536 96.5655 66.7652 96.2221 67.4567C96.1736 67.5545 96.1247 67.6483 96.0782 67.7374L93.9709 67.7465C93.0089 67.7506 92.2318 68.5338 92.2357 69.4959L92.2382 69.5852C92.2888 70.5055 93.0535 71.2344 93.9855 71.2306L95.7637 71.223C95.7895 71.4415 95.7975 71.6679 95.7768 71.8869C95.7396 72.2792 95.6188 72.5897 95.3921 72.835C95.1653 73.0803 94.6838 73.4218 93.6316 73.605C90.062 74.2261 87.5184 74.4389 83.0482 74.7596C82.0886 74.8285 81.3664 75.662 81.4351 76.6215C81.5019 77.5509 82.2861 78.2581 83.2072 78.2391L83.2971 78.2351C87.7842 77.9131 90.4754 77.6911 94.2284 77.038C95.837 76.7581 97.0835 76.1374 97.9502 75.1998C98.8167 74.2625 99.1554 73.1687 99.2457 72.2156C99.3342 71.2798 99.1909 70.4261 99.0443 69.8377C99.0294 69.7778 99.014 69.7192 98.9988 69.6635C99.1032 69.4717 99.2214 69.2493 99.3422 69.0061C99.711 68.2634 100.201 67.1596 100.369 66.1264C100.56 64.957 100.602 63.8832 100.413 62.7983C100.225 61.7135 99.8221 60.7171 99.2477 59.6808L99.1629 59.5288L99.0503 59.3966C98.2006 58.398 97.3147 57.5282 96.3433 56.9252C97.6453 53.8001 98.9292 50.9765 101.031 48.7772C103.301 46.4031 106.666 44.6378 112.514 44.5298L113.087 44.5248C114.019 44.5247 114.78 43.7918 114.827 42.8713L114.829 42.782C114.829 41.85 114.097 41.0884 113.176 41.0417L113.087 41.0397ZM20.1214 36.5575C19.3776 35.9472 18.2796 36.0546 17.6692 36.7983C14.4787 40.6863 10.0928 46.9452 7.32405 53.111C5.94262 56.1874 4.91306 59.3507 4.69472 62.245L4.67654 62.5176C4.51399 65.3307 5.1347 68.0709 7.19935 70.1042C11.6498 74.4868 19.0521 77.358 25.6481 77.6575C28.9643 77.808 32.2411 77.3171 34.9073 75.893C37.6328 74.4371 39.6557 72.0313 40.3518 68.5922C41.1148 64.8217 40.8166 61.7133 40.3114 59.5238C40.2201 59.1282 40.1213 58.7626 40.0216 58.4287C39.8635 57.6688 39.5749 56.9239 39.1749 56.228C39.1403 56.1585 39.1113 56.1013 39.0881 56.0579C39.0749 56.0331 39.0632 56.0119 39.0543 55.9958C39.0499 55.988 39.0459 55.9808 39.0427 55.9751C39.0412 55.9724 39.0394 55.9697 39.0381 55.9675C39.0375 55.9665 39.0367 55.965 39.0361 55.964L39.0356 55.9625C39.0356 55.9625 39.0336 55.9635 39.021 55.9706L39.0199 55.969L39.0346 55.961C38.9714 55.8506 38.8973 55.7498 38.8155 55.659C37.0364 53.0878 33.673 51.3948 29.8042 52.5733C22.5555 57.0886 28.3486 67.4311 36.8344 65.0955C37.0011 65.002 37.1609 64.9044 37.314 64.8042C37.275 65.7574 37.1606 66.7928 36.9364 67.901C36.4645 70.2319 35.1593 71.7982 33.2948 72.8032C33.51 69.9121 30.428 66.6293 26.777 67.7738C24.2639 69.4217 24.5106 72.3316 26.1681 74.1881C26.0482 74.1846 25.9272 74.182 25.8061 74.1765C22.2626 74.0156 18.4811 73.0054 15.2161 71.4229C16.779 71.5372 18.4694 71.3579 20.243 70.8085C30.7749 64.667 22.7922 50.2569 11.0146 53.4356C13.629 47.9955 17.4858 42.5148 20.3627 39.0091C20.9729 38.2655 20.8647 37.168 20.1214 36.5575ZM64.4687 69.4514C64.4698 69.4511 64.4711 69.4512 64.4722 69.4509L64.4737 69.4504C64.4719 69.451 64.47 69.451 64.4687 69.4514ZM49.5625 17.9351C47.1586 16.6765 44.2341 15.9329 40.4654 16.2337C33.3401 16.8024 28.0907 18.8419 24.6677 21.8796C21.2049 24.9527 19.7336 28.9473 20.0527 33.0472C20.1275 34.0062 20.9657 34.7237 21.9247 34.6491C22.8837 34.5744 23.601 33.7361 23.5267 32.7771C23.2914 29.7549 24.3414 26.8281 26.9809 24.4857C29.6605 22.1079 34.0956 20.2372 40.7425 19.7066C43.8597 19.4579 46.1279 20.0694 47.947 21.0218C49.8131 21.999 51.2788 23.3667 52.7947 24.8144C54.232 26.187 55.8442 27.776 57.8014 28.6438C59.9202 29.583 62.2892 29.6354 65.1391 28.4246C69.7877 26.4498 73.912 25.273 77.2912 24.7669C77.2656 25.3034 77.3168 25.8477 77.4522 26.388C78.2944 29.7477 82.0788 31.6942 85.9052 30.7354C86.486 30.5898 87.0345 30.3849 87.544 30.1316C88.0659 32.3447 88.4217 35.1432 88.0948 37.9832C87.8055 40.4957 86.9894 42.9802 85.3423 45.1326C83.7034 47.274 81.1605 49.1938 77.2346 50.463C68.9399 53.1445 62.9545 53.8053 58.2649 54.6412C53.6096 55.4711 49.9154 56.5191 47.279 60.4169C46.7401 61.2139 46.9496 62.2972 47.7465 62.8362L47.8218 62.8847C48.6103 63.3616 49.6436 63.1411 50.1658 62.3692C51.9437 59.7408 54.3322 58.8814 58.8763 58.0713C63.386 57.2674 69.7177 56.555 78.3065 53.7784C82.8223 52.3185 85.9898 50.0201 88.1094 47.2505C90.2205 44.4919 91.2119 41.3712 91.5561 38.3816C92.0272 34.2891 91.3003 30.3282 90.4601 27.5699C91.3334 26.2288 91.6922 24.6376 91.3451 23.0675L91.3093 22.9156C90.4673 19.5557 86.6829 17.6093 82.8563 18.5682C81.1721 18.9902 79.7605 19.9047 78.7795 21.0829C74.6333 21.4361 69.4978 22.7878 63.777 25.2182C61.6971 26.1019 60.3397 25.9578 59.2135 25.4586C57.9259 24.8877 56.7727 23.7956 55.2008 22.2946C53.7076 20.8686 51.9191 19.169 49.5625 17.9351ZM24.2542 53.4387C27.3625 51.6102 24.5591 46.7191 20.9842 47.8397L20.8453 47.9351C18.0226 49.98 20.6898 54.4453 24.2542 53.4387ZM84.4966 37.0311C79.5718 36.4731 76.3308 37.1128 74.1131 38.4916C71.8807 39.8796 70.9826 41.8504 70.4084 43.0773C70.0007 43.9487 70.3766 44.9863 71.248 45.3941L71.3298 45.43C72.1556 45.7665 73.1049 45.4218 73.5234 44.6343L73.5638 44.5541C74.1335 43.3366 74.6742 42.2462 75.9528 41.4512C77.2465 40.6468 79.5911 39.9816 84.1043 40.4929C85.0601 40.601 85.9228 39.9138 86.0314 38.9581C86.1396 38.0022 85.4525 37.1395 84.4966 37.0311ZM48.5159 29.7959C46.9945 27.5315 44.5177 26.5311 42.9841 27.5613C41.4507 28.5918 41.4406 31.2629 42.9619 33.5273C44.4359 35.7208 46.8064 36.7282 48.3473 35.8522L48.4937 35.7618C49.9793 34.7636 50.0348 32.2257 48.6538 30.0094L48.5159 29.7959ZM32.5016 5.1721C31.5438 5.08169 30.6939 5.7849 30.6034 6.74273C30.3785 9.12127 29.7269 10.9017 28.7752 12.1726C27.8407 13.4204 26.5361 14.2878 24.7787 14.7282C23.8456 14.9621 23.2783 15.9078 23.512 16.841C23.746 17.7742 24.6927 18.3416 25.6259 18.1077C28.0929 17.4895 30.1101 16.2027 31.5641 14.2612C32.9112 12.4622 33.7021 10.1994 34.0157 7.59545L34.0723 7.07039C34.1628 6.1126 33.4594 5.26277 32.5016 5.1721ZM38.5777 8.58902C38.4252 9.68598 38.1974 10.769 37.8805 11.8222C38.605 11.7313 39.3436 11.6555 40.0953 11.5955C40.2654 11.5819 40.4344 11.5703 40.6022 11.5602C40.0565 11.0063 39.615 10.4618 39.283 9.96932L39.2825 9.96882C38.9862 9.52913 38.7521 9.06553 38.5777 8.58902ZM46.03 5.42201C45.4923 4.62431 44.41 4.41306 43.6122 4.95047C42.8145 5.48825 42.6035 6.57097 43.1412 7.36877C43.9574 8.57947 46.2884 10.7476 49.8442 11.1593L49.9336 11.1674C50.8235 11.2248 51.6153 10.5969 51.7627 9.7174L51.7753 9.62854C51.8824 8.70278 51.2428 7.8624 50.334 7.71005L50.2451 7.69743C48.0241 7.44034 46.5746 6.12751 46.1098 5.53106L46.03 5.42201Z" fill="white"/>
<path d="M116.884 36.2741C117.069 36.6104 117.301 36.9351 117.585 37.2424C118.445 37.9318 119.428 38.1977 120.429 38.1436C120.328 38.3916 120.255 38.653 120.214 38.9281C120.31 39.8217 120.732 40.5096 121.357 41.0102C120.619 41.1542 119.935 41.5094 119.377 42.1269C119.118 42.5918 118.971 43.0634 118.917 43.5315C118.392 43.179 117.786 42.951 117.1 42.8948C116.136 43.0439 115.379 43.4935 114.811 44.1313C114.643 43.5629 114.368 43.0064 113.968 42.4788C113.349 41.8682 112.64 41.5088 111.894 41.3555C112.195 40.7943 112.395 40.1624 112.467 39.4597C112.444 38.9394 112.361 38.4497 112.227 37.9906C113.222 38.2365 114.277 38.2019 115.346 37.7932C115.991 37.3599 116.499 36.8452 116.884 36.2741Z" fill="white"/>
<path fill-rule="evenodd" clip-rule="evenodd" d="M106.238 18.0136C110.125 16.4653 113.893 17.3018 116.678 18.9385C117.574 19.4652 118.396 20.086 119.143 20.7707C119.508 20.6407 119.883 20.5256 120.266 20.4284C123.26 19.6682 126.74 20.0158 129.754 22.2232L130.044 22.4428L130.626 22.8967L131.096 23.4656C132.948 25.7125 133.728 28.0798 133.82 30.349C136.027 31.884 137.882 34.4273 138.022 37.926L138.045 38.5051L137.968 39.0796C137.625 41.6612 136.357 43.6131 134.924 45.0037C135.226 47.2175 134.851 49.647 133.408 51.9142L133.129 52.354L132.784 52.7458C130.849 54.9452 128.378 55.8961 126.089 56.1097C124.527 58.5521 121.876 60.6004 118.243 60.9352L117.709 60.9841L117.174 60.9483C114.904 60.7951 113.034 59.9378 111.569 58.7925C111.086 58.9307 110.59 59.0428 110.08 59.1222C106.843 59.6257 103.315 58.7868 100.528 56.1077L100.016 55.6164L99.6188 55.0288C98.372 53.1858 97.7373 51.3182 97.5479 49.5121C93.9659 47.6779 93.9424 44.3599 93.408 39.0301L93.4201 37.5811C93.9138 33.3469 93.2461 30.223 96.2822 28.4007C97.3205 27.7775 98.4159 27.3095 99.53 26.9744C100.065 23.7339 101.858 20.5033 105.312 18.4675L105.757 18.205L106.238 18.0136ZM117.47 30.3419C116.258 26.332 112.422 22.7854 108.725 24.2578L108.578 24.3471C105.538 26.2611 105.534 30.2259 107.123 33.4165C102.865 32.1962 97.5322 33.74 96.9935 38.3596C97.4236 42.6489 101.525 44.7123 105.402 44.6432C104.107 46.5846 103.699 49.0667 105.185 51.263C107.798 53.7742 111.575 52.2584 113.604 49.5252C113.999 51.9289 115.419 54.0936 117.626 54.2427C120.447 53.9828 121.606 50.936 121.292 48.0631C123.332 49.5845 126.172 50.0867 127.738 48.3065C129.157 46.075 127.705 43.4765 125.523 42.0371C128.227 41.858 131.006 40.4535 131.306 38.1946C131.206 35.7022 128.385 34.7209 125.608 35.024C127.18 32.9087 127.755 30.1031 126.006 27.86L125.91 27.7413C123.087 25.5388 119.339 27.4357 117.47 30.3419Z" fill="white"/>
<path d="M113.091 41.0389C114.053 41.039 114.834 41.8192 114.834 42.7812C114.834 43.7433 114.054 44.524 113.091 44.524C106.889 44.524 103.378 46.3257 101.036 48.7764C98.9335 50.9757 97.6496 53.7993 96.3476 56.9244C97.3191 57.5274 98.2049 58.3971 99.0547 59.3958L99.1673 59.528L99.2521 59.68C99.8265 60.7164 100.229 61.7126 100.418 62.7975C100.607 63.8825 100.564 64.9561 100.373 66.1256C100.205 67.1589 99.7153 68.2626 99.3465 69.0053C99.2257 69.2486 99.1076 69.4708 99.0032 69.6627C99.0184 69.7185 99.0337 69.7769 99.0486 69.8369C99.1953 70.4253 99.3386 71.2789 99.25 72.2148C99.1598 73.1679 98.8211 74.2616 97.9546 75.199C97.0878 76.1367 95.8415 76.7573 94.2327 77.0372C90.4797 77.6903 87.7886 77.9123 83.3014 78.2343C82.3419 78.3028 81.5083 77.5803 81.4394 76.6207C81.3708 75.6612 82.0929 74.8277 83.0525 74.7588C87.5228 74.4381 90.0663 74.2253 93.636 73.6042C94.6884 73.421 95.1697 73.0795 95.3964 72.8342C95.6232 72.5889 95.744 72.2785 95.7811 71.8861C95.8018 71.667 95.7939 71.4408 95.768 71.2222L93.9899 71.2298C93.0277 71.2337 92.244 70.4572 92.24 69.4951C92.2361 68.533 93.0132 67.7498 93.9752 67.7457L96.0825 67.7366C96.129 67.6475 96.1778 67.5537 96.2264 67.4559C96.5699 66.7643 96.8548 66.0528 96.9342 65.5652C97.0828 64.6533 97.088 63.989 96.9847 63.3953C96.9722 63.3234 96.9582 63.2508 96.9418 63.1777C96.645 63.3736 96.3706 63.5527 96.1264 63.7083C95.7797 63.9294 95.493 64.1071 95.2919 64.2303C95.1913 64.292 95.1116 64.3401 95.0566 64.3732C95.0292 64.3897 95.0079 64.4027 94.993 64.4116C94.9856 64.416 94.9795 64.4192 94.9754 64.4217C94.9733 64.4229 94.9715 64.424 94.9703 64.4247L94.9693 64.4257L94.9683 64.4262L94.8895 64.4701C94.0742 64.8997 93.0565 64.6188 92.5808 63.8174C92.1051 63.0158 92.3457 61.9873 93.1134 61.4773L93.1897 61.4299L93.1927 61.4283C93.1952 61.4268 93.1993 61.4241 93.2048 61.4208C93.2164 61.4138 93.2344 61.4028 93.2583 61.3885C93.3063 61.3596 93.3781 61.316 93.4709 61.2592C93.6565 61.1455 93.9257 60.9791 94.2529 60.7705C94.4865 60.6216 94.7483 60.4502 95.0309 60.2636C94.4904 59.8189 94.074 59.6241 93.7415 59.5583C93.1565 59.4427 92.2454 59.6286 90.4306 61.1825C89.5787 61.9118 88.7988 62.5509 88.0693 63.1151C84.9531 65.5251 83.0219 67.8983 78.8187 69.6102C77.2229 70.2601 73.9424 71.3411 71.1326 72.2395C69.7124 72.6936 68.3882 73.1088 67.4194 73.4103C66.935 73.561 66.5392 73.6834 66.2642 73.7682C66.1267 73.8106 66.0187 73.8437 65.9457 73.8662C65.9093 73.8774 65.8812 73.8862 65.8624 73.8919C65.8531 73.8948 65.846 73.897 65.8412 73.8985C65.8389 73.8992 65.8368 73.8996 65.8356 73.9H65.8341L65.8336 73.9005C64.9136 74.1821 63.9393 73.6643 63.6576 72.7444C63.385 71.8531 63.8624 70.9111 64.7289 70.5972L64.8153 70.5684C64.8164 70.5681 64.8181 70.5676 64.8203 70.5669C64.8249 70.5655 64.832 70.5636 64.841 70.5608C64.8594 70.5552 64.8869 70.5466 64.9228 70.5356C64.9947 70.5135 65.1011 70.4807 65.2373 70.4387C65.5099 70.3546 65.9028 70.2329 66.3839 70.0832C67.3469 69.7836 68.6623 69.3711 70.0714 68.9205C72.9202 68.0096 76.0595 66.9721 77.5045 66.3836C81.1242 64.9093 82.1957 63.2531 85.9378 60.359C86.6104 59.8388 87.3442 59.2376 88.1642 58.5355C89.6785 57.2389 91.2418 56.242 92.9276 56.0707C94.2803 52.7895 95.8251 49.1855 98.517 46.3692C101.628 43.1143 106.112 41.0389 113.091 41.0389Z" fill="#1A1A1A"/>
<path d="M17.6736 36.7975C18.284 36.0538 19.3819 35.9463 20.1257 36.5567C20.8692 37.1671 20.9773 38.2646 20.367 39.0083C17.4901 42.514 13.6334 47.9946 11.0189 53.4348C22.7966 50.2559 30.7794 64.6662 20.2474 70.8077C18.4736 71.3571 16.7834 71.5364 15.2204 71.4221C18.4855 73.0046 22.2668 74.0147 25.8105 74.1757C25.9316 74.1812 26.0525 74.1838 26.1724 74.1873C24.5149 72.3308 24.2681 69.4208 26.7813 67.773C30.4323 66.6284 33.5143 69.9112 33.2991 72.8024C35.1638 71.7974 36.4689 70.2312 36.9407 67.9002C37.165 66.7919 37.2794 65.7567 37.3183 64.8034C37.1651 64.9036 37.0055 65.0011 36.8387 65.0947C28.3529 67.4304 22.5597 57.0877 29.8085 52.5725C33.6773 51.394 37.0408 53.087 38.8198 55.6582C38.9017 55.7491 38.9757 55.8497 39.0389 55.9602L39.0243 55.9682L39.0253 55.9697C39.038 55.9626 39.0399 55.9617 39.0399 55.9617L39.0404 55.9632C39.041 55.9642 39.0418 55.9656 39.0424 55.9667C39.0437 55.969 39.0454 55.9715 39.047 55.9743C39.0502 55.9801 39.0542 55.9871 39.0586 55.995C39.0675 56.0111 39.0791 56.0322 39.0924 56.0571C39.1156 56.1005 39.1445 56.1576 39.1793 56.2272C39.5793 56.9232 39.8678 57.6679 40.0259 58.4279C40.1256 58.7619 40.2244 59.1273 40.3157 59.523C40.821 61.7125 41.1192 64.8208 40.3561 68.5914C39.6601 72.0306 37.6372 74.4363 34.9116 75.8922C32.2454 77.3163 28.9687 77.8073 25.6524 77.6567C19.0563 77.3572 11.6541 74.4861 7.20368 70.1034C5.07231 68.0044 4.4797 65.1523 4.69905 62.2442C4.91739 59.3498 5.94691 56.1866 7.32838 53.1102C10.0972 46.9443 14.483 40.6854 17.6736 36.7975Z" fill="#1A1A1A"/>
<path d="M40.4697 16.2329C44.2385 15.9321 47.1629 16.6757 49.5668 17.9343C51.9235 19.1682 53.7119 20.8677 55.2052 22.2938C56.7771 23.7949 57.9301 24.8868 59.2178 25.4578C60.3441 25.9571 61.7012 26.1012 63.7813 25.2174C69.5021 22.787 74.6376 21.4353 78.7839 21.0821C79.7648 19.9039 81.1764 18.9894 82.8606 18.5674C86.6872 17.6085 90.4716 19.5548 91.3136 22.9148C91.7193 24.5339 91.366 26.1847 90.4644 27.5691C91.3047 30.3274 92.0316 34.2882 91.5605 38.3808C91.2163 41.3705 90.2249 44.491 88.1137 47.2497C85.9941 50.0193 82.8267 52.3177 78.3108 53.7776C69.7219 56.5543 63.3904 57.2666 58.8806 58.0705C54.3365 58.8806 51.948 59.74 50.1702 62.3684C49.6311 63.1653 48.5478 63.3743 47.7509 62.8354C46.9539 62.2963 46.7443 61.2131 47.2833 60.4161C49.9198 56.5182 53.6139 55.4703 58.2692 54.6404C62.9589 53.8044 68.9441 53.1438 77.239 50.4622C81.1649 49.193 83.7077 47.2733 85.3466 45.1318C86.9938 42.9794 87.8098 40.495 88.0991 37.9824C88.426 35.1423 88.0703 32.3439 87.5483 30.1308C87.0387 30.3842 86.4904 30.589 85.9095 30.7346C82.083 31.6935 78.2986 29.7471 77.4566 26.3872C77.3211 25.8468 77.2699 25.3027 77.2955 24.7661C73.9163 25.2722 69.792 26.4489 65.1434 28.4238C62.2934 29.6346 59.9246 29.5823 57.8057 28.643C55.8485 27.7752 54.2364 26.1862 52.799 24.8136C51.283 23.3659 49.8175 21.9982 47.9513 21.021C46.1322 20.0686 43.864 19.4571 40.7469 19.7058C34.0999 20.2364 29.6648 22.1071 26.9853 24.4849C24.3457 26.8273 23.2958 29.7541 23.531 32.7763C23.6055 33.7354 22.8882 34.5736 21.9291 34.6483C20.9699 34.7229 20.1317 34.0056 20.057 33.0464C19.7379 28.9464 21.2092 24.9519 24.672 21.8788C28.0951 18.8411 33.3444 16.8016 40.4697 16.2329Z" fill="#1A1A1A"/>
<path d="M20.9885 47.8389C24.5635 46.7182 27.367 51.6094 24.2585 53.4379C20.6374 54.4605 17.9424 49.8362 20.9885 47.8389Z" fill="#1A1A1A"/>
<path d="M74.1174 38.4908C76.3352 37.112 79.576 36.4722 84.5009 37.0303C85.4569 37.1387 86.1439 38.0014 86.0357 38.9573C85.9273 39.9132 85.0646 40.6003 84.1087 40.4921C79.5954 39.9808 77.2508 40.646 75.9571 41.4504C74.6784 42.2454 74.1379 43.3358 73.5681 44.5532C73.1603 45.4246 72.1237 45.801 71.2523 45.3933C70.3808 44.9855 70.0049 43.948 70.4127 43.0765C70.9869 41.8496 71.8849 39.8788 74.1174 38.4908Z" fill="#1A1A1A"/>
<path d="M42.9885 27.5605C44.5221 26.5302 46.9988 27.5307 48.5203 29.7951C50.0417 32.0595 50.0316 34.7306 48.4981 35.761C46.9644 36.7913 44.4877 35.7909 42.9663 33.5265C41.4449 31.2621 41.4549 28.5909 42.9885 27.5605Z" fill="#1A1A1A"/>
<path d="M30.6077 6.74194C30.6982 5.78411 31.5481 5.08089 32.506 5.1713C33.4638 5.2619 34.1671 6.11176 34.0766 7.06959C33.8096 9.89513 33.0053 12.3415 31.5684 14.2604C30.1144 16.202 28.0973 17.4887 25.6302 18.1069C24.6969 18.3408 23.7502 17.7736 23.5164 16.8402C23.2826 15.907 23.8499 14.9613 24.7831 14.7274C26.5406 14.2869 27.845 13.4197 28.7796 12.1718C29.7312 10.9008 30.3829 9.12062 30.6077 6.74194Z" fill="#1A1A1A"/>
<path d="M43.6165 4.94967C44.4143 4.41221 45.4966 4.62349 46.0343 5.42121C46.389 5.94708 47.8802 7.42238 50.2494 7.69664C51.2051 7.80731 51.8902 8.67204 51.7797 9.62774C51.669 10.5835 50.8043 11.2691 49.8486 11.1585C46.2925 10.7468 43.9616 8.57862 43.1455 7.36797C42.6078 6.57013 42.8187 5.48743 43.6165 4.94967Z" fill="#1A1A1A"/>
<path d="M108.202 22.9507C110.25 22.1352 112.292 22.5259 113.983 23.52C115.595 24.467 116.943 25.983 117.868 27.6812C118.919 26.697 120.196 25.9281 121.572 25.5786C123.18 25.1705 124.923 25.3438 126.468 26.4077L126.774 26.6323L126.896 26.7271L126.994 26.8462C128.776 29.0069 128.789 31.5057 127.952 33.6626C128.765 33.7824 129.55 34.015 130.247 34.3833C131.589 35.0925 132.639 36.3432 132.711 38.1382L132.716 38.2593L132.699 38.3804C132.48 40.0273 131.397 41.242 130.153 42.0317C129.625 42.3675 129.042 42.6431 128.433 42.8608C128.817 43.3767 129.136 43.9391 129.358 44.5366C129.886 45.9527 129.872 47.5723 128.924 49.062L128.865 49.1538L128.793 49.2358C127.686 50.4946 126.166 50.9196 124.715 50.8345C124.014 50.7934 123.313 50.6348 122.641 50.3862C122.498 51.3206 122.21 52.2293 121.746 53.0288C120.945 54.4105 119.61 55.473 117.754 55.644L117.643 55.6538L117.53 55.646C115.776 55.5275 114.443 54.5165 113.567 53.2466C113.338 52.9143 113.137 52.5582 112.962 52.187C111.881 53.0391 110.607 53.6622 109.261 53.8716C107.518 54.1426 105.698 53.7078 104.209 52.2769L104.102 52.1743L104.019 52.0513C102.632 50.0018 102.571 47.8113 103.23 45.8843C99.625 45.27 96.0374 42.9343 95.5928 38.4995L95.5771 38.3481L95.5947 38.1968C95.8756 35.7879 97.2214 34.0334 99.0156 32.9565C100.758 31.911 102.905 31.5049 104.97 31.6304C104.684 30.4803 104.583 29.2915 104.727 28.1431C104.978 26.1276 105.99 24.235 108.009 23.0454L108.102 22.9907L108.202 22.9507ZM116.825 38.4312C116.609 38.6168 116.377 38.7946 116.129 38.9614L115.996 39.0503L115.847 39.1079C115.18 39.3627 114.518 39.5 113.871 39.5396L113.865 39.604C113.832 39.9277 113.774 40.2389 113.7 40.5386C114.042 40.7265 114.373 40.9543 114.688 41.229L114.955 41.4771L115.026 41.5483L115.088 41.6284C115.177 41.7461 115.26 41.8656 115.34 41.9849C115.803 41.7571 116.318 41.5919 116.884 41.5044L117.048 41.479L117.214 41.4927C117.503 41.5164 117.781 41.5647 118.048 41.6304C118.079 41.5683 118.111 41.5057 118.146 41.4438L118.224 41.3022L118.332 41.1831C118.595 40.8926 118.878 40.6456 119.175 40.437C119.034 40.1191 118.925 39.7754 118.859 39.4038C118.155 39.2349 117.467 38.9193 116.825 38.4312Z" fill="#FF6F27" stroke="#1A1A1A" stroke-width="2.81381"/>
<path d="M120.384 41.1896C121.699 36.9193 113.734 33.6842 111.306 38.1208C109.951 42.7361 118.255 45.6519 120.384 41.1896Z" fill="#FFC08C" stroke="#1A1A1A" stroke-width="2.06792"/>
</svg>
