<svg width="103" height="29" viewBox="0 0 103 29" fill="none" xmlns="http://www.w3.org/2000/svg">
<rect width="102.154" height="28.8592" rx="14.4296" fill="white"/>
<rect x="0.505035" y="0.505035" width="101.144" height="27.8491" rx="13.9245" stroke="#1A1A1A" stroke-opacity="0.08" stroke-width="1.01007"/>
<g clip-path="url(#clip0_1772_26964)">
<path d="M15.5417 21.5545C13.334 21.5545 11.976 20.7708 11.976 19.4187V16.4991C11.0366 15.6795 10.4923 14.3632 10.4923 12.9214C10.4923 9.55309 12.6939 7.30359 15.9665 7.30359C19.2271 7.30359 21.4107 9.49928 21.4107 12.7957C21.4107 12.9812 21.4048 13.1368 21.3869 13.2923L22.1168 14.6086C22.3202 14.9675 22.4219 15.3205 22.4219 15.6435C22.4219 16.2598 22.045 16.7683 21.4048 16.9358V18.0846C21.4048 19.1614 20.639 19.7059 19.6638 19.5922L19.0416 19.5324L19.0476 19.5742C18.9578 20.8306 17.6357 21.5545 15.5417 21.5545ZM18.0185 13.6633C19.0236 13.6633 19.6758 12.8856 19.6758 11.8685C19.6758 11.5095 19.5621 11.1505 19.3587 10.8514C19.1792 11.2283 18.7904 11.4676 18.2878 11.4676C18.1263 11.4676 17.9826 11.33 17.9826 11.1744C17.9826 11.0129 18.1202 10.8813 18.2878 10.8813C18.6347 10.8813 18.904 10.5941 18.904 10.2172C18.904 9.61888 18.3357 9.16421 17.5998 9.16421C17.492 9.16421 17.3964 9.17618 17.2886 9.18815C17.3605 9.3497 17.4323 9.52322 17.4382 9.77449C17.4502 9.94801 17.3246 10.0856 17.1451 10.0856C16.9775 10.0856 16.8579 9.97195 16.8579 9.7924C16.8519 9.23 16.4272 8.85912 15.8348 8.85912C15.4879 8.85912 15.1169 9.0266 14.8656 9.30785C14.7998 9.28985 14.728 9.28391 14.4828 9.28391C13.8007 9.28391 13.2563 9.83434 13.2563 10.5283C13.2563 11.9462 15.5835 12.2154 15.5835 13.789C15.5835 13.8846 15.5656 13.9743 15.5358 14.0641C15.7032 14.094 15.8768 14.112 16.0323 14.112C16.3913 14.112 16.7203 14.0342 17.0015 13.8846C16.4989 13.6154 16.2058 13.1308 16.2058 12.5265C16.2058 12.3889 16.2178 12.2513 16.2537 12.1198C15.5835 11.9702 15.2246 11.5214 15.2306 10.8155C15.2306 10.6599 15.3622 10.5223 15.5178 10.5223C15.6734 10.5223 15.8049 10.654 15.8049 10.8155C15.8049 11.2761 16.0442 11.5574 16.5289 11.6231C16.5409 11.5872 16.5767 11.5274 16.6126 11.4975C16.6785 11.4317 16.7622 11.4137 16.834 11.4137C16.9895 11.4137 17.1151 11.5274 17.1151 11.677C17.1151 11.7608 17.0792 11.8624 16.9775 11.9582C16.8519 12.0838 16.7741 12.2812 16.7741 12.5146C16.7741 13.1846 17.2886 13.6633 18.0185 13.6633ZM13.4059 15.3265C13.8605 15.3265 14.2255 14.9376 14.3272 14.3693H14.4289C14.8357 14.3693 15.0751 14.1239 15.0751 13.777C15.0751 12.5744 12.9033 12.3411 12.7358 10.636C12.293 10.8933 12.0178 11.3479 12.0178 11.8984C12.0178 12.5026 12.4546 12.8736 13.1306 12.8257C13.2802 12.8137 13.4178 12.9513 13.4178 13.1129C13.4178 13.2625 13.3042 13.3881 13.1426 13.406C12.8136 13.4239 12.5264 13.3761 12.2811 13.2684C12.2751 13.3581 12.2751 13.4539 12.2751 13.5377C12.2751 14.5786 12.7477 15.3265 13.4059 15.3265Z" fill="#FB943F"/>
</g>
<path d="M29.3168 19.0277C28.8873 19.0277 28.6296 18.7578 28.6296 18.3159V10.7869C28.6296 10.3451 28.8873 10.0751 29.3168 10.0751H33.6122C33.9987 10.0751 34.2565 10.3082 34.2565 10.6703C34.2565 11.0323 33.9926 11.2655 33.6122 11.2655H30.0041V14.0636H33.287C33.6551 14.0636 33.9067 14.2906 33.9067 14.6404C33.9067 14.9963 33.6551 15.2233 33.287 15.2233H30.0041V18.3159C30.0041 18.7578 29.7402 19.0277 29.3168 19.0277ZM37.8736 19.0523C36.0266 19.0523 34.8117 17.7821 34.8117 15.7019C34.8117 13.6279 36.0328 12.3577 37.8736 12.3577C39.7145 12.3577 40.9356 13.6279 40.9356 15.7019C40.9356 17.7821 39.7206 19.0523 37.8736 19.0523ZM37.8736 17.96C38.9168 17.96 39.5856 17.1378 39.5856 15.7019C39.5856 14.2722 38.9106 13.45 37.8736 13.45C36.8366 13.45 36.1616 14.2722 36.1616 15.7019C36.1616 17.1378 36.8366 17.96 37.8736 17.96ZM42.7487 19.0462C42.3498 19.0462 42.086 18.7762 42.086 18.3466V13.0266C42.086 12.6216 42.3437 12.3577 42.718 12.3577C43.0862 12.3577 43.3439 12.6216 43.3439 13.0266V13.5788H43.3746C43.5525 12.8547 44.1477 12.37 44.792 12.37C45.0252 12.37 45.2032 12.4252 45.3136 12.5295C45.4363 12.6277 45.4916 12.7873 45.4916 12.9959C45.4916 13.2045 45.4241 13.3579 45.2952 13.4622C45.1602 13.5788 44.9639 13.634 44.6877 13.634C43.7796 13.6402 43.4114 14.2477 43.4114 15.0515V18.3466C43.4114 18.7762 43.1414 19.0462 42.7487 19.0462ZM46.9979 19.0462C46.599 19.0462 46.3352 18.77 46.3352 18.3466V13.0327C46.3352 12.6154 46.5929 12.3577 46.9672 12.3577C47.3354 12.3577 47.5992 12.6093 47.5992 13.0327V13.5604H47.6299C47.9183 12.8425 48.5933 12.3639 49.4646 12.3639C50.3605 12.3639 51.0109 12.8241 51.2687 13.6279H51.2993C51.6307 12.8425 52.3916 12.3639 53.312 12.3639C54.5883 12.3639 55.4228 13.2106 55.4228 14.4931V18.3466C55.4228 18.77 55.1529 19.0462 54.754 19.0462C54.3552 19.0462 54.0913 18.77 54.0913 18.3466V14.8122C54.0913 13.9777 53.6434 13.499 52.8579 13.499C52.0725 13.499 51.5264 14.082 51.5264 14.8981V18.3466C51.5264 18.77 51.2748 19.0462 50.8759 19.0462C50.4771 19.0462 50.2255 18.77 50.2255 18.3466V14.714C50.2255 13.9715 49.753 13.499 49.0044 13.499C48.219 13.499 47.6606 14.1127 47.6606 14.941V18.3466C47.6606 18.77 47.3967 19.0462 46.9979 19.0462ZM63.418 19.0768C60.9145 19.0768 59.3498 17.3219 59.3498 14.4992C59.3498 11.695 60.9329 9.92779 63.4058 9.92779C65.0319 9.92779 66.3327 10.7194 66.885 12.0264C66.9709 12.2043 67.0138 12.3884 67.0138 12.5541C67.0138 12.9222 66.7684 13.1616 66.4002 13.1616C66.075 13.1616 65.8602 13.002 65.7068 12.6461C65.2957 11.6582 64.4244 11.1305 63.4058 11.1305C61.7981 11.1305 60.7549 12.4498 60.7549 14.4992C60.7549 16.5671 61.7858 17.8741 63.4119 17.8741C64.4919 17.8741 65.3203 17.4139 65.7314 16.4567C65.8787 16.1315 66.0566 15.9965 66.3573 15.9965C66.7316 15.9965 66.9893 16.2542 66.9893 16.6162C66.9893 16.8064 66.9402 16.9844 66.842 17.1869C66.2714 18.3834 65.0625 19.0768 63.418 19.0768ZM69.0356 19.0462C68.6367 19.0462 68.3729 18.7762 68.3729 18.3466V13.0266C68.3729 12.6216 68.6306 12.3577 69.0049 12.3577C69.3731 12.3577 69.6308 12.6216 69.6308 13.0266V13.5788H69.6615C69.8394 12.8547 70.4346 12.37 71.0789 12.37C71.3121 12.37 71.4901 12.4252 71.6005 12.5295C71.7232 12.6277 71.7785 12.7873 71.7785 12.9959C71.7785 13.2045 71.711 13.3579 71.5821 13.4622C71.4471 13.5788 71.2508 13.634 70.9746 13.634C70.0665 13.6402 69.6983 14.2477 69.6983 15.0515V18.3466C69.6983 18.7762 69.4283 19.0462 69.0356 19.0462ZM74.377 19.04C73.113 19.04 72.2232 18.2546 72.2232 17.0948C72.2232 15.9658 73.0946 15.2724 74.6225 15.1865L76.3958 15.0822V14.5852C76.3958 13.8672 75.9111 13.4377 75.1011 13.4377C74.4629 13.4377 74.0395 13.6647 73.6714 14.2538C73.5364 14.4502 73.3645 14.5361 73.1314 14.5361C72.8 14.5361 72.5607 14.3152 72.5607 13.9838C72.5607 13.8488 72.5975 13.7015 72.6773 13.5543C73.0148 12.8241 73.9904 12.3577 75.1502 12.3577C76.7149 12.3577 77.7151 13.1861 77.7151 14.4808V18.3773C77.7151 18.7946 77.4512 19.0462 77.0769 19.0462C76.7088 19.0462 76.4572 18.8068 76.4449 18.4141V17.868H76.4142C76.0399 18.5859 75.2177 19.04 74.377 19.04ZM74.7391 17.9907C75.6656 17.9907 76.3958 17.3526 76.3958 16.5119V16.0026L74.8004 16.1008C74.0088 16.156 73.5609 16.5058 73.5609 17.058C73.5609 17.6226 74.0334 17.9907 74.7391 17.9907ZM81.5102 19.0523C80.24 19.0523 79.3073 18.5307 79.0005 17.7391C78.9575 17.641 78.9453 17.5489 78.9453 17.463C78.9453 17.1317 79.1846 16.9353 79.5159 16.9353C79.7368 16.9353 79.9271 17.0396 80.0927 17.2851C80.4241 17.8066 80.8107 18.0398 81.5777 18.0398C82.3324 18.0398 82.8417 17.7146 82.8417 17.1808C82.8417 16.7574 82.5902 16.5303 81.8968 16.3646L80.8782 16.1253C79.6264 15.8308 79.0128 15.2172 79.0128 14.2968C79.0128 13.1309 80.0252 12.3577 81.5593 12.3577C82.7252 12.3577 83.6824 12.9529 83.8665 13.7138C83.8788 13.7874 83.891 13.8488 83.891 13.9102C83.891 14.2047 83.707 14.4011 83.3756 14.4011C83.1608 14.4011 82.9706 14.3274 82.8417 14.1188C82.5533 13.6279 82.1606 13.3702 81.5102 13.3702C80.7984 13.3702 80.3075 13.7199 80.3075 14.2231C80.3075 14.6281 80.6205 14.9104 81.3016 15.0699L82.3018 15.3031C83.6579 15.616 84.1794 16.1008 84.1794 17.058C84.1794 18.2546 83.1056 19.0523 81.5102 19.0523ZM86.0416 19.0462C85.6551 19.0462 85.3789 18.7823 85.3789 18.3466V10.6457C85.3789 10.2285 85.6305 9.95847 86.0355 9.95847C86.4466 9.95847 86.6921 10.2285 86.6921 10.6457V13.5543H86.7228C87.0787 12.7995 87.7843 12.3639 88.7661 12.3639C90.1836 12.3639 91.0304 13.3088 91.0304 14.7692V18.3466C91.0304 18.7823 90.7542 19.0462 90.3615 19.0462C89.9749 19.0462 89.6988 18.7823 89.6988 18.3466V15.027C89.6988 14.0758 89.2202 13.5052 88.2875 13.5052C87.3057 13.5052 86.7044 14.1802 86.7044 15.1988V18.3466C86.7044 18.7823 86.4282 19.0462 86.0416 19.0462Z" fill="#1A1A1A"/>
<defs>
<clipPath id="clip0_1772_26964">
<rect width="11.9296" height="14.251" fill="white" transform="matrix(-1 0 0 -1 22.4219 21.5551)"/>
</clipPath>
</defs>
</svg>
