<svg width="124" height="96" viewBox="0 0 124 96" fill="none" xmlns="http://www.w3.org/2000/svg">
<path d="M86.5179 53.8287C86.5166 53.829 86.5149 53.8287 86.5149 53.8287C86.5149 53.8287 86.5178 53.8281 86.5204 53.8275L86.5179 53.8287Z" fill="white"/>
<path d="M86.5253 53.8269L86.524 53.8263H86.5265L86.5253 53.8269Z" fill="white"/>
<path fill-rule="evenodd" clip-rule="evenodd" d="M50.811 0.261622C53.4114 -0.307577 56.2603 0.00824813 58.9376 1.64247L58.9382 1.64307C61.4822 3.19627 63.4894 5.70248 65.096 8.84406C66.4091 11.412 65.3923 14.5585 62.8242 15.872L62.8236 15.8726C60.2558 17.1853 57.109 16.1685 55.7957 13.6002C54.7224 11.5014 53.8509 10.7754 53.4953 10.5582C53.3394 10.4631 53.2615 10.4506 53.2442 10.4479C53.2241 10.4448 53.169 10.4383 53.0444 10.4656C52.7176 10.5372 52.1585 10.797 51.4563 11.3803C50.7813 11.941 50.1385 12.6654 49.6398 13.3961C49.4752 13.6373 49.2922 13.8589 49.0968 14.0634C54.7102 15.3079 58.6946 18.4459 61.6877 20.7823C64.0381 22.617 65.3395 23.5797 66.5743 24.026C67.3489 24.306 68.2165 24.4418 69.8637 23.6074C77.168 19.9071 83.9248 17.6763 89.5112 16.9756C90.7561 15.8976 92.2481 15.0427 93.9218 14.5015C99.7175 12.6277 106.453 15.0932 108.383 21.0614C109.249 23.7392 108.886 26.471 107.717 28.7913C108.753 31.8125 109.652 35.5424 109.725 39.4883C109.797 43.3588 108.55 48.4772 106.24 52.954C106.759 52.2235 107.86 51.7219 108.736 51.3268L109.046 51.1903C110.613 50.5206 113.129 49.7141 115.682 49.8265L115.947 49.841L116.23 49.8648C117.682 50.0068 119.59 50.5144 121.186 52.0392C122.879 53.657 123.539 55.7576 123.608 57.7551L123.614 58.1528C123.603 60.6945 122.767 62.9867 121.012 64.7254C119.475 66.2476 117.637 66.9125 116.617 67.2513C116.06 67.4361 115.573 67.5803 115.275 67.6719C114.851 68.3204 114.292 68.857 113.647 69.2544C113.706 69.7987 113.68 70.3602 113.558 70.921L113.494 71.1823L112.886 73.4141C112.128 76.1967 109.258 77.8384 106.475 77.0811L106.474 77.0809C103.691 76.3223 102.05 73.4512 102.808 70.6694L103.415 68.4376L103.493 68.1798C103.89 66.9686 104.695 65.994 105.712 65.3666C105.645 64.7376 105.69 64.0857 105.866 63.4385L105.943 63.1744C106.33 61.9258 106.972 60.9621 107.69 60.2206C107.101 59.7657 106.209 59.053 105.712 58.0046C105.245 57.0191 105.23 55.9699 105.229 55.2541C102.808 57.5792 100.552 58.5212 97.4885 60.1388C97.3931 62.8724 97.1804 65.3931 96.867 68.578L96.6927 70.3227C96.6867 70.3818 96.678 70.6212 96.7262 71.0972C96.7719 71.5489 96.8596 72.1261 96.9992 72.8229C97.2707 74.1781 97.6818 75.7189 98.1302 77.2171C98.5746 78.7019 99.0352 80.0756 99.3861 81.0824C99.561 81.5842 99.7067 81.9898 99.8072 82.2652C99.856 82.399 99.8943 82.5024 99.9224 82.5778C99.9337 82.6084 99.9433 82.6352 99.9498 82.6534C99.9513 82.6574 99.9535 82.6616 99.9553 82.6662L99.9595 82.6784C99.96 82.6796 99.9608 82.682 99.9608 82.682L99.9614 82.6826V82.6839C100.972 85.378 99.4208 88.698 95.8146 89.1586C92.2083 89.6191 92.4367 88.2226 88.6927 88.5346C84.9487 88.8466 85.4467 90.0115 82.6326 90.3364C80.2095 90.6156 78.4356 89.4643 77.2919 87.2371C76.8367 86.3506 76.7064 84.5924 76.7064 84.5924C76.6165 83.8655 76.4883 82.8586 76.3347 81.7363C76.0202 79.4385 75.6227 76.8321 75.2488 75.1154C74.67 72.4583 73.9018 71.1693 72.5078 68.8291C65.4146 71.469 58.7709 71.9433 51.1053 70.9851C50.4233 70.8997 49.7888 70.6855 49.2224 70.3714C49.8685 73.1562 50.2292 76.7292 49.6684 80.9362C48.9763 86.128 46.1529 89.9771 42.2615 92.4046C38.5404 94.7258 34.0298 95.6568 29.6712 95.7519C21.0636 95.9395 11.1284 92.8944 4.738 87.3955C1.0592 84.2298 -0.0321874 79.796 0.000717766 75.7431C0.0334064 71.7273 1.14715 67.4486 2.62103 63.4715C5.58336 55.4781 10.5198 47.3366 14.1449 42.2591C14.7163 41.459 15.4723 40.8686 16.3131 40.5041C15.2486 37.1484 14.8304 33.7985 15.385 30.5719C15.9615 27.2191 17.5347 24.3225 19.9218 21.9535C22.913 18.9852 27.0555 16.9622 31.8942 15.5673C31.5107 13.4584 32.4588 11.2432 34.4213 10.1097C36.2634 9.0463 38.4843 9.23352 40.1019 10.4065C40.1096 9.40593 40.4047 8.39634 41.011 7.5077L41.3468 7.03178C43.1238 4.58756 46.4051 1.22611 50.811 0.261622ZM19.6171 43.5833C18.672 42.9087 17.359 43.1278 16.6842 44.0726C13.1568 49.0132 8.3816 56.9059 5.54664 64.5556L5.28644 65.2722C4.01292 68.8575 3.14744 72.4844 3.12072 75.7687V76.0983C3.15275 79.4993 4.12204 82.7491 6.77331 85.0306C12.3094 89.7943 21.0669 92.6255 28.8528 92.6398L29.6029 92.6325C33.4836 92.5479 37.2704 91.7413 40.3176 89.9354L40.6101 89.7575C43.6757 87.8451 45.8753 84.9125 46.5186 80.9142L46.5759 80.5242C47.151 76.2092 46.6497 72.6702 45.9372 70.1057L45.7922 69.6061C45.6529 69.1461 45.5075 68.7215 45.3632 68.3337C45.1073 67.4073 44.6878 66.5107 44.131 65.6866C44.0945 65.6249 44.0641 65.5724 44.0384 65.5312C44.0205 65.5025 44.0047 65.4785 43.9927 65.4599C43.9868 65.4507 43.9813 65.4422 43.9769 65.4355L43.9683 65.4227L43.9671 65.4203C43.9671 65.4203 43.9635 65.4225 43.9519 65.43L43.9513 65.4282L43.9659 65.419C43.8839 65.2958 43.7913 65.1838 43.6899 65.0839C41.3408 62.1248 37.148 60.3522 32.5785 62.087L32.3853 62.229C24.3368 68.2978 32.1073 80.0703 42.0592 76.5974C42.2513 76.472 42.4346 76.3422 42.61 76.2099C42.6403 77.3606 42.5868 78.6162 42.4065 79.9685L42.3681 80.2329C41.9364 82.938 40.5147 84.8488 38.4182 86.1676C38.4438 82.6681 34.4657 78.9631 30.1611 80.6376L29.8997 80.8466C27.3028 83.0424 27.8681 86.3769 29.9478 88.4126C29.8031 88.4181 29.6572 88.424 29.5109 88.4272C25.2307 88.5205 20.5955 87.6106 16.5355 85.9696C18.426 85.9801 20.4457 85.6269 22.536 84.8221C34.7211 76.5734 23.9428 59.8677 10.0182 64.6464C12.5569 58.3061 16.4076 51.8349 19.4995 47.3803L20.107 46.5168C20.7818 45.5717 20.5622 44.2581 19.6171 43.5833ZM38.8545 13.5813C38.2738 12.5758 36.9875 12.2312 35.9819 12.8117C34.9765 13.3924 34.632 14.6781 35.2122 15.6837C35.5865 16.3319 35.7702 17.039 35.7753 17.7988C29.8048 19.1295 25.1443 21.1661 22.1192 24.168L21.7615 24.5355C20.0148 26.3956 18.8918 28.5889 18.4599 31.1009L18.4197 31.3501C18.0262 33.9306 18.3691 36.7272 19.3319 39.7052L19.3679 39.807C19.7505 40.8134 20.8362 41.3687 21.8761 41.0897L21.9797 41.0593C23.0845 40.702 23.6906 39.5164 23.3337 38.4115C22.5389 35.9534 22.3213 33.8891 22.5525 32.1557L22.6049 31.8132C22.9096 30.0412 23.7178 28.5072 25.082 27.1533C26.9423 25.3073 29.8682 23.7688 33.9813 22.5897C32.4427 24.8697 30.2497 26.8937 28.6383 28.0784C27.7027 28.7662 27.5021 30.0829 28.1898 31.0186C28.8562 31.9248 30.112 32.1413 31.0405 31.5287L31.1294 31.4671C33.0693 30.041 35.7587 27.5737 37.6558 24.6592L37.8368 24.3758C38.4093 23.4623 38.9303 22.452 39.317 21.3819C39.6393 21.3251 39.9668 21.2695 40.2993 21.2156L41.3115 21.059C46.7069 20.2613 50.4574 21.8223 53.7714 24.0364C52.8966 25.4525 52.8724 27.7201 53.8622 29.89C55.1696 32.7561 57.7645 34.3996 59.7505 33.6669L59.9407 33.5889C61.1882 33.0199 61.8657 31.5913 61.8767 29.8815C62.5891 30.2854 63.3239 30.6401 64.0844 30.915C66.7431 31.8758 69.6081 31.8578 72.8588 30.2983L73.1745 30.1429C79.1684 27.1065 84.4737 25.2885 88.7208 24.5093C88.6194 25.443 88.7068 26.3963 89.0072 27.3258C90.2935 31.3038 95.0091 33.3414 99.5397 31.8766C99.9963 31.729 100.433 31.5505 100.849 31.3464C101.667 33.7722 102.346 36.6683 102.401 39.6248C102.456 42.584 101.886 45.509 100.298 48.0909L100.052 48.4772C98.7728 50.4033 96.8388 52.2204 93.9535 53.7215C93.7515 53.1476 93.486 52.6249 93.1571 52.1554L93.0121 51.9573C92.135 50.8094 90.9986 50.1844 89.9414 49.8599L89.7312 49.7989C88.6366 49.5 87.5918 49.494 86.8616 49.5466C86.7873 49.552 86.7147 49.5584 86.6453 49.5649L86.312 49.3035L85.9348 49.0201C85.1784 48.4649 84.0666 47.7182 82.947 47.2859L82.7228 47.2036C81.4559 46.7643 80.2621 46.4967 79.0226 46.465L78.774 46.462C77.445 46.4621 76.1775 46.7351 74.8265 47.2036L74.6278 47.2719L74.4468 47.3791L73.9953 47.6515C71.7649 49.0288 69.9796 50.6393 69.4018 52.8909L69.3488 53.1158C68.845 55.444 69.7699 57.7931 71.1702 60.1516C71.3908 60.5231 71.5997 60.8816 71.7985 61.2271C65.2082 64.0545 59.3294 64.6302 52.0139 63.7158C50.8617 63.572 49.8107 64.3899 49.6666 65.5421C49.5228 66.6943 50.3401 67.7453 51.4923 67.8894C59.6105 68.9042 66.3374 68.2202 73.8381 64.9254C75.9716 68.6771 77.4193 70.4196 78.2975 74.4512C78.7 76.299 79.1112 79.0131 79.426 81.3134C79.582 82.453 79.7116 83.4741 79.8026 84.2097C79.8481 84.577 79.8838 84.8733 79.9081 85.0769C79.9202 85.1785 79.9293 85.258 79.9355 85.3109L79.9428 85.3706C79.9435 85.3768 79.9442 85.382 79.9446 85.3852V85.3889L79.9452 85.3895C80.0742 86.5069 81.057 87.3181 82.167 87.2468L82.2749 87.2371C83.3924 87.1081 84.2041 86.1254 84.1329 85.0153L84.1231 84.9075L84.1225 84.9062L84.1219 84.9014L84.1207 84.8849L84.1127 84.8215L84.0847 84.5796L83.9768 83.6936C83.9305 83.3191 83.8744 82.8718 83.8099 82.3731L83.5929 80.743C83.317 78.727 82.9531 76.2861 82.571 74.3513L82.4065 73.556C81.3134 68.5382 79.1158 65.774 77.0154 61.984L76.5967 61.2113C76.0769 60.2272 75.4778 59.1679 74.7869 58.0042C73.4461 55.7459 73.3024 54.6113 73.4755 53.936C73.5836 53.5149 73.8859 52.9958 74.6467 52.3419C74.8102 52.7167 74.9591 53.0642 75.0879 53.3729C75.2682 53.805 75.4109 54.1596 75.5078 54.404C75.5561 54.5259 75.593 54.6213 75.6174 54.6843C75.6295 54.7153 75.639 54.7386 75.6449 54.7538C75.6476 54.7609 75.6497 54.7668 75.651 54.7702C75.6514 54.7715 75.6522 54.7739 75.6522 54.7739L75.693 54.8744C76.1267 55.8609 77.2412 56.3601 78.2664 56.0267L78.3651 55.992C79.4165 55.5922 79.9611 54.4405 79.6192 53.3821L79.5839 53.2797L79.582 53.276C79.5815 53.2745 79.5805 53.2723 79.5796 53.2699C79.5775 53.2645 79.5747 53.2564 79.5711 53.2468C79.5636 53.2273 79.552 53.1991 79.5382 53.1633C79.5102 53.0912 79.4699 52.9864 79.4175 52.8543C79.3126 52.5897 79.1602 52.2114 78.969 51.7532C78.8345 51.4307 78.6786 51.0674 78.5071 50.674C78.5973 50.6696 78.6866 50.6673 78.7746 50.6673C79.5019 50.6673 80.2909 50.8114 81.3443 51.1767C81.9077 51.3721 82.6948 51.8586 83.4461 52.4101C83.5524 52.4881 83.6544 52.5655 83.7508 52.6392L83.3254 55.1468L83.3102 55.2541C83.1799 56.3587 83.9373 57.3831 85.0463 57.5715C86.1912 57.7659 87.2766 56.9955 87.471 55.8506L87.8299 53.7349C88.0953 53.7494 88.3663 53.7861 88.6227 53.8561C89.0816 53.9815 89.4254 54.1896 89.6702 54.51C89.915 54.8304 90.2217 55.4736 90.2217 56.7629C90.2217 61.1361 89.9482 64.2045 89.4045 69.5866L89.3826 69.8468C89.295 71.1655 89.5139 72.7519 89.8165 74.2623C90.1497 75.925 90.6291 77.7043 91.112 79.3177C91.5964 80.936 92.0931 82.4176 92.4679 83.4931C92.6555 84.0316 92.8135 84.471 92.9249 84.7764C92.9806 84.9289 93.0254 85.0484 93.0559 85.1305C93.0711 85.1714 93.0825 85.2037 93.0907 85.2256C93.0947 85.2363 93.0982 85.2452 93.1004 85.2511C93.1014 85.2539 93.1028 85.2562 93.1035 85.2579L93.1041 85.2609L93.1047 85.2615C93.5154 86.3475 94.7284 86.8954 95.8146 86.4851C96.8668 86.0874 97.414 84.9356 97.0741 83.8764L97.0382 83.774L97.0364 83.7691L97.0284 83.749L96.998 83.6649L96.8761 83.3347L96.4398 82.1092C96.1691 81.3324 95.8335 80.3393 95.4879 79.2409L95.1412 78.1117C94.736 76.7578 94.3484 75.3312 94.0583 74.0003L93.9401 73.436C93.6513 71.9946 93.5324 70.8668 93.5776 70.1478L93.5885 70.0095C94.0771 65.1721 94.3622 62.0637 94.4167 58.1656C98.7474 56.2301 101.751 53.6146 103.696 50.5881L103.881 50.2937C105.861 47.0737 106.582 43.5579 106.61 40.2135L106.606 39.5468C106.529 35.427 105.442 31.491 104.281 28.4647C105.591 26.6271 106.096 24.3739 105.477 22.2284L105.414 22.0212C104.128 18.0433 99.4121 16.0056 94.8816 17.4704L94.5855 17.5709C93.1202 18.096 91.867 18.9346 90.8963 19.9627C90.7469 19.9764 90.5965 19.9916 90.4454 20.0078L89.953 20.0645C84.8228 20.699 78.398 22.782 71.2738 26.391L71.052 26.5007C68.9245 27.5252 67.2985 27.5293 65.8181 27.0632L65.514 26.9602C63.9393 26.3911 62.4273 25.3027 60.5811 23.8743L59.7682 23.2418C55.4389 19.8623 49.8866 15.5397 40.6954 16.8988C40.4457 16.9357 40.1976 16.9734 39.9513 17.0121C39.8472 15.8712 39.5096 14.7161 38.8545 13.5813ZM109.007 67.7809C107.886 67.476 106.731 68.137 106.426 69.2574L105.818 71.4892C105.513 72.6095 106.174 73.7656 107.294 74.0709C108.38 74.3663 109.499 73.7549 109.845 72.6978L109.876 72.5943L110.484 70.3625C110.789 69.242 110.127 68.0861 109.007 67.7809ZM45.6435 68.0515C45.6446 68.0508 45.6466 68.0497 45.6466 68.0497C45.6487 68.0483 45.6508 68.0467 45.6508 68.0467L45.6435 68.0515ZM115.731 52.954C113.66 52.8106 110.671 53.6704 109.285 54.2955C108.227 54.7733 107.872 56.0908 108.349 57.1493C108.827 58.2076 110.69 58.482 111.749 58.0046C112.873 57.4972 114.38 57.0759 115.44 57.1493C115.94 57.184 116.1 57.3116 116.126 57.3368C116.137 57.3474 116.168 57.3788 116.202 57.472C116.24 57.5757 116.29 57.778 116.288 58.1232L116.285 58.2825C116.254 59.0479 116.028 59.3515 115.857 59.5211L115.747 59.62C115.468 59.8479 115.03 60.0599 114.309 60.2991C113.666 60.5125 112.436 60.8383 111.541 61.2646C110.508 61.7567 109.321 62.6245 108.876 64.2583C108.571 65.3787 109.233 66.5346 110.353 66.8399C111.439 67.1354 112.558 66.5244 112.904 65.4673L112.935 65.3638C112.945 65.3274 112.951 65.3184 112.973 65.2965C113.013 65.2564 113.115 65.173 113.349 65.0615C113.79 64.8516 114.227 64.7306 114.889 64.5273L115.634 64.2903C116.51 63.9995 117.663 63.5567 118.626 62.688L118.816 62.5087C119.833 61.5015 120.411 60.1577 120.486 58.4799L120.494 58.1403C120.5 56.7308 120.113 55.4484 119.217 54.4839L119.031 54.2955C118.043 53.3522 116.796 53.0278 115.731 52.954ZM25.9631 63.5787C29.5587 61.125 25.7859 55.4611 21.5714 57.1005L21.4123 57.2266C18.2294 59.8752 21.6403 64.9167 25.7633 63.6451L25.9631 63.5787ZM98.3295 40.4846C97.0516 40.1549 94.9919 39.8565 92.7518 39.9575L92.3302 39.9813C90.2014 40.1248 87.7715 40.6542 85.7032 42.0331C84.737 42.6772 84.476 43.9827 85.12 44.9489C85.7441 45.8849 86.9888 46.1594 87.9445 45.59L88.2736 45.3816C89.483 44.6532 91.0125 44.2863 92.6013 44.1781L92.9414 44.1592C94.742 44.078 96.3838 44.3261 97.2789 44.5571C98.4033 44.8472 99.5498 44.1707 99.8401 43.0464C100.121 41.9572 99.4952 40.8467 98.4337 40.5145L98.3295 40.4846ZM45.2425 33.4793C43.893 30.5208 41.1716 28.8647 39.164 29.7804C37.1567 30.6962 36.6233 33.8371 37.9727 36.7955C39.2801 39.6615 41.875 41.3045 43.8611 40.5718L44.0512 40.4938C45.9959 39.6066 46.5573 36.6318 45.3638 33.7571L45.2425 33.4793ZM57.3124 4.30604C55.3688 3.11961 53.3497 2.89953 51.4783 3.30911L51.148 3.38832C47.7618 4.26883 45.0555 7.11634 43.5881 9.26636C42.9337 10.2255 43.1812 11.5336 44.1402 12.1883C45.0695 12.8225 46.3265 12.6107 46.9994 11.7246L47.0627 11.6368C48.3543 9.74476 50.3992 7.8506 52.3771 7.41751C53.2647 7.22322 54.1651 7.31212 55.1205 7.89526C56.1294 8.51117 57.3409 9.76867 58.5738 12.1798C59.0861 13.1812 60.2909 13.5968 61.3057 13.1414L61.4038 13.0944C62.4053 12.5821 62.8211 11.3768 62.3654 10.362L62.3184 10.2645C60.9161 7.52214 59.3063 5.58387 57.4885 4.41634L57.3124 4.30604Z" fill="white"/>
<path fill-rule="evenodd" clip-rule="evenodd" d="M86.5149 53.8287C86.5149 53.8287 86.5166 53.829 86.5179 53.8287L86.5204 53.8275C86.5178 53.8281 86.5149 53.8287 86.5149 53.8287ZM86.5253 53.8269L86.5265 53.8263H86.524L86.5253 53.8269Z" fill="#1A1A1A"/>
<path d="M16.6841 43.9169C17.3589 42.9718 18.6719 42.7529 19.617 43.4275C20.5622 44.1024 20.7818 45.4159 20.107 46.3611C16.9266 50.8157 12.726 57.7275 10.0181 64.4906C23.9428 59.7118 34.7213 76.4176 22.5359 84.6664C20.4456 85.4712 18.4259 85.8244 16.5354 85.8138C20.5955 87.4548 25.2312 88.3647 29.5114 88.2714C29.6577 88.2682 29.8031 88.2623 29.9477 88.2568C27.8008 86.1554 27.2677 82.6701 30.161 80.4818C34.4658 78.8073 38.4439 82.5122 38.4181 86.0119C40.5824 84.6505 42.027 82.6583 42.4064 79.8127C42.5867 78.4604 42.6402 77.2049 42.61 76.0541C42.4345 76.1864 42.2513 76.3162 42.0591 76.4416C32.0289 79.9419 24.2146 67.956 32.5784 61.9312C37.148 60.1963 41.3407 61.9689 43.6898 64.9281C43.7912 65.028 43.8838 65.14 43.9658 65.2633L43.9512 65.2724L43.9518 65.2742C43.9645 65.266 43.967 65.2645 43.967 65.2645L43.9683 65.2669C43.969 65.2681 43.9698 65.2693 43.9707 65.2706C43.9724 65.2732 43.9747 65.2759 43.9768 65.2791C43.9812 65.2859 43.9866 65.2948 43.9926 65.3041C44.0047 65.3228 44.0204 65.3466 44.0383 65.3754C44.064 65.4166 44.0943 65.469 44.131 65.5308C44.6878 66.355 45.1073 67.2514 45.3631 68.1779C45.5074 68.5658 45.6528 68.9902 45.7921 69.4503C46.578 72.0461 47.1892 75.7652 46.5758 80.3678C46.0161 84.5662 43.7746 87.6276 40.61 89.6017C37.5145 91.5326 33.6087 92.3894 29.6028 92.4767C21.635 92.6504 12.4879 89.7922 6.77322 84.8748C4.0363 82.5196 3.09205 79.1329 3.12063 75.6129C3.14909 72.1095 4.13206 68.2166 5.54655 64.3998C8.38151 56.75 13.1567 48.8575 16.6841 43.9169Z" fill="#1A1A1A"/>
<path fill-rule="evenodd" clip-rule="evenodd" d="M35.9818 12.6559C36.9875 12.0753 38.2737 12.4199 38.8544 13.4256C39.5094 14.5602 39.8471 15.7149 39.9513 16.8558C40.1975 16.817 40.4455 16.7793 40.6953 16.7424C49.8864 15.3833 55.4388 19.7059 59.7681 23.0854C61.9965 24.8249 63.7142 26.154 65.5139 26.8044C67.1271 27.3874 68.8876 27.4441 71.2737 26.2353C78.6278 22.5098 85.2365 20.4107 90.4453 19.8521C90.5964 19.8358 90.7468 19.8206 90.8962 19.807C91.9317 18.7102 93.2886 17.8296 94.8815 17.3146C99.4121 15.8498 104.128 17.8874 105.414 21.8654C106.128 24.0725 105.634 26.412 104.281 28.309C105.442 31.3352 106.529 35.2706 106.606 39.3904C106.672 42.9315 105.993 46.703 103.881 50.138C101.943 53.2893 98.8871 56.0119 94.4166 58.0099C94.3621 61.908 94.077 65.0162 93.5884 69.8537C93.517 70.562 93.632 71.7427 93.94 73.2802C94.2378 74.7663 94.678 76.4085 95.1411 77.9559C95.6027 79.498 96.0788 80.9177 96.4397 81.9534C96.6199 82.4704 96.7707 82.8901 96.876 83.1789C96.9286 83.323 96.9701 83.4345 96.9979 83.5092C97.0117 83.5463 97.0215 83.5749 97.0284 83.5932C97.0317 83.6023 97.0347 83.6091 97.0363 83.6134C97.0371 83.6154 97.0381 83.6182 97.0381 83.6182C97.4487 84.7046 96.9009 85.9188 95.8145 86.3293C94.7283 86.7396 93.5153 86.1917 93.1046 85.1057L95.0717 84.3623L93.104 85.1051L93.1034 85.1021C93.1027 85.1004 93.1014 85.0982 93.1003 85.0954C93.0981 85.0894 93.0947 85.0807 93.0906 85.0698C93.0824 85.0479 93.0711 85.0157 93.0558 84.9747C93.0253 84.8925 92.9805 84.7732 92.9248 84.6207C92.8134 84.3152 92.6555 83.8759 92.4678 83.3373C92.093 82.2618 91.5963 80.7803 91.1119 79.1619C90.629 77.5484 90.1496 75.7693 89.8164 74.1065C89.4936 72.4953 89.2664 70.7978 89.4045 69.4308C89.9481 64.0486 90.2216 60.9804 90.2216 56.6071C90.2216 55.3176 89.9149 54.6746 89.6702 54.3542C89.4253 54.0337 89.0815 53.8257 88.6226 53.7004C88.3662 53.6303 88.0953 53.5936 87.8298 53.5791L87.4715 55.6949C87.2771 56.8398 86.1912 57.6101 85.0462 57.4157C83.9014 57.2213 83.131 56.1359 83.3253 54.991L83.7507 52.4835C83.6542 52.4097 83.5524 52.3324 83.446 52.2543C82.6946 51.7028 81.9076 51.2163 81.3443 51.021C80.2908 50.6556 79.5018 50.5116 78.7745 50.5115C78.6865 50.5115 78.5973 50.5139 78.507 50.5182C78.6786 50.9118 78.8344 51.2749 78.9689 51.5974C79.1602 52.0558 79.3125 52.4339 79.4174 52.6986C79.4698 52.8307 79.5101 52.9354 79.5381 53.0075C79.552 53.0435 79.5635 53.0715 79.571 53.091C79.5747 53.1007 79.5774 53.1087 79.5795 53.1142C79.5805 53.1167 79.5814 53.1187 79.5819 53.1203L79.5832 53.1221L79.5838 53.1233L79.6191 53.2263C79.9611 54.2847 79.4165 55.4364 78.365 55.8362C77.3135 56.236 76.1405 55.737 75.6929 54.7186L75.6521 54.6181C75.6521 54.6181 75.6515 54.616 75.6509 54.6144C75.6496 54.611 75.6476 54.6053 75.6448 54.598C75.6389 54.5828 75.6295 54.5592 75.6174 54.5279C75.5929 54.4649 75.556 54.3701 75.5077 54.2482C75.4108 54.0038 75.2682 53.6489 75.0878 53.2165C74.959 52.9078 74.8101 52.5609 74.6466 52.1861C73.8857 52.8402 73.5835 53.359 73.4754 53.7802C73.3022 54.4555 73.4458 55.5899 74.7868 57.8484C75.4777 59.012 76.0768 60.0709 76.5966 61.0549C78.8177 65.2594 81.2405 68.0476 82.4064 73.4003C82.8474 75.4247 83.2775 78.2832 83.5929 80.5872C83.7519 81.7494 83.8841 82.7889 83.9768 83.5378C84.0231 83.9123 84.0597 84.2146 84.0846 84.4238C84.0971 84.5284 84.1062 84.6103 84.1127 84.6657C84.1159 84.6933 84.1189 84.7147 84.1206 84.7291C84.1214 84.7361 84.1214 84.7418 84.1218 84.7456C84.122 84.7475 84.1224 84.7505 84.1224 84.7505L84.123 84.7517C84.2561 85.9053 83.4284 86.9482 82.2748 87.0813C81.1212 87.2143 80.0783 86.3873 79.9451 85.2337L79.9445 85.2325V85.2294C79.9442 85.2262 79.9434 85.2212 79.9427 85.2148C79.9412 85.2016 79.9385 85.1814 79.9354 85.1551C79.9292 85.1021 79.9201 85.0229 79.908 84.9211C79.8837 84.7175 79.848 84.4214 79.8025 84.0539C79.7115 83.3183 79.582 82.2974 79.4259 81.1576C79.1111 78.8573 78.6999 76.1433 78.2974 74.2954C77.4192 70.2637 75.9715 68.5214 73.838 64.7697C66.3373 68.0644 59.6104 68.7484 51.4922 67.7337C50.34 67.5896 49.5227 66.5386 49.6665 65.3864C49.8106 64.2341 50.8615 63.4162 52.0138 63.5601C59.3293 64.4745 65.2081 63.8987 71.7984 61.0714C71.5996 60.7258 71.3908 60.3674 71.1701 59.9958C69.7247 57.5613 68.7857 55.137 69.4017 52.7351C70.018 50.3334 72.008 48.6613 74.4467 47.2233L74.6277 47.1161L74.8264 47.0478C76.1775 46.5793 77.4449 46.3057 78.7739 46.3056C80.1032 46.3056 81.3714 46.5792 82.7227 47.0478C83.9166 47.4619 85.1278 48.2721 85.9347 48.8644C86.199 49.0584 86.4386 49.2452 86.6452 49.4092C86.7146 49.4026 86.7872 49.3962 86.8615 49.3909C87.5917 49.3382 88.6365 49.3436 89.7311 49.6426C90.846 49.9471 92.0765 50.577 93.012 51.8016C93.4086 52.3209 93.7225 52.9097 93.9535 53.5657C97.031 51.9646 99.026 50.0041 100.298 47.9351C101.886 45.3532 102.456 42.4283 102.401 39.4691C102.346 36.5126 101.667 33.6164 100.85 31.1907C100.434 31.3949 99.9964 31.5731 99.5396 31.7209C95.0089 33.1857 90.2934 31.1482 89.0072 27.17C88.7066 26.2405 88.6193 25.2873 88.7207 24.3535C84.4736 25.1328 79.1684 26.9507 73.1744 29.9872C69.793 31.7001 66.8287 31.7511 64.0843 30.7593C63.3238 30.4844 62.589 30.1296 61.8766 29.7258C61.8656 31.4356 61.1881 32.8641 59.9406 33.4332C57.933 34.3488 55.2116 32.6927 53.8621 29.7343C52.8721 27.5641 52.8962 25.2962 53.7713 23.88C50.4574 21.666 46.7067 20.1056 41.3114 20.9032C40.6264 21.0045 39.9615 21.1124 39.3169 21.2262C38.9302 22.2963 38.4093 23.3065 37.8367 24.2201C35.9328 27.2578 33.1318 29.8393 31.1293 31.3114C30.1937 31.9992 28.8776 31.7984 28.1897 30.8629C27.5019 29.9271 27.7025 28.6105 28.6382 27.9226C30.2497 26.738 32.4425 24.714 33.9812 22.434C29.868 23.6131 26.9422 25.1515 25.0819 26.9976C23.7176 28.3515 22.9094 29.8854 22.6048 31.6575C22.295 33.4598 22.4858 35.6331 23.3336 38.2552C23.6908 39.3602 23.0846 40.5463 21.9796 40.9035C20.8746 41.2607 19.6892 40.6543 19.3318 39.5495C18.3379 36.4752 18.0044 33.5946 18.4598 30.9451C18.9205 28.2655 20.1675 25.9491 22.1191 24.0123C25.1442 21.0102 29.8046 18.9737 35.7752 17.6431C35.7702 16.8831 35.5864 16.1762 35.2121 15.5279C34.6318 14.5223 34.9763 13.2366 35.9818 12.6559ZM86.5148 53.673C86.5148 53.673 86.5164 53.6727 86.5179 53.6723L86.5203 53.6717C86.5175 53.6724 86.5148 53.673 86.5148 53.673Z" fill="#1A1A1A"/>
<path d="M106.446 69.3298C106.744 68.2074 107.725 67.2166 109.285 67.6306C110.407 67.9285 110.808 69.2862 110.511 70.4087L109.917 72.6443C109.619 73.7666 108.468 74.4353 107.345 74.1376C106.223 73.8396 105.555 72.6879 105.853 71.5655L106.446 69.3298Z" fill="#1A1A1A"/>
<path d="M109.285 54.2146C110.666 53.5805 113.574 52.8366 115.645 52.9666C116.71 53.0335 117.96 53.3496 118.954 54.2867C119.989 55.2628 120.438 56.6184 120.442 58.1219C120.446 59.9589 119.87 61.4198 118.792 62.5011C117.801 63.496 116.554 63.987 115.622 64.3033C114.509 64.6807 113.928 64.8055 113.342 65.0892C113.108 65.2023 113.006 65.2864 112.967 65.3266C112.945 65.3487 112.939 65.3572 112.929 65.3936C112.631 66.516 111.48 67.1848 110.357 66.8869C109.235 66.589 108.566 65.4374 108.864 64.315C109.298 62.6782 110.479 61.8029 111.509 61.3041C112.401 60.872 113.629 60.5383 114.271 60.3207C115.093 60.0419 115.546 59.8006 115.814 59.5321C115.995 59.35 116.238 59.0156 116.236 58.132C116.235 57.7865 116.185 57.5848 116.146 57.4814C116.111 57.3881 116.08 57.3572 116.069 57.3467C116.043 57.322 115.882 57.1951 115.382 57.1637C114.321 57.0971 112.817 57.5275 111.696 58.0423C110.64 58.5265 108.833 58.3898 108.349 57.3346C107.864 56.2792 108.116 54.7513 109.285 54.2146Z" fill="#1A1A1A"/>
<path d="M21.5713 56.9447C25.7859 55.3053 29.5587 60.9692 25.963 63.423C21.6851 64.9479 18.0647 59.5967 21.5713 56.9447Z" fill="#1A1A1A"/>
<path d="M92.7518 39.8018C94.9919 39.7007 97.0515 39.9991 98.3294 40.3289C99.4539 40.6191 100.13 41.7662 99.84 42.8907C99.5497 44.015 98.4032 44.6914 97.2788 44.4013C96.3837 44.1703 94.7419 43.9222 92.9413 44.0034C91.1253 44.0853 89.3622 44.4921 88.0358 45.3763C87.0695 46.0205 85.7642 45.7594 85.1199 44.7931C84.4758 43.8268 84.7368 42.5215 85.7031 41.8773C87.9094 40.4065 90.527 39.9021 92.7518 39.8018Z" fill="#1A1A1A"/>
<path d="M39.1639 29.6246C41.1714 28.7089 43.8929 30.3646 45.2425 33.3229C46.592 36.2814 46.0587 39.4222 44.0511 40.338C42.0435 41.2538 39.3221 39.5977 37.9726 36.6391C36.6233 33.6807 37.1566 30.5405 39.1639 29.6246Z" fill="#1A1A1A"/>
<path d="M51.276 3.35858C53.1429 2.92822 55.1642 3.12551 57.1209 4.29048C59.0238 5.42343 60.7138 7.37898 62.1926 10.1936C62.7327 11.2217 62.3373 12.4931 61.3092 13.0333C60.2811 13.5733 59.0097 13.1778 58.4695 12.1498C57.2099 9.75243 55.9849 8.50883 54.9692 7.90411C54.0073 7.33141 53.1063 7.25256 52.2208 7.45668C50.2476 7.91157 48.2235 9.82825 46.953 11.7346C46.309 12.701 45.003 12.9625 44.0366 12.3185C43.0703 11.6745 42.8089 10.369 43.4527 9.40267C44.9428 7.16662 47.7446 4.1727 51.276 3.35858Z" fill="#1A1A1A"/>
</svg>
