<svg width="155" height="29" viewBox="0 0 155 29" fill="none" xmlns="http://www.w3.org/2000/svg">
<rect width="154.859" height="28.8592" rx="14.4296" fill="white"/>
<rect x="0.505035" y="0.505035" width="153.849" height="27.8491" rx="13.9245" stroke="#1A1A1A" stroke-opacity="0.08" stroke-width="1.01007"/>
<g clip-path="url(#clip0_1772_26950)">
<path d="M10.4922 19.1102C10.4922 19.431 10.6958 19.6347 11.0167 19.6347H11.3868C11.7014 19.6347 11.9113 19.431 11.9113 19.1102V18.1971C11.9791 18.2156 12.1827 18.2279 12.3308 18.2279H24.2877C24.4358 18.2279 24.6394 18.2156 24.7073 18.1971V19.1102C24.7073 19.431 24.917 19.6347 25.2316 19.6347H25.6019C25.9227 19.6347 26.1262 19.431 26.1262 19.1102V15.433C26.1262 14.2546 25.4723 13.6068 24.2939 13.6068H12.3246C11.1462 13.6068 10.4922 14.2546 10.4922 15.433V19.1102ZM11.9729 12.7245H13.54V11.8362C13.54 11.2623 13.8608 10.9477 14.4469 10.9477H16.7483C17.3283 10.9477 17.6491 11.2623 17.6491 11.8362V12.7245H19.0496V11.8362C19.0496 11.2623 19.3705 10.9477 19.9874 10.9477H22.1468C22.7638 10.9477 23.0847 11.2623 23.0847 11.8362V12.7245H24.6579V10.9538C24.6579 9.81242 24.0409 9.22632 22.9304 9.22632H13.6942C12.5838 9.22632 11.9729 9.81242 11.9729 10.9538V12.7245Z" fill="#8338EC"/>
</g>
<path d="M36.1331 19.0768C34.415 19.0768 33.2368 18.3344 32.8932 17.3035C32.8502 17.1685 32.8196 17.0212 32.8196 16.8739C32.8196 16.4751 33.065 16.2174 33.4393 16.2174C33.7523 16.2174 33.9547 16.3585 34.0897 16.6899C34.3659 17.5182 35.1697 17.9048 36.1945 17.9048C37.3174 17.9048 38.1212 17.328 38.1212 16.5365C38.1212 15.8492 37.6549 15.4197 36.4706 15.162L35.5011 14.9595C33.7338 14.5852 32.93 13.7629 32.93 12.4866C32.93 10.9709 34.2616 9.92779 36.1454 9.92779C37.6733 9.92779 38.876 10.6457 39.2196 11.83C39.2503 11.9159 39.2687 12.0202 39.2687 12.1491C39.2687 12.505 39.0171 12.7382 38.6612 12.7382C38.3298 12.7382 38.1274 12.5848 37.9862 12.2657C37.6855 11.4496 37.0106 11.0998 36.127 11.0998C35.0899 11.0998 34.3229 11.603 34.3229 12.4129C34.3229 13.0572 34.7831 13.4868 35.9306 13.7322L36.894 13.9347C38.7532 14.3274 39.5141 15.0699 39.5141 16.3585C39.5141 18.0275 38.201 19.0768 36.1331 19.0768ZM41.4254 19.0462C41.0388 19.0462 40.7627 18.7823 40.7627 18.3466V10.658C40.7627 10.2223 41.0388 9.95847 41.4254 9.95847C41.812 9.95847 42.0881 10.2223 42.0881 10.658V18.3466C42.0881 18.7823 41.812 19.0462 41.4254 19.0462ZM46.3741 19.0523C44.429 19.0523 43.2876 17.8189 43.2876 15.7326C43.2876 13.6831 44.4535 12.3577 46.2821 12.3577C48.0002 12.3577 49.1845 13.5972 49.1845 15.3583C49.1845 15.7878 48.9391 16.0333 48.5279 16.0333H44.6253V16.064C44.6253 17.2421 45.288 17.9785 46.3434 17.9785C47.0675 17.9785 47.5216 17.7269 48.0125 17.058C48.1536 16.8924 48.2886 16.8249 48.4788 16.8249C48.7979 16.8249 49.0311 17.0335 49.0311 17.3648C49.0311 17.4692 48.9943 17.5919 48.9391 17.7207C48.5157 18.5675 47.5768 19.0523 46.3741 19.0523ZM44.6315 15.1067H47.8591C47.8284 14.0943 47.1964 13.4254 46.276 13.4254C45.3617 13.4254 44.699 14.1004 44.6315 15.1067ZM53.1391 19.0523C51.194 19.0523 50.0526 17.8189 50.0526 15.7326C50.0526 13.6831 51.2185 12.3577 53.0471 12.3577C54.7652 12.3577 55.9495 13.5972 55.9495 15.3583C55.9495 15.7878 55.7041 16.0333 55.2929 16.0333H51.3903V16.064C51.3903 17.2421 52.053 17.9785 53.1085 17.9785C53.8325 17.9785 54.2866 17.7269 54.7775 17.058C54.9186 16.8924 55.0536 16.8249 55.2439 16.8249C55.5629 16.8249 55.7961 17.0335 55.7961 17.3648C55.7961 17.4692 55.7593 17.5919 55.7041 17.7207C55.2807 18.5675 54.3418 19.0523 53.1391 19.0523ZM51.3965 15.1067H54.6241C54.5934 14.0943 53.9614 13.4254 53.041 13.4254C52.1267 13.4254 51.464 14.1004 51.3965 15.1067ZM57.7688 21.2184C57.3761 21.2184 57.1061 20.9484 57.1061 20.5127V13.0388C57.1061 12.6154 57.3699 12.3577 57.7442 12.3577C58.1185 12.3577 58.3885 12.6154 58.3885 13.0388V13.585H58.4131C58.7935 12.8425 59.536 12.37 60.4687 12.37C62.107 12.37 63.187 13.6586 63.187 15.7019C63.187 17.7453 62.1132 19.04 60.4932 19.04C59.5667 19.04 58.8303 18.5859 58.4622 17.868H58.4315V20.5127C58.4315 20.9484 58.1553 21.2184 57.7688 21.2184ZM60.1189 17.9171C61.1682 17.9171 61.8248 17.058 61.8248 15.7019C61.8248 14.352 61.1682 13.4868 60.1189 13.4868C59.1065 13.4868 58.4253 14.3704 58.4253 15.7019C58.4253 17.0458 59.1003 17.9171 60.1189 17.9171ZM70.9245 19.0768C68.4209 19.0768 66.8562 17.3219 66.8562 14.4992C66.8562 11.695 68.4393 9.92779 70.9122 9.92779C72.5383 9.92779 73.8392 10.7194 74.3914 12.0264C74.4773 12.2043 74.5203 12.3884 74.5203 12.5541C74.5203 12.9222 74.2748 13.1616 73.9067 13.1616C73.5815 13.1616 73.3667 13.002 73.2133 12.6461C72.8022 11.6582 71.9308 11.1305 70.9122 11.1305C69.3045 11.1305 68.2614 12.4498 68.2614 14.4992C68.2614 16.5671 69.2923 17.8741 70.9184 17.8741C71.9983 17.8741 72.8267 17.4139 73.2378 16.4567C73.3851 16.1315 73.563 15.9965 73.8637 15.9965C74.238 15.9965 74.4957 16.2542 74.4957 16.6162C74.4957 16.8064 74.4467 16.9844 74.3485 17.1869C73.7778 18.3834 72.569 19.0768 70.9245 19.0768ZM78.6529 19.0523C76.8059 19.0523 75.5909 17.7821 75.5909 15.7019C75.5909 13.6279 76.812 12.3577 78.6529 12.3577C80.4937 12.3577 81.7148 13.6279 81.7148 15.7019C81.7148 17.7821 80.4999 19.0523 78.6529 19.0523ZM78.6529 17.96C79.696 17.96 80.3649 17.1378 80.3649 15.7019C80.3649 14.2722 79.6899 13.45 78.6529 13.45C77.6159 13.45 76.9409 14.2722 76.9409 15.7019C76.9409 17.1378 77.6159 17.96 78.6529 17.96ZM83.528 19.0462C83.1291 19.0462 82.8653 18.77 82.8653 18.3466V13.0327C82.8653 12.6154 83.123 12.3577 83.4973 12.3577C83.8654 12.3577 84.1293 12.6093 84.1293 13.0327V13.5604H84.16C84.4484 12.8425 85.1234 12.3639 85.9947 12.3639C86.8906 12.3639 87.541 12.8241 87.7987 13.6279H87.8294C88.1608 12.8425 88.9217 12.3639 89.8421 12.3639C91.1184 12.3639 91.9529 13.2106 91.9529 14.4931V18.3466C91.9529 18.77 91.6829 19.0462 91.2841 19.0462C90.8852 19.0462 90.6214 18.77 90.6214 18.3466V14.8122C90.6214 13.9777 90.1734 13.499 89.388 13.499C88.6026 13.499 88.0565 14.082 88.0565 14.8981V18.3466C88.0565 18.77 87.8049 19.0462 87.406 19.0462C87.0072 19.0462 86.7556 18.77 86.7556 18.3466V14.714C86.7556 13.9715 86.2831 13.499 85.5345 13.499C84.7491 13.499 84.1907 14.1127 84.1907 14.941V18.3466C84.1907 18.77 83.9268 19.0462 83.528 19.0462ZM94.0238 21.2184C93.6311 21.2184 93.3611 20.9484 93.3611 20.5127V13.0388C93.3611 12.6154 93.6249 12.3577 93.9992 12.3577C94.3735 12.3577 94.6435 12.6154 94.6435 13.0388V13.585H94.6681C95.0485 12.8425 95.791 12.37 96.7237 12.37C98.362 12.37 99.442 13.6586 99.442 15.7019C99.442 17.7453 98.3682 19.04 96.7482 19.04C95.8217 19.04 95.0853 18.5859 94.7172 17.868H94.6865V20.5127C94.6865 20.9484 94.4103 21.2184 94.0238 21.2184ZM96.3739 17.9171C97.4232 17.9171 98.0798 17.058 98.0798 15.7019C98.0798 14.352 97.4232 13.4868 96.3739 13.4868C95.3615 13.4868 94.6803 14.3704 94.6803 15.7019C94.6803 17.0458 95.3553 17.9171 96.3739 17.9171ZM101.255 19.0462C100.856 19.0462 100.592 18.7762 100.592 18.3466V13.0266C100.592 12.6216 100.85 12.3577 101.224 12.3577C101.593 12.3577 101.85 12.6216 101.85 13.0266V13.5788H101.881C102.059 12.8547 102.654 12.37 103.298 12.37C103.532 12.37 103.71 12.4252 103.82 12.5295C103.943 12.6277 103.998 12.7873 103.998 12.9959C103.998 13.2045 103.931 13.3579 103.802 13.4622C103.667 13.5788 103.47 13.634 103.194 13.634C102.286 13.6402 101.918 14.2477 101.918 15.0515V18.3466C101.918 18.7762 101.648 19.0462 101.255 19.0462ZM107.345 19.0523C105.498 19.0523 104.283 17.7821 104.283 15.7019C104.283 13.6279 105.504 12.3577 107.345 12.3577C109.186 12.3577 110.407 13.6279 110.407 15.7019C110.407 17.7821 109.192 19.0523 107.345 19.0523ZM107.345 17.96C108.388 17.96 109.057 17.1378 109.057 15.7019C109.057 14.2722 108.382 13.45 107.345 13.45C106.308 13.45 105.633 14.2722 105.633 15.7019C105.633 17.1378 106.308 17.96 107.345 17.96ZM112.22 19.0462C111.821 19.0462 111.558 18.77 111.558 18.3466V13.0327C111.558 12.6154 111.815 12.3577 112.19 12.3577C112.558 12.3577 112.822 12.6093 112.822 13.0327V13.5604H112.852C113.141 12.8425 113.816 12.3639 114.687 12.3639C115.583 12.3639 116.233 12.8241 116.491 13.6279H116.522C116.853 12.8425 117.614 12.3639 118.534 12.3639C119.811 12.3639 120.645 13.2106 120.645 14.4931V18.3466C120.645 18.77 120.375 19.0462 119.976 19.0462C119.578 19.0462 119.314 18.77 119.314 18.3466V14.8122C119.314 13.9777 118.866 13.499 118.08 13.499C117.295 13.499 116.749 14.082 116.749 14.8981V18.3466C116.749 18.77 116.497 19.0462 116.098 19.0462C115.699 19.0462 115.448 18.77 115.448 18.3466V14.714C115.448 13.9715 114.975 13.499 114.227 13.499C113.441 13.499 112.883 14.1127 112.883 14.941V18.3466C112.883 18.77 112.619 19.0462 112.22 19.0462ZM122.759 11.4987C122.336 11.4987 121.992 11.155 121.992 10.7378C121.992 10.3144 122.336 9.98302 122.759 9.98302C123.189 9.98302 123.532 10.3144 123.532 10.7378C123.532 11.155 123.189 11.4987 122.759 11.4987ZM122.759 19.0462C122.36 19.0462 122.096 18.77 122.096 18.3466V13.0634C122.096 12.6338 122.36 12.3577 122.759 12.3577C123.158 12.3577 123.422 12.6338 123.422 13.0634V18.3466C123.422 18.77 123.158 19.0462 122.759 19.0462ZM127.284 19.0523C126.014 19.0523 125.081 18.5307 124.775 17.7391C124.732 17.641 124.719 17.5489 124.719 17.463C124.719 17.1317 124.959 16.9353 125.29 16.9353C125.511 16.9353 125.701 17.0396 125.867 17.2851C126.198 17.8066 126.585 18.0398 127.352 18.0398C128.107 18.0398 128.616 17.7146 128.616 17.1808C128.616 16.7574 128.364 16.5303 127.671 16.3646L126.652 16.1253C125.401 15.8308 124.787 15.2172 124.787 14.2968C124.787 13.1309 125.799 12.3577 127.333 12.3577C128.499 12.3577 129.457 12.9529 129.641 13.7138C129.653 13.7874 129.665 13.8488 129.665 13.9102C129.665 14.2047 129.481 14.4011 129.15 14.4011C128.935 14.4011 128.745 14.3274 128.616 14.1188C128.327 13.6279 127.935 13.3702 127.284 13.3702C126.573 13.3702 126.082 13.7199 126.082 14.2231C126.082 14.6281 126.395 14.9104 127.076 15.0699L128.076 15.3031C129.432 15.616 129.954 16.1008 129.954 17.058C129.954 18.2546 128.88 19.0523 127.284 19.0523ZM133.902 19.0523C131.957 19.0523 130.816 17.8189 130.816 15.7326C130.816 13.6831 131.981 12.3577 133.81 12.3577C135.528 12.3577 136.712 13.5972 136.712 15.3583C136.712 15.7878 136.467 16.0333 136.056 16.0333H132.153V16.064C132.153 17.2421 132.816 17.9785 133.871 17.9785C134.595 17.9785 135.05 17.7269 135.54 17.058C135.682 16.8924 135.817 16.8249 136.007 16.8249C136.326 16.8249 136.559 17.0335 136.559 17.3648C136.559 17.4692 136.522 17.5919 136.467 17.7207C136.044 18.5675 135.105 19.0523 133.902 19.0523ZM132.159 15.1067H135.387C135.356 14.0943 134.724 13.4254 133.804 13.4254C132.89 13.4254 132.227 14.1004 132.159 15.1067ZM140.293 19.04C138.661 19.04 137.581 17.7391 137.581 15.7019C137.581 13.6647 138.661 12.37 140.28 12.37C141.207 12.37 141.943 12.8363 142.305 13.5481H142.33V10.658C142.33 10.2223 142.606 9.95847 142.999 9.95847C143.385 9.95847 143.662 10.2223 143.662 10.658V18.3834C143.662 18.8007 143.392 19.0462 143.005 19.0462C142.631 19.0462 142.33 18.8007 142.33 18.3834V17.7821H142.312C141.98 18.5368 141.299 19.04 140.293 19.04ZM140.643 17.9171C141.661 17.9171 142.342 17.0519 142.342 15.7019C142.342 14.3642 141.661 13.4868 140.643 13.4868C139.593 13.4868 138.937 14.3458 138.937 15.7019C138.937 17.0642 139.593 17.9171 140.643 17.9171Z" fill="#1A1A1A"/>
<defs>
<clipPath id="clip0_1772_26950">
<rect width="15.6341" height="10.4083" fill="white" transform="matrix(1 0 0 -1 10.4922 19.6338)"/>
</clipPath>
</defs>
</svg>
