<svg width="106" height="29" viewBox="0 0 106 29" fill="none" xmlns="http://www.w3.org/2000/svg">
<rect width="105.67" height="28.8592" rx="14.4296" fill="white"/>
<rect x="0.505035" y="0.505035" width="104.66" height="27.8491" rx="13.9245" stroke="#1A1A1A" stroke-opacity="0.08" stroke-width="1.01007"/>
<path d="M16.2159 19.8191C16.3333 19.8191 16.5153 19.7368 16.6386 19.6605C17.1495 19.3318 17.6544 18.9913 17.9303 18.7799C18.2062 18.5686 18.0829 18.2456 17.7482 18.2456H14.6836C14.3431 18.2456 14.2198 18.5686 14.5016 18.7799C14.7717 18.9913 15.2766 19.3318 15.7873 19.6605C15.9165 19.7368 16.0927 19.8191 16.2159 19.8191ZM12.9634 17.365H19.4685C19.9322 17.365 20.3138 16.9834 20.3138 16.5196C20.3138 16.0558 19.9322 15.6742 19.4685 15.6742H12.9634C12.4996 15.6742 12.118 16.0558 12.118 16.5196C12.118 16.9834 12.4996 17.365 12.9634 17.365ZM11.478 14.7935H20.9538C21.4176 14.7935 21.7992 14.4119 21.7992 13.9481C21.7992 13.4901 21.4176 13.1086 20.9538 13.1086H11.478C11.0143 13.1086 10.6326 13.4901 10.6326 13.9481C10.6326 14.4119 11.0143 14.7935 11.478 14.7935ZM11.1023 12.2279H21.3237C21.8286 12.2279 22.0106 11.9461 21.9108 11.5234C21.5996 10.1672 20.3902 9.03992 18.7757 9.03992C17.625 9.03992 16.7443 9.67403 16.2159 10.6427C15.6875 9.67986 14.801 9.03992 13.6562 9.03992C12.0417 9.03992 10.8263 10.1672 10.5211 11.5234C10.4154 11.9461 10.5974 12.2279 11.1023 12.2279Z" fill="#FF1A66"/>
<path d="M28.8685 19.0277C28.439 19.0277 28.1812 18.7578 28.1812 18.3159V10.6887C28.1812 10.2469 28.439 9.97688 28.8685 9.97688C29.2919 9.97688 29.5558 10.2469 29.5558 10.6887V13.8181H34.1027V10.6887C34.1027 10.2469 34.3604 9.97688 34.7899 9.97688C35.2133 9.97688 35.4772 10.2469 35.4772 10.6887V18.3159C35.4772 18.7578 35.2133 19.0277 34.7899 19.0277C34.3604 19.0277 34.1027 18.7578 34.1027 18.3159V15.0085H29.5558V18.3159C29.5558 18.7578 29.2919 19.0277 28.8685 19.0277ZM37.9162 19.0462C37.4928 19.0462 37.2289 18.7762 37.2289 18.3344V10.7869C37.2289 10.3451 37.4866 10.0751 37.9162 10.0751H40.659C42.4815 10.0751 43.6167 11.1305 43.6167 12.7811C43.6167 13.9654 42.9908 14.9226 41.9292 15.2969L43.4265 17.9416C43.5369 18.1319 43.5737 18.2607 43.5737 18.4141C43.5737 18.7762 43.2731 19.0462 42.8742 19.0462C42.5551 19.0462 42.3894 18.9296 42.187 18.5675L40.524 15.524H38.6034V18.3344C38.6034 18.7762 38.3334 19.0462 37.9162 19.0462ZM38.6034 14.4133H40.5302C41.5917 14.4133 42.1992 13.8304 42.1992 12.8179C42.1992 11.83 41.5549 11.2287 40.4934 11.2287H38.6034V14.4133ZM48.3015 19.0277C47.8168 19.0277 47.5406 18.8191 47.3566 18.3159L44.5646 10.9832C44.5155 10.8421 44.491 10.7194 44.491 10.5966C44.491 10.2285 44.7732 9.97688 45.1905 9.97688C45.5403 9.97688 45.755 10.1364 45.8716 10.4923L48.2954 17.3832H48.3322L50.756 10.4862C50.8787 10.1241 51.0689 9.97688 51.4187 9.97688C51.8298 9.97688 52.1182 10.2346 52.1182 10.5905C52.1182 10.7071 52.0937 10.8298 52.0446 10.9648L49.2465 18.3221C49.0563 18.8253 48.7863 19.0277 48.3015 19.0277ZM56.6894 18.9296C56.2599 18.9296 56.0022 18.6596 56.0022 18.2178V10.7869C56.0022 10.3451 56.2599 10.0751 56.6894 10.0751H59.1255C61.7579 10.0751 63.3165 11.695 63.3165 14.487C63.3165 17.2851 61.7641 18.9296 59.1255 18.9296H56.6894ZM57.3767 17.7391H58.9966C60.8743 17.7391 61.9113 16.5917 61.9113 14.4992C61.9113 12.4129 60.8682 11.2593 58.9966 11.2593H57.3767V17.7391ZM65.3014 11.4987C64.8781 11.4987 64.5344 11.155 64.5344 10.7378C64.5344 10.3144 64.8781 9.98302 65.3014 9.98302C65.731 9.98302 66.0746 10.3144 66.0746 10.7378C66.0746 11.155 65.731 11.4987 65.3014 11.4987ZM65.3014 19.0462C64.9026 19.0462 64.6387 18.77 64.6387 18.3466V13.0634C64.6387 12.6338 64.9026 12.3577 65.3014 12.3577C65.7003 12.3577 65.9642 12.6338 65.9642 13.0634V18.3466C65.9642 18.77 65.7003 19.0462 65.3014 19.0462ZM68.1086 21.2184C67.7159 21.2184 67.4459 20.9484 67.4459 20.5127V13.0388C67.4459 12.6154 67.7098 12.3577 68.0841 12.3577C68.4584 12.3577 68.7284 12.6154 68.7284 13.0388V13.585H68.7529C69.1334 12.8425 69.8758 12.37 70.8085 12.37C72.4469 12.37 73.5269 13.6586 73.5269 15.7019C73.5269 17.7453 72.453 19.04 70.8331 19.04C69.9065 19.04 69.1702 18.5859 68.802 17.868H68.7713V20.5127C68.7713 20.9484 68.4952 21.2184 68.1086 21.2184ZM70.4588 17.9171C71.5081 17.9171 72.1646 17.058 72.1646 15.7019C72.1646 14.352 71.5081 13.4868 70.4588 13.4868C69.4463 13.4868 68.7652 14.3704 68.7652 15.7019C68.7652 17.0458 69.4402 17.9171 70.4588 17.9171ZM75.34 21.2184C74.9473 21.2184 74.6773 20.9484 74.6773 20.5127V13.0388C74.6773 12.6154 74.9411 12.3577 75.3154 12.3577C75.6898 12.3577 75.9597 12.6154 75.9597 13.0388V13.585H75.9843C76.3647 12.8425 77.1072 12.37 78.0399 12.37C79.6783 12.37 80.7582 13.6586 80.7582 15.7019C80.7582 17.7453 79.6844 19.04 78.0645 19.04C77.1379 19.04 76.4016 18.5859 76.0334 17.868H76.0027V20.5127C76.0027 20.9484 75.7266 21.2184 75.34 21.2184ZM77.6901 17.9171C78.7394 17.9171 79.396 17.058 79.396 15.7019C79.396 14.352 78.7394 13.4868 77.6901 13.4868C76.6777 13.4868 75.9966 14.3704 75.9966 15.7019C75.9966 17.0458 76.6715 17.9171 77.6901 17.9171ZM84.7067 19.0523C82.7616 19.0523 81.6202 17.8189 81.6202 15.7326C81.6202 13.6831 82.7861 12.3577 84.6147 12.3577C86.3328 12.3577 87.5171 13.5972 87.5171 15.3583C87.5171 15.7878 87.2717 16.0333 86.8605 16.0333H82.9579V16.064C82.9579 17.2421 83.6206 17.9785 84.6761 17.9785C85.4001 17.9785 85.8542 17.7269 86.3451 17.058C86.4862 16.8924 86.6212 16.8249 86.8115 16.8249C87.1305 16.8249 87.3637 17.0335 87.3637 17.3648C87.3637 17.4692 87.3269 17.5919 87.2717 17.7207C86.8483 18.5675 85.9094 19.0523 84.7067 19.0523ZM82.9641 15.1067H86.1917C86.161 14.0943 85.529 13.4254 84.6086 13.4254C83.6943 13.4254 83.0316 14.1004 82.9641 15.1067ZM91.0975 19.04C89.4652 19.04 88.3853 17.7391 88.3853 15.7019C88.3853 13.6647 89.4652 12.37 91.0852 12.37C92.0117 12.37 92.7481 12.8363 93.1101 13.5481H93.1347V10.658C93.1347 10.2223 93.4108 9.95847 93.8035 9.95847C94.1901 9.95847 94.4662 10.2223 94.4662 10.658V18.3834C94.4662 18.8007 94.1962 19.0462 93.8096 19.0462C93.4353 19.0462 93.1347 18.8007 93.1347 18.3834V17.7821H93.1163C92.7849 18.5368 92.1038 19.04 91.0975 19.04ZM91.4472 17.9171C92.4658 17.9171 93.1469 17.0519 93.1469 15.7019C93.1469 14.3642 92.4658 13.4868 91.4472 13.4868C90.3979 13.4868 89.7414 14.3458 89.7414 15.7019C89.7414 17.0642 90.3979 17.9171 91.4472 17.9171Z" fill="#1A1A1A"/>
</svg>
