<svg width="120" height="29" viewBox="0 0 120 29" fill="none" xmlns="http://www.w3.org/2000/svg">
<rect width="119.917" height="28.8592" rx="14.4296" fill="white"/>
<rect x="0.505035" y="0.505035" width="118.907" height="27.8491" rx="13.9245" stroke="#1A1A1A" stroke-opacity="0.08" stroke-width="1.01007"/>
<g clip-path="url(#clip0_1772_26946)">
<path d="M11.1841 16.7346L14.6771 12.2148C14.8884 11.9531 15.1099 11.8323 15.3414 11.8323C15.5226 11.8323 15.7038 11.9028 15.9051 12.0135L20.4249 14.4294L23.8776 12.5671C24.5017 12.235 25.0553 12.8389 24.6225 13.4127L21.1094 17.9425C20.8879 18.2143 20.6664 18.3351 20.4349 18.3351C20.2537 18.3351 20.0725 18.2546 19.8712 18.1539L15.3515 15.7279L11.9088 17.6002C11.325 17.9123 10.711 17.3587 11.1841 16.7346Z" fill="#FBBF24"/>
</g>
<path d="M34.2952 19.0768C32.577 19.0768 31.3989 18.3344 31.0553 17.3035C31.0123 17.1685 30.9816 17.0212 30.9816 16.8739C30.9816 16.4751 31.2271 16.2174 31.6014 16.2174C31.9143 16.2174 32.1168 16.3585 32.2518 16.6899C32.5279 17.5182 33.3318 17.9048 34.3565 17.9048C35.4794 17.9048 36.2833 17.328 36.2833 16.5365C36.2833 15.8492 35.8169 15.4197 34.6327 15.162L33.6631 14.9595C31.8959 14.5852 31.0921 13.7629 31.0921 12.4866C31.0921 10.9709 32.4236 9.92779 34.3074 9.92779C35.8353 9.92779 37.038 10.6457 37.3817 11.83C37.4123 11.9159 37.4308 12.0202 37.4308 12.1491C37.4308 12.505 37.1792 12.7382 36.8233 12.7382C36.4919 12.7382 36.2894 12.5848 36.1483 12.2657C35.8476 11.4496 35.1726 11.0998 34.289 11.0998C33.252 11.0998 32.485 11.603 32.485 12.4129C32.485 13.0572 32.9452 13.4868 34.0927 13.7322L35.0561 13.9347C36.9153 14.3274 37.6762 15.0699 37.6762 16.3585C37.6762 18.0275 36.3631 19.0768 34.2952 19.0768ZM39.2623 17.3832V13.5236H38.7959C38.4523 13.5236 38.2437 13.3272 38.2437 13.002C38.2437 12.6707 38.4523 12.4743 38.7959 12.4743H39.2623V11.5171C39.2623 11.0937 39.5261 10.8114 39.9311 10.8114C40.33 10.8114 40.5938 11.0937 40.5938 11.5171V12.4743H41.3486C41.6922 12.4743 41.9008 12.6768 41.9008 13.002C41.9008 13.3272 41.6922 13.5236 41.3486 13.5236H40.5938V17.0887C40.5938 17.6042 40.7718 17.8373 41.2504 17.8741L41.3547 17.8803C41.7352 17.9171 41.9254 18.0705 41.9254 18.3834C41.9254 18.7823 41.6186 18.9848 40.9681 18.9848H40.9006C39.8145 18.9848 39.2623 18.4509 39.2623 17.3832ZM43.7017 19.0462C43.3028 19.0462 43.039 18.7762 43.039 18.3466V13.0266C43.039 12.6216 43.2967 12.3577 43.671 12.3577C44.0392 12.3577 44.2969 12.6216 44.2969 13.0266V13.5788H44.3276C44.5055 12.8547 45.1007 12.37 45.745 12.37C45.9782 12.37 46.1562 12.4252 46.2666 12.5295C46.3893 12.6277 46.4446 12.7873 46.4446 12.9959C46.4446 13.2045 46.3771 13.3579 46.2482 13.4622C46.1132 13.5788 45.9168 13.634 45.6407 13.634C44.7326 13.6402 44.3644 14.2477 44.3644 15.0515V18.3466C44.3644 18.7762 44.0944 19.0462 43.7017 19.0462ZM49.8163 19.0523C47.8711 19.0523 46.7298 17.8189 46.7298 15.7326C46.7298 13.6831 47.8956 12.3577 49.7242 12.3577C51.4423 12.3577 52.6266 13.5972 52.6266 15.3583C52.6266 15.7878 52.3812 16.0333 51.9701 16.0333H48.0675V16.064C48.0675 17.2421 48.7302 17.9785 49.7856 17.9785C50.5096 17.9785 50.9637 17.7269 51.4546 17.058C51.5958 16.8924 51.7307 16.8249 51.921 16.8249C52.2401 16.8249 52.4732 17.0335 52.4732 17.3648C52.4732 17.4692 52.4364 17.5919 52.3812 17.7207C51.9578 18.5675 51.019 19.0523 49.8163 19.0523ZM48.0736 15.1067H51.3012C51.2705 14.0943 50.6385 13.4254 49.7181 13.4254C48.8038 13.4254 48.1411 14.1004 48.0736 15.1067ZM56.164 19.0523C54.8938 19.0523 53.9611 18.5307 53.6543 17.7391C53.6114 17.641 53.5991 17.5489 53.5991 17.463C53.5991 17.1317 53.8384 16.9353 54.1698 16.9353C54.3907 16.9353 54.5809 17.0396 54.7466 17.2851C55.0779 17.8066 55.4645 18.0398 56.2315 18.0398C56.9863 18.0398 57.4956 17.7146 57.4956 17.1808C57.4956 16.7574 57.244 16.5303 56.5506 16.3646L55.532 16.1253C54.2802 15.8308 53.6666 15.2172 53.6666 14.2968C53.6666 13.1309 54.6791 12.3577 56.2131 12.3577C57.379 12.3577 58.3362 12.9529 58.5203 13.7138C58.5326 13.7874 58.5449 13.8488 58.5449 13.9102C58.5449 14.2047 58.3608 14.4011 58.0294 14.4011C57.8146 14.4011 57.6244 14.3274 57.4956 14.1188C57.2072 13.6279 56.8144 13.3702 56.164 13.3702C55.4522 13.3702 54.9613 13.7199 54.9613 14.2231C54.9613 14.6281 55.2743 14.9104 55.9554 15.0699L56.9556 15.3031C58.3117 15.616 58.8333 16.1008 58.8333 17.058C58.8333 18.2546 57.7594 19.0523 56.164 19.0523ZM62.3645 19.0523C61.0943 19.0523 60.1616 18.5307 59.8548 17.7391C59.8119 17.641 59.7996 17.5489 59.7996 17.463C59.7996 17.1317 60.0389 16.9353 60.3702 16.9353C60.5911 16.9353 60.7814 17.0396 60.947 17.2851C61.2784 17.8066 61.665 18.0398 62.432 18.0398C63.1867 18.0398 63.6961 17.7146 63.6961 17.1808C63.6961 16.7574 63.4445 16.5303 62.7511 16.3646L61.7325 16.1253C60.4807 15.8308 59.8671 15.2172 59.8671 14.2968C59.8671 13.1309 60.8795 12.3577 62.4136 12.3577C63.5795 12.3577 64.5367 12.9529 64.7208 13.7138C64.7331 13.7874 64.7453 13.8488 64.7453 13.9102C64.7453 14.2047 64.5613 14.4011 64.2299 14.4011C64.0151 14.4011 63.8249 14.3274 63.6961 14.1188C63.4077 13.6279 63.0149 13.3702 62.3645 13.3702C61.6527 13.3702 61.1618 13.7199 61.1618 14.2231C61.1618 14.6281 61.4748 14.9104 62.1559 15.0699L63.1561 15.3031C64.5122 15.616 65.0337 16.1008 65.0337 17.058C65.0337 18.2546 63.9599 19.0523 62.3645 19.0523ZM71.2433 19.0523C69.9731 19.0523 69.0404 18.5307 68.7336 17.7391C68.6907 17.641 68.6784 17.5489 68.6784 17.463C68.6784 17.1317 68.9177 16.9353 69.249 16.9353C69.47 16.9353 69.6602 17.0396 69.8258 17.2851C70.1572 17.8066 70.5438 18.0398 71.3108 18.0398C72.0656 18.0398 72.5749 17.7146 72.5749 17.1808C72.5749 16.7574 72.3233 16.5303 71.6299 16.3646L70.6113 16.1253C69.3595 15.8308 68.7459 15.2172 68.7459 14.2968C68.7459 13.1309 69.7584 12.3577 71.2924 12.3577C72.4583 12.3577 73.4155 12.9529 73.5996 13.7138C73.6119 13.7874 73.6241 13.8488 73.6241 13.9102C73.6241 14.2047 73.4401 14.4011 73.1087 14.4011C72.8939 14.4011 72.7037 14.3274 72.5749 14.1188C72.2865 13.6279 71.8937 13.3702 71.2433 13.3702C70.5315 13.3702 70.0406 13.7199 70.0406 14.2231C70.0406 14.6281 70.3536 14.9104 71.0347 15.0699L72.0349 15.3031C73.391 15.616 73.9125 16.1008 73.9125 17.058C73.9125 18.2546 72.8387 19.0523 71.2433 19.0523ZM75.7748 19.0462C75.3882 19.0462 75.112 18.7823 75.112 18.3466V10.6457C75.112 10.2285 75.3636 9.95847 75.7686 9.95847C76.1797 9.95847 76.4252 10.2285 76.4252 10.6457V13.5543H76.4559C76.8118 12.7995 77.5174 12.3639 78.4992 12.3639C79.9167 12.3639 80.7635 13.3088 80.7635 14.7692V18.3466C80.7635 18.7823 80.4873 19.0462 80.0946 19.0462C79.708 19.0462 79.4319 18.7823 79.4319 18.3466V15.027C79.4319 14.0758 78.9533 13.5052 78.0206 13.5052C77.0388 13.5052 76.4375 14.1802 76.4375 15.1988V18.3466C76.4375 18.7823 76.1613 19.0462 75.7748 19.0462ZM84.9452 19.0523C83.0982 19.0523 81.8832 17.7821 81.8832 15.7019C81.8832 13.6279 83.1043 12.3577 84.9452 12.3577C86.786 12.3577 88.0071 13.6279 88.0071 15.7019C88.0071 17.7821 86.7921 19.0523 84.9452 19.0523ZM84.9452 17.96C85.9883 17.96 86.6571 17.1378 86.6571 15.7019C86.6571 14.2722 85.9822 13.45 84.9452 13.45C83.9081 13.45 83.2332 14.2722 83.2332 15.7019C83.2332 17.1378 83.9081 17.96 84.9452 17.96ZM89.5441 17.3832V13.5236H89.0777C88.7341 13.5236 88.5255 13.3272 88.5255 13.002C88.5255 12.6707 88.7341 12.4743 89.0777 12.4743H89.5441V11.5171C89.5441 11.0937 89.8079 10.8114 90.2129 10.8114C90.6118 10.8114 90.8756 11.0937 90.8756 11.5171V12.4743H91.6304C91.974 12.4743 92.1826 12.6768 92.1826 13.002C92.1826 13.3272 91.974 13.5236 91.6304 13.5236H90.8756V17.0887C90.8756 17.6042 91.0536 17.8373 91.5322 17.8741L91.6365 17.8803C92.017 17.9171 92.2072 18.0705 92.2072 18.3834C92.2072 18.7823 91.9004 18.9848 91.25 18.9848H91.1825C90.0963 18.9848 89.5441 18.4509 89.5441 17.3832ZM98.2327 19.0462C96.8275 19.0462 95.9684 18.1319 95.9684 16.653V13.0634C95.9684 12.6216 96.2384 12.3577 96.6311 12.3577C97.0177 12.3577 97.2938 12.6216 97.2938 13.0634V16.3953C97.2938 17.3771 97.7602 17.9048 98.6745 17.9048C99.6317 17.9048 100.209 17.2421 100.209 16.2358V13.0634C100.209 12.6216 100.485 12.3577 100.871 12.3577C101.264 12.3577 101.534 12.6216 101.534 13.0634V18.3712C101.534 18.7823 101.282 19.0462 100.902 19.0462C100.521 19.0462 100.264 18.7823 100.264 18.3773V17.8373H100.233C99.8772 18.6105 99.2206 19.0462 98.2327 19.0462ZM103.635 21.2184C103.243 21.2184 102.973 20.9484 102.973 20.5127V13.0388C102.973 12.6154 103.237 12.3577 103.611 12.3577C103.985 12.3577 104.255 12.6154 104.255 13.0388V13.585H104.28C104.66 12.8425 105.403 12.37 106.335 12.37C107.974 12.37 109.054 13.6586 109.054 15.7019C109.054 17.7453 107.98 19.04 106.36 19.04C105.433 19.04 104.697 18.5859 104.329 17.868H104.298V20.5127C104.298 20.9484 104.022 21.2184 103.635 21.2184ZM105.986 17.9171C107.035 17.9171 107.691 17.058 107.691 15.7019C107.691 14.352 107.035 13.4868 105.986 13.4868C104.973 13.4868 104.292 14.3704 104.292 15.7019C104.292 17.0458 104.967 17.9171 105.986 17.9171Z" fill="#1A1A1A"/>
<defs>
<clipPath id="clip0_1772_26946">
<rect width="14.6919" height="7.34597" fill="white" transform="translate(10.4922 10.7566)"/>
</clipPath>
</defs>
</svg>
