<svg width="142" height="44" viewBox="0 0 142 44" fill="none" xmlns="http://www.w3.org/2000/svg">
<path d="M64.1025 13.1602C64.3134 13.2109 64.4611 13.2826 64.5455 13.3754C64.6298 13.4598 64.672 13.5905 64.672 13.7677C64.672 13.9449 64.5708 14.101 64.3683 14.236C64.1742 14.3626 63.9422 14.4259 63.6722 14.4259C62.7609 14.6537 62.2041 14.8688 62.0016 15.0713L61.7738 15.6282L67.102 28.6262C69.4139 22.5849 71.152 18.0582 72.3164 15.046C72.3164 14.8182 72.1434 14.6705 71.7975 14.603C71.46 14.5271 71.1183 14.4638 70.7723 14.4132C70.4348 14.3626 70.2661 14.2402 70.2661 14.0462C70.2661 13.7509 70.3547 13.5399 70.5319 13.4134C70.7175 13.2868 70.9031 13.194 71.0887 13.1349C71.2744 13.0759 71.4516 13.0337 71.6203 13.0084C71.7891 12.983 72 12.962 72.2531 12.9451C72.6328 12.9198 73.0294 12.9071 73.4428 12.9071C73.8647 12.9071 74.1811 12.9113 74.392 12.9198C74.603 12.9198 74.8603 12.9282 75.1641 12.9451C75.4762 12.9535 75.7294 12.9788 75.9234 13.021C76.1259 13.0548 76.3242 13.097 76.5183 13.1476C76.9148 13.2488 77.1131 13.4218 77.1131 13.6665C77.1131 13.9027 77.0161 14.0884 76.822 14.2234C76.6364 14.3584 76.4128 14.4259 76.1512 14.4259C75.1809 14.6452 74.603 14.8646 74.4173 15.084L68.8233 29.0059C68.6208 29.5037 68.3381 29.9466 67.9753 30.3348C67.6209 30.7145 67.1822 30.9043 66.6591 30.9043C66.1359 30.9043 65.6972 30.7145 65.3428 30.3348C64.9969 29.9551 64.672 29.3982 64.3683 28.6641L60.3942 19.058L56.3948 29.0059C55.8886 30.2715 55.1756 30.9043 54.2559 30.9043C53.4881 30.9043 52.868 30.4445 52.3955 29.5248C52.2773 29.3054 52.1423 29.0185 51.9905 28.6641L46.3331 15.122C46.1391 14.8857 45.7467 14.7127 45.1561 14.603C44.5655 14.4849 44.1478 14.3584 43.9031 14.2234C43.65 14.0799 43.5234 13.9238 43.5234 13.7551C43.5234 13.5779 43.5698 13.4429 43.6627 13.3501C43.7555 13.2573 43.9031 13.1855 44.1056 13.1349C44.3081 13.0843 44.498 13.0421 44.6752 13.0084C44.8608 12.9746 45.1139 12.9493 45.4345 12.9324C45.9577 12.9155 46.35 12.9071 46.6116 12.9071H47.0545C48.2611 12.9071 49.0289 12.9493 49.358 13.0337C49.6955 13.1096 49.9655 13.1855 50.168 13.2615C50.573 13.4218 50.7923 13.6834 50.8261 14.0462C50.8092 14.1559 50.6573 14.2529 50.3705 14.3373C50.0836 14.4216 49.8009 14.5102 49.5225 14.603C49.2525 14.6959 49.1175 14.814 49.1175 14.9574L54.7116 28.6262L59.3564 16.5268L58.7869 15.1473C58.6519 14.9785 58.4662 14.8562 58.23 14.7802C58.0022 14.7043 57.8419 14.6537 57.7491 14.6284C57.3356 14.4934 57.0023 14.409 56.7492 14.3752C56.4961 14.3415 56.3062 14.2782 56.1797 14.1854C56.0531 14.0841 55.9898 13.8901 55.9898 13.6032C55.9898 13.3079 56.3189 13.1223 56.977 13.0463C57.6436 12.962 58.5 12.9198 59.5462 12.9198C60.5925 12.9198 61.2591 12.924 61.5459 12.9324C61.8412 12.9324 62.1872 12.9409 62.5837 12.9577C62.9803 12.9662 63.2798 12.9873 63.4823 13.021C63.6848 13.0548 63.8916 13.1012 64.1025 13.1602Z" fill="#1A1A1A"/>
<path d="M76.1391 22.6524C75.8269 22.6524 75.4725 22.5301 75.0759 22.2854C74.6878 22.0323 74.4937 21.7074 74.4937 21.3109C74.4937 20.9059 74.6077 20.5262 74.8355 20.1718C75.0633 19.8174 75.3586 19.5305 75.7214 19.3112C76.0842 19.0834 76.5061 18.8935 76.987 18.7416C77.8645 18.4632 78.8095 18.324 79.822 18.324C81.5264 18.324 82.7625 18.7037 83.5303 19.463C84.3066 20.214 84.6947 21.4585 84.6947 23.1966L84.682 26.9302C84.682 27.833 84.7959 28.3984 85.0238 28.6262C85.0828 28.6852 85.2684 28.7612 85.5806 28.854C86.4412 29.124 86.8716 29.3307 86.8716 29.4741C86.8716 30.3601 85.9645 30.803 84.1505 30.803C83.467 30.803 83.0198 30.6512 82.8089 30.3474C82.6064 30.0437 82.4967 29.491 82.4798 28.6895C82.1002 29.3729 81.5222 29.9255 80.7459 30.3474C79.9697 30.7693 79.1386 30.9802 78.2527 30.9802C77.3667 30.9802 76.6158 30.8663 75.9998 30.6385C75.3839 30.4107 74.8819 30.0437 74.4937 29.5374C74.1141 29.0227 73.9242 28.4701 73.9242 27.8795C73.9242 27.2888 73.9917 26.8163 74.1267 26.462C74.2617 26.0991 74.4305 25.7954 74.633 25.5507C74.8355 25.306 75.1097 25.0866 75.4556 24.8926C75.81 24.6985 76.1391 24.5466 76.4428 24.437C76.7466 24.3188 77.1389 24.2134 77.6198 24.1205C78.3286 23.9855 78.9234 23.8927 79.4044 23.8421C79.8853 23.783 80.1342 23.7493 80.1511 23.7409C80.2017 23.7324 80.4886 23.7029 81.0117 23.6523C81.5433 23.5932 81.9609 23.4793 82.2647 23.3105C82.2647 21.7074 82.0495 20.6612 81.6192 20.1718C81.2395 19.7499 80.6152 19.539 79.7461 19.539C78.877 19.539 78.2231 19.7626 77.7844 20.2098C77.3541 20.6485 77.1389 21.3488 77.1389 22.3107L77.1516 22.5891C76.7972 22.6313 76.4597 22.6524 76.1391 22.6524ZM82.2647 24.4496C81.6909 24.6605 81.0412 24.8082 80.3156 24.8926C79.5984 24.9685 79.0331 25.0613 78.6197 25.171C78.2062 25.2807 77.8603 25.4157 77.5819 25.576C76.9406 25.9473 76.62 26.5843 76.62 27.4871C76.62 28.9384 77.4637 29.664 79.1512 29.664C80.6109 29.664 81.5348 28.9679 81.923 27.5757C82.1508 26.7826 82.2647 25.7405 82.2647 24.4496Z" fill="#1A1A1A"/>
<path d="M91.8455 30.6765L90.757 30.6891C89.6517 30.6891 88.9683 30.5204 88.7067 30.1829C88.5886 30.031 88.5295 29.8496 88.5295 29.6387C88.5295 29.4193 88.6139 29.2674 88.7827 29.183C88.9514 29.0987 89.137 29.0523 89.3395 29.0438C89.542 29.0354 89.7277 28.9721 89.8964 28.854C90.0652 28.7274 90.1495 28.5291 90.1495 28.2591V14.8941C90.1495 14.1263 89.8458 13.7129 89.2383 13.6538C89.1792 13.6454 89.1033 13.637 89.0105 13.6285C88.9177 13.6201 88.8502 13.6159 88.808 13.6159C88.7658 13.6074 88.7109 13.599 88.6434 13.5905C88.5844 13.5737 88.538 13.5568 88.5042 13.5399C88.4789 13.523 88.4536 13.502 88.4283 13.4766C88.3692 13.426 88.3397 13.3037 88.3397 13.1096C88.3397 12.9155 88.4705 12.713 88.732 12.5021C89.2045 12.114 89.8416 11.9199 90.6431 11.9199C91.4953 11.9199 91.9931 11.9705 92.1366 12.0718C92.4234 12.2743 92.5669 12.5401 92.5669 12.8691V28.2591C92.5669 28.7485 92.8369 29.0101 93.3769 29.0438C93.9253 29.0691 94.1995 29.2843 94.1995 29.6893C94.1995 30.1534 93.9464 30.4402 93.4402 30.5499C93.052 30.6343 92.5205 30.6765 91.8455 30.6765Z" fill="#1A1A1A"/>
<path d="M105.148 21.1716C104.793 20.7076 104.283 20.3405 103.616 20.0705C102.958 19.7921 102.22 19.6529 101.401 19.6529C100.583 19.6529 99.8869 19.8891 99.3131 20.3616C98.1994 21.2813 97.6425 22.6398 97.6425 24.437C97.6425 25.8291 98.018 27.0104 98.7689 27.9807C99.5283 28.9426 100.511 29.4235 101.718 29.4235C102.933 29.4235 103.806 29.1746 104.338 28.6768C104.878 28.1705 105.148 27.3352 105.148 26.1709V21.1716ZM101.655 18.286C102.211 18.286 102.832 18.3788 103.515 18.5645C104.207 18.7416 104.751 18.9315 105.148 19.134V14.8941C105.148 14.1263 104.844 13.7129 104.236 13.6538C104.177 13.6454 104.101 13.637 104.009 13.6285C103.916 13.6201 103.848 13.6159 103.806 13.6159C103.764 13.6074 103.709 13.599 103.642 13.5905C103.583 13.5737 103.536 13.5568 103.502 13.5399C103.477 13.523 103.452 13.502 103.426 13.4766C103.367 13.426 103.338 13.3037 103.338 13.1096C103.338 12.9155 103.469 12.713 103.73 12.5021C104.203 12.114 104.84 11.9199 105.641 11.9199C106.493 11.9199 106.991 11.9705 107.135 12.0718C107.422 12.2743 107.565 12.5401 107.565 12.8691V26.7151C107.565 27.6516 107.666 28.2591 107.869 28.5376C108.08 28.8076 108.265 28.9721 108.426 29.0312C108.594 29.0902 108.738 29.1409 108.856 29.183C108.982 29.2252 109.071 29.259 109.122 29.2843C109.172 29.3012 109.236 29.3349 109.312 29.3855C109.447 29.4615 109.514 29.5796 109.514 29.7399C109.514 30.0943 109.324 30.3559 108.945 30.5246C108.573 30.6849 108.075 30.7651 107.451 30.7651C106.835 30.7651 106.388 30.647 106.11 30.4107C105.831 30.1745 105.586 29.7399 105.375 29.1071C104.684 30.3305 103.241 30.9423 101.047 30.9423C99.292 30.9423 97.8619 30.3601 96.7566 29.1957C95.6597 28.0313 95.1112 26.521 95.1112 24.6648C95.1112 22.8085 95.723 21.2813 96.9464 20.0832C98.1698 18.8851 99.7392 18.286 101.655 18.286Z" fill="#1A1A1A"/>
<path d="M116.779 30.9929C114.872 30.9929 113.337 30.3938 112.172 29.1957C111.008 27.9891 110.426 26.462 110.426 24.6141C110.426 23.3823 110.734 22.2854 111.35 21.3235C111.966 20.3616 112.797 19.6276 113.843 19.1213C114.898 18.6066 116.07 18.3493 117.361 18.3493C119.218 18.3493 120.749 18.9273 121.956 20.0832C123.162 21.2391 123.765 22.7326 123.765 24.5635C123.765 25.8291 123.453 26.9555 122.829 27.9427C122.213 28.9215 121.378 29.6766 120.323 30.2082C119.268 30.7313 118.087 30.9929 116.779 30.9929ZM117.298 29.588C118.555 29.588 119.534 29.162 120.234 28.3098C120.943 27.4576 121.298 26.3227 121.298 24.9052C121.298 23.4877 120.893 22.2643 120.082 21.2349C119.272 20.2055 118.23 19.6909 116.956 19.6909C115.691 19.6909 114.716 20.1254 114.033 20.9945C113.349 21.8635 113.008 23.0026 113.008 24.4116C113.008 25.8207 113.408 27.0357 114.21 28.0566C115.012 29.0776 116.041 29.588 117.298 29.588Z" fill="#1A1A1A"/>
<path d="M28.8072 20.1568C25.3163 20.5951 23.448 13.3328 27.1666 11.9792C30.9338 11.5618 32.5203 19.0605 28.8072 20.1568Z" fill="#FB943F"/>
<path d="M25.0709 22.4759C23.351 25.9517 15.8121 23.5028 16.8615 19.2906C18.7667 15.5716 26.3442 18.4167 25.0709 22.4759Z" fill="#FB943F"/>
<path d="M33.0403 21.793C30.6806 19.3991 33.8812 14.4643 36.9227 16.5823C39.436 19.1929 35.9253 24.0324 33.0403 21.793Z" fill="#FB943F"/>
<path d="M34.3675 25.2227C34.8637 23.0196 39.4044 23.3374 39.3814 25.8613C38.8142 28.2276 34.1989 27.6918 34.3675 25.2227Z" fill="#FB943F"/>
<path d="M31.7095 27.3005C32.8413 26.4905 35.2647 30.2052 34.274 31.5588C33.0391 32.4021 30.6584 28.5107 31.7095 27.3005Z" fill="#FB943F"/>
<path d="M29.2055 28.4452C30.4197 28.56 30.2937 31.6423 28.9086 31.8773C27.6041 31.7309 27.8489 28.5769 29.2055 28.4452Z" fill="#FB943F"/>
<path d="M24.9055 29.1587C24.0439 29.4675 23.1877 29.5873 22.3035 29.2872C21.4392 29.0034 20.8823 28.1744 21.2419 27.2777C21.541 26.5321 22.2363 26.0537 22.9455 25.7455C26.4032 24.2719 28.6043 27.6424 24.9055 29.1587Z" fill="#FB943F"/>
</svg>
