<svg width="32" height="44" viewBox="0 0 32 44" fill="none" xmlns="http://www.w3.org/2000/svg">
<g clip-path="url(#clip0_1784_32688)">
<path d="M8.61292 33.6144L15.9712 33.9248L23.3113 33.6509V41.283C23.3113 42.4333 22.4895 43.2002 21.3027 43.2002L10.6213 43.1821C9.45284 43.1821 8.61292 42.4152 8.61292 41.2649V33.6144ZM10.6213 0.0183144L21.3027 0.00019455C22.4895 0.00019455 23.3113 0.785179 23.3113 1.91735V9.6041L15.9712 9.34867L8.61292 9.62251V1.93547C8.61292 0.803589 9.45284 0.0183144 10.6213 0.0183144ZM15.9712 7.26727C23.9867 7.26727 30.3227 13.6029 30.3227 21.6185C30.3227 29.6524 23.9867 35.9881 15.9712 35.9881C7.93724 35.9881 1.60156 29.6524 1.60156 21.6185C1.60156 13.6029 7.93724 7.26727 15.9712 7.26727ZM15.9712 10.0241C9.08753 10.0241 4.35864 14.7348 4.35864 21.6185C4.35864 28.5021 9.08753 33.231 15.9712 33.231C22.8364 33.231 27.5656 28.5021 27.5656 21.6185C27.5656 14.7348 22.8364 10.0241 15.9712 10.0241ZM29.3366 18.8614H31.1988C31.7284 18.8614 32.1118 19.2448 32.1118 19.7925V23.481C32.1118 24.0102 31.7284 24.4121 31.1988 24.4121H29.3366V18.8614Z" fill="black"/>
<rect y="24" width="4.85379" height="2.20627" rx="0.96" transform="rotate(-90 0 24)" fill="black"/>
<rect x="28.625" y="11.2002" width="4.85379" height="2.20627" rx="0.96" transform="rotate(60 28.625 11.2002)" fill="black"/>
<rect width="4.85379" height="2.20627" rx="0.96" transform="matrix(-0.5 0.866025 0.866025 0.5 29.1484 26.4695)" fill="black"/>
</g>
<defs>
<clipPath id="clip0_1784_32688">
<rect width="32" height="43.2" fill="white"/>
</clipPath>
</defs>
</svg>
