<svg width="31" height="44" viewBox="0 0 31 44" fill="none" xmlns="http://www.w3.org/2000/svg">
<g clip-path="url(#clip0_1784_32665)">
<path d="M7.01135 9.58558L14.3696 9.27521L21.7097 9.54905V1.91696C21.7097 0.766668 20.8879 -0.00019455 19.7011 -0.00019455L9.01969 0.0179271C7.85128 0.0179271 7.01135 0.784789 7.01135 1.93508V9.58558ZM9.01969 43.1817L19.7011 43.1998C20.8879 43.1998 21.7097 42.4148 21.7097 41.2826V33.5959L14.3696 33.8513L7.01135 33.5775V41.2645C7.01135 42.3964 7.85128 43.1817 9.01969 43.1817ZM14.3696 35.9327C22.3851 35.9327 28.7211 29.5971 28.7211 21.5815C28.7211 13.5476 22.3851 7.21193 14.3696 7.21193C6.33567 7.21193 0 13.5476 0 21.5815C0 29.5971 6.33567 35.9327 14.3696 35.9327ZM14.3696 33.1759C7.48597 33.1759 2.75708 28.4652 2.75708 21.5815C2.75708 14.6979 7.48597 9.96901 14.3696 9.96901C21.2348 9.96901 25.964 14.6979 25.964 21.5815C25.964 28.4652 21.2348 33.1759 14.3696 33.1759ZM27.735 24.3386H29.5973C30.1268 24.3386 30.5102 23.9552 30.5102 23.4075V19.719C30.5102 19.1898 30.1268 18.7879 29.5973 18.7879H27.735V24.3386ZM13.8344 20.2427L7.99144 25.3369C7.48029 25.7934 7.48029 26.5787 7.97331 27.0898C8.42981 27.5463 9.17826 27.5279 9.70781 27.0898L14.9847 22.5068L18.3078 25.3004C18.8009 25.7204 19.5677 25.6473 20.0242 25.1362C20.4623 24.625 20.3892 23.8397 19.8597 23.3832L16.1168 20.2427C15.35 19.5673 14.5831 19.5673 13.8344 20.2427Z" fill="black"/>
</g>
<defs>
<clipPath id="clip0_1784_32665">
<rect width="30.5102" height="43.2" fill="white" transform="matrix(1 0 0 -1 0 43.2)"/>
</clipPath>
</defs>
</svg>
