<svg width="30" height="44" viewBox="0 0 30 44" fill="none" xmlns="http://www.w3.org/2000/svg">
<g clip-path="url(#clip0_1784_32656)">
<path d="M0 29.9607C0 33.1092 1.23904 35.4247 3.5344 36.6842C4.65152 37.273 5.30144 38.0247 5.70784 39.3857L6.35776 41.5591C6.74368 42.8593 7.65792 43.4887 9.01888 43.4887H18.4032C19.8048 43.4887 20.6579 42.8794 21.0438 41.5591L21.7139 39.3857C22.1203 38.0247 22.7702 37.273 23.8874 36.6842C26.1827 35.4247 27.4218 33.1092 27.4218 29.9607V13.5278C27.4218 10.3796 26.1827 8.08424 23.8874 6.80456C22.7702 6.21544 22.1203 5.46376 21.7139 4.12328L21.0438 1.92936C20.6986 0.649676 19.7843 -0.000244141 18.4032 -0.000244141H9.01888C7.65792 -0.000244141 6.74368 0.629516 6.35776 1.92936L5.70784 4.12328C5.32192 5.4436 4.672 6.2356 3.5344 6.80456C1.25952 8.02312 0 10.339 0 13.5278V29.9607ZM2.96576 29.5342V13.9748C2.96576 10.9482 4.7328 9.12008 7.69856 9.12008H19.7235C22.689 9.12008 24.4563 10.9482 24.4563 13.9748V29.5342C24.4563 32.5402 22.689 34.3684 19.7235 34.3684H7.69856C4.7328 34.3684 2.96576 32.5402 2.96576 29.5342ZM26.975 20.3124H27.7062C28.7626 20.3124 29.4531 19.6014 29.4531 18.4436V15.7012C29.4531 14.5434 28.7626 13.8327 27.7062 13.8327H26.975V20.3124ZM7.7392 17.4279C7.25152 17.9966 7.3328 18.8702 7.92192 19.378L12.0858 22.8718C12.9594 23.603 13.7923 23.603 14.625 22.8718L21.7139 16.6762C22.2829 16.1684 22.2829 15.2951 21.7344 14.7265C21.2061 14.2186 20.3734 14.2186 19.8048 14.7265L13.3251 20.353L9.64832 17.2452C9.07968 16.7982 8.24672 16.8593 7.7392 17.4279Z" fill="black"/>
</g>
<defs>
<clipPath id="clip0_1784_32656">
<rect width="29.4531" height="43.489" fill="white" transform="matrix(1 0 0 -1 0 43.489)"/>
</clipPath>
</defs>
</svg>
