<svg width="29" height="42" viewBox="0 0 29 42" fill="none" xmlns="http://www.w3.org/2000/svg">
<path d="M2.29492 20.5869C2.29492 14.8852 2.67586 10.0806 4.28418 6.7207C5.06561 5.08825 6.11804 3.84206 7.53809 2.98926C8.96689 2.13132 10.8872 1.59961 13.5137 1.59961C18.6814 1.59972 21.9438 3.65003 24 6.8877C26.1296 10.241 27.0615 15.0313 27.0615 20.5869C27.0615 26.1423 26.1295 30.932 24 34.2852C21.9438 37.5228 18.6814 39.5731 13.5137 39.5732C10.8871 39.5732 8.96689 39.0415 7.53809 38.1836C6.11804 37.3308 5.06561 36.0846 4.28418 34.4521C2.67593 31.0923 2.29494 26.2884 2.29492 20.5869Z" stroke="black" stroke-width="3.2"/>
<rect y="33.1729" width="25.6" height="8" rx="1.6" transform="rotate(-90 0 33.1729)" fill="black"/>
</svg>
