<svg width="50" height="52" viewBox="0 0 50 52" fill="none" xmlns="http://www.w3.org/2000/svg">
<path d="M15.9822 18.9066C12.4207 23.3536 9.65658 27.4053 8.78859 31.1319C8.36357 32.9567 8.4036 34.6688 9.01075 36.3081C9.62061 37.9546 10.8394 39.6256 12.9316 41.3013C17.066 44.6123 21.0359 45.0845 24.8013 43.7961C28.664 42.4743 32.4445 39.2501 35.9376 34.8886C39.4306 30.5272 41.7505 26.1342 42.1965 22.0761C42.6313 18.1202 41.3032 14.3494 37.1689 11.0381C35.0767 9.3625 33.1798 8.5382 31.4399 8.30277C29.7075 8.06842 28.028 8.40337 26.3401 9.21677C22.8933 10.8779 19.5437 14.4598 15.9822 18.9066Z" stroke="black" stroke-width="2.4"/>
<rect width="17.6" height="8" rx="4" transform="matrix(-0.625117 0.780531 0.780531 0.625117 18.0078 9.52075)" fill="black"/>
</svg>
