<svg xmlns="http://www.w3.org/2000/svg" viewBox="0.0246 0.0001 16.3714 24.9161" role="img" aria-label="backpack.fill"><path fill="#FF6F5E" fill-rule="nonzero" d="M5.2199 24.9161 L11.1941 24.9161 C14.6747 24.9161 16.4207 23.1374 16.3958 19.6127 C16.3584 15.683 16.3355 12.8155 16.2356 10.6672 C15.9525 4.2879 14.1128 2.3907 8.2061 2.3907 C2.2993 2.3907 0.4682 4.2879 0.1851 10.6672 C0.0872 12.8155 0.0623 15.683 0.0249 19.6127 C0 23.1374 1.7374 24.9161 5.2199 24.9161 Z M4.96 20.9604 C4.0739 20.9604 3.5025 20.3698 3.5025 19.5049 L3.5025 14.4875 C3.5025 13.6207 4.0739 13.0302 4.96 13.0302 L11.4607 13.0302 C12.3403 13.0302 12.9182 13.6187 12.9182 14.4875 L12.9182 19.5049 C12.9182 20.3719 12.3403 20.9604 11.4607 20.9604 Z M3.5025 17.0223 L12.9182 17.0223 L12.9182 15.7135 L3.5025 15.7135 Z M8.2058 0.0001 C6.265 0.0001 4.9203 1.3173 4.9203 3.151 L6.4515 3.151 C6.4515 2.1889 7.1683 1.519 8.2058 1.519 C9.2416 1.519 9.9584 2.1889 9.9584 3.151 L11.4981 3.151 C11.4981 1.3173 10.1553 0.0001 8.2058 0.0001 Z"/></svg>
