<svg xmlns="http://www.w3.org/2000/svg" viewBox="0.698 0 14.0616 22.6892" role="img" aria-label="figure.walk"><path fill="#34C759" fill-rule="nonzero" d="M2.5035 22.3174 L5.6211 18.6049 C5.9333 18.2456 5.9727 18.1473 6.0996 17.7751 L6.3168 17.1153 L4.5938 14.9556 L4.0913 17.2837 L1.0174 20.9314 C0 22.126 1.6649 23.312 2.5035 22.3174 Z M10.0416 22.0032 C10.6927 23.3369 12.6757 22.5174 11.9623 21.0712 L9.8409 16.7763 C9.6911 16.4577 9.462 16.1162 9.2609 15.8256 L7.9214 13.9269 L8.011 13.6653 C8.374 12.5928 8.51 11.9394 8.5829 10.8762 L8.795 7.8792 C8.8967 6.4181 8.0347 5.3291 6.5607 5.3291 C5.46 5.3291 4.707 5.8968 3.6918 6.8804 L2.1093 8.4443 C1.5823 8.9482 1.4084 9.3817 1.3565 10.0611 L1.1691 12.5195 C1.1191 13.1579 1.4793 13.6054 2.0744 13.6285 C2.6633 13.6699 3.0339 13.3097 3.0943 12.6378 L3.3274 9.9616 L4.0534 9.3084 C4.3092 9.0774 4.6569 9.228 4.632 9.5029 L4.4614 11.7288 C4.3742 12.873 4.6405 13.4306 5.4475 14.4412 L7.5478 17.0743 C7.7558 17.3339 7.7827 17.4362 7.8702 17.6064 Z M13.6776 9.3842 L11.2963 9.3842 L9.7911 7.713 L9.6228 10.3289 L10.1726 10.8662 C10.5264 11.2098 10.8157 11.3198 11.4439 11.3198 L13.6776 11.3198 C14.3269 11.3198 14.7596 10.9473 14.7596 10.3501 C14.7596 9.7673 14.3163 9.3842 13.6776 9.3842 Z M7.7551 4.413 C8.9794 4.413 9.9649 3.4256 9.9649 2.2098 C9.9649 0.9892 8.9794 0 7.7551 0 C6.5411 0 5.5519 0.9892 5.5519 2.2098 C5.5519 3.4256 6.5411 4.413 7.7551 4.413 Z"/></svg>
