<svg xmlns="http://www.w3.org/2000/svg" viewBox="0 0 19.7223 18.2655" role="img" aria-label="bolt.heart.fill"><path fill="#FF2D9A" fill-rule="nonzero" d="M9.8621 18.2655 C10.1127 18.2655 10.4745 18.0777 10.7662 17.8856 C16.2253 14.3732 19.7223 10.26 19.7223 6.082 C19.7223 2.5 17.2432 0 14.1309 0 C12.189 0 10.7351 1.0747 9.8621 2.6772 C8.9975 1.0833 7.5333 0 5.5932 0 C2.4791 0 0 2.5 0 6.082 C0 10.26 3.497 14.3732 8.9561 17.8856 C9.2459 18.0777 9.6182 18.2655 9.8621 18.2655 Z M6.7222 10.0671 C6.7222 9.9686 6.7598 9.8618 6.8454 9.7686 L10.8268 4.8073 C11.1632 4.4039 11.6989 4.6797 11.5064 5.1816 L10.2062 8.6346 L12.6403 8.6346 C12.8428 8.6346 13.0021 8.7833 13.0021 8.9886 C13.0021 9.0889 12.9539 9.1977 12.879 9.2891 L8.889 14.2483 C8.563 14.6519 8.0254 14.374 8.2092 13.8742 L9.5075 10.4192 L7.0819 10.4192 C6.8727 10.4192 6.7222 10.2762 6.7222 10.0671 Z"/></svg>
