<svg xmlns="http://www.w3.org/2000/svg" viewBox="0 0.0703 27.4168 18.2396" role="img" aria-label="calendar.day.timeline.left"><path fill="#0A84FF" fill-rule="nonzero" d="M4.2385 15.1334 C4.2385 17.2178 5.327 18.3099 7.4407 18.3099 L20.8716 18.3099 C22.9664 18.3099 24.0739 17.2215 24.0739 15.1334 L24.0739 3.2545 C24.0739 1.1682 22.9664 0.0798 20.8716 0.0798 L7.4407 0.0798 C5.327 0.0798 4.2385 1.1719 4.2385 3.2545 Z M6.1499 15.114 L6.1499 3.2757 C6.1499 2.4208 6.6037 1.9997 7.4173 1.9997 L20.895 1.9997 C21.7075 1.9997 22.1521 2.4208 22.1521 3.2757 L22.1521 15.114 C22.1521 15.9689 21.7075 16.39 20.895 16.39 L7.4173 16.39 C6.6037 16.39 6.1499 15.9689 6.1499 15.114 Z M1.3944 18.2651 C2.0698 18.2651 2.6181 17.7168 2.6181 17.0414 C2.6181 16.3593 2.0698 15.8091 1.3944 15.8091 C0.7123 15.8091 0.1621 16.3593 0.1621 17.0414 C0.1621 17.7168 0.7123 18.2651 1.3944 18.2651 Z M1.3944 14.3292 C2.0698 14.3292 2.6181 13.7876 2.6181 13.1055 C2.6181 12.4234 2.0698 11.8713 1.3944 11.8713 C0.7123 11.8713 0.1621 12.4234 0.1621 13.1055 C0.1621 13.7876 0.7123 14.3292 1.3944 14.3292 Z M1.3944 6.4622 C2.0698 6.4622 2.6181 5.9121 2.6181 5.2299 C2.6181 4.5564 2.0698 4.0043 1.3944 4.0043 C0.7123 4.0043 0.1621 4.5564 0.1621 5.2299 C0.1621 5.9121 0.7123 6.4622 1.3944 6.4622 Z M1.3944 2.5264 C2.0698 2.5264 2.6181 1.9762 2.6181 1.3026 C2.6181 0.6205 2.0698 0.0703 1.3944 0.0703 C0.7123 0.0703 0.1621 0.6205 0.1621 1.3026 C0.1621 1.9762 0.7123 2.5264 1.3944 2.5264 Z M3.5827 11.3319 L27.4168 11.3319 L27.4168 7.05 L3.5827 7.05 C2.3918 7.05 1.4314 8.0001 1.4314 9.191 C1.4314 10.3818 2.3918 11.3319 3.5827 11.3319 Z M1.3843 10.5648 C1.8736 10.5648 2.3054 10.3074 2.5404 9.9145 L24.0718 9.9145 C24.4712 9.9145 24.7868 9.5989 24.7868 9.191 C24.7868 8.783 24.4712 8.4674 24.0718 8.4674 L2.5575 8.4674 C2.3243 8.0641 1.8736 7.7962 1.3843 7.7962 C0.6233 7.7962 0 8.4195 0 9.1805 C0 9.9415 0.6233 10.5648 1.3843 10.5648 Z"/></svg>
