<svg xmlns="http://www.w3.org/2000/svg" viewBox="0 0 16.7123 24.9989" role="img" aria-label="list.bullet.clipboard.fill"><path fill="#FFB800" fill-rule="nonzero" d="M16.7123 21.7862 L16.7123 7.0017 C16.7123 4.9068 15.6051 3.7872 13.5316 3.7872 L3.1721 3.7872 C1.1004 3.7872 0 4.9068 0 7.0017 L0 21.7862 C0 23.8897 1.1004 24.9989 3.1721 24.9989 L13.5316 24.9989 C15.6051 24.9989 16.7123 23.8897 16.7123 21.7862 Z M5.3446 7.3726 L11.3591 7.3726 C12.5805 7.3726 13.4567 6.4855 13.4567 5.2235 L13.4567 4.1957 C13.4567 2.9316 12.5805 2.0484 11.3549 2.0484 C11.1278 2.0484 10.8857 2.0484 10.633 2.0484 L11.618 2.7598 C11.4279 1.1759 9.99 0 8.3561 0 C6.7222 0 5.2758 1.1759 5.0942 2.7598 L6.0707 2.0484 C5.8247 2.0484 5.5845 2.0484 5.3488 2.0484 C4.1214 2.0484 3.2537 2.9316 3.2537 4.1957 L3.2537 5.2235 C3.2537 6.4855 4.1214 7.3726 5.3446 7.3726 Z M5.3446 6.2242 L11.3591 6.2242 C11.9505 6.2242 12.3102 5.8537 12.3102 5.2235 L12.3102 4.1957 C12.3102 3.5654 11.9505 3.1968 11.3591 3.1968 L10.5341 3.1968 C10.4663 2.0593 9.5218 1.1466 8.3561 1.1466 C7.1904 1.1466 6.2459 2.0593 6.1677 3.1968 L5.3446 3.1968 C4.755 3.1968 4.4021 3.5654 4.4021 4.1957 L4.4021 5.2235 C4.4021 5.8537 4.755 6.2242 5.3446 6.2242 Z M8.3561 4.1402 C7.8795 4.1402 7.4872 3.7441 7.4872 3.2713 C7.4872 2.7967 7.8795 2.413 8.3561 2.413 C8.8328 2.413 9.2146 2.7967 9.2146 3.2713 C9.2146 3.7441 8.8328 4.1402 8.3561 4.1402 Z M4.1904 12.3249 C3.686 12.3249 3.2695 11.9017 3.2695 11.4041 C3.2695 10.8998 3.686 10.4851 4.1904 10.4851 C4.6967 10.4851 5.1112 10.8977 5.1112 11.4041 C5.1112 11.9123 4.6967 12.3249 4.1904 12.3249 Z M4.1904 15.9023 C3.6754 15.9023 3.2695 15.4918 3.2695 14.9833 C3.2695 14.4829 3.6775 14.0752 4.1904 14.0752 C4.6947 14.0752 5.1112 14.4705 5.1112 14.9833 C5.1112 15.4918 4.6967 15.9023 4.1904 15.9023 Z M4.1904 19.6714 C3.686 19.6714 3.2695 19.2549 3.2695 18.7487 C3.2695 18.2548 3.686 17.8298 4.1904 17.8298 C4.6967 17.8298 5.1112 18.2442 5.1112 18.7487 C5.1112 19.2655 4.6967 19.6714 4.1904 19.6714 Z M6.9557 12.1175 C6.5551 12.1175 6.2338 11.7961 6.2338 11.4041 C6.2338 11.0225 6.5551 10.6905 6.9557 10.6905 L12.7291 10.6905 C13.1175 10.6905 13.4427 11.0225 13.4427 11.4041 C13.4427 11.7961 13.1175 12.1175 12.7291 12.1175 Z M6.9557 15.6988 C6.5445 15.6988 6.2338 15.3841 6.2338 14.9833 C6.2338 14.5846 6.5465 14.272 6.9557 14.272 L12.7291 14.272 C13.126 14.272 13.4427 14.5846 13.4427 14.9833 C13.4427 15.3841 13.1281 15.6988 12.7291 15.6988 Z M6.9557 19.4727 C6.5551 19.4727 6.2338 19.1408 6.2338 18.7487 C6.2338 18.3604 6.5465 18.0478 6.9557 18.0478 L12.7291 18.0478 C13.126 18.0478 13.4427 18.3604 13.4427 18.7487 C13.4427 19.1408 13.1175 19.4727 12.7291 19.4727 Z"/></svg>
