<svg xmlns="http://www.w3.org/2000/svg" viewBox="0.5186 0.5182 35.049 23.7548" role="img" aria-label="theatermasks.fill"><path fill="#BF5AF2" fill-rule="nonzero" d="M23.521 23.9102 C28.4512 25.2137 32.1871 22.9624 33.564 17.8328 L35.412 10.9513 C35.927 9.02 35.1554 7.7623 33.2092 7.2217 L23.5011 4.6025 C21.5214 4.075 20.2535 4.7947 19.7299 6.7531 L17.8757 13.6201 C16.4997 18.7347 18.6039 22.586 23.521 23.9102 Z M23.2944 13.3513 C22.6121 13.1748 22.2025 12.4819 22.3876 11.7826 C22.5727 11.1088 23.2695 10.7013 23.948 10.8825 C24.634 11.0715 25.038 11.7768 24.8566 12.457 C24.6695 13.1393 23.9729 13.5426 23.2944 13.3513 Z M29.0264 14.8822 C28.3441 14.699 27.9411 13.9936 28.1321 13.3048 C28.3067 12.6291 29.0015 12.2299 29.68 12.417 C30.3727 12.5937 30.77 13.2864 30.5868 13.9772 C30.4015 14.6597 29.705 15.0607 29.0264 14.8822 Z M24.9196 18.6271 C23.9199 18.3517 22.9181 18.3542 21.723 18.6031 C21.3223 18.6932 21.0933 18.3581 21.3024 18.0516 C22.1499 16.7474 23.806 16.1834 25.4601 16.639 C27.1565 17.0682 28.3003 18.3777 28.3554 19.9202 C28.3787 20.3151 28.0161 20.4757 27.7093 20.2124 C26.7877 19.3798 25.9401 18.9003 24.9196 18.6271 Z M14.3464 22.773 C20.02 21.2243 22.5658 16.6201 20.9945 10.7346 L19.1538 3.8614 C18.4356 1.1789 16.376 0 13.6423 0.7309 L3.9237 3.3081 C1.1902 4.0388 0 6.0714 0.7288 8.8067 L2.5554 15.6654 C4.1202 21.5548 8.6418 24.2841 14.3464 22.773 Z M13.9715 21.3953 C18.8872 20.054 20.9951 16.2371 19.6168 11.1075 L17.778 4.2277 C17.2671 2.2964 15.9692 1.585 14.0087 2.1086 L4.2901 4.6858 C2.3209 5.2093 1.5725 6.4715 2.1065 8.4299 L3.9331 15.3008 C5.3012 20.422 9.042 22.7011 13.9715 21.3953 Z M8.1017 11.3175 C7.3691 11.5257 7.2706 12.0036 6.962 12.0615 C6.812 12.0885 6.6263 11.9235 6.5458 11.6363 C6.3129 10.8046 6.837 9.917 7.6781 9.7076 C8.5305 9.4984 9.4029 9.9942 9.6194 10.8025 C9.7106 11.1068 9.6312 11.3311 9.4727 11.3856 C9.1214 11.5031 8.7814 11.1322 8.1017 11.3175 Z M14.0231 9.7116 C13.2882 9.9246 13.1878 10.4046 12.8834 10.4498 C12.7334 10.4807 12.5456 10.3159 12.4671 10.0285 C12.2363 9.2031 12.7584 8.3157 13.5953 8.1019 C14.4604 7.8843 15.3202 8.3846 15.5367 9.2033 C15.6278 9.5075 15.5505 9.7251 15.39 9.7817 C15.0427 9.9018 14.7028 9.5263 14.0231 9.7116 Z M12.9909 17.682 C10.9515 18.2132 8.996 17.5094 7.9568 15.8842 C7.7501 15.5557 7.9321 15.2468 8.3463 15.2883 C9.5787 15.3902 11.103 15.178 12.2398 14.8741 C13.3677 14.571 14.7708 14.0066 15.7958 13.2973 C16.1433 13.0535 16.4626 13.2265 16.452 13.6224 C16.3756 15.5615 15.0497 17.1176 12.9909 17.682 Z"/></svg>
