<svg xmlns="http://www.w3.org/2000/svg" viewBox="0 0 19.7223 18.2655" role="img" aria-label="heart"><path fill="#FF3B30" fill-rule="nonzero" d="M0 6.082 C0 10.26 3.497 14.3732 8.9561 17.8856 C9.2459 18.0777 9.6182 18.2655 9.8621 18.2655 C10.1127 18.2655 10.4745 18.0777 10.7662 17.8856 C16.2253 14.3732 19.7223 10.26 19.7223 6.082 C19.7223 2.5 17.2432 0 14.0521 0 C12.189 0 10.7351 0.8571 9.8621 2.148 C8.9975 0.8656 7.5333 0 5.6702 0 C2.4791 0 0 2.5 0 6.082 Z M1.9648 6.0738 C1.9648 3.6049 3.5966 1.9338 5.7829 1.9338 C7.5439 1.9338 8.5284 3.0055 9.1511 3.9356 C9.4185 4.3304 9.6089 4.4641 9.8621 4.4641 C10.1219 4.4641 10.2807 4.3219 10.5691 3.9356 C11.2322 3.0205 12.1888 1.9338 13.9479 1.9338 C16.1343 1.9338 17.7575 3.6049 17.7575 6.0738 C17.7575 9.5278 14.1547 13.3509 10.0491 16.0821 C9.9604 16.1413 9.8994 16.1831 9.8621 16.1831 C9.8247 16.1831 9.7637 16.1413 9.6817 16.0821 C5.5694 13.3509 1.9648 9.5278 1.9648 6.0738 Z"/></svg>
