<svg xmlns="http://www.w3.org/2000/svg" viewBox="0 0 10.6635 21.9881" role="img" aria-label="thermometer.variable"><path fill="#FF9500" fill-rule="nonzero" d="M5.3371 21.9881 C8.2757 21.9881 10.6635 19.6189 10.6635 16.6819 C10.6635 15.1639 10.0478 13.8391 8.8853 12.7697 C8.6731 12.5773 8.6341 12.4685 8.6341 12.1867 L8.6341 3.5757 C8.6341 1.4413 7.2974 0 5.3371 0 C3.364 0 2.019 1.4413 2.019 3.5757 L2.019 12.1867 C2.019 12.4685 1.9818 12.5793 1.7782 12.7697 C0.6076 13.8309 0 15.1639 0 16.6819 C0 19.6189 2.3878 21.9881 5.3371 21.9881 Z M5.3371 20.3151 C3.3154 20.3151 1.6854 18.6727 1.6854 16.6614 C1.6854 15.4286 2.2621 14.3471 3.2966 13.6559 C3.5924 13.4579 3.7083 13.2757 3.7083 12.882 L3.7083 3.6394 C3.7083 2.4678 4.3713 1.6873 5.3371 1.6873 C6.2921 1.6873 6.9466 2.4678 6.9466 3.6394 L6.9466 12.882 C6.9466 13.2757 7.071 13.4579 7.3669 13.6559 C8.3929 14.3471 8.978 15.4286 8.978 16.6614 C8.978 18.6727 7.3481 20.3151 5.3371 20.3151 Z M5.3265 18.9961 C6.6254 18.9961 7.6678 17.9537 7.6678 16.6528 C7.6678 15.7493 7.1566 15.0027 6.4167 14.6017 C6.098 14.4274 5.9946 14.3097 5.9946 13.8445 L5.9946 10.5939 C5.9946 10.2234 5.6988 9.9257 5.3265 9.9257 C4.9647 9.9257 4.667 10.2234 4.667 10.5939 L4.667 13.8445 C4.667 14.3097 4.5636 14.4274 4.2467 14.6017 C3.4983 15.0027 2.9957 15.7493 2.9957 16.6528 C2.9957 17.9537 4.0363 18.9961 5.3265 18.9961 Z M5.3265 8.9479 C5.6988 8.9479 5.9946 8.6398 5.9946 8.2779 C5.9946 7.9075 5.6988 7.6098 5.3265 7.6098 C4.9647 7.6098 4.667 7.9075 4.667 8.2779 C4.667 8.6398 4.9647 8.9479 5.3265 8.9479 Z M5.3265 6.6253 C5.6988 6.6253 5.9946 6.319 5.9946 5.9553 C5.9946 5.583 5.6988 5.2853 5.3265 5.2853 C4.9647 5.2853 4.667 5.583 4.667 5.9553 C4.667 6.319 4.9647 6.6253 5.3265 6.6253 Z M5.3265 4.3075 C5.6988 4.3075 5.9946 4.0031 5.9946 3.6394 C5.9946 3.269 5.6988 2.9694 5.3265 2.9694 C4.9647 2.9694 4.667 3.269 4.667 3.6394 C4.667 4.0031 4.9647 4.3075 5.3265 4.3075 Z"/></svg>
