<svg xmlns="http://www.w3.org/2000/svg" viewBox="0.5312 0 26.3489 18.6698" role="img" aria-label="lungs.fill"><path fill="#30B0C7" fill-rule="nonzero" d="M4.2787 18.5777 L8.0238 17.8563 C10.1471 17.4462 11.1101 16.2645 11.1101 14.0083 L11.1101 3.3894 C11.1101 1.3629 9.6828 0 7.5609 0 C5.746 0 4.263 1.2268 3.7548 3.1235 L0.6945 14.7735 C0 17.4088 1.5818 19.0911 4.2787 18.5777 Z M23.1278 18.5777 C25.8266 19.0911 27.417 17.4088 26.7139 14.7735 L23.6518 3.1235 C23.1521 1.2268 21.6709 0 19.8456 0 C17.7342 0 16.2964 1.3629 16.2964 3.3894 L16.2964 14.0083 C16.2964 16.2645 17.2594 17.4462 19.3846 17.8563 Z M5.8815 14.1837 C5.3821 14.2906 4.8529 13.9658 4.7605 13.4576 C4.6663 12.9603 5.0041 12.4523 5.4827 12.3493 L7.8197 11.8537 L5.8818 10.1202 C5.4998 9.7802 5.4535 9.1655 5.7956 8.7787 C6.1423 8.3991 6.7713 8.3802 7.135 8.7117 L10.0803 11.3794 L11.1101 11.1514 L11.1101 13.0825 Z M21.5269 14.1837 L16.2964 13.0825 L16.2964 11.1514 L17.3281 11.3794 L20.2734 8.7117 C20.6371 8.3802 21.2643 8.3991 21.6128 8.7787 C21.9531 9.1655 21.9086 9.7802 21.5266 10.1202 L19.5887 11.8537 L21.9239 12.3493 C22.4129 12.4523 22.7506 12.9603 22.6479 13.4576 C22.5555 13.9658 22.0263 14.2906 21.5269 14.1837 Z M13.7066 12.5282 L16.2964 13.0825 L16.2964 11.1514 L14.6403 10.8011 L14.6403 1.352 C14.6403 0.8419 14.2206 0.4116 13.7066 0.4116 C13.186 0.4116 12.7681 0.8419 12.7681 1.352 L12.7681 10.8011 L11.1101 11.1514 L11.1101 13.0825 Z"/></svg>
