<svg xmlns="http://www.w3.org/2000/svg" viewBox="0 0.1822 26.2622 21.557" role="img" aria-label="moon.haze"><path fill="#BF5AF2" fill-rule="nonzero" d="M12.6889 14.9106 C15.842 14.9106 18.4436 13.0186 19.5879 10.5096 C19.8947 9.88 19.4725 9.5021 18.9201 9.6974 C18.3519 9.9111 17.4549 10.0942 16.6408 10.0942 C12.3862 10.0942 9.9725 7.6717 9.9725 3.4219 C9.9725 2.62 10.1674 1.6883 10.443 1.0209 C10.7093 0.3892 10.2494 0 9.6314 0.2681 C7.0068 1.4155 5.051 4.1062 5.051 7.2727 C5.051 11.4894 8.4743 14.9106 12.6889 14.9106 Z M12.6889 13.2605 C9.3963 13.2605 6.7047 10.5774 6.7047 7.2809 C6.7047 5.6245 7.4343 4.218 8.3886 3.211 C8.3572 3.3301 8.3645 3.4425 8.3666 3.6028 C8.4303 8.5773 11.4999 11.6365 16.2633 11.7064 C16.4222 11.7064 16.5463 11.7052 16.6321 11.702 C15.6249 12.6368 14.2399 13.2605 12.6889 13.2605 Z M1.8825 16.6873 L24.3797 16.6873 C25.4184 16.6873 26.2622 15.8435 26.2622 14.8047 C26.2622 13.7679 25.4184 12.9241 24.3797 12.9241 L1.8825 12.9241 C0.8456 12.9241 0 13.7679 0 14.8047 C0 15.8435 0.8456 16.6873 1.8825 16.6873 Z M1.7751 17.9884 L21.5036 17.9884 C21.8774 17.9884 22.1688 17.7087 22.1688 17.3325 C22.1688 16.9649 21.8774 16.6748 21.5036 16.6748 L1.7751 16.6748 C1.4013 16.6748 1.1099 16.9649 1.1099 17.3325 C1.1099 17.7087 1.4013 17.9884 1.7751 17.9884 Z M3.2455 21.7392 L22.974 21.7392 C23.3477 21.7392 23.6392 21.4594 23.6392 21.0833 C23.6392 20.7157 23.3477 20.4255 22.974 20.4255 L3.2455 20.4255 C2.8717 20.4255 2.5802 20.7157 2.5802 21.0833 C2.5802 21.4594 2.8717 21.7392 3.2455 21.7392 Z M3.2455 14.2377 L22.974 14.2377 C23.3477 14.2377 23.6392 13.9579 23.6392 13.5818 C23.6392 13.2142 23.3477 12.9241 22.974 12.9241 L3.2455 12.9241 C2.8717 12.9241 2.5802 13.2142 2.5802 13.5818 C2.5802 13.9579 2.8717 14.2377 3.2455 14.2377 Z"/></svg>
