<svg xmlns="http://www.w3.org/2000/svg" viewBox="0 0 16.5802 21.3986" role="img" aria-label="flame"><path fill="#FF9500" fill-rule="nonzero" d="M7.8207 21.3986 C13.0745 21.3986 16.5802 17.8561 16.5802 12.5186 C16.5802 3.6955 9.0367 0 3.8298 0 C2.8243 0 2.1763 0.3825 2.1763 1.0919 C2.1763 1.3657 2.304 1.657 2.5247 1.9174 C3.7257 3.3629 4.839 4.9383 4.8561 6.8109 C4.8561 7.1958 4.8198 7.5266 4.5534 7.9786 L5.004 7.8852 C4.4842 6.3688 3.3878 5.4703 2.4047 5.4703 C1.9389 5.4703 1.628 5.7959 1.628 6.3038 C1.628 6.6021 1.7028 7.1447 1.7028 7.6214 C1.7028 9.8572 0 11.0137 0 14.612 C0 18.6892 3.1164 21.3986 7.8207 21.3986 Z M7.9286 19.7524 C4.1652 19.7524 1.6501 17.6856 1.6501 14.612 C1.6501 11.5276 3.3309 10.5408 3.3268 7.7774 C3.3268 7.4249 3.2468 7.1135 3.1777 6.8413 L2.8776 7.1534 C3.6264 7.7254 4.1407 8.6701 4.4146 9.9399 C4.4688 10.2056 4.6152 10.3409 4.8312 10.3409 C5.7168 10.3409 6.3189 8.3237 6.3189 6.9118 C6.3189 4.7189 5.3875 2.5894 3.8548 1.1418 L3.4898 1.564 C10.3913 1.7678 14.8696 6.3238 14.8696 12.4655 C14.8696 16.8258 12.0862 19.7524 7.9286 19.7524 Z M8.0559 18.3943 C10.3134 18.3943 11.4686 16.7591 11.4686 14.8251 C11.4686 12.8852 10.3578 10.8161 8.2558 9.8506 C8.1417 9.803 8.0442 9.8693 8.067 10.0023 C8.2436 11.5102 8.0515 12.9144 7.5455 13.6636 C7.3193 13.0804 7.0372 12.5939 6.6061 12.2041 C6.5044 12.1169 6.4176 12.1644 6.4051 12.283 C6.2493 13.4462 5.0615 14.0106 5.0615 15.6912 C5.0615 17.3072 6.2592 18.3943 8.0559 18.3943 Z"/></svg>
