<svg xmlns="http://www.w3.org/2000/svg" viewBox="0 0 18.4107 22.7907" role="img" aria-label="shoeprints.fill"><path fill="#A3D63C" fill-rule="nonzero" d="M16.144 6.5078 C14.0955 5.77 11.1611 8.1311 10.2785 10.542 C9.8758 11.6674 9.4482 14.0043 9.6724 16.0947 L14.9363 18.0104 C16.4513 16.5484 17.6344 14.5023 18.0475 13.3684 C18.9197 10.9577 18.1963 7.2596 16.144 6.5078 Z M10.2703 22.6611 C11.7517 23.1972 13.0904 22.025 13.845 19.9759 C13.9149 19.7865 13.9924 19.4892 14.0628 19.2082 L9.5912 17.579 C9.4589 17.8353 9.3453 18.1134 9.2772 18.301 C8.5226 20.3711 8.7972 22.1126 10.2703 22.6611 Z M4.1276 0 C1.9484 0 0 3.2238 0 5.7883 C0 6.9885 0.4004 9.3293 1.3274 11.2168 L6.9258 11.2168 C7.8547 9.3293 8.2551 6.9885 8.2551 5.7883 C8.2551 3.2238 6.3067 0 4.1276 0 Z M4.1382 17.1845 C5.7091 17.1845 6.5591 15.6277 6.5591 13.4328 C6.5591 13.2309 6.5419 12.926 6.5048 12.6409 L1.7609 12.6409 C1.7152 12.926 1.7067 13.2309 1.7067 13.4328 C1.7067 15.6277 2.5566 17.1845 4.1382 17.1845 Z"/></svg>
