<svg xmlns="http://www.w3.org/2000/svg" viewBox="0 0 20.1737 20.1633" role="img" aria-label="gauge.with.needle"><path fill="#FF375F" fill-rule="nonzero" d="M10.0817 20.1634 C15.6526 20.1634 20.1737 15.6526 20.1737 10.0817 C20.1737 4.5107 15.6526 0 10.0817 0 C4.5211 0 0 4.5107 0 10.0817 C0 15.6526 4.5211 20.1634 10.0817 20.1634 Z M10.0817 18.1817 C5.6045 18.1817 1.9884 14.5588 1.9884 10.0817 C1.9884 5.6045 5.6045 1.9817 10.0817 1.9817 C14.5607 1.9817 18.1835 5.6045 18.1835 10.0817 C18.1835 14.5588 14.5607 18.1817 10.0817 18.1817 Z M10.0817 11.7297 C10.9956 11.7297 11.7297 10.9956 11.7297 10.0817 C11.7297 9.5316 11.4631 9.0284 11.0068 8.7242 L6.3348 5.4773 C5.7667 5.0905 5.2099 5.6534 5.5773 6.2299 L8.6433 10.8897 C8.9711 11.3954 9.4826 11.7297 10.0817 11.7297 Z"/></svg>
