<svg xmlns="http://www.w3.org/2000/svg" viewBox="0 0.0989 20.1288 19.82" role="img" aria-label="music.note.list"><path fill="#FF375F" fill-rule="nonzero" d="M0.708 12.0328 L9.3633 12.0328 C9.7625 12.0328 10.0713 11.7201 10.0713 11.3287 C10.0713 10.9466 9.754 10.6311 9.3633 10.6311 L0.708 10.6311 C0.3173 10.6311 0 10.9466 0 11.3287 C0 11.7201 0.3088 12.0328 0.708 12.0328 Z M0.708 8.5514 L9.3633 8.5514 C9.7625 8.5514 10.0713 8.2338 10.0713 7.8473 C10.0713 7.4603 9.754 7.1497 9.3633 7.1497 L0.708 7.1497 C0.3173 7.1497 0 7.4603 0 7.8473 C0 8.2338 0.3088 8.5514 0.708 8.5514 Z M0.708 5.0803 L9.3633 5.0803 C9.754 5.0803 10.0713 4.7609 10.0713 4.3781 C10.0713 3.9874 9.754 3.672 9.3633 3.672 L0.708 3.672 C0.3173 3.672 0 3.9874 0 4.3781 C0 4.7609 0.3173 5.0803 0.708 5.0803 Z M20.1288 4.6245 L20.1288 0.9675 C20.1288 0.3883 19.6554 0 19.0926 0.121 L14.0583 1.2145 C13.3809 1.363 13.0152 1.7321 13.0152 2.3293 L13.0244 13.1518 C13.0672 13.5856 12.8652 13.8576 12.4939 13.9299 L10.9279 14.256 C8.9174 14.6784 7.9487 15.7113 7.9487 17.2653 C7.9487 18.8323 9.1438 19.9189 10.8393 19.9189 C12.443 19.9189 14.5505 18.7234 14.5505 15.9309 L14.5505 6.9873 C14.5505 6.5138 14.6051 6.4515 15.0324 6.3629 L19.5218 5.369 C19.8972 5.2879 20.1288 5.0019 20.1288 4.6245 Z"/></svg>
