<svg xmlns="http://www.w3.org/2000/svg" viewBox="0 0 11.6638 18.1777" role="img" aria-label="hourglass"><path fill="#AF52DE" fill-rule="nonzero" d="M1.7136 18.1777 L9.9502 18.1777 C11.0133 18.1777 11.6638 17.5718 11.6638 16.462 L11.6638 16.2743 C11.6638 13.8674 9.1359 11.3474 7.8606 10.0825 C7.1941 9.416 7.2302 8.6939 7.8606 8.0702 C9.1359 6.8053 11.6638 4.2978 11.6638 1.8784 L11.6638 1.7157 C11.6638 0.6059 11.0133 0 9.9502 0 L1.7136 0 C0.6505 0 0 0.6059 0 1.7157 L0 1.8784 C0 4.2978 2.5279 6.8053 3.8032 8.0702 C4.4269 8.6939 4.4697 9.416 3.8032 10.0825 C2.5279 11.3474 0 13.8674 0 16.2743 L0 16.462 C0 17.5718 0.6505 18.1777 1.7136 18.1777 Z M2.5293 16.6576 C2.0832 16.6576 1.9676 16.1419 2.2702 15.8525 L5.2482 12.9878 C5.4051 12.8374 5.4494 12.7896 5.4494 12.5562 L5.4494 8.4088 C5.4494 7.9235 5.3503 7.6647 4.9975 7.3586 C4.3778 6.814 3.4913 6.0474 2.9164 5.4297 C2.6462 5.1457 2.7826 4.792 3.1394 4.792 L8.5243 4.792 C8.8812 4.792 9.0176 5.1457 8.7388 5.4297 C8.1706 6.0474 7.2879 6.814 6.6577 7.3586 C6.3134 7.6647 6.2144 7.9235 6.2144 8.4088 L6.2144 12.5562 C6.2144 12.7896 6.2587 12.8374 6.4156 12.9878 L9.3936 15.8525 C9.6894 16.1419 9.572 16.6576 9.1278 16.6576 Z M2.5293 16.6576 C2.0832 16.6576 1.9676 16.1419 2.2702 15.8525 L5.2482 12.9878 C5.4051 12.8374 5.4494 12.7896 5.4494 12.5562 L5.4494 8.4088 C5.4494 7.9235 5.3503 7.6647 4.9975 7.3586 C4.3778 6.814 3.4913 6.0474 2.9164 5.4297 C2.6462 5.1457 2.7826 4.792 3.1394 4.792 L8.5243 4.792 C8.8812 4.792 9.0176 5.1457 8.7388 5.4297 C8.1706 6.0474 7.2879 6.814 6.6577 7.3586 C6.3134 7.6647 6.2144 7.9235 6.2144 8.4088 L6.2144 12.5562 C6.2144 12.7896 6.2587 12.8374 6.4156 12.9878 L9.3936 15.8525 C9.6894 16.1419 9.572 16.6576 9.1278 16.6576 Z"/></svg>
