<svg xmlns="http://www.w3.org/2000/svg" viewBox="0 0 30.0023 21.311" role="img" aria-label="cloud.sun.fill"><path fill="#32ADE6" fill-rule="nonzero" d="M19.7981 3.7917 C20.2802 3.7917 20.6819 3.3944 20.6819 2.9141 L20.6819 0.8842 C20.6819 0.4086 20.2802 0 19.7981 0 C19.3226 0 18.9143 0.4086 18.9143 0.8842 L18.9143 2.9141 C18.9143 3.3944 19.3226 3.7917 19.7981 3.7917 Z M24.3418 5.6942 C24.681 6.0352 25.2491 6.0396 25.6005 5.69 L27.0351 4.2576 C27.38 3.9128 27.3782 3.3484 27.0371 3.0055 C26.6961 2.6645 26.1319 2.6647 25.7955 3.0097 L24.3439 4.4572 C24.0075 4.783 24.0075 5.3513 24.3418 5.6942 Z M26.2173 10.2338 C26.2173 10.7245 26.628 11.1118 27.1015 11.1118 L29.1229 11.1118 C29.6127 11.1118 30.0023 10.7245 30.0023 10.2338 C30.0023 9.7584 29.6127 9.3498 29.1229 9.3498 L27.1015 9.3498 C26.628 9.3498 26.2173 9.7584 26.2173 10.2338 Z M24.348 14.7803 C24.0137 15.1214 24.0178 15.6835 24.3521 16.0305 L25.7996 17.4756 C26.1319 17.8139 26.7023 17.8014 27.0433 17.4671 C27.3843 17.1365 27.3821 16.5704 27.0392 16.2275 L25.5981 14.7844 C25.2532 14.4499 24.6872 14.4479 24.348 14.7803 Z M15.2625 14.7783 C14.9282 14.4458 14.3534 14.4499 14.0124 14.7824 L12.576 16.2149 C12.2311 16.5577 12.2329 17.124 12.5654 17.4565 C12.9064 17.7889 13.4792 17.7973 13.8156 17.4609 L15.2519 16.0305 C15.5932 15.6876 15.5932 15.1193 15.2625 14.7783 Z M13.3833 10.2338 C13.3833 9.7584 12.9794 9.3498 12.4973 9.3498 L10.474 9.3498 C9.9966 9.3498 9.5965 9.7584 9.5965 10.2338 C9.5965 10.7245 9.9966 11.1118 10.474 11.1118 L12.4973 11.1118 C12.9794 11.1118 13.3833 10.7245 13.3833 10.2338 Z M15.2478 5.6921 C15.587 5.3578 15.5829 4.7871 15.2523 4.4572 L13.8114 3.0035 C13.4877 2.669 12.9174 2.6625 12.5763 3.0035 C12.2353 3.3464 12.2376 3.9087 12.5719 4.2449 L14.0062 5.688 C14.3493 6.0311 14.9135 6.0331 15.2478 5.6921 Z M19.8003 15.1249 C22.4803 15.1249 24.6847 12.9119 24.6847 10.2319 C24.6847 7.5502 22.4803 5.3457 19.8003 5.3457 C17.1271 5.3457 14.9226 7.5502 14.9226 10.2319 C14.9226 12.9119 17.1271 15.1249 19.8003 15.1249 Z M5.3851 21.311 L16.2194 21.311 C19.7054 21.311 22.4253 18.6136 22.4253 15.1557 C22.4253 11.9037 20.0005 9.3977 16.7168 9.0591 C15.3642 6.9486 13.116 5.5466 10.3291 5.5466 C6.6922 5.5466 3.6002 8.1467 2.8976 11.6567 C1.1527 12.4829 0 14.2008 0 16.2627 C0 19.1965 2.2223 21.311 5.3851 21.311 Z M5.3851 20.0496 L16.2194 20.0496 C19.0162 20.0496 21.1639 17.9204 21.1639 15.1557 C21.1639 12.3775 18.9544 10.2958 15.9751 10.281 C14.8803 8.2022 12.8868 6.8063 10.3291 6.8063 C7.0639 6.8063 4.3333 9.3078 4.042 12.5665 C2.3784 13.0563 1.2615 14.4737 1.2615 16.2627 C1.2615 18.4855 2.9088 20.0496 5.3851 20.0496 Z"/></svg>
