<svg xmlns="http://www.w3.org/2000/svg" viewBox="0 0 32.4513 21.4469" role="img" aria-label="applewatch.radiowaves.left.and.right"><path fill="#FF3B30" fill-rule="nonzero" d="M3.8735 17.3807 C4.1977 16.9915 4.1011 16.5079 3.7242 16.0904 C2.4526 14.6701 1.7433 12.7844 1.7433 10.7087 C1.7433 8.635 2.4505 6.7473 3.7242 5.329 C4.1032 4.9115 4.1998 4.428 3.8735 4.0388 C3.5285 3.6328 2.9314 3.612 2.4942 4.0895 C0.9042 5.8048 0 8.1764 0 10.7087 C0 13.2451 0.8795 15.6003 2.4942 17.3299 C2.9355 17.8054 3.5306 17.7888 3.8735 17.3807 Z M28.5864 17.3807 C28.9292 17.7888 29.5225 17.8054 29.9571 17.3299 C31.5718 15.6003 32.4513 13.2451 32.4513 10.7087 C32.4513 8.1764 31.5471 5.8048 29.9571 4.0895 C29.5266 3.612 28.9313 3.6328 28.5864 4.0388 C28.2515 4.428 28.3567 4.9115 28.7252 5.329 C30.0009 6.7493 30.708 8.635 30.708 10.7087 C30.708 12.7844 29.9968 14.6701 28.7252 16.0904 C28.3587 16.5079 28.2536 16.9915 28.5864 17.3807 Z M6.7208 14.5871 C7.035 14.2017 6.914 13.7375 6.5924 13.2923 C6.0578 12.6132 5.7629 11.6726 5.7629 10.7087 C5.7629 9.7448 6.0578 8.8042 6.5924 8.123 C6.9119 7.6778 7.035 7.2157 6.7208 6.8303 C6.3737 6.429 5.73 6.4141 5.3306 6.8962 C4.4947 7.9092 4.0214 9.2573 4.0214 10.7087 C4.0214 12.1601 4.4947 13.5082 5.3306 14.5192 C5.73 15.0013 6.3737 14.9884 6.7208 14.5871 Z M25.739 14.5871 C26.0843 14.9884 26.7195 15.0013 27.1207 14.5192 C27.9566 13.5082 28.4298 12.1601 28.4298 10.7087 C28.4298 9.2573 27.9566 7.9092 27.1207 6.8962 C26.7195 6.4141 26.0843 6.429 25.739 6.8303 C25.4145 7.2157 25.5393 7.6778 25.8589 8.123 C26.4002 8.8042 26.6884 9.7448 26.6884 10.7087 C26.6884 11.6726 26.4002 12.6132 25.8589 13.2923 C25.5373 13.7375 25.4145 14.2017 25.739 14.5871 Z M9.1529 14.762 C9.1529 16.2829 9.7347 17.3974 10.8612 18.0411 C11.4012 18.3494 11.7218 18.7259 11.9361 19.3581 L12.3148 20.4975 C12.5195 21.1338 12.9892 21.4468 13.6755 21.4468 L18.243 21.4468 C18.9415 21.4468 19.3941 21.1443 19.5951 20.4975 L19.9775 19.3581 C20.1899 18.7259 20.5087 18.3494 21.0571 18.0411 C22.175 17.3974 22.7674 16.2849 22.7674 14.762 L22.7674 6.6848 C22.7674 5.1618 22.175 4.0512 21.0571 3.4057 C20.5087 3.0974 20.1899 2.7209 19.9775 2.0905 L19.5951 0.9492 C19.4093 0.3215 18.9329 0 18.243 0 L13.6755 0 C12.9892 0 12.5195 0.3129 12.3148 0.9492 L11.9361 2.0905 C11.7242 2.7185 11.4016 3.1141 10.8612 3.4057 C9.7433 4.0237 9.1529 5.1468 9.1529 6.6848 Z M10.8502 14.4517 L10.8502 6.9932 C10.8502 5.5645 11.6689 4.7139 13.0635 4.7139 L18.8587 4.7139 C20.2447 4.7139 21.0722 5.5666 21.0722 6.9932 L21.0722 14.4517 C21.0722 15.8802 20.2447 16.7308 18.8587 16.7308 L13.0635 16.7308 C11.6689 16.7308 10.8502 15.8822 10.8502 14.4517 Z M22.4406 10.0701 L22.8598 10.0701 C23.4039 10.0701 23.7727 9.6869 23.7727 9.0948 L23.7727 7.7511 C23.7727 7.1545 23.4039 6.7693 22.8598 6.7693 L22.4406 6.7693 Z"/></svg>
