<svg xmlns="http://www.w3.org/2000/svg" viewBox="0 0 16.22 19.5331" role="img" aria-label="checkmark.shield.fill"><path fill="#34C759" fill-rule="nonzero" d="M8.1143 19.5331 C8.2828 19.5331 8.5337 19.4704 8.7892 19.3409 C14.3743 16.4636 16.22 14.952 16.22 11.4534 L16.22 4.1808 C16.22 3.0413 15.7761 2.634 14.8291 2.2391 C13.7552 1.7932 10.1602 0.5179 9.1133 0.1656 C8.7959 0.064 8.4343 0 8.1143 0 C7.7857 0 7.4241 0.0726 7.1067 0.1656 C6.0532 0.5015 2.4667 1.8018 1.3927 2.2391 C0.4439 2.6236 0 3.0413 0 4.1808 L0 11.4534 C0 14.952 1.9301 16.3138 7.4394 19.3409 C7.6881 19.479 7.9391 19.5331 8.1143 19.5331 Z M7.0246 14.1609 C6.6504 14.1609 6.3535 14.0056 6.0737 13.6492 L3.6872 10.737 C3.5067 10.5208 3.4249 10.2916 3.4249 10.0393 C3.4249 9.5436 3.8194 9.1353 4.3179 9.1353 C4.6223 9.1353 4.8598 9.2487 5.1045 9.5715 L6.9885 11.9558 L11.026 5.4952 C11.2316 5.161 11.5154 4.9868 11.82 4.9868 C12.3033 4.9868 12.7533 5.3262 12.7533 5.8333 C12.7533 6.0675 12.6346 6.3115 12.4979 6.5243 L7.9267 13.6431 C7.7083 13.9846 7.3928 14.1609 7.0246 14.1609 Z"/></svg>
