<svg xmlns="http://www.w3.org/2000/svg" viewBox="0 0 15.1149 18.5428" role="img" aria-label="arrow.down"><path fill="#FF9500" fill-rule="nonzero" d="M7.5573 18.5428 C7.849 18.5428 8.1347 18.4166 8.3469 18.1958 L14.7851 11.7565 C15.0076 11.5187 15.1149 11.2626 15.1149 10.9816 C15.1149 10.386 14.6763 9.9404 14.0922 9.9404 C13.7927 9.9404 13.526 10.0638 13.339 10.2528 L11.1208 12.4409 L7.5469 16.4242 L3.992 12.4409 L1.7777 10.2528 C1.5889 10.0638 1.3222 9.9404 1.0246 9.9404 C0.4386 9.9404 0 10.386 0 10.9816 C0 11.2626 0.1091 11.5187 0.3317 11.7565 L6.7659 18.1958 C6.9781 18.4166 7.2657 18.5428 7.5573 18.5428 Z M7.5573 17.3576 C8.1198 17.3576 8.5021 16.9654 8.5021 16.3906 L8.6282 13.2101 L8.6282 1.0828 C8.6282 0.4427 8.1852 0 7.5573 0 C6.9277 0 6.4865 0.4427 6.4865 1.0828 L6.4865 13.2101 L6.6107 16.3925 C6.6107 16.9654 6.9949 17.3576 7.5573 17.3576 Z"/></svg>
