<svg xmlns="http://www.w3.org/2000/svg" viewBox="0 0 13.6604 19.4364" role="img" aria-label="lock.fill"><path fill="#3E63DD" fill-rule="nonzero" d="M2.2562 19.4364 L11.4042 19.4364 C12.8859 19.4364 13.6604 18.6458 13.6604 17.0426 L13.6604 10.1339 C13.6604 8.5433 12.8859 7.7527 11.4042 7.7527 L2.2562 7.7527 C0.7745 7.7527 0 8.5433 0 10.1339 L0 17.0426 C0 18.6458 0.7745 19.4364 2.2562 19.4364 Z M1.7915 8.571 L3.6131 8.571 L3.6131 5.2841 C3.6131 2.9925 5.0864 1.7436 6.8269 1.7436 C8.5701 1.7436 10.0561 2.9925 10.0561 5.2841 L10.0561 8.571 L11.8777 8.571 L11.8777 5.4534 C11.8777 1.8514 9.4951 0 6.8269 0 C4.1653 0 1.7915 1.8514 1.7915 5.4534 Z"/></svg>
