<svg xmlns="http://www.w3.org/2000/svg" viewBox="0 0.1952 20.1737 23.9617" role="img" aria-label="arrow.trianglehead.2.clockwise"><path fill="#FF2D9A" fill-rule="nonzero" d="M8.3377 0.9211 L8.3377 5.5286 C8.3377 6.2488 8.8761 6.4389 9.4171 6.0493 L12.5801 3.785 C13.0143 3.4684 13.0229 2.9897 12.5801 2.6666 L9.4275 0.4002 C8.8761 0 8.3377 0.1922 8.3377 0.9211 Z M1.9884 12.1761 C1.9884 7.699 5.6045 4.0761 10.0858 4.0761 C10.6336 4.0761 11.0766 3.6312 11.0766 3.0853 C11.0766 2.5356 10.6422 2.103 10.0943 2.0944 C4.5107 2.103 0 6.6052 0 12.1761 C0 14.9653 1.163 17.5033 3.0275 19.2996 C3.5055 19.8053 4.176 19.6965 4.5254 19.3008 C4.8264 18.954 4.9121 18.4445 4.4385 17.9118 C2.9197 16.4646 1.9884 14.427 1.9884 12.1761 Z M11.8361 23.4311 L11.8361 18.8236 C11.8361 18.1034 11.2891 17.9133 10.7529 18.3029 L7.5936 20.5672 C7.1576 20.8838 7.149 21.3625 7.5936 21.6856 L10.7444 23.952 C11.2891 24.3522 11.8361 24.16 11.8361 23.4311 Z M18.1835 12.1761 C18.1835 16.6532 14.5607 20.2761 10.0776 20.2761 C9.5401 20.2761 9.0867 20.721 9.0867 21.267 C9.0867 21.8166 9.5316 22.2492 10.069 22.2578 C15.6612 22.2492 20.1737 17.747 20.1737 12.1761 C20.1737 9.3869 19.0107 6.8489 17.1463 5.0526 C16.6664 4.5469 15.9959 4.6557 15.6483 5.0514 C15.3455 5.3982 15.2616 5.9077 15.7352 6.4404 C17.2436 7.8876 18.1835 9.9252 18.1835 12.1761 Z"/></svg>
