<svg xmlns="http://www.w3.org/2000/svg" viewBox="0.0452 0.1952 22.7572 20.4373" role="img" aria-label="wifi.slash"><path fill="#0A84FF" fill-rule="nonzero" d="M1.5604 10.6911 C1.7644 10.9056 2.0857 10.9036 2.2961 10.6765 C4.7079 8.127 7.8736 6.7819 11.4196 6.7819 C14.9887 6.7819 18.1743 8.1281 20.5747 10.6892 C20.7681 10.893 21.0787 10.8824 21.2892 10.6698 L22.66 9.3074 C22.8474 9.1115 22.8429 8.8596 22.6871 8.6704 C20.3487 5.7806 15.967 3.6982 11.4196 3.6982 C6.8845 3.6982 2.4991 5.7787 0.1558 8.6704 C0 8.8596 0.006 9.1115 0.1915 9.3074 Z M5.6427 14.7553 C5.866 14.9849 6.1728 14.9554 6.3978 14.7159 C7.5839 13.4142 9.4868 12.5033 11.4196 12.5137 C13.3755 12.5033 15.276 13.4439 16.4878 14.7497 C16.6916 14.9766 16.975 14.9639 17.2088 14.7467 L18.7454 13.2533 C18.9224 13.0765 18.939 12.8262 18.7851 12.6302 C17.2618 10.7981 14.4817 9.4606 11.4196 9.4606 C8.3612 9.4606 5.583 10.8 4.0664 12.6302 C3.9039 12.8262 3.9119 13.0594 4.106 13.2533 Z M11.4217 20.1641 C11.6619 20.1641 11.8599 20.056 12.2577 19.6746 L14.6565 17.3677 C14.8249 17.2032 14.8625 16.9393 14.7065 16.7441 C14.0296 15.8781 12.7958 15.1739 11.4217 15.1739 C10.0129 15.1739 8.7649 15.9099 8.0925 16.8201 C7.9784 16.9921 8.033 17.2073 8.2038 17.3677 L10.5894 19.6746 C10.9871 20.0474 11.1918 20.1641 11.4217 20.1641 Z M18.8129 20.056 C19.5929 20.8292 20.857 20.8251 21.6242 20.0408 C22.3842 19.2637 22.3803 18.0292 21.6136 17.2638 L5.1269 0.7771 C4.3554 0.0037 3.0892 0 2.32 0.773 C1.5593 1.5423 1.5593 2.8212 2.3306 3.5711 Z M19.664 19.2029 C19.9712 19.5081 20.47 19.504 20.7625 19.2029 C21.0631 18.8919 21.0659 18.4116 20.7625 18.1103 L4.2823 1.6321 C3.975 1.3248 3.4781 1.3211 3.175 1.628 C2.8804 1.9207 2.8804 2.4407 3.175 2.7247 Z"/></svg>
