<svg xmlns="http://www.w3.org/2000/svg" viewBox="0 0 23.8092 23.7083" role="img" aria-label="sparkles.rectangle.stack.fill"><path fill="#AF52DE" fill-rule="nonzero" d="M7.1465 9.8188 L16.6627 9.8188 C17.5609 9.8188 18.0905 9.2976 18.0905 8.41 L18.0905 1.4108 C18.0905 0.5211 17.5609 0 16.6627 0 L7.1465 0 C6.2483 0 5.7187 0.5211 5.7187 1.4108 L5.7187 8.41 C5.7187 9.2976 6.2483 9.8188 7.1465 9.8188 Z M5.6842 17.0307 L18.1335 17.0307 C20.1162 17.0307 21.4488 15.717 21.4488 13.7429 L21.4488 4.6115 C21.4488 2.6269 20.1162 1.3218 18.1335 1.3218 L5.6842 1.3218 C3.693 1.3218 2.3689 2.6269 2.3689 4.6115 L2.3689 13.7429 C2.3689 15.717 3.693 17.0307 5.6842 17.0307 Z M5.5901 15.6625 L18.2191 15.6625 C19.3983 15.6625 20.0806 14.9906 20.0806 13.8285 L20.0806 4.5241 C20.0806 3.3533 19.3983 2.6815 18.2191 2.6815 L5.5901 2.6815 C4.4109 2.6815 3.7286 3.3533 3.7286 4.5241 L3.7286 13.8285 C3.7286 14.9906 4.4109 15.6625 5.5901 15.6625 Z M4.7973 23.7084 L19.0205 23.7084 C22.0048 23.7084 23.8092 21.9174 23.8092 18.9453 L23.8092 8.9038 C23.8092 5.9385 22.0048 4.1475 19.0205 4.1475 L4.7973 4.1475 C1.8044 4.1475 0 5.9348 0 8.9038 L0 18.9453 C0 21.9211 1.8044 23.7084 4.7973 23.7084 Z M4.7973 22.1115 L19.0205 22.1115 C21.1257 22.1115 22.2209 21.0279 22.2209 18.9453 L22.2209 8.9038 C22.2209 6.8261 21.1257 5.7358 19.0205 5.7358 L4.7973 5.7358 C2.6835 5.7358 1.5969 6.8139 1.5969 8.9038 L1.5969 18.9453 C1.5969 21.0316 2.6835 22.1115 4.7973 22.1115 Z M12.4056 17.9426 C12.1963 17.9426 12.045 17.7982 12.0074 17.5989 C11.5703 14.659 11.1804 14.0688 8.1539 13.7282 C7.946 13.6925 7.8014 13.5479 7.8014 13.338 C7.8014 13.1493 7.946 12.9894 8.1539 12.9557 C11.1913 12.55 11.4881 12.0308 12.0074 9.0832 C12.058 8.8819 12.2114 8.7414 12.4056 8.7414 C12.5982 8.7414 12.7542 8.8904 12.7834 9.0918 C13.2312 12.0011 13.6374 12.5541 16.6472 12.9557 C16.8591 12.9894 16.998 13.1493 16.998 13.338 C16.998 13.5479 16.8591 13.7013 16.6472 13.7282 C13.6083 14.1262 13.3128 14.6673 12.7834 17.6074 C12.7497 17.7982 12.5982 17.9426 12.4056 17.9426 Z M8.3943 19.5829 C8.2451 19.5829 8.1526 19.4752 8.1037 19.3192 C7.8351 17.8795 7.9355 17.8169 6.3742 17.5857 C6.2036 17.5539 6.1044 17.4526 6.1044 17.2969 C6.1044 17.1515 6.2036 17.0401 6.351 17.0147 C7.9376 16.7431 7.8351 16.6865 8.1037 15.2698 C8.1526 15.1035 8.2537 15.0004 8.3943 15.0004 C8.555 15.0004 8.6497 15.112 8.688 15.2698 C8.9499 16.6968 8.8705 16.7555 10.4532 17.0147 C10.5965 17.038 10.6957 17.1515 10.6957 17.2969 C10.6957 17.4334 10.5985 17.5539 10.4532 17.5857 C8.8666 17.8251 8.954 17.8836 8.688 19.3488 C8.6497 19.4837 8.5443 19.5829 8.3943 19.5829 Z"/></svg>
