<svg xmlns="http://www.w3.org/2000/svg" viewBox="0 0.1195 21.3049 18.2747" role="img" aria-label="antenna.radiowaves.left.and.right"><path fill="#34C759" fill-rule="nonzero" d="M0 7.09 C0 9.6331 0.8795 11.992 2.4942 13.7198 C2.9355 14.1867 3.5306 14.1682 3.8735 13.7687 C4.1977 13.3813 4.1011 12.8892 3.7242 12.4699 C2.4526 11.0581 1.7433 9.1657 1.7433 7.09 C1.7433 5.0231 2.4485 3.1307 3.7242 1.7189 C4.1032 1.2929 4.1998 0.8074 3.8735 0.4201 C3.5285 0.0226 2.9314 0 2.4942 0.469 C0.9042 2.1806 0 4.5577 0 7.09 Z M17.4296 13.7687 C17.7743 14.1682 18.3676 14.1867 18.8107 13.7198 C20.4169 11.992 21.3049 9.6331 21.3049 7.09 C21.3049 4.5577 20.3922 2.1806 18.8107 0.469 C18.3717 0 17.7764 0.0226 17.4296 0.4201 C17.0966 0.8074 17.2018 1.2929 17.5789 1.7189 C18.8565 3.1307 19.5635 5.0231 19.5635 7.09 C19.5635 9.1657 18.8523 11.0581 17.5789 12.4699 C17.2038 12.8892 17.0987 13.3813 17.4296 13.7687 Z M4.1859 7.09 C4.1859 8.5395 4.6591 9.8895 5.4931 10.909 C5.8962 11.3893 6.5399 11.3746 6.8833 10.9684 C7.2012 10.5898 7.0765 10.1189 6.7587 9.6822 C6.224 9.0031 5.9273 8.0606 5.9273 7.09 C5.9273 6.1242 6.237 5.207 6.7587 4.5043 C7.0726 4.064 7.2012 3.597 6.8833 3.2202 C6.5399 2.8103 5.8962 2.7935 5.4931 3.2757 C4.6591 4.2953 4.1859 5.6472 4.1859 7.09 Z M14.4197 10.9684 C14.765 11.3746 15.4087 11.3893 15.8014 10.909 C16.6458 9.8895 17.1191 8.5395 17.1191 7.09 C17.1191 5.6472 16.6458 4.2953 15.8014 3.2757 C15.4087 2.7935 14.765 2.8103 14.4197 3.2202 C14.0952 3.597 14.2323 4.064 14.5463 4.5043 C15.0661 5.207 15.3777 6.1242 15.3777 7.09 C15.3777 8.0606 15.0828 9.0031 14.5463 9.6822 C14.2265 10.1189 14.0952 10.5898 14.4197 10.9684 Z M8.772 7.09 C8.772 7.8366 9.1833 8.4663 9.808 8.7727 L9.808 17.4447 C9.808 18.0013 10.1565 18.3943 10.6502 18.3943 C11.1776 18.3943 11.4992 18.016 11.4992 17.4447 L11.4992 8.7727 C12.1067 8.4663 12.537 7.8281 12.537 7.09 C12.537 6.0412 11.7076 5.2014 10.6502 5.2014 C9.6015 5.2014 8.772 6.0412 8.772 7.09 Z"/></svg>
