<svg xmlns="http://www.w3.org/2000/svg" viewBox="0 0 20.1301 17.1807" role="img" aria-label="slider.horizontal.3"><path fill="#FF9500" fill-rule="nonzero" d="M0.9155 15.5903 L19.2403 15.5903 C19.7229 15.5903 20.1301 15.1792 20.1301 14.6664 C20.1301 14.156 19.7249 13.7406 19.2403 13.7406 L0.9155 13.7406 C0.4053 13.7406 0 14.1602 0 14.6664 C0 15.1751 0.4074 15.5903 0.9155 15.5903 Z M13.6847 17.1807 C15.0681 17.1807 16.1971 16.0517 16.1971 14.6683 C16.1971 13.2934 15.0701 12.1644 13.6847 12.1644 C12.3013 12.1644 11.1722 13.2934 11.1722 14.6683 C11.1722 16.0517 12.3013 17.1807 13.6847 17.1807 Z M13.6847 17.1807 C15.0681 17.1807 16.1971 16.0517 16.1971 14.6683 C16.1971 13.2934 15.0701 12.1644 13.6847 12.1644 C12.3013 12.1644 11.1722 13.2934 11.1722 14.6683 C11.1722 16.0517 12.3013 17.1807 13.6847 17.1807 Z M13.6847 15.8628 C13.016 15.8628 12.4883 15.3351 12.4883 14.6664 C12.4883 13.9918 13.016 13.47 13.6847 13.47 C14.3575 13.47 14.8811 13.9918 14.8811 14.6664 C14.8811 15.3351 14.3575 15.8628 13.6847 15.8628 Z M0.9155 9.5171 L19.2403 9.5171 C19.7229 9.5171 20.1301 9.104 20.1301 8.5913 C20.1301 8.0809 19.7249 7.6655 19.2403 7.6655 L0.9155 7.6655 C0.4053 7.6655 0 8.085 0 8.5913 C0 9.0999 0.4074 9.5171 0.9155 9.5171 Z M6.5573 11.1056 C7.9366 11.1056 9.0697 9.9765 9.0697 8.5931 C9.0697 7.2183 7.9407 6.0892 6.5573 6.0892 C5.172 6.0892 4.0448 7.2183 4.0448 8.5931 C4.0448 9.9765 5.172 11.1056 6.5573 11.1056 Z M6.5573 11.1056 C7.9366 11.1056 9.0697 9.9765 9.0697 8.5931 C9.0697 7.2183 7.9407 6.0892 6.5573 6.0892 C5.172 6.0892 4.0448 7.2183 4.0448 8.5931 C4.0448 9.9765 5.172 11.1056 6.5573 11.1056 Z M6.5573 9.7895 C5.8886 9.7895 5.359 9.26 5.359 8.5913 C5.359 7.9166 5.8886 7.3949 6.5573 7.3949 C7.23 7.3949 7.7536 7.9166 7.7536 8.5913 C7.7536 9.26 7.23 9.7895 6.5573 9.7895 Z M0.9155 3.4419 L19.2403 3.4419 C19.7229 3.4419 20.1301 3.0204 20.1301 2.5162 C20.1301 2.0058 19.7249 1.5904 19.2403 1.5904 L0.9155 1.5904 C0.4053 1.5904 0 2.0099 0 2.5162 C0 3.0162 0.4074 3.4419 0.9155 3.4419 Z M13.6847 5.0249 C15.0681 5.0249 16.1971 3.8959 16.1971 2.5125 C16.1971 1.1291 15.0681 0 13.6847 0 C12.3013 0 11.1722 1.1291 11.1722 2.5125 C11.1722 3.8959 12.3013 5.0249 13.6847 5.0249 Z M13.6847 5.0249 C15.0681 5.0249 16.1971 3.8959 16.1971 2.5125 C16.1971 1.1291 15.0681 0 13.6847 0 C12.3013 0 11.1722 1.1291 11.1722 2.5125 C11.1722 3.8959 12.3013 5.0249 13.6847 5.0249 Z M13.6847 3.7088 C13.016 3.7088 12.4883 3.1707 12.4883 2.5106 C12.4883 1.8293 13.016 1.3142 13.6847 1.3142 C14.3575 1.3142 14.8811 1.8293 14.8811 2.5106 C14.8811 3.1707 14.3575 3.7088 13.6847 3.7088 Z"/></svg>
