<svg xmlns="http://www.w3.org/2000/svg" viewBox="0 0 19.7845 23.5443" role="img" aria-label="brain.head.profile.fill"><path fill="#AF52DE" fill-rule="nonzero" d="M11.4227 23.5442 C15.103 23.5422 17.3676 22.2139 17.3676 19.9325 L17.3676 15.2108 C18.8929 13.8514 19.7845 11.682 19.7845 9.3139 C19.7845 3.7269 16.1448 0 10.7267 0 C5.3248 0 1.7082 3.654 1.7082 9.1058 C1.7082 9.4001 1.7186 9.6489 1.7415 9.8871 L0.492 12.1213 C0.1671 12.707 0 13.2857 0 13.8211 C0 14.8167 0.6132 15.6431 1.7098 15.9024 L1.7098 17.5835 C1.7098 19.4397 2.9823 20.3952 4.7114 20.2447 L5.5784 20.1608 L5.5719 20.2364 C5.7452 22.3279 7.9499 23.5442 11.4227 23.5442 Z M7.2951 10.5224 C5.7231 10.5224 4.6677 9.2849 4.6677 7.6731 C4.6677 7.0588 4.8611 6.4719 5.1908 5.9744 C5.4955 6.548 6.1036 6.9019 6.8895 6.9019 C7.1748 6.9019 7.4098 6.6687 7.4098 6.4024 C7.4098 6.1173 7.1833 5.8888 6.8895 5.8888 C6.3586 5.8888 5.9585 5.4551 5.9585 4.8848 C5.9585 3.9791 6.8349 3.2331 8.0466 3.2331 C8.2115 3.2331 8.3533 3.2454 8.5126 3.2653 C8.417 3.5132 8.3174 3.7852 8.3051 4.1564 C8.2947 4.4668 8.5002 4.6915 8.8063 4.6915 C9.104 4.6915 9.3037 4.4899 9.3037 4.1854 C9.313 3.3102 9.9901 2.7189 10.9354 2.7189 C11.4865 2.7189 12.0665 2.9894 12.4818 3.4379 C12.5829 3.4094 12.7011 3.3972 13.0547 3.3972 C14.1736 3.3931 15.083 4.3045 15.083 5.4385 C15.083 7.7632 11.2636 8.1158 11.2636 10.781 C11.2636 10.9308 11.2881 11.0663 11.3392 11.2124 C11.0673 11.2563 10.8017 11.2771 10.5829 11.2771 C10.0015 11.2771 9.4712 11.1571 9.0115 10.9281 C9.7625 10.4921 10.2015 9.741 10.2118 8.829 C10.2118 8.6218 10.1968 8.4187 10.1436 8.2325 C11.2124 7.9671 11.7641 7.2369 11.7623 6.1156 C11.7623 5.8387 11.5296 5.6036 11.2529 5.6036 C10.98 5.6036 10.7575 5.8301 10.7575 6.1175 C10.7575 6.7993 10.4198 7.2245 9.7162 7.3423 C9.682 7.2672 9.6225 7.1646 9.5495 7.1156 C9.4287 6.9961 9.2857 6.9583 9.1538 6.9583 C8.8877 6.9583 8.6716 7.1552 8.6716 7.4239 C8.6716 7.5561 8.7304 7.7349 8.9007 7.8888 C9.1003 8.0903 9.2324 8.3997 9.2324 8.7544 C9.2324 9.7909 8.4284 10.5224 7.2951 10.5224 Z M14.8285 13.2376 C14.0848 13.2376 13.4871 12.617 13.3158 11.6973 L13.1748 11.6973 C12.5353 11.6973 12.1664 11.2994 12.1664 10.7469 C12.1664 8.8173 15.6732 8.4041 16.0025 5.6469 C16.6974 6.077 17.1238 6.7878 17.1238 7.6571 C17.1238 8.6159 16.4242 9.2222 15.3552 9.1375 C15.0907 9.1142 14.8601 9.3617 14.8601 9.6368 C14.8601 9.9011 15.057 10.1188 15.3405 10.138 C15.844 10.1698 16.2933 10.0975 16.6805 9.9464 C16.6823 10.0718 16.6823 10.2162 16.6823 10.3416 C16.6823 12.0476 15.9123 13.2376 14.8285 13.2376 Z"/></svg>
