<svg xmlns="http://www.w3.org/2000/svg" viewBox="0 0 16.22 19.5331" role="img" aria-label="lock.shield.fill"><path fill="#30B0C7" fill-rule="nonzero" d="M8.1143 19.5331 C8.2828 19.5331 8.5337 19.4704 8.7892 19.3409 C14.3743 16.4636 16.22 14.952 16.22 11.4534 L16.22 4.1808 C16.22 3.0413 15.7761 2.634 14.8291 2.2391 C13.7552 1.7932 10.1602 0.5179 9.1133 0.1656 C8.7959 0.064 8.4343 0 8.1143 0 C7.7857 0 7.4241 0.0726 7.1067 0.1656 C6.0532 0.5015 2.4667 1.8018 1.3927 2.2391 C0.4439 2.6236 0 3.0413 0 4.1808 L0 11.4534 C0 14.952 1.9301 16.3138 7.4394 19.3409 C7.6881 19.479 7.9391 19.5331 8.1143 19.5331 Z M4.4784 13.2992 L4.4784 9.3464 C4.4784 8.6508 4.7575 8.2957 5.3277 8.2368 L5.3277 7.0936 C5.3277 5.2292 6.4495 3.977 8.1143 3.977 C9.7725 3.977 10.8944 5.2292 10.8944 7.0936 L10.8944 8.2389 C11.4625 8.2957 11.7434 8.6508 11.7434 9.3464 L11.7434 13.2992 C11.7434 14.0701 11.4016 14.4252 10.6903 14.4252 L5.5318 14.4252 C4.8203 14.4252 4.4784 14.0701 4.4784 13.2992 Z M6.52 8.2159 L9.7 8.2159 L9.7 6.9894 C9.7 5.878 9.0603 5.1328 8.1122 5.1328 C7.1576 5.1328 6.52 5.88 6.52 6.9894 Z"/></svg>
