<svg xmlns="http://www.w3.org/2000/svg" viewBox="0.0041 0 10.0641 19.3761" role="img" aria-label="info"><path fill="#3E63DD" fill-rule="nonzero" d="M0.0041 18.3227 C0.0082 18.9091 0.5194 19.3761 1.1557 19.3761 L8.9166 19.3761 C9.5615 19.3761 10.0641 18.9091 10.0682 18.3227 C10.0743 17.7329 9.5697 17.2701 8.9166 17.2701 L6.4923 17.2701 L6.4923 7.9522 C6.4923 7.3254 6.0022 6.8302 5.386 6.8302 L1.5086 6.8302 C0.8488 6.8302 0.3423 7.2911 0.3464 7.8725 C0.3526 8.4694 0.857 8.9361 1.5086 8.9361 L4.1706 8.9361 L4.1706 17.2701 L1.1557 17.2701 C0.5112 17.2701 0 17.7329 0.0041 18.3227 Z M4.8856 3.5453 C5.8681 3.5453 6.6497 2.7575 6.6497 1.7769 C6.6497 0.7924 5.8681 0 4.8856 0 C3.903 0 3.1108 0.7924 3.1108 1.7769 C3.1108 2.7575 3.903 3.5453 4.8856 3.5453 Z"/></svg>
