<svg xmlns="http://www.w3.org/2000/svg" viewBox="0 0 20.9956 20.4033" role="img" aria-label="pawprint.fill"><path fill="#FF9500" fill-rule="nonzero" d="M0 9.2562 C0 11.2395 1.0626 12.7818 2.4328 12.7818 C3.8135 12.7818 4.88 11.2375 4.88 9.2562 C4.88 7.2856 3.8135 5.7413 2.4328 5.7413 C1.0626 5.7413 0 7.2856 0 9.2562 Z M4.8172 3.5152 C4.8172 5.4876 5.8904 7.0301 7.2605 7.0301 C8.6413 7.0301 9.7078 5.4858 9.7078 3.5152 C9.7078 1.534 8.6431 0 7.2605 0 C5.8883 0 4.8172 1.5321 4.8172 3.5152 Z M11.2878 3.5152 C11.2878 5.4858 12.3629 7.0301 13.7351 7.0301 C15.1052 7.0301 16.1785 5.4876 16.1785 3.5152 C16.1785 1.5321 15.1073 0 13.7351 0 C12.3525 0 11.2878 1.534 11.2878 3.5152 Z M16.1156 9.2562 C16.1156 11.2375 17.1907 12.7818 18.5629 12.7818 C19.933 12.7818 20.9956 11.2395 20.9956 9.2562 C20.9956 7.2856 19.933 5.7413 18.5629 5.7413 C17.1907 5.7413 16.1156 7.2856 16.1156 9.2562 Z M3.0309 16.9037 C3.0309 18.9535 4.4004 20.4033 6.4144 20.4033 C7.4002 20.4033 8.1239 20.1262 8.8007 19.8925 C9.3478 19.703 9.8648 19.5271 10.496 19.5271 C11.1271 19.5271 11.6441 19.703 12.1913 19.8925 C12.8681 20.1262 13.5918 20.4033 14.5776 20.4033 C16.5915 20.4033 17.961 18.9535 17.961 16.9037 C17.961 15.1871 16.9296 14.3077 15.9614 13.5179 C15.4282 13.0864 14.9077 12.6724 14.5491 12.1309 C14.2692 11.7035 14.0294 11.2313 13.8092 10.7585 C13.0934 9.2441 12.5337 7.7975 10.496 7.7975 C8.4563 7.7975 7.8881 9.246 7.1846 10.7566 C6.9644 11.2276 6.7283 11.6961 6.4483 12.1217 C6.0897 12.665 5.5656 13.0845 5.0305 13.5179 C4.0605 14.3077 3.0309 15.1908 3.0309 16.9037 Z"/></svg>
