<svg xmlns="http://www.w3.org/2000/svg" viewBox="0 0 25.5643 19.6992" role="img" aria-label="crown.fill"><path fill="#FFB800" fill-rule="nonzero" d="M4.246 15.988 L4.5577 17.2834 C4.953 18.8786 5.8237 19.6993 7.5012 19.6993 L18.088 19.6993 C19.7551 19.6993 20.6255 18.8975 21.0247 17.2834 L21.345 15.988 Z M3.8676 14.464 L21.7216 14.464 L23.5011 7.206 L22.3461 6.5862 L18.0372 9.6979 C17.7443 9.9057 17.5396 9.8308 17.371 9.5986 L13.1844 3.3867 L12.4047 3.3677 L8.1988 9.6051 C8.0528 9.8195 7.866 9.8937 7.5811 9.6885 L3.3392 6.6273 L2.0723 7.1496 Z M2.4629 9.0655 C3.8179 9.0655 4.9189 7.9645 4.9189 6.6026 C4.9189 5.258 3.8179 4.1399 2.4629 4.1399 C1.101 4.1399 0 5.2495 0 6.6026 C0 7.9645 1.1096 9.0655 2.4629 9.0655 Z M12.7903 4.919 C14.1434 4.919 15.2445 3.8179 15.2445 2.4542 C15.2445 1.1096 14.1434 0 12.7903 0 C11.4265 0 10.3255 1.1011 10.3255 2.4542 C10.3255 3.8179 11.4351 4.919 12.7903 4.919 Z M23.0998 9.0655 C24.4547 9.0655 25.5643 7.9645 25.5643 6.6026 C25.5643 5.2495 24.4633 4.1399 23.0998 4.1399 C21.7464 4.1399 20.6454 5.258 20.6454 6.6026 C20.6454 7.9645 21.7464 9.0655 23.0998 9.0655 Z"/></svg>
