<svg xmlns="http://www.w3.org/2000/svg" viewBox="0.0753 0 13.8191 23.0442" role="img" aria-label="fork.knife"><path fill="#FF9500" fill-rule="nonzero" d="M3.5624 23.0442 C4.4243 23.0442 4.953 22.5516 4.9405 21.726 L4.7476 10.6696 C4.7437 10.2656 4.886 10.0337 5.2075 9.8864 C6.5316 9.2948 7.1208 8.6668 7.0379 6.8589 L6.7612 0.8758 C6.7361 0.42 6.4781 0.1472 6.0514 0.1472 C5.6315 0.1472 5.3859 0.4326 5.388 0.8922 L5.4611 6.703 C5.4631 7.0575 5.2428 7.2765 4.9195 7.2765 C4.5863 7.2765 4.3615 7.07 4.3594 6.7279 L4.2577 0.7095 C4.2471 0.2684 3.9869 0 3.5624 0 C3.1445 0 2.8844 0.2684 2.8738 0.7095 L2.772 6.7279 C2.77 7.0679 2.5431 7.2765 2.2053 7.2765 C1.8848 7.2765 1.6663 7.0575 1.6683 6.703 L1.7331 0.8922 C1.7351 0.4326 1.4981 0.1472 1.08 0.1472 C0.6534 0.1472 0.3847 0.422 0.3596 0.8758 L0.083 6.8589 C0 8.6668 0.5895 9.2948 1.9259 9.8864 C2.2473 10.0337 2.3877 10.2656 2.3838 10.6696 L2.1889 21.726 C2.1744 22.5537 2.7092 23.0442 3.5624 23.0442 Z M11.322 14.4047 L11.1324 21.6842 C11.1058 22.5537 11.6527 23.0442 12.5022 23.0442 C13.3699 23.0442 13.8944 22.5877 13.8944 21.7755 L13.8944 0.7587 C13.8944 0.2539 13.5614 0 13.1701 0 C12.7936 0 12.5454 0.2017 12.2129 0.6638 C10.6242 2.8969 9.53 7.1985 9.53 11.0915 L9.53 11.6167 C9.53 12.314 9.7779 12.7998 10.3174 13.1645 L10.8395 13.514 C11.1862 13.7588 11.3363 14.0231 11.322 14.4047 Z"/></svg>
