<svg xmlns="http://www.w3.org/2000/svg" viewBox="0 0 19.3392 19.3498" role="img" aria-label="barcode.viewfinder"><path fill="#3E63DD" fill-rule="nonzero" d="M0 5.5516 C0 6.0617 0.4242 6.4858 0.936 6.4858 C1.4546 6.4858 1.8702 6.0617 1.8702 5.5516 L1.8702 3.7034 C1.8702 2.5616 2.551 1.8788 3.7034 1.8788 L5.5855 1.8788 C6.0976 1.8788 6.5197 1.4567 6.5197 0.9428 C6.5197 0.4221 6.0976 0 5.5855 0 L3.7034 0 C1.4111 0 0 1.4321 0 3.7034 Z M19.3392 5.5516 L19.3392 3.7034 C19.3392 1.4321 17.9299 0 15.6443 0 L13.7536 0 C13.2397 0 12.8194 0.4221 12.8194 0.9428 C12.8194 1.4567 13.2397 1.8788 13.7536 1.8788 L15.6443 1.8788 C16.7967 1.8788 17.4689 2.5616 17.4689 3.7034 L17.4689 5.5516 C17.4689 6.0617 17.8931 6.4858 18.4031 6.4858 C18.915 6.4858 19.3392 6.0617 19.3392 5.5516 Z M0 13.8067 L0 15.6445 C0 17.9262 1.4111 19.3498 3.7034 19.3498 L5.5855 19.3498 C6.0976 19.3498 6.5197 18.9277 6.5197 18.4156 C6.5197 17.8931 6.0976 17.471 5.5855 17.471 L3.7034 17.471 C2.551 17.471 1.8702 16.7882 1.8702 15.6445 L1.8702 13.8067 C1.8702 13.2881 1.4546 12.8621 0.936 12.8621 C0.4242 12.8621 0 13.2881 0 13.8067 Z M19.3392 13.8067 C19.3392 13.2881 18.915 12.8621 18.4031 12.8621 C17.8931 12.8621 17.4689 13.2881 17.4689 13.8067 L17.4689 15.6445 C17.4689 16.7882 16.7967 17.471 15.6443 17.471 L13.7536 17.471 C13.2397 17.471 12.8194 17.8931 12.8194 18.4156 C12.8194 18.9277 13.2397 19.3498 13.7536 19.3498 L15.6443 19.3498 C17.9299 19.3498 19.3392 17.9262 19.3392 15.6445 Z M5.2272 13.6577 L5.9195 13.6577 L5.9195 5.6764 L5.2272 5.6764 Z M6.7934 13.6577 L8.1147 13.6577 L8.1147 5.6764 L6.7934 5.6764 Z M8.6981 13.6577 L9.5194 13.6577 L9.5194 5.6764 L8.6981 5.6764 Z M10.2579 13.6577 L11.5428 13.6577 L11.5428 5.6764 L10.2579 5.6764 Z M12.0659 13.6577 L13.0827 13.6577 L13.0827 5.6764 L12.0659 5.6764 Z M13.4581 13.6577 L14.1039 13.6577 L14.1039 5.6764 L13.4581 5.6764 Z"/></svg>
