<svg xmlns="http://www.w3.org/2000/svg" viewBox="0 0 24.1293 18.8524" role="img" aria-label="camera.fill"><path fill="#0A84FF" fill-rule="nonzero" d="M20.2656 7.6644 C19.5667 7.6665 19.0071 7.0965 19.0071 6.408 C19.0071 5.715 19.5687 5.1448 20.2656 5.1448 C20.9567 5.1448 21.5183 5.715 21.5183 6.408 C21.5183 7.0965 20.9588 7.6624 20.2656 7.6644 Z M3.2022 18.8524 L20.9289 18.8524 C23.0342 18.8524 24.1293 17.7603 24.1293 15.6759 L24.1293 5.4395 C24.1293 3.3551 23.0342 2.2733 20.9289 2.2733 L18.3124 2.2733 C17.5451 2.2733 17.3034 2.1312 16.8302 1.6395 L16.0594 0.804 C15.5455 0.2714 15.0361 0 14.0453 0 L10.0348 0 C9.0336 0 8.5242 0.2714 8.0207 0.804 L7.2395 1.6395 C6.7804 2.1275 6.5246 2.2733 5.7677 2.2733 L3.2022 2.2733 C1.097 2.2733 0 3.3551 0 5.4395 L0 15.6759 C0 17.7603 1.097 18.8524 3.2022 18.8524 Z M12.0656 15.8007 C9.1443 15.8007 6.792 13.4569 6.792 10.5214 C6.792 7.5791 9.1443 5.2353 12.0656 5.2353 C14.9926 5.2353 17.3306 7.5791 17.3306 10.5214 C17.3306 13.4569 14.9889 15.8007 12.0656 15.8007 Z M12.0656 14.0554 C14.0198 14.0554 15.5938 12.4839 15.5938 10.5214 C15.5938 8.5568 14.0198 6.9806 12.0656 6.9806 C10.1116 6.9806 8.5288 8.5568 8.5288 10.5214 C8.5288 12.4839 10.1201 14.0554 12.0656 14.0554 Z"/></svg>
