<svg xmlns="http://www.w3.org/2000/svg" viewBox="0 0.5097 19.5999 24.2429" role="img" aria-label="book.pages.fill"><path fill="#30B0C7" fill-rule="nonzero" d="M19.5999 21.0424 L19.5999 6.5775 C19.5999 4.462 18.5406 3.3835 16.4484 3.3835 L6.9344 3.3835 C4.8422 3.3835 3.7828 4.462 3.7828 6.5775 L3.7828 21.0424 C3.7828 23.1664 4.8422 24.2364 6.9344 24.2364 L16.4484 24.2364 C18.5406 24.2364 19.5999 23.1664 19.5999 21.0424 Z M0 20.7201 C0 23.2431 1.7031 24.9048 4.4831 24.7416 C7.8158 24.5489 11.0481 24.1682 14.7111 23.1389 C16.7668 22.5277 17.7167 21.1831 17.7167 18.823 L17.7167 4.5454 C17.7167 1.5397 15.6726 0 12.9004 0.6614 C10.2456 1.266 7.3459 1.7458 3.995 1.947 C1.6081 2.1056 0 3.6225 0 6.1698 Z M1.4053 20.7201 C1.4053 22.4878 2.4936 23.4483 4.4048 23.3362 C7.6792 23.1628 10.7746 22.788 14.3135 21.7924 C15.7792 21.3669 16.3114 20.547 16.3114 18.823 L16.3114 4.5454 C16.3114 2.5263 15.174 1.5563 13.2244 2.0224 C10.53 2.6376 7.5127 3.1405 4.0947 3.3437 C2.4404 3.454 1.4053 4.3681 1.4053 6.1698 Z M5.2307 8.4773 C4.8674 8.4985 4.6178 8.2342 4.6178 7.9 C4.6178 7.5851 4.8017 7.3229 5.2245 7.287 C8.0107 7.1003 10.2216 6.7089 12.3864 6.2228 C12.8491 6.1236 13.1074 6.4148 13.1074 6.7424 C13.1074 7.0301 12.9932 7.2865 12.5067 7.3937 C10.236 7.899 8.0168 8.2904 5.2307 8.4773 Z M5.2307 11.653 C4.8674 11.6655 4.6178 11.4053 4.6178 11.0612 C4.6178 10.7482 4.8017 10.4839 5.2245 10.4521 C8.0107 10.2634 10.2216 9.8759 12.3864 9.3918 C12.8491 9.2887 13.1074 9.5779 13.1074 9.9056 C13.1074 10.2058 12.9932 10.4537 12.5067 10.557 C10.236 11.0623 8.0168 11.4602 5.2307 11.653 Z M5.2307 14.8161 C4.8674 14.8373 4.6178 14.5645 4.6178 14.2282 C4.6178 13.9133 4.8017 13.6511 5.2245 13.6172 C8.0107 13.4264 10.2216 13.0371 12.3864 12.553 C12.8491 12.4518 13.1074 12.7516 13.1074 13.0812 C13.1074 13.3688 12.9932 13.6168 12.5067 13.7307 C10.236 14.2357 8.0168 14.6253 5.2307 14.8161 Z M5.2307 17.9706 C4.8674 17.9898 4.6178 17.7296 4.6178 17.3894 C4.6178 17.0658 4.8017 16.8015 5.2245 16.7632 C6.8108 16.6764 7.8553 16.5327 8.782 16.3824 C9.2573 16.3003 9.5069 16.6087 9.5069 16.9297 C9.5069 17.2023 9.3336 17.4819 8.981 17.5474 C7.9246 17.7209 6.8507 17.8772 5.2307 17.9706 Z"/></svg>
