<svg xmlns="http://www.w3.org/2000/svg" viewBox="0 0 16.5802 21.3986" role="img" aria-label="flame.fill"><path fill="#FF3B30" fill-rule="nonzero" d="M7.8207 21.3986 C13.0745 21.3986 16.5802 17.8561 16.5802 12.5186 C16.5802 3.6955 9.0367 0 3.8298 0 C2.8243 0 2.1763 0.3825 2.1763 1.0919 C2.1763 1.3657 2.304 1.657 2.5247 1.9174 C3.7257 3.3629 4.839 4.9383 4.8561 6.8109 C4.8561 7.1958 4.8198 7.5266 4.5534 7.9786 L5.004 7.8852 C4.4842 6.3688 3.3878 5.4703 2.4047 5.4703 C1.9389 5.4703 1.628 5.7959 1.628 6.3038 C1.628 6.6021 1.7028 7.1447 1.7028 7.6214 C1.7028 9.8572 0 11.0137 0 14.612 C0 18.6892 3.1164 21.3986 7.8207 21.3986 Z M8.0539 18.3943 C6.2428 18.3943 5.0368 17.299 5.0368 15.6706 C5.0368 13.9778 6.2329 13.4112 6.3907 12.2358 C6.4032 12.1151 6.4921 12.0655 6.5958 12.1548 C7.0289 12.5487 7.3131 13.0393 7.5414 13.6266 C8.0495 12.8692 8.2416 11.4568 8.0628 9.9406 C8.0401 9.8056 8.1396 9.7372 8.2558 9.7869 C10.3722 10.7586 11.4933 12.842 11.4933 14.7984 C11.4933 16.7488 10.3278 18.3943 8.0539 18.3943 Z"/></svg>
