<svg xmlns="http://www.w3.org/2000/svg" viewBox="0.2359 0.716 22.8916 22.8241" role="img" aria-label="carrot.fill"><path fill="#FFB800" fill-rule="nonzero" d="M16.3927 6.8693 C18.0442 5.9654 19.8085 1.2181 17.8918 0.7475 C15.9377 0.272 15.3359 5.3117 16.3927 6.8693 Z M16.5954 7.2386 C18.8925 7.3625 23.8301 3.4782 22.0929 1.7286 C20.3625 -0.0001 16.4803 4.9355 16.5954 7.2386 Z M16.9732 7.4289 C18.5119 8.5066 23.5659 7.8924 23.0969 5.9632 C22.6244 4.0216 17.8685 5.8025 16.9732 7.4289 Z M0.8291 22.9636 C1.3773 23.5137 2.2474 23.8087 3.1941 23.2076 L8.1721 20.0938 L7.0709 19.0058 C6.7694 18.7079 6.7818 18.2837 7.0654 17.9981 C7.3472 17.7061 7.7733 17.6985 8.0711 17.9963 L9.4128 19.3193 L10.4376 18.6651 L8.8788 17.1471 C8.5772 16.862 8.5811 16.4251 8.8667 16.1413 C9.1592 15.856 9.5812 15.8419 9.879 16.1379 L11.6829 17.8944 L16.2874 14.9903 C19.6791 12.8583 20.306 9.4637 17.7487 6.8834 L16.9076 6.0341 C14.7202 3.8129 11.8842 3.981 9.7705 6.2464 L12.2951 8.7377 C12.5948 9.027 12.5927 9.4579 12.3129 9.7435 C12.031 10.0309 11.5925 10.0365 11.3034 9.7472 L8.878 7.3591 L8.2255 8.3834 L10.0333 10.1498 C10.3348 10.4389 10.3309 10.8758 10.037 11.1611 C9.7427 11.4469 9.3309 11.4504 9.0312 11.1611 L7.4614 9.6239 L0.5622 20.5679 C0 21.4711 0.2133 22.3518 0.8291 22.9636 Z"/></svg>
