<svg xmlns="http://www.w3.org/2000/svg" viewBox="0 0.1782 21.3944 18.1605" role="img" aria-label="leaf.fill"><path fill="#34C759" fill-rule="nonzero" d="M0.2939 0.814 C0.0805 1.8145 0 3.1299 0 4.0133 C0 11.4017 4.4063 16.2752 11.1439 16.2752 C15.5591 16.2752 17.5747 13.6607 18.0527 12.8468 L16.6095 12.7667 C17.9537 14.1897 18.4956 15.6102 19.1552 17.6695 C19.307 18.1518 19.6458 18.3387 20.0202 18.3387 C20.7728 18.3387 21.3944 17.6881 21.3944 16.7857 C21.3944 15.4217 19.413 13.0515 18.3939 12.093 C14.0511 8.0673 7.4481 10.4772 5.7935 6.1059 C5.6783 5.7919 6.0094 5.5432 6.2976 5.8352 C9.6792 9.3114 14.108 6.405 18.3135 10.267 C18.6901 10.6039 19.1434 10.4379 19.2123 10.0334 C19.2621 9.7567 19.2891 9.3102 19.2891 8.8592 C19.2891 4.0783 15.9765 1.6691 11.1776 1.6691 C9.5921 1.6691 7.7405 2.0726 6.3018 2.0726 C4.7423 2.0726 2.983 1.9574 1.5732 0.4608 C1.1253 0 0.4581 0.0924 0.2939 0.814 Z"/></svg>
