<svg xmlns="http://www.w3.org/2000/svg" viewBox="0 0 18.3473 22.444" role="img" aria-label="sparkles"><path fill="#BF5AF2" fill-rule="nonzero" d="M8.539 4.8014 C8.6769 4.8014 8.7583 4.7115 8.7813 4.5909 C9.06 3.0161 9.0408 2.9567 10.727 2.6492 C10.8582 2.624 10.9461 2.541 10.9461 2.405 C10.9461 2.269 10.8562 2.1858 10.725 2.1627 C9.0408 1.8718 9.0579 1.8101 8.7813 0.2211 C8.7583 0.0918 8.6769 0 8.539 0 C8.4097 0 8.3302 0.0918 8.3053 0.2232 C8.0261 1.7957 8.0497 1.8533 6.3596 2.1627 C6.2284 2.1878 6.1424 2.269 6.1424 2.405 C6.1424 2.541 6.2284 2.624 6.3658 2.6492 C8.0456 2.9464 8.022 3.0079 8.3053 4.5889 C8.3302 4.7115 8.4097 4.8014 8.539 4.8014 Z M3.8162 11.6215 C4.0115 11.6215 4.1521 11.4869 4.1791 11.2917 C4.5264 8.7042 4.5999 8.7022 7.2943 8.1873 C7.481 8.1601 7.6239 8.0216 7.6239 7.8245 C7.6239 7.6207 7.4789 7.4819 7.2922 7.4568 C4.6061 7.0802 4.5178 7.0012 4.1791 4.363 C4.1521 4.1553 4.0136 4.0188 3.8162 4.0188 C3.6104 4.0188 3.4719 4.1553 3.4467 4.3736 C3.1292 6.9572 3.0039 6.9504 0.3297 7.4568 C0.1448 7.4925 0 7.6207 0 7.8245 C0 8.0322 0.1448 8.1601 0.376 8.1873 C3.0169 8.609 3.1292 8.6828 3.4467 11.2705 C3.4719 11.4869 3.6104 11.6215 3.8162 11.6215 Z M10.5685 22.444 C10.8643 22.444 11.0944 22.2335 11.1448 21.9241 C11.8456 16.6366 12.5913 15.8341 17.7973 15.2522 C18.1192 15.223 18.3473 14.9784 18.3473 14.6756 C18.3473 14.3664 18.1212 14.1361 17.7994 14.0942 C12.5954 13.4879 11.8703 12.7165 11.1448 7.4272 C11.0923 7.1111 10.8622 6.9024 10.5685 6.9024 C10.2659 6.9024 10.034 7.1111 9.9921 7.4272 C9.2846 12.7165 8.5371 13.5105 3.331 14.0942 C3.0092 14.132 2.7896 14.3644 2.7896 14.6756 C2.7896 14.9763 3.0071 15.2189 3.329 15.2522 C8.5207 15.9462 9.2299 16.6385 9.9921 21.9241 C10.036 22.2335 10.268 22.444 10.5685 22.444 Z"/></svg>
