<svg xmlns="http://www.w3.org/2000/svg" viewBox="0 0 12.144 16.9207" role="img" aria-label="plusminus"><path fill="#32ADE6" fill-rule="nonzero" d="M0 15.8358 C0 16.4503 0.4789 16.9207 1.0953 16.9207 L11.0487 16.9207 C11.6651 16.9207 12.144 16.4503 12.144 15.8358 C12.144 15.2195 11.6651 14.7387 11.0487 14.7387 L1.0953 14.7387 C0.4789 14.7387 0 15.2195 0 15.8358 Z M6.0668 11.8319 C6.6813 11.8319 7.1621 11.3596 7.1621 10.7537 L7.1621 1.0678 C7.1621 0.4618 6.6813 0 6.0668 0 C5.4523 0 4.9715 0.4618 4.9715 1.0678 L4.9715 10.7537 C4.9715 11.3596 5.4523 11.8319 6.0668 11.8319 Z M0 5.9003 C0 6.5148 0.4704 6.9852 1.0953 6.9852 L11.0487 6.9852 C11.6736 6.9852 12.144 6.5148 12.144 5.9003 C12.144 5.284 11.6736 4.8032 11.0487 4.8032 L1.0953 4.8032 C0.4704 4.8032 0 5.284 0 5.9003 Z"/></svg>
