<svg xmlns="http://www.w3.org/2000/svg" viewBox="0 0 20.1737 20.1633" role="img" aria-label="clock.fill"><path fill="#5E5CE6" fill-rule="nonzero" d="M5.1454 11.2906 C4.7068 11.2906 4.3773 10.9525 4.3773 10.5206 C4.3773 10.0857 4.7068 9.7458 5.1454 9.7458 L9.3068 9.7458 L9.3068 4.1261 C9.3068 3.6893 9.6486 3.3512 10.0731 3.3512 C10.5117 3.3512 10.8517 3.6893 10.8517 4.1261 L10.8517 10.5206 C10.8517 10.9525 10.5117 11.2906 10.0731 11.2906 Z M10.0817 20.1634 C15.6489 20.1634 20.1737 15.6404 20.1737 10.0817 C20.1737 4.523 15.6489 0 10.0817 0 C4.523 0 0 4.523 0 10.0817 C0 15.6404 4.523 20.1634 10.0817 20.1634 Z"/></svg>
