<svg xmlns="http://www.w3.org/2000/svg" viewBox="0 0 17.185 22.5942" role="img" aria-label="drop.degreesign.fill"><path fill="#FF6F5E" fill-rule="nonzero" d="M6.9378 22.5942 C11.0994 22.5942 13.8738 19.88 13.8738 15.8202 C13.8738 13.8686 13.1063 11.8595 12.4338 10.3873 C11.399 8.0861 9.8253 5.5753 8.4086 3.4046 C8.0263 2.8282 7.5727 2.4899 6.9378 2.4899 C6.2907 2.4899 5.8475 2.8282 5.4738 3.4046 C4.0468 5.5918 2.4543 8.119 1.4174 10.4346 C0.7572 11.8883 0 13.881 0 15.8202 C0 19.88 2.7744 22.5942 6.9378 22.5942 Z M14.1242 6.1113 C15.84 6.1113 17.185 4.773 17.185 3.0609 C17.185 1.3385 15.84 0 14.1242 0 C12.414 0 11.0669 1.3385 11.0669 3.0609 C11.0669 4.773 12.414 6.1113 14.1242 6.1113 Z M14.1242 4.5905 C13.2628 4.5905 12.5963 3.9135 12.5963 3.0609 C12.5963 2.1977 13.2628 1.5208 14.1242 1.5208 C14.9872 1.5208 15.6641 2.1977 15.6641 3.0609 C15.6641 3.9135 14.9872 4.5905 14.1242 4.5905 Z"/></svg>
