<svg xmlns="http://www.w3.org/2000/svg" viewBox="0.4753 0.478 23.4964 20.1151" role="img" aria-label="pills.fill"><path fill="#FF3B30" fill-rule="nonzero" d="M23.9717 14.434 C23.5687 11.9408 21.3919 10.0319 18.7688 10.0319 C16.1494 10.0319 13.9747 11.9408 13.568 14.434 Z M23.9717 16.1786 L13.568 16.1786 C13.9832 18.6803 16.1476 20.5931 18.7688 20.5931 C21.4044 20.5931 23.5708 18.6842 23.9717 16.1786 Z M10.8347 12.111 L4.8365 6.1109 L1.909 9.0366 C0.0342 10.9132 0.0018 13.3761 1.7897 15.1494 C3.5985 16.9456 6.0322 16.9049 7.9023 15.0366 Z M12.1128 10.8243 L15.0345 7.9111 C16.9112 6.0363 16.9415 3.5736 15.1453 1.7897 C13.3471 0 10.9046 0.0428 9.0345 1.9111 L6.1213 4.8328 Z"/></svg>
