<svg xmlns="http://www.w3.org/2000/svg" viewBox="0 0.0001 10.8271 23.437" role="img" aria-label="waterbottle.fill"><path fill="#32ADE6" fill-rule="nonzero" d="M2.7366 2.6896 L8.0993 2.6896 C8.6592 2.6896 9.0618 2.2871 9.0618 1.7271 L9.0618 0.9626 C9.0618 0.3941 8.6592 0.0001 8.0993 0.0001 L2.7366 0.0001 C2.17 0.0001 1.7778 0.3941 1.7778 0.9626 L1.7778 1.7271 C1.7778 2.2871 2.17 2.6896 2.7366 2.6896 Z M0.0106 7.5014 L10.8165 7.5014 C10.7741 6.3903 10.5847 5.5712 9.9365 4.708 L9.729 4.4196 C9.4622 4.0683 9.017 3.802 8.5698 3.802 L2.2487 3.802 C1.8101 3.802 1.3563 4.0683 1.0982 4.4196 L0.8906 4.708 C0.2424 5.5712 0.0531 6.3903 0.0106 7.5014 Z M0 8.8639 L0 18.6333 L10.8271 18.6333 L10.8271 8.8639 Z M5.4054 17.0981 C4.0025 17.0981 3.0817 16.2003 3.0817 14.8406 C3.0817 14.1508 3.4018 13.5854 3.5617 13.2194 C3.9277 12.4299 4.5391 11.4074 5.05 10.6218 C5.1476 10.4598 5.2828 10.3765 5.4054 10.3765 C5.5424 10.3765 5.6632 10.4598 5.7608 10.6218 C6.2802 11.4074 6.904 12.4299 7.2615 13.2194 C7.4318 13.5854 7.7415 14.1508 7.7415 14.8406 C7.7415 16.2003 6.8168 17.0981 5.4054 17.0981 Z M0 19.9958 L0 20.1366 C0 22.2742 1.0636 23.437 2.9877 23.437 L7.8375 23.437 C9.7635 23.437 10.8271 22.2742 10.8271 20.1366 L10.8271 19.9958 Z"/></svg>
