<svg xmlns="http://www.w3.org/2000/svg" viewBox="0 0 20.1737 20.1633" role="img" aria-label="target"><path fill="#34C759" fill-rule="nonzero" d="M10.0817 20.1634 C15.6526 20.1634 20.1737 15.6526 20.1737 10.0817 C20.1737 4.5107 15.6526 0 10.0817 0 C4.5211 0 0 4.5107 0 10.0817 C0 15.6526 4.5211 20.1634 10.0817 20.1634 Z M10.0817 18.1817 C5.6045 18.1817 1.9884 14.5588 1.9884 10.0817 C1.9884 5.6045 5.6045 1.9817 10.0817 1.9817 C14.5607 1.9817 18.1835 5.6045 18.1835 10.0817 C18.1835 14.5588 14.5607 18.1817 10.0817 18.1817 Z M10.0817 16.2439 C13.4795 16.2439 16.24 13.4834 16.24 10.0856 C16.24 6.6877 13.4795 3.9272 10.0817 3.9272 C6.6838 3.9272 3.9233 6.6877 3.9233 10.0856 C3.9233 13.4834 6.6838 16.2439 10.0817 16.2439 Z M10.0817 14.4497 C7.6711 14.4497 5.7279 12.4961 5.7279 10.0856 C5.7279 7.675 7.6711 5.7214 10.0817 5.7214 C12.5008 5.7214 14.4458 7.675 14.4458 10.0856 C14.4458 12.4961 12.5008 14.4497 10.0817 14.4497 Z M10.0817 12.5148 C11.43 12.5148 12.5213 11.4254 12.5213 10.077 C12.5213 8.7287 11.43 7.6374 10.0817 7.6374 C8.7352 7.6374 7.6439 8.7287 7.6439 10.077 C7.6439 11.4254 8.7352 12.5148 10.0817 12.5148 Z"/></svg>
