<svg xmlns="http://www.w3.org/2000/svg" viewBox="0 0 25.8271 19.3467" role="img" aria-label="cup.and.saucer.fill"><path fill="#FF6F5E" fill-rule="nonzero" d="M12.515 14.5874 L13.4184 14.5874 C18.4054 14.5874 21.7286 11.2 21.7286 6.0381 L21.7286 4.0259 C21.7286 1.6154 18.2046 0 12.9635 0 C7.7203 0 4.1965 1.6154 4.1965 4.0259 L4.1965 6.0381 C4.1965 11.0527 7.5177 14.5874 12.515 14.5874 Z M12.9635 6.3251 C8.9435 6.3251 5.9336 5.2999 5.9336 4.0259 C5.9336 2.7537 8.9414 1.7391 12.9635 1.7391 C16.9941 1.7391 19.998 2.7537 19.998 4.0259 C19.998 5.2999 16.992 6.3251 12.9635 6.3251 Z M20.5985 10.1762 L21.434 10.1762 C23.6601 10.1762 25.006 9.0003 25.006 7.0595 C25.006 5.1227 23.6495 3.9401 21.434 3.9401 L20.7222 3.9401 L20.7222 5.6443 L21.434 5.6443 C22.626 5.6443 23.3038 6.163 23.3038 7.0595 C23.3038 7.939 22.624 8.472 21.434 8.472 L20.5985 8.472 Z M12.9084 19.3467 C20.4833 19.3467 25.8271 17.1901 25.8271 14.0173 C25.8271 12.8315 25.051 11.7663 23.666 10.9265 C23.0589 11.1946 22.3756 11.3468 21.5886 11.3721 C20.0104 14.1355 17.0975 15.7872 13.4184 15.7872 L12.515 15.7872 C8.3595 15.7872 5.146 13.5753 3.7439 10.1156 C1.366 11.0543 0 12.4056 0 14.0173 C0 17.1901 5.3544 19.3467 12.9084 19.3467 Z"/></svg>
