<svg xmlns="http://www.w3.org/2000/svg" viewBox="0 0 14.6228 23.7214" role="img" aria-label="wineglass.fill"><path fill="#AF52DE" fill-rule="nonzero" d="M7.3033 23.7215 C10.9617 23.7194 13.1432 22.7936 13.1432 21.2028 C13.1432 19.7421 11.2957 18.8433 8.1599 18.7066 L8.1599 14.6769 C12.075 14.3621 14.6228 11.8278 14.6228 8.1303 C14.6228 6.0728 13.7721 3.3873 12.5138 1.4617 C11.9056 0.52 10.0103 0 7.307 0 C4.6084 0 2.7092 0.52 2.0984 1.4617 C0.8486 3.3852 0 6.0707 0 8.1303 C0 11.8363 2.5498 14.3621 6.4696 14.6769 L6.4696 18.7066 C3.3252 18.8347 1.4796 19.7421 1.4796 21.2028 C1.4796 22.7936 3.6488 23.7194 7.3033 23.7215 Z M7.307 2.5723 C5.1499 2.5723 3.656 2.3129 3.656 1.9935 C3.656 1.6865 5.1622 1.4356 7.307 1.4356 C9.4671 1.4356 10.9648 1.6865 10.9648 1.9935 C10.9648 2.3129 9.4708 2.5723 7.307 2.5723 Z"/></svg>
