<svg xmlns="http://www.w3.org/2000/svg" viewBox="0 0 16.7513 21.1227" role="img" aria-label="book.closed.fill"><path fill="#FF6F5E" fill-rule="nonzero" d="M3.1495 21.1227 L15.8479 21.1227 C16.3555 21.1227 16.7513 20.7336 16.7513 20.2175 C16.7513 19.7809 16.4552 19.4714 16.0872 19.3024 C14.8835 18.7665 14.6452 17.1207 15.8679 15.9489 C16.3525 15.5176 16.7451 15.03 16.7451 14.0471 L16.7451 3.2004 C16.7451 1.097 15.6585 0 13.5686 0 L3.168 0 C1.0799 0 0 1.0885 0 3.2004 L0 17.9556 C0 20.0379 1.0817 21.1227 3.1495 21.1227 Z M3.3876 19.3141 C2.3527 19.3141 1.8147 18.7253 1.8147 17.7995 C1.8147 16.9257 2.4401 16.3027 3.4627 16.3027 L13.231 16.3027 C13.346 16.3027 13.4451 16.2953 13.5405 16.2805 C13.0644 17.3134 13.1181 18.4289 13.6426 19.3141 Z M3.0179 14.7355 C2.6969 14.7355 2.4176 14.4733 2.4176 14.1437 L2.4176 2.2234 C2.4176 1.892 2.6969 1.6316 3.0179 1.6316 C3.339 1.6316 3.6097 1.892 3.6097 2.2234 L3.6097 14.1437 C3.6097 14.4733 3.339 14.7355 3.0179 14.7355 Z"/></svg>
