<svg xmlns="http://www.w3.org/2000/svg" viewBox="0 0 21.7114 21.7421" role="img" aria-label="sun.max.fill"><path fill="#FFCC00" fill-rule="nonzero" d="M10.858 3.9808 C11.3871 3.9808 11.8245 3.5348 11.8245 3.0057 L11.8245 0.9667 C11.8245 0.4394 11.3871 0 10.858 0 C10.3222 0 9.8848 0.4394 9.8848 0.9667 L9.8848 3.0057 C9.8848 3.5348 10.3222 3.9808 10.858 3.9808 Z M15.7181 6.0149 C16.0938 6.3869 16.7222 6.3953 17.1029 6.0088 L18.5485 4.5716 C18.9137 4.1996 18.9098 3.5626 18.5423 3.1847 C18.1685 2.8146 17.5401 2.8168 17.166 3.1909 L15.7119 4.647 C15.3503 5.0104 15.3543 5.6388 15.7181 6.0149 Z M17.7355 10.871 C17.7355 11.3983 18.1833 11.8461 18.7124 11.8461 L20.7324 11.8461 C21.272 11.8461 21.7114 11.3983 21.7114 10.871 C21.7114 10.3438 21.272 9.896 20.7324 9.896 L18.7124 9.896 C18.1833 9.896 17.7355 10.3438 17.7355 10.871 Z M15.7119 15.7439 C15.3522 16.1159 15.3524 16.7337 15.7181 17.1116 L17.1742 18.5638 C17.5462 18.9358 18.1746 18.9234 18.5526 18.5491 C18.916 18.1753 18.9158 17.5469 18.5464 17.1728 L17.0903 15.7377 C16.7201 15.3639 16.0917 15.3678 15.7119 15.7439 Z M10.858 17.7613 C10.3222 17.7613 9.8848 18.2072 9.8848 18.7363 L9.8848 20.7754 C9.8848 21.3026 10.3222 21.742 10.858 21.742 C11.3871 21.742 11.8245 21.3026 11.8245 20.7754 L11.8245 18.7363 C11.8245 18.2072 11.3871 17.7613 10.858 17.7613 Z M5.9956 15.7439 C5.6176 15.3678 4.9807 15.3639 4.6087 15.7377 L3.1697 17.1643 C2.7936 17.5383 2.7934 18.1667 3.1549 18.5406 C3.5329 18.9148 4.1631 18.9273 4.5333 18.5553 L5.9808 17.1116 C6.3569 16.7337 6.3571 16.1159 5.9956 15.7439 Z M3.9722 10.871 C3.9722 10.3438 3.5328 9.896 2.9969 9.896 L0.975 9.896 C0.4374 9.896 0 10.3438 0 10.871 C0 11.3983 0.4374 11.8461 0.975 11.8461 L2.9969 11.8461 C3.5328 11.8461 3.9722 11.3983 3.9722 10.871 Z M5.9808 6.0149 C6.3551 5.6474 6.359 5.0104 5.9956 4.647 L4.55 3.1909 C4.1864 2.8254 3.5476 2.8146 3.1823 3.1847 C2.8081 3.5626 2.8042 4.1996 3.1676 4.563 L4.6046 6.0088 C4.9786 6.3867 5.607 6.3869 5.9808 6.0149 Z M10.8543 15.9683 C13.6647 15.9683 15.9516 13.6881 15.9516 10.871 C15.9516 8.0539 13.6647 5.7737 10.8543 5.7737 C8.0373 5.7737 5.7485 8.0539 5.7485 10.871 C5.7485 13.6881 8.0373 15.9683 10.8543 15.9683 Z"/></svg>
