<svg xmlns="http://www.w3.org/2000/svg" viewBox="0 0 13.2531 21.3517" role="img" aria-label="iphone"><path fill="#0A84FF" fill-rule="nonzero" d="M2.8077 21.3517 L10.4801 21.3517 C12.1383 21.3517 13.2531 20.278 13.2531 18.6634 L13.2531 2.6884 C13.2531 1.0738 12.1383 0 10.4801 0 L2.8077 0 C1.1229 0 0 1.0738 0 2.6863 L0 18.6654 C0 20.278 1.1229 21.3517 2.8077 21.3517 Z M3.1338 19.3869 C2.3622 19.3869 1.9113 18.9698 1.9113 18.2215 L1.9113 3.1302 C1.9113 2.382 2.3622 1.9648 3.1338 1.9648 L10.1146 1.9648 C10.8928 1.9648 11.3332 2.3861 11.3332 3.1323 L11.3332 18.2195 C11.3332 18.9657 10.8928 19.3869 10.1146 19.3869 Z M4.5275 18.6252 L8.7361 18.6252 C9.0169 18.6252 9.2263 18.4267 9.2263 18.1313 C9.2263 17.8359 9.0169 17.639 8.7361 17.639 L4.5275 17.639 C4.2362 17.639 4.0354 17.8359 4.0354 18.1313 C4.0354 18.4267 4.2362 18.6252 4.5275 18.6252 Z M5.398 4.1885 L7.857 4.1885 C8.2733 4.1885 8.6003 3.8615 8.6003 3.4347 C8.6003 3.0184 8.2713 2.6893 7.857 2.6893 L5.398 2.6893 C4.9752 2.6893 4.6461 3.0184 4.6461 3.4347 C4.6461 3.8615 4.9731 4.1885 5.398 4.1885 Z"/></svg>
