<svg xmlns="http://www.w3.org/2000/svg" viewBox="0 0 21.5655 26.7349" role="img" aria-label="thermometer.sun.fill"><path fill="#FF9500" fill-rule="nonzero" d="M11.374 15.1593 C14.1059 15.1593 16.2995 12.9571 16.2995 10.2234 C16.2995 7.4896 14.1059 5.296 11.374 5.296 C8.6421 5.296 6.457 7.4896 6.457 10.2234 C6.457 12.9571 8.6421 15.1593 11.374 15.1593 Z M11.374 3.7916 C11.8665 3.7916 12.2578 3.3877 12.2578 2.9056 L12.2578 0.886 C12.2578 0.4 11.8665 0 11.374 0 C10.8918 0 10.4902 0.4 10.4902 0.886 L10.4902 2.9056 C10.4902 3.3877 10.8918 3.7916 11.374 3.7916 Z M15.9136 5.6856 C16.2461 6.0284 16.8228 6.0329 17.1723 5.6815 L18.5983 4.249 C18.9451 3.9128 18.9432 3.3484 18.6004 3.0074 C18.2612 2.6663 17.7055 2.6666 17.3606 3.0115 L15.9157 4.4505 C15.5811 4.7829 15.5897 5.3531 15.9136 5.6856 Z M17.7806 10.2234 C17.7806 10.714 18.1912 11.1033 18.6666 11.1033 L20.6862 11.1033 C21.174 11.1033 21.5655 10.712 21.5655 10.2213 C21.5655 9.7392 21.174 9.3393 20.6862 9.3393 L18.6666 9.3393 C18.1912 9.3393 17.7806 9.7412 17.7806 10.2234 Z M15.9116 14.7773 C15.5791 15.1202 15.5832 15.6844 15.9157 16.0254 L17.3585 17.4618 C17.7035 17.8049 18.2591 17.7965 18.5983 17.4574 C18.9412 17.1145 18.9389 16.5542 18.5942 16.2139 L17.1552 14.7773 C16.8163 14.4428 16.2526 14.4448 15.9116 14.7773 Z M6.5369 26.7349 C10.1359 26.7349 13.0612 23.8284 13.0612 20.227 C13.0612 18.4402 12.3498 16.8531 11.0337 15.5837 L11.0423 7.1226 C11.0423 4.3468 9.1723 2.3471 6.5369 2.3471 C3.8869 2.3471 2.0208 4.3468 2.0208 7.1226 L2.0294 15.5796 C0.7012 16.8488 0 18.4461 0 20.227 C0 23.8284 2.9272 26.7349 6.5369 26.7349 Z M6.5369 25.5351 C9.4755 25.5351 11.8633 23.1725 11.8633 20.227 C11.8633 18.7194 11.2476 17.3861 10.0851 16.3167 C9.8729 16.1242 9.8339 16.0155 9.8339 15.7337 L9.8425 7.1226 C9.8425 4.9968 8.4972 3.547 6.5369 3.547 C4.5638 3.547 3.2188 4.9968 3.2188 7.1226 L3.2188 15.7337 C3.2188 16.0155 3.1816 16.1263 2.978 16.3167 C1.8074 17.3778 1.1998 18.7194 1.1998 20.227 C1.1998 23.1725 3.5876 25.5351 6.5369 25.5351 Z M6.5369 23.8706 C4.5152 23.8706 2.8852 22.2197 2.8852 20.2065 C2.8852 18.9756 3.4619 17.894 4.4964 17.2028 C4.7922 17.0048 4.9081 16.8227 4.9081 16.4271 L4.9081 7.1863 C4.9081 6.0147 5.5711 5.2324 6.5369 5.2324 C7.4919 5.2324 8.1464 6.0147 8.1464 7.1863 L8.1464 16.4271 C8.1464 16.8227 8.2708 17.0048 8.5667 17.2028 C9.5927 17.894 10.1778 18.9756 10.1778 20.2065 C10.1778 22.2197 8.5479 23.8706 6.5369 23.8706 Z M6.5263 22.5516 C7.8252 22.5516 8.8676 21.5006 8.8676 20.1979 C8.8676 19.2963 8.3564 18.5497 7.6165 18.1486 C7.2978 17.9811 7.1944 17.8566 7.1944 17.3914 L7.1944 7.9994 C7.1944 7.5296 6.9023 7.2319 6.5263 7.2319 C6.1608 7.2319 5.8668 7.5296 5.8668 7.9994 L5.8668 17.3914 C5.8668 17.8566 5.7634 17.9811 5.4465 18.1486 C4.6981 18.5497 4.1955 19.2963 4.1955 20.1979 C4.1955 21.5006 5.2361 22.5516 6.5263 22.5516 Z"/></svg>
