<svg xmlns="http://www.w3.org/2000/svg" viewBox="0.0815 0 20.2584 17.6713" role="img" aria-label="wind"><path fill="#30B0C7" fill-rule="nonzero" d="M10.137 17.6713 C11.6863 17.6713 12.8845 16.5187 12.8845 14.8809 C12.8845 12.527 10.4859 11.2161 6.09 11.2161 C4.2861 11.2161 2.3074 11.5558 0.6369 12.1344 C0.2016 12.2794 0 12.6653 0.1132 13.0497 C0.2284 13.4403 0.6121 13.6654 1.079 13.4973 C2.63 12.9536 4.3518 12.6496 6.09 12.6496 C9.5668 12.6496 11.4547 13.5177 11.4547 14.8809 C11.4547 15.7251 10.8735 16.2379 10.137 16.2379 C9.4277 16.2379 8.9865 15.763 8.835 15.0087 C8.7346 14.6075 8.4142 14.321 7.9705 14.3901 C7.5011 14.4628 7.3212 14.889 7.4209 15.3173 C7.6552 16.6443 8.6786 17.6713 10.137 17.6713 Z M16.3882 10.6939 C18.7067 10.6939 20.3398 9.2098 20.3398 7.1538 C20.3398 5.1159 18.7842 3.6318 16.8198 3.6318 C15.0853 3.6318 13.7429 4.8206 13.4587 6.417 C13.3646 6.8565 13.5892 7.2298 13.9777 7.3116 C14.3811 7.3976 14.7589 7.1662 14.8744 6.6633 C15.0452 5.7153 15.862 5.0616 16.8198 5.0616 C17.9885 5.0616 18.9101 5.9201 18.9101 7.1538 C18.9101 8.4036 17.918 9.2642 16.3882 9.2642 C13.4132 9.2642 10.1792 7.5695 6.2578 7.5695 C4.2456 7.5695 2.394 7.8854 0.635 8.4965 C0.2016 8.6415 0 9.0274 0.1132 9.4118 C0.2284 9.8061 0.6121 10.0275 1.079 9.8575 C2.6902 9.2635 4.3562 8.9992 6.2578 8.9992 C10.1356 8.9992 13.061 10.6939 16.3882 10.6939 Z M1.0767 6.0189 C2.4767 5.5772 3.9402 5.3593 5.3231 5.3593 C7.1125 5.3593 8.4301 5.6395 10.1227 5.6395 C11.9133 5.6395 13.0589 4.4117 13.0589 2.8135 C13.0589 1.1792 11.8203 0 10.2595 0 C9.1321 0 8.1284 0.6941 7.6937 1.64 C7.5104 2.0068 7.5839 2.4275 7.9595 2.6301 C8.3119 2.816 8.7501 2.6996 8.9843 2.2685 C9.1825 1.8041 9.6917 1.4401 10.2595 1.4401 C11.0267 1.4401 11.6292 1.9747 11.6292 2.8135 C11.6292 3.6588 11.0427 4.1993 10.1227 4.1993 C8.5254 4.1993 7.1761 3.9192 5.3231 3.9192 C3.7292 3.9192 2.1217 4.1936 0.6371 4.6471 C0.1933 4.7792 0 5.174 0.1132 5.5624 C0.2264 5.9424 0.5974 6.1656 1.0767 6.0189 Z"/></svg>
