<svg xmlns="http://www.w3.org/2000/svg" viewBox="0.116 0 21.0232 18.1707" role="img" aria-label="figure.mind.and.body"><path fill="#AF52DE" fill-rule="nonzero" d="M0.4511 8.4629 L3.7585 11.7721 C4.2306 12.2443 5.004 12.2588 5.4551 11.6847 L7.4879 9.1797 C7.6172 9.0197 7.8211 9.1049 7.8211 9.2963 L7.8211 13.5433 L4.1368 13.1358 C2.8038 12.9819 2.3756 14.9362 3.6501 15.3604 L7.8523 16.752 C7.6648 17.6423 8.4509 18.3928 9.3349 18.1103 L10.6246 17.6817 L11.9228 18.1103 C12.7983 18.3928 13.5844 17.6423 13.3968 16.752 L17.6009 15.3604 C18.884 14.9362 18.4453 12.9819 17.1105 13.1358 L13.428 13.5433 L13.428 9.2963 C13.428 9.1049 13.634 9.0238 13.7613 9.1797 L15.7941 11.6847 C16.2538 12.2588 17.0185 12.2461 17.4907 11.7721 L20.7962 8.4629 C21.2492 8.0032 21.2577 7.2963 20.7962 6.8472 C20.3635 6.4065 19.6316 6.3981 19.1805 6.8472 L16.7799 9.2562 L14.3206 6.2524 C13.8943 5.7365 13.264 5.408 12.5819 5.408 L8.6691 5.408 C7.9851 5.408 7.3634 5.7365 6.9389 6.2524 L4.476 9.2562 L2.0687 6.8472 C1.6194 6.3981 0.8857 6.4065 0.4511 6.8472 C0 7.2963 0.0086 8.0032 0.4511 8.4629 Z M10.6246 4.386 C11.8311 4.386 12.8081 3.4108 12.8081 2.1835 C12.8081 0.9837 11.8311 0 10.6246 0 C9.4058 0 8.4221 0.9837 8.4221 2.1835 C8.4221 3.4108 9.4058 4.386 10.6246 4.386 Z"/></svg>
