<svg xmlns="http://www.w3.org/2000/svg" viewBox="0 0 20.1737 20.1633" role="img" aria-label="face.smiling"><path fill="#FFB800" fill-rule="nonzero" d="M10.0817 20.1634 C15.6526 20.1634 20.1737 15.6526 20.1737 10.0817 C20.1737 4.5107 15.6526 0 10.0817 0 C4.5211 0 0 4.5107 0 10.0817 C0 15.6526 4.5211 20.1634 10.0817 20.1634 Z M10.0817 18.1817 C5.6045 18.1817 1.9884 14.5588 1.9884 10.0817 C1.9884 5.6045 5.6045 1.9817 10.0817 1.9817 C14.5607 1.9817 18.1835 5.6045 18.1835 10.0817 C18.1835 14.5588 14.5607 18.1817 10.0817 18.1817 Z M10.0731 14.8895 C12.1208 14.8895 13.4998 13.5281 13.4998 12.8737 C13.4998 12.6409 13.2688 12.5311 13.0435 12.6273 C12.3321 13.0017 11.4967 13.4415 10.0731 13.4415 C8.66 13.4415 7.8204 13.0039 7.1113 12.6273 C6.8859 12.529 6.655 12.6409 6.655 12.8737 C6.655 13.5281 8.0338 14.8895 10.0731 14.8895 Z M7.1957 9.2033 C7.8112 9.2033 8.3537 8.6543 8.3537 7.8846 C8.3537 7.0976 7.813 6.5504 7.1957 6.5504 C6.5869 6.5504 6.057 7.0976 6.057 7.8846 C6.057 8.6543 6.5887 9.2033 7.1957 9.2033 Z M12.9589 9.2033 C13.5723 9.2033 14.1103 8.6543 14.1103 7.8846 C14.1103 7.0976 13.5742 6.5504 12.9589 6.5504 C12.3395 6.5504 11.8182 7.0976 11.8182 7.8846 C11.8182 8.6543 12.3414 9.2033 12.9589 9.2033 Z"/></svg>
