<svg xmlns="http://www.w3.org/2000/svg" viewBox="0.5521 0.5709 20.291 20.3074" role="img" aria-label="bandage.fill"><path fill="#FF3B30" fill-rule="nonzero" d="M2.0613 19.3566 C4.1206 21.4362 6.9619 21.3822 9.3137 19.2069 L11.013 17.6072 C10.089 17.9165 9.184 17.6663 8.2172 16.7014 L4.6628 13.147 C3.6958 12.18 3.5099 11.3374 3.8107 10.401 L2.2196 12.1109 C0.0349 14.4625 0.0123 17.277 2.0613 19.3566 Z M9.2051 15.6499 C10.2004 16.6452 11.1496 16.6701 12.1698 15.6499 L15.6315 12.1931 C16.6538 11.1622 16.6308 10.2188 15.644 9.2235 L12.1944 5.7824 C11.2009 4.7871 10.2557 4.764 9.2334 5.7949 L5.768 9.2499 C4.7477 10.2701 4.7726 11.226 5.768 12.2213 Z M7.9396 11.3891 C7.5564 11.0145 7.5564 10.4303 7.9396 10.0536 C8.3189 9.6723 8.8986 9.6847 9.28 10.0681 C9.6276 10.4179 9.6422 11.0145 9.28 11.3767 C8.8841 11.7725 8.3085 11.758 7.9396 11.3891 Z M10.0431 9.3002 C9.6598 8.9255 9.6598 8.3269 10.0306 7.9647 C10.4119 7.5833 10.9896 7.5833 11.371 7.9647 C11.7331 8.3269 11.7456 8.9131 11.3564 9.3002 C11 9.6546 10.3995 9.6566 10.0431 9.3002 Z M13.4599 11.3891 C13.091 11.758 12.5009 11.758 12.1195 11.3767 C11.7612 11.0269 11.7612 10.4158 12.1195 10.0681 C12.5154 9.6743 13.091 9.6847 13.4599 10.0536 C13.8345 10.4283 13.8345 11.0145 13.4599 11.3891 Z M10.0306 13.4801 C9.6598 13.1179 9.6453 12.5338 10.0431 12.1446 C10.4119 11.7757 11.0021 11.7882 11.3564 12.1446 C11.7311 12.5213 11.7456 13.1179 11.371 13.4801 C10.9771 13.8615 10.4119 13.8615 10.0306 13.4801 Z M17.5964 11.0547 L19.1838 9.3423 C21.3525 6.9729 21.3892 4.1658 19.3299 2.088 C17.2772 0.0102 14.4434 0.0735 12.086 2.2359 L10.367 3.8214 C11.2977 3.5207 12.2446 3.8016 13.201 4.7684 L16.7621 8.3209 C17.7187 9.2879 17.8972 10.1268 17.5964 11.0547 Z"/></svg>
