<svg xmlns="http://www.w3.org/2000/svg" viewBox="0 0 26.5524 21.422" role="img" aria-label="stethoscope"><path fill="#34C759" fill-rule="nonzero" d="M0 4.0814 C0 8.2196 3.7982 14.1388 7.2241 14.1388 L7.6788 14.1388 C11.1047 14.1388 14.8944 8.2196 14.8944 4.0814 C14.8944 1.8413 13.7705 0.6656 11.5889 0.6656 L10.5269 0.6656 L10.5269 2.5377 L11.6556 2.5377 C12.5638 2.5377 13.0241 3.0772 13.0241 4.0565 C13.0241 7.1498 10.089 12.2667 7.4481 12.2667 C4.8072 12.2667 1.8702 7.1498 1.8702 4.0565 C1.8702 3.0772 2.3306 2.5377 3.2369 2.5377 L4.3674 2.5377 L4.3674 0.6656 L3.3073 0.6656 C1.1238 0.6656 0 1.8413 0 4.0814 Z M11.6226 21.422 C14.7388 21.422 16.339 19.0487 17.1212 14.2616 C17.6899 10.8468 18.5226 9.7675 19.8816 9.7675 C21.4587 9.7675 22.2598 11.3143 22.3401 14.7281 L24.2163 14.7281 C23.9674 10.0791 22.6344 7.8954 19.9022 7.8954 C17.4085 7.8954 16.0203 9.5827 15.2862 13.7992 C14.6313 17.5345 13.8082 19.5499 11.5558 19.5499 C9.4672 19.5499 8.3409 17.2816 8.3613 13.2322 L6.491 13.2322 C6.4625 18.5129 8.2881 21.422 11.6226 21.422 Z M4.8196 3.1784 C5.691 3.1784 6.4069 2.4624 6.4069 1.5892 C6.4069 0.716 5.691 0 4.8196 0 C3.9464 0 3.2237 0.716 3.2237 1.5892 C3.2237 2.4624 3.9464 3.1784 4.8196 3.1784 Z M10.0681 3.1784 C10.9394 3.1784 11.6535 2.4624 11.6535 1.5892 C11.6535 0.716 10.9394 0 10.0681 0 C9.193 0 8.4703 0.716 8.4703 1.5892 C8.4703 2.4624 9.193 3.1784 10.0681 3.1784 Z M23.3465 20.1578 C25.1124 20.1578 26.5524 18.7177 26.5524 16.931 C26.5524 15.1651 25.1124 13.7232 23.3465 13.7146 C21.5597 13.7061 20.1197 15.1651 20.1197 16.931 C20.1197 18.7177 21.5597 20.1578 23.3465 20.1578 Z M23.3485 18.4951 C22.4781 18.4951 21.7824 17.7889 21.7824 16.9289 C21.7824 16.0622 22.4781 15.3753 23.3485 15.3753 C24.2067 15.3753 24.8985 16.0622 24.8985 16.9289 C24.8985 17.7889 24.2067 18.4951 23.3485 18.4951 Z"/></svg>
