<svg xmlns="http://www.w3.org/2000/svg" viewBox="0.3863 0 19.6431 21.141" role="img" aria-label="scalemass.fill"><path fill="#FF6F5E" fill-rule="nonzero" d="M0.5351 17.7224 C0 19.8725 0.9267 21.141 3.0152 21.141 L17.3988 21.141 C19.4873 21.141 20.4159 19.8725 19.8808 17.7224 L17.7358 9.0257 C17.3555 7.4862 16.2411 6.6106 14.668 6.6106 L5.7479 6.6106 C4.1625 6.6106 3.0585 7.4862 2.6782 9.0257 Z M9.2523 8.04 L11.1636 8.04 L11.1636 4.925 L9.2523 4.925 Z M10.207 5.8756 C11.8064 5.8756 13.1457 4.5467 13.1457 2.9494 C13.1457 1.3395 11.8025 0 10.207 0 C8.6078 0 7.2618 1.3414 7.2618 2.9494 C7.2618 4.5467 8.6096 5.8756 10.207 5.8756 Z M10.207 4.2688 C9.4842 4.2688 8.879 3.6673 8.879 2.9494 C8.879 2.2245 9.4824 1.6089 10.207 1.6089 C10.9319 1.6089 11.5389 2.2227 11.5389 2.9494 C11.5389 3.6675 10.9356 4.2688 10.207 4.2688 Z"/></svg>
