<svg xmlns="http://www.w3.org/2000/svg" viewBox="0 0.1083 18.8565 18.6679" role="img" aria-label="percent"><path fill="#FF9500" fill-rule="nonzero" d="M3.5806 9.4234 C5.8106 9.4234 7.1698 7.6626 7.1698 4.8307 C7.1698 1.984 5.798 0.2607 3.5806 0.2607 C1.3757 0.2607 0 1.9926 0 4.8327 C0 7.6753 1.3631 9.4234 3.5806 9.4234 Z M3.5806 7.836 C2.5118 7.836 1.9057 6.7494 1.9057 4.8327 C1.9057 2.9306 2.5203 1.8463 3.5806 1.8463 C4.6409 1.8463 5.2641 2.9202 5.2641 4.8327 C5.2641 6.7494 4.6494 7.836 3.5806 7.836 Z M15.2759 18.6403 C17.4955 18.6403 18.8565 16.8728 18.8565 14.0409 C18.8565 11.1942 17.4847 9.4776 15.2759 9.4776 C13.0711 9.4776 11.6953 11.2028 11.6953 14.043 C11.6953 16.8855 13.0584 18.6403 15.2759 18.6403 Z M15.2759 17.0547 C14.2071 17.0547 13.5992 15.9682 13.5992 14.043 C13.5992 12.1494 14.2157 11.0651 15.2759 11.0651 C16.3362 11.0651 16.9508 12.139 16.9508 14.043 C16.9508 15.9682 16.3448 17.0547 15.2759 17.0547 Z M3.2306 18.6347 C3.6587 18.8824 4.2722 18.8201 4.6115 18.3257 L15.8592 1.6236 C16.2361 1.0826 16.0392 0.4907 15.5921 0.2285 C15.181 0 14.6247 0.0809 14.2536 0.6137 L3.006 17.2627 C2.6185 17.819 2.7902 18.3705 3.2306 18.6347 Z"/></svg>
