<svg xmlns="http://www.w3.org/2000/svg" viewBox="0 -0.0001 23.6952 24.0363" role="img" aria-label="figure.strengthtraining.traditional"><path fill="#FF3B30" fill-rule="nonzero" d="M11.8572 4.3859 C13.0588 4.3859 14.0511 3.4108 14.0511 2.1834 C14.0511 0.9836 13.0588 -0.0001 11.8572 -0.0001 C10.6402 -0.0001 9.667 0.9836 9.667 2.1834 C9.667 3.4108 10.6402 4.3859 11.8572 4.3859 Z M9.6504 11.691 L14.0783 11.691 L14.0783 9.5435 C14.0783 9.383 14.3114 9.3185 14.401 9.5082 L17.1137 15.0256 C17.3695 15.5307 17.9892 15.7491 18.5049 15.4788 C18.9936 15.2334 19.2118 14.6119 18.956 14.0982 L15.3282 6.7657 C14.8873 5.8734 14.0661 5.3661 13.0364 5.3661 L10.6712 5.3661 C9.6501 5.3661 8.8222 5.8734 8.3795 6.7657 L4.7602 14.0982 C4.5044 14.6119 4.7247 15.2334 5.2048 15.4788 C5.7203 15.7491 6.3382 15.5307 6.594 15.0256 L9.3277 9.5082 C9.4191 9.3185 9.6504 9.3726 9.6504 9.5331 Z M7.8422 24.0155 C8.3416 24.1154 8.911 23.8596 9.0649 23.1547 L9.9802 18.9237 L11.8572 15.5846 L13.7256 18.9237 L14.6446 23.1547 C14.8005 23.8864 15.4118 24.1297 15.9148 24.003 C16.4077 23.8784 16.7988 23.4146 16.6553 22.7056 L15.7151 18.333 C15.7026 18.2476 15.6863 18.1812 15.6507 18.0938 L14.5296 14.9199 L9.1924 14.9199 L8.0551 18.0938 C8.0195 18.1812 8.005 18.2476 7.9926 18.333 L7.0627 22.7056 C6.9068 23.4395 7.3457 23.9135 7.8422 24.0155 Z M2.1053 16.6766 L2.6609 16.6766 C3.0918 16.6766 3.3838 16.3635 3.3838 15.9325 L3.3838 10.6572 C3.3838 10.2243 3.0918 9.9323 2.6609 9.9323 L2.1053 9.9323 C1.6724 9.9323 1.3718 10.2243 1.3718 10.6572 L1.3718 15.9325 C1.3718 16.3635 1.6724 16.6766 2.1053 16.6766 Z M21.0428 16.6766 L21.6004 16.6766 C22.0313 16.6766 22.3233 16.3635 22.3233 15.9325 L22.3233 10.6572 C22.3233 10.2243 22.0313 9.9323 21.6004 9.9323 L21.0428 9.9323 C20.6138 9.9323 20.3132 10.2243 20.3132 10.6572 L20.3132 15.9325 C20.3132 16.3635 20.6138 16.6766 21.0428 16.6766 Z M0.614 13.9236 L23.0812 13.9236 C23.4269 13.9236 23.6952 13.6429 23.6952 13.3011 C23.6952 12.9574 23.4269 12.6853 23.0812 12.6853 L0.614 12.6853 C0.2701 12.6853 0 12.9574 0 13.3011 C0 13.6429 0.2701 13.9236 0.614 13.9236 Z"/></svg>
