<svg xmlns="http://www.w3.org/2000/svg" viewBox="0 0 24.3946 10.9456" role="img" aria-label="ruler.fill"><path fill="#0A84FF" fill-rule="nonzero" d="M24.3946 2.7357 C24.3946 0.9582 23.4264 0 21.6316 0 L2.7629 0 C0.9641 0 0 0.9496 0 2.7357 L0 8.2058 C0 9.9833 0.9747 10.9456 2.7735 10.9456 L21.6336 10.9456 C23.437 10.9456 24.3946 9.9833 24.3946 8.2058 Z M3.1744 1.8437 L3.1744 6.2604 C3.1744 6.5046 3.0034 6.6928 2.746 6.6928 C2.5104 6.6928 2.3135 6.515 2.3135 6.2711 L2.3135 1.8437 Z M5.074 1.8437 L5.074 4.6286 C5.074 4.8728 4.8963 5.0609 4.6389 5.0609 C4.4033 5.0609 4.2064 4.8813 4.2064 4.6392 L4.2064 1.8437 Z M6.9669 1.8437 L6.9669 4.6286 C6.9669 4.8728 6.7873 5.0609 6.5385 5.0609 C6.2962 5.0609 6.0993 4.8813 6.0993 4.6392 L6.0993 1.8437 Z M8.8512 1.8437 L8.8512 4.6286 C8.8512 4.8728 8.6716 5.0609 8.4228 5.0609 C8.1787 5.0609 7.9903 4.8813 7.9903 4.6392 L7.9903 1.8437 Z M10.7441 1.8437 L10.7441 4.6286 C10.7441 4.8728 10.5731 5.0609 10.3157 5.0609 C10.0801 5.0609 9.8832 4.8813 9.8832 4.6392 L9.8832 1.8437 Z M12.637 1.8437 L12.637 6.2604 C12.637 6.5046 12.4574 6.6928 12.2 6.6928 C11.9663 6.6928 11.7694 6.515 11.7694 6.2711 L11.7694 1.8437 Z M14.5299 1.8437 L14.5299 4.6286 C14.5299 4.8728 14.3503 5.0609 14.1015 5.0609 C13.8573 5.0609 13.6604 4.8813 13.6604 4.6392 L13.6604 1.8437 Z M16.4228 1.8437 L16.4228 4.6286 C16.4228 4.8728 16.2432 5.0609 15.9944 5.0609 C15.7502 5.0609 15.5618 4.8813 15.5618 4.6392 L15.5618 1.8437 Z M18.3052 1.8437 L18.3052 4.6286 C18.3052 4.8728 18.1342 5.0609 17.8768 5.0609 C17.6431 5.0609 17.4462 4.8813 17.4462 4.6392 L17.4462 1.8437 Z M20.2067 1.8437 L20.2067 4.6286 C20.2067 4.8728 20.0271 5.0609 19.7697 5.0609 C19.5341 5.0609 19.3372 4.8813 19.3372 4.6392 L19.3372 1.8437 Z M22.0891 1.8437 L22.0891 6.2604 C22.0891 6.5046 21.9096 6.6928 21.6607 6.6928 C21.4166 6.6928 21.2197 6.515 21.2197 6.2711 L21.2197 1.8437 Z"/></svg>
