<svg xmlns="http://www.w3.org/2000/svg" viewBox="0 0 23.2373 18.0359" role="img" aria-label="lines.measurement.horizontal"><path fill="#30B0C7" fill-rule="nonzero" d="M22.067 14.1142 C22.8423 14.1142 23.2373 13.7192 23.2373 12.9354 L23.2373 5.1006 C23.2373 4.3168 22.8423 3.9218 22.067 3.9218 C21.2812 3.9218 20.8862 4.3168 20.8862 5.1006 L20.8862 12.9354 C20.8862 13.7192 21.2812 14.1142 22.067 14.1142 Z M16.8349 11.6162 C17.6187 11.6162 18.0137 11.2231 18.0137 10.4478 L18.0137 7.5881 C18.0137 6.8129 17.6187 6.4197 16.8349 6.4197 C16.0683 6.4197 15.6666 6.8129 15.6666 7.5881 L15.6666 10.4478 C15.6666 11.2231 16.0683 11.6162 16.8349 11.6162 Z M11.6238 18.0359 C12.3972 18.0359 12.7922 17.6428 12.7922 16.8551 L12.7922 1.1809 C12.7922 0.3932 12.3972 0 11.6238 0 C10.8382 0 10.4451 0.3932 10.4451 1.1809 L10.4451 16.8551 C10.4451 17.6428 10.8382 18.0359 11.6238 18.0359 Z M6.4023 11.6162 C7.1776 11.6162 7.5707 11.2231 7.5707 10.4478 L7.5707 7.5881 C7.5707 6.8129 7.1776 6.4197 6.4023 6.4197 C5.6271 6.4197 5.2236 6.8129 5.2236 7.5881 L5.2236 10.4478 C5.2236 11.2231 5.6271 11.6162 6.4023 11.6162 Z M1.1788 14.1142 C1.9561 14.1142 2.3511 13.7192 2.3511 12.9354 L2.3511 5.1006 C2.3511 4.3168 1.9561 3.9218 1.1788 3.9218 C0.395 3.9218 0 4.3168 0 5.1006 L0 12.9354 C0 13.7192 0.395 14.1142 1.1788 14.1142 Z"/></svg>
