<svg xmlns="http://www.w3.org/2000/svg" viewBox="0 0 20.9673 20.9104" role="img" aria-label="testtube.2"><path fill="#34C759" fill-rule="nonzero" d="M18.7054 15.9142 L13.5275 15.9142 L13.5275 17.0297 C13.5275 18.56 14.5803 19.6027 16.1245 19.6027 C17.6544 19.6027 18.7054 18.56 18.7054 17.0297 Z M12.2143 1.8806 L20.0217 1.8806 C20.5343 1.8806 20.9673 1.4475 20.9673 0.935 C20.9673 0.4243 20.5363 0 20.0217 0 L12.2143 0 C11.6632 0 11.2687 0.4202 11.2687 0.935 C11.2687 1.4517 11.6653 1.8806 12.2143 1.8806 Z M16.1245 20.9104 C18.4872 20.9104 20.0239 19.3819 20.0239 17.0297 L20.0239 0.8549 L18.2282 0.8549 L18.2282 17.0297 C18.2282 18.2938 17.397 19.1274 16.1245 19.1274 C14.8377 19.1274 14.0028 18.2938 14.0028 17.0297 L14.0028 0.8549 L12.1898 0.8549 L12.1898 17.0297 C12.1898 19.3819 13.7436 20.9104 16.1245 20.9104 Z M13.5739 7.6556 L16.0372 7.6556 C16.3795 7.6556 16.6463 7.3848 16.6463 7.034 C16.6463 6.7129 16.3709 6.4442 16.0372 6.4442 L13.5739 6.4442 Z M13.5739 10.8234 L16.0372 10.8234 C16.3795 10.8234 16.6463 10.5612 16.6463 10.2122 C16.6463 9.8891 16.3795 9.6118 16.0372 9.6118 L13.5739 9.6118 Z M13.5739 13.9931 L16.0372 13.9931 C16.388 13.9931 16.6463 13.7329 16.6378 13.3862 C16.6378 13.061 16.3709 12.7903 16.0372 12.7903 L13.5739 12.7903 Z M7.433 4.3972 L2.2502 4.3972 L2.2502 17.0297 C2.2502 18.56 3.303 19.6027 4.8521 19.6027 C6.382 19.6027 7.433 18.56 7.433 17.0297 Z M0.9456 1.8806 L8.7426 1.8806 C9.2637 1.8806 9.6882 1.4475 9.6882 0.935 C9.6882 0.4243 9.2658 0 8.7426 0 L0.9456 0 C0.3945 0 0 0.4202 0 0.935 C0 1.4517 0.3966 1.8806 0.9456 1.8806 Z M4.8521 20.9104 C7.2185 20.9104 8.7534 19.3819 8.7534 17.0297 L8.7534 0.8549 L6.9595 0.8549 L6.9595 17.0297 C6.9595 18.2938 6.1179 19.1274 4.8521 19.1274 C3.5671 19.1274 2.7255 18.2938 2.7255 17.0297 L2.7255 0.8549 L0.9211 0.8549 L0.9211 17.0297 C0.9211 19.3819 2.4664 20.9104 4.8521 20.9104 Z M2.7255 7.6556 L2.7255 6.4442 L4.7581 6.4442 C5.0899 6.4442 5.3672 6.7129 5.3672 7.034 C5.3672 7.3848 5.1071 7.6556 4.7667 7.6556 Z M2.7255 10.8234 L2.7255 9.6118 L4.7667 9.6118 C5.0985 9.6118 5.3672 9.8891 5.3672 10.2122 C5.3672 10.5612 5.1071 10.8234 4.7667 10.8234 Z M2.7255 13.9931 L2.7255 12.7903 L4.7581 12.7903 C5.0899 12.7903 5.3587 13.061 5.3587 13.3862 C5.3672 13.7329 5.1175 13.9931 4.7581 13.9931 Z"/></svg>
