<svg xmlns="http://www.w3.org/2000/svg" viewBox="0 0 16.7451 21.1312" role="img" aria-label="text.document.fill"><path fill="#3E63DD" fill-rule="nonzero" d="M3.168 21.1312 L13.5686 21.1312 C15.6585 21.1312 16.7451 20.0342 16.7451 17.929 L16.7451 9.1953 L9.4438 9.1953 C8.2214 9.1953 7.6267 8.5987 7.6267 7.3763 L7.6267 0 L3.168 0 C1.0836 0 0 1.097 0 3.2004 L0 17.929 C0 20.0428 1.0799 21.1312 3.168 21.1312 Z M9.6086 7.7694 L16.6338 7.7694 C16.5853 7.3243 16.2573 6.9024 15.757 6.3935 L10.4202 0.9779 C9.9369 0.486 9.496 0.1552 9.0526 0.0942 L9.0526 7.2135 C9.0526 7.5879 9.2447 7.7694 9.6086 7.7694 Z M4.5786 13.5026 C4.1647 13.5026 3.8665 13.2024 3.8665 12.818 C3.8665 12.4292 4.1647 12.131 4.5786 12.131 L12.1882 12.131 C12.5916 12.131 12.8983 12.4292 12.8983 12.818 C12.8983 13.2024 12.5916 13.5026 12.1882 13.5026 Z M4.5786 17.1674 C4.1647 17.1674 3.8665 16.8693 3.8665 16.4804 C3.8665 16.0961 4.1647 15.7892 4.5786 15.7892 L12.1882 15.7892 C12.5916 15.7892 12.8983 16.0961 12.8983 16.4804 C12.8983 16.8693 12.5916 17.1674 12.1882 17.1674 Z"/></svg>
