<svg xmlns="http://www.w3.org/2000/svg" viewBox="0.1612 0 16.6048 21.76" role="img" aria-label="figure.run"><path fill="#3E63DD" fill-rule="nonzero" d="M10.5339 4.3749 C11.749 4.3749 12.7223 3.3949 12.7223 2.1884 C12.7223 0.9714 11.749 0 10.5339 0 C9.3256 0 8.3456 0.9714 8.3456 2.1884 C8.3456 3.3949 9.3256 4.3749 10.5339 4.3749 Z M7.1308 12.9869 L10.8633 15.0915 L8.4555 17.1476 C7.932 17.6065 7.9299 18.2078 8.2643 18.5834 C8.6129 18.9715 9.214 19.0427 9.7626 18.5711 L13.1691 15.6637 C13.6521 15.2624 13.573 14.3817 12.9922 14.0027 L9.3118 11.5887 L10.0329 9.058 C10.1264 8.7156 10.5193 8.6678 10.7206 8.9647 L11.806 10.5577 C12.0724 10.9405 12.5593 11.0845 12.9899 10.8866 L16.1181 9.4914 C16.6969 9.2374 16.9153 8.7293 16.6614 8.209 C16.4113 7.7031 15.914 7.5472 15.3543 7.801 L12.8882 8.8864 L11.1956 6.5429 C10.291 5.308 9.1809 4.8061 7.3621 4.9395 L3.8827 5.1871 C3.3184 5.2265 2.9317 5.6053 2.8546 6.1794 L2.3844 9.7047 C2.297 10.3289 2.6136 10.7763 3.1775 10.8388 C3.7459 10.8907 4.1163 10.5597 4.2058 9.9337 L4.6237 7.0848 L5.9873 6.987 C6.2854 6.9641 6.5524 7.1645 6.4503 7.5167 L5.6538 10.3473 C5.165 12.045 6.272 12.5024 7.1308 12.9869 Z M0.5047 21.5141 C0.9032 21.8484 1.4814 21.8772 1.9886 21.3789 L5.183 18.2114 C5.4617 17.9328 5.5221 17.8661 5.6843 17.4543 L7.0014 14.0524 L6.6391 13.8523 C5.8952 13.4368 5.3565 13.0314 4.9962 12.5804 L3.8405 16.6673 L0.5255 19.9676 C0 20.4806 0.0876 21.1426 0.5047 21.5141 Z"/></svg>
