<svg xmlns="http://www.w3.org/2000/svg" viewBox="0 0 25.8515 14.9989" role="img" aria-label="dumbbell.fill"><path fill="#FF9500" fill-rule="nonzero" d="M1.4972 12.7314 C2.3435 12.7314 2.996 12.0789 2.996 11.2488 L2.996 3.7538 C2.996 2.9094 2.3435 2.2569 1.4972 2.2569 C0.6546 2.2569 0 2.9094 0 3.7538 L0 11.2488 C0 12.0789 0.6546 12.7314 1.4972 12.7314 Z M6.3999 14.9989 C7.8046 14.9989 8.7716 14.0373 8.7716 12.6859 L8.7716 2.3236 C8.7716 0.9636 7.8046 0 6.3999 0 C5.0017 0 4.0348 0.9636 4.0348 2.3236 L4.0348 12.6859 C4.0348 14.0373 5.0017 14.9989 6.3999 14.9989 Z M9.8892 9.5266 L16.0497 9.5266 L16.0497 5.4723 L9.8892 5.4723 Z M19.5304 14.9989 C20.9371 14.9989 21.9041 14.0373 21.9041 12.6859 L21.9041 2.3236 C21.9041 0.9636 20.9371 0 19.5304 0 C18.1342 0 17.1654 0.9636 17.1654 2.3236 L17.1654 12.6859 C17.1654 14.0373 18.1342 14.9989 19.5304 14.9989 Z M24.3524 12.7314 C25.1987 12.7314 25.8515 12.0789 25.8515 11.2488 L25.8515 3.7538 C25.8515 2.9094 25.1987 2.2569 24.3524 2.2569 C23.508 2.2569 22.8573 2.9094 22.8573 3.7538 L22.8573 11.2488 C22.8573 12.0789 23.508 12.7314 24.3524 12.7314 Z"/></svg>
