<svg xmlns="http://www.w3.org/2000/svg" viewBox="0 0 25.3516 19.1572" role="img" aria-label="figure.outdoor.cycle"><path fill="#32ADE6" fill-rule="nonzero" d="M12.6724 15.1691 C13.2382 15.1691 13.7018 14.7073 13.7018 14.1397 L13.7018 9.1707 C13.7018 8.9292 13.6123 8.6942 13.419 8.4864 L10.8478 5.6159 C10.708 5.4532 10.808 5.224 11.0227 5.224 L14.1683 5.224 C14.5244 5.224 14.6327 5.4636 14.6327 5.7258 L14.6327 8.1783 C14.6327 8.7373 15.088 9.1993 15.6574 9.1993 L19.6346 9.1993 C20.1983 9.1993 20.6515 8.7373 20.6515 8.1783 C20.6515 7.6146 20.1983 7.1471 19.6346 7.1471 L16.6868 7.1471 L16.6868 3.7062 C16.6868 2.5724 15.7903 1.6741 14.6614 1.6741 L9.8208 1.6741 C8.7873 1.6741 7.8846 2.2917 7.4896 3.2301 C7.0986 4.1801 7.3235 5.2492 8.0343 5.9791 L11.6516 9.6091 L11.6516 14.1397 C11.6516 14.7073 12.1134 15.1691 12.6724 15.1691 Z M5.4286 19.1572 C8.4248 19.1572 10.8502 16.7355 10.8502 13.7268 C10.8502 10.72 8.4248 8.3013 5.4286 8.3013 C2.4217 8.3013 0 10.72 0 13.7268 C0 16.7355 2.4217 19.1572 5.4286 19.1572 Z M5.4286 17.6448 C3.2608 17.6448 1.5087 15.8964 1.5087 13.7268 C1.5087 11.5657 3.2608 9.8157 5.4286 9.8157 C7.5878 9.8157 9.3378 11.5657 9.3378 13.7268 C9.3378 15.8964 7.5878 17.6448 5.4286 17.6448 Z M22.5265 10.8265 C23.3201 11.5366 23.8325 12.5663 23.8325 13.7268 C23.8325 15.8964 22.0804 17.6448 19.923 17.6448 C17.7619 17.6448 16.0138 15.8964 16.0138 13.7268 C16.0138 13.1785 16.1239 12.6558 16.3251 12.1823 C16.5667 11.6118 16.307 11.2038 15.9364 11.0677 C15.5966 10.9441 15.1777 11.0534 14.972 11.515 C14.6656 12.2062 14.4947 12.9463 14.4947 13.7268 C14.4947 16.7355 16.9164 19.1572 19.923 19.1572 C22.928 19.1572 25.3516 16.7355 25.3516 13.7268 C25.3516 12.0924 24.6283 10.654 23.4893 9.6507 C23.0906 9.3108 22.6446 9.3951 22.3849 9.676 C22.1186 9.9675 22.0843 10.4239 22.5265 10.8265 Z M19.8312 4.386 C21.0292 4.386 22.0147 3.409 22.0147 2.1939 C22.0147 0.9941 21.0292 0 19.8312 0 C18.6057 0 17.6306 0.9941 17.6306 2.1939 C17.6306 3.409 18.6057 4.386 19.8312 4.386 Z"/></svg>
