<svg xmlns="http://www.w3.org/2000/svg" viewBox="0 0.133 23.4295 13.2512" role="img" aria-label="figure.pool.swim"><path fill="#0A84FF" fill-rule="nonzero" d="M17.0154 5.1562 C18.2238 5.1562 19.2093 4.1707 19.2093 2.9604 C19.2093 1.7453 18.2238 0.7684 17.0154 0.7684 C15.8071 0.7684 14.8215 1.7453 14.8215 2.9604 C14.8215 4.1707 15.8071 5.1562 17.0154 5.1562 Z M8.3997 6.5668 C9.6065 7.0215 10.2736 7.8598 11.7096 7.8598 C13.3933 7.8598 13.947 6.7352 15.5994 6.3731 L9.9748 0.5259 C9.5278 0.0625 8.8499 0 8.297 0.3866 L4.4302 3.1365 C3.7398 3.6229 3.8062 4.3568 4.2053 4.7935 C4.5399 5.1553 5.1325 5.3073 5.7086 4.9081 L8.825 2.7113 L10.5539 4.4863 C10.7516 4.6963 10.7977 4.9918 10.502 5.1831 Z M0.5975 10.5587 L1.6252 10.5587 C4.2988 10.5587 4.8862 8.9409 6.6674 8.9409 C8.3954 8.9409 9.0424 10.5587 11.7096 10.5587 C14.3852 10.5587 15.0322 8.9409 16.7517 8.9409 C18.5415 8.9409 19.1288 10.5587 21.7939 10.5587 L22.8234 10.5587 C23.157 10.5587 23.4295 10.2966 23.4295 9.9611 C23.4295 9.6172 23.157 9.3551 22.8234 9.3551 L21.7939 9.3551 C19.9467 9.3551 19.3169 7.7373 16.7517 7.7373 C14.2568 7.7373 13.5653 9.3551 11.7096 9.3551 C9.8624 9.3551 9.1709 7.7373 6.6674 7.7373 C4.1107 7.7373 3.4809 9.3551 1.6252 9.3551 L0.5975 9.3551 C0.2639 9.3551 0 9.6172 0 9.9611 C0 10.2966 0.2639 10.5587 0.5975 10.5587 Z M0.8378 13.3842 C1.1681 13.3842 1.4377 13.1232 1.4377 12.7862 C1.4377 12.454 1.1681 12.1844 0.8378 12.1844 C0.499 12.1844 0.2379 12.454 0.2379 12.7862 C0.2379 13.1232 0.499 13.3842 0.8378 13.3842 Z M2.6926 13.0598 C3.0247 13.0598 3.2925 12.7902 3.2925 12.4599 C3.2925 12.1211 3.0247 11.86 2.6926 11.86 C2.3538 11.86 2.0927 12.1211 2.0927 12.4599 C2.0927 12.7902 2.3538 13.0598 2.6926 13.0598 Z M4.4194 12.2405 C4.7601 12.2405 5.0211 11.9746 5.0211 11.6424 C5.0211 11.3017 4.7601 11.0425 4.4194 11.0425 C4.0891 11.0425 3.8213 11.3017 3.8213 11.6424 C3.8213 11.9746 4.0891 12.2405 4.4194 12.2405 Z M6.2861 11.7746 C6.6182 11.7746 6.886 11.5154 6.886 11.1766 C6.886 10.8444 6.6182 10.5748 6.2861 10.5748 C5.9454 10.5748 5.6862 10.8444 5.6862 11.1766 C5.6862 11.5154 5.9454 11.7746 6.2861 11.7746 Z M8.1403 12.2405 C8.4791 12.2405 8.7383 11.9746 8.7383 11.6424 C8.7383 11.3017 8.4791 11.0425 8.1403 11.0425 C7.8082 11.0425 7.5385 11.3017 7.5385 11.6424 C7.5385 11.9746 7.8082 12.2405 8.1403 12.2405 Z M9.8879 13.0598 C10.22 13.0598 10.486 12.7902 10.486 12.4599 C10.486 12.1211 10.22 11.86 9.8879 11.86 C9.5558 11.86 9.288 12.1211 9.288 12.4599 C9.288 12.7902 9.5558 13.0598 9.8879 13.0598 Z M11.72 13.3842 C12.0606 13.3842 12.3217 13.1232 12.3217 12.7862 C12.3217 12.454 12.0606 12.1844 11.72 12.1844 C11.3897 12.1844 11.1201 12.454 11.1201 12.7862 C11.1201 13.1232 11.3897 13.3842 11.72 13.3842 Z M13.5624 13.0598 C13.8946 13.0598 14.1623 12.7902 14.1623 12.4599 C14.1623 12.1211 13.8946 11.86 13.5624 11.86 C13.2217 11.86 12.9644 12.1211 12.9644 12.4599 C12.9644 12.7902 13.2217 13.0598 13.5624 13.0598 Z M15.3015 12.2405 C15.6422 12.2405 15.9032 11.9746 15.9032 11.6424 C15.9032 11.3017 15.6422 11.0425 15.3015 11.0425 C14.9712 11.0425 14.7101 11.3017 14.7101 11.6424 C14.7101 11.9746 14.9712 12.2405 15.3015 12.2405 Z M17.1643 11.7746 C17.4964 11.7746 17.7623 11.5154 17.7623 11.1766 C17.7623 10.8444 17.4964 10.5748 17.1643 10.5748 C16.8321 10.5748 16.5644 10.8444 16.5644 11.1766 C16.5644 11.5154 16.8321 11.7746 17.1643 11.7746 Z M19.0205 12.2405 C19.3594 12.2405 19.6204 11.9746 19.6204 11.6424 C19.6204 11.3017 19.3594 11.0425 19.0205 11.0425 C18.6902 11.0425 18.4292 11.3017 18.4292 11.6424 C18.4292 11.9746 18.6902 12.2405 19.0205 12.2405 Z M20.7559 13.0598 C21.0966 13.0598 21.3558 12.7902 21.3558 12.4599 C21.3558 12.1211 21.0966 11.86 20.7559 11.86 C20.4256 11.86 20.1578 12.1211 20.1578 12.4599 C20.1578 12.7902 20.4256 13.0598 20.7559 13.0598 Z M22.607 13.3842 C22.9391 13.3842 23.2087 13.1232 23.2087 12.7862 C23.2087 12.454 22.9391 12.1844 22.607 12.1844 C22.2767 12.1844 22.0089 12.454 22.0089 12.7862 C22.0089 13.1232 22.2767 13.3842 22.607 13.3842 Z"/></svg>
