<svg xmlns="http://www.w3.org/2000/svg" viewBox="0 0 20.4641 22.0705" role="img" aria-label="figure.yoga"><path fill="#AF52DE" fill-rule="nonzero" d="M13.9235 4.3841 C15.1385 4.3841 16.1069 3.409 16.1069 2.1853 C16.1069 0.9751 15.1385 0 13.9235 0 C12.7047 0 11.721 0.9751 11.721 2.1853 C11.721 3.409 12.7047 4.3841 13.9235 4.3841 Z M7.1883 22.0705 C7.7665 22.0705 8.2447 21.5942 8.2447 21.0103 L8.2447 11.7718 C10.5079 11.4083 12.4507 9.9083 13.3824 7.876 C13.4617 7.6802 13.6659 7.5929 14.0507 7.7221 L19.0431 9.4069 C19.7625 9.6417 20.253 9.2469 20.409 8.7478 C20.5716 8.2383 20.384 7.6061 19.723 7.3858 L4.7606 2.3955 C4.0415 2.1609 3.5362 2.5555 3.3929 3.0526 C3.2264 3.5642 3.4199 4.1943 4.0788 4.4146 L9.4665 6.2136 C9.6935 6.2928 9.8019 6.5514 9.652 6.7929 C9.088 7.6792 8.2556 8.2137 7.1883 8.2137 L2.127 8.2137 L2.127 3.1254 C2.127 2.4973 1.6987 2.0778 1.0667 2.0778 C0.4244 2.0778 0 2.4973 0 3.1254 L0 9.1932 C0 9.8769 0.3494 10.2118 0.888 10.3013 L5.3793 11.0503 L6.1197 15.4791 L6.1197 21.0103 C6.1197 21.5942 6.5958 22.0705 7.1883 22.0705 Z"/></svg>
