<svg xmlns="http://www.w3.org/2000/svg" viewBox="0 0 20.1737 20.1633" role="img" aria-label="timer"><path fill="#FF2D9A" fill-rule="nonzero" d="M10.0817 20.1634 C15.6526 20.1634 20.1737 15.6526 20.1737 10.0817 C20.1737 4.5107 15.6526 0 10.0902 0 C9.4987 0 9.1658 0.3563 9.1658 0.9297 L9.1658 3.9345 C9.1658 4.43 9.5087 4.8163 9.999 4.8163 C10.4961 4.8163 10.8369 4.43 10.8369 3.9345 L10.8369 2.0284 C14.6839 2.3566 18.1835 5.6045 18.1835 10.0817 C18.1835 14.5588 14.5607 18.1817 10.0817 18.1817 C5.6045 18.1817 1.9884 14.5588 1.9884 10.0902 C1.9884 8.1075 2.6941 6.3326 3.8354 4.9506 C4.1963 4.4536 4.237 3.9011 3.8237 3.4916 C3.4128 3.0759 2.7378 3.122 2.3156 3.6759 C0.8781 5.4145 0 7.645 0 10.0817 C0 15.6526 4.5211 20.1634 10.0817 20.1634 Z M10.0817 11.7297 C10.9956 11.7297 11.7297 10.9956 11.7297 10.0817 C11.7297 9.5316 11.4631 9.0284 11.0068 8.7242 L6.3348 5.4773 C5.7667 5.0905 5.2099 5.6534 5.5773 6.2299 L8.6433 10.8897 C8.9711 11.3954 9.4826 11.7297 10.0817 11.7297 Z"/></svg>
