<svg xmlns="http://www.w3.org/2000/svg" viewBox="0 0 23.8092 23.7083" role="img" aria-label="rectangle.stack.fill"><path fill="#BF5AF2" fill-rule="nonzero" d="M7.1465 9.8188 L16.6627 9.8188 C17.5609 9.8188 18.0905 9.2976 18.0905 8.41 L18.0905 1.4108 C18.0905 0.5211 17.5609 0 16.6627 0 L7.1465 0 C6.2483 0 5.7187 0.5211 5.7187 1.4108 L5.7187 8.41 C5.7187 9.2976 6.2483 9.8188 7.1465 9.8188 Z M5.6842 17.0307 L18.1335 17.0307 C20.1162 17.0307 21.4488 15.717 21.4488 13.7429 L21.4488 4.6115 C21.4488 2.6269 20.1162 1.3218 18.1335 1.3218 L5.6842 1.3218 C3.693 1.3218 2.3689 2.6269 2.3689 4.6115 L2.3689 13.7429 C2.3689 15.717 3.693 17.0307 5.6842 17.0307 Z M5.5901 15.6625 L18.2191 15.6625 C19.3983 15.6625 20.0806 14.9906 20.0806 13.8285 L20.0806 4.5241 C20.0806 3.3533 19.3983 2.6815 18.2191 2.6815 L5.5901 2.6815 C4.4109 2.6815 3.7286 3.3533 3.7286 4.5241 L3.7286 13.8285 C3.7286 14.9906 4.4109 15.6625 5.5901 15.6625 Z M4.7973 23.7084 L19.0205 23.7084 C22.0048 23.7084 23.8092 21.9174 23.8092 18.9453 L23.8092 8.9038 C23.8092 5.9385 22.0048 4.1475 19.0205 4.1475 L4.7973 4.1475 C1.8044 4.1475 0 5.9348 0 8.9038 L0 18.9453 C0 21.9211 1.8044 23.7084 4.7973 23.7084 Z M4.7973 22.1115 L19.0205 22.1115 C21.1257 22.1115 22.2209 21.0279 22.2209 18.9453 L22.2209 8.9038 C22.2209 6.8261 21.1257 5.7358 19.0205 5.7358 L4.7973 5.7358 C2.6835 5.7358 1.5969 6.8139 1.5969 8.9038 L1.5969 18.9453 C1.5969 21.0316 2.6835 22.1115 4.7973 22.1115 Z"/></svg>
