<svg xmlns="http://www.w3.org/2000/svg" viewBox="0 0 20.1301 16.7084" role="img" aria-label="list.number"><path fill="#5E5CE6" fill-rule="nonzero" d="M6.6135 15.4328 L19.206 15.4328 C19.7162 15.4328 20.1301 15.0149 20.1301 14.5089 C20.1301 13.9948 19.7182 13.5849 19.206 13.5849 L6.6135 13.5849 C6.1034 13.5849 5.6981 13.9989 5.6981 14.5089 C5.6981 15.0108 6.1054 15.4328 6.6135 15.4328 Z M1.7586 16.7084 C2.9673 16.7084 3.6753 16.1879 3.6753 15.3426 C3.6753 14.7829 3.2872 14.4117 2.6002 14.3512 L2.6002 14.3243 C3.0972 14.2313 3.4984 13.8952 3.4984 13.3228 C3.4984 12.547 2.7432 12.1356 1.75 12.1356 C0.975 12.1356 0.1107 12.491 0.1107 13.1643 C0.1107 13.4501 0.3213 13.6533 0.6377 13.6533 C0.855 13.6533 0.9551 13.5716 1.1013 13.4223 C1.3369 13.182 1.5189 13.1123 1.7482 13.1123 C2.0452 13.1123 2.2626 13.2458 2.2626 13.5269 C2.2626 13.7965 2.0457 13.9361 1.6585 13.9361 L1.5338 13.9361 C1.2599 13.9361 1.0763 14.0814 1.0763 14.3741 C1.0763 14.6564 1.2493 14.8169 1.5338 14.8169 L1.6689 14.8169 C2.0912 14.8169 2.3119 14.9545 2.3139 15.2442 C2.316 15.5106 2.0787 15.6881 1.7586 15.6881 C1.4097 15.6881 1.1651 15.4851 0.98 15.3214 C0.8695 15.2184 0.7637 15.1329 0.5731 15.1329 C0.2322 15.1329 0 15.3312 0 15.6511 C0 16.3299 0.9335 16.7084 1.7586 16.7084 Z M6.6135 9.4398 L19.206 9.4398 C19.7162 9.4398 20.1301 9.0201 20.1301 8.514 C20.1301 8.0018 19.7182 7.5883 19.206 7.5883 L6.6135 7.5883 C6.1034 7.5883 5.6981 8.0059 5.6981 8.514 C5.6981 9.016 6.1054 9.4398 6.6135 9.4398 Z M0.5854 10.5498 L3.144 10.5498 C3.4304 10.5498 3.6502 10.3556 3.6502 10.0584 C3.6502 9.7551 3.4322 9.5567 3.144 9.5567 L1.7736 9.5567 L1.7736 9.5297 L2.5559 8.8967 C3.2288 8.35 3.5131 8.0373 3.5131 7.4412 C3.5131 6.6435 2.8259 6.1022 1.7375 6.1022 C0.7797 6.1022 0.0899 6.5902 0.0899 7.2277 C0.0899 7.5511 0.3007 7.7312 0.6552 7.7312 C0.8762 7.7312 1.0349 7.6562 1.1878 7.4357 C1.3342 7.2103 1.5048 7.0951 1.7588 7.0951 C2.0395 7.0951 2.2336 7.2726 2.2336 7.5376 C2.2336 7.7642 2.1118 7.9554 1.6044 8.3742 L0.3113 9.4211 C0.113 9.5922 0.0272 9.7742 0.0272 10 C0.0272 10.3282 0.2447 10.5498 0.5854 10.5498 Z M6.6135 3.4431 L19.206 3.4431 C19.7162 3.4431 20.1301 3.0271 20.1301 2.5192 C20.1301 2.007 19.7182 1.5953 19.206 1.5953 L6.6135 1.5953 C6.1034 1.5953 5.6981 2.0111 5.6981 2.5192 C5.6981 3.023 6.1054 3.4431 6.6135 3.4431 Z M2.185 4.5768 C2.5798 4.5768 2.8478 4.3639 2.8478 3.8847 L2.8478 0.7143 C2.8478 0.2715 2.5422 0 2.0973 0 C1.7319 0 1.5121 0.123 1.2472 0.2915 L0.5561 0.7732 C0.3464 0.9144 0.2419 1.0396 0.2419 1.261 C0.2419 1.5385 0.4467 1.7158 0.6864 1.7117 C0.8112 1.7096 0.8776 1.6907 1.042 1.5765 L1.4845 1.2842 L1.503 1.2842 L1.503 3.8847 C1.503 4.3639 1.7709 4.5768 2.185 4.5768 Z"/></svg>
