<svg xmlns="http://www.w3.org/2000/svg" viewBox="0 0 18.2216 18.2301" role="img" aria-label="heart.text.square.fill"><path fill="#FF6F5E" fill-rule="nonzero" d="M3.2022 18.2301 L15.0194 18.2301 C17.1331 18.2301 18.2216 17.138 18.2216 15.0554 L18.2216 3.1766 C18.2216 1.0922 17.1331 0 15.0194 0 L3.2022 0 C1.097 0 0 1.0885 0 3.1766 L0 15.0554 C0 17.1417 1.097 18.2301 3.2022 18.2301 Z M4.5639 2.7964 C5.0951 2.7964 5.4971 3.1004 5.7283 3.5253 C5.9547 3.1004 6.3653 2.7964 6.8669 2.7964 C7.6747 2.7964 8.2639 3.4149 8.2639 4.273 C8.2639 5.5908 6.8385 6.7577 5.9852 7.2714 C5.8952 7.3279 5.8055 7.3847 5.7368 7.3847 C5.6681 7.3847 5.5652 7.3367 5.475 7.2714 C4.6293 6.6944 3.1859 5.5908 3.1859 4.273 C3.1859 3.4149 3.7794 2.7964 4.5639 2.7964 Z M3.8266 11.7471 C3.4567 11.7471 3.1859 11.4659 3.1859 11.1045 C3.1859 10.7576 3.4567 10.4888 3.8266 10.4888 L13.496 10.4888 C13.8572 10.4888 14.128 10.7576 14.128 11.1045 C14.128 11.4659 13.8572 11.7471 13.496 11.7471 Z M3.8266 15.0891 C3.4567 15.0891 3.1859 14.8097 3.1859 14.4714 C3.1859 14.1102 3.4567 13.8221 3.8266 13.8221 L11.0272 13.8221 C11.3905 13.8221 11.6574 14.1102 11.6574 14.4714 C11.6574 14.8097 11.3905 15.0891 11.0272 15.0891 Z"/></svg>
