<svg xmlns="http://www.w3.org/2000/svg" viewBox="0 0 20.1737 20.1633" role="img" aria-label="gauge.with.dots.needle.67percent"><path fill="#A3D63C" fill-rule="nonzero" d="M10.0817 20.1634 C15.6526 20.1634 20.1737 15.6526 20.1737 10.0817 C20.1737 4.5107 15.6526 0 10.0817 0 C4.5211 0 0 4.5107 0 10.0817 C0 15.6526 4.5211 20.1634 10.0817 20.1634 Z M10.0817 18.1817 C5.6045 18.1817 1.9884 14.5588 1.9884 10.0817 C1.9884 5.6045 5.6045 1.9817 10.0817 1.9817 C14.5607 1.9817 18.1835 5.6045 18.1835 10.0817 C18.1835 14.5588 14.5607 18.1817 10.0817 18.1817 Z M6.2125 14.8345 C6.7146 14.8345 7.1287 14.4204 7.1287 13.9146 C7.1287 13.4125 6.7146 12.9984 6.2125 12.9984 C5.7085 12.9984 5.2925 13.4125 5.2925 13.9146 C5.2925 14.4204 5.7085 14.8345 6.2125 14.8345 Z M4.6001 10.9979 C5.1041 10.9979 5.5164 10.5857 5.5164 10.0817 C5.5164 9.5777 5.1041 9.1655 4.6001 9.1655 C4.0943 9.1655 3.6735 9.5777 3.6735 10.0817 C3.6735 10.5857 4.0943 10.9979 4.6001 10.9979 Z M6.2125 7.165 C6.7146 7.165 7.1287 6.7509 7.1287 6.2488 C7.1287 5.7429 6.7146 5.3288 6.2125 5.3288 C5.7085 5.3288 5.2925 5.7429 5.2925 6.2488 C5.2925 6.7509 5.7085 7.165 6.2125 7.165 Z M10.0731 5.5044 C10.579 5.5044 10.9998 5.0921 10.9998 4.5863 C10.9998 4.0823 10.579 3.6701 10.0731 3.6701 C9.5691 3.6701 9.1569 4.0823 9.1569 4.5863 C9.1569 5.0921 9.5691 5.5044 10.0731 5.5044 Z M15.5394 10.9979 C16.0434 10.9979 16.4642 10.5857 16.4642 10.0817 C16.4642 9.5777 16.0434 9.1655 15.5394 9.1655 C15.0354 9.1655 14.6213 9.5777 14.6213 10.0817 C14.6213 10.5857 15.0354 10.9979 15.5394 10.9979 Z M13.927 14.8345 C14.431 14.8345 14.8451 14.4204 14.8451 13.9146 C14.8451 13.4125 14.431 12.9984 13.927 12.9984 C13.4231 12.9984 13.009 13.4125 13.009 13.9146 C13.009 14.4204 13.4231 14.8345 13.927 14.8345 Z M8.5188 11.6166 C9.1813 12.2792 10.1451 12.2792 10.8075 11.6166 C10.9256 11.4987 11.1082 11.2402 11.2502 11.0315 L14.3341 6.5339 C14.5167 6.261 14.4716 6.0054 14.3028 5.828 C14.13 5.6589 13.864 5.6187 13.6015 5.7946 L9.0956 8.8787 C8.8952 9.0208 8.6321 9.21 8.5188 9.3231 C7.8581 9.9838 7.8581 10.958 8.5188 11.6166 Z"/></svg>
