<svg xmlns="http://www.w3.org/2000/svg" viewBox="0.1146 0.0084 17.5629 20.0051" role="img" aria-label="snowflake"><path fill="#32ADE6" fill-rule="nonzero" d="M0.2312 15.0027 C0.4518 15.423 0.9046 15.5384 1.3145 15.2989 L5.4996 12.889 L9.1303 10.4291 L13.0786 8.5104 L17.257 6.1007 C17.6754 5.8505 17.7948 5.412 17.5446 5.0003 C17.3154 4.5904 16.8731 4.4939 16.4717 4.7231 L12.2934 7.1329 L8.6559 9.5843 L4.6972 11.5201 L0.5292 13.9213 C0.1193 14.1714 0 14.5928 0.2312 15.0027 Z M17.3963 8.9465 C17.5934 8.5958 17.4756 8.1969 17.1187 7.9975 L14.7642 6.6241 L14.7471 3.8984 C14.7556 3.4892 14.466 3.1717 14.0669 3.1802 C13.645 3.1717 13.3505 3.4892 13.3505 3.8984 L13.3572 6.7319 C13.3658 6.9422 13.4266 7.1464 13.5402 7.3293 C13.6329 7.5106 13.7972 7.6705 13.9671 7.7775 L16.4175 9.2029 C16.7658 9.4023 17.1989 9.314 17.3963 8.9465 Z M0.3881 11.0755 C0.1908 11.4262 0.3107 11.8251 0.6657 12.0244 L3.022 13.3979 L3.0373 16.1236 C3.0287 16.5327 3.3183 16.8503 3.7193 16.8417 C4.1394 16.8503 4.4357 16.5327 4.4357 16.1236 L4.4271 13.29 C4.4186 13.0797 4.3559 12.8755 4.2461 12.6926 C4.1515 12.5113 3.989 12.3515 3.8191 12.2445 L1.3687 10.819 C1.0204 10.6197 0.5834 10.7079 0.3881 11.0755 Z M17.5617 14.9941 C17.7948 14.5948 17.6669 14.1629 17.259 13.9213 L13.0872 11.5201 L9.1388 9.5843 L5.491 7.1244 L1.3231 4.7251 C0.9132 4.4939 0.4814 4.5904 0.2416 5.0003 C0 5.4014 0.1108 5.8505 0.5272 6.0921 L4.7058 8.5018 L8.6559 10.4205 L12.2848 12.889 L16.4717 15.2968 C16.8816 15.528 17.3305 15.423 17.5617 14.9941 Z M17.3983 11.0669 C17.201 10.6994 16.7679 10.6111 16.4196 10.8105 L13.9691 12.2359 C13.7992 12.3429 13.6349 12.5028 13.5422 12.6841 C13.4287 12.867 13.3678 13.0711 13.3593 13.2815 L13.3526 16.115 C13.3526 16.5242 13.647 16.8417 14.069 16.8331 C14.4681 16.8417 14.7577 16.5242 14.7491 16.115 L14.7662 13.3893 L17.1208 12.0159 C17.4776 11.8165 17.5954 11.4176 17.3983 11.0669 Z M0.386 8.955 C0.5834 9.3226 1.0183 9.4109 1.3666 9.2115 L3.8171 7.7861 C3.987 7.679 4.1494 7.5192 4.244 7.3379 C4.3538 7.155 4.4165 6.9508 4.4251 6.7405 L4.4336 3.9069 C4.4336 3.4978 4.1373 3.1802 3.7172 3.1888 C3.3163 3.1802 3.0267 3.4978 3.0352 3.9069 L3.02 6.6326 L0.6636 8.0061 C0.3086 8.2054 0.1908 8.6043 0.386 8.955 Z M8.8845 20.0134 C9.3639 20.0219 9.6869 19.6989 9.6869 19.2092 L9.6869 14.3896 L9.3742 10.011 L9.6869 5.6323 L9.6869 0.8128 C9.6869 0.323 9.3639 0 8.8845 0.0086 C8.4223 0.0086 8.0993 0.3335 8.0993 0.8128 L8.0993 5.6238 L8.4121 10.011 L8.0993 14.3982 L8.0993 19.2092 C8.0993 19.6885 8.4223 20.0134 8.8845 20.0134 Z M12.2224 2.1157 C12.0205 1.765 11.6112 1.6751 11.2647 1.8764 L8.8931 3.2306 L6.5215 1.8764 C6.175 1.6751 5.7657 1.765 5.5601 2.1157 C5.3477 2.475 5.4778 2.8824 5.8242 3.0903 L8.2851 4.4966 C8.4721 4.595 8.685 4.6479 8.8931 4.6479 C9.0993 4.6479 9.3226 4.595 9.4993 4.4966 L11.9601 3.0903 C12.3084 2.8824 12.4367 2.475 12.2224 2.1157 Z M5.5601 17.9062 C5.7657 18.2569 6.175 18.3468 6.5215 18.1456 L8.8931 16.7913 L11.2647 18.1456 C11.6112 18.3468 12.0205 18.2569 12.2224 17.9062 C12.4367 17.547 12.3084 17.1395 11.9601 16.9316 L9.4993 15.5254 C9.3141 15.4269 9.1012 15.3741 8.8931 15.3741 C8.6869 15.3741 8.4636 15.4269 8.2851 15.5254 L5.8242 16.9316 C5.4778 17.1395 5.3477 17.547 5.5601 17.9062 Z"/></svg>
