<svg xmlns="http://www.w3.org/2000/svg" viewBox="0.0907 0 21.25 20.105" role="img" aria-label="figure.flexibility"><path fill="#00C7BE" fill-rule="nonzero" d="M6.165 4.3841 C7.3819 4.3841 8.3674 3.4004 8.3674 2.1817 C8.3674 0.9751 7.3819 0 6.165 0 C4.9651 0 3.9711 0.9751 3.9711 2.1817 C3.9711 3.4004 4.9651 4.3841 6.165 4.3841 Z M20.7882 18.1321 L14.2875 14.6253 L10.533 12.0107 C10.2624 11.8232 10.0149 11.5921 9.8026 11.336 C10.1749 11.0886 10.3249 10.6518 10.2146 10.2171 L9.4721 7.2321 C9.208 6.1486 8.2368 5.408 7.1301 5.408 L4.7776 5.408 C4.0497 5.408 3.5422 5.5829 3.0619 6.0632 L0.3888 8.7383 C0.0542 9.073 0 9.5973 0.2329 10.011 L2.0987 13.285 L2.0987 19.0576 C2.0987 19.6185 2.575 20.1033 3.1511 20.1033 C3.7312 20.1033 4.1989 19.6185 4.1989 19.0576 L4.1989 14.1372 L9.9014 14.5517 L13.3666 16.5194 L19.8066 19.9658 C20.4118 20.2968 21.0064 19.9887 21.2266 19.5521 C21.4845 19.0431 21.2912 18.4024 20.7882 18.1321 Z M2.4494 9.6637 L4.1164 7.9756 L5.4419 11.3737 L4.4076 11.9565 L3.7706 11.9565 Z"/></svg>
