<svg xmlns="http://www.w3.org/2000/svg" viewBox="0 0 19.5761 22.7924" role="img" aria-label="moon.zzz.fill"><path fill="#5E5CE6" fill-rule="nonzero" d="M14.3573 4.232 L12.1841 4.232 L12.1841 4.1822 L14.4771 1.2127 C14.6967 0.9403 14.7737 0.7641 14.7737 0.5623 C14.7737 0.2152 14.5148 0 14.155 0 L10.9717 0 C10.6245 0 10.3857 0.2173 10.3857 0.5532 C10.3857 0.9059 10.6286 1.1254 10.9717 1.1254 L13.0345 1.1254 L13.0345 1.1752 L10.724 4.132 C10.5045 4.4044 10.4274 4.5699 10.4274 4.8016 C10.4274 5.1231 10.6778 5.3619 11.0374 5.3619 L14.3573 5.3619 C14.7071 5.3619 14.95 5.1445 14.95 4.7918 C14.95 4.4559 14.7112 4.232 14.3573 4.232 Z M19.0173 8.038 L17.5409 8.038 L17.5409 7.9967 L19.1307 5.9693 C19.3246 5.7136 19.4102 5.5502 19.4102 5.3419 C19.4102 5.0141 19.1619 4.8116 18.8168 4.8116 L16.4427 4.8116 C16.1188 4.8116 15.882 5.0122 15.882 5.3331 C15.882 5.6672 16.1208 5.8613 16.4427 5.8613 L17.787 5.8613 L17.787 5.9026 L16.22 7.9156 C16.0155 8.1603 15.9323 8.3424 15.9323 8.5572 C15.9323 8.866 16.17 9.0836 16.5084 9.0836 L19.0173 9.0836 C19.3477 9.0836 19.5761 8.8915 19.5761 8.566 C19.5761 8.2471 19.3498 8.038 19.0173 8.038 Z M14.6249 11.4099 L13.3701 11.4099 L13.3701 11.3686 L14.7236 9.6215 C14.9181 9.3699 14.9949 9.2259 14.9949 9.0323 C14.9949 8.7252 14.7548 8.5393 14.4436 8.5393 L12.309 8.5393 C11.9972 8.5393 11.7858 8.7274 11.7858 9.0338 C11.7858 9.3465 12.0013 9.53 12.309 9.53 L13.4378 9.53 L13.4378 9.5713 L12.0966 11.3043 C11.909 11.5441 11.834 11.7016 11.832 11.9076 C11.8299 12.1955 12.0425 12.4071 12.3641 12.4071 L14.6249 12.4071 C14.9365 12.4071 15.1417 12.2084 15.1417 11.9043 C15.1417 11.6046 14.9406 11.4099 14.6249 11.4099 Z M8.7543 22.7923 C12.3671 22.7923 15.3572 20.6152 16.6697 17.7518 C17.0222 17.0054 16.5337 16.5586 15.8809 16.7937 C15.2253 17.0401 14.187 17.2457 13.2534 17.2457 C8.4233 17.2457 5.6581 14.4842 5.6581 9.6438 C5.6581 8.7156 5.8776 7.6463 6.1925 6.8929 C6.5024 6.1545 5.9824 5.6861 5.2557 6.0085 C2.2369 7.3248 0 10.4028 0 14.038 C0 18.8765 3.9197 22.7923 8.7543 22.7923 Z"/></svg>
