<svg xmlns="http://www.w3.org/2000/svg" viewBox="0.3806 0 22.2047 22.2085" role="img" aria-label="tag.fill"><path fill="#FF9500" fill-rule="nonzero" d="M12.1775 21.1102 L21.7413 11.5342 C22.505 10.7686 22.5853 10.3178 22.5853 9.2184 L22.5853 5.5112 C22.5853 4.4341 22.328 4.0691 21.5331 3.2827 L19.3025 1.0436 C18.5162 0.2572 18.1426 0 17.0723 0 L13.3651 0 C12.2674 0 11.8249 0.0799 11.0611 0.8437 L1.4796 10.4123 C0.0257 11.8662 0 13.4129 1.4881 14.8839 L7.7077 21.1017 C9.1959 22.5812 10.7273 22.5708 12.1775 21.1102 Z M15.3569 8.1195 C14.5629 8.1195 13.963 7.5006 13.963 6.7171 C13.963 5.9421 14.5629 5.3233 15.3569 5.3233 C16.1556 5.3233 16.7592 5.9421 16.7592 6.7171 C16.7592 7.5006 16.1556 8.1195 15.3569 8.1195 Z"/></svg>
