<svg xmlns="http://www.w3.org/2000/svg" viewBox="0 0 19.95 20.6546" role="img" aria-label="hand.thumbsup.fill"><path fill="#34C759" fill-rule="nonzero" d="M0 14.1702 C0 17.1967 1.8792 19.7006 4.3979 19.7006 L6.0914 19.7006 C4.3209 18.3504 3.5438 16.3539 3.5558 14.0768 C3.5636 11.6131 4.451 9.8292 5.3707 8.6129 L4.0253 8.6129 C1.7441 8.6129 0 11.0421 0 14.1702 Z M4.9799 14.0913 C4.9696 17.8171 7.9075 20.6463 12.579 20.6525 L13.9362 20.6546 C15.2126 20.6566 16.1955 20.5606 16.7568 20.4146 C17.6037 20.2043 18.3487 19.6828 18.3487 18.7129 C18.3487 18.3485 18.2568 18.0633 18.1381 17.849 C18.0695 17.7345 18.084 17.6423 18.1867 17.5965 C18.8315 17.306 19.3169 16.7162 19.3169 15.9271 C19.3169 15.4857 19.1962 15.086 18.9795 14.7952 C18.8836 14.6639 18.9 14.5468 19.0565 14.4527 C19.4998 14.1803 19.8166 13.6023 19.8166 12.9398 C19.8166 12.4654 19.6687 11.9719 19.4107 11.7183 C19.275 11.5907 19.3063 11.5011 19.4373 11.374 C19.7584 11.1079 19.95 10.6331 19.95 10.0648 C19.95 9.0558 19.1634 8.2316 18.1294 8.2316 L14.6068 8.2316 C13.7524 8.2316 13.2006 7.8068 13.2006 7.1147 C13.2006 5.8011 14.8743 3.3428 14.8743 1.5564 C14.8743 0.5908 14.2499 0 13.4051 0 C12.679 0 12.3005 0.4814 11.8844 1.2862 C10.3957 4.1654 8.4242 6.514 6.913 8.5208 C5.598 10.2629 4.9861 11.7532 4.9799 14.0913 Z"/></svg>
