<svg xmlns="http://www.w3.org/2000/svg" viewBox="0 0.0114 19.9407 20.6575" role="img" aria-label="hand.thumbsdown.fill"><path fill="#FF3B30" fill-rule="nonzero" d="M19.9407 6.4883 C19.9407 3.4599 18.0529 0.9683 15.5446 0.9683 L13.8512 0.9683 C15.6112 2.308 16.4415 4.3149 16.4039 6.5903 C16.3686 9.0454 15.4915 10.8293 14.5614 12.0474 L15.9154 12.0474 C18.188 12.0474 19.9407 9.6182 19.9407 6.4883 Z M15.0061 6.5672 C15.0696 2.8499 12.0443 0.0623 7.3728 0.0249 L6.0138 0.0125 C4.7373 0 3.7631 0.0978 3.195 0.2457 C2.3463 0.456 1.6031 0.986 1.6031 1.9475 C1.6031 2.3204 1.6969 2.6037 1.8137 2.818 C1.8823 2.9325 1.8678 3.0162 1.7651 3.0619 C1.1203 3.3525 0.6349 3.9526 0.6349 4.7332 C0.6349 5.1831 0.7556 5.5829 0.9723 5.8737 C1.0682 6.0049 1.0518 6.1135 0.8953 6.2076 C0.452 6.4867 0.1334 7.0647 0.1334 7.7205 C0.1334 8.2035 0.2831 8.697 0.5411 8.9506 C0.6768 9.0696 0.6541 9.1592 0.5145 9.2863 C0.1916 9.561 0 10.0339 0 10.5936 C0 11.6131 0.7884 12.4287 1.8224 12.4287 L5.345 12.4287 C6.2013 12.4287 6.7512 12.8621 6.7512 13.5457 C6.7512 14.8574 5.086 17.3243 5.086 19.1124 C5.086 20.078 5.7019 20.6689 6.5467 20.6689 C7.2728 20.6689 7.6513 20.1875 8.0674 19.3741 C9.5561 16.4949 11.5276 14.1531 13.0388 12.1395 C14.3519 10.406 14.9657 8.9157 15.0061 6.5672 Z"/></svg>
