<svg xmlns="http://www.w3.org/2000/svg" viewBox="0 0.1821 20.5186 29.2442" role="img" aria-label="rectangle.portrait.rotate"><path fill="#3E63DD" fill-rule="nonzero" d="M15.9889 4.2618 L15.9889 0.8445 C15.9889 0.1645 15.4524 0 14.9392 0.3882 L12.6401 2.0977 C12.2631 2.3667 12.2545 2.7205 12.6401 3.0066 L14.9392 4.7037 C15.4503 5.087 15.9889 4.91 15.9889 4.2618 Z M14.6255 1.9775 C14.2923 1.9775 14.0287 2.2497 14.0287 2.5762 C14.0287 2.9009 14.2923 3.1645 14.6255 3.1645 L16.2628 3.1645 C18.0443 3.1645 19.2382 4.4121 19.2382 6.2528 L19.2382 7.4197 C19.2382 7.7695 19.5401 8.0629 19.8881 8.0629 C20.2254 8.0629 20.5186 7.7695 20.5186 7.4197 L20.5186 6.2405 C20.5186 3.6896 18.7887 1.9775 16.2611 1.9775 Z M4.5297 25.3465 L4.5297 28.7638 C4.5297 29.4438 5.0662 29.6083 5.5795 29.2201 L7.887 27.5106 C8.2555 27.2416 8.2641 26.8878 7.887 26.6017 L5.5795 24.9047 C5.0683 24.5213 4.5297 24.6983 4.5297 25.3465 Z M5.8913 27.6308 C6.2264 27.6308 6.49 27.3587 6.49 27.0321 C6.49 26.7074 6.2264 26.4438 5.8913 26.4438 L4.2558 26.4438 C2.4743 26.4438 1.2804 25.1962 1.2804 23.3556 L1.2804 22.1886 C1.2804 21.8388 0.9785 21.5454 0.6287 21.5454 C0.2932 21.5454 0 21.8388 0 22.1886 L0 23.3678 C0 25.9187 1.7299 27.6308 4.2575 27.6308 Z M6.2941 22.8363 L14.2226 22.8363 C15.5585 22.8363 16.4996 21.9453 16.4996 20.6474 L16.4996 8.9713 C16.4996 7.6734 15.5585 6.7825 14.2226 6.7825 L6.2941 6.7825 C4.9583 6.7825 4.0361 7.6734 4.0361 8.9713 L4.0361 20.6474 C4.0361 21.9453 4.9583 22.8363 6.2941 22.8363 Z M6.4894 21.0821 C6.056 21.0821 5.7797 20.8206 5.7797 20.4218 L5.7797 9.1969 C5.7797 8.7896 6.056 8.5281 6.4894 8.5281 L14.0274 8.5281 C14.476 8.5281 14.756 8.7896 14.756 9.1969 L14.756 20.4218 C14.756 20.8206 14.476 21.0821 14.0274 21.0821 Z"/></svg>
