<svg xmlns="http://www.w3.org/2000/svg" viewBox="0.1394 0 14.7195 14.6988" role="img" aria-label="arrow.up.right"><path fill="#A3D63C" fill-rule="nonzero" d="M0.4807 14.3792 C0.9113 14.7973 1.5159 14.8196 1.9896 14.3607 L11.4825 4.8717 L13.4713 2.7314 C13.8837 2.2959 13.8553 1.742 13.4915 1.3703 C13.117 0.9897 12.5551 0.955 12.1135 1.3784 L9.9732 3.3538 L0.4823 12.8534 C0 13.3416 0.0515 13.9543 0.4807 14.3792 Z M12.7404 7.3181 L12.7404 10.9708 C12.7404 11.5516 13.207 12.0515 13.7968 12.0515 C14.3696 12.0515 14.8589 11.5729 14.8589 10.9387 L14.8554 1.1341 C14.8554 0.4681 14.4148 0 13.7193 0 L3.9108 0 C3.2574 0 2.8065 0.4894 2.8065 1.0689 C2.8065 1.6357 3.3 2.1026 3.8807 2.1026 L7.3623 2.1026 L12.9733 1.9021 Z"/></svg>
