<svg xmlns="http://www.w3.org/2000/svg" viewBox="0.1394 0.1266 14.7195 14.7016" role="img" aria-label="arrow.down.right"><path fill="#FF3B30" fill-rule="nonzero" d="M0.4807 0.4508 C0.0515 0.8739 0 1.4866 0.4823 1.9662 L9.9732 11.4659 L12.1135 13.4498 C12.5552 13.8751 13.117 13.8385 13.4915 13.4579 C13.8553 13.0795 13.8837 12.5323 13.4713 12.095 L11.4825 9.9565 L1.9896 0.4693 C1.5159 0 0.9113 0.0309 0.4807 0.4508 Z M12.7404 7.5034 L12.9733 12.9261 L7.3623 12.7256 L3.8807 12.7256 C3.3 12.7256 2.8065 13.1925 2.8065 13.7593 C2.8065 14.3321 3.2574 14.8282 3.9108 14.8282 L13.7193 14.8282 C14.4148 14.8282 14.8554 14.3619 14.8554 13.6856 L14.8589 3.8895 C14.8589 3.2571 14.3696 2.7681 13.7968 2.7681 C13.207 2.7681 12.7404 3.2766 12.7404 3.8574 Z"/></svg>
