<svg xmlns="http://www.w3.org/2000/svg" viewBox="0 0 13.9377 8.5724" role="img" aria-label="equal"><path fill="#FFB800" fill-rule="nonzero" d="M1.087 2.182 L12.8488 2.182 C13.4297 2.182 13.9377 1.6892 13.9377 1.0934 C13.9377 0.4909 13.4297 0 12.8488 0 L1.087 0 C0.5098 0 0 0.4909 0 1.0934 C0 1.6892 0.5098 2.182 1.087 2.182 Z M1.087 8.5724 L12.8488 8.5724 C13.4297 8.5724 13.9377 8.0815 13.9377 7.4876 C13.9377 6.8833 13.4297 6.3905 12.8488 6.3905 L1.087 6.3905 C0.5098 6.3905 0 6.8833 0 7.4876 C0 8.0815 0.5098 8.5724 1.087 8.5724 Z"/></svg>
