<svg xmlns="http://www.w3.org/2000/svg" viewBox="0.5404 0.665 36.1957 20.2248" role="img" aria-label="mountain.2.fill"><path fill="#34C759" fill-rule="nonzero" d="M7.3786 12.0972 C8.1738 12.0972 8.8781 10.9575 10.2299 10.9575 C11.5835 10.9575 12.2792 12.0972 13.0812 12.0972 C13.7414 12.0972 14.288 11.3113 15.2752 11.1043 L12.1761 7.2248 C11.6004 6.4925 10.9211 6.1369 10.2299 6.1369 C9.5442 6.1369 8.8612 6.4925 8.2855 7.2248 L5.1808 11.1099 C6.1558 11.3076 6.706 12.0972 7.3786 12.0972 Z M2.4733 19.5152 L17.9865 19.5152 C19.898 19.5152 20.4616 17.603 19.36 16.2239 L16.1191 12.168 C15.0068 12.2117 14.5999 13.2868 13.0812 13.2868 C11.6278 13.2868 11.0373 12.1367 10.2299 12.1367 C9.4243 12.1367 8.8357 13.2868 7.3786 13.2868 C5.8549 13.2868 5.4481 12.2117 4.3425 12.168 L1.0931 16.2239 C0 17.603 0.5636 19.5152 2.4733 19.5152 Z M12.4372 20.8897 L33.3789 20.8897 C36.4816 20.8897 37.6564 17.6617 35.9543 15.4366 L25.9455 2.3045 C24.1902 0 21.43 0.239 19.8581 2.3086 L9.8514 15.4452 C8.1576 17.6558 9.3164 20.8897 12.4372 20.8897 Z M19.5958 9.6392 C20.5114 9.6392 21.3471 8.303 22.9038 8.303 C24.4896 8.303 25.2982 9.6392 26.2203 9.6392 C26.9925 9.6392 27.7443 8.6447 28.8711 8.401 L24.8539 3.1385 C23.7475 1.6827 22.0751 1.6697 20.9516 3.1426 L16.9365 8.401 C18.0592 8.6514 18.8215 9.6392 19.5958 9.6392 Z M12.4372 19.5152 L33.3789 19.5152 C35.3542 19.5152 35.8645 17.5819 34.873 16.2773 L29.8388 9.6991 C28.4805 9.7847 27.8875 10.999 26.2203 10.999 C24.488 10.999 23.797 9.6714 22.9038 9.6714 C22.021 9.6714 21.33 10.999 19.5958 10.999 C17.9286 10.999 17.3253 9.7847 15.9687 9.6991 L10.9431 16.2773 C9.9412 17.5819 10.4515 19.5152 12.4372 19.5152 Z"/></svg>
