<svg xmlns="http://www.w3.org/2000/svg" viewBox="0.3228 0.324 22.3198 22.3311" role="img" aria-label="checkmark.seal.fill"><path fill="#A3D63C" fill-rule="nonzero" d="M5.5814 20.0368 L7.6764 20.0368 C7.8623 20.0368 7.9946 20.0843 8.1329 20.2226 L9.622 21.6994 C10.8882 22.9779 12.0858 22.9694 13.3539 21.6994 L14.8344 20.2226 C14.9727 20.0843 15.1118 20.0368 15.2977 20.0368 L17.3842 20.0368 C19.1762 20.0368 20.0329 19.1933 20.0329 17.388 L20.0329 15.3015 C20.0329 15.1157 20.0844 14.9813 20.2188 14.8365 L21.687 13.3578 C22.9655 12.0897 22.957 10.8921 21.687 9.624 L20.2188 8.1454 C20.0823 7.9985 20.0329 7.8662 20.0329 7.6803 L20.0329 5.5938 C20.0329 3.7951 19.1827 2.9451 17.3842 2.9451 L15.2977 2.9451 C15.1118 2.9451 14.9707 2.8954 14.8344 2.7592 L13.3539 1.2824 C12.0734 0 10.8882 0.0085 9.6201 1.2845 L8.1329 2.7592 C7.9985 2.8936 7.8623 2.9451 7.6764 2.9451 L5.5814 2.9451 C3.7826 2.9451 2.943 3.7845 2.943 5.5938 L2.943 7.6803 C2.943 7.8662 2.8916 8.0006 2.7572 8.1454 L1.2785 9.624 C0 10.8921 0.0086 12.0897 1.2785 13.3578 L2.7572 14.8365 C2.8916 14.9813 2.943 15.1157 2.943 15.3015 L2.943 17.388 C2.943 19.1868 3.7847 20.0368 5.5814 20.0368 Z M10.3953 16.3054 C10.0297 16.3054 9.7327 16.1501 9.4548 15.7937 L7.0579 12.8815 C6.8878 12.6654 6.7956 12.4361 6.7956 12.1924 C6.7956 11.6881 7.1919 11.2865 7.6905 11.2865 C7.993 11.2865 8.2372 11.3932 8.4838 11.7142 L10.3678 14.1003 L14.4071 7.6483 C14.6108 7.3056 14.8861 7.1295 15.1926 7.1295 C15.6826 7.1295 16.1258 7.4707 16.1258 7.9864 C16.1258 8.212 16.0138 8.456 15.8686 8.6688 L11.2974 15.7876 C11.079 16.1291 10.7635 16.3054 10.3953 16.3054 Z"/></svg>
