<svg xmlns="http://www.w3.org/2000/svg" viewBox="0 0 3.1963 18.6022" role="img" aria-label="exclamationmark"><path fill="#FF9500" fill-rule="nonzero" d="M1.612 13.0776 C2.2824 13.0776 2.6959 12.6645 2.7127 11.9671 L2.8329 1.3332 C2.8349 1.2901 2.837 1.2428 2.837 1.2079 C2.837 0.4682 2.311 0 1.6055 0 C0.9001 0 0.3699 0.4682 0.3699 1.2079 C0.3699 1.2428 0.372 1.2901 0.3741 1.3332 L0.5028 11.9671 C0.5196 12.6645 0.9378 13.0776 1.612 13.0776 Z M1.6035 18.6022 C2.484 18.6022 3.1963 17.8892 3.1963 17.0254 C3.1963 16.1466 2.484 15.4526 1.6035 15.4526 C0.7169 15.4526 0 16.1466 0 17.0254 C0 17.8892 0.7169 18.6022 1.6035 18.6022 Z"/></svg>
