<svg xmlns="http://www.w3.org/2000/svg" viewBox="0 0 29.3493 13.6601" role="img" aria-label="battery.25percent"><path fill="#FF3B30" fill-rule="nonzero" d="M5.3578 13.6601 L20.672 13.6601 C22.4486 13.6601 23.8347 13.4634 24.8435 12.465 C25.8419 11.4562 26.0261 10.0781 26.0261 8.3041 L26.0261 5.3578 C26.0261 3.582 25.8419 2.2 24.8435 1.2037 C23.8326 0.1967 22.4486 0 20.672 0 L5.3393 0 C3.5916 0 2.1933 0.1985 1.1863 1.2055 C0.1861 2.2058 0 3.5857 0 5.3393 L0 8.3041 C0 10.0781 0.1842 11.4601 1.1845 12.465 C2.1954 13.4634 3.5794 13.6601 5.3578 13.6601 Z M5.0874 11.7506 C4.0791 11.7506 3.1277 11.6062 2.5835 11.0641 C2.0413 10.522 1.9114 9.5868 1.9114 8.5746 L1.9114 5.1126 C1.9114 4.0789 2.0433 3.1487 2.5817 2.596 C3.1238 2.05 4.0828 1.9199 5.1126 1.9199 L20.9424 1.9199 C21.9507 1.9199 22.8984 2.0558 23.4426 2.5979 C23.9867 3.1485 24.1166 4.0752 24.1166 5.096 L24.1166 8.5746 C24.1166 9.5868 23.9828 10.52 23.4426 11.0641 C22.9005 11.6101 21.9507 11.7506 20.9424 11.7506 Z M27.4539 9.4807 C28.2602 9.4306 29.3493 8.3934 29.3493 6.831 C29.3493 5.2686 28.2602 4.2313 27.4539 4.1813 Z M4.7054 10.5181 L6.7003 10.5181 C7.3147 10.5181 7.6706 10.429 7.9226 10.177 C8.1746 9.925 8.2637 9.5654 8.2637 8.9632 L8.2637 4.6969 C8.2637 4.0928 8.1746 3.7369 7.9244 3.4831 C7.6706 3.2348 7.3092 3.1506 6.7003 3.1506 L4.7221 3.1506 C4.1032 3.1506 3.7314 3.233 3.4898 3.4831 C3.2397 3.7351 3.142 4.0965 3.142 4.7239 L3.142 8.9632 C3.142 9.5691 3.2397 9.925 3.4898 10.177 C3.7436 10.4271 4.1051 10.5181 4.7054 10.5181 Z"/></svg>
