<svg xmlns="http://www.w3.org/2000/svg" viewBox="0.1925 0 22.0198 20.1633" role="img" aria-label="clock.arrow.trianglehead.counterclockwise.rotate.90"><path fill="#32ADE6" fill-rule="nonzero" d="M0.9126 8.1162 C0.1818 8.1162 0 8.6631 0.4002 9.2146 L2.6666 12.3672 C2.9793 12.8014 3.4702 12.8014 3.7764 12.3672 L6.0407 9.2079 C6.4304 8.6631 6.2507 8.1162 5.5305 8.1162 Z M22.2122 10.0817 C22.2122 4.5107 17.689 0 12.1202 0 C6.5596 0 2.047 4.5022 2.0385 10.0962 C2.047 10.6373 2.4919 11.0785 3.0293 11.0785 C3.5734 11.0785 4.0268 10.6288 4.0268 10.0876 C4.0268 5.6045 7.643 1.9817 12.1202 1.9817 C16.5991 1.9817 20.222 5.6045 20.222 10.0817 C20.222 14.5588 16.5991 18.1817 12.1202 18.1817 C9.4967 18.1817 7.2063 16.933 5.739 15.0098 C5.3428 14.5516 4.772 14.409 4.2996 14.7505 C3.856 15.0669 3.7522 15.7246 4.1866 16.2323 C6.0406 18.648 8.9136 20.1634 12.1202 20.1634 C17.689 20.1634 22.2122 15.6526 22.2122 10.0817 Z M12.1202 4.4105 C11.6669 4.4105 11.2952 4.7822 11.2952 5.244 L11.2952 10.6753 C11.2952 10.9121 11.3702 11.1132 11.5336 11.3419 L13.8641 14.4078 C14.2123 14.8628 14.7046 14.937 15.1256 14.6454 C15.5127 14.3808 15.5519 13.8724 15.2289 13.4445 L11.9695 9.0213 L12.9536 12.0535 L12.9536 5.244 C12.9536 4.7822 12.582 4.4105 12.1202 4.4105 Z"/></svg>
