<svg xmlns="http://www.w3.org/2000/svg" viewBox="0 0 23.0831 19.4164" role="img" aria-label="cross.case.fill"><path fill="#FF6F5E" fill-rule="nonzero" d="M3.1558 19.4164 L19.9187 19.4164 C22.0157 19.4164 23.0831 18.3698 23.0831 16.2967 L23.0831 6.7377 C23.0831 4.6646 22.0157 3.6179 19.9187 3.6179 L3.1558 3.6179 C1.076 3.6179 0 4.6646 0 6.7377 L0 16.2967 C0 18.3698 1.076 19.4164 3.1558 19.4164 Z M6.4302 4.4148 L8.1957 4.4148 L8.1957 2.7241 C8.1957 2.0273 8.6035 1.6335 9.3133 1.6335 L13.7576 1.6335 C14.4778 1.6335 14.8789 2.0293 14.8789 2.7241 L14.8789 4.3977 L16.6529 4.3977 L16.6529 2.7296 C16.6529 0.8783 15.6513 0 13.8128 0 L9.2539 0 C7.5048 0 6.4302 0.8783 6.4302 2.7296 Z M6.8739 12.3263 L6.8739 10.6882 C6.8739 10.1253 7.2581 9.7345 7.8275 9.7345 L9.7649 9.7345 L9.7649 7.8142 C9.7649 7.2323 10.1471 6.8501 10.7225 6.8501 L12.3521 6.8501 C12.9235 6.8501 13.3078 7.2323 13.3078 7.8142 L13.3078 9.7345 L15.2432 9.7345 C15.8146 9.7345 16.2007 10.1253 16.2007 10.6882 L16.2007 12.3263 C16.2007 12.8892 15.8146 13.2839 15.2432 13.2839 L13.3078 13.2839 L13.3078 15.2107 C13.3078 15.7927 12.9235 16.1729 12.3521 16.1729 L10.7225 16.1729 C10.1471 16.1729 9.7649 15.7927 9.7649 15.2107 L9.7649 13.2839 L7.8296 13.2839 C7.2667 13.2839 6.8739 12.8892 6.8739 12.3263 Z"/></svg>
