<svg xmlns="http://www.w3.org/2000/svg" viewBox="0 0 17.6435 22.34" role="img" aria-label="square.and.arrow.up.fill"><path fill="#32ADE6" fill-rule="nonzero" d="M5.4678 4.7556 C5.0242 4.7556 4.6696 4.4324 4.6696 3.9828 C4.6696 3.7389 4.7577 3.5685 4.926 3.3984 L8.1343 0.3105 C8.3721 0.0815 8.5816 0 8.8166 0 C9.0601 0 9.2696 0.0815 9.5007 0.3105 L12.7139 3.3984 C12.8754 3.5685 12.9721 3.7389 12.9721 3.9828 C12.9721 4.4324 12.6053 4.7556 12.1654 4.7556 C11.9365 4.7556 11.7159 4.6634 11.5562 4.4931 L10.1629 3.0041 L8.8166 1.3825 L7.4769 3.0041 L6.0769 4.4931 C5.9257 4.6634 5.6862 4.7556 5.4678 4.7556 Z M8.8166 14.4772 C8.3254 14.4772 7.9156 14.0678 7.9156 13.5936 L7.9156 3.8317 L8.0797 1.0339 C8.109 0.6243 8.4156 0.2885 8.8166 0.2885 C9.2261 0.2885 9.5346 0.6243 9.562 1.0339 L9.7279 3.8317 L9.7279 13.5936 C9.7279 14.0678 9.3163 14.4772 8.8166 14.4772 Z M4.189 22.3399 L13.4527 22.3399 C16.1405 22.3399 17.6435 20.8351 17.6435 18.149 L17.6435 10.6222 C17.6435 7.9362 16.1405 6.4436 13.4527 6.4436 L4.189 6.4436 C1.503 6.4436 0 7.9362 0 10.6222 L0 18.149 C0 20.8351 1.503 22.3399 4.189 22.3399 Z"/></svg>
