<svg xmlns="http://www.w3.org/2000/svg" viewBox="0.1904 0.195 21.6727 21.6635" role="img" aria-label="bell.slash.fill"><path fill="#5E5CE6" fill-rule="nonzero" d="M2.9259 17.4224 L18.5132 17.4224 C19.5147 17.4224 20.1278 16.8732 20.1278 16.0597 C20.1278 15.0326 19.1843 14.1443 18.3061 13.3071 C17.6264 12.6415 17.4585 11.2422 17.3441 9.9654 C17.1988 6.3725 16.1521 3.8341 13.6207 2.9179 C13.2184 1.6369 12.1659 0.6495 10.7196 0.6495 C9.275 0.6495 8.2207 1.6369 7.8184 2.9179 C5.287 3.8341 4.2403 6.3725 4.095 9.9654 C3.9787 11.2422 3.8212 12.6415 3.133 13.3071 C2.2634 14.1443 1.3113 15.0326 1.3113 16.0597 C1.3113 16.8732 1.9244 17.4224 2.9259 17.4224 Z M10.7196 21.4312 C12.4454 21.4312 13.7044 20.2018 13.8265 18.7762 L7.6108 18.7762 C7.7433 20.2018 8.9937 21.4312 10.7196 21.4312 Z M0.7607 3.5695 L18.4936 21.2812 C19.2755 22.0544 20.5437 22.0544 21.3005 21.26 C22.0483 20.4909 22.0566 19.2583 21.2899 18.4849 L3.5695 0.7732 C2.7982 0.0056 1.548 0.0001 0.7626 0.7695 C0 1.5321 0 2.8107 0.7607 3.5695 Z M1.6157 2.7249 L19.3382 20.4262 C19.6452 20.7332 20.1421 20.7332 20.4367 20.4262 C20.7313 20.121 20.7419 19.6347 20.4367 19.3313 L2.723 1.6264 C2.4197 1.3249 1.9228 1.3212 1.6157 1.6264 C1.3211 1.921 1.3211 2.4303 1.6157 2.7249 Z"/></svg>
