<svg xmlns="http://www.w3.org/2000/svg" viewBox="0 0 25.1215 16.8902" role="img" aria-label="bed.double.fill"><path fill="#5E5CE6" fill-rule="nonzero" d="M0 16.0279 C0 16.5469 0.337 16.8902 0.8607 16.8902 L1.4646 16.8902 C1.9798 16.8902 2.3186 16.5469 2.3186 16.0279 L2.3186 14.6171 C2.4319 14.6508 2.7753 14.672 3.0212 14.672 L22.1022 14.672 C22.3481 14.672 22.6878 14.6508 22.8048 14.6171 L22.8048 16.0279 C22.8048 16.5469 23.1418 16.8902 23.6569 16.8902 L24.259 16.8902 C24.7845 16.8902 25.1215 16.5469 25.1215 16.0279 L25.1215 10.1004 C25.1215 8.1643 24.0558 7.1096 22.1041 7.1096 L3.0175 7.1096 C1.0657 7.1096 0 8.1643 0 10.1004 Z M2.3997 5.6143 L4.9521 5.6143 L4.9521 4.2609 C4.9521 3.3257 5.4714 2.8151 6.4239 2.8151 L10.0334 2.8151 C10.9945 2.8151 11.5053 3.3257 11.5053 4.2609 L11.5053 5.6143 L13.7073 5.6143 L13.7073 4.2609 C13.7073 3.3257 14.2285 2.8151 15.2247 2.8151 L18.6539 2.8151 C19.6501 2.8151 20.1713 3.3257 20.1713 4.2609 L20.1713 5.6143 L22.7219 5.6143 L22.7219 2.8162 C22.7219 0.9622 21.7255 0 19.9118 0 L5.2079 0 C3.3961 0 2.3997 0.9622 2.3997 2.8162 Z"/></svg>
