<svg xmlns="http://www.w3.org/2000/svg" viewBox="0 0 23.202 17.0451" role="img" aria-label="tray.full.fill"><path fill="#30B0C7" fill-rule="nonzero" d="M7.5246 3.837 L15.6774 3.837 C15.9522 3.837 16.1511 3.6293 16.1511 3.3545 C16.1511 3.0931 15.9522 2.8787 15.6774 2.8787 L7.5246 2.8787 C7.2565 2.8787 7.049 3.0931 7.049 3.3545 C7.049 3.6293 7.2565 3.837 7.5246 3.837 Z M6.2528 6.0307 L16.9491 6.0307 C17.2346 6.0307 17.4443 5.8125 17.4443 5.5377 C17.4443 5.2675 17.2346 5.028 16.9491 5.028 L6.2528 5.028 C5.976 5.028 5.7577 5.2675 5.7577 5.5377 C5.7577 5.8125 5.976 6.0307 6.2528 6.0307 Z M3.2022 17.0451 L19.9998 17.0451 C22.1135 17.0451 23.202 15.9548 23.202 13.8704 L23.202 8.4306 C23.202 7.3627 23.0594 6.8857 22.5621 6.2457 L19.2156 1.844 C18.1308 0.4122 17.463 0 15.8064 0 L7.3956 0 C5.7476 0 5.0692 0.4142 3.9823 1.8481 L0.6503 6.2457 C0.1511 6.8857 0 7.3627 0 8.4306 L0 13.8704 C0 15.9567 1.097 17.0451 3.2022 17.0451 Z M11.6053 11.1652 C10.1284 11.1652 9.1565 9.909 9.1565 8.6662 L9.1565 8.5842 C9.1565 8.1419 8.89 7.7193 8.3292 7.7193 L2.3617 7.7193 C2.0458 7.7193 1.9786 7.4542 2.1344 7.2335 L5.7461 2.3977 C6.1656 1.8251 6.6828 1.6079 7.3472 1.6079 L15.8302 1.6079 C16.4945 1.6079 17.0222 1.8251 17.4397 2.3977 L21.0098 7.1883 C21.1774 7.4274 21.1149 7.7193 20.766 7.7193 L14.8728 7.7193 C14.3205 7.7193 14.054 8.1419 14.054 8.5842 L14.054 8.6662 C14.054 9.909 13.0735 11.1652 11.6053 11.1652 Z"/></svg>
