<svg xmlns="http://www.w3.org/2000/svg" viewBox="0 0 25.2783 18.3791" role="img" aria-label="chart.bar.fill"><path fill="#3E63DD" fill-rule="nonzero" d="M20.2639 18.3791 L23.0441 18.3791 C24.499 18.3791 25.2783 17.6191 25.2783 16.2309 L25.2783 2.1416 C25.2783 0.7533 24.499 0 23.0441 0 L20.2639 0 C18.8175 0 18.0401 0.7533 18.0401 2.1436 L18.0401 16.2309 C18.0401 17.6191 18.8175 18.3791 20.2639 18.3791 Z M11.2472 18.3791 L14.0292 18.3791 C15.4842 18.3791 16.2634 17.6191 16.2634 16.2309 L16.2634 4.994 C16.2634 3.6039 15.4842 2.8506 14.0292 2.8506 L11.2472 2.8506 C9.8027 2.8506 9.0149 3.6039 9.0149 4.9961 L9.0149 16.2309 C9.0149 17.6191 9.8027 18.3791 11.2472 18.3791 Z M2.2238 18.3791 L5.0058 18.3791 C6.4608 18.3791 7.2382 17.6191 7.2382 16.2309 L7.2382 7.8373 C7.2382 6.4508 6.4608 5.6976 5.0058 5.6976 L2.2238 5.6976 C0.7793 5.6976 0 6.4508 0 7.8393 L0 16.2309 C0 17.6191 0.7793 18.3791 2.2238 18.3791 Z"/></svg>
