<svg xmlns="http://www.w3.org/2000/svg" viewBox="0 0 21.354 18.4971" role="img" aria-label="chart.line.uptrend.xyaxis"><path fill="#0A84FF" fill-rule="nonzero" d="M6.1916 5.8385 C5.7071 5.8385 5.2583 6.0328 4.7911 6.5212 L0.4968 10.8925 C0.1287 11.2606 0.1266 11.872 0.4968 12.2442 C0.8667 12.6037 1.4824 12.6205 1.8524 12.2442 L5.9318 8.0507 C6.0181 7.9604 6.1069 7.9184 6.1896 7.9184 C6.2741 7.9184 6.3629 7.9584 6.4513 8.0507 L9.9331 11.6531 C10.3838 12.1205 10.8491 12.336 11.3357 12.336 C11.8307 12.336 12.2804 12.1129 12.74 11.6552 L17.7478 6.6114 C18.114 6.2452 18.1161 5.6319 17.7478 5.2683 C17.3797 4.9002 16.7621 4.8835 16.3959 5.2683 L11.5975 10.1278 C11.5234 10.2125 11.4223 10.2561 11.3378 10.2561 C11.2637 10.2561 11.1682 10.2162 11.0779 10.1257 L7.5961 6.5212 C7.1436 6.0519 6.6801 5.8385 6.1916 5.8385 Z M14.2884 3.5962 C13.703 3.7601 13.4526 4.3173 13.8721 4.7368 L18.2837 9.1629 C18.703 9.5804 19.2729 9.332 19.4263 8.7486 L20.8932 2.9946 C21.0379 2.4586 20.5575 1.9991 20.0214 2.142 Z M0 17.6619 C0 18.1662 0.3309 18.4971 0.8334 18.4971 L20.391 18.4971 C20.9283 18.4971 21.354 18.0893 21.354 17.5424 C21.354 17.004 20.9283 16.5876 20.391 16.5876 L2.1886 16.5876 C1.9865 16.5876 1.9114 16.5228 1.9114 16.3171 L1.9114 0.9667 C1.9114 0.4361 1.5054 0 0.9585 0 C0.4164 0 0 0.4361 0 0.9667 Z"/></svg>
