<svg xmlns="http://www.w3.org/2000/svg" viewBox="0 0 21.354 18.4971" role="img" aria-label="chart.line.flattrend.xyaxis"><path fill="#32ADE6" fill-rule="nonzero" d="M1.2575 9.4251 L16.0212 9.4251 C16.5446 9.4251 16.9709 8.9902 16.9709 8.4668 C16.9709 7.9416 16.5446 7.5085 16.0212 7.5085 L1.2575 7.5085 C0.7342 7.5085 0.3011 7.9416 0.3011 8.4668 C0.3011 8.9902 0.7342 9.4251 1.2575 9.4251 Z M14.2671 5.3419 L14.2671 11.6023 C14.2671 12.2004 14.8459 12.4202 15.3749 12.1098 L20.4556 9.0791 C20.942 8.7899 20.9269 8.1377 20.4471 7.8571 L15.3624 4.8305 C14.8374 4.522 14.2671 4.7545 14.2671 5.3419 Z M0 17.6619 C0 18.1662 0.3309 18.4971 0.8334 18.4971 L20.391 18.4971 C20.9283 18.4971 21.354 18.0893 21.354 17.5424 C21.354 17.004 20.9283 16.5876 20.391 16.5876 L2.1886 16.5876 C1.9865 16.5876 1.9114 16.5228 1.9114 16.3171 L1.9114 0.9667 C1.9114 0.4361 1.5054 0 0.9585 0 C0.4164 0 0 0.4361 0 0.9667 Z"/></svg>
