<svg xmlns="http://www.w3.org/2000/svg" viewBox="0 0 22.2805 18.2671" role="img" aria-label="chart.bar.xaxis"><path fill="#FF375F" fill-rule="nonzero" d="M0 17.3245 C0 17.8673 0.4281 18.2671 0.9545 18.2671 L21.3278 18.2671 C21.8542 18.2671 22.2805 17.8673 22.2805 17.3245 C22.2805 16.7902 21.8542 16.3819 21.3278 16.3819 L0.9545 16.3819 C0.4281 16.3819 0 16.7902 0 17.3245 Z M17.0612 13.7856 C17.0612 14.3837 17.4358 14.75 18.0524 14.75 L20.2281 14.75 C20.8306 14.75 21.2089 14.3837 21.2089 13.7856 L21.2089 7.48 C21.2089 6.8903 20.8306 6.5137 20.2281 6.5137 L18.0524 6.5137 C17.4358 6.5137 17.0612 6.8903 17.0612 7.48 Z M11.7307 13.7856 C11.7307 14.3837 12.103 14.75 12.718 14.75 L14.889 14.75 C15.502 14.75 15.8784 14.3837 15.8784 13.7856 L15.8784 3.2458 C15.8784 2.6457 15.502 2.2795 14.889 2.2795 L12.718 2.2795 C12.103 2.2795 11.7307 2.6457 11.7307 3.2458 Z M6.4002 13.7856 C6.4002 14.3837 6.7767 14.75 7.3849 14.75 L9.5585 14.75 C10.1735 14.75 10.5479 14.3837 10.5479 13.7856 L10.5479 0.956 C10.5479 0.3577 10.1735 0 9.5585 0 L7.3849 0 C6.7767 0 6.4002 0.3577 6.4002 0.956 Z M1.0715 13.7856 C1.0715 14.3837 1.448 14.75 2.0542 14.75 L4.2299 14.75 C4.841 14.75 5.2193 14.3837 5.2193 13.7856 L5.2193 5.393 C5.2193 4.8014 4.841 4.4352 4.2299 4.4352 L2.0542 4.4352 C1.448 4.4352 1.0715 4.8014 1.0715 5.393 Z"/></svg>
