<svg xmlns="http://www.w3.org/2000/svg" viewBox="0 0 19.8533 19.4521" role="img" aria-label="square.grid.3x3.fill"><path fill="#FF2D9A" fill-rule="nonzero" d="M15.8702 19.4521 L18.0904 19.4521 C19.1937 19.4521 19.8533 18.793 19.8533 17.6468 L19.8533 15.5133 C19.8533 14.3671 19.1937 13.7062 18.0904 13.7062 L15.8702 13.7062 C14.7651 13.7062 14.0988 14.3671 14.0988 15.5133 L14.0988 17.6468 C14.0988 18.793 14.7651 19.4521 15.8702 19.4521 Z M8.8146 19.4521 L11.0348 19.4521 C12.1466 19.4521 12.7977 18.793 12.7977 17.6468 L12.7977 15.5133 C12.7977 14.3671 12.1466 13.7062 11.0348 13.7062 L8.8146 13.7062 C7.7028 13.7062 7.0517 14.3671 7.0517 15.5133 L7.0517 17.6468 C7.0517 18.793 7.7028 19.4521 8.8146 19.4521 Z M1.7714 19.4521 L3.9831 19.4521 C5.0949 19.4521 5.7545 18.793 5.7545 17.6468 L5.7545 15.5133 C5.7545 14.3671 5.0949 13.7062 3.9831 13.7062 L1.7714 13.7062 C0.6596 13.7062 0 14.3671 0 15.5133 L0 17.6468 C0 18.793 0.6596 19.4521 1.7714 19.4521 Z M15.8702 12.6 L18.0904 12.6 C19.1937 12.6 19.8533 11.9475 19.8533 10.8032 L19.8533 8.6593 C19.8533 7.5131 19.1937 6.854 18.0904 6.854 L15.8702 6.854 C14.7651 6.854 14.0988 7.5131 14.0988 8.6593 L14.0988 10.8032 C14.0988 11.9475 14.7651 12.6 15.8702 12.6 Z M8.8146 12.6 L11.0348 12.6 C12.1466 12.6 12.7977 11.9475 12.7977 10.8032 L12.7977 8.6593 C12.7977 7.5131 12.1466 6.854 11.0348 6.854 L8.8146 6.854 C7.7028 6.854 7.0517 7.5131 7.0517 8.6593 L7.0517 10.8032 C7.0517 11.9475 7.7028 12.6 8.8146 12.6 Z M1.7714 12.6 L3.9831 12.6 C5.0949 12.6 5.7545 11.9475 5.7545 10.8032 L5.7545 8.6593 C5.7545 7.5131 5.0949 6.854 3.9831 6.854 L1.7714 6.854 C0.6596 6.854 0 7.5131 0 8.6593 L0 10.8032 C0 11.9475 0.6596 12.6 1.7714 12.6 Z M15.8702 5.7545 L18.0904 5.7545 C19.1937 5.7545 19.8533 5.0868 19.8533 3.9406 L19.8533 1.8157 C19.8533 0.6677 19.1937 0 18.0904 0 L15.8702 0 C14.7651 0 14.0988 0.6677 14.0988 1.8157 L14.0988 3.9406 C14.0988 5.0868 14.7651 5.7545 15.8702 5.7545 Z M8.8146 5.7545 L11.0348 5.7545 C12.1466 5.7545 12.7977 5.0868 12.7977 3.9406 L12.7977 1.8157 C12.7977 0.6677 12.1466 0 11.0348 0 L8.8146 0 C7.7028 0 7.0517 0.6677 7.0517 1.8157 L7.0517 3.9406 C7.0517 5.0868 7.7028 5.7545 8.8146 5.7545 Z M1.7714 5.7545 L3.9831 5.7545 C5.0949 5.7545 5.7545 5.0868 5.7545 3.9406 L5.7545 1.8157 C5.7545 0.6677 5.0949 0 3.9831 0 L1.7714 0 C0.6596 0 0 0.6677 0 1.8157 L0 3.9406 C0 5.0868 0.6596 5.7545 1.7714 5.7545 Z"/></svg>
