<svg xmlns="http://www.w3.org/2000/svg" viewBox="0 0 14.6216 21.4469" role="img" aria-label="applewatch"><path fill="#FF3B30" fill-rule="nonzero" d="M0 14.7621 C0 16.2829 0.5818 17.3956 1.7064 18.0412 C2.2587 18.3495 2.5793 18.726 2.7918 19.3563 L3.1619 20.4976 C3.3685 21.1339 3.8382 21.4469 4.5225 21.4469 L9.0919 21.4469 C9.7971 21.4469 10.2411 21.1425 10.4525 20.4976 L10.8331 19.3563 C11.0351 18.726 11.3643 18.3495 11.906 18.0412 C13.0306 17.3956 13.6144 16.285 13.6144 14.7621 L13.6144 6.6848 C13.6144 5.1619 13.0306 4.0494 11.906 3.4057 C11.3643 3.0974 11.0351 2.721 10.8331 2.0888 L10.4525 0.9493 C10.2582 0.3215 9.7885 0 9.0919 0 L4.5225 0 C3.8382 0 3.3685 0.313 3.1619 0.9493 L2.7918 2.0888 C2.5817 2.7186 2.259 3.1142 1.7064 3.4057 C0.5904 4.0238 0 5.145 0 6.6848 Z M1.6991 14.4537 L1.6991 6.9951 C1.6991 5.5646 2.5245 4.714 3.9105 4.714 L9.7076 4.714 C11.1022 4.714 11.9193 5.5666 11.9193 6.9951 L11.9193 14.4537 C11.9193 15.8803 11.1022 16.7308 9.7076 16.7308 L3.9105 16.7308 C2.5245 16.7308 1.6991 15.8823 1.6991 14.4537 Z M13.298 10.0702 L13.705 10.0702 C14.251 10.0702 14.6216 9.687 14.6216 9.0949 L14.6216 7.7511 C14.6216 7.1546 14.251 6.7694 13.705 6.7694 L13.298 6.7694 Z"/></svg>
