<svg xmlns="http://www.w3.org/2000/svg" viewBox="0 0.0989 12.1801 19.82" role="img" aria-label="music.note"><path fill="#FF375F" fill-rule="nonzero" d="M12.1801 4.6245 L12.1801 0.9675 C12.1801 0.3883 11.7049 0 11.1335 0.121 L6.1096 1.2145 C5.4303 1.363 5.0665 1.7321 5.0665 2.3293 L5.0739 13.1518 C5.1185 13.5856 4.9147 13.8576 4.5349 13.9299 L2.9707 14.256 C0.9668 14.6784 0 15.7113 0 17.2653 C0 18.8323 1.1951 19.9189 2.8888 19.9189 C4.4943 19.9189 6.5933 18.7234 6.5933 15.9309 L6.5933 6.9873 C6.5933 6.5384 6.6834 6.4433 7.0819 6.3629 L11.5731 5.369 C11.9381 5.2879 12.1801 5.0019 12.1801 4.6245 Z"/></svg>
