<svg xmlns="http://www.w3.org/2000/svg" viewBox="0.002 0.1225 28.2225 18.7865" role="img" aria-label="chevron.left.forwardslash.chevron.right"><path fill="#AF52DE" fill-rule="nonzero" d="M11.4011 18.8648 C12.0516 19.0367 12.6452 18.6966 12.8381 18.0399 L17.65 1.5639 C17.8259 0.9499 17.5202 0.3524 16.8715 0.1719 C16.2295 0 15.6635 0.2765 15.4515 1.0054 L10.6635 17.4026 C10.4724 18.0611 10.723 18.6843 11.4011 18.8648 Z M0.0021 9.5021 C0 9.8338 0.1508 10.1737 0.4345 10.4253 L6.7432 16.1288 C7.2681 16.5886 7.9579 16.5784 8.3898 16.0958 C8.8285 15.6007 8.7717 14.9044 8.2744 14.4596 L2.8078 9.5021 L8.2744 4.5447 C8.7717 4.0999 8.8285 3.4035 8.3898 2.9085 C7.9579 2.4259 7.2681 2.4156 6.7432 2.8754 L0.4345 8.5789 C0.1508 8.8305 0 9.1704 0.0021 9.5021 Z M28.2245 9.5021 C28.2265 9.1704 28.0861 8.8305 27.8006 8.5789 L21.4851 2.8754 C20.9585 2.4156 20.2772 2.4259 19.8385 2.9085 C19.3999 3.4035 19.4548 4.0999 19.954 4.5447 L25.4291 9.5021 L19.954 14.4596 C19.4548 14.9044 19.3999 15.6007 19.8385 16.0958 C20.2772 16.5784 20.9585 16.5886 21.4851 16.1288 L27.8006 10.4253 C28.0861 10.1737 28.2265 9.8338 28.2245 9.5021 Z"/></svg>
