<svg xmlns="http://www.w3.org/2000/svg" viewBox="0 0 28.1318 19.0747" role="img" aria-label="person.2.fill"><path fill="#30B0C7" fill-rule="nonzero" d="M7.1835 8.7881 C9.0412 8.7881 10.6145 7.1363 10.6145 5.0108 C10.6145 2.9221 9.0334 1.3317 7.1835 1.3317 C5.3421 1.3317 3.7544 2.9499 3.7544 5.0279 C3.7544 7.1363 5.3324 8.7881 7.1835 8.7881 Z M1.8053 17.6509 L12.5609 17.6509 C13.8778 17.6509 14.3662 17.1039 14.3662 16.1427 C14.3662 13.4893 11.5473 10.2732 7.1798 10.2732 C2.8189 10.2732 0 13.4893 0 16.1427 C0 17.1039 0.4884 17.6509 1.8053 17.6509 Z M12.3818 19.0747 L24.5503 19.0747 C27.239 19.0747 28.1318 17.7379 28.1318 16.2688 C28.1318 12.934 24.294 8.8738 18.4627 8.8738 C12.6314 8.8738 8.7917 12.934 8.7917 16.2688 C8.7917 17.742 9.691 19.0747 12.3818 19.0747 Z M18.4664 8.5677 C20.6024 8.5677 22.4067 6.6752 22.4067 4.2295 C22.4067 1.835 20.5945 0 18.4664 0 C16.3468 0 14.5328 1.8692 14.5328 4.2466 C14.5328 6.6752 16.3371 8.5677 18.4664 8.5677 Z M12.3201 17.6488 L24.6119 17.6488 C26.1249 17.6488 26.7145 17.1701 26.7145 16.2688 C26.7145 13.7569 23.5278 10.2997 18.4627 10.2997 C13.4042 10.2997 10.2176 13.7569 10.2176 16.2688 C10.2176 17.1701 10.8072 17.6488 12.3201 17.6488 Z"/></svg>
