<svg xmlns="http://www.w3.org/2000/svg" viewBox="0 0 24.0012 19.9912" role="img" aria-label="paintpalette.fill"><path fill="#FF2D9A" fill-rule="nonzero" d="M12.8533 19.9912 C17.1276 19.9912 19.9846 18.4712 19.9846 16.209 C19.9846 14.2431 18.3589 13.8233 18.3589 12.6754 C18.3589 11.1081 24.0012 10.8392 24.0012 6.7439 C24.0012 2.6853 19.8073 0 13.574 0 C5.4672 0 0 4.1095 0 10.1556 C0 16.0392 5.191 19.9912 12.8533 19.9912 Z M12.7008 16.2009 C11.2037 16.2009 9.9863 14.973 9.9863 13.4756 C9.9863 11.9785 11.2037 10.7484 12.7008 10.7484 C14.2069 10.7484 15.4328 11.9785 15.4328 13.4756 C15.4328 14.9976 14.2336 16.2009 12.7008 16.2009 Z M4.6844 11.4054 C3.7894 11.4054 3.0388 10.6507 3.0388 9.7455 C3.0388 8.8639 3.8132 8.1038 4.6844 8.1038 C5.602 8.1038 6.3299 8.8364 6.3299 9.7455 C6.3299 10.6507 5.5898 11.4054 4.6844 11.4054 Z M8.5338 7.8817 C7.3842 7.8817 6.455 6.9753 6.455 5.8236 C6.455 4.6842 7.3821 3.7838 8.5338 3.7838 C9.6626 3.7838 10.5853 4.6861 10.5853 5.8236 C10.5853 6.9753 9.6645 7.8817 8.5338 7.8817 Z M13.8496 6.2933 C12.9312 6.2933 12.173 5.5564 12.173 4.6332 C12.173 3.7146 12.9312 2.9795 13.8496 2.9795 C14.7658 2.9795 15.5097 3.7128 15.5097 4.6332 C15.5097 5.5582 14.7658 6.2933 13.8496 6.2933 Z M18.5793 7.1344 C17.8183 7.1344 17.2115 6.5402 17.2115 5.7894 C17.2115 5.0511 17.8287 4.4357 18.5793 4.4357 C19.3178 4.4357 19.9122 5.0675 19.9122 5.7894 C19.9122 6.5256 19.3197 7.1344 18.5793 7.1344 Z"/></svg>
