<svg xmlns="http://www.w3.org/2000/svg" viewBox="0 0 36.9344 19.0643" role="img" aria-label="person.3.fill"><path fill="#FF6F5E" fill-rule="nonzero" d="M7.1835 8.7863 C9.0412 8.7863 10.6145 7.1277 10.6145 5.0108 C10.6145 2.9117 9.0334 1.3317 7.1835 1.3317 C5.3421 1.3317 3.7544 2.946 3.7544 5.0194 C3.7544 7.1277 5.3324 8.7863 7.1835 8.7863 Z M1.8053 17.649 L12.5609 17.649 C13.8778 17.649 14.3662 17.102 14.3662 16.1408 C14.3662 13.4875 11.5473 10.2713 7.1798 10.2713 C2.8189 10.2713 0 13.4875 0 16.1408 C0 17.102 0.4884 17.649 1.8053 17.649 Z M29.7517 8.7863 C31.6094 8.7863 33.1846 7.1277 33.1846 5.0108 C33.1846 2.9117 31.593 1.3317 29.7517 1.3317 C27.9103 1.3317 26.3227 2.946 26.3227 5.0194 C26.3227 7.1277 27.9007 8.7863 29.7517 8.7863 Z M24.3736 17.649 L35.1291 17.649 C36.446 17.649 36.9344 17.102 36.9344 16.1408 C36.9344 13.4875 34.1155 10.2713 29.748 10.2713 C25.3872 10.2713 22.5682 13.4875 22.5682 16.1408 C22.5682 17.102 23.0567 17.649 24.3736 17.649 Z M11.9716 19.0643 L24.9734 19.0643 C26.9559 19.0643 28.1478 17.8267 28.1478 16.267 C28.1478 12.9321 24.2995 8.872 18.4786 8.872 C12.6473 8.872 8.7991 12.9321 8.7991 16.267 C8.7991 17.8267 9.9909 19.0643 11.9716 19.0643 Z M18.4805 8.5659 C20.6098 8.5659 22.4141 6.6667 22.4141 4.2295 C22.4141 1.8332 20.6001 0 18.4805 0 C16.3627 0 14.5402 1.8589 14.5402 4.2466 C14.5402 6.6667 16.3445 8.5659 18.4805 8.5659 Z M11.9716 17.647 L24.9734 17.647 C26.0638 17.647 26.7219 17.1271 26.7219 16.267 C26.7219 13.7551 23.5352 10.2979 18.4786 10.2979 C13.4116 10.2979 10.225 13.7551 10.225 16.267 C10.225 17.1271 10.883 17.647 11.9716 17.647 Z"/></svg>
