<svg width="423" height="474" viewBox="0 0 423 474" fill="none" xmlns="http://www.w3.org/2000/svg">
<rect width="423" height="474" rx="24" fill="#3F345D"/>
<path d="M42.96 73.616C42.96 73.264 43.12 72.944 43.44 72.656C43.76 72.336 44.144 72.144 44.592 72.08C45.072 72.016 45.472 71.824 45.792 71.504C46.112 71.152 46.368 70.576 46.56 69.776C46.784 68.944 46.944 68.208 47.04 67.568C47.168 66.928 47.312 65.968 47.472 64.688C47.568 64.08 47.632 63.616 47.664 63.296C48.08 60.48 48.48 57.536 48.864 54.464C49.248 51.392 49.536 48.976 49.728 47.216C49.952 45.424 50.064 44.432 50.064 44.24C50.064 43.344 49.824 42.688 49.344 42.272C48.896 41.824 48.4 41.6 47.856 41.6C47.312 41.568 46.8 41.504 46.32 41.408C45.872 41.28 45.648 41.024 45.648 40.64C45.648 39.648 46.256 39.152 47.472 39.152C47.76 39.152 48.48 39.184 49.632 39.248C50.816 39.28 52.368 39.312 54.288 39.344C56.24 39.376 58.272 39.392 60.384 39.392C61.056 39.392 62.544 39.376 64.848 39.344C67.184 39.312 68.576 39.296 69.024 39.296C70.08 39.296 70.608 39.808 70.608 40.832V43.376C70.608 43.6 70.64 44 70.704 44.576C70.8 45.152 70.848 45.616 70.848 45.968C70.848 47.312 70.416 47.984 69.552 47.984C69.232 47.984 69.008 47.872 68.88 47.648C68.784 47.392 68.704 47.104 68.64 46.784C68.608 46.432 68.448 45.984 68.16 45.44C67.872 44.896 67.44 44.384 66.864 43.904C66.192 43.232 64.8 42.848 62.688 42.752C60.928 42.656 59.76 42.608 59.184 42.608H57.552C56.528 42.608 55.888 42.736 55.632 42.992C55.408 43.216 55.216 43.808 55.056 44.768C55.024 45.056 54.992 45.264 54.96 45.392C54.16 50.896 53.76 54.032 53.76 54.8C53.76 54.864 53.824 54.912 53.952 54.944C54.112 54.944 54.48 54.944 55.056 54.944H57.984C60.32 54.944 61.792 54.912 62.4 54.848C63.104 54.784 63.664 54.592 64.08 54.272C64.496 53.92 64.752 53.568 64.848 53.216C64.976 52.832 65.12 52.496 65.28 52.208C65.472 51.92 65.696 51.776 65.952 51.776C66.752 51.776 67.152 52.176 67.152 52.976C67.152 53.328 66.992 54.256 66.672 55.76C66.384 57.264 66.24 58.688 66.24 60.032C66.24 62.176 65.792 63.248 64.896 63.248C63.904 63.248 63.408 62.672 63.408 61.52V60.992C63.408 60.544 63.376 60.192 63.312 59.936C63.248 59.68 63.072 59.44 62.784 59.216C62.528 58.992 62.224 58.848 61.872 58.784C61.552 58.688 60.992 58.608 60.192 58.544C59.392 58.48 58.592 58.448 57.792 58.448C56.992 58.416 55.84 58.4 54.336 58.4C53.696 58.4 53.36 58.528 53.328 58.784C53.232 59.712 53.056 61.056 52.8 62.816C52.576 64.576 52.368 66.112 52.176 67.424C52.016 68.736 51.936 69.504 51.936 69.728C51.936 70.624 52.208 71.312 52.752 71.792C53.296 72.24 53.888 72.48 54.528 72.512C55.168 72.544 55.76 72.64 56.304 72.8C56.848 72.928 57.12 73.168 57.12 73.52C57.12 74.384 56.64 74.816 55.68 74.816C55.584 74.816 55.008 74.768 53.952 74.672C52.896 74.608 51.824 74.576 50.736 74.576C49.968 74.576 49.12 74.608 48.192 74.672C47.264 74.736 46.496 74.8 45.888 74.864L44.928 74.96C43.616 74.96 42.96 74.512 42.96 73.616ZM71.9423 65.888C71.9423 62.432 73.0303 59.328 75.2063 56.576C77.4143 53.792 80.3423 52.4 83.9903 52.4C86.4863 52.4 88.3903 53.28 89.7023 55.04C91.0463 56.768 91.7183 58.96 91.7183 61.616C91.7183 63.824 91.2863 65.936 90.4223 67.952C89.5583 69.968 88.1983 71.68 86.3423 73.088C84.5183 74.496 82.4063 75.2 80.0063 75.2C77.6703 75.2 75.7343 74.4 74.1983 72.8C72.6943 71.2 71.9423 68.896 71.9423 65.888ZM77.0783 65.936C77.0783 68.24 77.4143 70 78.0863 71.216C78.7903 72.432 79.6703 73.04 80.7263 73.04C81.7823 73.04 82.7103 72.608 83.5103 71.744C84.3423 70.88 84.9663 69.808 85.3823 68.528C85.8303 67.216 86.1663 65.92 86.3903 64.64C86.6143 63.328 86.7263 62.128 86.7263 61.04C86.7263 59.152 86.3903 57.728 85.7183 56.768C85.0783 55.776 84.2783 55.28 83.3183 55.28C82.2303 55.28 81.1903 55.776 80.1983 56.768C79.2383 57.728 78.5183 59.056 78.0383 60.752C77.3983 62.928 77.0783 64.656 77.0783 65.936ZM93.7669 59.792C93.7669 58.64 93.9269 57.616 94.2469 56.72C94.5989 55.792 94.9989 55.088 95.4469 54.608C95.9269 54.096 96.4229 53.664 96.9349 53.312C97.4469 52.928 97.8789 52.688 98.2309 52.592C98.5829 52.496 98.8389 52.448 98.9989 52.448C100.055 52.448 100.871 53.168 101.447 54.608C101.863 56.4 102.087 57.296 102.119 57.296C102.151 57.296 102.455 56.896 103.031 56.096C103.607 55.264 104.375 54.432 105.335 53.6C106.327 52.768 107.351 52.352 108.407 52.352C109.207 52.352 109.815 52.576 110.231 53.024C110.679 53.472 110.903 53.984 110.903 54.56C110.903 54.816 110.807 55.184 110.615 55.664C110.455 56.112 110.375 56.352 110.375 56.384L110.327 56.816C110.199 57.232 110.087 57.568 109.991 57.824C109.895 58.048 109.719 58.288 109.463 58.544C109.207 58.768 108.919 58.88 108.599 58.88C108.311 58.88 108.071 58.72 107.879 58.4C107.687 58.048 107.447 57.712 107.159 57.392C106.871 57.04 106.487 56.864 106.007 56.864C105.271 56.864 104.647 57.76 104.135 59.552C103.623 61.312 103.287 62.976 103.127 64.544L102.887 66.128C102.279 70.8 101.831 73.408 101.543 73.952C101.095 74.592 100.407 74.912 99.4789 74.912H99.2389C97.7989 74.912 97.0789 74.256 97.0789 72.944C97.0789 72.432 97.4149 70.544 98.0869 67.28C98.7909 64.016 99.1429 61.712 99.1429 60.368C99.1429 58.672 98.8389 57.824 98.2309 57.824C97.7829 57.824 97.3989 58.048 97.0789 58.496C96.7589 58.912 96.5189 59.408 96.3589 59.984C96.2309 60.528 96.1509 60.816 96.1189 60.848C95.7349 61.168 95.3829 61.328 95.0629 61.328C94.1989 61.328 93.7669 60.816 93.7669 59.792ZM122.601 73.328C122.601 72.464 123.177 72 124.329 71.936C125.161 71.872 125.737 71.44 126.057 70.64C126.217 70.096 126.521 68.592 126.969 66.128C126.969 66.032 127.097 65.2 127.353 63.632C127.609 62.032 127.801 60.72 127.929 59.696L129.657 45.152C129.689 44.896 129.705 44.592 129.705 44.24C129.705 43.344 129.513 42.688 129.129 42.272C128.745 41.824 128.329 41.584 127.881 41.552C127.433 41.52 127.017 41.456 126.633 41.36C126.249 41.232 126.057 41.024 126.057 40.736C126.057 39.776 126.665 39.296 127.881 39.296C128.169 39.296 128.825 39.312 129.849 39.344C130.905 39.344 132.329 39.36 134.121 39.392C135.945 39.392 137.913 39.392 140.025 39.392C140.697 39.392 142.601 39.36 145.737 39.296C148.873 39.232 150.665 39.2 151.113 39.2C152.169 39.2 152.697 39.744 152.697 40.832C152.697 40.992 152.665 41.36 152.601 41.936C152.537 42.48 152.505 42.96 152.505 43.376C152.505 43.6 152.521 44 152.553 44.576C152.617 45.152 152.649 45.616 152.649 45.968C152.649 47.344 152.201 48.032 151.305 48.032C150.921 48.032 150.665 47.92 150.537 47.696C150.409 47.44 150.345 47.152 150.345 46.832C150.345 46.48 150.249 46.048 150.057 45.536C149.897 45.024 149.577 44.56 149.097 44.144C149.001 44.016 148.809 43.872 148.521 43.712C148.233 43.552 147.737 43.376 147.033 43.184C146.329 42.96 145.529 42.848 144.633 42.848C143.417 42.848 142.121 42.832 140.745 42.8C139.369 42.736 138.201 42.704 137.241 42.704C136.121 42.704 135.433 42.832 135.177 43.088C134.953 43.344 134.745 44.096 134.553 45.344C133.753 50.88 133.353 54.096 133.353 54.992C133.353 54.96 133.417 54.944 133.545 54.944C133.705 54.944 134.089 54.944 134.697 54.944C138.633 54.944 141.049 54.896 141.945 54.8C142.873 54.704 143.529 54.448 143.913 54.032C144.361 53.616 144.713 53.168 144.969 52.688C145.225 52.176 145.417 51.824 145.545 51.632C145.673 51.408 145.865 51.296 146.121 51.296C146.985 51.296 147.417 51.712 147.417 52.544C147.417 52.832 147.273 53.6 146.985 54.848C146.729 56.064 146.553 56.992 146.457 57.632C146.329 58.048 146.265 58.768 146.265 59.792C146.265 60.784 146.153 61.568 145.929 62.144C145.737 62.72 145.385 63.008 144.873 63.008C144.041 63.008 143.625 62.512 143.625 61.52C143.625 60.304 143.449 59.536 143.097 59.216C142.265 58.64 140.697 58.352 138.393 58.352C137.433 58.352 136.649 58.352 136.041 58.352C135.465 58.352 135.097 58.352 134.937 58.352C134.809 58.32 134.697 58.304 134.601 58.304C134.505 58.304 134.409 58.304 134.313 58.304C133.577 58.304 133.193 58.352 133.161 58.448C133.065 59.408 132.857 60.832 132.537 62.72C132.249 64.608 131.993 66.288 131.769 67.76C131.545 69.232 131.433 70.08 131.433 70.304C131.433 70.752 131.769 71.04 132.441 71.168C133.113 71.296 134.553 71.36 136.761 71.36C139.481 71.36 141.785 71.12 143.673 70.64C145.593 70.128 146.889 69.584 147.561 69.008C148.265 68.4 148.841 67.856 149.289 67.376C149.769 66.864 150.105 66.608 150.297 66.608C151.097 66.608 151.497 67.072 151.497 68C151.497 68.96 150.729 70.384 149.193 72.272C147.689 74.16 146.361 75.104 145.209 75.104C142.905 75.104 140.025 75.008 136.569 74.816C133.145 74.656 131.081 74.576 130.377 74.576C129.481 74.576 128.553 74.592 127.593 74.624C126.633 74.688 125.769 74.72 125.001 74.72C123.401 74.72 122.601 74.256 122.601 73.328ZM154.34 58.592C154.34 57.504 154.98 56.208 156.26 54.704C157.572 53.168 158.74 52.4 159.764 52.4C160.532 52.4 161.044 52.848 161.3 53.744C161.556 54.64 161.684 55.504 161.684 56.336C161.684 57.168 161.7 57.584 161.732 57.584C161.796 57.584 161.892 57.488 162.02 57.296C162.18 57.104 162.42 56.8 162.74 56.384C163.06 55.968 163.46 55.568 163.94 55.184C166.436 53.264 168.532 52.304 170.228 52.304C173.396 52.304 174.98 54.544 174.98 59.024C174.98 60.304 174.836 62.208 174.548 64.736C174.292 67.264 174.164 68.72 174.164 69.104C174.164 69.776 174.228 70.112 174.356 70.112C174.548 70.112 174.74 70.048 174.932 69.92C175.156 69.792 175.348 69.664 175.508 69.536L175.748 69.248C175.876 69.152 176.036 68.976 176.228 68.72C176.42 68.432 176.564 68.256 176.66 68.192C176.788 68.096 176.948 68 177.14 67.904C177.332 67.808 177.54 67.76 177.764 67.76C178.532 67.76 178.916 68.192 178.916 69.056C178.916 70.112 178.036 71.376 176.276 72.848C174.516 74.288 173.044 75.008 171.86 75.008C171.188 75.008 170.596 74.64 170.084 73.904C169.604 73.168 169.364 72.288 169.364 71.264C169.364 69.952 169.524 67.856 169.844 64.976C170.196 62.064 170.372 60.4 170.372 59.984C170.372 59.536 170.324 59.072 170.228 58.592C170.132 58.112 169.844 57.6 169.364 57.056C168.916 56.48 168.372 56.192 167.732 56.192C166.836 56.192 165.988 56.8 165.188 58.016C164.772 58.624 164.468 59.072 164.276 59.36C164.116 59.648 163.956 60.032 163.796 60.512C163.636 60.992 163.524 61.376 163.46 61.664C163.428 61.92 163.332 62.56 163.172 63.584C163.012 64.576 162.852 65.52 162.692 66.416C162.404 67.888 162.18 69.088 162.02 70.016C161.892 70.944 161.812 71.552 161.78 71.84C161.78 72.096 161.764 72.32 161.732 72.512C161.732 72.672 161.732 72.8 161.732 72.896C161.636 73.696 161.412 74.208 161.06 74.432C160.74 74.688 160.132 74.816 159.236 74.816C158.212 74.816 157.556 74.688 157.268 74.432C156.98 74.208 156.836 73.6 156.836 72.608C156.836 72.064 157.188 70.08 157.892 66.656C158.596 63.232 158.948 60.832 158.948 59.456C158.948 58.912 158.9 58.464 158.804 58.112C158.74 57.728 158.66 57.536 158.564 57.536C158.02 57.536 157.444 57.984 156.836 58.88C156.26 59.776 155.812 60.224 155.492 60.224C154.724 60.224 154.34 59.68 154.34 58.592ZM178.754 77.504C178.754 76.704 178.914 76 179.234 75.392C179.554 74.784 179.938 74.32 180.386 74C180.834 73.68 181.282 73.44 181.73 73.28C182.178 73.088 182.562 72.944 182.882 72.848C183.202 72.752 183.362 72.688 183.362 72.656C183.362 72.592 183.314 72.496 183.218 72.368C183.122 72.208 183.026 71.984 182.93 71.696C182.834 71.376 182.786 70.992 182.786 70.544C182.786 69.872 182.946 69.296 183.266 68.816C183.586 68.336 183.89 67.984 184.178 67.76C184.498 67.504 184.658 67.328 184.658 67.232C184.658 67.2 184.482 67.04 184.13 66.752C183.81 66.432 183.474 65.808 183.122 64.88C182.77 63.952 182.594 62.72 182.594 61.184C182.594 59.328 183.314 57.472 184.754 55.616C186.226 53.728 188.13 52.784 190.466 52.784C191.202 52.784 192.162 52.992 193.346 53.408C194.53 53.824 195.33 54.032 195.746 54.032C196.226 54.032 196.866 53.856 197.666 53.504C198.466 53.152 198.978 52.976 199.202 52.976C199.682 52.976 200.146 53.136 200.594 53.456C201.074 53.744 201.314 54.24 201.314 54.944C201.314 55.424 201.09 55.92 200.642 56.432C200.194 56.912 199.586 57.152 198.818 57.152C198.338 57.152 197.81 57.088 197.234 56.96C196.658 56.832 196.338 56.768 196.274 56.768C196.37 56.768 196.418 56.672 196.418 56.48C196.418 56.544 196.482 56.752 196.61 57.104C196.77 57.424 196.914 57.872 197.042 58.448C197.202 59.024 197.282 59.616 197.282 60.224C197.282 62.176 196.562 64.16 195.122 66.176C193.714 68.192 191.906 69.2 189.698 69.2C188.834 69.2 188.034 69.104 187.298 68.912C186.562 68.688 186.13 68.576 186.002 68.576C186.002 68.576 186.018 68.608 186.05 68.672C186.082 68.704 186.098 68.8 186.098 68.96C186.13 69.088 186.146 69.264 186.146 69.488C186.146 70.384 186.786 71.136 188.066 71.744C189.346 72.352 190.738 72.832 192.242 73.184C193.778 73.504 195.186 74.08 196.466 74.912C197.746 75.776 198.386 76.864 198.386 78.176C198.386 80.352 197.586 81.872 195.986 82.736C194.418 83.632 192.194 84.08 189.314 84.08C186.37 84.08 183.874 83.536 181.826 82.448C179.778 81.36 178.754 79.712 178.754 77.504ZM182.834 76.928C182.834 78.4 183.49 79.52 184.802 80.288C186.114 81.056 187.586 81.44 189.218 81.44C192.322 81.44 193.874 80.64 193.874 79.04C193.874 78.56 193.33 78.032 192.242 77.456C191.186 76.912 189.058 76.048 185.858 74.864C185.474 74.704 185.122 74.528 184.802 74.336C184.482 74.176 184.258 74.048 184.13 73.952L184.274 74C184.018 74 183.714 74.304 183.362 74.912C183.01 75.552 182.834 76.224 182.834 76.928ZM186.914 62C186.914 63.536 187.154 64.704 187.634 65.504C188.114 66.272 188.722 66.656 189.458 66.656C190.386 66.656 191.218 66.096 191.954 64.976C192.69 63.824 193.058 62.32 193.058 60.464C193.058 58.864 192.802 57.632 192.29 56.768C191.778 55.904 191.138 55.472 190.37 55.472C189.474 55.472 188.674 56.064 187.97 57.248C187.266 58.4 186.914 59.984 186.914 62ZM208.314 45.536C208.314 45.216 208.698 44.592 209.466 43.664C210.266 42.736 210.922 42.272 211.434 42.272C212.042 42.272 212.618 42.672 213.162 43.472C213.738 44.24 214.026 44.928 214.026 45.536C214.026 46.112 213.642 46.8 212.874 47.6C212.106 48.4 211.546 48.8 211.194 48.8C210.682 48.8 210.074 48.352 209.37 47.456C208.666 46.56 208.314 45.92 208.314 45.536ZM203.226 54.992C203.226 54.064 203.834 53.6 205.05 53.6H205.53C206.106 53.6 206.906 53.536 207.93 53.408C208.986 53.248 210.01 53.168 211.002 53.168C211.93 53.168 212.394 53.584 212.394 54.416C212.394 54.832 212.202 55.68 211.818 56.96C211.466 58.24 211.226 59.28 211.098 60.08C209.658 65.68 208.938 68.624 208.938 68.912C208.938 69.2 209.034 69.472 209.226 69.728C209.418 69.984 209.642 70.112 209.898 70.112C210.538 70.112 211.146 69.696 211.722 68.864C212.33 68.032 212.714 67.616 212.874 67.616C213.674 67.616 214.074 68.032 214.074 68.864C214.074 69.216 213.882 69.776 213.498 70.544C213.146 71.28 212.81 71.808 212.49 72.128C210.378 74.016 208.602 74.96 207.162 74.96C205.754 74.96 205.05 73.472 205.05 70.496C205.05 69.216 205.402 66.8 206.106 63.248C206.842 59.664 207.21 57.456 207.21 56.624C207.21 56.528 207.178 56.464 207.114 56.432C207.05 56.368 206.938 56.336 206.778 56.336C206.394 56.336 205.946 56.336 205.434 56.336C204.954 56.304 204.682 56.288 204.618 56.288C203.69 56.288 203.226 55.856 203.226 54.992ZM216.824 58.592C216.824 57.504 217.464 56.208 218.744 54.704C220.056 53.168 221.224 52.4 222.248 52.4C223.016 52.4 223.528 52.848 223.784 53.744C224.04 54.64 224.168 55.504 224.168 56.336C224.168 57.168 224.184 57.584 224.216 57.584C224.28 57.584 224.376 57.488 224.504 57.296C224.664 57.104 224.904 56.8 225.224 56.384C225.544 55.968 225.944 55.568 226.424 55.184C228.92 53.264 231.016 52.304 232.712 52.304C235.88 52.304 237.464 54.544 237.464 59.024C237.464 60.304 237.32 62.208 237.032 64.736C236.776 67.264 236.648 68.72 236.648 69.104C236.648 69.776 236.712 70.112 236.84 70.112C237.032 70.112 237.224 70.048 237.416 69.92C237.64 69.792 237.832 69.664 237.992 69.536L238.232 69.248C238.36 69.152 238.52 68.976 238.712 68.72C238.904 68.432 239.048 68.256 239.144 68.192C239.272 68.096 239.432 68 239.624 67.904C239.816 67.808 240.024 67.76 240.248 67.76C241.016 67.76 241.4 68.192 241.4 69.056C241.4 70.112 240.52 71.376 238.76 72.848C237 74.288 235.528 75.008 234.344 75.008C233.672 75.008 233.08 74.64 232.568 73.904C232.088 73.168 231.848 72.288 231.848 71.264C231.848 69.952 232.008 67.856 232.328 64.976C232.68 62.064 232.856 60.4 232.856 59.984C232.856 59.536 232.808 59.072 232.712 58.592C232.616 58.112 232.328 57.6 231.848 57.056C231.4 56.48 230.856 56.192 230.216 56.192C229.32 56.192 228.472 56.8 227.672 58.016C227.256 58.624 226.952 59.072 226.76 59.36C226.6 59.648 226.44 60.032 226.28 60.512C226.12 60.992 226.008 61.376 225.944 61.664C225.912 61.92 225.816 62.56 225.656 63.584C225.496 64.576 225.336 65.52 225.176 66.416C224.888 67.888 224.664 69.088 224.504 70.016C224.376 70.944 224.296 71.552 224.264 71.84C224.264 72.096 224.248 72.32 224.216 72.512C224.216 72.672 224.216 72.8 224.216 72.896C224.12 73.696 223.896 74.208 223.544 74.432C223.224 74.688 222.616 74.816 221.72 74.816C220.696 74.816 220.04 74.688 219.752 74.432C219.464 74.208 219.32 73.6 219.32 72.608C219.32 72.064 219.672 70.08 220.376 66.656C221.08 63.232 221.432 60.832 221.432 59.456C221.432 58.912 221.384 58.464 221.288 58.112C221.224 57.728 221.144 57.536 221.048 57.536C220.504 57.536 219.928 57.984 219.32 58.88C218.744 59.776 218.296 60.224 217.976 60.224C217.208 60.224 216.824 59.68 216.824 58.592ZM243.692 66.944C243.692 64.832 244.188 62.736 245.18 60.656C246.172 58.576 247.564 56.72 249.356 55.088C251.276 53.264 253.66 52.352 256.508 52.352C257.852 52.352 259.004 52.752 259.964 53.552C260.924 54.352 261.404 55.376 261.404 56.624C261.404 57.52 261.196 58.368 260.78 59.168C260.364 59.968 259.836 60.64 259.196 61.184C258.588 61.728 258.044 62.16 257.564 62.48C257.084 62.768 256.668 62.976 256.316 63.104C254.396 63.968 251.788 64.416 248.492 64.448C248.428 64.448 248.396 64.864 248.396 65.696C248.396 67.328 248.908 68.624 249.932 69.584C250.988 70.512 252.54 70.976 254.588 70.976C255.388 70.976 256.172 70.8 256.94 70.448C257.74 70.096 258.38 69.76 258.86 69.44C259.372 69.088 259.676 68.912 259.772 68.912C260.636 68.912 261.068 69.312 261.068 70.112C261.068 70.88 260.06 71.936 258.044 73.28C256.06 74.624 254.044 75.296 251.996 75.296C248.86 75.296 246.684 74.56 245.468 73.088C244.284 71.616 243.692 69.568 243.692 66.944ZM249.068 61.952C249.068 62.112 248.972 62.192 248.78 62.192C250.86 62.192 252.684 61.632 254.252 60.512C255.852 59.36 256.652 58.112 256.652 56.768C256.652 56.224 256.444 55.84 256.028 55.616C255.644 55.36 255.244 55.232 254.828 55.232C253.804 55.232 252.668 55.904 251.42 57.248C250.812 57.856 250.268 58.704 249.788 59.792C249.308 60.848 249.068 61.568 249.068 61.952ZM264.458 66.944C264.458 64.832 264.954 62.736 265.946 60.656C266.938 58.576 268.33 56.72 270.122 55.088C272.042 53.264 274.426 52.352 277.274 52.352C278.618 52.352 279.77 52.752 280.73 53.552C281.69 54.352 282.17 55.376 282.17 56.624C282.17 57.52 281.962 58.368 281.546 59.168C281.13 59.968 280.602 60.64 279.962 61.184C279.354 61.728 278.81 62.16 278.33 62.48C277.85 62.768 277.434 62.976 277.082 63.104C275.162 63.968 272.554 64.416 269.258 64.448C269.194 64.448 269.162 64.864 269.162 65.696C269.162 67.328 269.674 68.624 270.698 69.584C271.754 70.512 273.306 70.976 275.354 70.976C276.154 70.976 276.938 70.8 277.706 70.448C278.506 70.096 279.146 69.76 279.626 69.44C280.138 69.088 280.442 68.912 280.538 68.912C281.402 68.912 281.834 69.312 281.834 70.112C281.834 70.88 280.826 71.936 278.81 73.28C276.826 74.624 274.81 75.296 272.762 75.296C269.626 75.296 267.45 74.56 266.234 73.088C265.05 71.616 264.458 69.568 264.458 66.944ZM269.834 61.952C269.834 62.112 269.738 62.192 269.546 62.192C271.626 62.192 273.45 61.632 275.018 60.512C276.618 59.36 277.418 58.112 277.418 56.768C277.418 56.224 277.21 55.84 276.794 55.616C276.41 55.36 276.01 55.232 275.594 55.232C274.57 55.232 273.434 55.904 272.186 57.248C271.578 57.856 271.034 58.704 270.554 59.792C270.074 60.848 269.834 61.568 269.834 61.952ZM284.408 59.792C284.408 58.64 284.568 57.616 284.888 56.72C285.24 55.792 285.64 55.088 286.088 54.608C286.568 54.096 287.064 53.664 287.576 53.312C288.088 52.928 288.52 52.688 288.872 52.592C289.224 52.496 289.48 52.448 289.64 52.448C290.696 52.448 291.512 53.168 292.088 54.608C292.504 56.4 292.728 57.296 292.76 57.296C292.792 57.296 293.096 56.896 293.672 56.096C294.248 55.264 295.016 54.432 295.976 53.6C296.968 52.768 297.992 52.352 299.048 52.352C299.848 52.352 300.456 52.576 300.872 53.024C301.32 53.472 301.544 53.984 301.544 54.56C301.544 54.816 301.448 55.184 301.256 55.664C301.096 56.112 301.016 56.352 301.016 56.384L300.968 56.816C300.84 57.232 300.728 57.568 300.632 57.824C300.536 58.048 300.36 58.288 300.104 58.544C299.848 58.768 299.56 58.88 299.24 58.88C298.952 58.88 298.712 58.72 298.52 58.4C298.328 58.048 298.088 57.712 297.799 57.392C297.512 57.04 297.128 56.864 296.648 56.864C295.912 56.864 295.288 57.76 294.776 59.552C294.264 61.312 293.928 62.976 293.768 64.544L293.528 66.128C292.92 70.8 292.472 73.408 292.184 73.952C291.736 74.592 291.048 74.912 290.12 74.912H289.88C288.44 74.912 287.72 74.256 287.72 72.944C287.72 72.432 288.056 70.544 288.728 67.28C289.432 64.016 289.784 61.712 289.784 60.368C289.784 58.672 289.48 57.824 288.872 57.824C288.424 57.824 288.04 58.048 287.72 58.496C287.4 58.912 287.16 59.408 287 59.984C286.872 60.528 286.792 60.816 286.76 60.848C286.376 61.168 286.024 61.328 285.704 61.328C284.84 61.328 284.408 60.816 284.408 59.792ZM301.142 71.408C301.142 69.776 301.894 68.96 303.398 68.96C303.942 68.96 304.39 69.136 304.742 69.488C305.094 69.84 305.35 70.224 305.51 70.64C305.67 71.024 305.958 71.392 306.374 71.744C306.79 72.096 307.318 72.272 307.958 72.272C308.598 72.272 309.142 72.176 309.59 71.984C310.07 71.792 310.406 71.552 310.598 71.264C310.79 70.944 310.918 70.688 310.982 70.496C311.046 70.272 311.078 70.08 311.078 69.92C311.078 69.44 311.014 69.008 310.886 68.624C310.758 68.208 310.47 67.744 310.022 67.232C309.606 66.72 309.334 66.4 309.206 66.272C309.078 66.144 308.662 65.744 307.958 65.072C307.766 64.848 307.446 64.512 306.998 64.064C306.55 63.616 306.23 63.296 306.038 63.104C305.846 62.88 305.59 62.56 305.27 62.144C304.95 61.728 304.71 61.36 304.55 61.04C304.422 60.72 304.294 60.336 304.166 59.888C304.07 59.44 304.022 58.96 304.022 58.448C304.022 56.624 304.694 55.152 306.038 54.032C307.414 52.88 309.158 52.304 311.27 52.304C314.726 52.304 316.454 53.376 316.454 55.52C316.454 56.16 316.246 56.688 315.83 57.104C315.446 57.488 315.078 57.712 314.726 57.776C314.406 57.84 314.134 57.872 313.91 57.872C313.334 57.872 312.71 57.424 312.038 56.528C311.398 55.632 310.758 55.184 310.118 55.184C308.902 55.184 308.294 55.792 308.294 57.008C308.294 57.52 308.47 58.048 308.822 58.592C309.206 59.104 309.814 59.728 310.646 60.464C311.478 61.168 311.91 61.552 311.942 61.616C312.102 61.744 312.422 62.08 312.902 62.624C313.382 63.168 313.702 63.568 313.862 63.824C314.054 64.08 314.294 64.464 314.582 64.976C314.902 65.456 315.11 65.968 315.206 66.512C315.334 67.056 315.398 67.648 315.398 68.288C315.398 68.864 315.27 69.504 315.014 70.208C314.79 70.912 314.406 71.68 313.862 72.512C313.318 73.312 312.454 73.968 311.27 74.48C310.118 75.024 308.758 75.296 307.19 75.296C305.75 75.296 304.374 74.992 303.062 74.384C301.782 73.776 301.142 72.784 301.142 71.408Z" fill="#F6A6D2"/>
<path d="M46.8938 127.131C46.3875 127.131 46.1063 126.878 45.9469 126.325L42.6375 114.578C42.5813 114.372 42.5625 114.259 42.5625 114.109C42.5625 113.659 42.9094 113.341 43.3969 113.341C43.8375 113.341 44.1188 113.584 44.2313 114.016L46.8938 124.516H46.9688L49.8188 114.287C50.0063 113.612 50.3063 113.341 50.8781 113.341C51.4313 113.341 51.7313 113.612 51.9094 114.25L54.7688 124.516H54.8438L57.5063 114.016C57.6188 113.575 57.9094 113.341 58.3406 113.341C58.8281 113.341 59.175 113.659 59.175 114.109C59.175 114.259 59.1563 114.372 59.1 114.578L55.7906 126.325C55.6313 126.878 55.35 127.131 54.8438 127.131C54.3188 127.131 54.0375 126.897 53.8688 126.334L50.9156 116.266H50.8219L47.8688 126.334C47.7 126.897 47.4188 127.131 46.8938 127.131ZM62.709 127.169C60.7684 127.169 59.4653 125.997 59.4653 124.244C59.4653 122.575 60.7496 121.525 62.9996 121.394L65.8028 121.234V120.419C65.8028 119.228 65.0153 118.516 63.6653 118.516C62.6059 118.516 61.884 118.9 61.3403 119.866C61.1903 120.137 60.9746 120.259 60.6653 120.259C60.2434 120.259 59.9434 119.969 59.9434 119.528C59.9434 119.322 60.009 119.087 60.1403 118.853C60.6934 117.784 62.1184 117.081 63.7028 117.081C65.9903 117.081 67.434 118.319 67.434 120.259V126.344C67.434 126.831 67.1153 127.169 66.6653 127.169C66.2059 127.169 65.8871 126.831 65.8871 126.344V125.322H65.8496C65.2684 126.437 64.0215 127.169 62.709 127.169ZM63.0746 125.781C64.6121 125.781 65.8028 124.703 65.8028 123.297V122.5L63.1871 122.659C61.8746 122.744 61.1246 123.325 61.1246 124.244C61.1246 125.172 61.9028 125.781 63.0746 125.781ZM70.7899 127.169C70.3118 127.169 69.9743 126.812 69.9743 126.297V114.175C69.9743 113.659 70.3118 113.303 70.7899 113.303C71.268 113.303 71.6055 113.659 71.6055 114.175V126.297C71.6055 126.812 71.268 127.169 70.7899 127.169ZM77.8864 127.169C75.402 127.169 73.7145 125.181 73.7145 122.125C73.7145 119.069 75.3926 117.081 77.8489 117.081C79.2458 117.081 80.3708 117.766 80.952 118.834H80.9895V114.175C80.9895 113.659 81.327 113.303 81.8051 113.303C82.2833 113.303 82.6208 113.659 82.6208 114.175V126.372C82.6208 126.841 82.2926 127.169 81.8239 127.169C81.3645 127.169 80.9895 126.85 80.9895 126.372V125.256H80.9614C80.427 126.419 79.4145 127.169 77.8864 127.169ZM78.1958 125.734C79.8739 125.734 80.9989 124.309 80.9989 122.125C80.9989 119.95 79.8739 118.516 78.1958 118.516C76.4708 118.516 75.3833 119.922 75.3833 122.125C75.3833 124.337 76.4708 125.734 78.1958 125.734ZM89.2485 127.169C86.5485 127.169 84.7298 125.228 84.7298 122.125C84.7298 119.012 86.5485 117.081 89.2485 117.081C91.9391 117.081 93.7579 119.012 93.7579 122.125C93.7579 125.228 91.9391 127.169 89.2485 127.169ZM89.2485 125.734C90.9735 125.734 92.0985 124.422 92.0985 122.125C92.0985 119.828 90.9735 118.516 89.2485 118.516C87.5235 118.516 86.3891 119.828 86.3891 122.125C86.3891 124.422 87.5235 125.734 89.2485 125.734ZM100.929 127.169C100.451 127.169 100.113 126.812 100.113 126.297V117.906C100.113 117.419 100.432 117.081 100.882 117.081C101.332 117.081 101.651 117.419 101.651 117.906V118.844H101.688C101.97 117.831 102.926 117.081 103.901 117.081C104.257 117.081 104.51 117.166 104.67 117.316C104.81 117.447 104.876 117.634 104.876 117.859C104.876 118.112 104.792 118.3 104.623 118.431C104.454 118.572 104.201 118.637 103.845 118.637C102.373 118.637 101.745 119.697 101.745 120.944V126.297C101.745 126.812 101.407 127.169 100.929 127.169ZM110.041 127.169C107.163 127.169 105.476 125.312 105.476 122.162C105.476 119.087 107.21 117.081 109.901 117.081C112.394 117.081 114.147 118.947 114.147 121.619C114.147 122.209 113.81 122.566 113.247 122.566H107.154C107.154 124.534 108.232 125.753 109.976 125.753C111.138 125.753 111.851 125.341 112.61 124.234C112.779 124 112.966 123.906 113.219 123.906C113.651 123.906 113.941 124.187 113.941 124.619C113.941 124.75 113.894 124.919 113.819 125.097C113.191 126.419 111.822 127.169 110.041 127.169ZM107.163 121.291H112.46C112.422 119.603 111.382 118.497 109.872 118.497C108.354 118.497 107.266 119.612 107.163 121.291ZM119.022 127.169C117.081 127.169 115.778 125.997 115.778 124.244C115.778 122.575 117.063 121.525 119.313 121.394L122.116 121.234V120.419C122.116 119.228 121.328 118.516 119.978 118.516C118.919 118.516 118.197 118.9 117.653 119.866C117.503 120.137 117.288 120.259 116.978 120.259C116.556 120.259 116.256 119.969 116.256 119.528C116.256 119.322 116.322 119.087 116.453 118.853C117.006 117.784 118.431 117.081 120.016 117.081C122.303 117.081 123.747 118.319 123.747 120.259V126.344C123.747 126.831 123.428 127.169 122.978 127.169C122.519 127.169 122.2 126.831 122.2 126.344V125.322H122.163C121.581 126.437 120.335 127.169 119.022 127.169ZM119.388 125.781C120.925 125.781 122.116 124.703 122.116 123.297V122.5L119.5 122.659C118.188 122.744 117.438 123.325 117.438 124.244C117.438 125.172 118.216 125.781 119.388 125.781ZM129.897 127.169C127.412 127.169 125.725 125.181 125.725 122.125C125.725 119.069 127.403 117.081 129.859 117.081C131.256 117.081 132.381 117.766 132.962 118.834H133V114.175C133 113.659 133.337 113.303 133.815 113.303C134.294 113.303 134.631 113.659 134.631 114.175V126.372C134.631 126.841 134.303 127.169 133.834 127.169C133.375 127.169 133 126.85 133 126.372V125.256H132.972C132.437 126.419 131.425 127.169 129.897 127.169ZM130.206 125.734C131.884 125.734 133.009 124.309 133.009 122.125C133.009 119.95 131.884 118.516 130.206 118.516C128.481 118.516 127.394 119.922 127.394 122.125C127.394 124.337 128.481 125.734 130.206 125.734ZM140.603 127.169C138.868 127.169 137.509 126.391 137.04 125.172C136.984 125.031 136.965 124.909 136.965 124.787C136.965 124.356 137.284 124.112 137.706 124.112C137.996 124.112 138.231 124.262 138.418 124.6C138.906 125.453 139.487 125.837 140.734 125.837C141.981 125.837 142.824 125.294 142.824 124.384C142.824 123.681 142.421 123.306 141.324 123.034L139.834 122.659C137.949 122.191 137.04 121.3 137.04 119.931C137.04 118.234 138.531 117.081 140.734 117.081C142.337 117.081 143.762 117.981 144.015 119.153C144.034 119.247 144.043 119.322 144.043 119.397C144.043 119.781 143.799 120.034 143.406 120.034C143.087 120.034 142.862 119.931 142.684 119.594C142.262 118.778 141.634 118.422 140.64 118.422C139.468 118.422 138.653 119.012 138.653 119.847C138.653 120.522 139.178 120.991 140.246 121.253L141.699 121.609C143.734 122.106 144.484 122.819 144.484 124.253C144.484 125.997 142.918 127.169 140.603 127.169ZM153.614 127.169C153.099 127.169 152.789 126.925 152.63 126.381L150.249 118.206C150.202 118.047 150.183 117.906 150.183 117.784C150.183 117.353 150.492 117.081 150.98 117.081C151.383 117.081 151.599 117.269 151.721 117.747L153.642 125.181H153.68L155.724 117.812C155.855 117.334 156.183 117.081 156.68 117.081C157.167 117.081 157.477 117.325 157.608 117.803L159.671 125.181H159.708L161.63 117.747C161.752 117.269 161.967 117.081 162.371 117.081C162.858 117.081 163.167 117.353 163.167 117.784C163.167 117.906 163.149 118.047 163.102 118.206L160.721 126.381C160.571 126.906 160.233 127.169 159.727 127.169C159.183 127.169 158.874 126.934 158.714 126.381L156.689 119.453H156.652L154.636 126.381C154.486 126.897 154.13 127.169 153.614 127.169ZM165.895 127.169C165.417 127.169 165.08 126.812 165.08 126.297V114.156C165.08 113.65 165.408 113.303 165.895 113.303C166.392 113.303 166.711 113.65 166.711 114.156V118.806H166.748C167.292 117.719 168.361 117.081 169.842 117.081C171.98 117.081 173.273 118.525 173.273 120.7V126.297C173.273 126.812 172.936 127.169 172.458 127.169C171.98 127.169 171.642 126.812 171.642 126.297V121C171.642 119.453 170.864 118.525 169.336 118.525C167.714 118.525 166.711 119.631 166.711 121.319V126.297C166.711 126.812 166.373 127.169 165.895 127.169ZM179.817 127.169C176.939 127.169 175.251 125.312 175.251 122.162C175.251 119.087 176.985 117.081 179.676 117.081C182.17 117.081 183.923 118.947 183.923 121.619C183.923 122.209 183.585 122.566 183.023 122.566H176.929C176.929 124.534 178.007 125.753 179.751 125.753C180.914 125.753 181.626 125.341 182.385 124.234C182.554 124 182.742 123.906 182.995 123.906C183.426 123.906 183.717 124.187 183.717 124.619C183.717 124.75 183.67 124.919 183.595 125.097C182.967 126.419 181.598 127.169 179.817 127.169ZM176.939 121.291H182.235C182.198 119.603 181.157 118.497 179.648 118.497C178.129 118.497 177.042 119.612 176.939 121.291ZM186.773 127.169C186.294 127.169 185.957 126.812 185.957 126.297V117.906C185.957 117.419 186.276 117.081 186.726 117.081C187.176 117.081 187.494 117.419 187.494 117.906V118.806H187.532C188.076 117.756 189.116 117.081 190.626 117.081C192.763 117.081 194.001 118.459 194.001 120.672V126.297C194.001 126.812 193.663 127.169 193.185 127.169C192.707 127.169 192.369 126.812 192.369 126.297V120.962C192.369 119.387 191.629 118.525 190.129 118.525C188.591 118.525 187.588 119.612 187.588 121.262V126.297C187.588 126.812 187.251 127.169 186.773 127.169ZM201.744 130.647C200.956 130.647 200.516 130.356 200.516 129.841C200.516 129.484 200.759 129.241 201.172 129.241C201.406 129.241 201.472 129.25 201.725 129.25C202.344 129.25 202.934 128.875 203.319 127.694L203.544 127.009L200.187 118.262C200.131 118.103 200.103 117.953 200.103 117.831C200.103 117.381 200.45 117.081 200.919 117.081C201.303 117.081 201.547 117.25 201.697 117.681L204.387 125.369H204.416L207.116 117.681C207.266 117.25 207.481 117.081 207.884 117.081C208.353 117.081 208.681 117.391 208.681 117.831C208.681 117.953 208.653 118.103 208.597 118.262L204.997 127.684C204.153 129.925 203.356 130.647 201.744 130.647ZM214.268 127.169C211.568 127.169 209.75 125.228 209.75 122.125C209.75 119.012 211.568 117.081 214.268 117.081C216.959 117.081 218.778 119.012 218.778 122.125C218.778 125.228 216.959 127.169 214.268 127.169ZM214.268 125.734C215.993 125.734 217.118 124.422 217.118 122.125C217.118 119.828 215.993 118.516 214.268 118.516C212.543 118.516 211.409 119.828 211.409 122.125C211.409 124.422 212.543 125.734 214.268 125.734ZM224.14 127.169C222.012 127.169 220.765 125.791 220.765 123.578V117.953C220.765 117.437 221.102 117.081 221.58 117.081C222.059 117.081 222.396 117.437 222.396 117.953V123.287C222.396 124.872 223.137 125.725 224.646 125.725C226.23 125.725 227.187 124.637 227.187 122.978V117.953C227.187 117.437 227.524 117.081 228.002 117.081C228.48 117.081 228.818 117.437 228.818 117.953V126.344C228.818 126.812 228.518 127.169 228.049 127.169C227.58 127.169 227.271 126.812 227.271 126.344V125.416H227.234C226.652 126.541 225.64 127.169 224.14 127.169ZM232.136 127.169C231.658 127.169 231.321 126.812 231.321 126.297V117.906C231.321 117.419 231.639 117.081 232.089 117.081C232.539 117.081 232.858 117.419 232.858 117.906V118.844H232.896C233.177 117.831 234.133 117.081 235.108 117.081C235.464 117.081 235.718 117.166 235.877 117.316C236.018 117.447 236.083 117.634 236.083 117.859C236.083 118.112 235.999 118.3 235.83 118.431C235.661 118.572 235.408 118.637 235.052 118.637C233.58 118.637 232.952 119.697 232.952 120.944V126.297C232.952 126.812 232.614 127.169 232.136 127.169ZM243.048 127.131C242.532 127.131 242.204 126.794 242.204 126.259V114.212C242.204 113.678 242.532 113.341 243.048 113.341C243.564 113.341 243.892 113.678 243.892 114.212V119.322H251.317V114.212C251.317 113.678 251.645 113.341 252.161 113.341C252.676 113.341 253.004 113.678 253.004 114.212V126.259C253.004 126.794 252.676 127.131 252.161 127.131C251.645 127.131 251.317 126.794 251.317 126.259V120.841H243.892V126.259C243.892 126.794 243.564 127.131 243.048 127.131ZM256.857 127.169C256.351 127.169 256.013 126.822 256.013 126.297V114.344C256.013 113.809 256.341 113.472 256.857 113.472H261.085C263.691 113.472 265.398 115.066 265.398 117.503C265.398 119.387 264.376 120.85 262.679 121.384L265.154 125.8C265.285 126.034 265.332 126.203 265.332 126.391C265.332 126.831 264.957 127.169 264.47 127.169C264.085 127.169 263.86 127.028 263.645 126.625L260.935 121.647H257.701V126.297C257.701 126.822 257.363 127.169 256.857 127.169ZM257.701 120.156H260.935C262.67 120.156 263.654 119.219 263.654 117.559C263.654 115.937 262.604 114.972 260.86 114.972H257.701V120.156ZM272.654 127.131C272.119 127.131 271.829 126.916 271.613 126.353L267.075 114.541C267 114.353 266.972 114.203 266.972 114.072C266.972 113.631 267.31 113.341 267.816 113.341C268.219 113.341 268.472 113.528 268.622 113.941L272.625 124.947H272.682L276.685 113.941C276.844 113.509 277.069 113.341 277.482 113.341C277.979 113.341 278.335 113.65 278.335 114.072C278.335 114.203 278.297 114.362 278.232 114.541L273.685 126.362C273.469 126.925 273.188 127.131 272.654 127.131ZM287.859 127.169C286.125 127.169 284.765 126.391 284.297 125.172C284.24 125.031 284.222 124.909 284.222 124.787C284.222 124.356 284.54 124.112 284.962 124.112C285.253 124.112 285.487 124.262 285.675 124.6C286.162 125.453 286.743 125.837 287.99 125.837C289.237 125.837 290.081 125.294 290.081 124.384C290.081 123.681 289.678 123.306 288.581 123.034L287.09 122.659C285.206 122.191 284.297 121.3 284.297 119.931C284.297 118.234 285.787 117.081 287.99 117.081C289.593 117.081 291.018 117.981 291.272 119.153C291.29 119.247 291.3 119.322 291.3 119.397C291.3 119.781 291.056 120.034 290.662 120.034C290.343 120.034 290.118 119.931 289.94 119.594C289.518 118.778 288.89 118.422 287.897 118.422C286.725 118.422 285.909 119.012 285.909 119.847C285.909 120.522 286.434 120.991 287.503 121.253L288.956 121.609C290.99 122.106 291.74 122.819 291.74 124.253C291.74 125.997 290.175 127.169 287.859 127.169ZM296.643 127.169C294.702 127.169 293.399 125.997 293.399 124.244C293.399 122.575 294.684 121.525 296.934 121.394L299.737 121.234V120.419C299.737 119.228 298.949 118.516 297.599 118.516C296.54 118.516 295.818 118.9 295.274 119.866C295.124 120.137 294.909 120.259 294.599 120.259C294.177 120.259 293.877 119.969 293.877 119.528C293.877 119.322 293.943 119.087 294.074 118.853C294.627 117.784 296.052 117.081 297.637 117.081C299.924 117.081 301.368 118.319 301.368 120.259V126.344C301.368 126.831 301.049 127.169 300.599 127.169C300.14 127.169 299.821 126.831 299.821 126.344V125.322H299.784C299.202 126.437 297.956 127.169 296.643 127.169ZM297.009 125.781C298.546 125.781 299.737 124.703 299.737 123.297V122.5L297.121 122.659C295.809 122.744 295.059 123.325 295.059 124.244C295.059 125.172 295.837 125.781 297.009 125.781ZM304.78 130.647C303.993 130.647 303.552 130.356 303.552 129.841C303.552 129.484 303.796 129.241 304.208 129.241C304.443 129.241 304.508 129.25 304.761 129.25C305.38 129.25 305.971 128.875 306.355 127.694L306.58 127.009L303.224 118.262C303.168 118.103 303.139 117.953 303.139 117.831C303.139 117.381 303.486 117.081 303.955 117.081C304.339 117.081 304.583 117.25 304.733 117.681L307.424 125.369H307.452L310.152 117.681C310.302 117.25 310.518 117.081 310.921 117.081C311.389 117.081 311.718 117.391 311.718 117.831C311.718 117.953 311.689 118.103 311.633 118.262L308.033 127.684C307.189 129.925 306.393 130.647 304.78 130.647ZM316.93 127.169C315.195 127.169 313.836 126.391 313.367 125.172C313.311 125.031 313.292 124.909 313.292 124.787C313.292 124.356 313.611 124.112 314.033 124.112C314.324 124.112 314.558 124.262 314.745 124.6C315.233 125.453 315.814 125.837 317.061 125.837C318.308 125.837 319.152 125.294 319.152 124.384C319.152 123.681 318.749 123.306 317.652 123.034L316.161 122.659C314.277 122.191 313.367 121.3 313.367 119.931C313.367 118.234 314.858 117.081 317.061 117.081C318.664 117.081 320.089 117.981 320.342 119.153C320.361 119.247 320.37 119.322 320.37 119.397C320.37 119.781 320.127 120.034 319.733 120.034C319.414 120.034 319.189 119.931 319.011 119.594C318.589 118.778 317.961 118.422 316.967 118.422C315.795 118.422 314.98 119.012 314.98 119.847C314.98 120.522 315.505 120.991 316.574 121.253L318.027 121.609C320.061 122.106 320.811 122.819 320.811 124.253C320.811 125.997 319.245 127.169 316.93 127.169ZM328.151 130.647C327.363 130.647 326.923 130.356 326.923 129.841C326.923 129.484 327.167 129.241 327.579 129.241C327.813 129.241 327.879 129.25 328.132 129.25C328.751 129.25 329.342 128.875 329.726 127.694L329.951 127.009L326.595 118.262C326.538 118.103 326.51 117.953 326.51 117.831C326.51 117.381 326.857 117.081 327.326 117.081C327.71 117.081 327.954 117.25 328.104 117.681L330.795 125.369H330.823L333.523 117.681C333.673 117.25 333.888 117.081 334.292 117.081C334.76 117.081 335.088 117.391 335.088 117.831C335.088 117.953 335.06 118.103 335.004 118.262L331.404 127.684C330.56 129.925 329.763 130.647 328.151 130.647ZM340.676 127.169C337.976 127.169 336.157 125.228 336.157 122.125C336.157 119.012 337.976 117.081 340.676 117.081C343.366 117.081 345.185 119.012 345.185 122.125C345.185 125.228 343.366 127.169 340.676 127.169ZM340.676 125.734C342.401 125.734 343.526 124.422 343.526 122.125C343.526 119.828 342.401 118.516 340.676 118.516C338.951 118.516 337.816 119.828 337.816 122.125C337.816 124.422 338.951 125.734 340.676 125.734ZM350.547 127.169C348.419 127.169 347.172 125.791 347.172 123.578V117.953C347.172 117.437 347.51 117.081 347.988 117.081C348.466 117.081 348.803 117.437 348.803 117.953V123.287C348.803 124.872 349.544 125.725 351.053 125.725C352.638 125.725 353.594 124.637 353.594 122.978V117.953C353.594 117.437 353.931 117.081 354.41 117.081C354.888 117.081 355.225 117.437 355.225 117.953V126.344C355.225 126.812 354.925 127.169 354.456 127.169C353.988 127.169 353.678 126.812 353.678 126.344V125.416H353.641C353.06 126.541 352.047 127.169 350.547 127.169ZM358.684 118.412C358.253 118.412 357.934 118.094 357.934 117.634V114.081C357.934 113.622 358.253 113.303 358.684 113.303C359.115 113.303 359.434 113.622 359.434 114.081V117.634C359.434 118.094 359.115 118.412 358.684 118.412ZM362.959 127.169C362.481 127.169 362.143 126.812 362.143 126.297V117.906C362.143 117.419 362.462 117.081 362.912 117.081C363.362 117.081 363.681 117.419 363.681 117.906V118.844H363.718C363.999 117.831 364.956 117.081 365.931 117.081C366.287 117.081 366.54 117.166 366.699 117.316C366.84 117.447 366.906 117.634 366.906 117.859C366.906 118.112 366.821 118.3 366.653 118.431C366.484 118.572 366.231 118.637 365.874 118.637C364.403 118.637 363.774 119.697 363.774 120.944V126.297C363.774 126.812 363.437 127.169 362.959 127.169ZM372.071 127.169C369.193 127.169 367.505 125.312 367.505 122.162C367.505 119.087 369.24 117.081 371.93 117.081C374.424 117.081 376.177 118.947 376.177 121.619C376.177 122.209 375.84 122.566 375.277 122.566H369.183C369.183 124.534 370.262 125.753 372.005 125.753C373.168 125.753 373.88 125.341 374.64 124.234C374.808 124 374.996 123.906 375.249 123.906C375.68 123.906 375.971 124.187 375.971 124.619C375.971 124.75 375.924 124.919 375.849 125.097C375.221 126.419 373.852 127.169 372.071 127.169ZM369.193 121.291H374.49C374.452 119.603 373.412 118.497 371.902 118.497C370.383 118.497 369.296 119.612 369.193 121.291ZM46.4438 154.169C44.7094 154.169 43.35 153.391 42.8813 152.172C42.825 152.031 42.8063 151.909 42.8063 151.787C42.8063 151.356 43.125 151.112 43.5469 151.112C43.8375 151.112 44.0719 151.262 44.2594 151.6C44.7469 152.453 45.3281 152.837 46.575 152.837C47.8219 152.837 48.6656 152.294 48.6656 151.384C48.6656 150.681 48.2625 150.306 47.1656 150.034L45.675 149.659C43.7906 149.191 42.8813 148.3 42.8813 146.931C42.8813 145.234 44.3719 144.081 46.575 144.081C48.1781 144.081 49.6031 144.981 49.8563 146.153C49.875 146.247 49.8844 146.322 49.8844 146.397C49.8844 146.781 49.6406 147.034 49.2469 147.034C48.9281 147.034 48.7031 146.931 48.525 146.594C48.1031 145.778 47.475 145.422 46.4813 145.422C45.3094 145.422 44.4938 146.012 44.4938 146.847C44.4938 147.522 45.0188 147.991 46.0875 148.253L47.5406 148.609C49.575 149.106 50.325 149.819 50.325 151.253C50.325 152.997 48.7594 154.169 46.4438 154.169ZM53.2871 154.169C52.809 154.169 52.4715 153.812 52.4715 153.297V141.156C52.4715 140.65 52.7996 140.303 53.2871 140.303C53.784 140.303 54.1028 140.65 54.1028 141.156V145.806H54.1403C54.684 144.719 55.7528 144.081 57.234 144.081C59.3715 144.081 60.6653 145.525 60.6653 147.7V153.297C60.6653 153.812 60.3278 154.169 59.8496 154.169C59.3715 154.169 59.034 153.812 59.034 153.297V148C59.034 146.453 58.2559 145.525 56.7278 145.525C55.1059 145.525 54.1028 146.631 54.1028 148.319V153.297C54.1028 153.812 53.7653 154.169 53.2871 154.169ZM65.9618 154.169C64.0211 154.169 62.718 152.997 62.718 151.244C62.718 149.575 64.0024 148.525 66.2524 148.394L69.0555 148.234V147.419C69.0555 146.228 68.268 145.516 66.918 145.516C65.8586 145.516 65.1368 145.9 64.593 146.866C64.443 147.137 64.2274 147.259 63.918 147.259C63.4961 147.259 63.1961 146.969 63.1961 146.528C63.1961 146.322 63.2618 146.087 63.393 145.853C63.9461 144.784 65.3711 144.081 66.9555 144.081C69.243 144.081 70.6868 145.319 70.6868 147.259V153.344C70.6868 153.831 70.368 154.169 69.918 154.169C69.4586 154.169 69.1399 153.831 69.1399 153.344V152.322H69.1024C68.5211 153.437 67.2743 154.169 65.9618 154.169ZM66.3274 152.781C67.8649 152.781 69.0555 151.703 69.0555 150.297V149.5L66.4399 149.659C65.1274 149.744 64.3774 150.325 64.3774 151.244C64.3774 152.172 65.1555 152.781 66.3274 152.781ZM73.9583 154.169C73.4801 154.169 73.1426 153.812 73.1426 153.297V144.906C73.1426 144.419 73.4614 144.081 73.9114 144.081C74.3614 144.081 74.6801 144.419 74.6801 144.906V145.844H74.7176C74.9989 144.831 75.9551 144.081 76.9301 144.081C77.2864 144.081 77.5395 144.166 77.6989 144.316C77.8395 144.447 77.9051 144.634 77.9051 144.859C77.9051 145.112 77.8208 145.3 77.652 145.431C77.4833 145.572 77.2301 145.637 76.8739 145.637C75.402 145.637 74.7739 146.697 74.7739 147.944V153.297C74.7739 153.812 74.4364 154.169 73.9583 154.169ZM80.2673 157.441C79.7891 157.441 79.4516 157.084 79.4516 156.569V144.906C79.4516 144.419 79.7704 144.081 80.2298 144.081C80.6798 144.081 80.9985 144.419 80.9985 144.906V145.9H81.036C81.636 144.803 82.7704 144.081 84.186 144.081C86.6704 144.081 88.3579 146.069 88.3579 149.125C88.3579 152.181 86.6798 154.169 84.2235 154.169C82.8266 154.169 81.7016 153.484 81.1204 152.416H81.0829V156.569C81.0829 157.084 80.7454 157.441 80.2673 157.441ZM83.8673 152.734C85.6016 152.734 86.6891 151.337 86.6891 149.125C86.6891 146.922 85.6016 145.516 83.8673 145.516C82.1985 145.516 81.0735 146.959 81.0735 149.125C81.0735 151.3 82.1985 152.734 83.8673 152.734ZM94.4794 154.169C91.6013 154.169 89.9138 152.312 89.9138 149.162C89.9138 146.087 91.6481 144.081 94.3388 144.081C96.8325 144.081 98.5856 145.947 98.5856 148.619C98.5856 149.209 98.2481 149.566 97.6856 149.566H91.5919C91.5919 151.534 92.67 152.753 94.4138 152.753C95.5763 152.753 96.2888 152.341 97.0481 151.234C97.2169 151 97.4044 150.906 97.6575 150.906C98.0888 150.906 98.3794 151.187 98.3794 151.619C98.3794 151.75 98.3325 151.919 98.2575 152.097C97.6294 153.419 96.2606 154.169 94.4794 154.169ZM91.6013 148.291H96.8981C96.8606 146.603 95.82 145.497 94.3106 145.497C92.7919 145.497 91.7044 146.612 91.6013 148.291ZM104.004 154.169C102.27 154.169 100.91 153.391 100.442 152.172C100.385 152.031 100.367 151.909 100.367 151.787C100.367 151.356 100.685 151.112 101.107 151.112C101.398 151.112 101.632 151.262 101.82 151.6C102.307 152.453 102.888 152.837 104.135 152.837C105.382 152.837 106.226 152.294 106.226 151.384C106.226 150.681 105.823 150.306 104.726 150.034L103.235 149.659C101.351 149.191 100.442 148.3 100.442 146.931C100.442 145.234 101.932 144.081 104.135 144.081C105.738 144.081 107.163 144.981 107.417 146.153C107.435 146.247 107.445 146.322 107.445 146.397C107.445 146.781 107.201 147.034 106.807 147.034C106.488 147.034 106.263 146.931 106.085 146.594C105.663 145.778 105.035 145.422 104.042 145.422C102.87 145.422 102.054 146.012 102.054 146.847C102.054 147.522 102.579 147.991 103.648 148.253L105.101 148.609C107.135 149.106 107.885 149.819 107.885 151.253C107.885 152.997 106.32 154.169 104.004 154.169ZM110.472 151.75V145.591H109.657C109.188 145.591 108.926 145.347 108.926 144.916C108.926 144.494 109.188 144.25 109.657 144.25H110.472V142.581C110.472 142.066 110.81 141.709 111.288 141.709C111.766 141.709 112.104 142.066 112.104 142.581V144.25H113.36C113.829 144.25 114.091 144.494 114.091 144.916C114.091 145.347 113.829 145.591 113.36 145.591H112.104V151.394C112.104 152.219 112.394 152.612 113.21 152.669L113.351 152.678C113.885 152.716 114.129 152.931 114.129 153.316C114.129 153.812 113.847 154.075 112.938 154.075H112.835C111.26 154.075 110.472 153.306 110.472 151.75ZM123.287 154.169C121.347 154.169 120.044 152.997 120.044 151.244C120.044 149.575 121.328 148.525 123.578 148.394L126.381 148.234V147.419C126.381 146.228 125.594 145.516 124.244 145.516C123.184 145.516 122.462 145.9 121.919 146.866C121.769 147.137 121.553 147.259 121.244 147.259C120.822 147.259 120.522 146.969 120.522 146.528C120.522 146.322 120.587 146.087 120.719 145.853C121.272 144.784 122.697 144.081 124.281 144.081C126.569 144.081 128.012 145.319 128.012 147.259V153.344C128.012 153.831 127.694 154.169 127.244 154.169C126.784 154.169 126.465 153.831 126.465 153.344V152.322H126.428C125.847 153.437 124.6 154.169 123.287 154.169ZM123.653 152.781C125.19 152.781 126.381 151.703 126.381 150.297V149.5L123.765 149.659C122.453 149.744 121.703 150.325 121.703 151.244C121.703 152.172 122.481 152.781 123.653 152.781ZM131.284 154.169C130.806 154.169 130.468 153.812 130.468 153.297V144.906C130.468 144.419 130.787 144.081 131.237 144.081C131.687 144.081 132.006 144.419 132.006 144.906V145.806H132.043C132.587 144.756 133.628 144.081 135.137 144.081C137.274 144.081 138.512 145.459 138.512 147.672V153.297C138.512 153.812 138.174 154.169 137.696 154.169C137.218 154.169 136.881 153.812 136.881 153.297V147.962C136.881 146.387 136.14 145.525 134.64 145.525C133.103 145.525 132.099 146.612 132.099 148.262V153.297C132.099 153.812 131.762 154.169 131.284 154.169ZM144.671 154.169C142.187 154.169 140.499 152.181 140.499 149.125C140.499 146.069 142.177 144.081 144.633 144.081C146.03 144.081 147.155 144.766 147.737 145.834H147.774V141.175C147.774 140.659 148.112 140.303 148.59 140.303C149.068 140.303 149.405 140.659 149.405 141.175V153.372C149.405 153.841 149.077 154.169 148.608 154.169C148.149 154.169 147.774 153.85 147.774 153.372V152.256H147.746C147.212 153.419 146.199 154.169 144.671 154.169ZM144.98 152.734C146.658 152.734 147.783 151.309 147.783 149.125C147.783 146.95 146.658 145.516 144.98 145.516C143.255 145.516 142.168 146.922 142.168 149.125C142.168 151.337 143.255 152.734 144.98 152.734ZM157.214 154.169C156.736 154.169 156.398 153.812 156.398 153.297V141.156C156.398 140.65 156.726 140.303 157.214 140.303C157.711 140.303 158.03 140.65 158.03 141.156V145.806H158.067C158.611 144.719 159.68 144.081 161.161 144.081C163.298 144.081 164.592 145.525 164.592 147.7V153.297C164.592 153.812 164.255 154.169 163.776 154.169C163.298 154.169 162.961 153.812 162.961 153.297V148C162.961 146.453 162.183 145.525 160.655 145.525C159.033 145.525 158.03 146.631 158.03 148.319V153.297C158.03 153.812 157.692 154.169 157.214 154.169ZM169.889 154.169C167.948 154.169 166.645 152.997 166.645 151.244C166.645 149.575 167.929 148.525 170.179 148.394L172.982 148.234V147.419C172.982 146.228 172.195 145.516 170.845 145.516C169.785 145.516 169.064 145.9 168.52 146.866C168.37 147.137 168.154 147.259 167.845 147.259C167.423 147.259 167.123 146.969 167.123 146.528C167.123 146.322 167.189 146.087 167.32 145.853C167.873 144.784 169.298 144.081 170.882 144.081C173.17 144.081 174.614 145.319 174.614 147.259V153.344C174.614 153.831 174.295 154.169 173.845 154.169C173.385 154.169 173.067 153.831 173.067 153.344V152.322H173.029C172.448 153.437 171.201 154.169 169.889 154.169ZM170.254 152.781C171.792 152.781 172.982 151.703 172.982 150.297V149.5L170.367 149.659C169.054 149.744 168.304 150.325 168.304 151.244C168.304 152.172 169.082 152.781 170.254 152.781ZM177.885 154.169C177.407 154.169 177.069 153.812 177.069 153.297V144.906C177.069 144.419 177.388 144.081 177.838 144.081C178.288 144.081 178.607 144.419 178.607 144.906V145.806H178.644C179.188 144.756 180.229 144.081 181.738 144.081C183.876 144.081 185.113 145.459 185.113 147.672V153.297C185.113 153.812 184.776 154.169 184.298 154.169C183.819 154.169 183.482 153.812 183.482 153.297V147.962C183.482 146.387 182.741 145.525 181.241 145.525C179.704 145.525 178.701 146.612 178.701 148.262V153.297C178.701 153.812 178.363 154.169 177.885 154.169ZM191.272 154.169C188.788 154.169 187.1 152.181 187.1 149.125C187.1 146.069 188.778 144.081 191.235 144.081C192.632 144.081 193.757 144.766 194.338 145.834H194.375V141.175C194.375 140.659 194.713 140.303 195.191 140.303C195.669 140.303 196.007 140.659 196.007 141.175V153.372C196.007 153.841 195.678 154.169 195.21 154.169C194.75 154.169 194.375 153.85 194.375 153.372V152.256H194.347C193.813 153.419 192.8 154.169 191.272 154.169ZM191.582 152.734C193.26 152.734 194.385 151.309 194.385 149.125C194.385 146.95 193.26 145.516 191.582 145.516C189.857 145.516 188.769 146.922 188.769 149.125C188.769 151.337 189.857 152.734 191.582 152.734ZM201.978 154.169C200.244 154.169 198.884 153.391 198.416 152.172C198.359 152.031 198.341 151.909 198.341 151.787C198.341 151.356 198.659 151.112 199.081 151.112C199.372 151.112 199.606 151.262 199.794 151.6C200.281 152.453 200.862 152.837 202.109 152.837C203.356 152.837 204.2 152.294 204.2 151.384C204.2 150.681 203.797 150.306 202.7 150.034L201.209 149.659C199.325 149.191 198.416 148.3 198.416 146.931C198.416 145.234 199.906 144.081 202.109 144.081C203.712 144.081 205.137 144.981 205.391 146.153C205.409 146.247 205.419 146.322 205.419 146.397C205.419 146.781 205.175 147.034 204.781 147.034C204.462 147.034 204.237 146.931 204.059 146.594C203.637 145.778 203.009 145.422 202.016 145.422C200.844 145.422 200.028 146.012 200.028 146.847C200.028 147.522 200.553 147.991 201.622 148.253L203.075 148.609C205.109 149.106 205.859 149.819 205.859 151.253C205.859 152.997 204.294 154.169 201.978 154.169ZM212.768 151.75V145.591H211.952C211.484 145.591 211.221 145.347 211.221 144.916C211.221 144.494 211.484 144.25 211.952 144.25H212.768V142.581C212.768 142.066 213.105 141.709 213.584 141.709C214.062 141.709 214.399 142.066 214.399 142.581V144.25H215.655C216.124 144.25 216.387 144.494 216.387 144.916C216.387 145.347 216.124 145.591 215.655 145.591H214.399V151.394C214.399 152.219 214.69 152.612 215.505 152.669L215.646 152.678C216.18 152.716 216.424 152.931 216.424 153.316C216.424 153.812 216.143 154.075 215.234 154.075H215.13C213.555 154.075 212.768 153.306 212.768 151.75ZM219.321 154.169C218.843 154.169 218.505 153.812 218.505 153.297V141.156C218.505 140.65 218.833 140.303 219.321 140.303C219.818 140.303 220.136 140.65 220.136 141.156V145.806H220.174C220.718 144.719 221.786 144.081 223.268 144.081C225.405 144.081 226.699 145.525 226.699 147.7V153.297C226.699 153.812 226.361 154.169 225.883 154.169C225.405 154.169 225.068 153.812 225.068 153.297V148C225.068 146.453 224.289 145.525 222.761 145.525C221.139 145.525 220.136 146.631 220.136 148.319V153.297C220.136 153.812 219.799 154.169 219.321 154.169ZM231.995 154.169C230.055 154.169 228.752 152.997 228.752 151.244C228.752 149.575 230.036 148.525 232.286 148.394L235.089 148.234V147.419C235.089 146.228 234.302 145.516 232.952 145.516C231.892 145.516 231.17 145.9 230.627 146.866C230.477 147.137 230.261 147.259 229.952 147.259C229.53 147.259 229.23 146.969 229.23 146.528C229.23 146.322 229.295 146.087 229.427 145.853C229.98 144.784 231.405 144.081 232.989 144.081C235.277 144.081 236.72 145.319 236.72 147.259V153.344C236.72 153.831 236.402 154.169 235.952 154.169C235.492 154.169 235.173 153.831 235.173 153.344V152.322H235.136C234.555 153.437 233.308 154.169 231.995 154.169ZM232.361 152.781C233.898 152.781 235.089 151.703 235.089 150.297V149.5L232.473 149.659C231.161 149.744 230.411 150.325 230.411 151.244C230.411 152.172 231.189 152.781 232.361 152.781ZM239.701 151.75V145.591H238.886C238.417 145.591 238.154 145.347 238.154 144.916C238.154 144.494 238.417 144.25 238.886 144.25H239.701V142.581C239.701 142.066 240.039 141.709 240.517 141.709C240.995 141.709 241.332 142.066 241.332 142.581V144.25H242.589C243.057 144.25 243.32 144.494 243.32 144.916C243.32 145.347 243.057 145.591 242.589 145.591H241.332V151.394C241.332 152.219 241.623 152.612 242.439 152.669L242.579 152.678C243.114 152.716 243.357 152.931 243.357 153.316C243.357 153.812 243.076 154.075 242.167 154.075H242.064C240.489 154.075 239.701 153.306 239.701 151.75ZM250.575 154.169C250.097 154.169 249.76 153.812 249.76 153.297V141.156C249.76 140.65 250.088 140.303 250.575 140.303C251.072 140.303 251.391 140.65 251.391 141.156V145.806H251.429C251.972 144.719 253.041 144.081 254.522 144.081C256.66 144.081 257.954 145.525 257.954 147.7V153.297C257.954 153.812 257.616 154.169 257.138 154.169C256.66 154.169 256.322 153.812 256.322 153.297V148C256.322 146.453 255.544 145.525 254.016 145.525C252.394 145.525 251.391 146.631 251.391 148.319V153.297C251.391 153.812 251.054 154.169 250.575 154.169ZM264.45 154.169C261.75 154.169 259.931 152.228 259.931 149.125C259.931 146.012 261.75 144.081 264.45 144.081C267.141 144.081 268.959 146.012 268.959 149.125C268.959 152.228 267.141 154.169 264.45 154.169ZM264.45 152.734C266.175 152.734 267.3 151.422 267.3 149.125C267.3 146.828 266.175 145.516 264.45 145.516C262.725 145.516 261.591 146.828 261.591 149.125C261.591 151.422 262.725 152.734 264.45 152.734ZM274.322 154.169C272.193 154.169 270.947 152.791 270.947 150.578V144.953C270.947 144.437 271.284 144.081 271.762 144.081C272.24 144.081 272.578 144.437 272.578 144.953V150.287C272.578 151.872 273.318 152.725 274.828 152.725C276.412 152.725 277.368 151.637 277.368 149.978V144.953C277.368 144.437 277.706 144.081 278.184 144.081C278.662 144.081 279 144.437 279 144.953V153.344C279 153.812 278.7 154.169 278.231 154.169C277.762 154.169 277.453 153.812 277.453 153.344V152.416H277.415C276.834 153.541 275.822 154.169 274.322 154.169ZM282.318 154.169C281.84 154.169 281.502 153.812 281.502 153.297V144.906C281.502 144.419 281.821 144.081 282.271 144.081C282.721 144.081 283.04 144.419 283.04 144.906V145.844H283.077C283.359 144.831 284.315 144.081 285.29 144.081C285.646 144.081 285.899 144.166 286.059 144.316C286.199 144.447 286.265 144.634 286.265 144.859C286.265 145.112 286.181 145.3 286.012 145.431C285.843 145.572 285.59 145.637 285.234 145.637C283.762 145.637 283.134 146.697 283.134 147.944V153.297C283.134 153.812 282.796 154.169 282.318 154.169ZM292.658 151.75V145.591H291.842C291.374 145.591 291.111 145.347 291.111 144.916C291.111 144.494 291.374 144.25 291.842 144.25H292.658V142.581C292.658 142.066 292.995 141.709 293.474 141.709C293.952 141.709 294.289 142.066 294.289 142.581V144.25H295.545C296.014 144.25 296.277 144.494 296.277 144.916C296.277 145.347 296.014 145.591 295.545 145.591H294.289V151.394C294.289 152.219 294.58 152.612 295.395 152.669L295.536 152.678C296.07 152.716 296.314 152.931 296.314 153.316C296.314 153.812 296.033 154.075 295.124 154.075H295.02C293.445 154.075 292.658 153.306 292.658 151.75ZM302.07 154.169C299.37 154.169 297.551 152.228 297.551 149.125C297.551 146.012 299.37 144.081 302.07 144.081C304.761 144.081 306.579 146.012 306.579 149.125C306.579 152.228 304.761 154.169 302.07 154.169ZM302.07 152.734C303.795 152.734 304.92 151.422 304.92 149.125C304.92 146.828 303.795 145.516 302.07 145.516C300.345 145.516 299.211 146.828 299.211 149.125C299.211 151.422 300.345 152.734 302.07 152.734ZM313.46 151.75V145.591H312.644C312.176 145.591 311.913 145.347 311.913 144.916C311.913 144.494 312.176 144.25 312.644 144.25H313.46V142.581C313.46 142.066 313.797 141.709 314.276 141.709C314.754 141.709 315.091 142.066 315.091 142.581V144.25H316.347C316.816 144.25 317.079 144.494 317.079 144.916C317.079 145.347 316.816 145.591 316.347 145.591H315.091V151.394C315.091 152.219 315.382 152.612 316.197 152.669L316.338 152.678C316.872 152.716 317.116 152.931 317.116 153.316C317.116 153.812 316.835 154.075 315.926 154.075H315.822C314.247 154.075 313.46 153.306 313.46 151.75ZM320.013 154.169C319.535 154.169 319.197 153.812 319.197 153.297V141.156C319.197 140.65 319.525 140.303 320.013 140.303C320.51 140.303 320.828 140.65 320.828 141.156V145.806H320.866C321.41 144.719 322.478 144.081 323.96 144.081C326.097 144.081 327.391 145.525 327.391 147.7V153.297C327.391 153.812 327.053 154.169 326.575 154.169C326.097 154.169 325.76 153.812 325.76 153.297V148C325.76 146.453 324.981 145.525 323.453 145.525C321.831 145.525 320.828 146.631 320.828 148.319V153.297C320.828 153.812 320.491 154.169 320.013 154.169ZM333.934 154.169C331.056 154.169 329.369 152.312 329.369 149.162C329.369 146.087 331.103 144.081 333.794 144.081C336.287 144.081 338.04 145.947 338.04 148.619C338.04 149.209 337.703 149.566 337.14 149.566H331.047C331.047 151.534 332.125 152.753 333.869 152.753C335.031 152.753 335.744 152.341 336.503 151.234C336.672 151 336.859 150.906 337.112 150.906C337.544 150.906 337.834 151.187 337.834 151.619C337.834 151.75 337.787 151.919 337.712 152.097C337.084 153.419 335.715 154.169 333.934 154.169ZM331.056 148.291H336.353C336.315 146.603 335.275 145.497 333.765 145.497C332.247 145.497 331.159 146.612 331.056 148.291ZM345.296 154.169C344.818 154.169 344.48 153.812 344.48 153.297V141.156C344.48 140.65 344.808 140.303 345.296 140.303C345.793 140.303 346.112 140.65 346.112 141.156V145.806H346.149C346.693 144.719 347.762 144.081 349.243 144.081C351.38 144.081 352.674 145.525 352.674 147.7V153.297C352.674 153.812 352.337 154.169 351.858 154.169C351.38 154.169 351.043 153.812 351.043 153.297V148C351.043 146.453 350.265 145.525 348.737 145.525C347.115 145.525 346.112 146.631 346.112 148.319V153.297C346.112 153.812 345.774 154.169 345.296 154.169ZM357.971 154.169C356.03 154.169 354.727 152.997 354.727 151.244C354.727 149.575 356.011 148.525 358.261 148.394L361.064 148.234V147.419C361.064 146.228 360.277 145.516 358.927 145.516C357.867 145.516 357.146 145.9 356.602 146.866C356.452 147.137 356.236 147.259 355.927 147.259C355.505 147.259 355.205 146.969 355.205 146.528C355.205 146.322 355.271 146.087 355.402 145.853C355.955 144.784 357.38 144.081 358.964 144.081C361.252 144.081 362.696 145.319 362.696 147.259V153.344C362.696 153.831 362.377 154.169 361.927 154.169C361.467 154.169 361.149 153.831 361.149 153.344V152.322H361.111C360.53 153.437 359.283 154.169 357.971 154.169ZM358.336 152.781C359.874 152.781 361.064 151.703 361.064 150.297V149.5L358.449 149.659C357.136 149.744 356.386 150.325 356.386 151.244C356.386 152.172 357.164 152.781 358.336 152.781ZM365.967 154.169C365.489 154.169 365.151 153.812 365.151 153.297V144.906C365.151 144.419 365.47 144.081 365.92 144.081C366.37 144.081 366.689 144.419 366.689 144.906V145.844H366.726C367.008 144.831 367.964 144.081 368.939 144.081C369.295 144.081 369.548 144.166 369.708 144.316C369.848 144.447 369.914 144.634 369.914 144.859C369.914 145.112 369.83 145.3 369.661 145.431C369.492 145.572 369.239 145.637 368.883 145.637C367.411 145.637 366.783 146.697 366.783 147.944V153.297C366.783 153.812 366.445 154.169 365.967 154.169ZM374.685 154.169C372.201 154.169 370.514 152.181 370.514 149.125C370.514 146.069 372.192 144.081 374.648 144.081C376.045 144.081 377.17 144.766 377.751 145.834H377.789V141.175C377.789 140.659 378.126 140.303 378.604 140.303C379.082 140.303 379.42 140.659 379.42 141.175V153.372C379.42 153.841 379.092 154.169 378.623 154.169C378.164 154.169 377.789 153.85 377.789 153.372V152.256H377.76C377.226 153.419 376.214 154.169 374.685 154.169ZM374.995 152.734C376.673 152.734 377.798 151.309 377.798 149.125C377.798 146.95 376.673 145.516 374.995 145.516C373.27 145.516 372.182 146.922 372.182 149.125C372.182 151.337 373.27 152.734 374.995 152.734ZM43.875 184.441C43.3969 184.441 43.0594 184.084 43.0594 183.569V171.906C43.0594 171.419 43.3781 171.081 43.8375 171.081C44.2875 171.081 44.6063 171.419 44.6063 171.906V172.9H44.6438C45.2438 171.803 46.3781 171.081 47.7938 171.081C50.2781 171.081 51.9656 173.069 51.9656 176.125C51.9656 179.181 50.2875 181.169 47.8313 181.169C46.4344 181.169 45.3094 180.484 44.7281 179.416H44.6906V183.569C44.6906 184.084 44.3531 184.441 43.875 184.441ZM47.475 179.734C49.2094 179.734 50.2969 178.337 50.2969 176.125C50.2969 173.922 49.2094 172.516 47.475 172.516C45.8063 172.516 44.6813 173.959 44.6813 176.125C44.6813 178.3 45.8063 179.734 47.475 179.734ZM54.8153 181.169C54.3371 181.169 53.9996 180.812 53.9996 180.297V171.906C53.9996 171.419 54.3184 171.081 54.7684 171.081C55.2184 171.081 55.5371 171.419 55.5371 171.906V172.844H55.5746C55.8559 171.831 56.8121 171.081 57.7871 171.081C58.1434 171.081 58.3965 171.166 58.5559 171.316C58.6965 171.447 58.7621 171.634 58.7621 171.859C58.7621 172.112 58.6778 172.3 58.509 172.431C58.3403 172.572 58.0871 172.637 57.7309 172.637C56.259 172.637 55.6309 173.697 55.6309 174.944V180.297C55.6309 180.812 55.2934 181.169 54.8153 181.169ZM63.8805 181.169C61.1805 181.169 59.3618 179.228 59.3618 176.125C59.3618 173.012 61.1805 171.081 63.8805 171.081C66.5711 171.081 68.3899 173.012 68.3899 176.125C68.3899 179.228 66.5711 181.169 63.8805 181.169ZM63.8805 179.734C65.6055 179.734 66.7305 178.422 66.7305 176.125C66.7305 173.828 65.6055 172.516 63.8805 172.516C62.1555 172.516 61.0211 173.828 61.0211 176.125C61.0211 178.422 62.1555 179.734 63.8805 179.734ZM71.2676 181.169C70.8083 181.169 70.5083 180.85 70.5083 180.372V168.175C70.5083 167.659 70.8458 167.303 71.3239 167.303C71.802 167.303 72.1395 167.659 72.1395 168.175V172.881H72.177C72.7958 171.766 73.9301 171.081 75.3083 171.081C77.7645 171.081 79.4239 173.069 79.4239 176.125C79.4239 179.191 77.7739 181.169 75.2801 181.169C73.8551 181.169 72.7395 180.475 72.102 179.35H72.0645V180.372C72.0645 180.841 71.7364 181.169 71.2676 181.169ZM74.9614 179.734C76.6864 179.734 77.7551 178.356 77.7551 176.125C77.7551 173.912 76.6864 172.516 74.9614 172.516C73.3114 172.516 72.1301 173.959 72.1301 176.125C72.1301 178.3 73.3114 179.734 74.9614 179.734ZM82.3579 181.169C81.8798 181.169 81.5423 180.812 81.5423 180.297V168.175C81.5423 167.659 81.8798 167.303 82.3579 167.303C82.836 167.303 83.1735 167.659 83.1735 168.175V180.297C83.1735 180.812 82.836 181.169 82.3579 181.169ZM89.8481 181.169C86.97 181.169 85.2825 179.312 85.2825 176.162C85.2825 173.087 87.0169 171.081 89.7075 171.081C92.2013 171.081 93.9544 172.947 93.9544 175.619C93.9544 176.209 93.6169 176.566 93.0544 176.566H86.9606C86.9606 178.534 88.0388 179.753 89.7825 179.753C90.945 179.753 91.6575 179.341 92.4169 178.234C92.5856 178 92.7731 177.906 93.0263 177.906C93.4575 177.906 93.7481 178.187 93.7481 178.619C93.7481 178.75 93.7013 178.919 93.6263 179.097C92.9981 180.419 91.6294 181.169 89.8481 181.169ZM86.97 175.291H92.2669C92.2294 173.603 91.1888 172.497 89.6794 172.497C88.1606 172.497 87.0731 173.612 86.97 175.291ZM96.804 181.169C96.3071 181.169 95.9884 180.794 95.9884 180.297V171.906C95.9884 171.419 96.3071 171.081 96.7571 171.081C97.2071 171.081 97.5259 171.419 97.5259 171.906V172.806H97.5634C98.0228 171.775 99.0165 171.081 100.329 171.081C101.66 171.081 102.645 171.756 103.067 172.937H103.104C103.648 171.775 104.792 171.081 106.16 171.081C108.092 171.081 109.338 172.337 109.338 174.269V180.297C109.338 180.794 109.02 181.169 108.523 181.169C108.026 181.169 107.707 180.794 107.707 180.297V174.644C107.707 173.312 106.967 172.525 105.682 172.525C104.388 172.525 103.479 173.481 103.479 174.803V180.297C103.479 180.794 103.16 181.169 102.663 181.169C102.167 181.169 101.848 180.794 101.848 180.297V174.466C101.848 173.294 101.06 172.525 99.8509 172.525C98.5571 172.525 97.6196 173.537 97.6196 174.887V180.297C97.6196 180.794 97.3009 181.169 96.804 181.169ZM113.182 174.194C112.582 174.194 112.113 173.725 112.113 173.125C112.113 172.525 112.582 172.056 113.182 172.056C113.782 172.056 114.251 172.525 114.251 173.125C114.251 173.725 113.782 174.194 113.182 174.194ZM113.154 178.825C113.632 178.825 113.969 179.106 113.969 179.566C113.969 179.734 113.951 179.875 113.894 180.081L113.032 183.306C112.929 183.709 112.713 183.897 112.319 183.897C111.944 183.897 111.654 183.681 111.654 183.306C111.654 183.166 111.672 183.072 111.682 183.016L112.347 179.537C112.451 179.022 112.713 178.825 113.154 178.825ZM121.909 178.75V172.591H121.094C120.625 172.591 120.362 172.347 120.362 171.916C120.362 171.494 120.625 171.25 121.094 171.25H121.909V169.581C121.909 169.066 122.247 168.709 122.725 168.709C123.203 168.709 123.54 169.066 123.54 169.581V171.25H124.797C125.265 171.25 125.528 171.494 125.528 171.916C125.528 172.347 125.265 172.591 124.797 172.591H123.54V178.394C123.54 179.219 123.831 179.612 124.647 179.669L124.787 179.678C125.322 179.716 125.565 179.931 125.565 180.316C125.565 180.812 125.284 181.075 124.375 181.075H124.272C122.697 181.075 121.909 180.306 121.909 178.75ZM128.462 181.169C127.984 181.169 127.646 180.812 127.646 180.297V168.156C127.646 167.65 127.974 167.303 128.462 167.303C128.959 167.303 129.278 167.65 129.278 168.156V172.806H129.315C129.859 171.719 130.928 171.081 132.409 171.081C134.546 171.081 135.84 172.525 135.84 174.7V180.297C135.84 180.812 135.503 181.169 135.024 181.169C134.546 181.169 134.209 180.812 134.209 180.297V175C134.209 173.453 133.431 172.525 131.903 172.525C130.281 172.525 129.278 173.631 129.278 175.319V180.297C129.278 180.812 128.94 181.169 128.462 181.169ZM142.383 181.169C139.505 181.169 137.818 179.312 137.818 176.162C137.818 173.087 139.552 171.081 142.243 171.081C144.737 171.081 146.49 172.947 146.49 175.619C146.49 176.209 146.152 176.566 145.59 176.566H139.496C139.496 178.534 140.574 179.753 142.318 179.753C143.48 179.753 144.193 179.341 144.952 178.234C145.121 178 145.308 177.906 145.562 177.906C145.993 177.906 146.283 178.187 146.283 178.619C146.283 178.75 146.237 178.919 146.162 179.097C145.533 180.419 144.165 181.169 142.383 181.169ZM139.505 175.291H144.802C144.765 173.603 143.724 172.497 142.215 172.497C140.696 172.497 139.608 173.612 139.505 175.291ZM156.23 181.169C154.495 181.169 153.136 180.391 152.667 179.172C152.611 179.031 152.592 178.909 152.592 178.787C152.592 178.356 152.911 178.112 153.333 178.112C153.623 178.112 153.858 178.262 154.045 178.6C154.533 179.453 155.114 179.837 156.361 179.837C157.608 179.837 158.451 179.294 158.451 178.384C158.451 177.681 158.048 177.306 156.951 177.034L155.461 176.659C153.576 176.191 152.667 175.3 152.667 173.931C152.667 172.234 154.158 171.081 156.361 171.081C157.964 171.081 159.389 171.981 159.642 173.153C159.661 173.247 159.67 173.322 159.67 173.397C159.67 173.781 159.426 174.034 159.033 174.034C158.714 174.034 158.489 173.931 158.311 173.594C157.889 172.778 157.261 172.422 156.267 172.422C155.095 172.422 154.28 173.012 154.28 173.847C154.28 174.522 154.805 174.991 155.873 175.253L157.326 175.609C159.361 176.106 160.111 176.819 160.111 178.253C160.111 179.997 158.545 181.169 156.23 181.169ZM162.698 178.75V172.591H161.882C161.414 172.591 161.151 172.347 161.151 171.916C161.151 171.494 161.414 171.25 161.882 171.25H162.698V169.581C162.698 169.066 163.035 168.709 163.514 168.709C163.992 168.709 164.329 169.066 164.329 169.581V171.25H165.585C166.054 171.25 166.317 171.494 166.317 171.916C166.317 172.347 166.054 172.591 165.585 172.591H164.329V178.394C164.329 179.219 164.62 179.612 165.435 179.669L165.576 179.678C166.11 179.716 166.354 179.931 166.354 180.316C166.354 180.812 166.073 181.075 165.164 181.075H165.06C163.485 181.075 162.698 180.306 162.698 178.75ZM171.004 181.169C169.063 181.169 167.76 179.997 167.76 178.244C167.76 176.575 169.044 175.525 171.294 175.394L174.098 175.234V174.419C174.098 173.228 173.31 172.516 171.96 172.516C170.901 172.516 170.179 172.9 169.635 173.866C169.485 174.137 169.269 174.259 168.96 174.259C168.538 174.259 168.238 173.969 168.238 173.528C168.238 173.322 168.304 173.087 168.435 172.853C168.988 171.784 170.413 171.081 171.998 171.081C174.285 171.081 175.729 172.319 175.729 174.259V180.344C175.729 180.831 175.41 181.169 174.96 181.169C174.501 181.169 174.182 180.831 174.182 180.344V179.322H174.144C173.563 180.437 172.316 181.169 171.004 181.169ZM171.369 179.781C172.907 179.781 174.098 178.703 174.098 177.297V176.5L171.482 176.659C170.169 176.744 169.419 177.325 169.419 178.244C169.419 179.172 170.198 179.781 171.369 179.781ZM179 181.169C178.522 181.169 178.185 180.812 178.185 180.297V171.906C178.185 171.419 178.503 171.081 178.953 171.081C179.403 171.081 179.722 171.419 179.722 171.906V172.806H179.76C180.303 171.756 181.344 171.081 182.853 171.081C184.991 171.081 186.228 172.459 186.228 174.672V180.297C186.228 180.812 185.891 181.169 185.413 181.169C184.935 181.169 184.597 180.812 184.597 180.297V174.962C184.597 173.387 183.857 172.525 182.357 172.525C180.819 172.525 179.816 173.612 179.816 175.262V180.297C179.816 180.812 179.478 181.169 179 181.169ZM192.387 181.169C189.903 181.169 188.216 179.181 188.216 176.125C188.216 173.069 189.894 171.081 192.35 171.081C193.747 171.081 194.872 171.766 195.453 172.834H195.491V168.175C195.491 167.659 195.828 167.303 196.306 167.303C196.784 167.303 197.122 167.659 197.122 168.175V180.372C197.122 180.841 196.794 181.169 196.325 181.169C195.866 181.169 195.491 180.85 195.491 180.372V179.256H195.462C194.928 180.419 193.916 181.169 192.387 181.169ZM192.697 179.734C194.375 179.734 195.5 178.309 195.5 176.125C195.5 173.95 194.375 172.516 192.697 172.516C190.972 172.516 189.884 173.922 189.884 176.125C189.884 178.337 190.972 179.734 192.697 179.734ZM203.037 181.169C200.909 181.169 199.662 179.791 199.662 177.578V171.953C199.662 171.437 200 171.081 200.478 171.081C200.956 171.081 201.293 171.437 201.293 171.953V177.287C201.293 178.872 202.034 179.725 203.543 179.725C205.128 179.725 206.084 178.637 206.084 176.978V171.953C206.084 171.437 206.421 171.081 206.9 171.081C207.378 171.081 207.715 171.437 207.715 171.953V180.344C207.715 180.812 207.415 181.169 206.946 181.169C206.478 181.169 206.168 180.812 206.168 180.344V179.416H206.131C205.55 180.541 204.537 181.169 203.037 181.169ZM211.034 184.441C210.555 184.441 210.218 184.084 210.218 183.569V171.906C210.218 171.419 210.537 171.081 210.996 171.081C211.446 171.081 211.765 171.419 211.765 171.906V172.9H211.802C212.402 171.803 213.537 171.081 214.952 171.081C217.437 171.081 219.124 173.069 219.124 176.125C219.124 179.181 217.446 181.169 214.99 181.169C213.593 181.169 212.468 180.484 211.887 179.416H211.849V183.569C211.849 184.084 211.512 184.441 211.034 184.441ZM214.634 179.734C216.368 179.734 217.455 178.337 217.455 176.125C217.455 173.922 216.368 172.516 214.634 172.516C212.965 172.516 211.84 173.959 211.84 176.125C211.84 178.3 212.965 179.734 214.634 179.734ZM226.005 178.75V172.591H225.189C224.72 172.591 224.458 172.347 224.458 171.916C224.458 171.494 224.72 171.25 225.189 171.25H226.005V169.581C226.005 169.066 226.342 168.709 226.82 168.709C227.298 168.709 227.636 169.066 227.636 169.581V171.25H228.892C229.361 171.25 229.623 171.494 229.623 171.916C229.623 172.347 229.361 172.591 228.892 172.591H227.636V178.394C227.636 179.219 227.927 179.612 228.742 179.669L228.883 179.678C229.417 179.716 229.661 179.931 229.661 180.316C229.661 180.812 229.38 181.075 228.47 181.075H228.367C226.792 181.075 226.005 180.306 226.005 178.75ZM232.557 181.169C232.079 181.169 231.742 180.812 231.742 180.297V168.156C231.742 167.65 232.07 167.303 232.557 167.303C233.054 167.303 233.373 167.65 233.373 168.156V172.806H233.411C233.954 171.719 235.023 171.081 236.504 171.081C238.642 171.081 239.936 172.525 239.936 174.7V180.297C239.936 180.812 239.598 181.169 239.12 181.169C238.642 181.169 238.304 180.812 238.304 180.297V175C238.304 173.453 237.526 172.525 235.998 172.525C234.376 172.525 233.373 173.631 233.373 175.319V180.297C233.373 180.812 233.036 181.169 232.557 181.169ZM245.232 181.169C243.291 181.169 241.988 179.997 241.988 178.244C241.988 176.575 243.273 175.525 245.523 175.394L248.326 175.234V174.419C248.326 173.228 247.538 172.516 246.188 172.516C245.129 172.516 244.407 172.9 243.863 173.866C243.713 174.137 243.498 174.259 243.188 174.259C242.766 174.259 242.466 173.969 242.466 173.528C242.466 173.322 242.532 173.087 242.663 172.853C243.216 171.784 244.641 171.081 246.226 171.081C248.513 171.081 249.957 172.319 249.957 174.259V180.344C249.957 180.831 249.638 181.169 249.188 181.169C248.729 181.169 248.41 180.831 248.41 180.344V179.322H248.373C247.791 180.437 246.545 181.169 245.232 181.169ZM245.598 179.781C247.135 179.781 248.326 178.703 248.326 177.297V176.5L245.71 176.659C244.398 176.744 243.648 177.325 243.648 178.244C243.648 179.172 244.426 179.781 245.598 179.781ZM252.938 178.75V172.591H252.122C251.654 172.591 251.391 172.347 251.391 171.916C251.391 171.494 251.654 171.25 252.122 171.25H252.938V169.581C252.938 169.066 253.275 168.709 253.754 168.709C254.232 168.709 254.569 169.066 254.569 169.581V171.25H255.825C256.294 171.25 256.557 171.494 256.557 171.916C256.557 172.347 256.294 172.591 255.825 172.591H254.569V178.394C254.569 179.219 254.86 179.612 255.675 179.669L255.816 179.678C256.35 179.716 256.594 179.931 256.594 180.316C256.594 180.812 256.313 181.075 255.404 181.075H255.3C253.725 181.075 252.938 180.306 252.938 178.75ZM266.24 181.169C264.112 181.169 262.865 179.791 262.865 177.578V171.953C262.865 171.437 263.203 171.081 263.681 171.081C264.159 171.081 264.497 171.437 264.497 171.953V177.287C264.497 178.872 265.237 179.725 266.747 179.725C268.331 179.725 269.287 178.637 269.287 176.978V171.953C269.287 171.437 269.625 171.081 270.103 171.081C270.581 171.081 270.918 171.437 270.918 171.953V180.344C270.918 180.812 270.618 181.169 270.15 181.169C269.681 181.169 269.372 180.812 269.372 180.344V179.416H269.334C268.753 180.541 267.74 181.169 266.24 181.169ZM276.806 181.169C275.071 181.169 273.712 180.391 273.243 179.172C273.187 179.031 273.168 178.909 273.168 178.787C273.168 178.356 273.487 178.112 273.909 178.112C274.199 178.112 274.434 178.262 274.621 178.6C275.109 179.453 275.69 179.837 276.937 179.837C278.184 179.837 279.027 179.294 279.027 178.384C279.027 177.681 278.624 177.306 277.527 177.034L276.037 176.659C274.152 176.191 273.243 175.3 273.243 173.931C273.243 172.234 274.734 171.081 276.937 171.081C278.54 171.081 279.965 171.981 280.218 173.153C280.237 173.247 280.246 173.322 280.246 173.397C280.246 173.781 280.002 174.034 279.609 174.034C279.29 174.034 279.065 173.931 278.887 173.594C278.465 172.778 277.837 172.422 276.843 172.422C275.671 172.422 274.856 173.012 274.856 173.847C274.856 174.522 275.381 174.991 276.449 175.253L277.902 175.609C279.937 176.106 280.687 176.819 280.687 178.253C280.687 179.997 279.121 181.169 276.806 181.169ZM286.836 181.169C283.958 181.169 282.271 179.312 282.271 176.162C282.271 173.087 284.005 171.081 286.696 171.081C289.19 171.081 290.943 172.947 290.943 175.619C290.943 176.209 290.605 176.566 290.043 176.566H283.949C283.949 178.534 285.027 179.753 286.771 179.753C287.933 179.753 288.646 179.341 289.405 178.234C289.574 178 289.761 177.906 290.015 177.906C290.446 177.906 290.736 178.187 290.736 178.619C290.736 178.75 290.69 178.919 290.615 179.097C289.986 180.419 288.618 181.169 286.836 181.169ZM283.958 175.291H289.255C289.218 173.603 288.177 172.497 286.668 172.497C285.149 172.497 284.061 173.612 283.958 175.291ZM296.67 181.169C294.186 181.169 292.499 179.181 292.499 176.125C292.499 173.069 294.177 171.081 296.633 171.081C298.03 171.081 299.155 171.766 299.736 172.834H299.774V168.175C299.774 167.659 300.111 167.303 300.589 167.303C301.067 167.303 301.405 167.659 301.405 168.175V180.372C301.405 180.841 301.077 181.169 300.608 181.169C300.149 181.169 299.774 180.85 299.774 180.372V179.256H299.745C299.211 180.419 298.199 181.169 296.67 181.169ZM296.98 179.734C298.658 179.734 299.783 178.309 299.783 176.125C299.783 173.95 298.658 172.516 296.98 172.516C295.255 172.516 294.167 173.922 294.167 176.125C294.167 178.337 295.255 179.734 296.98 179.734ZM308.838 178.75V172.591H308.023C307.554 172.591 307.291 172.347 307.291 171.916C307.291 171.494 307.554 171.25 308.023 171.25H308.838V169.581C308.838 169.066 309.176 168.709 309.654 168.709C310.132 168.709 310.47 169.066 310.47 169.581V171.25H311.726C312.195 171.25 312.457 171.494 312.457 171.916C312.457 172.347 312.195 172.591 311.726 172.591H310.47V178.394C310.47 179.219 310.76 179.612 311.576 179.669L311.716 179.678C312.251 179.716 312.495 179.931 312.495 180.316C312.495 180.812 312.213 181.075 311.304 181.075H311.201C309.626 181.075 308.838 180.306 308.838 178.75ZM318.251 181.169C315.551 181.169 313.732 179.228 313.732 176.125C313.732 173.012 315.551 171.081 318.251 171.081C320.941 171.081 322.76 173.012 322.76 176.125C322.76 179.228 320.941 181.169 318.251 181.169ZM318.251 179.734C319.976 179.734 321.101 178.422 321.101 176.125C321.101 173.828 319.976 172.516 318.251 172.516C316.526 172.516 315.391 173.828 315.391 176.125C315.391 178.422 316.526 179.734 318.251 179.734ZM333.203 181.169C330.325 181.169 328.637 179.312 328.637 176.162C328.637 173.087 330.372 171.081 333.062 171.081C335.556 171.081 337.309 172.947 337.309 175.619C337.309 176.209 336.972 176.566 336.409 176.566H330.315C330.315 178.534 331.393 179.753 333.137 179.753C334.3 179.753 335.012 179.341 335.772 178.234C335.94 178 336.128 177.906 336.381 177.906C336.812 177.906 337.103 178.187 337.103 178.619C337.103 178.75 337.056 178.919 336.981 179.097C336.353 180.419 334.984 181.169 333.203 181.169ZM330.325 175.291H335.622C335.584 173.603 334.544 172.497 333.034 172.497C331.515 172.497 330.428 173.612 330.325 175.291ZM342.184 181.169C340.243 181.169 338.94 179.997 338.94 178.244C338.94 176.575 340.224 175.525 342.474 175.394L345.278 175.234V174.419C345.278 173.228 344.49 172.516 343.14 172.516C342.081 172.516 341.359 172.9 340.815 173.866C340.665 174.137 340.449 174.259 340.14 174.259C339.718 174.259 339.418 173.969 339.418 173.528C339.418 173.322 339.484 173.087 339.615 172.853C340.168 171.784 341.593 171.081 343.178 171.081C345.465 171.081 346.909 172.319 346.909 174.259V180.344C346.909 180.831 346.59 181.169 346.14 181.169C345.681 181.169 345.362 180.831 345.362 180.344V179.322H345.324C344.743 180.437 343.496 181.169 342.184 181.169ZM342.549 179.781C344.087 179.781 345.278 178.703 345.278 177.297V176.5L342.662 176.659C341.349 176.744 340.599 177.325 340.599 178.244C340.599 179.172 341.378 179.781 342.549 179.781ZM349.89 178.75V172.591H349.074C348.605 172.591 348.343 172.347 348.343 171.916C348.343 171.494 348.605 171.25 349.074 171.25H349.89V169.581C349.89 169.066 350.227 168.709 350.705 168.709C351.183 168.709 351.521 169.066 351.521 169.581V171.25H352.777C353.246 171.25 353.508 171.494 353.508 171.916C353.508 172.347 353.246 172.591 352.777 172.591H351.521V178.394C351.521 179.219 351.812 179.612 352.627 179.669L352.768 179.678C353.302 179.716 353.546 179.931 353.546 180.316C353.546 180.812 353.265 181.075 352.355 181.075H352.252C350.677 181.075 349.89 180.306 349.89 178.75ZM360.764 169.609C360.211 169.609 359.751 169.15 359.751 168.597C359.751 168.034 360.211 167.584 360.764 167.584C361.326 167.584 361.786 168.034 361.786 168.597C361.786 169.15 361.326 169.609 360.764 169.609ZM360.764 181.169C360.286 181.169 359.948 180.812 359.948 180.297V171.953C359.948 171.437 360.286 171.081 360.764 171.081C361.242 171.081 361.58 171.437 361.58 171.953V180.297C361.58 180.812 361.242 181.169 360.764 181.169ZM364.692 178.75V172.591H363.876C363.407 172.591 363.145 172.347 363.145 171.916C363.145 171.494 363.407 171.25 363.876 171.25H364.692V169.581C364.692 169.066 365.029 168.709 365.507 168.709C365.985 168.709 366.323 169.066 366.323 169.581V171.25H367.579C368.048 171.25 368.31 171.494 368.31 171.916C368.31 172.347 368.048 172.591 367.579 172.591H366.323V178.394C366.323 179.219 366.614 179.612 367.429 179.669L367.57 179.678C368.104 179.716 368.348 179.931 368.348 180.316C368.348 180.812 368.067 181.075 367.157 181.075H367.054C365.479 181.075 364.692 180.306 364.692 178.75ZM43.9594 196.609C43.4063 196.609 42.9469 196.15 42.9469 195.597C42.9469 195.034 43.4063 194.584 43.9594 194.584C44.5219 194.584 44.9813 195.034 44.9813 195.597C44.9813 196.15 44.5219 196.609 43.9594 196.609ZM43.9594 208.169C43.4813 208.169 43.1438 207.812 43.1438 207.297V198.953C43.1438 198.437 43.4813 198.081 43.9594 198.081C44.4375 198.081 44.775 198.437 44.775 198.953V207.297C44.775 207.812 44.4375 208.169 43.9594 208.169ZM50.7465 208.169C49.0121 208.169 47.6528 207.391 47.184 206.172C47.1278 206.031 47.109 205.909 47.109 205.787C47.109 205.356 47.4278 205.112 47.8496 205.112C48.1403 205.112 48.3746 205.262 48.5621 205.6C49.0496 206.453 49.6309 206.837 50.8778 206.837C52.1246 206.837 52.9684 206.294 52.9684 205.384C52.9684 204.681 52.5653 204.306 51.4684 204.034L49.9778 203.659C48.0934 203.191 47.184 202.3 47.184 200.931C47.184 199.234 48.6746 198.081 50.8778 198.081C52.4809 198.081 53.9059 198.981 54.159 200.153C54.1778 200.247 54.1871 200.322 54.1871 200.397C54.1871 200.781 53.9434 201.034 53.5496 201.034C53.2309 201.034 53.0059 200.931 52.8278 200.594C52.4059 199.778 51.7778 199.422 50.784 199.422C49.6121 199.422 48.7965 200.012 48.7965 200.847C48.7965 201.522 49.3215 201.991 50.3903 202.253L51.8434 202.609C53.8778 203.106 54.6278 203.819 54.6278 205.253C54.6278 206.997 53.0621 208.169 50.7465 208.169ZM61.827 208.169C61.3489 208.169 61.0114 207.812 61.0114 207.297V198.906C61.0114 198.419 61.3301 198.081 61.7801 198.081C62.2301 198.081 62.5489 198.419 62.5489 198.906V199.806H62.5864C63.1301 198.756 64.1708 198.081 65.6801 198.081C67.8176 198.081 69.0551 199.459 69.0551 201.672V207.297C69.0551 207.812 68.7176 208.169 68.2395 208.169C67.7614 208.169 67.4239 207.812 67.4239 207.297V201.962C67.4239 200.387 66.6833 199.525 65.1833 199.525C63.6458 199.525 62.6426 200.612 62.6426 202.262V207.297C62.6426 207.812 62.3051 208.169 61.827 208.169ZM75.561 208.169C72.861 208.169 71.0423 206.228 71.0423 203.125C71.0423 200.012 72.861 198.081 75.561 198.081C78.2516 198.081 80.0704 200.012 80.0704 203.125C80.0704 206.228 78.2516 208.169 75.561 208.169ZM75.561 206.734C77.286 206.734 78.411 205.422 78.411 203.125C78.411 200.828 77.286 199.516 75.561 199.516C73.836 199.516 72.7016 200.828 72.7016 203.125C72.7016 205.422 73.836 206.734 75.561 206.734ZM84.8513 208.169C84.3356 208.169 84.0263 207.925 83.8669 207.381L81.4856 199.206C81.4388 199.047 81.42 198.906 81.42 198.784C81.42 198.353 81.7294 198.081 82.2169 198.081C82.62 198.081 82.8356 198.269 82.9575 198.747L84.8794 206.181H84.9169L86.9606 198.812C87.0919 198.334 87.42 198.081 87.9169 198.081C88.4044 198.081 88.7138 198.325 88.845 198.803L90.9075 206.181H90.945L92.8669 198.747C92.9888 198.269 93.2044 198.081 93.6075 198.081C94.095 198.081 94.4044 198.353 94.4044 198.784C94.4044 198.906 94.3856 199.047 94.3388 199.206L91.9575 207.381C91.8075 207.906 91.47 208.169 90.9638 208.169C90.42 208.169 90.1106 207.934 89.9513 207.381L87.9263 200.453H87.8888L85.8731 207.381C85.7231 207.897 85.3669 208.169 84.8513 208.169ZM101.397 208.169C100.938 208.169 100.638 207.85 100.638 207.372V195.175C100.638 194.659 100.976 194.303 101.454 194.303C101.932 194.303 102.269 194.659 102.269 195.175V199.881H102.307C102.926 198.766 104.06 198.081 105.438 198.081C107.894 198.081 109.554 200.069 109.554 203.125C109.554 206.191 107.904 208.169 105.41 208.169C103.985 208.169 102.869 207.475 102.232 206.35H102.194V207.372C102.194 207.841 101.866 208.169 101.397 208.169ZM105.091 206.734C106.816 206.734 107.885 205.356 107.885 203.125C107.885 200.912 106.816 199.516 105.091 199.516C103.441 199.516 102.26 200.959 102.26 203.125C102.26 205.3 103.441 206.734 105.091 206.734ZM115.628 208.169C112.928 208.169 111.11 206.228 111.11 203.125C111.11 200.012 112.928 198.081 115.628 198.081C118.319 198.081 120.138 200.012 120.138 203.125C120.138 206.228 118.319 208.169 115.628 208.169ZM115.628 206.734C117.353 206.734 118.478 205.422 118.478 203.125C118.478 200.828 117.353 199.516 115.628 199.516C113.903 199.516 112.769 200.828 112.769 203.125C112.769 205.422 113.903 206.734 115.628 206.734ZM126.212 208.169C123.512 208.169 121.694 206.228 121.694 203.125C121.694 200.012 123.512 198.081 126.212 198.081C128.903 198.081 130.722 200.012 130.722 203.125C130.722 206.228 128.903 208.169 126.212 208.169ZM126.212 206.734C127.937 206.734 129.062 205.422 129.062 203.125C129.062 200.828 127.937 199.516 126.212 199.516C124.487 199.516 123.353 200.828 123.353 203.125C123.353 205.422 124.487 206.734 126.212 206.734ZM133.656 208.169C133.178 208.169 132.84 207.812 132.84 207.297V195.175C132.84 194.659 133.178 194.303 133.656 194.303C134.134 194.303 134.471 194.659 134.471 195.175V202.581L138.831 198.353C139.028 198.156 139.187 198.081 139.421 198.081C139.806 198.081 140.115 198.391 140.115 198.756C140.115 198.981 140.049 199.122 139.853 199.309L136.534 202.459L140.199 206.922C140.359 207.119 140.406 207.269 140.406 207.475C140.406 207.869 140.078 208.169 139.656 208.169C139.403 208.169 139.234 208.094 139.046 207.869L135.381 203.462L134.471 204.325V207.297C134.471 207.812 134.134 208.169 133.656 208.169ZM146.077 208.169C143.199 208.169 141.512 206.312 141.512 203.162C141.512 200.087 143.246 198.081 145.937 198.081C148.43 198.081 150.183 199.947 150.183 202.619C150.183 203.209 149.846 203.566 149.283 203.566H143.19C143.19 205.534 144.268 206.753 146.012 206.753C147.174 206.753 147.887 206.341 148.646 205.234C148.815 205 149.002 204.906 149.255 204.906C149.687 204.906 149.977 205.187 149.977 205.619C149.977 205.75 149.93 205.919 149.855 206.097C149.227 207.419 147.858 208.169 146.077 208.169ZM143.199 202.291H148.496C148.458 200.603 147.418 199.497 145.908 199.497C144.39 199.497 143.302 200.612 143.199 202.291ZM155.911 208.169C153.427 208.169 151.739 206.181 151.739 203.125C151.739 200.069 153.417 198.081 155.874 198.081C157.271 198.081 158.396 198.766 158.977 199.834H159.014V195.175C159.014 194.659 159.352 194.303 159.83 194.303C160.308 194.303 160.646 194.659 160.646 195.175V207.372C160.646 207.841 160.317 208.169 159.849 208.169C159.389 208.169 159.014 207.85 159.014 207.372V206.256H158.986C158.452 207.419 157.439 208.169 155.911 208.169ZM156.221 206.734C157.899 206.734 159.024 205.309 159.024 203.125C159.024 200.95 157.899 199.516 156.221 199.516C154.496 199.516 153.408 200.922 153.408 203.125C153.408 205.337 154.496 206.734 156.221 206.734ZM170.939 208.169C169.204 208.169 167.845 207.391 167.376 206.172C167.32 206.031 167.301 205.909 167.301 205.787C167.301 205.356 167.62 205.112 168.042 205.112C168.332 205.112 168.567 205.262 168.754 205.6C169.242 206.453 169.823 206.837 171.07 206.837C172.317 206.837 173.16 206.294 173.16 205.384C173.16 204.681 172.757 204.306 171.66 204.034L170.17 203.659C168.285 203.191 167.376 202.3 167.376 200.931C167.376 199.234 168.867 198.081 171.07 198.081C172.673 198.081 174.098 198.981 174.351 200.153C174.37 200.247 174.379 200.322 174.379 200.397C174.379 200.781 174.135 201.034 173.742 201.034C173.423 201.034 173.198 200.931 173.02 200.594C172.598 199.778 171.97 199.422 170.976 199.422C169.804 199.422 168.989 200.012 168.989 200.847C168.989 201.522 169.514 201.991 170.582 202.253L172.035 202.609C174.07 203.106 174.82 203.819 174.82 205.253C174.82 206.997 173.254 208.169 170.939 208.169ZM180.923 208.169C178.223 208.169 176.404 206.228 176.404 203.125C176.404 200.012 178.223 198.081 180.923 198.081C183.613 198.081 185.432 200.012 185.432 203.125C185.432 206.228 183.613 208.169 180.923 208.169ZM180.923 206.734C182.648 206.734 183.773 205.422 183.773 203.125C183.773 200.828 182.648 199.516 180.923 199.516C179.198 199.516 178.063 200.828 178.063 203.125C178.063 205.422 179.198 206.734 180.923 206.734ZM188.282 208.169C187.785 208.169 187.466 207.794 187.466 207.297V198.906C187.466 198.419 187.785 198.081 188.235 198.081C188.685 198.081 189.003 198.419 189.003 198.906V199.806H189.041C189.5 198.775 190.494 198.081 191.807 198.081C193.138 198.081 194.122 198.756 194.544 199.937H194.582C195.125 198.775 196.269 198.081 197.638 198.081C199.569 198.081 200.816 199.337 200.816 201.269V207.297C200.816 207.794 200.497 208.169 200 208.169C199.503 208.169 199.185 207.794 199.185 207.297V201.644C199.185 200.312 198.444 199.525 197.16 199.525C195.866 199.525 194.957 200.481 194.957 201.803V207.297C194.957 207.794 194.638 208.169 194.141 208.169C193.644 208.169 193.325 207.794 193.325 207.297V201.466C193.325 200.294 192.538 199.525 191.328 199.525C190.035 199.525 189.097 200.537 189.097 201.887V207.297C189.097 207.794 188.778 208.169 188.282 208.169ZM207.369 208.169C204.491 208.169 202.803 206.312 202.803 203.162C202.803 200.087 204.537 198.081 207.228 198.081C209.722 198.081 211.475 199.947 211.475 202.619C211.475 203.209 211.137 203.566 210.575 203.566H204.481C204.481 205.534 205.559 206.753 207.303 206.753C208.466 206.753 209.178 206.341 209.937 205.234C210.106 205 210.294 204.906 210.547 204.906C210.978 204.906 211.269 205.187 211.269 205.619C211.269 205.75 211.222 205.919 211.147 206.097C210.519 207.419 209.15 208.169 207.369 208.169ZM204.491 202.291H209.787C209.75 200.603 208.709 199.497 207.2 199.497C205.681 199.497 204.594 200.612 204.491 202.291ZM216.256 208.169C215.74 208.169 215.431 207.925 215.271 207.381L212.89 199.206C212.843 199.047 212.825 198.906 212.825 198.784C212.825 198.353 213.134 198.081 213.621 198.081C214.025 198.081 214.24 198.269 214.362 198.747L216.284 206.181H216.321L218.365 198.812C218.496 198.334 218.825 198.081 219.321 198.081C219.809 198.081 220.118 198.325 220.25 198.803L222.312 206.181H222.35L224.271 198.747C224.393 198.269 224.609 198.081 225.012 198.081C225.5 198.081 225.809 198.353 225.809 198.784C225.809 198.906 225.79 199.047 225.743 199.206L223.362 207.381C223.212 207.906 222.875 208.169 222.368 208.169C221.825 208.169 221.515 207.934 221.356 207.381L219.331 200.453H219.293L217.278 207.381C217.128 207.897 216.771 208.169 216.256 208.169ZM228.537 208.169C228.059 208.169 227.721 207.812 227.721 207.297V195.156C227.721 194.65 228.049 194.303 228.537 194.303C229.034 194.303 229.352 194.65 229.352 195.156V199.806H229.39C229.934 198.719 231.002 198.081 232.484 198.081C234.621 198.081 235.915 199.525 235.915 201.7V207.297C235.915 207.812 235.577 208.169 235.099 208.169C234.621 208.169 234.284 207.812 234.284 207.297V202C234.284 200.453 233.505 199.525 231.977 199.525C230.355 199.525 229.352 200.631 229.352 202.319V207.297C229.352 207.812 229.015 208.169 228.537 208.169ZM242.458 208.169C239.58 208.169 237.893 206.312 237.893 203.162C237.893 200.087 239.627 198.081 242.318 198.081C244.811 198.081 246.564 199.947 246.564 202.619C246.564 203.209 246.227 203.566 245.664 203.566H239.571C239.571 205.534 240.649 206.753 242.393 206.753C243.555 206.753 244.268 206.341 245.027 205.234C245.196 205 245.383 204.906 245.636 204.906C246.068 204.906 246.358 205.187 246.358 205.619C246.358 205.75 246.311 205.919 246.236 206.097C245.608 207.419 244.239 208.169 242.458 208.169ZM239.58 202.291H244.877C244.839 200.603 243.799 199.497 242.289 199.497C240.771 199.497 239.683 200.612 239.58 202.291ZM249.414 208.169C248.936 208.169 248.598 207.812 248.598 207.297V198.906C248.598 198.419 248.917 198.081 249.367 198.081C249.817 198.081 250.136 198.419 250.136 198.906V199.844H250.173C250.455 198.831 251.411 198.081 252.386 198.081C252.742 198.081 252.995 198.166 253.155 198.316C253.295 198.447 253.361 198.634 253.361 198.859C253.361 199.112 253.277 199.3 253.108 199.431C252.939 199.572 252.686 199.637 252.33 199.637C250.858 199.637 250.23 200.697 250.23 201.944V207.297C250.23 207.812 249.892 208.169 249.414 208.169ZM258.526 208.169C255.648 208.169 253.961 206.312 253.961 203.162C253.961 200.087 255.695 198.081 258.386 198.081C260.879 198.081 262.632 199.947 262.632 202.619C262.632 203.209 262.295 203.566 261.732 203.566H255.639C255.639 205.534 256.717 206.753 258.461 206.753C259.623 206.753 260.336 206.341 261.095 205.234C261.264 205 261.451 204.906 261.704 204.906C262.136 204.906 262.426 205.187 262.426 205.619C262.426 205.75 262.379 205.919 262.304 206.097C261.676 207.419 260.307 208.169 258.526 208.169ZM255.648 202.291H260.945C260.907 200.603 259.867 199.497 258.357 199.497C256.839 199.497 255.751 200.612 255.648 202.291ZM273.075 208.169C270.197 208.169 268.51 206.312 268.51 203.162C268.51 200.087 270.244 198.081 272.935 198.081C275.429 198.081 277.182 199.947 277.182 202.619C277.182 203.209 276.844 203.566 276.282 203.566H270.188C270.188 205.534 271.266 206.753 273.01 206.753C274.172 206.753 274.885 206.341 275.644 205.234C275.813 205 276 204.906 276.254 204.906C276.685 204.906 276.975 205.187 276.975 205.619C276.975 205.75 276.929 205.919 276.854 206.097C276.225 207.419 274.857 208.169 273.075 208.169ZM270.197 202.291H275.494C275.457 200.603 274.416 199.497 272.907 199.497C271.388 199.497 270.3 200.612 270.197 202.291ZM280.116 208.169C279.638 208.169 279.3 207.812 279.3 207.297V195.175C279.3 194.659 279.638 194.303 280.116 194.303C280.594 194.303 280.931 194.659 280.931 195.175V207.297C280.931 207.812 280.594 208.169 280.116 208.169ZM286.903 208.169C285.168 208.169 283.809 207.391 283.34 206.172C283.284 206.031 283.265 205.909 283.265 205.787C283.265 205.356 283.584 205.112 284.006 205.112C284.297 205.112 284.531 205.262 284.718 205.6C285.206 206.453 285.787 206.837 287.034 206.837C288.281 206.837 289.125 206.294 289.125 205.384C289.125 204.681 288.722 204.306 287.625 204.034L286.134 203.659C284.25 203.191 283.34 202.3 283.34 200.931C283.34 199.234 284.831 198.081 287.034 198.081C288.637 198.081 290.062 198.981 290.315 200.153C290.334 200.247 290.343 200.322 290.343 200.397C290.343 200.781 290.1 201.034 289.706 201.034C289.387 201.034 289.162 200.931 288.984 200.594C288.562 199.778 287.934 199.422 286.94 199.422C285.768 199.422 284.953 200.012 284.953 200.847C284.953 201.522 285.478 201.991 286.547 202.253L288 202.609C290.034 203.106 290.784 203.819 290.784 205.253C290.784 206.997 289.218 208.169 286.903 208.169ZM296.934 208.169C294.056 208.169 292.368 206.312 292.368 203.162C292.368 200.087 294.102 198.081 296.793 198.081C299.287 198.081 301.04 199.947 301.04 202.619C301.04 203.209 300.702 203.566 300.14 203.566H294.046C294.046 205.534 295.124 206.753 296.868 206.753C298.031 206.753 298.743 206.341 299.502 205.234C299.671 205 299.859 204.906 300.112 204.906C300.543 204.906 300.834 205.187 300.834 205.619C300.834 205.75 300.787 205.919 300.712 206.097C300.084 207.419 298.715 208.169 296.934 208.169ZM294.056 202.291H299.352C299.315 200.603 298.274 199.497 296.765 199.497C295.246 199.497 294.159 200.612 294.056 202.291ZM304.452 208.094C303.852 208.094 303.383 207.625 303.383 207.025C303.383 206.425 303.852 205.956 304.452 205.956C305.052 205.956 305.521 206.425 305.521 207.025C305.521 207.625 305.052 208.094 304.452 208.094Z" fill="#F6A6D2"/>
</svg>
