<svg width="424" height="474" viewBox="0 0 424 474" fill="none" xmlns="http://www.w3.org/2000/svg">
<rect width="424" height="474" rx="24" fill="#FF4B4D"/>
<path d="M42.96 73.616C42.96 73.264 43.12 72.944 43.44 72.656C43.76 72.336 44.144 72.144 44.592 72.08C45.072 72.016 45.472 71.824 45.792 71.504C46.112 71.152 46.368 70.576 46.56 69.776C46.784 68.944 46.944 68.208 47.04 67.568C47.168 66.928 47.312 65.968 47.472 64.688C47.568 64.08 47.632 63.616 47.664 63.296C48.08 60.48 48.48 57.536 48.864 54.464C49.248 51.392 49.536 48.976 49.728 47.216C49.952 45.424 50.064 44.432 50.064 44.24C50.064 43.344 49.824 42.688 49.344 42.272C48.896 41.824 48.4 41.6 47.856 41.6C47.312 41.568 46.8 41.504 46.32 41.408C45.872 41.28 45.648 41.024 45.648 40.64C45.648 39.648 46.256 39.152 47.472 39.152C47.76 39.152 48.48 39.184 49.632 39.248C50.816 39.28 52.368 39.312 54.288 39.344C56.24 39.376 58.272 39.392 60.384 39.392C61.056 39.392 62.544 39.376 64.848 39.344C67.184 39.312 68.576 39.296 69.024 39.296C70.08 39.296 70.608 39.808 70.608 40.832V43.376C70.608 43.6 70.64 44 70.704 44.576C70.8 45.152 70.848 45.616 70.848 45.968C70.848 47.312 70.416 47.984 69.552 47.984C69.232 47.984 69.008 47.872 68.88 47.648C68.784 47.392 68.704 47.104 68.64 46.784C68.608 46.432 68.448 45.984 68.16 45.44C67.872 44.896 67.44 44.384 66.864 43.904C66.192 43.232 64.8 42.848 62.688 42.752C60.928 42.656 59.76 42.608 59.184 42.608H57.552C56.528 42.608 55.888 42.736 55.632 42.992C55.408 43.216 55.216 43.808 55.056 44.768C55.024 45.056 54.992 45.264 54.96 45.392C54.16 50.896 53.76 54.032 53.76 54.8C53.76 54.864 53.824 54.912 53.952 54.944C54.112 54.944 54.48 54.944 55.056 54.944H57.984C60.32 54.944 61.792 54.912 62.4 54.848C63.104 54.784 63.664 54.592 64.08 54.272C64.496 53.92 64.752 53.568 64.848 53.216C64.976 52.832 65.12 52.496 65.28 52.208C65.472 51.92 65.696 51.776 65.952 51.776C66.752 51.776 67.152 52.176 67.152 52.976C67.152 53.328 66.992 54.256 66.672 55.76C66.384 57.264 66.24 58.688 66.24 60.032C66.24 62.176 65.792 63.248 64.896 63.248C63.904 63.248 63.408 62.672 63.408 61.52V60.992C63.408 60.544 63.376 60.192 63.312 59.936C63.248 59.68 63.072 59.44 62.784 59.216C62.528 58.992 62.224 58.848 61.872 58.784C61.552 58.688 60.992 58.608 60.192 58.544C59.392 58.48 58.592 58.448 57.792 58.448C56.992 58.416 55.84 58.4 54.336 58.4C53.696 58.4 53.36 58.528 53.328 58.784C53.232 59.712 53.056 61.056 52.8 62.816C52.576 64.576 52.368 66.112 52.176 67.424C52.016 68.736 51.936 69.504 51.936 69.728C51.936 70.624 52.208 71.312 52.752 71.792C53.296 72.24 53.888 72.48 54.528 72.512C55.168 72.544 55.76 72.64 56.304 72.8C56.848 72.928 57.12 73.168 57.12 73.52C57.12 74.384 56.64 74.816 55.68 74.816C55.584 74.816 55.008 74.768 53.952 74.672C52.896 74.608 51.824 74.576 50.736 74.576C49.968 74.576 49.12 74.608 48.192 74.672C47.264 74.736 46.496 74.8 45.888 74.864L44.928 74.96C43.616 74.96 42.96 74.512 42.96 73.616ZM71.9423 65.888C71.9423 62.432 73.0303 59.328 75.2063 56.576C77.4143 53.792 80.3423 52.4 83.9903 52.4C86.4863 52.4 88.3903 53.28 89.7023 55.04C91.0463 56.768 91.7183 58.96 91.7183 61.616C91.7183 63.824 91.2863 65.936 90.4223 67.952C89.5583 69.968 88.1983 71.68 86.3423 73.088C84.5183 74.496 82.4063 75.2 80.0063 75.2C77.6703 75.2 75.7343 74.4 74.1983 72.8C72.6943 71.2 71.9423 68.896 71.9423 65.888ZM77.0783 65.936C77.0783 68.24 77.4143 70 78.0863 71.216C78.7903 72.432 79.6703 73.04 80.7263 73.04C81.7823 73.04 82.7103 72.608 83.5103 71.744C84.3423 70.88 84.9663 69.808 85.3823 68.528C85.8303 67.216 86.1663 65.92 86.3903 64.64C86.6143 63.328 86.7263 62.128 86.7263 61.04C86.7263 59.152 86.3903 57.728 85.7183 56.768C85.0783 55.776 84.2783 55.28 83.3183 55.28C82.2303 55.28 81.1903 55.776 80.1983 56.768C79.2383 57.728 78.5183 59.056 78.0383 60.752C77.3983 62.928 77.0783 64.656 77.0783 65.936ZM93.7669 59.792C93.7669 58.64 93.9269 57.616 94.2469 56.72C94.5989 55.792 94.9989 55.088 95.4469 54.608C95.9269 54.096 96.4229 53.664 96.9349 53.312C97.4469 52.928 97.8789 52.688 98.2309 52.592C98.5829 52.496 98.8389 52.448 98.9989 52.448C100.055 52.448 100.871 53.168 101.447 54.608C101.863 56.4 102.087 57.296 102.119 57.296C102.151 57.296 102.455 56.896 103.031 56.096C103.607 55.264 104.375 54.432 105.335 53.6C106.327 52.768 107.351 52.352 108.407 52.352C109.207 52.352 109.815 52.576 110.231 53.024C110.679 53.472 110.903 53.984 110.903 54.56C110.903 54.816 110.807 55.184 110.615 55.664C110.455 56.112 110.375 56.352 110.375 56.384L110.327 56.816C110.199 57.232 110.087 57.568 109.991 57.824C109.895 58.048 109.719 58.288 109.463 58.544C109.207 58.768 108.919 58.88 108.599 58.88C108.311 58.88 108.071 58.72 107.879 58.4C107.687 58.048 107.447 57.712 107.159 57.392C106.871 57.04 106.487 56.864 106.007 56.864C105.271 56.864 104.647 57.76 104.135 59.552C103.623 61.312 103.287 62.976 103.127 64.544L102.887 66.128C102.279 70.8 101.831 73.408 101.543 73.952C101.095 74.592 100.407 74.912 99.4789 74.912H99.2389C97.7989 74.912 97.0789 74.256 97.0789 72.944C97.0789 72.432 97.4149 70.544 98.0869 67.28C98.7909 64.016 99.1429 61.712 99.1429 60.368C99.1429 58.672 98.8389 57.824 98.2309 57.824C97.7829 57.824 97.3989 58.048 97.0789 58.496C96.7589 58.912 96.5189 59.408 96.3589 59.984C96.2309 60.528 96.1509 60.816 96.1189 60.848C95.7349 61.168 95.3829 61.328 95.0629 61.328C94.1989 61.328 93.7669 60.816 93.7669 59.792ZM122.601 73.568C122.601 72.864 123.161 72.304 124.281 71.888C124.601 71.76 124.841 71.648 125.001 71.552C125.193 71.424 125.401 71.264 125.625 71.072C125.881 70.88 126.121 70.592 126.345 70.208C126.601 69.824 126.873 69.392 127.161 68.912C127.449 68.4 127.833 67.712 128.313 66.848C128.793 65.952 129.305 65.008 129.849 64.016C130.425 62.992 131.145 61.664 132.009 60.032C132.905 58.4 133.849 56.688 134.841 54.896C135.833 53.104 137.049 50.896 138.489 48.272C139.961 45.648 141.497 42.928 143.097 40.112C143.481 39.664 143.753 39.392 143.913 39.296C144.105 39.2 144.409 39.152 144.825 39.152C145.241 39.152 145.529 39.264 145.689 39.488C145.881 39.712 146.249 40.512 146.793 41.888C146.953 42.432 147.081 42.88 147.177 43.232C147.273 43.584 147.401 44.112 147.561 44.816C147.753 45.52 147.961 46.224 148.185 46.928C148.921 49.36 150.233 53.488 152.121 59.312C154.041 65.136 155.097 68.32 155.289 68.864C155.769 70.08 156.121 70.848 156.345 71.168C156.601 71.456 157.113 71.728 157.881 71.984C158.745 72.24 159.177 72.784 159.177 73.616C159.177 74.416 158.441 74.816 156.969 74.816C156.617 74.816 156.121 74.784 155.481 74.72C154.873 74.688 154.329 74.672 153.849 74.672C153.273 74.672 152.537 74.704 151.641 74.768C150.745 74.864 149.993 74.912 149.385 74.912C148.041 74.912 147.369 74.496 147.369 73.664C147.369 73.376 147.529 73.136 147.849 72.944C148.201 72.752 148.569 72.624 148.953 72.56C149.337 72.496 149.689 72.32 150.009 72.032C150.361 71.744 150.537 71.36 150.537 70.88C150.537 70.336 150.409 69.584 150.153 68.624C149.897 67.632 149.593 66.576 149.241 65.456C148.889 64.304 148.665 63.552 148.569 63.2C148.505 62.752 148.345 62.48 148.089 62.384C147.929 62.352 147.737 62.336 147.513 62.336C147.353 62.336 146.649 62.352 145.401 62.384C144.153 62.384 142.921 62.384 141.705 62.384C139.273 62.384 137.657 62.368 136.857 62.336C136.057 62.272 135.529 62.24 135.273 62.24C134.729 62.24 134.377 62.352 134.217 62.576C133.353 64.08 132.585 65.488 131.913 66.8C131.273 68.112 130.825 69.072 130.569 69.68C130.345 70.256 130.233 70.592 130.233 70.688C130.233 71.488 130.505 72.032 131.049 72.32C131.593 72.576 132.137 72.752 132.681 72.848C133.225 72.912 133.497 73.104 133.497 73.424C133.497 73.744 133.465 74.016 133.401 74.24C133.337 74.496 133.225 74.656 133.065 74.72C132.905 74.784 132.777 74.816 132.681 74.816C132.585 74.816 132.377 74.816 132.057 74.816C131.385 74.816 130.745 74.8 130.137 74.768C129.529 74.768 129.049 74.752 128.697 74.72C128.377 74.72 128.105 74.72 127.881 74.72C127.561 74.72 126.969 74.736 126.105 74.768C125.241 74.8 124.441 74.816 123.705 74.816C122.969 74.816 122.601 74.4 122.601 73.568ZM136.089 59.024C136.089 58.8 136.377 58.688 136.953 58.688C137.081 58.688 137.353 58.688 137.769 58.688C138.185 58.688 139.129 58.688 140.601 58.688C142.105 58.656 144.217 58.64 146.937 58.64C146.969 58.64 146.985 58.64 146.985 58.64C146.985 58.288 146.393 56.112 145.209 52.112C144.057 48.112 143.353 46.112 143.097 46.112C142.937 46.112 141.721 48.24 139.449 52.496C137.209 56.72 136.089 58.896 136.089 59.024ZM161.517 55.28C161.517 54.992 161.693 54.736 162.045 54.512C162.397 54.256 162.925 53.904 163.629 53.456C164.365 52.976 165.037 52.384 165.645 51.68C166.093 51.2 166.525 50.736 166.941 50.288C167.357 49.84 167.645 49.536 167.805 49.376C167.997 49.184 168.173 49.04 168.333 48.944C168.525 48.848 168.733 48.8 168.957 48.8C169.757 48.8 170.157 49.232 170.157 50.096C170.157 50.288 170.013 50.88 169.725 51.872C169.437 52.832 169.293 53.44 169.293 53.696C169.293 53.504 169.341 53.392 169.437 53.36C169.533 53.328 169.805 53.312 170.253 53.312C170.989 53.312 171.613 53.312 172.125 53.312C172.669 53.28 172.973 53.264 173.037 53.264C174.349 53.264 175.005 53.808 175.005 54.896C175.005 55.728 174.877 56.288 174.621 56.576C174.365 56.864 173.869 57.008 173.133 57.008C172.909 57.008 172.301 56.976 171.309 56.912C170.317 56.816 169.629 56.768 169.245 56.768C169.149 56.768 169.053 56.784 168.957 56.816C168.893 56.848 168.829 56.896 168.765 56.96C168.733 57.024 168.701 57.088 168.669 57.152C168.637 57.216 168.605 57.328 168.573 57.488C168.573 57.648 168.557 57.776 168.525 57.872C168.525 57.968 168.509 58.144 168.477 58.4C168.477 58.624 168.461 58.816 168.429 58.976C168.333 59.744 168.141 60.944 167.853 62.576C167.597 64.176 167.373 65.568 167.181 66.752C166.989 67.936 166.893 68.64 166.893 68.864C166.893 69.408 166.989 69.84 167.181 70.16C167.405 70.48 167.581 70.672 167.709 70.736C167.869 70.768 168.013 70.784 168.141 70.784C168.909 70.784 169.613 70.608 170.253 70.256C170.893 69.904 171.405 69.552 171.789 69.2C172.173 68.848 172.461 68.672 172.653 68.672C173.485 68.672 173.901 69.136 173.901 70.064C173.901 70.896 172.973 71.984 171.117 73.328C169.293 74.64 167.629 75.296 166.125 75.296C165.101 75.296 164.205 74.896 163.437 74.096C162.701 73.328 162.333 71.984 162.333 70.064C162.333 68.336 162.669 65.696 163.341 62.144C164.013 58.592 164.349 56.736 164.349 56.576C164.349 56.256 163.869 56.08 162.909 56.048C161.981 56.016 161.517 55.76 161.517 55.28ZM177.126 72.896C177.126 72.512 177.206 71.792 177.366 70.736C177.558 69.68 177.766 68.464 177.99 67.088C178.246 65.68 178.422 64.656 178.518 64.016C178.614 63.408 178.966 61.072 179.574 57.008C180.182 52.912 180.726 49.296 181.206 46.16C181.686 42.992 181.926 41.36 181.926 41.264C181.926 41.008 181.718 40.88 181.302 40.88C180.918 40.88 180.502 40.896 180.054 40.928C179.638 40.928 179.398 40.928 179.334 40.928C178.438 40.928 177.99 40.496 177.99 39.632C177.99 38.896 178.822 38.432 180.486 38.24C181.99 38.112 183.174 37.952 184.038 37.76C184.934 37.536 185.494 37.424 185.718 37.424C186.582 37.424 187.014 37.872 187.014 38.768C187.014 38.832 186.534 41.488 185.574 46.736C184.614 51.952 184.134 55.424 184.134 57.152C184.134 57.024 183.958 56.96 183.606 56.96C183.702 56.96 183.958 56.752 184.374 56.336C184.79 55.888 185.254 55.424 185.766 54.944C186.31 54.432 187.014 53.968 187.878 53.552C188.774 53.104 189.67 52.88 190.566 52.88C193.894 52.88 195.558 54.928 195.558 59.024C195.558 59.984 195.366 61.664 194.982 64.064C194.598 66.464 194.406 68.016 194.406 68.72C194.406 69.712 194.55 70.208 194.838 70.208C195.19 70.208 195.734 69.952 196.47 69.44C196.822 69.28 197.158 69.024 197.478 68.672C197.798 68.32 198.07 68.016 198.294 67.76C198.518 67.504 198.694 67.376 198.822 67.376C199.622 67.376 200.022 67.744 200.022 68.48C200.022 69.696 199.158 71.072 197.43 72.608C195.734 74.112 194.278 74.864 193.062 74.864C191.014 74.864 189.99 73.136 189.99 69.68C189.99 68.688 190.134 67.056 190.422 64.784C190.71 62.48 190.854 60.848 190.854 59.888C190.854 57.872 190.182 56.864 188.838 56.864C187.878 56.864 186.918 57.152 185.958 57.728C185.03 58.304 184.31 59.264 183.798 60.608C183.51 61.312 183.27 62.24 183.078 63.392C182.918 64.544 182.71 66.176 182.454 68.288C182.23 70.368 182.054 71.84 181.926 72.704C181.798 73.536 181.542 74.08 181.158 74.336C180.774 74.624 180.198 74.768 179.43 74.768C177.894 74.768 177.126 74.144 177.126 72.896ZM202.692 69.872C202.692 69.072 202.788 67.984 202.98 66.608C203.204 65.2 203.428 63.872 203.652 62.624C203.908 61.376 204.036 60.72 204.036 60.656C204.164 59.76 204.34 58.224 204.564 56.048C204.82 53.84 205.028 52.192 205.188 51.104C206.212 44.672 206.724 41.344 206.724 41.12C206.724 40.96 206.564 40.88 206.244 40.88C205.988 40.88 205.732 40.896 205.476 40.928C205.252 40.928 205.044 40.928 204.852 40.928C203.444 40.928 202.74 40.464 202.74 39.536C202.74 38.672 203.204 38.208 204.132 38.144C205.412 38.048 206.612 37.904 207.732 37.712C208.884 37.52 209.636 37.424 209.988 37.424C211.14 37.424 211.716 37.92 211.716 38.912C211.716 39.168 211.636 39.552 211.476 40.064C211.348 40.576 211.268 40.96 211.236 41.216C210.724 43.936 210.372 46 210.18 47.408C209.988 48.784 209.796 50.4 209.604 52.256C209.444 54.08 209.156 56.352 208.74 59.072C207.812 65.44 207.348 68.848 207.348 69.296C207.348 69.776 207.348 70.096 207.348 70.256C207.348 70.384 207.364 70.448 207.396 70.448C208.004 70.448 208.548 70.272 209.028 69.92C209.508 69.568 209.86 69.184 210.084 68.768C210.34 68.32 210.612 67.92 210.9 67.568C211.22 67.216 211.508 67.04 211.764 67.04C212.628 67.04 213.06 67.536 213.06 68.528C213.06 69.04 212.212 70.352 210.516 72.464C209.844 73.2 209.028 73.824 208.068 74.336C207.108 74.848 206.34 75.104 205.764 75.104C205.316 75.104 204.964 75.072 204.708 75.008C204.452 74.944 204.148 74.768 203.796 74.48C203.444 74.192 203.172 73.664 202.98 72.896C202.788 72.096 202.692 71.088 202.692 69.872ZM215.802 66.944C215.802 64.832 216.298 62.736 217.29 60.656C218.282 58.576 219.674 56.72 221.466 55.088C223.386 53.264 225.77 52.352 228.618 52.352C229.962 52.352 231.114 52.752 232.074 53.552C233.034 54.352 233.514 55.376 233.514 56.624C233.514 57.52 233.306 58.368 232.89 59.168C232.474 59.968 231.946 60.64 231.306 61.184C230.698 61.728 230.154 62.16 229.674 62.48C229.194 62.768 228.778 62.976 228.426 63.104C226.506 63.968 223.898 64.416 220.602 64.448C220.538 64.448 220.506 64.864 220.506 65.696C220.506 67.328 221.018 68.624 222.042 69.584C223.098 70.512 224.65 70.976 226.698 70.976C227.498 70.976 228.282 70.8 229.05 70.448C229.85 70.096 230.49 69.76 230.97 69.44C231.482 69.088 231.786 68.912 231.882 68.912C232.746 68.912 233.178 69.312 233.178 70.112C233.178 70.88 232.17 71.936 230.154 73.28C228.17 74.624 226.154 75.296 224.106 75.296C220.97 75.296 218.794 74.56 217.578 73.088C216.394 71.616 215.802 69.568 215.802 66.944ZM221.178 61.952C221.178 62.112 221.082 62.192 220.89 62.192C222.97 62.192 224.794 61.632 226.362 60.512C227.962 59.36 228.762 58.112 228.762 56.768C228.762 56.224 228.554 55.84 228.138 55.616C227.754 55.36 227.354 55.232 226.938 55.232C225.914 55.232 224.778 55.904 223.53 57.248C222.922 57.856 222.378 58.704 221.898 59.792C221.418 60.848 221.178 61.568 221.178 61.952ZM236.423 55.28C236.423 54.992 236.599 54.736 236.951 54.512C237.303 54.256 237.831 53.904 238.535 53.456C239.271 52.976 239.943 52.384 240.551 51.68C240.999 51.2 241.431 50.736 241.847 50.288C242.263 49.84 242.551 49.536 242.711 49.376C242.903 49.184 243.079 49.04 243.239 48.944C243.431 48.848 243.639 48.8 243.863 48.8C244.663 48.8 245.063 49.232 245.063 50.096C245.063 50.288 244.919 50.88 244.631 51.872C244.343 52.832 244.199 53.44 244.199 53.696C244.199 53.504 244.247 53.392 244.343 53.36C244.439 53.328 244.711 53.312 245.159 53.312C245.895 53.312 246.519 53.312 247.031 53.312C247.575 53.28 247.879 53.264 247.943 53.264C249.255 53.264 249.911 53.808 249.911 54.896C249.911 55.728 249.783 56.288 249.527 56.576C249.271 56.864 248.775 57.008 248.039 57.008C247.815 57.008 247.207 56.976 246.215 56.912C245.223 56.816 244.535 56.768 244.151 56.768C244.055 56.768 243.959 56.784 243.863 56.816C243.799 56.848 243.735 56.896 243.671 56.96C243.639 57.024 243.607 57.088 243.575 57.152C243.543 57.216 243.511 57.328 243.479 57.488C243.479 57.648 243.463 57.776 243.431 57.872C243.431 57.968 243.415 58.144 243.383 58.4C243.383 58.624 243.367 58.816 243.335 58.976C243.239 59.744 243.047 60.944 242.759 62.576C242.503 64.176 242.279 65.568 242.087 66.752C241.895 67.936 241.799 68.64 241.799 68.864C241.799 69.408 241.895 69.84 242.087 70.16C242.311 70.48 242.487 70.672 242.615 70.736C242.775 70.768 242.919 70.784 243.047 70.784C243.815 70.784 244.519 70.608 245.159 70.256C245.799 69.904 246.311 69.552 246.695 69.2C247.079 68.848 247.367 68.672 247.559 68.672C248.391 68.672 248.807 69.136 248.807 70.064C248.807 70.896 247.879 71.984 246.023 73.328C244.199 74.64 242.535 75.296 241.031 75.296C240.007 75.296 239.111 74.896 238.343 74.096C237.607 73.328 237.239 71.984 237.239 70.064C237.239 68.336 237.575 65.696 238.247 62.144C238.919 58.592 239.255 56.736 239.255 56.576C239.255 56.256 238.775 56.08 237.815 56.048C236.887 56.016 236.423 55.76 236.423 55.28ZM251.755 66.944C251.755 64.832 252.251 62.736 253.243 60.656C254.235 58.576 255.627 56.72 257.419 55.088C259.339 53.264 261.723 52.352 264.571 52.352C265.915 52.352 267.067 52.752 268.027 53.552C268.987 54.352 269.467 55.376 269.467 56.624C269.467 57.52 269.259 58.368 268.843 59.168C268.427 59.968 267.899 60.64 267.259 61.184C266.651 61.728 266.107 62.16 265.627 62.48C265.147 62.768 264.731 62.976 264.379 63.104C262.459 63.968 259.851 64.416 256.555 64.448C256.491 64.448 256.459 64.864 256.459 65.696C256.459 67.328 256.971 68.624 257.995 69.584C259.051 70.512 260.603 70.976 262.651 70.976C263.451 70.976 264.235 70.8 265.003 70.448C265.803 70.096 266.443 69.76 266.923 69.44C267.435 69.088 267.739 68.912 267.835 68.912C268.699 68.912 269.131 69.312 269.131 70.112C269.131 70.88 268.123 71.936 266.107 73.28C264.123 74.624 262.107 75.296 260.059 75.296C256.923 75.296 254.747 74.56 253.531 73.088C252.347 71.616 251.755 69.568 251.755 66.944ZM257.131 61.952C257.131 62.112 257.035 62.192 256.843 62.192C258.923 62.192 260.747 61.632 262.315 60.512C263.915 59.36 264.715 58.112 264.715 56.768C264.715 56.224 264.507 55.84 264.091 55.616C263.707 55.36 263.307 55.232 262.891 55.232C261.867 55.232 260.731 55.904 259.483 57.248C258.875 57.856 258.331 58.704 257.851 59.792C257.371 60.848 257.131 61.568 257.131 61.952ZM271.142 71.408C271.142 69.776 271.894 68.96 273.398 68.96C273.942 68.96 274.39 69.136 274.742 69.488C275.094 69.84 275.35 70.224 275.51 70.64C275.67 71.024 275.958 71.392 276.374 71.744C276.79 72.096 277.318 72.272 277.958 72.272C278.598 72.272 279.142 72.176 279.59 71.984C280.07 71.792 280.406 71.552 280.598 71.264C280.79 70.944 280.918 70.688 280.982 70.496C281.046 70.272 281.078 70.08 281.078 69.92C281.078 69.44 281.014 69.008 280.886 68.624C280.758 68.208 280.47 67.744 280.022 67.232C279.606 66.72 279.334 66.4 279.206 66.272C279.078 66.144 278.662 65.744 277.958 65.072C277.766 64.848 277.446 64.512 276.998 64.064C276.55 63.616 276.23 63.296 276.038 63.104C275.846 62.88 275.59 62.56 275.27 62.144C274.95 61.728 274.71 61.36 274.55 61.04C274.422 60.72 274.294 60.336 274.166 59.888C274.07 59.44 274.022 58.96 274.022 58.448C274.022 56.624 274.694 55.152 276.038 54.032C277.414 52.88 279.158 52.304 281.27 52.304C284.726 52.304 286.454 53.376 286.454 55.52C286.454 56.16 286.246 56.688 285.83 57.104C285.446 57.488 285.078 57.712 284.726 57.776C284.406 57.84 284.134 57.872 283.91 57.872C283.334 57.872 282.71 57.424 282.038 56.528C281.398 55.632 280.758 55.184 280.118 55.184C278.902 55.184 278.294 55.792 278.294 57.008C278.294 57.52 278.47 58.048 278.822 58.592C279.206 59.104 279.814 59.728 280.646 60.464C281.478 61.168 281.91 61.552 281.942 61.616C282.102 61.744 282.422 62.08 282.902 62.624C283.382 63.168 283.702 63.568 283.862 63.824C284.054 64.08 284.294 64.464 284.582 64.976C284.902 65.456 285.11 65.968 285.206 66.512C285.334 67.056 285.398 67.648 285.398 68.288C285.398 68.864 285.27 69.504 285.014 70.208C284.79 70.912 284.406 71.68 283.862 72.512C283.318 73.312 282.454 73.968 281.27 74.48C280.118 75.024 278.758 75.296 277.19 75.296C275.75 75.296 274.374 74.992 273.062 74.384C271.782 73.776 271.142 72.784 271.142 71.408Z" fill="#531421"/>
<path d="M46.8938 127.131C46.3875 127.131 46.1063 126.878 45.9469 126.325L42.6375 114.578C42.5813 114.372 42.5625 114.259 42.5625 114.109C42.5625 113.659 42.9094 113.341 43.3969 113.341C43.8375 113.341 44.1188 113.584 44.2313 114.016L46.8938 124.516H46.9688L49.8188 114.287C50.0063 113.612 50.3063 113.341 50.8781 113.341C51.4313 113.341 51.7313 113.612 51.9094 114.25L54.7688 124.516H54.8438L57.5063 114.016C57.6188 113.575 57.9094 113.341 58.3406 113.341C58.8281 113.341 59.175 113.659 59.175 114.109C59.175 114.259 59.1563 114.372 59.1 114.578L55.7906 126.325C55.6313 126.878 55.35 127.131 54.8438 127.131C54.3188 127.131 54.0375 126.897 53.8688 126.334L50.9156 116.266H50.8219L47.8688 126.334C47.7 126.897 47.4188 127.131 46.8938 127.131ZM62.709 127.169C60.7684 127.169 59.4653 125.997 59.4653 124.244C59.4653 122.575 60.7496 121.525 62.9996 121.394L65.8028 121.234V120.419C65.8028 119.228 65.0153 118.516 63.6653 118.516C62.6059 118.516 61.884 118.9 61.3403 119.866C61.1903 120.137 60.9746 120.259 60.6653 120.259C60.2434 120.259 59.9434 119.969 59.9434 119.528C59.9434 119.322 60.009 119.087 60.1403 118.853C60.6934 117.784 62.1184 117.081 63.7028 117.081C65.9903 117.081 67.434 118.319 67.434 120.259V126.344C67.434 126.831 67.1153 127.169 66.6653 127.169C66.2059 127.169 65.8871 126.831 65.8871 126.344V125.322H65.8496C65.2684 126.437 64.0215 127.169 62.709 127.169ZM63.0746 125.781C64.6121 125.781 65.8028 124.703 65.8028 123.297V122.5L63.1871 122.659C61.8746 122.744 61.1246 123.325 61.1246 124.244C61.1246 125.172 61.9028 125.781 63.0746 125.781ZM70.7899 127.169C70.3118 127.169 69.9743 126.812 69.9743 126.297V114.175C69.9743 113.659 70.3118 113.303 70.7899 113.303C71.268 113.303 71.6055 113.659 71.6055 114.175V126.297C71.6055 126.812 71.268 127.169 70.7899 127.169ZM77.8864 127.169C75.402 127.169 73.7145 125.181 73.7145 122.125C73.7145 119.069 75.3926 117.081 77.8489 117.081C79.2458 117.081 80.3708 117.766 80.952 118.834H80.9895V114.175C80.9895 113.659 81.327 113.303 81.8051 113.303C82.2833 113.303 82.6208 113.659 82.6208 114.175V126.372C82.6208 126.841 82.2926 127.169 81.8239 127.169C81.3645 127.169 80.9895 126.85 80.9895 126.372V125.256H80.9614C80.427 126.419 79.4145 127.169 77.8864 127.169ZM78.1958 125.734C79.8739 125.734 80.9989 124.309 80.9989 122.125C80.9989 119.95 79.8739 118.516 78.1958 118.516C76.4708 118.516 75.3833 119.922 75.3833 122.125C75.3833 124.337 76.4708 125.734 78.1958 125.734ZM89.2485 127.169C86.5485 127.169 84.7298 125.228 84.7298 122.125C84.7298 119.012 86.5485 117.081 89.2485 117.081C91.9391 117.081 93.7579 119.012 93.7579 122.125C93.7579 125.228 91.9391 127.169 89.2485 127.169ZM89.2485 125.734C90.9735 125.734 92.0985 124.422 92.0985 122.125C92.0985 119.828 90.9735 118.516 89.2485 118.516C87.5235 118.516 86.3891 119.828 86.3891 122.125C86.3891 124.422 87.5235 125.734 89.2485 125.734ZM100.929 127.169C100.451 127.169 100.113 126.812 100.113 126.297V117.906C100.113 117.419 100.432 117.081 100.882 117.081C101.332 117.081 101.651 117.419 101.651 117.906V118.844H101.688C101.97 117.831 102.926 117.081 103.901 117.081C104.257 117.081 104.51 117.166 104.67 117.316C104.81 117.447 104.876 117.634 104.876 117.859C104.876 118.112 104.792 118.3 104.623 118.431C104.454 118.572 104.201 118.637 103.845 118.637C102.373 118.637 101.745 119.697 101.745 120.944V126.297C101.745 126.812 101.407 127.169 100.929 127.169ZM110.041 127.169C107.163 127.169 105.476 125.312 105.476 122.162C105.476 119.087 107.21 117.081 109.901 117.081C112.394 117.081 114.147 118.947 114.147 121.619C114.147 122.209 113.81 122.566 113.247 122.566H107.154C107.154 124.534 108.232 125.753 109.976 125.753C111.138 125.753 111.851 125.341 112.61 124.234C112.779 124 112.966 123.906 113.219 123.906C113.651 123.906 113.941 124.187 113.941 124.619C113.941 124.75 113.894 124.919 113.819 125.097C113.191 126.419 111.822 127.169 110.041 127.169ZM107.163 121.291H112.46C112.422 119.603 111.382 118.497 109.872 118.497C108.354 118.497 107.266 119.612 107.163 121.291ZM119.022 127.169C117.081 127.169 115.778 125.997 115.778 124.244C115.778 122.575 117.063 121.525 119.313 121.394L122.116 121.234V120.419C122.116 119.228 121.328 118.516 119.978 118.516C118.919 118.516 118.197 118.9 117.653 119.866C117.503 120.137 117.288 120.259 116.978 120.259C116.556 120.259 116.256 119.969 116.256 119.528C116.256 119.322 116.322 119.087 116.453 118.853C117.006 117.784 118.431 117.081 120.016 117.081C122.303 117.081 123.747 118.319 123.747 120.259V126.344C123.747 126.831 123.428 127.169 122.978 127.169C122.519 127.169 122.2 126.831 122.2 126.344V125.322H122.163C121.581 126.437 120.335 127.169 119.022 127.169ZM119.388 125.781C120.925 125.781 122.116 124.703 122.116 123.297V122.5L119.5 122.659C118.188 122.744 117.438 123.325 117.438 124.244C117.438 125.172 118.216 125.781 119.388 125.781ZM129.897 127.169C127.412 127.169 125.725 125.181 125.725 122.125C125.725 119.069 127.403 117.081 129.859 117.081C131.256 117.081 132.381 117.766 132.962 118.834H133V114.175C133 113.659 133.337 113.303 133.815 113.303C134.294 113.303 134.631 113.659 134.631 114.175V126.372C134.631 126.841 134.303 127.169 133.834 127.169C133.375 127.169 133 126.85 133 126.372V125.256H132.972C132.437 126.419 131.425 127.169 129.897 127.169ZM130.206 125.734C131.884 125.734 133.009 124.309 133.009 122.125C133.009 119.95 131.884 118.516 130.206 118.516C128.481 118.516 127.394 119.922 127.394 122.125C127.394 124.337 128.481 125.734 130.206 125.734ZM140.603 127.169C138.868 127.169 137.509 126.391 137.04 125.172C136.984 125.031 136.965 124.909 136.965 124.787C136.965 124.356 137.284 124.112 137.706 124.112C137.996 124.112 138.231 124.262 138.418 124.6C138.906 125.453 139.487 125.837 140.734 125.837C141.981 125.837 142.824 125.294 142.824 124.384C142.824 123.681 142.421 123.306 141.324 123.034L139.834 122.659C137.949 122.191 137.04 121.3 137.04 119.931C137.04 118.234 138.531 117.081 140.734 117.081C142.337 117.081 143.762 117.981 144.015 119.153C144.034 119.247 144.043 119.322 144.043 119.397C144.043 119.781 143.799 120.034 143.406 120.034C143.087 120.034 142.862 119.931 142.684 119.594C142.262 118.778 141.634 118.422 140.64 118.422C139.468 118.422 138.653 119.012 138.653 119.847C138.653 120.522 139.178 120.991 140.246 121.253L141.699 121.609C143.734 122.106 144.484 122.819 144.484 124.253C144.484 125.997 142.918 127.169 140.603 127.169ZM151.683 130.441C151.205 130.441 150.867 130.084 150.867 129.569V117.906C150.867 117.419 151.186 117.081 151.646 117.081C152.096 117.081 152.414 117.419 152.414 117.906V118.9H152.452C153.052 117.803 154.186 117.081 155.602 117.081C158.086 117.081 159.774 119.069 159.774 122.125C159.774 125.181 158.096 127.169 155.639 127.169C154.242 127.169 153.117 126.484 152.536 125.416H152.499V129.569C152.499 130.084 152.161 130.441 151.683 130.441ZM155.283 125.734C157.017 125.734 158.105 124.337 158.105 122.125C158.105 119.922 157.017 118.516 155.283 118.516C153.614 118.516 152.489 119.959 152.489 122.125C152.489 124.3 153.614 125.734 155.283 125.734ZM164.648 127.169C162.708 127.169 161.405 125.997 161.405 124.244C161.405 122.575 162.689 121.525 164.939 121.394L167.742 121.234V120.419C167.742 119.228 166.955 118.516 165.605 118.516C164.545 118.516 163.823 118.9 163.28 119.866C163.13 120.137 162.914 120.259 162.605 120.259C162.183 120.259 161.883 119.969 161.883 119.528C161.883 119.322 161.948 119.087 162.08 118.853C162.633 117.784 164.058 117.081 165.642 117.081C167.93 117.081 169.373 118.319 169.373 120.259V126.344C169.373 126.831 169.055 127.169 168.605 127.169C168.145 127.169 167.826 126.831 167.826 126.344V125.322H167.789C167.208 126.437 165.961 127.169 164.648 127.169ZM165.014 125.781C166.551 125.781 167.742 124.703 167.742 123.297V122.5L165.126 122.659C163.814 122.744 163.064 123.325 163.064 124.244C163.064 125.172 163.842 125.781 165.014 125.781ZM175.214 127.169C173.479 127.169 172.12 126.391 171.651 125.172C171.595 125.031 171.576 124.909 171.576 124.787C171.576 124.356 171.895 124.112 172.317 124.112C172.607 124.112 172.842 124.262 173.029 124.6C173.517 125.453 174.098 125.837 175.345 125.837C176.592 125.837 177.435 125.294 177.435 124.384C177.435 123.681 177.032 123.306 175.935 123.034L174.445 122.659C172.56 122.191 171.651 121.3 171.651 119.931C171.651 118.234 173.142 117.081 175.345 117.081C176.948 117.081 178.373 117.981 178.626 119.153C178.645 119.247 178.654 119.322 178.654 119.397C178.654 119.781 178.41 120.034 178.017 120.034C177.698 120.034 177.473 119.931 177.295 119.594C176.873 118.778 176.245 118.422 175.251 118.422C174.079 118.422 173.264 119.012 173.264 119.847C173.264 120.522 173.789 120.991 174.857 121.253L176.31 121.609C178.345 122.106 179.095 122.819 179.095 124.253C179.095 125.997 177.529 127.169 175.214 127.169ZM181.682 124.75V118.591H180.866C180.398 118.591 180.135 118.347 180.135 117.916C180.135 117.494 180.398 117.25 180.866 117.25H181.682V115.581C181.682 115.066 182.019 114.709 182.498 114.709C182.976 114.709 183.313 115.066 183.313 115.581V117.25H184.569C185.038 117.25 185.301 117.494 185.301 117.916C185.301 118.347 185.038 118.591 184.569 118.591H183.313V124.394C183.313 125.219 183.604 125.612 184.419 125.669L184.56 125.678C185.094 125.716 185.338 125.931 185.338 126.316C185.338 126.812 185.057 127.075 184.148 127.075H184.044C182.469 127.075 181.682 126.306 181.682 124.75ZM192.612 130.647C191.825 130.647 191.384 130.356 191.384 129.841C191.384 129.484 191.628 129.241 192.041 129.241C192.275 129.241 192.341 129.25 192.594 129.25C193.212 129.25 193.803 128.875 194.187 127.694L194.412 127.009L191.056 118.262C191 118.103 190.972 117.953 190.972 117.831C190.972 117.381 191.319 117.081 191.787 117.081C192.172 117.081 192.416 117.25 192.566 117.681L195.256 125.369H195.284L197.984 117.681C198.134 117.25 198.35 117.081 198.753 117.081C199.222 117.081 199.55 117.391 199.55 117.831C199.55 117.953 199.522 118.103 199.466 118.262L195.866 127.684C195.022 129.925 194.225 130.647 192.612 130.647ZM205.137 127.169C202.437 127.169 200.618 125.228 200.618 122.125C200.618 119.012 202.437 117.081 205.137 117.081C207.828 117.081 209.646 119.012 209.646 122.125C209.646 125.228 207.828 127.169 205.137 127.169ZM205.137 125.734C206.862 125.734 207.987 124.422 207.987 122.125C207.987 119.828 206.862 118.516 205.137 118.516C203.412 118.516 202.278 119.828 202.278 122.125C202.278 124.422 203.412 125.734 205.137 125.734ZM215.009 127.169C212.88 127.169 211.634 125.791 211.634 123.578V117.953C211.634 117.437 211.971 117.081 212.449 117.081C212.927 117.081 213.265 117.437 213.265 117.953V123.287C213.265 124.872 214.005 125.725 215.515 125.725C217.099 125.725 218.055 124.637 218.055 122.978V117.953C218.055 117.437 218.393 117.081 218.871 117.081C219.349 117.081 219.687 117.437 219.687 117.953V126.344C219.687 126.812 219.387 127.169 218.918 127.169C218.449 127.169 218.14 126.812 218.14 126.344V125.416H218.102C217.521 126.541 216.509 127.169 215.009 127.169ZM223.005 127.169C222.527 127.169 222.189 126.812 222.189 126.297V117.906C222.189 117.419 222.508 117.081 222.958 117.081C223.408 117.081 223.727 117.419 223.727 117.906V118.844H223.764C224.046 117.831 225.002 117.081 225.977 117.081C226.333 117.081 226.586 117.166 226.746 117.316C226.886 117.447 226.952 117.634 226.952 117.859C226.952 118.112 226.868 118.3 226.699 118.431C226.53 118.572 226.277 118.637 225.921 118.637C224.449 118.637 223.821 119.697 223.821 120.944V126.297C223.821 126.812 223.483 127.169 223.005 127.169ZM233.345 124.75V118.591H232.529C232.061 118.591 231.798 118.347 231.798 117.916C231.798 117.494 232.061 117.25 232.529 117.25H233.345V115.581C233.345 115.066 233.682 114.709 234.161 114.709C234.639 114.709 234.976 115.066 234.976 115.581V117.25H236.232C236.701 117.25 236.964 117.494 236.964 117.916C236.964 118.347 236.701 118.591 236.232 118.591H234.976V124.394C234.976 125.219 235.267 125.612 236.082 125.669L236.223 125.678C236.757 125.716 237.001 125.931 237.001 126.316C237.001 126.812 236.72 127.075 235.811 127.075H235.707C234.132 127.075 233.345 126.306 233.345 124.75ZM239.813 127.169C239.335 127.169 238.998 126.812 238.998 126.297V117.906C238.998 117.419 239.316 117.081 239.766 117.081C240.216 117.081 240.535 117.419 240.535 117.906V118.844H240.573C240.854 117.831 241.81 117.081 242.785 117.081C243.141 117.081 243.395 117.166 243.554 117.316C243.695 117.447 243.76 117.634 243.76 117.859C243.76 118.112 243.676 118.3 243.507 118.431C243.338 118.572 243.085 118.637 242.729 118.637C241.257 118.637 240.629 119.697 240.629 120.944V126.297C240.629 126.812 240.291 127.169 239.813 127.169ZM247.96 127.169C246.019 127.169 244.716 125.997 244.716 124.244C244.716 122.575 246 121.525 248.25 121.394L251.054 121.234V120.419C251.054 119.228 250.266 118.516 248.916 118.516C247.857 118.516 247.135 118.9 246.591 119.866C246.441 120.137 246.225 120.259 245.916 120.259C245.494 120.259 245.194 119.969 245.194 119.528C245.194 119.322 245.26 119.087 245.391 118.853C245.944 117.784 247.369 117.081 248.954 117.081C251.241 117.081 252.685 118.319 252.685 120.259V126.344C252.685 126.831 252.366 127.169 251.916 127.169C251.457 127.169 251.138 126.831 251.138 126.344V125.322H251.1C250.519 126.437 249.272 127.169 247.96 127.169ZM248.325 125.781C249.863 125.781 251.054 124.703 251.054 123.297V122.5L248.438 122.659C247.125 122.744 246.375 123.325 246.375 124.244C246.375 125.172 247.154 125.781 248.325 125.781ZM256.041 115.609C255.488 115.609 255.028 115.15 255.028 114.597C255.028 114.034 255.488 113.584 256.041 113.584C256.603 113.584 257.063 114.034 257.063 114.597C257.063 115.15 256.603 115.609 256.041 115.609ZM256.041 127.169C255.563 127.169 255.225 126.812 255.225 126.297V117.953C255.225 117.437 255.563 117.081 256.041 117.081C256.519 117.081 256.856 117.437 256.856 117.953V126.297C256.856 126.812 256.519 127.169 256.041 127.169ZM260.259 127.169C259.781 127.169 259.443 126.812 259.443 126.297V117.906C259.443 117.419 259.762 117.081 260.212 117.081C260.662 117.081 260.981 117.419 260.981 117.906V118.806H261.018C261.562 117.756 262.603 117.081 264.112 117.081C266.25 117.081 267.487 118.459 267.487 120.672V126.297C267.487 126.812 267.15 127.169 266.672 127.169C266.193 127.169 265.856 126.812 265.856 126.297V120.962C265.856 119.387 265.115 118.525 263.615 118.525C262.078 118.525 261.075 119.612 261.075 121.262V126.297C261.075 126.812 260.737 127.169 260.259 127.169ZM270.852 115.609C270.299 115.609 269.84 115.15 269.84 114.597C269.84 114.034 270.299 113.584 270.852 113.584C271.415 113.584 271.874 114.034 271.874 114.597C271.874 115.15 271.415 115.609 270.852 115.609ZM270.852 127.169C270.374 127.169 270.037 126.812 270.037 126.297V117.953C270.037 117.437 270.374 117.081 270.852 117.081C271.331 117.081 271.668 117.437 271.668 117.953V126.297C271.668 126.812 271.331 127.169 270.852 127.169ZM275.071 127.169C274.593 127.169 274.255 126.812 274.255 126.297V117.906C274.255 117.419 274.574 117.081 275.024 117.081C275.474 117.081 275.793 117.419 275.793 117.906V118.806H275.83C276.374 117.756 277.415 117.081 278.924 117.081C281.061 117.081 282.299 118.459 282.299 120.672V126.297C282.299 126.812 281.961 127.169 281.483 127.169C281.005 127.169 280.668 126.812 280.668 126.297V120.962C280.668 119.387 279.927 118.525 278.427 118.525C276.89 118.525 275.886 119.612 275.886 121.262V126.297C275.886 126.812 275.549 127.169 275.071 127.169ZM288.702 130.675C287.07 130.656 285.711 130.009 285.027 128.931C284.895 128.725 284.839 128.538 284.839 128.322C284.839 127.909 285.139 127.619 285.57 127.619C285.842 127.619 286.002 127.713 286.255 127.994C287.089 128.913 287.774 129.269 288.767 129.288C290.511 129.316 291.57 128.313 291.57 126.859V125.322H291.533C290.933 126.381 289.77 127.075 288.402 127.075C285.917 127.075 284.286 125.116 284.286 122.087C284.286 119.031 285.917 117.081 288.439 117.081C289.817 117.081 290.895 117.756 291.542 118.853H291.57V117.925C291.57 117.419 291.917 117.081 292.386 117.081C292.855 117.081 293.202 117.419 293.202 117.925V126.803C293.202 129.128 291.477 130.703 288.702 130.675ZM288.73 125.641C290.427 125.641 291.57 124.234 291.57 122.087C291.57 119.941 290.427 118.516 288.73 118.516C287.052 118.516 285.955 119.903 285.955 122.087C285.955 124.272 287.052 125.641 288.73 125.641ZM304.048 127.169C301.348 127.169 299.548 125.228 299.548 122.144C299.548 119.078 301.329 117.081 304.029 117.081C305.867 117.081 307.47 118.122 307.845 119.472C307.882 119.594 307.901 119.716 307.901 119.819C307.901 120.25 307.629 120.531 307.207 120.531C306.851 120.531 306.654 120.381 306.429 119.959C305.913 118.994 305.173 118.516 304.048 118.516C302.351 118.516 301.207 119.941 301.207 122.125C301.207 124.366 302.37 125.734 304.048 125.734C305.22 125.734 305.932 125.228 306.438 124.291C306.673 123.85 306.851 123.719 307.207 123.719C307.629 123.719 307.91 124.009 307.91 124.431C307.91 124.553 307.882 124.694 307.835 124.844C307.367 126.194 305.82 127.169 304.048 127.169ZM312.869 127.169C310.929 127.169 309.626 125.997 309.626 124.244C309.626 122.575 310.91 121.525 313.16 121.394L315.963 121.234V120.419C315.963 119.228 315.176 118.516 313.826 118.516C312.766 118.516 312.044 118.9 311.501 119.866C311.351 120.137 311.135 120.259 310.826 120.259C310.404 120.259 310.104 119.969 310.104 119.528C310.104 119.322 310.169 119.087 310.301 118.853C310.854 117.784 312.279 117.081 313.863 117.081C316.151 117.081 317.594 118.319 317.594 120.259V126.344C317.594 126.831 317.276 127.169 316.826 127.169C316.366 127.169 316.047 126.831 316.047 126.344V125.322H316.01C315.429 126.437 314.182 127.169 312.869 127.169ZM313.235 125.781C314.772 125.781 315.963 124.703 315.963 123.297V122.5L313.347 122.659C312.035 122.744 311.285 123.325 311.285 124.244C311.285 125.172 312.063 125.781 313.235 125.781ZM320.95 127.169C320.472 127.169 320.135 126.812 320.135 126.297V114.175C320.135 113.659 320.472 113.303 320.95 113.303C321.428 113.303 321.766 113.659 321.766 114.175V126.297C321.766 126.812 321.428 127.169 320.95 127.169ZM328.44 127.169C325.562 127.169 323.875 125.312 323.875 122.162C323.875 119.087 325.609 117.081 328.3 117.081C330.794 117.081 332.547 118.947 332.547 121.619C332.547 122.209 332.209 122.566 331.647 122.566H325.553C325.553 124.534 326.631 125.753 328.375 125.753C329.537 125.753 330.25 125.341 331.009 124.234C331.178 124 331.365 123.906 331.619 123.906C332.05 123.906 332.34 124.187 332.34 124.619C332.34 124.75 332.294 124.919 332.219 125.097C331.59 126.419 330.222 127.169 328.44 127.169ZM325.562 121.291H330.859C330.822 119.603 329.781 118.497 328.272 118.497C326.753 118.497 325.665 119.612 325.562 121.291ZM335.396 127.169C334.918 127.169 334.581 126.812 334.581 126.297V117.906C334.581 117.419 334.899 117.081 335.349 117.081C335.799 117.081 336.118 117.419 336.118 117.906V118.806H336.156C336.699 117.756 337.74 117.081 339.249 117.081C341.387 117.081 342.624 118.459 342.624 120.672V126.297C342.624 126.812 342.287 127.169 341.809 127.169C341.331 127.169 340.993 126.812 340.993 126.297V120.962C340.993 119.387 340.253 118.525 338.753 118.525C337.215 118.525 336.212 119.612 336.212 121.262V126.297C336.212 126.812 335.874 127.169 335.396 127.169ZM348.783 127.169C346.299 127.169 344.612 125.181 344.612 122.125C344.612 119.069 346.29 117.081 348.746 117.081C350.143 117.081 351.268 117.766 351.849 118.834H351.887V114.175C351.887 113.659 352.224 113.303 352.702 113.303C353.18 113.303 353.518 113.659 353.518 114.175V126.372C353.518 126.841 353.19 127.169 352.721 127.169C352.262 127.169 351.887 126.85 351.887 126.372V125.256H351.858C351.324 126.419 350.312 127.169 348.783 127.169ZM349.093 125.734C350.771 125.734 351.896 124.309 351.896 122.125C351.896 119.95 350.771 118.516 349.093 118.516C347.368 118.516 346.28 119.922 346.28 122.125C346.28 124.337 347.368 125.734 349.093 125.734ZM358.946 127.169C357.005 127.169 355.702 125.997 355.702 124.244C355.702 122.575 356.986 121.525 359.236 121.394L362.039 121.234V120.419C362.039 119.228 361.252 118.516 359.902 118.516C358.842 118.516 358.121 118.9 357.577 119.866C357.427 120.137 357.211 120.259 356.902 120.259C356.48 120.259 356.18 119.969 356.18 119.528C356.18 119.322 356.246 119.087 356.377 118.853C356.93 117.784 358.355 117.081 359.939 117.081C362.227 117.081 363.671 118.319 363.671 120.259V126.344C363.671 126.831 363.352 127.169 362.902 127.169C362.442 127.169 362.124 126.831 362.124 126.344V125.322H362.086C361.505 126.437 360.258 127.169 358.946 127.169ZM359.311 125.781C360.849 125.781 362.039 124.703 362.039 123.297V122.5L359.424 122.659C358.111 122.744 357.361 123.325 357.361 124.244C357.361 125.172 358.139 125.781 359.311 125.781ZM366.942 127.169C366.464 127.169 366.126 126.812 366.126 126.297V117.906C366.126 117.419 366.445 117.081 366.895 117.081C367.345 117.081 367.664 117.419 367.664 117.906V118.844H367.701C367.983 117.831 368.939 117.081 369.914 117.081C370.27 117.081 370.523 117.166 370.683 117.316C370.823 117.447 370.889 117.634 370.889 117.859C370.889 118.112 370.805 118.3 370.636 118.431C370.467 118.572 370.214 118.637 369.858 118.637C368.386 118.637 367.758 119.697 367.758 120.944V126.297C367.758 126.812 367.42 127.169 366.942 127.169ZM373.814 120.194C373.214 120.194 372.745 119.725 372.745 119.125C372.745 118.525 373.214 118.056 373.814 118.056C374.414 118.056 374.882 118.525 374.882 119.125C374.882 119.725 374.414 120.194 373.814 120.194ZM373.785 124.825C374.264 124.825 374.601 125.106 374.601 125.566C374.601 125.734 374.582 125.875 374.526 126.081L373.664 129.306C373.56 129.709 373.345 129.897 372.951 129.897C372.576 129.897 372.285 129.681 372.285 129.306C372.285 129.166 372.304 129.072 372.314 129.016L372.979 125.537C373.082 125.022 373.345 124.825 373.785 124.825ZM43.5844 151.75V145.591H42.7688C42.3 145.591 42.0375 145.347 42.0375 144.916C42.0375 144.494 42.3 144.25 42.7688 144.25H43.5844V142.581C43.5844 142.066 43.9219 141.709 44.4 141.709C44.8781 141.709 45.2156 142.066 45.2156 142.581V144.25H46.4719C46.9406 144.25 47.2031 144.494 47.2031 144.916C47.2031 145.347 46.9406 145.591 46.4719 145.591H45.2156V151.394C45.2156 152.219 45.5063 152.612 46.3219 152.669L46.4625 152.678C46.9969 152.716 47.2406 152.931 47.2406 153.316C47.2406 153.812 46.9594 154.075 46.05 154.075H45.9469C44.3719 154.075 43.5844 153.306 43.5844 151.75ZM50.1371 154.169C49.659 154.169 49.3215 153.812 49.3215 153.297V141.156C49.3215 140.65 49.6496 140.303 50.1371 140.303C50.634 140.303 50.9528 140.65 50.9528 141.156V145.806H50.9903C51.534 144.719 52.6028 144.081 54.084 144.081C56.2215 144.081 57.5153 145.525 57.5153 147.7V153.297C57.5153 153.812 57.1778 154.169 56.6996 154.169C56.2215 154.169 55.884 153.812 55.884 153.297V148C55.884 146.453 55.1059 145.525 53.5778 145.525C51.9559 145.525 50.9528 146.631 50.9528 148.319V153.297C50.9528 153.812 50.6153 154.169 50.1371 154.169ZM64.0586 154.169C61.1805 154.169 59.493 152.312 59.493 149.162C59.493 146.087 61.2274 144.081 63.918 144.081C66.4118 144.081 68.1649 145.947 68.1649 148.619C68.1649 149.209 67.8274 149.566 67.2649 149.566H61.1711C61.1711 151.534 62.2493 152.753 63.993 152.753C65.1555 152.753 65.868 152.341 66.6274 151.234C66.7961 151 66.9836 150.906 67.2368 150.906C67.668 150.906 67.9586 151.187 67.9586 151.619C67.9586 151.75 67.9118 151.919 67.8368 152.097C67.2086 153.419 65.8399 154.169 64.0586 154.169ZM61.1805 148.291H66.4774C66.4399 146.603 65.3993 145.497 63.8899 145.497C62.3711 145.497 61.2836 146.612 61.1805 148.291ZM75.4204 154.169C74.9423 154.169 74.6048 153.812 74.6048 153.297V141.156C74.6048 140.65 74.9329 140.303 75.4204 140.303C75.9173 140.303 76.236 140.65 76.236 141.156V145.806H76.2735C76.8173 144.719 77.886 144.081 79.3673 144.081C81.5048 144.081 82.7985 145.525 82.7985 147.7V153.297C82.7985 153.812 82.461 154.169 81.9829 154.169C81.5048 154.169 81.1673 153.812 81.1673 153.297V148C81.1673 146.453 80.3891 145.525 78.861 145.525C77.2391 145.525 76.236 146.631 76.236 148.319V153.297C76.236 153.812 75.8985 154.169 75.4204 154.169ZM89.3419 154.169C86.4637 154.169 84.7762 152.312 84.7762 149.162C84.7762 146.087 86.5106 144.081 89.2012 144.081C91.695 144.081 93.4481 145.947 93.4481 148.619C93.4481 149.209 93.1106 149.566 92.5481 149.566H86.4544C86.4544 151.534 87.5325 152.753 89.2762 152.753C90.4387 152.753 91.1512 152.341 91.9106 151.234C92.0794 151 92.2669 150.906 92.52 150.906C92.9513 150.906 93.2419 151.187 93.2419 151.619C93.2419 151.75 93.195 151.919 93.12 152.097C92.4919 153.419 91.1231 154.169 89.3419 154.169ZM86.4637 148.291H91.7606C91.7231 146.603 90.6825 145.497 89.1731 145.497C87.6544 145.497 86.5669 146.612 86.4637 148.291ZM98.3228 154.169C96.3821 154.169 95.079 152.997 95.079 151.244C95.079 149.575 96.3634 148.525 98.6134 148.394L101.417 148.234V147.419C101.417 146.228 100.629 145.516 99.279 145.516C98.2196 145.516 97.4978 145.9 96.954 146.866C96.804 147.137 96.5884 147.259 96.279 147.259C95.8571 147.259 95.5571 146.969 95.5571 146.528C95.5571 146.322 95.6228 146.087 95.754 145.853C96.3071 144.784 97.7321 144.081 99.3165 144.081C101.604 144.081 103.048 145.319 103.048 147.259V153.344C103.048 153.831 102.729 154.169 102.279 154.169C101.82 154.169 101.501 153.831 101.501 153.344V152.322H101.463C100.882 153.437 99.6353 154.169 98.3228 154.169ZM98.6884 152.781C100.226 152.781 101.417 151.703 101.417 150.297V149.5L98.8009 149.659C97.4884 149.744 96.7384 150.325 96.7384 151.244C96.7384 152.172 97.5165 152.781 98.6884 152.781ZM109.076 154.169C108.541 154.169 108.241 153.934 108.007 153.344L104.904 145.253C104.847 145.112 104.819 144.972 104.819 144.831C104.819 144.381 105.147 144.081 105.635 144.081C106.001 144.081 106.244 144.278 106.394 144.7L109.066 152.266H109.104L111.785 144.7C111.935 144.278 112.179 144.081 112.535 144.081C113.022 144.081 113.341 144.381 113.341 144.831C113.341 144.972 113.313 145.112 113.257 145.253L110.163 153.344C109.947 153.906 109.601 154.169 109.076 154.169ZM116.125 157.647C115.338 157.647 114.897 157.356 114.897 156.841C114.897 156.484 115.141 156.241 115.553 156.241C115.788 156.241 115.853 156.25 116.106 156.25C116.725 156.25 117.316 155.875 117.7 154.694L117.925 154.009L114.569 145.262C114.513 145.103 114.485 144.953 114.485 144.831C114.485 144.381 114.831 144.081 115.3 144.081C115.685 144.081 115.928 144.25 116.078 144.681L118.769 152.369H118.797L121.497 144.681C121.647 144.25 121.863 144.081 122.266 144.081C122.735 144.081 123.063 144.391 123.063 144.831C123.063 144.953 123.035 145.103 122.978 145.262L119.378 154.684C118.535 156.925 117.738 157.647 116.125 157.647ZM132.596 154.169C130.862 154.169 129.503 153.391 129.034 152.172C128.978 152.031 128.959 151.909 128.959 151.787C128.959 151.356 129.278 151.112 129.699 151.112C129.99 151.112 130.224 151.262 130.412 151.6C130.899 152.453 131.481 152.837 132.728 152.837C133.974 152.837 134.818 152.294 134.818 151.384C134.818 150.681 134.415 150.306 133.318 150.034L131.828 149.659C129.943 149.191 129.034 148.3 129.034 146.931C129.034 145.234 130.524 144.081 132.728 144.081C134.331 144.081 135.756 144.981 136.009 146.153C136.028 146.247 136.037 146.322 136.037 146.397C136.037 146.781 135.793 147.034 135.399 147.034C135.081 147.034 134.856 146.931 134.678 146.594C134.256 145.778 133.628 145.422 132.634 145.422C131.462 145.422 130.646 146.012 130.646 146.847C130.646 147.522 131.171 147.991 132.24 148.253L133.693 148.609C135.728 149.106 136.478 149.819 136.478 151.253C136.478 152.997 134.912 154.169 132.596 154.169ZM142.627 154.169C139.749 154.169 138.062 152.312 138.062 149.162C138.062 146.087 139.796 144.081 142.487 144.081C144.98 144.081 146.733 145.947 146.733 148.619C146.733 149.209 146.396 149.566 145.833 149.566H139.74C139.74 151.534 140.818 152.753 142.562 152.753C143.724 152.753 144.437 152.341 145.196 151.234C145.365 151 145.552 150.906 145.805 150.906C146.237 150.906 146.527 151.187 146.527 151.619C146.527 151.75 146.48 151.919 146.405 152.097C145.777 153.419 144.408 154.169 142.627 154.169ZM139.749 148.291H145.046C145.008 146.603 143.968 145.497 142.458 145.497C140.94 145.497 139.852 146.612 139.749 148.291ZM152.152 154.169C150.417 154.169 149.058 153.391 148.589 152.172C148.533 152.031 148.514 151.909 148.514 151.787C148.514 151.356 148.833 151.112 149.255 151.112C149.546 151.112 149.78 151.262 149.967 151.6C150.455 152.453 151.036 152.837 152.283 152.837C153.53 152.837 154.374 152.294 154.374 151.384C154.374 150.681 153.971 150.306 152.874 150.034L151.383 149.659C149.499 149.191 148.589 148.3 148.589 146.931C148.589 145.234 150.08 144.081 152.283 144.081C153.886 144.081 155.311 144.981 155.564 146.153C155.583 146.247 155.592 146.322 155.592 146.397C155.592 146.781 155.349 147.034 154.955 147.034C154.636 147.034 154.411 146.931 154.233 146.594C153.811 145.778 153.183 145.422 152.189 145.422C151.017 145.422 150.202 146.012 150.202 146.847C150.202 147.522 150.727 147.991 151.796 148.253L153.249 148.609C155.283 149.106 156.033 149.819 156.033 151.253C156.033 152.997 154.467 154.169 152.152 154.169ZM161.48 154.169C159.745 154.169 158.386 153.391 157.917 152.172C157.861 152.031 157.842 151.909 157.842 151.787C157.842 151.356 158.161 151.112 158.583 151.112C158.873 151.112 159.108 151.262 159.295 151.6C159.783 152.453 160.364 152.837 161.611 152.837C162.858 152.837 163.701 152.294 163.701 151.384C163.701 150.681 163.298 150.306 162.201 150.034L160.711 149.659C158.826 149.191 157.917 148.3 157.917 146.931C157.917 145.234 159.408 144.081 161.611 144.081C163.214 144.081 164.639 144.981 164.892 146.153C164.911 146.247 164.92 146.322 164.92 146.397C164.92 146.781 164.676 147.034 164.283 147.034C163.964 147.034 163.739 146.931 163.561 146.594C163.139 145.778 162.511 145.422 161.517 145.422C160.345 145.422 159.53 146.012 159.53 146.847C159.53 147.522 160.055 147.991 161.123 148.253L162.576 148.609C164.611 149.106 165.361 149.819 165.361 151.253C165.361 152.997 163.795 154.169 161.48 154.169ZM168.323 142.609C167.77 142.609 167.31 142.15 167.31 141.597C167.31 141.034 167.77 140.584 168.323 140.584C168.885 140.584 169.345 141.034 169.345 141.597C169.345 142.15 168.885 142.609 168.323 142.609ZM168.323 154.169C167.845 154.169 167.507 153.812 167.507 153.297V144.953C167.507 144.437 167.845 144.081 168.323 144.081C168.801 144.081 169.139 144.437 169.139 144.953V153.297C169.139 153.812 168.801 154.169 168.323 154.169ZM175.766 154.169C173.066 154.169 171.248 152.228 171.248 149.125C171.248 146.012 173.066 144.081 175.766 144.081C178.457 144.081 180.276 146.012 180.276 149.125C180.276 152.228 178.457 154.169 175.766 154.169ZM175.766 152.734C177.491 152.734 178.616 151.422 178.616 149.125C178.616 146.828 177.491 145.516 175.766 145.516C174.041 145.516 172.907 146.828 172.907 149.125C172.907 151.422 174.041 152.734 175.766 152.734ZM183.125 154.169C182.647 154.169 182.31 153.812 182.31 153.297V144.906C182.31 144.419 182.628 144.081 183.078 144.081C183.528 144.081 183.847 144.419 183.847 144.906V145.806H183.885C184.428 144.756 185.469 144.081 186.978 144.081C189.116 144.081 190.353 145.459 190.353 147.672V153.297C190.353 153.812 190.016 154.169 189.538 154.169C189.06 154.169 188.722 153.812 188.722 153.297V147.962C188.722 146.387 187.982 145.525 186.482 145.525C184.944 145.525 183.941 146.612 183.941 148.262V153.297C183.941 153.812 183.603 154.169 183.125 154.169ZM196.203 154.169C194.469 154.169 193.109 153.391 192.641 152.172C192.584 152.031 192.566 151.909 192.566 151.787C192.566 151.356 192.884 151.112 193.306 151.112C193.597 151.112 193.831 151.262 194.019 151.6C194.506 152.453 195.087 152.837 196.334 152.837C197.581 152.837 198.425 152.294 198.425 151.384C198.425 150.681 198.022 150.306 196.925 150.034L195.434 149.659C193.55 149.191 192.641 148.3 192.641 146.931C192.641 145.234 194.131 144.081 196.334 144.081C197.937 144.081 199.362 144.981 199.616 146.153C199.634 146.247 199.644 146.322 199.644 146.397C199.644 146.781 199.4 147.034 199.006 147.034C198.687 147.034 198.462 146.931 198.284 146.594C197.862 145.778 197.234 145.422 196.241 145.422C195.069 145.422 194.253 146.012 194.253 146.847C194.253 147.522 194.778 147.991 195.847 148.253L197.3 148.609C199.334 149.106 200.084 149.819 200.084 151.253C200.084 152.997 198.519 154.169 196.203 154.169ZM206.993 151.75V145.591H206.177C205.709 145.591 205.446 145.347 205.446 144.916C205.446 144.494 205.709 144.25 206.177 144.25H206.993V142.581C206.993 142.066 207.33 141.709 207.809 141.709C208.287 141.709 208.624 142.066 208.624 142.581V144.25H209.88C210.349 144.25 210.612 144.494 210.612 144.916C210.612 145.347 210.349 145.591 209.88 145.591H208.624V151.394C208.624 152.219 208.915 152.612 209.73 152.669L209.871 152.678C210.405 152.716 210.649 152.931 210.649 153.316C210.649 153.812 210.368 154.075 209.459 154.075H209.355C207.78 154.075 206.993 153.306 206.993 151.75ZM213.546 154.169C213.068 154.169 212.73 153.812 212.73 153.297V141.156C212.73 140.65 213.058 140.303 213.546 140.303C214.043 140.303 214.361 140.65 214.361 141.156V145.806H214.399C214.943 144.719 216.011 144.081 217.493 144.081C219.63 144.081 220.924 145.525 220.924 147.7V153.297C220.924 153.812 220.586 154.169 220.108 154.169C219.63 154.169 219.293 153.812 219.293 153.297V148C219.293 146.453 218.514 145.525 216.986 145.525C215.364 145.525 214.361 146.631 214.361 148.319V153.297C214.361 153.812 214.024 154.169 213.546 154.169ZM226.22 154.169C224.28 154.169 222.977 152.997 222.977 151.244C222.977 149.575 224.261 148.525 226.511 148.394L229.314 148.234V147.419C229.314 146.228 228.527 145.516 227.177 145.516C226.117 145.516 225.395 145.9 224.852 146.866C224.702 147.137 224.486 147.259 224.177 147.259C223.755 147.259 223.455 146.969 223.455 146.528C223.455 146.322 223.52 146.087 223.652 145.853C224.205 144.784 225.63 144.081 227.214 144.081C229.502 144.081 230.945 145.319 230.945 147.259V153.344C230.945 153.831 230.627 154.169 230.177 154.169C229.717 154.169 229.398 153.831 229.398 153.344V152.322H229.361C228.78 153.437 227.533 154.169 226.22 154.169ZM226.586 152.781C228.123 152.781 229.314 151.703 229.314 150.297V149.5L226.698 149.659C225.386 149.744 224.636 150.325 224.636 151.244C224.636 152.172 225.414 152.781 226.586 152.781ZM233.926 151.75V145.591H233.111C232.642 145.591 232.379 145.347 232.379 144.916C232.379 144.494 232.642 144.25 233.111 144.25H233.926V142.581C233.926 142.066 234.264 141.709 234.742 141.709C235.22 141.709 235.557 142.066 235.557 142.581V144.25H236.814C237.282 144.25 237.545 144.494 237.545 144.916C237.545 145.347 237.282 145.591 236.814 145.591H235.557V151.394C235.557 152.219 235.848 152.612 236.664 152.669L236.804 152.678C237.339 152.716 237.582 152.931 237.582 153.316C237.582 153.812 237.301 154.075 236.392 154.075H236.289C234.714 154.075 233.926 153.306 233.926 151.75ZM246.647 154.169C246.132 154.169 245.822 153.925 245.663 153.381L243.282 145.206C243.235 145.047 243.216 144.906 243.216 144.784C243.216 144.353 243.525 144.081 244.013 144.081C244.416 144.081 244.632 144.269 244.754 144.747L246.675 152.181H246.713L248.757 144.812C248.888 144.334 249.216 144.081 249.713 144.081C250.2 144.081 250.51 144.325 250.641 144.803L252.704 152.181H252.741L254.663 144.747C254.785 144.269 255 144.081 255.404 144.081C255.891 144.081 256.2 144.353 256.2 144.784C256.2 144.906 256.182 145.047 256.135 145.206L253.754 153.381C253.604 153.906 253.266 154.169 252.76 154.169C252.216 154.169 251.907 153.934 251.747 153.381L249.722 146.453H249.685L247.669 153.381C247.519 153.897 247.163 154.169 246.647 154.169ZM262.069 154.169C259.369 154.169 257.55 152.228 257.55 149.125C257.55 146.012 259.369 144.081 262.069 144.081C264.759 144.081 266.578 146.012 266.578 149.125C266.578 152.228 264.759 154.169 262.069 154.169ZM262.069 152.734C263.794 152.734 264.919 151.422 264.919 149.125C264.919 146.828 263.794 145.516 262.069 145.516C260.344 145.516 259.209 146.828 259.209 149.125C259.209 151.422 260.344 152.734 262.069 152.734ZM271.94 154.169C269.812 154.169 268.565 152.791 268.565 150.578V144.953C268.565 144.437 268.903 144.081 269.381 144.081C269.859 144.081 270.197 144.437 270.197 144.953V150.287C270.197 151.872 270.937 152.725 272.447 152.725C274.031 152.725 274.987 151.637 274.987 149.978V144.953C274.987 144.437 275.325 144.081 275.803 144.081C276.281 144.081 276.618 144.437 276.618 144.953V153.344C276.618 153.812 276.318 154.169 275.85 154.169C275.381 154.169 275.072 153.812 275.072 153.344V152.416H275.034C274.453 153.541 273.44 154.169 271.94 154.169ZM280.021 154.169C279.543 154.169 279.206 153.812 279.206 153.297V141.175C279.206 140.659 279.543 140.303 280.021 140.303C280.499 140.303 280.837 140.659 280.837 141.175V153.297C280.837 153.812 280.499 154.169 280.021 154.169ZM287.118 154.169C284.633 154.169 282.946 152.181 282.946 149.125C282.946 146.069 284.624 144.081 287.08 144.081C288.477 144.081 289.602 144.766 290.183 145.834H290.221V141.175C290.221 140.659 290.558 140.303 291.036 140.303C291.515 140.303 291.852 140.659 291.852 141.175V153.372C291.852 153.841 291.524 154.169 291.055 154.169C290.596 154.169 290.221 153.85 290.221 153.372V152.256H290.193C289.658 153.419 288.646 154.169 287.118 154.169ZM287.427 152.734C289.105 152.734 290.23 151.309 290.23 149.125C290.23 146.95 289.105 145.516 287.427 145.516C285.702 145.516 284.615 146.922 284.615 149.125C284.615 151.337 285.702 152.734 287.427 152.734ZM299.661 154.169C299.183 154.169 298.845 153.812 298.845 153.297V141.156C298.845 140.65 299.173 140.303 299.661 140.303C300.158 140.303 300.476 140.65 300.476 141.156V145.806H300.514C301.058 144.719 302.126 144.081 303.608 144.081C305.745 144.081 307.039 145.525 307.039 147.7V153.297C307.039 153.812 306.701 154.169 306.223 154.169C305.745 154.169 305.408 153.812 305.408 153.297V148C305.408 146.453 304.629 145.525 303.101 145.525C301.479 145.525 300.476 146.631 300.476 148.319V153.297C300.476 153.812 300.139 154.169 299.661 154.169ZM312.335 154.169C310.395 154.169 309.092 152.997 309.092 151.244C309.092 149.575 310.376 148.525 312.626 148.394L315.429 148.234V147.419C315.429 146.228 314.642 145.516 313.292 145.516C312.232 145.516 311.51 145.9 310.967 146.866C310.817 147.137 310.601 147.259 310.292 147.259C309.87 147.259 309.57 146.969 309.57 146.528C309.57 146.322 309.635 146.087 309.767 145.853C310.32 144.784 311.745 144.081 313.329 144.081C315.617 144.081 317.06 145.319 317.06 147.259V153.344C317.06 153.831 316.742 154.169 316.292 154.169C315.832 154.169 315.513 153.831 315.513 153.344V152.322H315.476C314.895 153.437 313.648 154.169 312.335 154.169ZM312.701 152.781C314.238 152.781 315.429 151.703 315.429 150.297V149.5L312.813 149.659C311.501 149.744 310.751 150.325 310.751 151.244C310.751 152.172 311.529 152.781 312.701 152.781ZM323.088 154.169C322.554 154.169 322.254 153.934 322.019 153.344L318.916 145.253C318.86 145.112 318.832 144.972 318.832 144.831C318.832 144.381 319.16 144.081 319.647 144.081C320.013 144.081 320.257 144.278 320.407 144.7L323.079 152.266H323.116L325.797 144.7C325.947 144.278 326.191 144.081 326.547 144.081C327.035 144.081 327.354 144.381 327.354 144.831C327.354 144.972 327.326 145.112 327.269 145.253L324.176 153.344C323.96 153.906 323.613 154.169 323.088 154.169ZM332.988 154.169C330.11 154.169 328.422 152.312 328.422 149.162C328.422 146.087 330.156 144.081 332.847 144.081C335.341 144.081 337.094 145.947 337.094 148.619C337.094 149.209 336.756 149.566 336.194 149.566H330.1C330.1 151.534 331.178 152.753 332.922 152.753C334.085 152.753 334.797 152.341 335.556 151.234C335.725 151 335.913 150.906 336.166 150.906C336.597 150.906 336.888 151.187 336.888 151.619C336.888 151.75 336.841 151.919 336.766 152.097C336.138 153.419 334.769 154.169 332.988 154.169ZM330.11 148.291H335.406C335.369 146.603 334.328 145.497 332.819 145.497C331.3 145.497 330.213 146.612 330.11 148.291ZM43.9594 181.169C43.4813 181.169 43.1438 180.812 43.1438 180.297V168.175C43.1438 167.659 43.4813 167.303 43.9594 167.303C44.4375 167.303 44.775 167.659 44.775 168.175V180.297C44.775 180.812 44.4375 181.169 43.9594 181.169ZM50.2028 181.169C48.2621 181.169 46.959 179.997 46.959 178.244C46.959 176.575 48.2434 175.525 50.4934 175.394L53.2965 175.234V174.419C53.2965 173.228 52.509 172.516 51.159 172.516C50.0996 172.516 49.3778 172.9 48.834 173.866C48.684 174.137 48.4684 174.259 48.159 174.259C47.7371 174.259 47.4371 173.969 47.4371 173.528C47.4371 173.322 47.5028 173.087 47.634 172.853C48.1871 171.784 49.6121 171.081 51.1965 171.081C53.484 171.081 54.9278 172.319 54.9278 174.259V180.344C54.9278 180.831 54.609 181.169 54.159 181.169C53.6996 181.169 53.3809 180.831 53.3809 180.344V179.322H53.3434C52.7621 180.437 51.5153 181.169 50.2028 181.169ZM50.5684 179.781C52.1059 179.781 53.2965 178.703 53.2965 177.297V176.5L50.6809 176.659C49.3684 176.744 48.6184 177.325 48.6184 178.244C48.6184 179.172 49.3965 179.781 50.5684 179.781ZM58.1993 181.169C57.7211 181.169 57.3836 180.812 57.3836 180.297V171.906C57.3836 171.419 57.7024 171.081 58.1524 171.081C58.6024 171.081 58.9211 171.419 58.9211 171.906V172.806H58.9586C59.5024 171.756 60.543 171.081 62.0524 171.081C64.1899 171.081 65.4274 172.459 65.4274 174.672V180.297C65.4274 180.812 65.0899 181.169 64.6118 181.169C64.1336 181.169 63.7961 180.812 63.7961 180.297V174.962C63.7961 173.387 63.0555 172.525 61.5555 172.525C60.018 172.525 59.0149 173.612 59.0149 175.262V180.297C59.0149 180.812 58.6774 181.169 58.1993 181.169ZM71.5864 181.169C69.102 181.169 67.4145 179.181 67.4145 176.125C67.4145 173.069 69.0926 171.081 71.5489 171.081C72.9458 171.081 74.0708 171.766 74.652 172.834H74.6895V168.175C74.6895 167.659 75.027 167.303 75.5051 167.303C75.9833 167.303 76.3208 167.659 76.3208 168.175V180.372C76.3208 180.841 75.9926 181.169 75.5239 181.169C75.0645 181.169 74.6895 180.85 74.6895 180.372V179.256H74.6614C74.127 180.419 73.1145 181.169 71.5864 181.169ZM71.8958 179.734C73.5739 179.734 74.6989 178.309 74.6989 176.125C74.6989 173.95 73.5739 172.516 71.8958 172.516C70.1708 172.516 69.0833 173.922 69.0833 176.125C69.0833 178.337 70.1708 179.734 71.8958 179.734ZM82.9954 181.169C80.1173 181.169 78.4298 179.312 78.4298 176.162C78.4298 173.087 80.1641 171.081 82.8548 171.081C85.3485 171.081 87.1016 172.947 87.1016 175.619C87.1016 176.209 86.7641 176.566 86.2016 176.566H80.1079C80.1079 178.534 81.186 179.753 82.9298 179.753C84.0923 179.753 84.8048 179.341 85.5641 178.234C85.7329 178 85.9204 177.906 86.1735 177.906C86.6048 177.906 86.8954 178.187 86.8954 178.619C86.8954 178.75 86.8485 178.919 86.7735 179.097C86.1454 180.419 84.7766 181.169 82.9954 181.169ZM80.1173 175.291H85.4141C85.3766 173.603 84.336 172.497 82.8266 172.497C81.3079 172.497 80.2204 173.612 80.1173 175.291ZM92.8294 181.169C90.345 181.169 88.6575 179.181 88.6575 176.125C88.6575 173.069 90.3356 171.081 92.7919 171.081C94.1888 171.081 95.3138 171.766 95.895 172.834H95.9325V168.175C95.9325 167.659 96.27 167.303 96.7481 167.303C97.2263 167.303 97.5638 167.659 97.5638 168.175V180.372C97.5638 180.841 97.2356 181.169 96.7669 181.169C96.3075 181.169 95.9325 180.85 95.9325 180.372V179.256H95.9044C95.37 180.419 94.3575 181.169 92.8294 181.169ZM93.1388 179.734C94.8169 179.734 95.9419 178.309 95.9419 176.125C95.9419 173.95 94.8169 172.516 93.1388 172.516C91.4138 172.516 90.3263 173.922 90.3263 176.125C90.3263 178.337 91.4138 179.734 93.1388 179.734ZM108.513 181.169C105.813 181.169 103.994 179.228 103.994 176.125C103.994 173.012 105.813 171.081 108.513 171.081C111.204 171.081 113.022 173.012 113.022 176.125C113.022 179.228 111.204 181.169 108.513 181.169ZM108.513 179.734C110.238 179.734 111.363 178.422 111.363 176.125C111.363 173.828 110.238 172.516 108.513 172.516C106.788 172.516 105.654 173.828 105.654 176.125C105.654 178.422 106.788 179.734 108.513 179.734ZM115.872 181.169C115.394 181.169 115.056 180.812 115.056 180.297V171.906C115.056 171.419 115.375 171.081 115.825 171.081C116.275 171.081 116.594 171.419 116.594 171.906V172.806H116.631C117.175 171.756 118.216 171.081 119.725 171.081C121.863 171.081 123.1 172.459 123.1 174.672V180.297C123.1 180.812 122.763 181.169 122.285 181.169C121.806 181.169 121.469 180.812 121.469 180.297V174.962C121.469 173.387 120.728 172.525 119.228 172.525C117.691 172.525 116.688 173.612 116.688 175.262V180.297C116.688 180.812 116.35 181.169 115.872 181.169ZM132.727 181.169C130.787 181.169 129.484 179.997 129.484 178.244C129.484 176.575 130.768 175.525 133.018 175.394L135.821 175.234V174.419C135.821 173.228 135.034 172.516 133.684 172.516C132.624 172.516 131.902 172.9 131.359 173.866C131.209 174.137 130.993 174.259 130.684 174.259C130.262 174.259 129.962 173.969 129.962 173.528C129.962 173.322 130.027 173.087 130.159 172.853C130.712 171.784 132.137 171.081 133.721 171.081C136.009 171.081 137.452 172.319 137.452 174.259V180.344C137.452 180.831 137.134 181.169 136.684 181.169C136.224 181.169 135.906 180.831 135.906 180.344V179.322H135.868C135.287 180.437 134.04 181.169 132.727 181.169ZM133.093 179.781C134.631 179.781 135.821 178.703 135.821 177.297V176.5L133.206 176.659C131.893 176.744 131.143 177.325 131.143 178.244C131.143 179.172 131.921 179.781 133.093 179.781ZM147.924 181.169C145.439 181.169 143.752 179.181 143.752 176.125C143.752 173.069 145.43 171.081 147.886 171.081C149.283 171.081 150.408 171.766 150.989 172.834H151.027V168.175C151.027 167.659 151.364 167.303 151.842 167.303C152.321 167.303 152.658 167.659 152.658 168.175V180.372C152.658 180.841 152.33 181.169 151.861 181.169C151.402 181.169 151.027 180.85 151.027 180.372V179.256H150.999C150.464 180.419 149.452 181.169 147.924 181.169ZM148.233 179.734C149.911 179.734 151.036 178.309 151.036 176.125C151.036 173.95 149.911 172.516 148.233 172.516C146.508 172.516 145.421 173.922 145.421 176.125C145.421 178.337 146.508 179.734 148.233 179.734ZM159.333 181.169C156.455 181.169 154.767 179.312 154.767 176.162C154.767 173.087 156.501 171.081 159.192 171.081C161.686 171.081 163.439 172.947 163.439 175.619C163.439 176.209 163.101 176.566 162.539 176.566H156.445C156.445 178.534 157.523 179.753 159.267 179.753C160.43 179.753 161.142 179.341 161.901 178.234C162.07 178 162.258 177.906 162.511 177.906C162.942 177.906 163.233 178.187 163.233 178.619C163.233 178.75 163.186 178.919 163.111 179.097C162.483 180.419 161.114 181.169 159.333 181.169ZM156.455 175.291H161.751C161.714 173.603 160.673 172.497 159.164 172.497C157.645 172.497 156.558 173.612 156.455 175.291ZM166.289 184.441C165.81 184.441 165.473 184.084 165.473 183.569V171.906C165.473 171.419 165.792 171.081 166.251 171.081C166.701 171.081 167.02 171.419 167.02 171.906V172.9H167.057C167.657 171.803 168.792 171.081 170.207 171.081C172.692 171.081 174.379 173.069 174.379 176.125C174.379 179.181 172.701 181.169 170.245 181.169C168.848 181.169 167.723 180.484 167.142 179.416H167.104V183.569C167.104 184.084 166.767 184.441 166.289 184.441ZM169.889 179.734C171.623 179.734 172.71 178.337 172.71 176.125C172.71 173.922 171.623 172.516 169.889 172.516C168.22 172.516 167.095 173.959 167.095 176.125C167.095 178.3 168.22 179.734 169.889 179.734ZM177.313 181.169C176.835 181.169 176.498 180.812 176.498 180.297V168.175C176.498 167.659 176.835 167.303 177.313 167.303C177.791 167.303 178.129 167.659 178.129 168.175V180.297C178.129 180.812 177.791 181.169 177.313 181.169ZM184.803 181.169C181.925 181.169 180.238 179.312 180.238 176.162C180.238 173.087 181.972 171.081 184.663 171.081C187.157 171.081 188.91 172.947 188.91 175.619C188.91 176.209 188.572 176.566 188.01 176.566H181.916C181.916 178.534 182.994 179.753 184.738 179.753C185.9 179.753 186.613 179.341 187.372 178.234C187.541 178 187.728 177.906 187.982 177.906C188.413 177.906 188.703 178.187 188.703 178.619C188.703 178.75 188.657 178.919 188.582 179.097C187.953 180.419 186.585 181.169 184.803 181.169ZM181.925 175.291H187.222C187.185 173.603 186.144 172.497 184.635 172.497C183.116 172.497 182.028 173.612 181.925 175.291ZM191.469 178.75V172.591H190.653C190.184 172.591 189.922 172.347 189.922 171.916C189.922 171.494 190.184 171.25 190.653 171.25H191.469V169.581C191.469 169.066 191.806 168.709 192.284 168.709C192.762 168.709 193.1 169.066 193.1 169.581V171.25H194.356C194.825 171.25 195.087 171.494 195.087 171.916C195.087 172.347 194.825 172.591 194.356 172.591H193.1V178.394C193.1 179.219 193.391 179.612 194.206 179.669L194.347 179.678C194.881 179.716 195.125 179.931 195.125 180.316C195.125 180.812 194.844 181.075 193.934 181.075H193.831C192.256 181.075 191.469 180.306 191.469 178.75ZM200.928 181.169C198.05 181.169 196.362 179.312 196.362 176.162C196.362 173.087 198.096 171.081 200.787 171.081C203.281 171.081 205.034 172.947 205.034 175.619C205.034 176.209 204.696 176.566 204.134 176.566H198.04C198.04 178.534 199.118 179.753 200.862 179.753C202.025 179.753 202.737 179.341 203.496 178.234C203.665 178 203.853 177.906 204.106 177.906C204.537 177.906 204.828 178.187 204.828 178.619C204.828 178.75 204.781 178.919 204.706 179.097C204.078 180.419 202.709 181.169 200.928 181.169ZM198.05 175.291H203.346C203.309 173.603 202.268 172.497 200.759 172.497C199.24 172.497 198.153 173.612 198.05 175.291ZM210.762 181.169C208.277 181.169 206.59 179.181 206.59 176.125C206.59 173.069 208.268 171.081 210.724 171.081C212.121 171.081 213.246 171.766 213.827 172.834H213.865V168.175C213.865 167.659 214.202 167.303 214.68 167.303C215.158 167.303 215.496 167.659 215.496 168.175V180.372C215.496 180.841 215.168 181.169 214.699 181.169C214.24 181.169 213.865 180.85 213.865 180.372V179.256H213.837C213.302 180.419 212.29 181.169 210.762 181.169ZM211.071 179.734C212.749 179.734 213.874 178.309 213.874 176.125C213.874 173.95 212.749 172.516 211.071 172.516C209.346 172.516 208.258 173.922 208.258 176.125C208.258 178.337 209.346 179.734 211.071 179.734ZM226.098 181.169C223.614 181.169 221.927 179.181 221.927 176.125C221.927 173.069 223.605 171.081 226.061 171.081C227.458 171.081 228.583 171.766 229.164 172.834H229.202V168.175C229.202 167.659 229.539 167.303 230.017 167.303C230.495 167.303 230.833 167.659 230.833 168.175V180.372C230.833 180.841 230.505 181.169 230.036 181.169C229.577 181.169 229.202 180.85 229.202 180.372V179.256H229.173C228.639 180.419 227.627 181.169 226.098 181.169ZM226.408 179.734C228.086 179.734 229.211 178.309 229.211 176.125C229.211 173.95 228.086 172.516 226.408 172.516C224.683 172.516 223.595 173.922 223.595 176.125C223.595 178.337 224.683 179.734 226.408 179.734ZM236.261 181.169C234.32 181.169 233.017 179.997 233.017 178.244C233.017 176.575 234.301 175.525 236.551 175.394L239.354 175.234V174.419C239.354 173.228 238.567 172.516 237.217 172.516C236.157 172.516 235.436 172.9 234.892 173.866C234.742 174.137 234.526 174.259 234.217 174.259C233.795 174.259 233.495 173.969 233.495 173.528C233.495 173.322 233.561 173.087 233.692 172.853C234.245 171.784 235.67 171.081 237.254 171.081C239.542 171.081 240.986 172.319 240.986 174.259V180.344C240.986 180.831 240.667 181.169 240.217 181.169C239.757 181.169 239.439 180.831 239.439 180.344V179.322H239.401C238.82 180.437 237.573 181.169 236.261 181.169ZM236.626 179.781C238.164 179.781 239.354 178.703 239.354 177.297V176.5L236.739 176.659C235.426 176.744 234.676 177.325 234.676 178.244C234.676 179.172 235.454 179.781 236.626 179.781ZM244.398 184.647C243.61 184.647 243.17 184.356 243.17 183.841C243.17 183.484 243.413 183.241 243.826 183.241C244.06 183.241 244.126 183.25 244.379 183.25C244.998 183.25 245.588 182.875 245.973 181.694L246.198 181.009L242.841 172.262C242.785 172.103 242.757 171.953 242.757 171.831C242.757 171.381 243.104 171.081 243.573 171.081C243.957 171.081 244.201 171.25 244.351 171.681L247.041 179.369H247.07L249.77 171.681C249.92 171.25 250.135 171.081 250.538 171.081C251.007 171.081 251.335 171.391 251.335 171.831C251.335 171.953 251.307 172.103 251.251 172.262L247.651 181.684C246.807 183.925 246.01 184.647 244.398 184.647ZM253.107 178.825C253.585 178.825 253.922 179.106 253.922 179.566C253.922 179.734 253.904 179.875 253.847 180.081L252.985 183.306C252.882 183.709 252.666 183.897 252.272 183.897C251.897 183.897 251.607 183.681 251.607 183.306C251.607 183.166 251.625 183.072 251.635 183.016L252.3 179.537C252.404 179.022 252.666 178.825 253.107 178.825ZM263.24 181.169C261.3 181.169 259.997 179.997 259.997 178.244C259.997 176.575 261.281 175.525 263.531 175.394L266.334 175.234V174.419C266.334 173.228 265.547 172.516 264.197 172.516C263.137 172.516 262.415 172.9 261.872 173.866C261.722 174.137 261.506 174.259 261.197 174.259C260.775 174.259 260.475 173.969 260.475 173.528C260.475 173.322 260.54 173.087 260.672 172.853C261.225 171.784 262.65 171.081 264.234 171.081C266.522 171.081 267.965 172.319 267.965 174.259V180.344C267.965 180.831 267.647 181.169 267.197 181.169C266.737 181.169 266.418 180.831 266.418 180.344V179.322H266.381C265.8 180.437 264.553 181.169 263.24 181.169ZM263.606 179.781C265.143 179.781 266.334 178.703 266.334 177.297V176.5L263.718 176.659C262.406 176.744 261.656 177.325 261.656 178.244C261.656 179.172 262.434 179.781 263.606 179.781ZM271.237 181.169C270.759 181.169 270.421 180.812 270.421 180.297V171.906C270.421 171.419 270.74 171.081 271.19 171.081C271.64 171.081 271.959 171.419 271.959 171.906V172.844H271.996C272.277 171.831 273.234 171.081 274.209 171.081C274.565 171.081 274.818 171.166 274.977 171.316C275.118 171.447 275.184 171.634 275.184 171.859C275.184 172.112 275.099 172.3 274.931 172.431C274.762 172.572 274.509 172.637 274.152 172.637C272.681 172.637 272.052 173.697 272.052 174.944V180.297C272.052 180.812 271.715 181.169 271.237 181.169ZM280.349 181.169C277.471 181.169 275.783 179.312 275.783 176.162C275.783 173.087 277.518 171.081 280.208 171.081C282.702 171.081 284.455 172.947 284.455 175.619C284.455 176.209 284.118 176.566 283.555 176.566H277.461C277.461 178.534 278.54 179.753 280.283 179.753C281.446 179.753 282.158 179.341 282.918 178.234C283.086 178 283.274 177.906 283.527 177.906C283.958 177.906 284.249 178.187 284.249 178.619C284.249 178.75 284.202 178.919 284.127 179.097C283.499 180.419 282.13 181.169 280.349 181.169ZM277.471 175.291H282.768C282.73 173.603 281.69 172.497 280.18 172.497C278.661 172.497 277.574 173.612 277.471 175.291ZM291.626 181.169C291.129 181.169 290.811 180.794 290.811 180.297V171.906C290.811 171.419 291.129 171.081 291.579 171.081C292.029 171.081 292.348 171.419 292.348 171.906V172.806H292.386C292.845 171.775 293.839 171.081 295.151 171.081C296.483 171.081 297.467 171.756 297.889 172.937H297.926C298.47 171.775 299.614 171.081 300.983 171.081C302.914 171.081 304.161 172.337 304.161 174.269V180.297C304.161 180.794 303.842 181.169 303.345 181.169C302.848 181.169 302.529 180.794 302.529 180.297V174.644C302.529 173.312 301.789 172.525 300.504 172.525C299.211 172.525 298.301 173.481 298.301 174.803V180.297C298.301 180.794 297.983 181.169 297.486 181.169C296.989 181.169 296.67 180.794 296.67 180.297V174.466C296.67 173.294 295.883 172.525 294.673 172.525C293.379 172.525 292.442 173.537 292.442 174.887V180.297C292.442 180.794 292.123 181.169 291.626 181.169ZM310.666 181.169C307.966 181.169 306.148 179.228 306.148 176.125C306.148 173.012 307.966 171.081 310.666 171.081C313.357 171.081 315.176 173.012 315.176 176.125C315.176 179.228 313.357 181.169 310.666 181.169ZM310.666 179.734C312.391 179.734 313.516 178.422 313.516 176.125C313.516 173.828 312.391 172.516 310.666 172.516C308.941 172.516 307.807 173.828 307.807 176.125C307.807 178.422 308.941 179.734 310.666 179.734ZM320.501 181.169C319.966 181.169 319.666 180.934 319.432 180.344L316.329 172.253C316.272 172.112 316.244 171.972 316.244 171.831C316.244 171.381 316.572 171.081 317.06 171.081C317.426 171.081 317.669 171.278 317.819 171.7L320.491 179.266H320.529L323.21 171.7C323.36 171.278 323.604 171.081 323.96 171.081C324.447 171.081 324.766 171.381 324.766 171.831C324.766 171.972 324.738 172.112 324.682 172.253L321.588 180.344C321.372 180.906 321.026 181.169 320.501 181.169ZM330.4 181.169C327.522 181.169 325.835 179.312 325.835 176.162C325.835 173.087 327.569 171.081 330.26 171.081C332.753 171.081 334.506 172.947 334.506 175.619C334.506 176.209 334.169 176.566 333.606 176.566H327.513C327.513 178.534 328.591 179.753 330.335 179.753C331.497 179.753 332.21 179.341 332.969 178.234C333.138 178 333.325 177.906 333.578 177.906C334.01 177.906 334.3 178.187 334.3 178.619C334.3 178.75 334.253 178.919 334.178 179.097C333.55 180.419 332.181 181.169 330.4 181.169ZM327.522 175.291H332.819C332.781 173.603 331.741 172.497 330.231 172.497C328.713 172.497 327.625 173.612 327.522 175.291ZM340.234 181.169C337.75 181.169 336.062 179.181 336.062 176.125C336.062 173.069 337.74 171.081 340.197 171.081C341.594 171.081 342.719 171.766 343.3 172.834H343.337V168.175C343.337 167.659 343.675 167.303 344.153 167.303C344.631 167.303 344.969 167.659 344.969 168.175V180.372C344.969 180.841 344.64 181.169 344.172 181.169C343.712 181.169 343.337 180.85 343.337 180.372V179.256H343.309C342.775 180.419 341.762 181.169 340.234 181.169ZM340.544 179.734C342.222 179.734 343.347 178.309 343.347 176.125C343.347 173.95 342.222 172.516 340.544 172.516C338.819 172.516 337.731 173.922 337.731 176.125C337.731 178.337 338.819 179.734 340.544 179.734ZM352.402 178.75V172.591H351.586C351.118 172.591 350.855 172.347 350.855 171.916C350.855 171.494 351.118 171.25 351.586 171.25H352.402V169.581C352.402 169.066 352.74 168.709 353.218 168.709C353.696 168.709 354.033 169.066 354.033 169.581V171.25H355.29C355.758 171.25 356.021 171.494 356.021 171.916C356.021 172.347 355.758 172.591 355.29 172.591H354.033V178.394C354.033 179.219 354.324 179.612 355.14 179.669L355.28 179.678C355.815 179.716 356.058 179.931 356.058 180.316C356.058 180.812 355.777 181.075 354.868 181.075H354.765C353.19 181.075 352.402 180.306 352.402 178.75ZM361.814 181.169C359.114 181.169 357.296 179.228 357.296 176.125C357.296 173.012 359.114 171.081 361.814 171.081C364.505 171.081 366.324 173.012 366.324 176.125C366.324 179.228 364.505 181.169 361.814 181.169ZM361.814 179.734C363.539 179.734 364.664 178.422 364.664 176.125C364.664 173.828 363.539 172.516 361.814 172.516C360.089 172.516 358.955 173.828 358.955 176.125C358.955 178.422 360.089 179.734 361.814 179.734ZM45.8063 208.169C45.2906 208.169 44.9813 207.925 44.8219 207.381L42.4406 199.206C42.3938 199.047 42.375 198.906 42.375 198.784C42.375 198.353 42.6844 198.081 43.1719 198.081C43.575 198.081 43.7906 198.269 43.9125 198.747L45.8344 206.181H45.8719L47.9156 198.812C48.0469 198.334 48.375 198.081 48.8719 198.081C49.3594 198.081 49.6688 198.325 49.8 198.803L51.8625 206.181H51.9L53.8219 198.747C53.9438 198.269 54.1594 198.081 54.5625 198.081C55.05 198.081 55.3594 198.353 55.3594 198.784C55.3594 198.906 55.3406 199.047 55.2938 199.206L52.9125 207.381C52.7625 207.906 52.425 208.169 51.9188 208.169C51.375 208.169 51.0656 207.934 50.9063 207.381L48.8813 200.453H48.8438L46.8281 207.381C46.6781 207.897 46.3219 208.169 45.8063 208.169ZM58.0871 208.169C57.609 208.169 57.2715 207.812 57.2715 207.297V195.156C57.2715 194.65 57.5996 194.303 58.0871 194.303C58.584 194.303 58.9028 194.65 58.9028 195.156V199.806H58.9403C59.484 198.719 60.5528 198.081 62.034 198.081C64.1715 198.081 65.4653 199.525 65.4653 201.7V207.297C65.4653 207.812 65.1278 208.169 64.6496 208.169C64.1715 208.169 63.834 207.812 63.834 207.297V202C63.834 200.453 63.0559 199.525 61.5278 199.525C59.9059 199.525 58.9028 200.631 58.9028 202.319V207.297C58.9028 207.812 58.5653 208.169 58.0871 208.169ZM72.0086 208.169C69.1305 208.169 67.443 206.312 67.443 203.162C67.443 200.087 69.1774 198.081 71.868 198.081C74.3618 198.081 76.1149 199.947 76.1149 202.619C76.1149 203.209 75.7774 203.566 75.2149 203.566H69.1211C69.1211 205.534 70.1993 206.753 71.943 206.753C73.1055 206.753 73.818 206.341 74.5774 205.234C74.7461 205 74.9336 204.906 75.1868 204.906C75.618 204.906 75.9086 205.187 75.9086 205.619C75.9086 205.75 75.8618 205.919 75.7868 206.097C75.1586 207.419 73.7899 208.169 72.0086 208.169ZM69.1305 202.291H74.4274C74.3899 200.603 73.3493 199.497 71.8399 199.497C70.3211 199.497 69.2336 200.612 69.1305 202.291ZM78.9645 208.169C78.4864 208.169 78.1489 207.812 78.1489 207.297V198.906C78.1489 198.419 78.4676 198.081 78.9176 198.081C79.3676 198.081 79.6864 198.419 79.6864 198.906V199.844H79.7239C80.0051 198.831 80.9614 198.081 81.9364 198.081C82.2926 198.081 82.5458 198.166 82.7051 198.316C82.8458 198.447 82.9114 198.634 82.9114 198.859C82.9114 199.112 82.827 199.3 82.6583 199.431C82.4895 199.572 82.2364 199.637 81.8801 199.637C80.4083 199.637 79.7801 200.697 79.7801 201.944V207.297C79.7801 207.812 79.4426 208.169 78.9645 208.169ZM88.0766 208.169C85.1985 208.169 83.511 206.312 83.511 203.162C83.511 200.087 85.2454 198.081 87.936 198.081C90.4298 198.081 92.1829 199.947 92.1829 202.619C92.1829 203.209 91.8454 203.566 91.2829 203.566H85.1891C85.1891 205.534 86.2673 206.753 88.011 206.753C89.1735 206.753 89.886 206.341 90.6454 205.234C90.8141 205 91.0016 204.906 91.2548 204.906C91.686 204.906 91.9766 205.187 91.9766 205.619C91.9766 205.75 91.9298 205.919 91.8548 206.097C91.2266 207.419 89.8579 208.169 88.0766 208.169ZM85.1985 202.291H90.4954C90.4579 200.603 89.4173 199.497 87.9079 199.497C86.3891 199.497 85.3016 200.612 85.1985 202.291ZM99.0634 205.75V199.591H98.2478C97.779 199.591 97.5165 199.347 97.5165 198.916C97.5165 198.494 97.779 198.25 98.2478 198.25H99.0634V196.581C99.0634 196.066 99.4009 195.709 99.879 195.709C100.357 195.709 100.695 196.066 100.695 196.581V198.25H101.951C102.42 198.25 102.682 198.494 102.682 198.916C102.682 199.347 102.42 199.591 101.951 199.591H100.695V205.394C100.695 206.219 100.985 206.612 101.801 206.669L101.942 206.678C102.476 206.716 102.72 206.931 102.72 207.316C102.72 207.812 102.438 208.075 101.529 208.075H101.426C99.8509 208.075 99.0634 207.306 99.0634 205.75ZM105.616 208.169C105.138 208.169 104.801 207.812 104.801 207.297V195.156C104.801 194.65 105.129 194.303 105.616 194.303C106.113 194.303 106.432 194.65 106.432 195.156V199.806H106.469C107.013 198.719 108.082 198.081 109.563 198.081C111.701 198.081 112.994 199.525 112.994 201.7V207.297C112.994 207.812 112.657 208.169 112.179 208.169C111.701 208.169 111.363 207.812 111.363 207.297V202C111.363 200.453 110.585 199.525 109.057 199.525C107.435 199.525 106.432 200.631 106.432 202.319V207.297C106.432 207.812 106.094 208.169 105.616 208.169ZM119.538 208.169C116.66 208.169 114.972 206.312 114.972 203.162C114.972 200.087 116.706 198.081 119.397 198.081C121.891 198.081 123.644 199.947 123.644 202.619C123.644 203.209 123.306 203.566 122.744 203.566H116.65C116.65 205.534 117.728 206.753 119.472 206.753C120.635 206.753 121.347 206.341 122.106 205.234C122.275 205 122.463 204.906 122.716 204.906C123.147 204.906 123.438 205.187 123.438 205.619C123.438 205.75 123.391 205.919 123.316 206.097C122.688 207.419 121.319 208.169 119.538 208.169ZM116.66 202.291H121.956C121.919 200.603 120.878 199.497 119.369 199.497C117.85 199.497 116.763 200.612 116.66 202.291ZM126.634 211.647C125.847 211.647 125.406 211.356 125.406 210.841C125.406 210.484 125.65 210.241 126.062 210.241C126.297 210.241 126.362 210.25 126.615 210.25C127.234 210.25 127.825 209.875 128.209 208.694L128.434 208.009L125.078 199.262C125.022 199.103 124.993 198.953 124.993 198.831C124.993 198.381 125.34 198.081 125.809 198.081C126.193 198.081 126.437 198.25 126.587 198.681L129.278 206.369H129.306L132.006 198.681C132.156 198.25 132.372 198.081 132.775 198.081C133.244 198.081 133.572 198.391 133.572 198.831C133.572 198.953 133.544 199.103 133.487 199.262L129.887 208.684C129.043 210.925 128.247 211.647 126.634 211.647ZM142.562 208.169C140.621 208.169 139.318 206.997 139.318 205.244C139.318 203.575 140.602 202.525 142.852 202.394L145.655 202.234V201.419C145.655 200.228 144.868 199.516 143.518 199.516C142.458 199.516 141.737 199.9 141.193 200.866C141.043 201.137 140.827 201.259 140.518 201.259C140.096 201.259 139.796 200.969 139.796 200.528C139.796 200.322 139.862 200.087 139.993 199.853C140.546 198.784 141.971 198.081 143.555 198.081C145.843 198.081 147.287 199.319 147.287 201.259V207.344C147.287 207.831 146.968 208.169 146.518 208.169C146.058 208.169 145.74 207.831 145.74 207.344V206.322H145.702C145.121 207.437 143.874 208.169 142.562 208.169ZM142.927 206.781C144.465 206.781 145.655 205.703 145.655 204.297V203.5L143.04 203.659C141.727 203.744 140.977 204.325 140.977 205.244C140.977 206.172 141.755 206.781 142.927 206.781ZM153.764 208.169C151.064 208.169 149.264 206.228 149.264 203.144C149.264 200.078 151.046 198.081 153.746 198.081C155.583 198.081 157.186 199.122 157.561 200.472C157.599 200.594 157.617 200.716 157.617 200.819C157.617 201.25 157.346 201.531 156.924 201.531C156.567 201.531 156.371 201.381 156.146 200.959C155.63 199.994 154.889 199.516 153.764 199.516C152.067 199.516 150.924 200.941 150.924 203.125C150.924 205.366 152.086 206.734 153.764 206.734C154.936 206.734 155.649 206.228 156.155 205.291C156.389 204.85 156.567 204.719 156.924 204.719C157.346 204.719 157.627 205.009 157.627 205.431C157.627 205.553 157.599 205.694 157.552 205.844C157.083 207.194 155.536 208.169 153.764 208.169ZM160.27 205.75V199.591H159.455C158.986 199.591 158.723 199.347 158.723 198.916C158.723 198.494 158.986 198.25 159.455 198.25H160.27V196.581C160.27 196.066 160.608 195.709 161.086 195.709C161.564 195.709 161.901 196.066 161.901 196.581V198.25H163.158C163.626 198.25 163.889 198.494 163.889 198.916C163.889 199.347 163.626 199.591 163.158 199.591H161.901V205.394C161.901 206.219 162.192 206.612 163.008 206.669L163.148 206.678C163.683 206.716 163.926 206.931 163.926 207.316C163.926 207.812 163.645 208.075 162.736 208.075H162.633C161.058 208.075 160.27 207.306 160.27 205.75ZM169.251 208.169C167.123 208.169 165.876 206.791 165.876 204.578V198.953C165.876 198.437 166.214 198.081 166.692 198.081C167.17 198.081 167.507 198.437 167.507 198.953V204.287C167.507 205.872 168.248 206.725 169.757 206.725C171.342 206.725 172.298 205.637 172.298 203.978V198.953C172.298 198.437 172.635 198.081 173.114 198.081C173.592 198.081 173.929 198.437 173.929 198.953V207.344C173.929 207.812 173.629 208.169 173.16 208.169C172.692 208.169 172.382 207.812 172.382 207.344V206.416H172.345C171.764 207.541 170.751 208.169 169.251 208.169ZM179.272 208.169C177.332 208.169 176.029 206.997 176.029 205.244C176.029 203.575 177.313 202.525 179.563 202.394L182.366 202.234V201.419C182.366 200.228 181.579 199.516 180.229 199.516C179.169 199.516 178.447 199.9 177.904 200.866C177.754 201.137 177.538 201.259 177.229 201.259C176.807 201.259 176.507 200.969 176.507 200.528C176.507 200.322 176.572 200.087 176.704 199.853C177.257 198.784 178.682 198.081 180.266 198.081C182.554 198.081 183.997 199.319 183.997 201.259V207.344C183.997 207.831 183.679 208.169 183.229 208.169C182.769 208.169 182.451 207.831 182.451 207.344V206.322H182.413C181.832 207.437 180.585 208.169 179.272 208.169ZM179.638 206.781C181.176 206.781 182.366 205.703 182.366 204.297V203.5L179.751 203.659C178.438 203.744 177.688 204.325 177.688 205.244C177.688 206.172 178.466 206.781 179.638 206.781ZM187.353 208.169C186.875 208.169 186.538 207.812 186.538 207.297V195.175C186.538 194.659 186.875 194.303 187.353 194.303C187.832 194.303 188.169 194.659 188.169 195.175V207.297C188.169 207.812 187.832 208.169 187.353 208.169ZM191.656 208.169C191.178 208.169 190.841 207.812 190.841 207.297V195.175C190.841 194.659 191.178 194.303 191.656 194.303C192.134 194.303 192.472 194.659 192.472 195.175V207.297C192.472 207.812 192.134 208.169 191.656 208.169ZM196.015 211.647C195.228 211.647 194.787 211.356 194.787 210.841C194.787 210.484 195.031 210.241 195.443 210.241C195.678 210.241 195.743 210.25 195.996 210.25C196.615 210.25 197.206 209.875 197.59 208.694L197.815 208.009L194.459 199.262C194.403 199.103 194.375 198.953 194.375 198.831C194.375 198.381 194.721 198.081 195.19 198.081C195.575 198.081 195.818 198.25 195.968 198.681L198.659 206.369H198.687L201.387 198.681C201.537 198.25 201.753 198.081 202.156 198.081C202.625 198.081 202.953 198.391 202.953 198.831C202.953 198.953 202.925 199.103 202.868 199.262L199.268 208.684C198.425 210.925 197.628 211.647 196.015 211.647ZM213.124 208.169C210.424 208.169 208.624 206.228 208.624 203.144C208.624 200.078 210.405 198.081 213.105 198.081C214.943 198.081 216.546 199.122 216.921 200.472C216.958 200.594 216.977 200.716 216.977 200.819C216.977 201.25 216.705 201.531 216.283 201.531C215.927 201.531 215.73 201.381 215.505 200.959C214.989 199.994 214.249 199.516 213.124 199.516C211.427 199.516 210.283 200.941 210.283 203.125C210.283 205.366 211.446 206.734 213.124 206.734C214.296 206.734 215.008 206.228 215.514 205.291C215.749 204.85 215.927 204.719 216.283 204.719C216.705 204.719 216.986 205.009 216.986 205.431C216.986 205.553 216.958 205.694 216.911 205.844C216.443 207.194 214.896 208.169 213.124 208.169ZM223.145 208.169C220.445 208.169 218.627 206.228 218.627 203.125C218.627 200.012 220.445 198.081 223.145 198.081C225.836 198.081 227.655 200.012 227.655 203.125C227.655 206.228 225.836 208.169 223.145 208.169ZM223.145 206.734C224.87 206.734 225.995 205.422 225.995 203.125C225.995 200.828 224.87 199.516 223.145 199.516C221.42 199.516 220.286 200.828 220.286 203.125C220.286 205.422 221.42 206.734 223.145 206.734ZM230.504 208.169C230.007 208.169 229.689 207.794 229.689 207.297V198.906C229.689 198.419 230.007 198.081 230.457 198.081C230.907 198.081 231.226 198.419 231.226 198.906V199.806H231.264C231.723 198.775 232.717 198.081 234.029 198.081C235.361 198.081 236.345 198.756 236.767 199.937H236.804C237.348 198.775 238.492 198.081 239.861 198.081C241.792 198.081 243.039 199.337 243.039 201.269V207.297C243.039 207.794 242.72 208.169 242.223 208.169C241.726 208.169 241.407 207.794 241.407 207.297V201.644C241.407 200.312 240.667 199.525 239.382 199.525C238.089 199.525 237.179 200.481 237.179 201.803V207.297C237.179 207.794 236.861 208.169 236.364 208.169C235.867 208.169 235.548 207.794 235.548 207.297V201.466C235.548 200.294 234.761 199.525 233.551 199.525C232.257 199.525 231.32 200.537 231.32 201.887V207.297C231.32 207.794 231.001 208.169 230.504 208.169ZM246.32 211.441C245.841 211.441 245.504 211.084 245.504 210.569V198.906C245.504 198.419 245.823 198.081 246.282 198.081C246.732 198.081 247.051 198.419 247.051 198.906V199.9H247.088C247.688 198.803 248.823 198.081 250.238 198.081C252.723 198.081 254.41 200.069 254.41 203.125C254.41 206.181 252.732 208.169 250.276 208.169C248.879 208.169 247.754 207.484 247.173 206.416H247.135V210.569C247.135 211.084 246.798 211.441 246.32 211.441ZM249.92 206.734C251.654 206.734 252.741 205.337 252.741 203.125C252.741 200.922 251.654 199.516 249.92 199.516C248.251 199.516 247.126 200.959 247.126 203.125C247.126 205.3 248.251 206.734 249.92 206.734ZM260.485 208.169C257.785 208.169 255.966 206.228 255.966 203.125C255.966 200.012 257.785 198.081 260.485 198.081C263.175 198.081 264.994 200.012 264.994 203.125C264.994 206.228 263.175 208.169 260.485 208.169ZM260.485 206.734C262.21 206.734 263.335 205.422 263.335 203.125C263.335 200.828 262.21 199.516 260.485 199.516C258.76 199.516 257.625 200.828 257.625 203.125C257.625 205.422 258.76 206.734 260.485 206.734ZM270.356 208.169C268.228 208.169 266.981 206.791 266.981 204.578V198.953C266.981 198.437 267.319 198.081 267.797 198.081C268.275 198.081 268.613 198.437 268.613 198.953V204.287C268.613 205.872 269.353 206.725 270.863 206.725C272.447 206.725 273.403 205.637 273.403 203.978V198.953C273.403 198.437 273.741 198.081 274.219 198.081C274.697 198.081 275.034 198.437 275.034 198.953V207.344C275.034 207.812 274.734 208.169 274.266 208.169C273.797 208.169 273.488 207.812 273.488 207.344V206.416H273.45C272.869 207.541 271.856 208.169 270.356 208.169ZM278.353 208.169C277.875 208.169 277.537 207.812 277.537 207.297V198.906C277.537 198.419 277.856 198.081 278.306 198.081C278.756 198.081 279.075 198.419 279.075 198.906V199.806H279.112C279.656 198.756 280.697 198.081 282.206 198.081C284.343 198.081 285.581 199.459 285.581 201.672V207.297C285.581 207.812 285.243 208.169 284.765 208.169C284.287 208.169 283.95 207.812 283.95 207.297V201.962C283.95 200.387 283.209 199.525 281.709 199.525C280.172 199.525 279.168 200.612 279.168 202.262V207.297C279.168 207.812 278.831 208.169 278.353 208.169ZM291.74 208.169C289.256 208.169 287.568 206.181 287.568 203.125C287.568 200.069 289.246 198.081 291.702 198.081C293.099 198.081 294.224 198.766 294.806 199.834H294.843V195.175C294.843 194.659 295.181 194.303 295.659 194.303C296.137 194.303 296.474 194.659 296.474 195.175V207.372C296.474 207.841 296.146 208.169 295.677 208.169C295.218 208.169 294.843 207.85 294.843 207.372V206.256H294.815C294.281 207.419 293.268 208.169 291.74 208.169ZM292.049 206.734C293.727 206.734 294.852 205.309 294.852 203.125C294.852 200.95 293.727 199.516 292.049 199.516C290.324 199.516 289.237 200.922 289.237 203.125C289.237 205.337 290.324 206.734 292.049 206.734ZM300.44 208.094C299.84 208.094 299.371 207.625 299.371 207.025C299.371 206.425 299.84 205.956 300.44 205.956C301.04 205.956 301.508 206.425 301.508 207.025C301.508 207.625 301.04 208.094 300.44 208.094Z" fill="#531421"/>
</svg>
