<svg width="425" height="474" viewBox="0 0 425 474" fill="none" xmlns="http://www.w3.org/2000/svg">
<rect width="425" height="474" rx="24" fill="#2DB9FF"/>
<path d="M42.96 73.616C42.96 73.264 43.12 72.944 43.44 72.656C43.76 72.336 44.144 72.144 44.592 72.08C45.072 72.016 45.472 71.824 45.792 71.504C46.112 71.152 46.368 70.576 46.56 69.776C46.784 68.944 46.944 68.208 47.04 67.568C47.168 66.928 47.312 65.968 47.472 64.688C47.568 64.08 47.632 63.616 47.664 63.296C48.08 60.48 48.48 57.536 48.864 54.464C49.248 51.392 49.536 48.976 49.728 47.216C49.952 45.424 50.064 44.432 50.064 44.24C50.064 43.344 49.824 42.688 49.344 42.272C48.896 41.824 48.4 41.6 47.856 41.6C47.312 41.568 46.8 41.504 46.32 41.408C45.872 41.28 45.648 41.024 45.648 40.64C45.648 39.648 46.256 39.152 47.472 39.152C47.76 39.152 48.48 39.184 49.632 39.248C50.816 39.28 52.368 39.312 54.288 39.344C56.24 39.376 58.272 39.392 60.384 39.392C61.056 39.392 62.544 39.376 64.848 39.344C67.184 39.312 68.576 39.296 69.024 39.296C70.08 39.296 70.608 39.808 70.608 40.832V43.376C70.608 43.6 70.64 44 70.704 44.576C70.8 45.152 70.848 45.616 70.848 45.968C70.848 47.312 70.416 47.984 69.552 47.984C69.232 47.984 69.008 47.872 68.88 47.648C68.784 47.392 68.704 47.104 68.64 46.784C68.608 46.432 68.448 45.984 68.16 45.44C67.872 44.896 67.44 44.384 66.864 43.904C66.192 43.232 64.8 42.848 62.688 42.752C60.928 42.656 59.76 42.608 59.184 42.608H57.552C56.528 42.608 55.888 42.736 55.632 42.992C55.408 43.216 55.216 43.808 55.056 44.768C55.024 45.056 54.992 45.264 54.96 45.392C54.16 50.896 53.76 54.032 53.76 54.8C53.76 54.864 53.824 54.912 53.952 54.944C54.112 54.944 54.48 54.944 55.056 54.944H57.984C60.32 54.944 61.792 54.912 62.4 54.848C63.104 54.784 63.664 54.592 64.08 54.272C64.496 53.92 64.752 53.568 64.848 53.216C64.976 52.832 65.12 52.496 65.28 52.208C65.472 51.92 65.696 51.776 65.952 51.776C66.752 51.776 67.152 52.176 67.152 52.976C67.152 53.328 66.992 54.256 66.672 55.76C66.384 57.264 66.24 58.688 66.24 60.032C66.24 62.176 65.792 63.248 64.896 63.248C63.904 63.248 63.408 62.672 63.408 61.52V60.992C63.408 60.544 63.376 60.192 63.312 59.936C63.248 59.68 63.072 59.44 62.784 59.216C62.528 58.992 62.224 58.848 61.872 58.784C61.552 58.688 60.992 58.608 60.192 58.544C59.392 58.48 58.592 58.448 57.792 58.448C56.992 58.416 55.84 58.4 54.336 58.4C53.696 58.4 53.36 58.528 53.328 58.784C53.232 59.712 53.056 61.056 52.8 62.816C52.576 64.576 52.368 66.112 52.176 67.424C52.016 68.736 51.936 69.504 51.936 69.728C51.936 70.624 52.208 71.312 52.752 71.792C53.296 72.24 53.888 72.48 54.528 72.512C55.168 72.544 55.76 72.64 56.304 72.8C56.848 72.928 57.12 73.168 57.12 73.52C57.12 74.384 56.64 74.816 55.68 74.816C55.584 74.816 55.008 74.768 53.952 74.672C52.896 74.608 51.824 74.576 50.736 74.576C49.968 74.576 49.12 74.608 48.192 74.672C47.264 74.736 46.496 74.8 45.888 74.864L44.928 74.96C43.616 74.96 42.96 74.512 42.96 73.616ZM71.9423 65.888C71.9423 62.432 73.0303 59.328 75.2063 56.576C77.4143 53.792 80.3423 52.4 83.9903 52.4C86.4863 52.4 88.3903 53.28 89.7023 55.04C91.0463 56.768 91.7183 58.96 91.7183 61.616C91.7183 63.824 91.2863 65.936 90.4223 67.952C89.5583 69.968 88.1983 71.68 86.3423 73.088C84.5183 74.496 82.4063 75.2 80.0063 75.2C77.6703 75.2 75.7343 74.4 74.1983 72.8C72.6943 71.2 71.9423 68.896 71.9423 65.888ZM77.0783 65.936C77.0783 68.24 77.4143 70 78.0863 71.216C78.7903 72.432 79.6703 73.04 80.7263 73.04C81.7823 73.04 82.7103 72.608 83.5103 71.744C84.3423 70.88 84.9663 69.808 85.3823 68.528C85.8303 67.216 86.1663 65.92 86.3903 64.64C86.6143 63.328 86.7263 62.128 86.7263 61.04C86.7263 59.152 86.3903 57.728 85.7183 56.768C85.0783 55.776 84.2783 55.28 83.3183 55.28C82.2303 55.28 81.1903 55.776 80.1983 56.768C79.2383 57.728 78.5183 59.056 78.0383 60.752C77.3983 62.928 77.0783 64.656 77.0783 65.936ZM93.7669 59.792C93.7669 58.64 93.9269 57.616 94.2469 56.72C94.5989 55.792 94.9989 55.088 95.4469 54.608C95.9269 54.096 96.4229 53.664 96.9349 53.312C97.4469 52.928 97.8789 52.688 98.2309 52.592C98.5829 52.496 98.8389 52.448 98.9989 52.448C100.055 52.448 100.871 53.168 101.447 54.608C101.863 56.4 102.087 57.296 102.119 57.296C102.151 57.296 102.455 56.896 103.031 56.096C103.607 55.264 104.375 54.432 105.335 53.6C106.327 52.768 107.351 52.352 108.407 52.352C109.207 52.352 109.815 52.576 110.231 53.024C110.679 53.472 110.903 53.984 110.903 54.56C110.903 54.816 110.807 55.184 110.615 55.664C110.455 56.112 110.375 56.352 110.375 56.384L110.327 56.816C110.199 57.232 110.087 57.568 109.991 57.824C109.895 58.048 109.719 58.288 109.463 58.544C109.207 58.768 108.919 58.88 108.599 58.88C108.311 58.88 108.071 58.72 107.879 58.4C107.687 58.048 107.447 57.712 107.159 57.392C106.871 57.04 106.487 56.864 106.007 56.864C105.271 56.864 104.647 57.76 104.135 59.552C103.623 61.312 103.287 62.976 103.127 64.544L102.887 66.128C102.279 70.8 101.831 73.408 101.543 73.952C101.095 74.592 100.407 74.912 99.4789 74.912H99.2389C97.7989 74.912 97.0789 74.256 97.0789 72.944C97.0789 72.432 97.4149 70.544 98.0869 67.28C98.7909 64.016 99.1429 61.712 99.1429 60.368C99.1429 58.672 98.8389 57.824 98.2309 57.824C97.7829 57.824 97.3989 58.048 97.0789 58.496C96.7589 58.912 96.5189 59.408 96.3589 59.984C96.2309 60.528 96.1509 60.816 96.1189 60.848C95.7349 61.168 95.3829 61.328 95.0629 61.328C94.1989 61.328 93.7669 60.816 93.7669 59.792ZM122.601 73.616C122.601 73.264 122.761 72.944 123.081 72.656C123.401 72.336 123.785 72.144 124.233 72.08C124.713 72.016 125.113 71.824 125.433 71.504C125.753 71.152 126.009 70.576 126.201 69.776C126.425 68.944 126.585 68.208 126.681 67.568C126.809 66.928 126.953 65.968 127.113 64.688C127.209 64.08 127.273 63.616 127.305 63.296C127.721 60.48 128.121 57.536 128.505 54.464C128.889 51.392 129.177 48.976 129.369 47.216C129.593 45.424 129.705 44.432 129.705 44.24C129.705 43.344 129.465 42.688 128.985 42.272C128.537 41.824 128.041 41.6 127.497 41.6C126.953 41.568 126.441 41.504 125.961 41.408C125.513 41.28 125.289 41.024 125.289 40.64C125.289 39.648 125.897 39.152 127.113 39.152C127.401 39.152 128.121 39.184 129.273 39.248C130.457 39.28 132.009 39.312 133.929 39.344C135.881 39.376 137.913 39.392 140.025 39.392C140.697 39.392 142.185 39.376 144.489 39.344C146.825 39.312 148.217 39.296 148.665 39.296C149.721 39.296 150.249 39.808 150.249 40.832V43.376C150.249 43.6 150.281 44 150.345 44.576C150.441 45.152 150.489 45.616 150.489 45.968C150.489 47.312 150.057 47.984 149.193 47.984C148.873 47.984 148.649 47.872 148.521 47.648C148.425 47.392 148.345 47.104 148.281 46.784C148.249 46.432 148.089 45.984 147.801 45.44C147.513 44.896 147.081 44.384 146.505 43.904C145.833 43.232 144.441 42.848 142.329 42.752C140.569 42.656 139.401 42.608 138.825 42.608H137.193C136.169 42.608 135.529 42.736 135.273 42.992C135.049 43.216 134.857 43.808 134.697 44.768C134.665 45.056 134.633 45.264 134.601 45.392C133.801 50.896 133.401 54.032 133.401 54.8C133.401 54.864 133.465 54.912 133.593 54.944C133.753 54.944 134.121 54.944 134.697 54.944H137.625C139.961 54.944 141.433 54.912 142.041 54.848C142.745 54.784 143.305 54.592 143.721 54.272C144.137 53.92 144.393 53.568 144.489 53.216C144.617 52.832 144.761 52.496 144.921 52.208C145.113 51.92 145.337 51.776 145.593 51.776C146.393 51.776 146.793 52.176 146.793 52.976C146.793 53.328 146.633 54.256 146.313 55.76C146.025 57.264 145.881 58.688 145.881 60.032C145.881 62.176 145.433 63.248 144.537 63.248C143.545 63.248 143.049 62.672 143.049 61.52V60.992C143.049 60.544 143.017 60.192 142.953 59.936C142.889 59.68 142.713 59.44 142.425 59.216C142.169 58.992 141.865 58.848 141.513 58.784C141.193 58.688 140.633 58.608 139.833 58.544C139.033 58.48 138.233 58.448 137.433 58.448C136.633 58.416 135.481 58.4 133.977 58.4C133.337 58.4 133.001 58.528 132.969 58.784C132.873 59.712 132.697 61.056 132.441 62.816C132.217 64.576 132.009 66.112 131.817 67.424C131.657 68.736 131.577 69.504 131.577 69.728C131.577 70.624 131.849 71.312 132.393 71.792C132.937 72.24 133.529 72.48 134.169 72.512C134.809 72.544 135.401 72.64 135.945 72.8C136.489 72.928 136.761 73.168 136.761 73.52C136.761 74.384 136.281 74.816 135.321 74.816C135.225 74.816 134.649 74.768 133.593 74.672C132.537 74.608 131.465 74.576 130.377 74.576C129.609 74.576 128.761 74.608 127.833 74.672C126.905 74.736 126.137 74.8 125.529 74.864L124.569 74.96C123.257 74.96 122.601 74.512 122.601 73.616ZM151.583 65.888C151.583 62.432 152.671 59.328 154.847 56.576C157.055 53.792 159.983 52.4 163.631 52.4C166.127 52.4 168.031 53.28 169.343 55.04C170.687 56.768 171.359 58.96 171.359 61.616C171.359 63.824 170.927 65.936 170.063 67.952C169.199 69.968 167.839 71.68 165.983 73.088C164.159 74.496 162.047 75.2 159.647 75.2C157.311 75.2 155.375 74.4 153.839 72.8C152.335 71.2 151.583 68.896 151.583 65.888ZM156.719 65.936C156.719 68.24 157.055 70 157.727 71.216C158.431 72.432 159.311 73.04 160.367 73.04C161.423 73.04 162.351 72.608 163.151 71.744C163.983 70.88 164.607 69.808 165.023 68.528C165.471 67.216 165.807 65.92 166.031 64.64C166.255 63.328 166.367 62.128 166.367 61.04C166.367 59.152 166.031 57.728 165.359 56.768C164.719 55.776 163.919 55.28 162.959 55.28C161.871 55.28 160.831 55.776 159.839 56.768C158.879 57.728 158.159 59.056 157.679 60.752C157.039 62.928 156.719 64.656 156.719 65.936ZM173.882 59.888C173.882 58.544 174.49 57.024 175.706 55.328C176.922 53.6 178.362 52.736 180.026 52.736C180.73 52.736 181.29 53.072 181.706 53.744C182.154 54.384 182.41 54.976 182.474 55.52C182.538 56.032 182.57 56.512 182.57 56.96C182.57 58.4 182.266 60.688 181.658 63.824C181.082 66.928 180.794 69.056 180.794 70.208C180.794 70.368 180.81 70.512 180.842 70.64C180.874 70.736 180.906 70.784 180.938 70.784C181.066 70.784 181.21 70.768 181.37 70.736C181.53 70.672 181.69 70.592 181.85 70.496C182.042 70.368 182.202 70.256 182.33 70.16C182.49 70.032 182.682 69.872 182.906 69.68C183.13 69.456 183.306 69.264 183.434 69.104C183.562 68.944 183.738 68.72 183.962 68.432C184.218 68.144 184.41 67.92 184.538 67.76C184.698 67.568 184.922 67.296 185.21 66.944C185.498 66.56 185.706 66.272 185.834 66.08C188.042 63.392 189.85 59.344 191.258 53.936C191.45 53.072 192.154 52.64 193.37 52.64C194.906 52.64 195.674 53.232 195.674 54.416C195.674 54.736 195.178 57.152 194.186 61.664C193.226 66.176 192.746 68.88 192.746 69.776C192.746 70.064 192.858 70.208 193.082 70.208C193.946 70.208 194.634 69.92 195.146 69.344C195.69 68.736 196.106 68.144 196.394 67.568C196.682 66.96 196.954 66.656 197.21 66.656C198.138 66.656 198.602 67.232 198.602 68.384C198.602 69.344 197.77 70.72 196.106 72.512C194.474 74.272 192.57 75.152 190.394 75.152C188.954 75.152 188.234 74.048 188.234 71.84C188.234 70.944 188.298 69.92 188.426 68.768C188.586 67.616 188.73 66.64 188.858 65.84C189.018 65.04 189.098 64.608 189.098 64.544C189.098 64.672 189.258 64.736 189.578 64.736C189.546 64.736 189.482 64.832 189.386 65.024C189.29 65.216 189.13 65.552 188.906 66.032C188.714 66.512 188.474 67.008 188.186 67.52C184.474 72.672 181.21 75.248 178.394 75.248C176.826 75.248 176.042 73.984 176.042 71.456C176.042 69.536 176.394 67.024 177.098 63.92C177.834 60.816 178.202 58.864 178.202 58.064C178.202 57.872 178.122 57.776 177.962 57.776C177.802 57.776 177.562 58.016 177.242 58.496C176.954 58.976 176.698 59.52 176.474 60.128C176.09 60.864 175.626 61.232 175.082 61.232C174.282 61.232 173.882 60.784 173.882 59.888ZM200.277 58.592C200.277 57.504 200.917 56.208 202.197 54.704C203.509 53.168 204.677 52.4 205.701 52.4C206.469 52.4 206.981 52.848 207.237 53.744C207.493 54.64 207.621 55.504 207.621 56.336C207.621 57.168 207.637 57.584 207.669 57.584C207.733 57.584 207.829 57.488 207.957 57.296C208.117 57.104 208.357 56.8 208.677 56.384C208.997 55.968 209.397 55.568 209.877 55.184C212.373 53.264 214.469 52.304 216.165 52.304C219.333 52.304 220.917 54.544 220.917 59.024C220.917 60.304 220.773 62.208 220.485 64.736C220.229 67.264 220.101 68.72 220.101 69.104C220.101 69.776 220.165 70.112 220.293 70.112C220.485 70.112 220.677 70.048 220.869 69.92C221.093 69.792 221.285 69.664 221.445 69.536L221.685 69.248C221.813 69.152 221.973 68.976 222.165 68.72C222.357 68.432 222.501 68.256 222.597 68.192C222.725 68.096 222.885 68 223.077 67.904C223.269 67.808 223.477 67.76 223.701 67.76C224.469 67.76 224.853 68.192 224.853 69.056C224.853 70.112 223.973 71.376 222.213 72.848C220.453 74.288 218.981 75.008 217.797 75.008C217.125 75.008 216.533 74.64 216.021 73.904C215.541 73.168 215.301 72.288 215.301 71.264C215.301 69.952 215.461 67.856 215.781 64.976C216.133 62.064 216.309 60.4 216.309 59.984C216.309 59.536 216.261 59.072 216.165 58.592C216.069 58.112 215.781 57.6 215.301 57.056C214.853 56.48 214.309 56.192 213.669 56.192C212.773 56.192 211.925 56.8 211.125 58.016C210.709 58.624 210.405 59.072 210.213 59.36C210.053 59.648 209.893 60.032 209.733 60.512C209.573 60.992 209.461 61.376 209.397 61.664C209.365 61.92 209.269 62.56 209.109 63.584C208.949 64.576 208.789 65.52 208.629 66.416C208.341 67.888 208.117 69.088 207.957 70.016C207.829 70.944 207.749 71.552 207.717 71.84C207.717 72.096 207.701 72.32 207.669 72.512C207.669 72.672 207.669 72.8 207.669 72.896C207.573 73.696 207.349 74.208 206.997 74.432C206.677 74.688 206.069 74.816 205.173 74.816C204.149 74.816 203.493 74.688 203.205 74.432C202.917 74.208 202.773 73.6 202.773 72.608C202.773 72.064 203.125 70.08 203.829 66.656C204.533 63.232 204.885 60.832 204.885 59.456C204.885 58.912 204.837 58.464 204.741 58.112C204.677 57.728 204.597 57.536 204.501 57.536C203.957 57.536 203.381 57.984 202.773 58.88C202.197 59.776 201.749 60.224 201.429 60.224C200.661 60.224 200.277 59.68 200.277 58.592ZM226.425 68C226.425 64.128 227.753 60.608 230.409 57.44C233.097 54.272 235.993 52.688 239.097 52.688C239.513 52.688 240.089 52.8 240.825 53.024C241.593 53.216 242.201 53.312 242.649 53.312C242.681 53.312 242.857 51.328 243.177 47.36C243.497 43.392 243.657 41.296 243.657 41.072C243.657 40.944 243.593 40.832 243.465 40.736C243.337 40.64 243.177 40.592 242.985 40.592C242.825 40.592 242.601 40.608 242.313 40.64C242.057 40.64 241.817 40.64 241.593 40.64H241.305C240.313 40.64 239.817 40.224 239.817 39.392C239.817 38.944 239.977 38.64 240.297 38.48C240.617 38.32 241.129 38.192 241.833 38.096C242.537 37.968 243.049 37.84 243.369 37.712C243.849 37.584 244.297 37.472 244.713 37.376C245.129 37.28 245.417 37.216 245.577 37.184C245.737 37.12 245.913 37.072 246.105 37.04C246.297 36.976 246.473 36.944 246.633 36.944C246.793 36.944 247.001 36.944 247.257 36.944C247.481 36.944 247.657 37.024 247.785 37.184C247.945 37.344 248.025 37.552 248.025 37.808C248.025 38.032 247.993 38.32 247.929 38.672C247.897 39.024 247.801 39.712 247.641 40.736C247.513 41.76 247.369 42.976 247.209 44.384C247.049 45.792 246.825 48 246.537 51.008C246.249 53.984 245.929 57.312 245.577 60.992C244.905 65.568 244.569 68.24 244.569 69.008C244.569 69.904 244.745 70.352 245.097 70.352C245.705 70.352 246.281 70.112 246.825 69.632C247.401 69.12 247.865 68.624 248.217 68.144C248.601 67.632 248.889 67.376 249.081 67.376C249.913 67.376 250.329 67.76 250.329 68.528C250.329 69.36 249.561 70.672 248.025 72.464C246.521 74.224 245.001 75.104 243.465 75.104C242.697 75.104 242.105 74.816 241.689 74.24C241.273 73.696 241.033 73.088 240.969 72.416C240.905 71.744 240.841 71.136 240.777 70.592C240.745 70.016 240.665 69.728 240.537 69.728C240.473 69.728 240.233 70.016 239.817 70.592C239.401 71.136 238.905 71.744 238.329 72.416C237.785 73.088 237.017 73.696 236.025 74.24C235.033 74.816 233.993 75.104 232.905 75.104C230.697 75.104 229.065 74.464 228.009 73.184C226.953 71.872 226.425 70.144 226.425 68ZM231.225 66.656C231.225 67.936 231.497 68.96 232.041 69.728C232.617 70.496 233.465 70.88 234.585 70.88C236.281 70.88 237.705 70.128 238.857 68.624C239.625 67.664 240.233 65.76 240.681 62.912C241.129 60.064 241.353 57.872 241.353 56.336C241.353 55.952 241.081 55.664 240.537 55.472C240.025 55.248 239.465 55.136 238.857 55.136C237.577 55.136 236.329 55.776 235.113 57.056C233.929 58.304 232.985 59.824 232.281 61.616C231.577 63.376 231.225 65.056 231.225 66.656ZM251.895 66.944C251.895 64.832 252.391 62.736 253.383 60.656C254.375 58.576 255.767 56.72 257.559 55.088C259.479 53.264 261.863 52.352 264.711 52.352C266.055 52.352 267.207 52.752 268.167 53.552C269.127 54.352 269.607 55.376 269.607 56.624C269.607 57.52 269.399 58.368 268.983 59.168C268.567 59.968 268.039 60.64 267.399 61.184C266.791 61.728 266.247 62.16 265.767 62.48C265.287 62.768 264.871 62.976 264.519 63.104C262.599 63.968 259.991 64.416 256.695 64.448C256.631 64.448 256.599 64.864 256.599 65.696C256.599 67.328 257.111 68.624 258.135 69.584C259.191 70.512 260.743 70.976 262.791 70.976C263.591 70.976 264.375 70.8 265.143 70.448C265.943 70.096 266.583 69.76 267.063 69.44C267.575 69.088 267.879 68.912 267.975 68.912C268.839 68.912 269.271 69.312 269.271 70.112C269.271 70.88 268.263 71.936 266.247 73.28C264.263 74.624 262.247 75.296 260.199 75.296C257.063 75.296 254.887 74.56 253.671 73.088C252.487 71.616 251.895 69.568 251.895 66.944ZM257.271 61.952C257.271 62.112 257.175 62.192 256.983 62.192C259.063 62.192 260.887 61.632 262.455 60.512C264.055 59.36 264.855 58.112 264.855 56.768C264.855 56.224 264.647 55.84 264.231 55.616C263.847 55.36 263.447 55.232 263.031 55.232C262.007 55.232 260.871 55.904 259.623 57.248C259.015 57.856 258.471 58.704 257.991 59.792C257.511 60.848 257.271 61.568 257.271 61.952ZM271.845 59.792C271.845 58.64 272.005 57.616 272.325 56.72C272.677 55.792 273.077 55.088 273.525 54.608C274.005 54.096 274.501 53.664 275.013 53.312C275.525 52.928 275.957 52.688 276.309 52.592C276.661 52.496 276.917 52.448 277.077 52.448C278.133 52.448 278.949 53.168 279.525 54.608C279.941 56.4 280.165 57.296 280.197 57.296C280.229 57.296 280.533 56.896 281.109 56.096C281.685 55.264 282.453 54.432 283.413 53.6C284.405 52.768 285.429 52.352 286.485 52.352C287.285 52.352 287.893 52.576 288.309 53.024C288.757 53.472 288.981 53.984 288.981 54.56C288.981 54.816 288.885 55.184 288.693 55.664C288.533 56.112 288.453 56.352 288.453 56.384L288.405 56.816C288.277 57.232 288.165 57.568 288.069 57.824C287.973 58.048 287.797 58.288 287.541 58.544C287.285 58.768 286.997 58.88 286.677 58.88C286.389 58.88 286.149 58.72 285.957 58.4C285.765 58.048 285.525 57.712 285.237 57.392C284.949 57.04 284.565 56.864 284.085 56.864C283.349 56.864 282.725 57.76 282.213 59.552C281.701 61.312 281.365 62.976 281.205 64.544L280.965 66.128C280.357 70.8 279.909 73.408 279.621 73.952C279.173 74.592 278.485 74.912 277.557 74.912H277.317C275.877 74.912 275.157 74.256 275.157 72.944C275.157 72.432 275.493 70.544 276.165 67.28C276.869 64.016 277.221 61.712 277.221 60.368C277.221 58.672 276.917 57.824 276.309 57.824C275.861 57.824 275.477 58.048 275.157 58.496C274.837 58.912 274.597 59.408 274.437 59.984C274.309 60.528 274.229 60.816 274.197 60.848C273.813 61.168 273.461 61.328 273.141 61.328C272.277 61.328 271.845 60.816 271.845 59.792ZM288.579 71.408C288.579 69.776 289.331 68.96 290.835 68.96C291.379 68.96 291.827 69.136 292.179 69.488C292.531 69.84 292.787 70.224 292.947 70.64C293.107 71.024 293.395 71.392 293.811 71.744C294.227 72.096 294.755 72.272 295.395 72.272C296.035 72.272 296.579 72.176 297.027 71.984C297.507 71.792 297.843 71.552 298.035 71.264C298.227 70.944 298.355 70.688 298.419 70.496C298.483 70.272 298.515 70.08 298.515 69.92C298.515 69.44 298.451 69.008 298.323 68.624C298.195 68.208 297.907 67.744 297.459 67.232C297.043 66.72 296.771 66.4 296.643 66.272C296.515 66.144 296.099 65.744 295.395 65.072C295.203 64.848 294.883 64.512 294.435 64.064C293.987 63.616 293.667 63.296 293.475 63.104C293.283 62.88 293.027 62.56 292.707 62.144C292.387 61.728 292.147 61.36 291.987 61.04C291.859 60.72 291.731 60.336 291.603 59.888C291.507 59.44 291.459 58.96 291.459 58.448C291.459 56.624 292.131 55.152 293.475 54.032C294.851 52.88 296.595 52.304 298.707 52.304C302.163 52.304 303.891 53.376 303.891 55.52C303.891 56.16 303.683 56.688 303.267 57.104C302.883 57.488 302.515 57.712 302.163 57.776C301.843 57.84 301.571 57.872 301.347 57.872C300.771 57.872 300.147 57.424 299.475 56.528C298.835 55.632 298.195 55.184 297.555 55.184C296.339 55.184 295.731 55.792 295.731 57.008C295.731 57.52 295.907 58.048 296.259 58.592C296.643 59.104 297.251 59.728 298.083 60.464C298.915 61.168 299.347 61.552 299.379 61.616C299.539 61.744 299.859 62.08 300.339 62.624C300.819 63.168 301.139 63.568 301.299 63.824C301.491 64.08 301.731 64.464 302.019 64.976C302.339 65.456 302.547 65.968 302.643 66.512C302.771 67.056 302.835 67.648 302.835 68.288C302.835 68.864 302.707 69.504 302.451 70.208C302.227 70.912 301.843 71.68 301.299 72.512C300.755 73.312 299.891 73.968 298.707 74.48C297.555 75.024 296.195 75.296 294.627 75.296C293.187 75.296 291.811 74.992 290.499 74.384C289.219 73.776 288.579 72.784 288.579 71.408Z" fill="#3F345D"/>
<path d="M46.8938 127.131C46.3875 127.131 46.1063 126.878 45.9469 126.325L42.6375 114.578C42.5813 114.372 42.5625 114.259 42.5625 114.109C42.5625 113.659 42.9094 113.341 43.3969 113.341C43.8375 113.341 44.1188 113.584 44.2313 114.016L46.8938 124.516H46.9688L49.8188 114.287C50.0063 113.612 50.3063 113.341 50.8781 113.341C51.4313 113.341 51.7313 113.612 51.9094 114.25L54.7688 124.516H54.8438L57.5063 114.016C57.6188 113.575 57.9094 113.341 58.3406 113.341C58.8281 113.341 59.175 113.659 59.175 114.109C59.175 114.259 59.1563 114.372 59.1 114.578L55.7906 126.325C55.6313 126.878 55.35 127.131 54.8438 127.131C54.3188 127.131 54.0375 126.897 53.8688 126.334L50.9156 116.266H50.8219L47.8688 126.334C47.7 126.897 47.4188 127.131 46.8938 127.131ZM62.709 127.169C60.7684 127.169 59.4653 125.997 59.4653 124.244C59.4653 122.575 60.7496 121.525 62.9996 121.394L65.8028 121.234V120.419C65.8028 119.228 65.0153 118.516 63.6653 118.516C62.6059 118.516 61.884 118.9 61.3403 119.866C61.1903 120.137 60.9746 120.259 60.6653 120.259C60.2434 120.259 59.9434 119.969 59.9434 119.528C59.9434 119.322 60.009 119.087 60.1403 118.853C60.6934 117.784 62.1184 117.081 63.7028 117.081C65.9903 117.081 67.434 118.319 67.434 120.259V126.344C67.434 126.831 67.1153 127.169 66.6653 127.169C66.2059 127.169 65.8871 126.831 65.8871 126.344V125.322H65.8496C65.2684 126.437 64.0215 127.169 62.709 127.169ZM63.0746 125.781C64.6121 125.781 65.8028 124.703 65.8028 123.297V122.5L63.1871 122.659C61.8746 122.744 61.1246 123.325 61.1246 124.244C61.1246 125.172 61.9028 125.781 63.0746 125.781ZM70.7899 127.169C70.3118 127.169 69.9743 126.812 69.9743 126.297V114.175C69.9743 113.659 70.3118 113.303 70.7899 113.303C71.268 113.303 71.6055 113.659 71.6055 114.175V126.297C71.6055 126.812 71.268 127.169 70.7899 127.169ZM77.8864 127.169C75.402 127.169 73.7145 125.181 73.7145 122.125C73.7145 119.069 75.3926 117.081 77.8489 117.081C79.2458 117.081 80.3708 117.766 80.952 118.834H80.9895V114.175C80.9895 113.659 81.327 113.303 81.8051 113.303C82.2833 113.303 82.6208 113.659 82.6208 114.175V126.372C82.6208 126.841 82.2926 127.169 81.8239 127.169C81.3645 127.169 80.9895 126.85 80.9895 126.372V125.256H80.9614C80.427 126.419 79.4145 127.169 77.8864 127.169ZM78.1958 125.734C79.8739 125.734 80.9989 124.309 80.9989 122.125C80.9989 119.95 79.8739 118.516 78.1958 118.516C76.4708 118.516 75.3833 119.922 75.3833 122.125C75.3833 124.337 76.4708 125.734 78.1958 125.734ZM89.2485 127.169C86.5485 127.169 84.7298 125.228 84.7298 122.125C84.7298 119.012 86.5485 117.081 89.2485 117.081C91.9391 117.081 93.7579 119.012 93.7579 122.125C93.7579 125.228 91.9391 127.169 89.2485 127.169ZM89.2485 125.734C90.9735 125.734 92.0985 124.422 92.0985 122.125C92.0985 119.828 90.9735 118.516 89.2485 118.516C87.5235 118.516 86.3891 119.828 86.3891 122.125C86.3891 124.422 87.5235 125.734 89.2485 125.734ZM100.929 127.169C100.451 127.169 100.113 126.812 100.113 126.297V117.906C100.113 117.419 100.432 117.081 100.882 117.081C101.332 117.081 101.651 117.419 101.651 117.906V118.844H101.688C101.97 117.831 102.926 117.081 103.901 117.081C104.257 117.081 104.51 117.166 104.67 117.316C104.81 117.447 104.876 117.634 104.876 117.859C104.876 118.112 104.792 118.3 104.623 118.431C104.454 118.572 104.201 118.637 103.845 118.637C102.373 118.637 101.745 119.697 101.745 120.944V126.297C101.745 126.812 101.407 127.169 100.929 127.169ZM110.041 127.169C107.163 127.169 105.476 125.312 105.476 122.162C105.476 119.087 107.21 117.081 109.901 117.081C112.394 117.081 114.147 118.947 114.147 121.619C114.147 122.209 113.81 122.566 113.247 122.566H107.154C107.154 124.534 108.232 125.753 109.976 125.753C111.138 125.753 111.851 125.341 112.61 124.234C112.779 124 112.966 123.906 113.219 123.906C113.651 123.906 113.941 124.187 113.941 124.619C113.941 124.75 113.894 124.919 113.819 125.097C113.191 126.419 111.822 127.169 110.041 127.169ZM107.163 121.291H112.46C112.422 119.603 111.382 118.497 109.872 118.497C108.354 118.497 107.266 119.612 107.163 121.291ZM119.022 127.169C117.081 127.169 115.778 125.997 115.778 124.244C115.778 122.575 117.063 121.525 119.313 121.394L122.116 121.234V120.419C122.116 119.228 121.328 118.516 119.978 118.516C118.919 118.516 118.197 118.9 117.653 119.866C117.503 120.137 117.288 120.259 116.978 120.259C116.556 120.259 116.256 119.969 116.256 119.528C116.256 119.322 116.322 119.087 116.453 118.853C117.006 117.784 118.431 117.081 120.016 117.081C122.303 117.081 123.747 118.319 123.747 120.259V126.344C123.747 126.831 123.428 127.169 122.978 127.169C122.519 127.169 122.2 126.831 122.2 126.344V125.322H122.163C121.581 126.437 120.335 127.169 119.022 127.169ZM119.388 125.781C120.925 125.781 122.116 124.703 122.116 123.297V122.5L119.5 122.659C118.188 122.744 117.438 123.325 117.438 124.244C117.438 125.172 118.216 125.781 119.388 125.781ZM129.897 127.169C127.412 127.169 125.725 125.181 125.725 122.125C125.725 119.069 127.403 117.081 129.859 117.081C131.256 117.081 132.381 117.766 132.962 118.834H133V114.175C133 113.659 133.337 113.303 133.815 113.303C134.294 113.303 134.631 113.659 134.631 114.175V126.372C134.631 126.841 134.303 127.169 133.834 127.169C133.375 127.169 133 126.85 133 126.372V125.256H132.972C132.437 126.419 131.425 127.169 129.897 127.169ZM130.206 125.734C131.884 125.734 133.009 124.309 133.009 122.125C133.009 119.95 131.884 118.516 130.206 118.516C128.481 118.516 127.394 119.922 127.394 122.125C127.394 124.337 128.481 125.734 130.206 125.734ZM140.603 127.169C138.868 127.169 137.509 126.391 137.04 125.172C136.984 125.031 136.965 124.909 136.965 124.787C136.965 124.356 137.284 124.112 137.706 124.112C137.996 124.112 138.231 124.262 138.418 124.6C138.906 125.453 139.487 125.837 140.734 125.837C141.981 125.837 142.824 125.294 142.824 124.384C142.824 123.681 142.421 123.306 141.324 123.034L139.834 122.659C137.949 122.191 137.04 121.3 137.04 119.931C137.04 118.234 138.531 117.081 140.734 117.081C142.337 117.081 143.762 117.981 144.015 119.153C144.034 119.247 144.043 119.322 144.043 119.397C144.043 119.781 143.799 120.034 143.406 120.034C143.087 120.034 142.862 119.931 142.684 119.594C142.262 118.778 141.634 118.422 140.64 118.422C139.468 118.422 138.653 119.012 138.653 119.847C138.653 120.522 139.178 120.991 140.246 121.253L141.699 121.609C143.734 122.106 144.484 122.819 144.484 124.253C144.484 125.997 142.918 127.169 140.603 127.169ZM151.824 130.647C151.036 130.647 150.596 130.356 150.596 129.841C150.596 129.484 150.839 129.241 151.252 129.241C151.486 129.241 151.552 129.25 151.805 129.25C152.424 129.25 153.014 128.875 153.399 127.694L153.624 127.009L150.267 118.262C150.211 118.103 150.183 117.953 150.183 117.831C150.183 117.381 150.53 117.081 150.999 117.081C151.383 117.081 151.627 117.25 151.777 117.681L154.467 125.369H154.496L157.196 117.681C157.346 117.25 157.561 117.081 157.964 117.081C158.433 117.081 158.761 117.391 158.761 117.831C158.761 117.953 158.733 118.103 158.677 118.262L155.077 127.684C154.233 129.925 153.436 130.647 151.824 130.647ZM164.348 127.169C161.648 127.169 159.83 125.228 159.83 122.125C159.83 119.012 161.648 117.081 164.348 117.081C167.039 117.081 168.858 119.012 168.858 122.125C168.858 125.228 167.039 127.169 164.348 127.169ZM164.348 125.734C166.073 125.734 167.198 124.422 167.198 122.125C167.198 119.828 166.073 118.516 164.348 118.516C162.623 118.516 161.489 119.828 161.489 122.125C161.489 124.422 162.623 125.734 164.348 125.734ZM174.22 127.169C172.092 127.169 170.845 125.791 170.845 123.578V117.953C170.845 117.437 171.182 117.081 171.66 117.081C172.139 117.081 172.476 117.437 172.476 117.953V123.287C172.476 124.872 173.217 125.725 174.726 125.725C176.31 125.725 177.267 124.637 177.267 122.978V117.953C177.267 117.437 177.604 117.081 178.082 117.081C178.56 117.081 178.898 117.437 178.898 117.953V126.344C178.898 126.812 178.598 127.169 178.129 127.169C177.66 127.169 177.351 126.812 177.351 126.344V125.416H177.314C176.732 126.541 175.72 127.169 174.22 127.169ZM182.216 127.169C181.738 127.169 181.401 126.812 181.401 126.297V117.906C181.401 117.419 181.719 117.081 182.169 117.081C182.619 117.081 182.938 117.419 182.938 117.906V118.844H182.976C183.257 117.831 184.213 117.081 185.188 117.081C185.544 117.081 185.798 117.166 185.957 117.316C186.098 117.447 186.163 117.634 186.163 117.859C186.163 118.112 186.079 118.3 185.91 118.431C185.741 118.572 185.488 118.637 185.132 118.637C183.66 118.637 183.032 119.697 183.032 120.944V126.297C183.032 126.812 182.694 127.169 182.216 127.169ZM195.416 127.169C193.681 127.169 192.322 126.391 191.853 125.172C191.797 125.031 191.778 124.909 191.778 124.787C191.778 124.356 192.097 124.112 192.519 124.112C192.809 124.112 193.044 124.262 193.231 124.6C193.719 125.453 194.3 125.837 195.547 125.837C196.794 125.837 197.637 125.294 197.637 124.384C197.637 123.681 197.234 123.306 196.137 123.034L194.647 122.659C192.762 122.191 191.853 121.3 191.853 119.931C191.853 118.234 193.344 117.081 195.547 117.081C197.15 117.081 198.575 117.981 198.828 119.153C198.847 119.247 198.856 119.322 198.856 119.397C198.856 119.781 198.612 120.034 198.219 120.034C197.9 120.034 197.675 119.931 197.497 119.594C197.075 118.778 196.447 118.422 195.453 118.422C194.281 118.422 193.466 119.012 193.466 119.847C193.466 120.522 193.991 120.991 195.059 121.253L196.512 121.609C198.547 122.106 199.297 122.819 199.297 124.253C199.297 125.997 197.731 127.169 195.416 127.169ZM201.884 124.75V118.591H201.068C200.6 118.591 200.337 118.347 200.337 117.916C200.337 117.494 200.6 117.25 201.068 117.25H201.884V115.581C201.884 115.066 202.221 114.709 202.7 114.709C203.178 114.709 203.515 115.066 203.515 115.581V117.25H204.771C205.24 117.25 205.503 117.494 205.503 117.916C205.503 118.347 205.24 118.591 204.771 118.591H203.515V124.394C203.515 125.219 203.806 125.612 204.621 125.669L204.762 125.678C205.296 125.716 205.54 125.931 205.54 126.316C205.54 126.812 205.259 127.075 204.35 127.075H204.246C202.671 127.075 201.884 126.306 201.884 124.75ZM210.19 127.169C208.249 127.169 206.946 125.997 206.946 124.244C206.946 122.575 208.23 121.525 210.48 121.394L213.284 121.234V120.419C213.284 119.228 212.496 118.516 211.146 118.516C210.087 118.516 209.365 118.9 208.821 119.866C208.671 120.137 208.455 120.259 208.146 120.259C207.724 120.259 207.424 119.969 207.424 119.528C207.424 119.322 207.49 119.087 207.621 118.853C208.174 117.784 209.599 117.081 211.184 117.081C213.471 117.081 214.915 118.319 214.915 120.259V126.344C214.915 126.831 214.596 127.169 214.146 127.169C213.687 127.169 213.368 126.831 213.368 126.344V125.322H213.33C212.749 126.437 211.502 127.169 210.19 127.169ZM210.555 125.781C212.093 125.781 213.284 124.703 213.284 123.297V122.5L210.668 122.659C209.355 122.744 208.605 123.325 208.605 124.244C208.605 125.172 209.384 125.781 210.555 125.781ZM217.896 124.75V118.591H217.08C216.611 118.591 216.349 118.347 216.349 117.916C216.349 117.494 216.611 117.25 217.08 117.25H217.896V115.581C217.896 115.066 218.233 114.709 218.711 114.709C219.189 114.709 219.527 115.066 219.527 115.581V117.25H220.783C221.252 117.25 221.514 117.494 221.514 117.916C221.514 118.347 221.252 118.591 220.783 118.591H219.527V124.394C219.527 125.219 219.818 125.612 220.633 125.669L220.774 125.678C221.308 125.716 221.552 125.931 221.552 126.316C221.552 126.812 221.271 127.075 220.361 127.075H220.258C218.683 127.075 217.896 126.306 217.896 124.75ZM227.355 127.169C224.477 127.169 222.789 125.312 222.789 122.162C222.789 119.087 224.523 117.081 227.214 117.081C229.708 117.081 231.461 118.947 231.461 121.619C231.461 122.209 231.123 122.566 230.561 122.566H224.467C224.467 124.534 225.545 125.753 227.289 125.753C228.452 125.753 229.164 125.341 229.923 124.234C230.092 124 230.28 123.906 230.533 123.906C230.964 123.906 231.255 124.187 231.255 124.619C231.255 124.75 231.208 124.919 231.133 125.097C230.505 126.419 229.136 127.169 227.355 127.169ZM224.477 121.291H229.773C229.736 119.603 228.695 118.497 227.186 118.497C225.667 118.497 224.58 119.612 224.477 121.291ZM238.66 127.169C238.201 127.169 237.901 126.85 237.901 126.372V114.175C237.901 113.659 238.238 113.303 238.716 113.303C239.195 113.303 239.532 113.659 239.532 114.175V118.881H239.57C240.188 117.766 241.323 117.081 242.701 117.081C245.157 117.081 246.816 119.069 246.816 122.125C246.816 125.191 245.166 127.169 242.673 127.169C241.248 127.169 240.132 126.475 239.495 125.35H239.457V126.372C239.457 126.841 239.129 127.169 238.66 127.169ZM242.354 125.734C244.079 125.734 245.148 124.356 245.148 122.125C245.148 119.912 244.079 118.516 242.354 118.516C240.704 118.516 239.523 119.959 239.523 122.125C239.523 124.3 240.704 125.734 242.354 125.734ZM252.938 127.169C250.06 127.169 248.372 125.312 248.372 122.162C248.372 119.087 250.107 117.081 252.797 117.081C255.291 117.081 257.044 118.947 257.044 121.619C257.044 122.209 256.707 122.566 256.144 122.566H250.05C250.05 124.534 251.129 125.753 252.872 125.753C254.035 125.753 254.747 125.341 255.507 124.234C255.675 124 255.863 123.906 256.116 123.906C256.547 123.906 256.838 124.187 256.838 124.619C256.838 124.75 256.791 124.919 256.716 125.097C256.088 126.419 254.719 127.169 252.938 127.169ZM250.06 121.291H255.357C255.319 119.603 254.279 118.497 252.769 118.497C251.25 118.497 250.163 119.612 250.06 121.291ZM260.419 127.169C259.922 127.169 259.603 126.831 259.603 126.306V118.591H258.797C258.375 118.591 258.103 118.347 258.103 117.925C258.103 117.522 258.375 117.25 258.797 117.25H259.603V116.162C259.603 114.297 260.494 113.397 262.088 113.397C262.95 113.397 263.409 113.678 263.409 114.156C263.409 114.456 263.269 114.644 262.969 114.728C262.828 114.766 262.669 114.784 262.463 114.784C261.6 114.784 261.225 115.216 261.225 116.219V117.25H262.669C263.091 117.25 263.363 117.522 263.363 117.925C263.363 118.347 263.091 118.591 262.669 118.591H261.234V126.306C261.234 126.831 260.916 127.169 260.419 127.169ZM268.865 127.169C266.165 127.169 264.347 125.228 264.347 122.125C264.347 119.012 266.165 117.081 268.865 117.081C271.556 117.081 273.375 119.012 273.375 122.125C273.375 125.228 271.556 127.169 268.865 127.169ZM268.865 125.734C270.59 125.734 271.715 124.422 271.715 122.125C271.715 119.828 270.59 118.516 268.865 118.516C267.14 118.516 266.006 119.828 266.006 122.125C266.006 124.422 267.14 125.734 268.865 125.734ZM276.224 127.169C275.746 127.169 275.409 126.812 275.409 126.297V117.906C275.409 117.419 275.727 117.081 276.177 117.081C276.627 117.081 276.946 117.419 276.946 117.906V118.844H276.984C277.265 117.831 278.221 117.081 279.196 117.081C279.552 117.081 279.806 117.166 279.965 117.316C280.106 117.447 280.171 117.634 280.171 117.859C280.171 118.112 280.087 118.3 279.918 118.431C279.749 118.572 279.496 118.637 279.14 118.637C277.668 118.637 277.04 119.697 277.04 120.944V126.297C277.04 126.812 276.702 127.169 276.224 127.169ZM285.336 127.169C282.458 127.169 280.771 125.312 280.771 122.162C280.771 119.087 282.505 117.081 285.196 117.081C287.69 117.081 289.443 118.947 289.443 121.619C289.443 122.209 289.105 122.566 288.543 122.566H282.449C282.449 124.534 283.527 125.753 285.271 125.753C286.433 125.753 287.146 125.341 287.905 124.234C288.074 124 288.261 123.906 288.515 123.906C288.946 123.906 289.236 124.187 289.236 124.619C289.236 124.75 289.19 124.919 289.115 125.097C288.486 126.419 287.118 127.169 285.336 127.169ZM282.458 121.291H287.755C287.718 119.603 286.677 118.497 285.168 118.497C283.649 118.497 282.561 119.612 282.458 121.291ZM296.754 130.647C295.967 130.647 295.526 130.356 295.526 129.841C295.526 129.484 295.77 129.241 296.183 129.241C296.417 129.241 296.483 129.25 296.736 129.25C297.354 129.25 297.945 128.875 298.329 127.694L298.554 127.009L295.198 118.262C295.142 118.103 295.114 117.953 295.114 117.831C295.114 117.381 295.461 117.081 295.929 117.081C296.314 117.081 296.558 117.25 296.708 117.681L299.398 125.369H299.426L302.126 117.681C302.276 117.25 302.492 117.081 302.895 117.081C303.364 117.081 303.692 117.391 303.692 117.831C303.692 117.953 303.664 118.103 303.608 118.262L300.008 127.684C299.164 129.925 298.367 130.647 296.754 130.647ZM309.279 127.169C306.579 127.169 304.76 125.228 304.76 122.125C304.76 119.012 306.579 117.081 309.279 117.081C311.97 117.081 313.788 119.012 313.788 122.125C313.788 125.228 311.97 127.169 309.279 127.169ZM309.279 125.734C311.004 125.734 312.129 124.422 312.129 122.125C312.129 119.828 311.004 118.516 309.279 118.516C307.554 118.516 306.42 119.828 306.42 122.125C306.42 124.422 307.554 125.734 309.279 125.734ZM319.151 127.169C317.022 127.169 315.776 125.791 315.776 123.578V117.953C315.776 117.437 316.113 117.081 316.591 117.081C317.069 117.081 317.407 117.437 317.407 117.953V123.287C317.407 124.872 318.147 125.725 319.657 125.725C321.241 125.725 322.197 124.637 322.197 122.978V117.953C322.197 117.437 322.535 117.081 323.013 117.081C323.491 117.081 323.829 117.437 323.829 117.953V126.344C323.829 126.812 323.529 127.169 323.06 127.169C322.591 127.169 322.282 126.812 322.282 126.344V125.416H322.244C321.663 126.541 320.651 127.169 319.151 127.169ZM334.675 127.169C331.975 127.169 330.175 125.228 330.175 122.144C330.175 119.078 331.956 117.081 334.656 117.081C336.494 117.081 338.097 118.122 338.472 119.472C338.509 119.594 338.528 119.716 338.528 119.819C338.528 120.25 338.256 120.531 337.834 120.531C337.478 120.531 337.281 120.381 337.056 119.959C336.54 118.994 335.8 118.516 334.675 118.516C332.978 118.516 331.834 119.941 331.834 122.125C331.834 124.366 332.997 125.734 334.675 125.734C335.847 125.734 336.559 125.228 337.065 124.291C337.3 123.85 337.478 123.719 337.834 123.719C338.256 123.719 338.537 124.009 338.537 124.431C338.537 124.553 338.509 124.694 338.462 124.844C337.994 126.194 336.447 127.169 334.675 127.169ZM341.556 127.169C341.078 127.169 340.74 126.812 340.74 126.297V114.156C340.74 113.65 341.068 113.303 341.556 113.303C342.053 113.303 342.371 113.65 342.371 114.156V118.806H342.409C342.953 117.719 344.021 117.081 345.503 117.081C347.64 117.081 348.934 118.525 348.934 120.7V126.297C348.934 126.812 348.596 127.169 348.118 127.169C347.64 127.169 347.303 126.812 347.303 126.297V121C347.303 119.453 346.524 118.525 344.996 118.525C343.374 118.525 342.371 119.631 342.371 121.319V126.297C342.371 126.812 342.034 127.169 341.556 127.169ZM355.477 127.169C352.599 127.169 350.912 125.312 350.912 122.162C350.912 119.087 352.646 117.081 355.337 117.081C357.83 117.081 359.583 118.947 359.583 121.619C359.583 122.209 359.246 122.566 358.683 122.566H352.59C352.59 124.534 353.668 125.753 355.412 125.753C356.574 125.753 357.287 125.341 358.046 124.234C358.215 124 358.402 123.906 358.655 123.906C359.087 123.906 359.377 124.187 359.377 124.619C359.377 124.75 359.33 124.919 359.255 125.097C358.627 126.419 357.258 127.169 355.477 127.169ZM352.599 121.291H357.896C357.858 119.603 356.818 118.497 355.308 118.497C353.79 118.497 352.702 119.612 352.599 121.291ZM365.639 127.169C362.939 127.169 361.139 125.228 361.139 122.144C361.139 119.078 362.921 117.081 365.621 117.081C367.458 117.081 369.061 118.122 369.436 119.472C369.474 119.594 369.492 119.716 369.492 119.819C369.492 120.25 369.221 120.531 368.799 120.531C368.442 120.531 368.246 120.381 368.021 119.959C367.505 118.994 366.764 118.516 365.639 118.516C363.942 118.516 362.799 119.941 362.799 122.125C362.799 124.366 363.961 125.734 365.639 125.734C366.811 125.734 367.524 125.228 368.03 124.291C368.264 123.85 368.442 123.719 368.799 123.719C369.221 123.719 369.502 124.009 369.502 124.431C369.502 124.553 369.474 124.694 369.427 124.844C368.958 126.194 367.411 127.169 365.639 127.169ZM372.52 127.169C372.042 127.169 371.705 126.812 371.705 126.297V114.175C371.705 113.659 372.042 113.303 372.52 113.303C372.998 113.303 373.336 113.659 373.336 114.175V121.581L377.695 117.353C377.892 117.156 378.051 117.081 378.286 117.081C378.67 117.081 378.98 117.391 378.98 117.756C378.98 117.981 378.914 118.122 378.717 118.309L375.398 121.459L379.064 125.922C379.223 126.119 379.27 126.269 379.27 126.475C379.27 126.869 378.942 127.169 378.52 127.169C378.267 127.169 378.098 127.094 377.911 126.869L374.245 122.462L373.336 123.325V126.297C373.336 126.812 372.998 127.169 372.52 127.169ZM44.0156 157.647C43.2281 157.647 42.7875 157.356 42.7875 156.841C42.7875 156.484 43.0313 156.241 43.4438 156.241C43.6781 156.241 43.7438 156.25 43.9969 156.25C44.6156 156.25 45.2063 155.875 45.5906 154.694L45.8156 154.009L42.4594 145.262C42.4031 145.103 42.375 144.953 42.375 144.831C42.375 144.381 42.7219 144.081 43.1906 144.081C43.575 144.081 43.8188 144.25 43.9688 144.681L46.6594 152.369H46.6875L49.3875 144.681C49.5375 144.25 49.7531 144.081 50.1563 144.081C50.625 144.081 50.9531 144.391 50.9531 144.831C50.9531 144.953 50.925 145.103 50.8688 145.262L47.2688 154.684C46.425 156.925 45.6281 157.647 44.0156 157.647ZM56.5403 154.169C53.8403 154.169 52.0215 152.228 52.0215 149.125C52.0215 146.012 53.8403 144.081 56.5403 144.081C59.2309 144.081 61.0496 146.012 61.0496 149.125C61.0496 152.228 59.2309 154.169 56.5403 154.169ZM56.5403 152.734C58.2653 152.734 59.3903 151.422 59.3903 149.125C59.3903 146.828 58.2653 145.516 56.5403 145.516C54.8153 145.516 53.6809 146.828 53.6809 149.125C53.6809 151.422 54.8153 152.734 56.5403 152.734ZM66.4118 154.169C64.2836 154.169 63.0368 152.791 63.0368 150.578V144.953C63.0368 144.437 63.3743 144.081 63.8524 144.081C64.3305 144.081 64.668 144.437 64.668 144.953V150.287C64.668 151.872 65.4086 152.725 66.918 152.725C68.5024 152.725 69.4586 151.637 69.4586 149.978V144.953C69.4586 144.437 69.7961 144.081 70.2743 144.081C70.7524 144.081 71.0899 144.437 71.0899 144.953V153.344C71.0899 153.812 70.7899 154.169 70.3211 154.169C69.8524 154.169 69.543 153.812 69.543 153.344V152.416H69.5055C68.9243 153.541 67.9118 154.169 66.4118 154.169ZM74.4083 154.169C73.9301 154.169 73.5926 153.812 73.5926 153.297V144.906C73.5926 144.419 73.9114 144.081 74.3614 144.081C74.8114 144.081 75.1301 144.419 75.1301 144.906V145.844H75.1676C75.4489 144.831 76.4051 144.081 77.3801 144.081C77.7364 144.081 77.9895 144.166 78.1489 144.316C78.2895 144.447 78.3551 144.634 78.3551 144.859C78.3551 145.112 78.2708 145.3 78.102 145.431C77.9333 145.572 77.6801 145.637 77.3239 145.637C75.852 145.637 75.2239 146.697 75.2239 147.944V153.297C75.2239 153.812 74.8864 154.169 74.4083 154.169ZM85.0388 157.441C84.5606 157.441 84.2231 157.084 84.2231 156.569V144.906C84.2231 144.419 84.5419 144.081 85.0013 144.081C85.4513 144.081 85.77 144.419 85.77 144.906V145.9H85.8075C86.4075 144.803 87.5419 144.081 88.9575 144.081C91.4419 144.081 93.1294 146.069 93.1294 149.125C93.1294 152.181 91.4513 154.169 88.995 154.169C87.5981 154.169 86.4731 153.484 85.8919 152.416H85.8544V156.569C85.8544 157.084 85.5169 157.441 85.0388 157.441ZM88.6388 152.734C90.3731 152.734 91.4606 151.337 91.4606 149.125C91.4606 146.922 90.3731 145.516 88.6388 145.516C86.97 145.516 85.845 146.959 85.845 149.125C85.845 151.3 86.97 152.734 88.6388 152.734ZM96.0634 154.169C95.5853 154.169 95.2478 153.812 95.2478 153.297V141.156C95.2478 140.65 95.5759 140.303 96.0634 140.303C96.5603 140.303 96.879 140.65 96.879 141.156V145.806H96.9165C97.4603 144.719 98.529 144.081 100.01 144.081C102.148 144.081 103.442 145.525 103.442 147.7V153.297C103.442 153.812 103.104 154.169 102.626 154.169C102.148 154.169 101.81 153.812 101.81 153.297V148C101.81 146.453 101.032 145.525 99.504 145.525C97.8821 145.525 96.879 146.631 96.879 148.319V153.297C96.879 153.812 96.5415 154.169 96.0634 154.169ZM109.938 154.169C107.238 154.169 105.419 152.228 105.419 149.125C105.419 146.012 107.238 144.081 109.938 144.081C112.629 144.081 114.447 146.012 114.447 149.125C114.447 152.228 112.629 154.169 109.938 154.169ZM109.938 152.734C111.663 152.734 112.788 151.422 112.788 149.125C112.788 146.828 111.663 145.516 109.938 145.516C108.213 145.516 107.079 146.828 107.079 149.125C107.079 151.422 108.213 152.734 109.938 152.734ZM117.297 154.169C116.819 154.169 116.481 153.812 116.481 153.297V144.906C116.481 144.419 116.8 144.081 117.25 144.081C117.7 144.081 118.019 144.419 118.019 144.906V145.806H118.056C118.6 144.756 119.641 144.081 121.15 144.081C123.288 144.081 124.525 145.459 124.525 147.672V153.297C124.525 153.812 124.188 154.169 123.71 154.169C123.231 154.169 122.894 153.812 122.894 153.297V147.962C122.894 146.387 122.153 145.525 120.653 145.525C119.116 145.525 118.113 146.612 118.113 148.262V153.297C118.113 153.812 117.775 154.169 117.297 154.169ZM131.078 154.169C128.2 154.169 126.512 152.312 126.512 149.162C126.512 146.087 128.247 144.081 130.937 144.081C133.431 144.081 135.184 145.947 135.184 148.619C135.184 149.209 134.847 149.566 134.284 149.566H128.19C128.19 151.534 129.268 152.753 131.012 152.753C132.175 152.753 132.887 152.341 133.647 151.234C133.815 151 134.003 150.906 134.256 150.906C134.687 150.906 134.978 151.187 134.978 151.619C134.978 151.75 134.931 151.919 134.856 152.097C134.228 153.419 132.859 154.169 131.078 154.169ZM128.2 148.291H133.497C133.459 146.603 132.419 145.497 130.909 145.497C129.39 145.497 128.303 146.612 128.2 148.291ZM138.596 147.194C137.996 147.194 137.528 146.725 137.528 146.125C137.528 145.525 137.996 145.056 138.596 145.056C139.196 145.056 139.665 145.525 139.665 146.125C139.665 146.725 139.196 147.194 138.596 147.194ZM138.568 151.825C139.046 151.825 139.384 152.106 139.384 152.566C139.384 152.734 139.365 152.875 139.309 153.081L138.446 156.306C138.343 156.709 138.128 156.897 137.734 156.897C137.359 156.897 137.068 156.681 137.068 156.306C137.068 156.166 137.087 156.072 137.096 156.016L137.762 152.537C137.865 152.022 138.128 151.825 138.568 151.825ZM147.324 151.75V145.591H146.508C146.039 145.591 145.777 145.347 145.777 144.916C145.777 144.494 146.039 144.25 146.508 144.25H147.324V142.581C147.324 142.066 147.661 141.709 148.139 141.709C148.617 141.709 148.955 142.066 148.955 142.581V144.25H150.211C150.68 144.25 150.942 144.494 150.942 144.916C150.942 145.347 150.68 145.591 150.211 145.591H148.955V151.394C148.955 152.219 149.246 152.612 150.061 152.669L150.202 152.678C150.736 152.716 150.98 152.931 150.98 153.316C150.98 153.812 150.699 154.075 149.789 154.075H149.686C148.111 154.075 147.324 153.306 147.324 151.75ZM153.876 154.169C153.398 154.169 153.061 153.812 153.061 153.297V141.156C153.061 140.65 153.389 140.303 153.876 140.303C154.373 140.303 154.692 140.65 154.692 141.156V145.806H154.73C155.273 144.719 156.342 144.081 157.823 144.081C159.961 144.081 161.255 145.525 161.255 147.7V153.297C161.255 153.812 160.917 154.169 160.439 154.169C159.961 154.169 159.623 153.812 159.623 153.297V148C159.623 146.453 158.845 145.525 157.317 145.525C155.695 145.525 154.692 146.631 154.692 148.319V153.297C154.692 153.812 154.355 154.169 153.876 154.169ZM167.798 154.169C164.92 154.169 163.232 152.312 163.232 149.162C163.232 146.087 164.967 144.081 167.657 144.081C170.151 144.081 171.904 145.947 171.904 148.619C171.904 149.209 171.567 149.566 171.004 149.566H164.91C164.91 151.534 165.989 152.753 167.732 152.753C168.895 152.753 169.607 152.341 170.367 151.234C170.535 151 170.723 150.906 170.976 150.906C171.407 150.906 171.698 151.187 171.698 151.619C171.698 151.75 171.651 151.919 171.576 152.097C170.948 153.419 169.579 154.169 167.798 154.169ZM164.92 148.291H170.217C170.179 146.603 169.139 145.497 167.629 145.497C166.11 145.497 165.023 146.612 164.92 148.291ZM181.644 154.169C179.91 154.169 178.55 153.391 178.082 152.172C178.025 152.031 178.007 151.909 178.007 151.787C178.007 151.356 178.325 151.112 178.747 151.112C179.038 151.112 179.272 151.262 179.46 151.6C179.947 152.453 180.528 152.837 181.775 152.837C183.022 152.837 183.866 152.294 183.866 151.384C183.866 150.681 183.463 150.306 182.366 150.034L180.875 149.659C178.991 149.191 178.082 148.3 178.082 146.931C178.082 145.234 179.572 144.081 181.775 144.081C183.378 144.081 184.803 144.981 185.057 146.153C185.075 146.247 185.085 146.322 185.085 146.397C185.085 146.781 184.841 147.034 184.447 147.034C184.128 147.034 183.903 146.931 183.725 146.594C183.303 145.778 182.675 145.422 181.682 145.422C180.51 145.422 179.694 146.012 179.694 146.847C179.694 147.522 180.219 147.991 181.288 148.253L182.741 148.609C184.775 149.106 185.525 149.819 185.525 151.253C185.525 152.997 183.96 154.169 181.644 154.169ZM188.403 154.169C187.925 154.169 187.587 153.812 187.587 153.297V144.906C187.587 144.419 187.906 144.081 188.356 144.081C188.806 144.081 189.125 144.419 189.125 144.906V145.806H189.162C189.706 144.756 190.747 144.081 192.256 144.081C194.394 144.081 195.631 145.459 195.631 147.672V153.297C195.631 153.812 195.294 154.169 194.816 154.169C194.337 154.169 194 153.812 194 153.297V147.962C194 146.387 193.259 145.525 191.759 145.525C190.222 145.525 189.219 146.612 189.219 148.262V153.297C189.219 153.812 188.881 154.169 188.403 154.169ZM200.937 154.169C198.996 154.169 197.693 152.997 197.693 151.244C197.693 149.575 198.978 148.525 201.228 148.394L204.031 148.234V147.419C204.031 146.228 203.243 145.516 201.893 145.516C200.834 145.516 200.112 145.9 199.568 146.866C199.418 147.137 199.203 147.259 198.893 147.259C198.471 147.259 198.171 146.969 198.171 146.528C198.171 146.322 198.237 146.087 198.368 145.853C198.921 144.784 200.346 144.081 201.931 144.081C204.218 144.081 205.662 145.319 205.662 147.259V153.344C205.662 153.831 205.343 154.169 204.893 154.169C204.434 154.169 204.115 153.831 204.115 153.344V152.322H204.078C203.496 153.437 202.25 154.169 200.937 154.169ZM201.303 152.781C202.84 152.781 204.031 151.703 204.031 150.297V149.5L201.415 149.659C200.103 149.744 199.353 150.325 199.353 151.244C199.353 152.172 200.131 152.781 201.303 152.781ZM208.934 157.441C208.455 157.441 208.118 157.084 208.118 156.569V144.906C208.118 144.419 208.437 144.081 208.896 144.081C209.346 144.081 209.665 144.419 209.665 144.906V145.9H209.702C210.302 144.803 211.437 144.081 212.852 144.081C215.337 144.081 217.024 146.069 217.024 149.125C217.024 152.181 215.346 154.169 212.89 154.169C211.493 154.169 210.368 153.484 209.787 152.416H209.749V156.569C209.749 157.084 209.412 157.441 208.934 157.441ZM212.534 152.734C214.268 152.734 215.355 151.337 215.355 149.125C215.355 146.922 214.268 145.516 212.534 145.516C210.865 145.516 209.74 146.959 209.74 149.125C209.74 151.3 210.865 152.734 212.534 152.734ZM219.874 157.441C219.396 157.441 219.058 157.084 219.058 156.569V144.906C219.058 144.419 219.377 144.081 219.836 144.081C220.286 144.081 220.605 144.419 220.605 144.906V145.9H220.642C221.242 144.803 222.377 144.081 223.792 144.081C226.277 144.081 227.964 146.069 227.964 149.125C227.964 152.181 226.286 154.169 223.83 154.169C222.433 154.169 221.308 153.484 220.727 152.416H220.689V156.569C220.689 157.084 220.352 157.441 219.874 157.441ZM223.474 152.734C225.208 152.734 226.296 151.337 226.296 149.125C226.296 146.922 225.208 145.516 223.474 145.516C221.805 145.516 220.68 146.959 220.68 149.125C220.68 151.3 221.805 152.734 223.474 152.734ZM230.673 157.647C229.886 157.647 229.445 157.356 229.445 156.841C229.445 156.484 229.689 156.241 230.102 156.241C230.336 156.241 230.402 156.25 230.655 156.25C231.273 156.25 231.864 155.875 232.248 154.694L232.473 154.009L229.117 145.262C229.061 145.103 229.033 144.953 229.033 144.831C229.033 144.381 229.38 144.081 229.848 144.081C230.233 144.081 230.477 144.25 230.627 144.681L233.317 152.369H233.345L236.045 144.681C236.195 144.25 236.411 144.081 236.814 144.081C237.283 144.081 237.611 144.391 237.611 144.831C237.611 144.953 237.583 145.103 237.527 145.262L233.927 154.684C233.083 156.925 232.286 157.647 230.673 157.647ZM244.576 154.169C244.098 154.169 243.76 153.812 243.76 153.297V144.906C243.76 144.419 244.079 144.081 244.529 144.081C244.979 144.081 245.298 144.419 245.298 144.906V145.844H245.335C245.616 144.831 246.573 144.081 247.548 144.081C247.904 144.081 248.157 144.166 248.316 144.316C248.457 144.447 248.523 144.634 248.523 144.859C248.523 145.112 248.438 145.3 248.27 145.431C248.101 145.572 247.848 145.637 247.491 145.637C246.02 145.637 245.391 146.697 245.391 147.944V153.297C245.391 153.812 245.054 154.169 244.576 154.169ZM253.688 154.169C250.81 154.169 249.122 152.312 249.122 149.162C249.122 146.087 250.857 144.081 253.547 144.081C256.041 144.081 257.794 145.947 257.794 148.619C257.794 149.209 257.457 149.566 256.894 149.566H250.8C250.8 151.534 251.879 152.753 253.622 152.753C254.785 152.753 255.497 152.341 256.257 151.234C256.425 151 256.613 150.906 256.866 150.906C257.297 150.906 257.588 151.187 257.588 151.619C257.588 151.75 257.541 151.919 257.466 152.097C256.838 153.419 255.469 154.169 253.688 154.169ZM250.81 148.291H256.107C256.069 146.603 255.029 145.497 253.519 145.497C252 145.497 250.913 146.612 250.81 148.291ZM260.644 157.441C260.166 157.441 259.828 157.084 259.828 156.569V144.906C259.828 144.419 260.147 144.081 260.606 144.081C261.056 144.081 261.375 144.419 261.375 144.906V145.9H261.413C262.013 144.803 263.147 144.081 264.563 144.081C267.047 144.081 268.734 146.069 268.734 149.125C268.734 152.181 267.056 154.169 264.6 154.169C263.203 154.169 262.078 153.484 261.497 152.416H261.459V156.569C261.459 157.084 261.122 157.441 260.644 157.441ZM264.244 152.734C265.978 152.734 267.066 151.337 267.066 149.125C267.066 146.922 265.978 145.516 264.244 145.516C262.575 145.516 261.45 146.959 261.45 149.125C261.45 151.3 262.575 152.734 264.244 152.734ZM271.668 154.169C271.19 154.169 270.853 153.812 270.853 153.297V141.175C270.853 140.659 271.19 140.303 271.668 140.303C272.147 140.303 272.484 140.659 272.484 141.175V153.297C272.484 153.812 272.147 154.169 271.668 154.169ZM276.027 157.647C275.24 157.647 274.799 157.356 274.799 156.841C274.799 156.484 275.043 156.241 275.456 156.241C275.69 156.241 275.756 156.25 276.009 156.25C276.627 156.25 277.218 155.875 277.602 154.694L277.827 154.009L274.471 145.262C274.415 145.103 274.387 144.953 274.387 144.831C274.387 144.381 274.734 144.081 275.202 144.081C275.587 144.081 275.831 144.25 275.981 144.681L278.671 152.369H278.699L281.399 144.681C281.549 144.25 281.765 144.081 282.168 144.081C282.637 144.081 282.965 144.391 282.965 144.831C282.965 144.953 282.937 145.103 282.881 145.262L279.281 154.684C278.437 156.925 277.64 157.647 276.027 157.647ZM289.639 151.75V145.591H288.824C288.355 145.591 288.092 145.347 288.092 144.916C288.092 144.494 288.355 144.25 288.824 144.25H289.639V142.581C289.639 142.066 289.977 141.709 290.455 141.709C290.933 141.709 291.27 142.066 291.27 142.581V144.25H292.527C292.995 144.25 293.258 144.494 293.258 144.916C293.258 145.347 292.995 145.591 292.527 145.591H291.27V151.394C291.27 152.219 291.561 152.612 292.377 152.669L292.517 152.678C293.052 152.716 293.295 152.931 293.295 153.316C293.295 153.812 293.014 154.075 292.105 154.075H292.002C290.427 154.075 289.639 153.306 289.639 151.75ZM299.051 154.169C296.351 154.169 294.533 152.228 294.533 149.125C294.533 146.012 296.351 144.081 299.051 144.081C301.742 144.081 303.561 146.012 303.561 149.125C303.561 152.228 301.742 154.169 299.051 154.169ZM299.051 152.734C300.776 152.734 301.901 151.422 301.901 149.125C301.901 146.828 300.776 145.516 299.051 145.516C297.326 145.516 296.192 146.828 296.192 149.125C296.192 151.422 297.326 152.734 299.051 152.734ZM310.872 157.647C310.085 157.647 309.644 157.356 309.644 156.841C309.644 156.484 309.888 156.241 310.301 156.241C310.535 156.241 310.601 156.25 310.854 156.25C311.472 156.25 312.063 155.875 312.447 154.694L312.672 154.009L309.316 145.262C309.26 145.103 309.232 144.953 309.232 144.831C309.232 144.381 309.579 144.081 310.047 144.081C310.432 144.081 310.676 144.25 310.826 144.681L313.516 152.369H313.544L316.244 144.681C316.394 144.25 316.61 144.081 317.013 144.081C317.482 144.081 317.81 144.391 317.81 144.831C317.81 144.953 317.782 145.103 317.726 145.262L314.126 154.684C313.282 156.925 312.485 157.647 310.872 157.647ZM323.397 154.169C320.697 154.169 318.878 152.228 318.878 149.125C318.878 146.012 320.697 144.081 323.397 144.081C326.088 144.081 327.906 146.012 327.906 149.125C327.906 152.228 326.088 154.169 323.397 154.169ZM323.397 152.734C325.122 152.734 326.247 151.422 326.247 149.125C326.247 146.828 325.122 145.516 323.397 145.516C321.672 145.516 320.538 146.828 320.538 149.125C320.538 151.422 321.672 152.734 323.397 152.734ZM333.269 154.169C331.14 154.169 329.894 152.791 329.894 150.578V144.953C329.894 144.437 330.231 144.081 330.709 144.081C331.187 144.081 331.525 144.437 331.525 144.953V150.287C331.525 151.872 332.265 152.725 333.775 152.725C335.359 152.725 336.315 151.637 336.315 149.978V144.953C336.315 144.437 336.653 144.081 337.131 144.081C337.609 144.081 337.947 144.437 337.947 144.953V153.344C337.947 153.812 337.647 154.169 337.178 154.169C336.709 154.169 336.4 153.812 336.4 153.344V152.416H336.362C335.781 153.541 334.769 154.169 333.269 154.169ZM341.265 154.169C340.787 154.169 340.449 153.812 340.449 153.297V144.906C340.449 144.419 340.768 144.081 341.218 144.081C341.668 144.081 341.987 144.419 341.987 144.906V145.844H342.024C342.306 144.831 343.262 144.081 344.237 144.081C344.593 144.081 344.846 144.166 345.006 144.316C345.146 144.447 345.212 144.634 345.212 144.859C345.212 145.112 345.128 145.3 344.959 145.431C344.79 145.572 344.537 145.637 344.181 145.637C342.709 145.637 342.081 146.697 342.081 147.944V153.297C342.081 153.812 341.743 154.169 341.265 154.169ZM355.102 154.169C352.402 154.169 350.602 152.228 350.602 149.144C350.602 146.078 352.383 144.081 355.083 144.081C356.921 144.081 358.524 145.122 358.899 146.472C358.936 146.594 358.955 146.716 358.955 146.819C358.955 147.25 358.683 147.531 358.261 147.531C357.905 147.531 357.708 147.381 357.483 146.959C356.967 145.994 356.227 145.516 355.102 145.516C353.405 145.516 352.261 146.941 352.261 149.125C352.261 151.366 353.424 152.734 355.102 152.734C356.274 152.734 356.986 152.228 357.492 151.291C357.727 150.85 357.905 150.719 358.261 150.719C358.683 150.719 358.964 151.009 358.964 151.431C358.964 151.553 358.936 151.694 358.889 151.844C358.421 153.194 356.874 154.169 355.102 154.169ZM365.123 154.169C362.423 154.169 360.605 152.228 360.605 149.125C360.605 146.012 362.423 144.081 365.123 144.081C367.814 144.081 369.633 146.012 369.633 149.125C369.633 152.228 367.814 154.169 365.123 154.169ZM365.123 152.734C366.848 152.734 367.973 151.422 367.973 149.125C367.973 146.828 366.848 145.516 365.123 145.516C363.398 145.516 362.264 146.828 362.264 149.125C362.264 151.422 363.398 152.734 365.123 152.734ZM372.314 149.275C371.854 149.275 371.507 148.975 371.507 148.516C371.507 148.056 371.854 147.756 372.314 147.756H377.132C377.592 147.756 377.939 148.056 377.939 148.516C377.939 148.975 377.592 149.275 377.132 149.275H372.314ZM44.4 181.169C43.9031 181.169 43.5844 180.831 43.5844 180.306V172.591H42.7781C42.3563 172.591 42.0844 172.347 42.0844 171.925C42.0844 171.522 42.3563 171.25 42.7781 171.25H43.5844V170.162C43.5844 168.297 44.475 167.397 46.0688 167.397C46.9313 167.397 47.3906 167.678 47.3906 168.156C47.3906 168.456 47.25 168.644 46.95 168.728C46.8094 168.766 46.65 168.784 46.4438 168.784C45.5813 168.784 45.2063 169.216 45.2063 170.219V171.25H46.65C47.0719 171.25 47.3438 171.522 47.3438 171.925C47.3438 172.347 47.0719 172.591 46.65 172.591H45.2156V180.306C45.2156 180.831 44.8969 181.169 44.4 181.169ZM52.8465 181.169C50.1465 181.169 48.3278 179.228 48.3278 176.125C48.3278 173.012 50.1465 171.081 52.8465 171.081C55.5371 171.081 57.3559 173.012 57.3559 176.125C57.3559 179.228 55.5371 181.169 52.8465 181.169ZM52.8465 179.734C54.5715 179.734 55.6965 178.422 55.6965 176.125C55.6965 173.828 54.5715 172.516 52.8465 172.516C51.1215 172.516 49.9871 173.828 49.9871 176.125C49.9871 178.422 51.1215 179.734 52.8465 179.734ZM62.718 181.169C60.5899 181.169 59.343 179.791 59.343 177.578V171.953C59.343 171.437 59.6805 171.081 60.1586 171.081C60.6368 171.081 60.9743 171.437 60.9743 171.953V177.287C60.9743 178.872 61.7149 179.725 63.2243 179.725C64.8086 179.725 65.7649 178.637 65.7649 176.978V171.953C65.7649 171.437 66.1024 171.081 66.5805 171.081C67.0586 171.081 67.3961 171.437 67.3961 171.953V180.344C67.3961 180.812 67.0961 181.169 66.6274 181.169C66.1586 181.169 65.8493 180.812 65.8493 180.344V179.416H65.8118C65.2305 180.541 64.218 181.169 62.718 181.169ZM70.7145 181.169C70.2364 181.169 69.8989 180.812 69.8989 180.297V171.906C69.8989 171.419 70.2176 171.081 70.6676 171.081C71.1176 171.081 71.4364 171.419 71.4364 171.906V172.806H71.4739C72.0176 171.756 73.0583 171.081 74.5676 171.081C76.7051 171.081 77.9426 172.459 77.9426 174.672V180.297C77.9426 180.812 77.6051 181.169 77.127 181.169C76.6489 181.169 76.3114 180.812 76.3114 180.297V174.962C76.3114 173.387 75.5708 172.525 74.0708 172.525C72.5333 172.525 71.5301 173.612 71.5301 175.262V180.297C71.5301 180.812 71.1926 181.169 70.7145 181.169ZM84.1016 181.169C81.6172 181.169 79.9297 179.181 79.9297 176.125C79.9297 173.069 81.6079 171.081 84.0641 171.081C85.461 171.081 86.586 171.766 87.1672 172.834H87.2047V168.175C87.2047 167.659 87.5422 167.303 88.0204 167.303C88.4985 167.303 88.836 167.659 88.836 168.175V180.372C88.836 180.841 88.5079 181.169 88.0391 181.169C87.5797 181.169 87.2047 180.85 87.2047 180.372V179.256H87.1766C86.6422 180.419 85.6297 181.169 84.1016 181.169ZM84.411 179.734C86.0891 179.734 87.2141 178.309 87.2141 176.125C87.2141 173.95 86.0891 172.516 84.411 172.516C82.686 172.516 81.5985 173.922 81.5985 176.125C81.5985 178.337 82.686 179.734 84.411 179.734ZM95.5106 181.169C92.6325 181.169 90.945 179.312 90.945 176.162C90.945 173.087 92.6794 171.081 95.37 171.081C97.8638 171.081 99.6169 172.947 99.6169 175.619C99.6169 176.209 99.2794 176.566 98.7169 176.566H92.6231C92.6231 178.534 93.7013 179.753 95.445 179.753C96.6075 179.753 97.32 179.341 98.0794 178.234C98.2481 178 98.4356 177.906 98.6888 177.906C99.12 177.906 99.4106 178.187 99.4106 178.619C99.4106 178.75 99.3638 178.919 99.2888 179.097C98.6606 180.419 97.2919 181.169 95.5106 181.169ZM92.6325 175.291H97.9294C97.8919 173.603 96.8513 172.497 95.3419 172.497C93.8231 172.497 92.7356 173.612 92.6325 175.291ZM102.467 181.169C101.988 181.169 101.651 180.812 101.651 180.297V171.906C101.651 171.419 101.97 171.081 102.42 171.081C102.87 171.081 103.188 171.419 103.188 171.906V172.844H103.226C103.507 171.831 104.463 171.081 105.438 171.081C105.795 171.081 106.048 171.166 106.207 171.316C106.348 171.447 106.413 171.634 106.413 171.859C106.413 172.112 106.329 172.3 106.16 172.431C105.992 172.572 105.738 172.637 105.382 172.637C103.91 172.637 103.282 173.697 103.282 174.944V180.297C103.282 180.812 102.945 181.169 102.467 181.169ZM115.122 181.169C113.181 181.169 111.878 179.997 111.878 178.244C111.878 176.575 113.163 175.525 115.413 175.394L118.216 175.234V174.419C118.216 173.228 117.428 172.516 116.078 172.516C115.019 172.516 114.297 172.9 113.753 173.866C113.603 174.137 113.388 174.259 113.078 174.259C112.656 174.259 112.356 173.969 112.356 173.528C112.356 173.322 112.422 173.087 112.553 172.853C113.106 171.784 114.531 171.081 116.116 171.081C118.403 171.081 119.847 172.319 119.847 174.259V180.344C119.847 180.831 119.528 181.169 119.078 181.169C118.619 181.169 118.3 180.831 118.3 180.344V179.322H118.263C117.681 180.437 116.435 181.169 115.122 181.169ZM115.488 179.781C117.025 179.781 118.216 178.703 118.216 177.297V176.5L115.6 176.659C114.288 176.744 113.538 177.325 113.538 178.244C113.538 179.172 114.316 179.781 115.488 179.781ZM123.643 181.169C123.147 181.169 122.828 180.831 122.828 180.306V172.591H122.022C121.6 172.591 121.328 172.347 121.328 171.925C121.328 171.522 121.6 171.25 122.022 171.25H122.828V170.162C122.828 168.297 123.718 167.397 125.312 167.397C126.175 167.397 126.634 167.678 126.634 168.156C126.634 168.456 126.493 168.644 126.193 168.728C126.053 168.766 125.893 168.784 125.687 168.784C124.825 168.784 124.45 169.216 124.45 170.219V171.25H125.893C126.315 171.25 126.587 171.522 126.587 171.925C126.587 172.347 126.315 172.591 125.893 172.591H124.459V180.306C124.459 180.831 124.14 181.169 123.643 181.169ZM129.043 178.75V172.591H128.228C127.759 172.591 127.496 172.347 127.496 171.916C127.496 171.494 127.759 171.25 128.228 171.25H129.043V169.581C129.043 169.066 129.381 168.709 129.859 168.709C130.337 168.709 130.674 169.066 130.674 169.581V171.25H131.931C132.399 171.25 132.662 171.494 132.662 171.916C132.662 172.347 132.399 172.591 131.931 172.591H130.674V178.394C130.674 179.219 130.965 179.612 131.781 179.669L131.921 179.678C132.456 179.716 132.699 179.931 132.699 180.316C132.699 180.812 132.418 181.075 131.509 181.075H131.406C129.831 181.075 129.043 180.306 129.043 178.75ZM138.502 181.169C135.624 181.169 133.937 179.312 133.937 176.162C133.937 173.087 135.671 171.081 138.362 171.081C140.855 171.081 142.608 172.947 142.608 175.619C142.608 176.209 142.271 176.566 141.708 176.566H135.615C135.615 178.534 136.693 179.753 138.437 179.753C139.599 179.753 140.312 179.341 141.071 178.234C141.24 178 141.427 177.906 141.68 177.906C142.112 177.906 142.402 178.187 142.402 178.619C142.402 178.75 142.355 178.919 142.28 179.097C141.652 180.419 140.283 181.169 138.502 181.169ZM135.624 175.291H140.921C140.883 173.603 139.843 172.497 138.333 172.497C136.815 172.497 135.727 173.612 135.624 175.291ZM145.458 181.169C144.98 181.169 144.642 180.812 144.642 180.297V171.906C144.642 171.419 144.961 171.081 145.411 171.081C145.861 171.081 146.18 171.419 146.18 171.906V172.844H146.217C146.499 171.831 147.455 171.081 148.43 171.081C148.786 171.081 149.039 171.166 149.199 171.316C149.339 171.447 149.405 171.634 149.405 171.859C149.405 172.112 149.321 172.3 149.152 172.431C148.983 172.572 148.73 172.637 148.374 172.637C146.902 172.637 146.274 173.697 146.274 174.944V180.297C146.274 180.812 145.936 181.169 145.458 181.169ZM155.798 178.75V172.591H154.982C154.514 172.591 154.251 172.347 154.251 171.916C154.251 171.494 154.514 171.25 154.982 171.25H155.798V169.581C155.798 169.066 156.135 168.709 156.614 168.709C157.092 168.709 157.429 169.066 157.429 169.581V171.25H158.685C159.154 171.25 159.417 171.494 159.417 171.916C159.417 172.347 159.154 172.591 158.685 172.591H157.429V178.394C157.429 179.219 157.72 179.612 158.535 179.669L158.676 179.678C159.21 179.716 159.454 179.931 159.454 180.316C159.454 180.812 159.173 181.075 158.264 181.075H158.16C156.585 181.075 155.798 180.306 155.798 178.75ZM162.351 181.169C161.873 181.169 161.535 180.812 161.535 180.297V168.156C161.535 167.65 161.863 167.303 162.351 167.303C162.848 167.303 163.166 167.65 163.166 168.156V172.806H163.204C163.748 171.719 164.816 171.081 166.298 171.081C168.435 171.081 169.729 172.525 169.729 174.7V180.297C169.729 180.812 169.391 181.169 168.913 181.169C168.435 181.169 168.098 180.812 168.098 180.297V175C168.098 173.453 167.319 172.525 165.791 172.525C164.169 172.525 163.166 173.631 163.166 175.319V180.297C163.166 180.812 162.829 181.169 162.351 181.169ZM173 181.169C172.522 181.169 172.185 180.812 172.185 180.297V171.906C172.185 171.419 172.503 171.081 172.953 171.081C173.403 171.081 173.722 171.419 173.722 171.906V172.844H173.76C174.041 171.831 174.997 171.081 175.972 171.081C176.328 171.081 176.582 171.166 176.741 171.316C176.882 171.447 176.947 171.634 176.947 171.859C176.947 172.112 176.863 172.3 176.694 172.431C176.525 172.572 176.272 172.637 175.916 172.637C174.444 172.637 173.816 173.697 173.816 174.944V180.297C173.816 180.812 173.478 181.169 173 181.169ZM182.112 181.169C179.234 181.169 177.547 179.312 177.547 176.162C177.547 173.087 179.281 171.081 181.972 171.081C184.466 171.081 186.219 172.947 186.219 175.619C186.219 176.209 185.881 176.566 185.319 176.566H179.225C179.225 178.534 180.303 179.753 182.047 179.753C183.209 179.753 183.922 179.341 184.681 178.234C184.85 178 185.037 177.906 185.291 177.906C185.722 177.906 186.012 178.187 186.012 178.619C186.012 178.75 185.966 178.919 185.891 179.097C185.262 180.419 183.894 181.169 182.112 181.169ZM179.234 175.291H184.531C184.494 173.603 183.453 172.497 181.944 172.497C180.425 172.497 179.337 173.612 179.234 175.291ZM192.34 181.169C189.462 181.169 187.775 179.312 187.775 176.162C187.775 173.087 189.509 171.081 192.2 171.081C194.693 171.081 196.446 172.947 196.446 175.619C196.446 176.209 196.109 176.566 195.546 176.566H189.453C189.453 178.534 190.531 179.753 192.275 179.753C193.437 179.753 194.15 179.341 194.909 178.234C195.078 178 195.265 177.906 195.518 177.906C195.95 177.906 196.24 178.187 196.24 178.619C196.24 178.75 196.193 178.919 196.118 179.097C195.49 180.419 194.121 181.169 192.34 181.169ZM189.462 175.291H194.759C194.721 173.603 193.681 172.497 192.171 172.497C190.653 172.497 189.565 173.612 189.462 175.291ZM203.646 181.169C203.186 181.169 202.886 180.85 202.886 180.372V168.175C202.886 167.659 203.224 167.303 203.702 167.303C204.18 167.303 204.518 167.659 204.518 168.175V172.881H204.555C205.174 171.766 206.308 171.081 207.686 171.081C210.143 171.081 211.802 173.069 211.802 176.125C211.802 179.191 210.152 181.169 207.658 181.169C206.233 181.169 205.118 180.475 204.48 179.35H204.443V180.372C204.443 180.841 204.114 181.169 203.646 181.169ZM207.339 179.734C209.064 179.734 210.133 178.356 210.133 176.125C210.133 173.912 209.064 172.516 207.339 172.516C205.689 172.516 204.508 173.959 204.508 176.125C204.508 178.3 205.689 179.734 207.339 179.734ZM216.677 181.169C214.736 181.169 213.433 179.997 213.433 178.244C213.433 176.575 214.717 175.525 216.967 175.394L219.77 175.234V174.419C219.77 173.228 218.983 172.516 217.633 172.516C216.573 172.516 215.852 172.9 215.308 173.866C215.158 174.137 214.942 174.259 214.633 174.259C214.211 174.259 213.911 173.969 213.911 173.528C213.911 173.322 213.977 173.087 214.108 172.853C214.661 171.784 216.086 171.081 217.67 171.081C219.958 171.081 221.402 172.319 221.402 174.259V180.344C221.402 180.831 221.083 181.169 220.633 181.169C220.173 181.169 219.855 180.831 219.855 180.344V179.322H219.817C219.236 180.437 217.989 181.169 216.677 181.169ZM217.042 179.781C218.58 179.781 219.77 178.703 219.77 177.297V176.5L217.155 176.659C215.842 176.744 215.092 177.325 215.092 178.244C215.092 179.172 215.87 179.781 217.042 179.781ZM227.879 181.169C225.179 181.169 223.379 179.228 223.379 176.144C223.379 173.078 225.161 171.081 227.861 171.081C229.698 171.081 231.301 172.122 231.676 173.472C231.714 173.594 231.732 173.716 231.732 173.819C231.732 174.25 231.461 174.531 231.039 174.531C230.682 174.531 230.486 174.381 230.261 173.959C229.745 172.994 229.004 172.516 227.879 172.516C226.182 172.516 225.039 173.941 225.039 176.125C225.039 178.366 226.201 179.734 227.879 179.734C229.051 179.734 229.764 179.228 230.27 178.291C230.504 177.85 230.682 177.719 231.039 177.719C231.461 177.719 231.742 178.009 231.742 178.431C231.742 178.553 231.714 178.694 231.667 178.844C231.198 180.194 229.651 181.169 227.879 181.169ZM234.76 181.169C234.282 181.169 233.945 180.812 233.945 180.297V168.175C233.945 167.659 234.282 167.303 234.76 167.303C235.238 167.303 235.576 167.659 235.576 168.175V175.581L239.935 171.353C240.132 171.156 240.291 171.081 240.526 171.081C240.91 171.081 241.22 171.391 241.22 171.756C241.22 171.981 241.154 172.122 240.957 172.309L237.638 175.459L241.304 179.922C241.463 180.119 241.51 180.269 241.51 180.475C241.51 180.869 241.182 181.169 240.76 181.169C240.507 181.169 240.338 181.094 240.151 180.869L236.485 176.462L235.576 177.325V180.297C235.576 180.812 235.238 181.169 234.76 181.169ZM243.741 176.275C243.282 176.275 242.935 175.975 242.935 175.516C242.935 175.056 243.282 174.756 243.741 174.756H248.56C249.019 174.756 249.366 175.056 249.366 175.516C249.366 175.975 249.019 176.275 248.56 176.275H243.741ZM252.234 178.75V172.591H251.419C250.95 172.591 250.688 172.347 250.688 171.916C250.688 171.494 250.95 171.25 251.419 171.25H252.234V169.581C252.234 169.066 252.572 168.709 253.05 168.709C253.528 168.709 253.866 169.066 253.866 169.581V171.25H255.122C255.591 171.25 255.853 171.494 255.853 171.916C255.853 172.347 255.591 172.591 255.122 172.591H253.866V178.394C253.866 179.219 254.156 179.612 254.972 179.669L255.113 179.678C255.647 179.716 255.891 179.931 255.891 180.316C255.891 180.812 255.609 181.075 254.7 181.075H254.597C253.022 181.075 252.234 180.306 252.234 178.75ZM261.647 181.169C258.947 181.169 257.128 179.228 257.128 176.125C257.128 173.012 258.947 171.081 261.647 171.081C264.337 171.081 266.156 173.012 266.156 176.125C266.156 179.228 264.337 181.169 261.647 181.169ZM261.647 179.734C263.372 179.734 264.497 178.422 264.497 176.125C264.497 173.828 263.372 172.516 261.647 172.516C259.922 172.516 258.787 173.828 258.787 176.125C258.787 178.422 259.922 179.734 261.647 179.734ZM268.837 176.275C268.377 176.275 268.031 175.975 268.031 175.516C268.031 175.056 268.377 174.756 268.837 174.756H273.656C274.115 174.756 274.462 175.056 274.462 175.516C274.462 175.975 274.115 176.275 273.656 176.275H268.837ZM277.649 181.169C277.19 181.169 276.89 180.85 276.89 180.372V168.175C276.89 167.659 277.227 167.303 277.705 167.303C278.183 167.303 278.521 167.659 278.521 168.175V172.881H278.558C279.177 171.766 280.311 171.081 281.69 171.081C284.146 171.081 285.805 173.069 285.805 176.125C285.805 179.191 284.155 181.169 281.661 181.169C280.236 181.169 279.121 180.475 278.483 179.35H278.446V180.372C278.446 180.841 278.118 181.169 277.649 181.169ZM281.343 179.734C283.068 179.734 284.136 178.356 284.136 176.125C284.136 173.912 283.068 172.516 281.343 172.516C279.693 172.516 278.511 173.959 278.511 176.125C278.511 178.3 279.693 179.734 281.343 179.734ZM290.68 181.169C288.739 181.169 287.436 179.997 287.436 178.244C287.436 176.575 288.72 175.525 290.97 175.394L293.774 175.234V174.419C293.774 173.228 292.986 172.516 291.636 172.516C290.577 172.516 289.855 172.9 289.311 173.866C289.161 174.137 288.945 174.259 288.636 174.259C288.214 174.259 287.914 173.969 287.914 173.528C287.914 173.322 287.98 173.087 288.111 172.853C288.664 171.784 290.089 171.081 291.674 171.081C293.961 171.081 295.405 172.319 295.405 174.259V180.344C295.405 180.831 295.086 181.169 294.636 181.169C294.177 181.169 293.858 180.831 293.858 180.344V179.322H293.82C293.239 180.437 291.992 181.169 290.68 181.169ZM291.045 179.781C292.583 179.781 293.774 178.703 293.774 177.297V176.5L291.158 176.659C289.845 176.744 289.095 177.325 289.095 178.244C289.095 179.172 289.874 179.781 291.045 179.781ZM301.883 181.169C299.183 181.169 297.383 179.228 297.383 176.144C297.383 173.078 299.164 171.081 301.864 171.081C303.701 171.081 305.304 172.122 305.679 173.472C305.717 173.594 305.736 173.716 305.736 173.819C305.736 174.25 305.464 174.531 305.042 174.531C304.686 174.531 304.489 174.381 304.264 173.959C303.748 172.994 303.008 172.516 301.883 172.516C300.186 172.516 299.042 173.941 299.042 176.125C299.042 178.366 300.204 179.734 301.883 179.734C303.054 179.734 303.767 179.228 304.273 178.291C304.508 177.85 304.686 177.719 305.042 177.719C305.464 177.719 305.745 178.009 305.745 178.431C305.745 178.553 305.717 178.694 305.67 178.844C305.201 180.194 303.654 181.169 301.883 181.169ZM308.763 181.169C308.285 181.169 307.948 180.812 307.948 180.297V168.175C307.948 167.659 308.285 167.303 308.763 167.303C309.242 167.303 309.579 167.659 309.579 168.175V175.581L313.938 171.353C314.135 171.156 314.295 171.081 314.529 171.081C314.913 171.081 315.223 171.391 315.223 171.756C315.223 171.981 315.157 172.122 314.96 172.309L311.642 175.459L315.307 179.922C315.467 180.119 315.513 180.269 315.513 180.475C315.513 180.869 315.185 181.169 314.763 181.169C314.51 181.169 314.342 181.094 314.154 180.869L310.488 176.462L309.579 177.325V180.297C309.579 180.812 309.242 181.169 308.763 181.169ZM325.909 181.169C323.209 181.169 321.409 179.228 321.409 176.144C321.409 173.078 323.191 171.081 325.891 171.081C327.728 171.081 329.331 172.122 329.706 173.472C329.744 173.594 329.763 173.716 329.763 173.819C329.763 174.25 329.491 174.531 329.069 174.531C328.713 174.531 328.516 174.381 328.291 173.959C327.775 172.994 327.034 172.516 325.909 172.516C324.213 172.516 323.069 173.941 323.069 176.125C323.069 178.366 324.231 179.734 325.909 179.734C327.081 179.734 327.794 179.228 328.3 178.291C328.534 177.85 328.713 177.719 329.069 177.719C329.491 177.719 329.772 178.009 329.772 178.431C329.772 178.553 329.744 178.694 329.697 178.844C329.228 180.194 327.681 181.169 325.909 181.169ZM334.731 181.169C332.79 181.169 331.487 179.997 331.487 178.244C331.487 176.575 332.772 175.525 335.022 175.394L337.825 175.234V174.419C337.825 173.228 337.037 172.516 335.687 172.516C334.628 172.516 333.906 172.9 333.362 173.866C333.212 174.137 332.997 174.259 332.687 174.259C332.265 174.259 331.965 173.969 331.965 173.528C331.965 173.322 332.031 173.087 332.162 172.853C332.715 171.784 334.14 171.081 335.725 171.081C338.012 171.081 339.456 172.319 339.456 174.259V180.344C339.456 180.831 339.137 181.169 338.687 181.169C338.228 181.169 337.909 180.831 337.909 180.344V179.322H337.872C337.29 180.437 336.044 181.169 334.731 181.169ZM335.097 179.781C336.634 179.781 337.825 178.703 337.825 177.297V176.5L335.209 176.659C333.897 176.744 333.147 177.325 333.147 178.244C333.147 179.172 333.925 179.781 335.097 179.781ZM342.812 181.169C342.334 181.169 341.996 180.812 341.996 180.297V168.175C341.996 167.659 342.334 167.303 342.812 167.303C343.29 167.303 343.628 167.659 343.628 168.175V180.297C343.628 180.812 343.29 181.169 342.812 181.169ZM347.115 181.169C346.637 181.169 346.299 180.812 346.299 180.297V168.175C346.299 167.659 346.637 167.303 347.115 167.303C347.593 167.303 347.93 167.659 347.93 168.175V180.297C347.93 180.812 347.593 181.169 347.115 181.169ZM353.902 181.169C352.167 181.169 350.808 180.391 350.339 179.172C350.283 179.031 350.264 178.909 350.264 178.787C350.264 178.356 350.583 178.112 351.005 178.112C351.296 178.112 351.53 178.262 351.717 178.6C352.205 179.453 352.786 179.837 354.033 179.837C355.28 179.837 356.124 179.294 356.124 178.384C356.124 177.681 355.721 177.306 354.624 177.034L353.133 176.659C351.249 176.191 350.339 175.3 350.339 173.931C350.339 172.234 351.83 171.081 354.033 171.081C355.636 171.081 357.061 171.981 357.314 173.153C357.333 173.247 357.342 173.322 357.342 173.397C357.342 173.781 357.099 174.034 356.705 174.034C356.386 174.034 356.161 173.931 355.983 173.594C355.561 172.778 354.933 172.422 353.939 172.422C352.767 172.422 351.952 173.012 351.952 173.847C351.952 174.522 352.477 174.991 353.546 175.253L354.999 175.609C357.033 176.106 357.783 176.819 357.783 178.253C357.783 179.997 356.217 181.169 353.902 181.169ZM365.067 169.609C364.514 169.609 364.054 169.15 364.054 168.597C364.054 168.034 364.514 167.584 365.067 167.584C365.629 167.584 366.089 168.034 366.089 168.597C366.089 169.15 365.629 169.609 365.067 169.609ZM365.067 181.169C364.589 181.169 364.251 180.812 364.251 180.297V171.953C364.251 171.437 364.589 171.081 365.067 171.081C365.545 171.081 365.882 171.437 365.882 171.953V180.297C365.882 180.812 365.545 181.169 365.067 181.169ZM371.854 181.169C370.119 181.169 368.76 180.391 368.291 179.172C368.235 179.031 368.216 178.909 368.216 178.787C368.216 178.356 368.535 178.112 368.957 178.112C369.248 178.112 369.482 178.262 369.669 178.6C370.157 179.453 370.738 179.837 371.985 179.837C373.232 179.837 374.076 179.294 374.076 178.384C374.076 177.681 373.673 177.306 372.576 177.034L371.085 176.659C369.201 176.191 368.291 175.3 368.291 173.931C368.291 172.234 369.782 171.081 371.985 171.081C373.588 171.081 375.013 171.981 375.266 173.153C375.285 173.247 375.294 173.322 375.294 173.397C375.294 173.781 375.051 174.034 374.657 174.034C374.338 174.034 374.113 173.931 373.935 173.594C373.513 172.778 372.885 172.422 371.891 172.422C370.719 172.422 369.904 173.012 369.904 173.847C369.904 174.522 370.429 174.991 371.498 175.253L372.951 175.609C374.985 176.106 375.735 176.819 375.735 178.253C375.735 179.997 374.169 181.169 371.854 181.169ZM43.875 208.169C43.3969 208.169 43.0594 207.812 43.0594 207.297V198.906C43.0594 198.419 43.3781 198.081 43.8281 198.081C44.2781 198.081 44.5969 198.419 44.5969 198.906V199.806H44.6344C45.1781 198.756 46.2188 198.081 47.7281 198.081C49.8656 198.081 51.1031 199.459 51.1031 201.672V207.297C51.1031 207.812 50.7656 208.169 50.2875 208.169C49.8094 208.169 49.4719 207.812 49.4719 207.297V201.962C49.4719 200.387 48.7313 199.525 47.2313 199.525C45.6938 199.525 44.6906 200.612 44.6906 202.262V207.297C44.6906 207.812 44.3531 208.169 43.875 208.169ZM57.609 208.169C54.909 208.169 53.0902 206.228 53.0902 203.125C53.0902 200.012 54.909 198.081 57.609 198.081C60.2996 198.081 62.1184 200.012 62.1184 203.125C62.1184 206.228 60.2996 208.169 57.609 208.169ZM57.609 206.734C59.334 206.734 60.459 205.422 60.459 203.125C60.459 200.828 59.334 199.516 57.609 199.516C55.884 199.516 54.7496 200.828 54.7496 203.125C54.7496 205.422 55.884 206.734 57.609 206.734ZM66.8993 208.169C66.3836 208.169 66.0743 207.925 65.9149 207.381L63.5336 199.206C63.4868 199.047 63.468 198.906 63.468 198.784C63.468 198.353 63.7774 198.081 64.2649 198.081C64.668 198.081 64.8836 198.269 65.0055 198.747L66.9274 206.181H66.9649L69.0086 198.812C69.1399 198.334 69.468 198.081 69.9649 198.081C70.4524 198.081 70.7618 198.325 70.893 198.803L72.9555 206.181H72.993L74.9149 198.747C75.0368 198.269 75.2524 198.081 75.6555 198.081C76.143 198.081 76.4524 198.353 76.4524 198.784C76.4524 198.906 76.4336 199.047 76.3868 199.206L74.0055 207.381C73.8555 207.906 73.518 208.169 73.0118 208.169C72.468 208.169 72.1586 207.934 71.9993 207.381L69.9743 200.453H69.9368L67.9211 207.381C67.7711 207.897 67.4149 208.169 66.8993 208.169ZM86.5391 211.675C84.9079 211.656 83.5485 211.009 82.8641 209.931C82.7329 209.725 82.6766 209.538 82.6766 209.322C82.6766 208.909 82.9766 208.619 83.4079 208.619C83.6798 208.619 83.8391 208.713 84.0923 208.994C84.9266 209.913 85.611 210.269 86.6048 210.288C88.3485 210.316 89.4079 209.313 89.4079 207.859V206.322H89.3704C88.7704 207.381 87.6079 208.075 86.2391 208.075C83.7548 208.075 82.1235 206.116 82.1235 203.087C82.1235 200.031 83.7548 198.081 86.2766 198.081C87.6548 198.081 88.7329 198.756 89.3798 199.853H89.4079V198.925C89.4079 198.419 89.7548 198.081 90.2235 198.081C90.6923 198.081 91.0391 198.419 91.0391 198.925V207.803C91.0391 210.128 89.3141 211.703 86.5391 211.675ZM86.5673 206.641C88.2641 206.641 89.4079 205.234 89.4079 203.087C89.4079 200.941 88.2641 199.516 86.5673 199.516C84.8891 199.516 83.7923 200.903 83.7923 203.087C83.7923 205.272 84.8891 206.641 86.5673 206.641ZM97.5825 208.169C94.8825 208.169 93.0638 206.228 93.0638 203.125C93.0638 200.012 94.8825 198.081 97.5825 198.081C100.273 198.081 102.092 200.012 102.092 203.125C102.092 206.228 100.273 208.169 97.5825 208.169ZM97.5825 206.734C99.3075 206.734 100.433 205.422 100.433 203.125C100.433 200.828 99.3075 199.516 97.5825 199.516C95.8575 199.516 94.7231 200.828 94.7231 203.125C94.7231 205.422 95.8575 206.734 97.5825 206.734ZM104.942 208.169C104.463 208.169 104.126 207.812 104.126 207.297V198.906C104.126 198.419 104.445 198.081 104.895 198.081C105.345 198.081 105.663 198.419 105.663 198.906V199.806H105.701C106.245 198.756 107.285 198.081 108.795 198.081C110.932 198.081 112.17 199.459 112.17 201.672V207.297C112.17 207.812 111.832 208.169 111.354 208.169C110.876 208.169 110.538 207.812 110.538 207.297V201.962C110.538 200.387 109.798 199.525 108.298 199.525C106.76 199.525 105.757 200.612 105.757 202.262V207.297C105.757 207.812 105.42 208.169 104.942 208.169ZM118.722 208.169C115.844 208.169 114.157 206.312 114.157 203.162C114.157 200.087 115.891 198.081 118.582 198.081C121.076 198.081 122.829 199.947 122.829 202.619C122.829 203.209 122.491 203.566 121.929 203.566H115.835C115.835 205.534 116.913 206.753 118.657 206.753C119.819 206.753 120.532 206.341 121.291 205.234C121.46 205 121.647 204.906 121.901 204.906C122.332 204.906 122.622 205.187 122.622 205.619C122.622 205.75 122.576 205.919 122.501 206.097C121.872 207.419 120.504 208.169 118.722 208.169ZM115.844 202.291H121.141C121.104 200.603 120.063 199.497 118.554 199.497C117.035 199.497 115.947 200.612 115.844 202.291ZM130.525 208.169C130.028 208.169 129.709 207.831 129.709 207.306V199.591H128.903C128.481 199.591 128.209 199.347 128.209 198.925C128.209 198.522 128.481 198.25 128.903 198.25H129.709V197.162C129.709 195.297 130.6 194.397 132.194 194.397C133.056 194.397 133.515 194.678 133.515 195.156C133.515 195.456 133.375 195.644 133.075 195.728C132.934 195.766 132.775 195.784 132.569 195.784C131.706 195.784 131.331 196.216 131.331 197.219V198.25H132.775C133.197 198.25 133.469 198.522 133.469 198.925C133.469 199.347 133.197 199.591 132.775 199.591H131.34V207.306C131.34 207.831 131.022 208.169 130.525 208.169ZM138.971 208.169C136.271 208.169 134.453 206.228 134.453 203.125C134.453 200.012 136.271 198.081 138.971 198.081C141.662 198.081 143.481 200.012 143.481 203.125C143.481 206.228 141.662 208.169 138.971 208.169ZM138.971 206.734C140.696 206.734 141.821 205.422 141.821 203.125C141.821 200.828 140.696 199.516 138.971 199.516C137.246 199.516 136.112 200.828 136.112 203.125C136.112 205.422 137.246 206.734 138.971 206.734ZM146.33 208.169C145.852 208.169 145.515 207.812 145.515 207.297V198.906C145.515 198.419 145.833 198.081 146.283 198.081C146.733 198.081 147.052 198.419 147.052 198.906V199.844H147.09C147.371 198.831 148.327 198.081 149.302 198.081C149.658 198.081 149.912 198.166 150.071 198.316C150.212 198.447 150.277 198.634 150.277 198.859C150.277 199.112 150.193 199.3 150.024 199.431C149.855 199.572 149.602 199.637 149.246 199.637C147.774 199.637 147.146 200.697 147.146 201.944V207.297C147.146 207.812 146.808 208.169 146.33 208.169ZM160.083 211.675C158.451 211.656 157.092 211.009 156.408 209.931C156.276 209.725 156.22 209.538 156.22 209.322C156.22 208.909 156.52 208.619 156.951 208.619C157.223 208.619 157.383 208.713 157.636 208.994C158.47 209.913 159.155 210.269 160.148 210.288C161.892 210.316 162.951 209.313 162.951 207.859V206.322H162.914C162.314 207.381 161.151 208.075 159.783 208.075C157.298 208.075 155.667 206.116 155.667 203.087C155.667 200.031 157.298 198.081 159.82 198.081C161.198 198.081 162.276 198.756 162.923 199.853H162.951V198.925C162.951 198.419 163.298 198.081 163.767 198.081C164.236 198.081 164.583 198.419 164.583 198.925V207.803C164.583 210.128 162.858 211.703 160.083 211.675ZM160.111 206.641C161.808 206.641 162.951 205.234 162.951 203.087C162.951 200.941 161.808 199.516 160.111 199.516C158.433 199.516 157.336 200.903 157.336 203.087C157.336 205.272 158.433 206.641 160.111 206.641ZM171.126 208.169C168.426 208.169 166.607 206.228 166.607 203.125C166.607 200.012 168.426 198.081 171.126 198.081C173.817 198.081 175.635 200.012 175.635 203.125C175.635 206.228 173.817 208.169 171.126 208.169ZM171.126 206.734C172.851 206.734 173.976 205.422 173.976 203.125C173.976 200.828 172.851 199.516 171.126 199.516C169.401 199.516 168.267 200.828 168.267 203.125C168.267 205.422 169.401 206.734 171.126 206.734ZM181.71 208.169C179.01 208.169 177.191 206.228 177.191 203.125C177.191 200.012 179.01 198.081 181.71 198.081C184.401 198.081 186.219 200.012 186.219 203.125C186.219 206.228 184.401 208.169 181.71 208.169ZM181.71 206.734C183.435 206.734 184.56 205.422 184.56 203.125C184.56 200.828 183.435 199.516 181.71 199.516C179.985 199.516 178.851 200.828 178.851 203.125C178.851 205.422 179.985 206.734 181.71 206.734ZM191.947 208.169C189.463 208.169 187.775 206.181 187.775 203.125C187.775 200.069 189.453 198.081 191.91 198.081C193.307 198.081 194.432 198.766 195.013 199.834H195.05V195.175C195.05 194.659 195.388 194.303 195.866 194.303C196.344 194.303 196.682 194.659 196.682 195.175V207.372C196.682 207.841 196.353 208.169 195.885 208.169C195.425 208.169 195.05 207.85 195.05 207.372V206.256H195.022C194.488 207.419 193.475 208.169 191.947 208.169ZM192.257 206.734C193.935 206.734 195.06 205.309 195.06 203.125C195.06 200.95 193.935 199.516 192.257 199.516C190.532 199.516 189.444 200.922 189.444 203.125C189.444 205.337 190.532 206.734 192.257 206.734ZM200.647 208.094C200.047 208.094 199.578 207.625 199.578 207.025C199.578 206.425 200.047 205.956 200.647 205.956C201.247 205.956 201.716 206.425 201.716 207.025C201.716 207.625 201.247 208.094 200.647 208.094Z" fill="#3F345D"/>
</svg>
