<svg width="423" height="474" viewBox="0 0 423 474" fill="none" xmlns="http://www.w3.org/2000/svg">
<rect width="423" height="474" rx="24" fill="#3E5035"/>
<path d="M42.96 73.616C42.96 73.264 43.12 72.944 43.44 72.656C43.76 72.336 44.144 72.144 44.592 72.08C45.072 72.016 45.472 71.824 45.792 71.504C46.112 71.152 46.368 70.576 46.56 69.776C46.784 68.944 46.944 68.208 47.04 67.568C47.168 66.928 47.312 65.968 47.472 64.688C47.568 64.08 47.632 63.616 47.664 63.296C48.08 60.48 48.48 57.536 48.864 54.464C49.248 51.392 49.536 48.976 49.728 47.216C49.952 45.424 50.064 44.432 50.064 44.24C50.064 43.344 49.824 42.688 49.344 42.272C48.896 41.824 48.4 41.6 47.856 41.6C47.312 41.568 46.8 41.504 46.32 41.408C45.872 41.28 45.648 41.024 45.648 40.64C45.648 39.648 46.256 39.152 47.472 39.152C47.76 39.152 48.48 39.184 49.632 39.248C50.816 39.28 52.368 39.312 54.288 39.344C56.24 39.376 58.272 39.392 60.384 39.392C61.056 39.392 62.544 39.376 64.848 39.344C67.184 39.312 68.576 39.296 69.024 39.296C70.08 39.296 70.608 39.808 70.608 40.832V43.376C70.608 43.6 70.64 44 70.704 44.576C70.8 45.152 70.848 45.616 70.848 45.968C70.848 47.312 70.416 47.984 69.552 47.984C69.232 47.984 69.008 47.872 68.88 47.648C68.784 47.392 68.704 47.104 68.64 46.784C68.608 46.432 68.448 45.984 68.16 45.44C67.872 44.896 67.44 44.384 66.864 43.904C66.192 43.232 64.8 42.848 62.688 42.752C60.928 42.656 59.76 42.608 59.184 42.608H57.552C56.528 42.608 55.888 42.736 55.632 42.992C55.408 43.216 55.216 43.808 55.056 44.768C55.024 45.056 54.992 45.264 54.96 45.392C54.16 50.896 53.76 54.032 53.76 54.8C53.76 54.864 53.824 54.912 53.952 54.944C54.112 54.944 54.48 54.944 55.056 54.944H57.984C60.32 54.944 61.792 54.912 62.4 54.848C63.104 54.784 63.664 54.592 64.08 54.272C64.496 53.92 64.752 53.568 64.848 53.216C64.976 52.832 65.12 52.496 65.28 52.208C65.472 51.92 65.696 51.776 65.952 51.776C66.752 51.776 67.152 52.176 67.152 52.976C67.152 53.328 66.992 54.256 66.672 55.76C66.384 57.264 66.24 58.688 66.24 60.032C66.24 62.176 65.792 63.248 64.896 63.248C63.904 63.248 63.408 62.672 63.408 61.52V60.992C63.408 60.544 63.376 60.192 63.312 59.936C63.248 59.68 63.072 59.44 62.784 59.216C62.528 58.992 62.224 58.848 61.872 58.784C61.552 58.688 60.992 58.608 60.192 58.544C59.392 58.48 58.592 58.448 57.792 58.448C56.992 58.416 55.84 58.4 54.336 58.4C53.696 58.4 53.36 58.528 53.328 58.784C53.232 59.712 53.056 61.056 52.8 62.816C52.576 64.576 52.368 66.112 52.176 67.424C52.016 68.736 51.936 69.504 51.936 69.728C51.936 70.624 52.208 71.312 52.752 71.792C53.296 72.24 53.888 72.48 54.528 72.512C55.168 72.544 55.76 72.64 56.304 72.8C56.848 72.928 57.12 73.168 57.12 73.52C57.12 74.384 56.64 74.816 55.68 74.816C55.584 74.816 55.008 74.768 53.952 74.672C52.896 74.608 51.824 74.576 50.736 74.576C49.968 74.576 49.12 74.608 48.192 74.672C47.264 74.736 46.496 74.8 45.888 74.864L44.928 74.96C43.616 74.96 42.96 74.512 42.96 73.616ZM71.9423 65.888C71.9423 62.432 73.0303 59.328 75.2063 56.576C77.4143 53.792 80.3423 52.4 83.9903 52.4C86.4863 52.4 88.3903 53.28 89.7023 55.04C91.0463 56.768 91.7183 58.96 91.7183 61.616C91.7183 63.824 91.2863 65.936 90.4223 67.952C89.5583 69.968 88.1983 71.68 86.3423 73.088C84.5183 74.496 82.4063 75.2 80.0063 75.2C77.6703 75.2 75.7343 74.4 74.1983 72.8C72.6943 71.2 71.9423 68.896 71.9423 65.888ZM77.0783 65.936C77.0783 68.24 77.4143 70 78.0863 71.216C78.7903 72.432 79.6703 73.04 80.7263 73.04C81.7823 73.04 82.7103 72.608 83.5103 71.744C84.3423 70.88 84.9663 69.808 85.3823 68.528C85.8303 67.216 86.1663 65.92 86.3903 64.64C86.6143 63.328 86.7263 62.128 86.7263 61.04C86.7263 59.152 86.3903 57.728 85.7183 56.768C85.0783 55.776 84.2783 55.28 83.3183 55.28C82.2303 55.28 81.1903 55.776 80.1983 56.768C79.2383 57.728 78.5183 59.056 78.0383 60.752C77.3983 62.928 77.0783 64.656 77.0783 65.936ZM93.7669 59.792C93.7669 58.64 93.9269 57.616 94.2469 56.72C94.5989 55.792 94.9989 55.088 95.4469 54.608C95.9269 54.096 96.4229 53.664 96.9349 53.312C97.4469 52.928 97.8789 52.688 98.2309 52.592C98.5829 52.496 98.8389 52.448 98.9989 52.448C100.055 52.448 100.871 53.168 101.447 54.608C101.863 56.4 102.087 57.296 102.119 57.296C102.151 57.296 102.455 56.896 103.031 56.096C103.607 55.264 104.375 54.432 105.335 53.6C106.327 52.768 107.351 52.352 108.407 52.352C109.207 52.352 109.815 52.576 110.231 53.024C110.679 53.472 110.903 53.984 110.903 54.56C110.903 54.816 110.807 55.184 110.615 55.664C110.455 56.112 110.375 56.352 110.375 56.384L110.327 56.816C110.199 57.232 110.087 57.568 109.991 57.824C109.895 58.048 109.719 58.288 109.463 58.544C109.207 58.768 108.919 58.88 108.599 58.88C108.311 58.88 108.071 58.72 107.879 58.4C107.687 58.048 107.447 57.712 107.159 57.392C106.871 57.04 106.487 56.864 106.007 56.864C105.271 56.864 104.647 57.76 104.135 59.552C103.623 61.312 103.287 62.976 103.127 64.544L102.887 66.128C102.279 70.8 101.831 73.408 101.543 73.952C101.095 74.592 100.407 74.912 99.4789 74.912H99.2389C97.7989 74.912 97.0789 74.256 97.0789 72.944C97.0789 72.432 97.4149 70.544 98.0869 67.28C98.7909 64.016 99.1429 61.712 99.1429 60.368C99.1429 58.672 98.8389 57.824 98.2309 57.824C97.7829 57.824 97.3989 58.048 97.0789 58.496C96.7589 58.912 96.5189 59.408 96.3589 59.984C96.2309 60.528 96.1509 60.816 96.1189 60.848C95.7349 61.168 95.3829 61.328 95.0629 61.328C94.1989 61.328 93.7669 60.816 93.7669 59.792ZM122.601 73.472C122.601 73.184 122.697 72.992 122.889 72.896C123.081 72.768 123.305 72.688 123.561 72.656C123.817 72.624 124.105 72.512 124.425 72.32C124.777 72.128 125.081 71.824 125.337 71.408C125.657 70.928 125.849 70.496 125.913 70.112C125.977 69.504 126.297 66.96 126.873 62.48C127.481 57.968 128.025 53.824 128.505 50.048C128.985 46.272 129.225 44.352 129.225 44.288C129.225 43.648 128.969 43.168 128.457 42.848C127.945 42.528 127.321 42.336 126.585 42.272C125.849 42.208 125.465 42.16 125.433 42.128C124.953 41.936 124.713 41.536 124.713 40.928C124.713 39.968 125.385 39.488 126.729 39.488C127.081 39.488 127.737 39.552 128.697 39.68C129.657 39.808 130.649 39.872 131.673 39.872C132.441 39.872 133.321 39.824 134.313 39.728C135.337 39.632 135.961 39.584 136.185 39.584C137.241 39.584 137.769 40.048 137.769 40.976C137.769 41.296 137.609 41.52 137.289 41.648C136.969 41.744 136.569 41.872 136.089 42.032C135.641 42.16 135.321 42.384 135.129 42.704C134.553 43.376 134.137 45.12 133.881 47.936C133.497 51.52 133.065 55.008 132.585 58.4C132.105 61.76 131.737 64.304 131.481 66.032C131.225 67.728 131.097 68.8 131.097 69.248C131.097 69.824 131.129 70.304 131.193 70.688C131.289 71.072 131.433 71.36 131.625 71.552C131.817 71.744 131.977 71.888 132.105 71.984C132.233 72.048 132.441 72.112 132.729 72.176C133.049 72.208 133.241 72.24 133.305 72.272C133.497 72.336 133.689 72.4 133.881 72.464C134.105 72.528 134.297 72.576 134.457 72.608C134.617 72.64 134.761 72.688 134.889 72.752C135.017 72.816 135.113 72.928 135.177 73.088C135.241 73.216 135.273 73.376 135.273 73.568C135.273 74.048 135.193 74.384 135.033 74.576C134.873 74.768 134.713 74.88 134.553 74.912C134.393 74.944 134.057 74.96 133.545 74.96C133.417 74.96 132.761 74.912 131.577 74.816C130.425 74.72 129.465 74.672 128.697 74.672C128.217 74.672 127.561 74.72 126.729 74.816C125.897 74.912 125.321 74.96 125.001 74.96C123.401 74.96 122.601 74.464 122.601 73.472ZM138.965 58.592C138.965 57.504 139.605 56.208 140.885 54.704C142.197 53.168 143.365 52.4 144.389 52.4C145.157 52.4 145.669 52.848 145.925 53.744C146.181 54.64 146.309 55.504 146.309 56.336C146.309 57.168 146.325 57.584 146.357 57.584C146.421 57.584 146.517 57.488 146.645 57.296C146.805 57.104 147.045 56.8 147.365 56.384C147.685 55.968 148.085 55.568 148.565 55.184C151.061 53.264 153.157 52.304 154.853 52.304C158.021 52.304 159.605 54.544 159.605 59.024C159.605 60.304 159.461 62.208 159.173 64.736C158.917 67.264 158.789 68.72 158.789 69.104C158.789 69.776 158.853 70.112 158.981 70.112C159.173 70.112 159.365 70.048 159.557 69.92C159.781 69.792 159.973 69.664 160.133 69.536L160.373 69.248C160.501 69.152 160.661 68.976 160.853 68.72C161.045 68.432 161.189 68.256 161.285 68.192C161.413 68.096 161.573 68 161.765 67.904C161.957 67.808 162.165 67.76 162.389 67.76C163.157 67.76 163.541 68.192 163.541 69.056C163.541 70.112 162.661 71.376 160.901 72.848C159.141 74.288 157.669 75.008 156.485 75.008C155.813 75.008 155.221 74.64 154.709 73.904C154.229 73.168 153.989 72.288 153.989 71.264C153.989 69.952 154.149 67.856 154.469 64.976C154.821 62.064 154.997 60.4 154.997 59.984C154.997 59.536 154.949 59.072 154.853 58.592C154.757 58.112 154.469 57.6 153.989 57.056C153.541 56.48 152.997 56.192 152.357 56.192C151.461 56.192 150.613 56.8 149.812 58.016C149.397 58.624 149.093 59.072 148.901 59.36C148.741 59.648 148.581 60.032 148.421 60.512C148.261 60.992 148.149 61.376 148.085 61.664C148.053 61.92 147.957 62.56 147.797 63.584C147.637 64.576 147.477 65.52 147.317 66.416C147.029 67.888 146.805 69.088 146.645 70.016C146.517 70.944 146.437 71.552 146.405 71.84C146.405 72.096 146.389 72.32 146.357 72.512C146.357 72.672 146.357 72.8 146.357 72.896C146.261 73.696 146.037 74.208 145.685 74.432C145.365 74.688 144.757 74.816 143.861 74.816C142.837 74.816 142.181 74.688 141.893 74.432C141.605 74.208 141.461 73.6 141.461 72.608C141.461 72.064 141.813 70.08 142.517 66.656C143.221 63.232 143.573 60.832 143.573 59.456C143.573 58.912 143.525 58.464 143.429 58.112C143.365 57.728 143.285 57.536 143.189 57.536C142.645 57.536 142.069 57.984 141.461 58.88C140.885 59.776 140.437 60.224 140.117 60.224C139.349 60.224 138.965 59.68 138.965 58.592ZM164.777 61.856C164.777 59.392 165.561 57.248 167.129 55.424C168.697 53.568 170.121 52.64 171.401 52.64C172.329 52.64 173.033 53.104 173.513 54.032C174.025 54.928 174.281 56 174.281 57.248C174.281 58.016 174.121 59.616 173.801 62.048C173.481 64.448 173.321 66.592 173.321 68.48C173.321 69.056 173.481 69.568 173.801 70.016C174.121 70.464 174.521 70.688 175.001 70.688C176.537 70.688 178.009 69.328 179.417 66.608C180.857 63.888 181.577 61.2 181.577 58.544C181.577 57.968 181.401 57.312 181.049 56.576C180.729 55.808 180.569 55.264 180.569 54.944C180.569 54.24 180.873 53.68 181.481 53.264C182.089 52.816 182.601 52.592 183.017 52.592C184.521 52.592 185.273 53.696 185.273 55.904C185.273 57.056 185.001 58.784 184.457 61.088C183.913 63.36 183.305 65.152 182.633 66.464C180.905 69.76 178.969 72.112 176.825 73.52C174.873 74.736 173.545 75.344 172.841 75.344C170.281 75.344 169.001 72.624 169.001 67.184C169.001 66.992 168.777 66.864 168.329 66.8C167.881 66.704 167.401 66.608 166.889 66.512C166.377 66.384 165.897 65.936 165.449 65.168C165.001 64.368 164.777 63.264 164.777 61.856ZM167.465 62.384C167.465 63.024 167.577 63.552 167.801 63.968C168.057 64.352 168.281 64.592 168.473 64.688C168.665 64.784 168.809 64.832 168.905 64.832C168.969 64.832 169.001 64.8 169.001 64.736C169.033 64.64 169.049 64.464 169.049 64.208C169.081 64.112 169.097 64.032 169.097 63.968C169.545 60.672 169.769 58.688 169.769 58.016C169.769 57.44 169.625 57.152 169.337 57.152C169.081 57.152 168.697 57.776 168.185 59.024C167.705 60.24 167.465 61.36 167.465 62.384ZM187.817 66.944C187.817 64.832 188.313 62.736 189.305 60.656C190.297 58.576 191.689 56.72 193.481 55.088C195.401 53.264 197.785 52.352 200.633 52.352C201.977 52.352 203.129 52.752 204.089 53.552C205.049 54.352 205.529 55.376 205.529 56.624C205.529 57.52 205.321 58.368 204.905 59.168C204.489 59.968 203.961 60.64 203.321 61.184C202.713 61.728 202.169 62.16 201.689 62.48C201.209 62.768 200.793 62.976 200.441 63.104C198.521 63.968 195.913 64.416 192.617 64.448C192.553 64.448 192.521 64.864 192.521 65.696C192.521 67.328 193.033 68.624 194.057 69.584C195.113 70.512 196.665 70.976 198.713 70.976C199.513 70.976 200.297 70.8 201.065 70.448C201.865 70.096 202.505 69.76 202.985 69.44C203.497 69.088 203.801 68.912 203.897 68.912C204.761 68.912 205.193 69.312 205.193 70.112C205.193 70.88 204.185 71.936 202.169 73.28C200.185 74.624 198.169 75.296 196.121 75.296C192.985 75.296 190.809 74.56 189.593 73.088C188.409 71.616 187.817 69.568 187.817 66.944ZM193.193 61.952C193.193 62.112 193.097 62.192 192.905 62.192C194.985 62.192 196.809 61.632 198.377 60.512C199.977 59.36 200.777 58.112 200.777 56.768C200.777 56.224 200.569 55.84 200.153 55.616C199.769 55.36 199.369 55.232 198.953 55.232C197.929 55.232 196.793 55.904 195.545 57.248C194.937 57.856 194.393 58.704 193.913 59.792C193.433 60.848 193.193 61.568 193.193 61.952ZM207.204 71.408C207.204 69.776 207.956 68.96 209.46 68.96C210.004 68.96 210.452 69.136 210.804 69.488C211.156 69.84 211.412 70.224 211.572 70.64C211.732 71.024 212.02 71.392 212.436 71.744C212.852 72.096 213.38 72.272 214.02 72.272C214.66 72.272 215.204 72.176 215.652 71.984C216.132 71.792 216.468 71.552 216.66 71.264C216.852 70.944 216.98 70.688 217.044 70.496C217.108 70.272 217.14 70.08 217.14 69.92C217.14 69.44 217.076 69.008 216.948 68.624C216.82 68.208 216.532 67.744 216.084 67.232C215.668 66.72 215.396 66.4 215.268 66.272C215.14 66.144 214.724 65.744 214.02 65.072C213.828 64.848 213.508 64.512 213.06 64.064C212.612 63.616 212.292 63.296 212.1 63.104C211.908 62.88 211.652 62.56 211.332 62.144C211.012 61.728 210.772 61.36 210.612 61.04C210.484 60.72 210.356 60.336 210.228 59.888C210.132 59.44 210.084 58.96 210.084 58.448C210.084 56.624 210.756 55.152 212.1 54.032C213.476 52.88 215.22 52.304 217.332 52.304C220.788 52.304 222.516 53.376 222.516 55.52C222.516 56.16 222.308 56.688 221.892 57.104C221.508 57.488 221.14 57.712 220.788 57.776C220.468 57.84 220.196 57.872 219.972 57.872C219.396 57.872 218.772 57.424 218.1 56.528C217.46 55.632 216.82 55.184 216.18 55.184C214.964 55.184 214.356 55.792 214.356 57.008C214.356 57.52 214.532 58.048 214.884 58.592C215.268 59.104 215.876 59.728 216.708 60.464C217.54 61.168 217.972 61.552 218.004 61.616C218.164 61.744 218.484 62.08 218.964 62.624C219.444 63.168 219.764 63.568 219.924 63.824C220.116 64.08 220.356 64.464 220.644 64.976C220.964 65.456 221.172 65.968 221.268 66.512C221.396 67.056 221.46 67.648 221.46 68.288C221.46 68.864 221.332 69.504 221.076 70.208C220.852 70.912 220.468 71.68 219.924 72.512C219.38 73.312 218.516 73.968 217.332 74.48C216.18 75.024 214.82 75.296 213.252 75.296C211.812 75.296 210.436 74.992 209.124 74.384C207.844 73.776 207.204 72.784 207.204 71.408ZM225.361 55.28C225.361 54.992 225.537 54.736 225.889 54.512C226.241 54.256 226.769 53.904 227.473 53.456C228.209 52.976 228.881 52.384 229.489 51.68C229.937 51.2 230.369 50.736 230.785 50.288C231.201 49.84 231.489 49.536 231.649 49.376C231.841 49.184 232.017 49.04 232.177 48.944C232.369 48.848 232.577 48.8 232.801 48.8C233.601 48.8 234.001 49.232 234.001 50.096C234.001 50.288 233.857 50.88 233.569 51.872C233.281 52.832 233.137 53.44 233.137 53.696C233.137 53.504 233.185 53.392 233.281 53.36C233.377 53.328 233.649 53.312 234.097 53.312C234.833 53.312 235.457 53.312 235.969 53.312C236.513 53.28 236.817 53.264 236.881 53.264C238.193 53.264 238.849 53.808 238.849 54.896C238.849 55.728 238.721 56.288 238.465 56.576C238.209 56.864 237.713 57.008 236.977 57.008C236.753 57.008 236.145 56.976 235.153 56.912C234.161 56.816 233.473 56.768 233.089 56.768C232.993 56.768 232.897 56.784 232.801 56.816C232.737 56.848 232.673 56.896 232.609 56.96C232.577 57.024 232.545 57.088 232.513 57.152C232.481 57.216 232.449 57.328 232.417 57.488C232.417 57.648 232.401 57.776 232.369 57.872C232.369 57.968 232.353 58.144 232.321 58.4C232.321 58.624 232.305 58.816 232.273 58.976C232.177 59.744 231.985 60.944 231.697 62.576C231.441 64.176 231.217 65.568 231.025 66.752C230.833 67.936 230.737 68.64 230.737 68.864C230.737 69.408 230.833 69.84 231.025 70.16C231.249 70.48 231.425 70.672 231.553 70.736C231.713 70.768 231.857 70.784 231.985 70.784C232.753 70.784 233.457 70.608 234.097 70.256C234.737 69.904 235.249 69.552 235.633 69.2C236.017 68.848 236.305 68.672 236.497 68.672C237.329 68.672 237.745 69.136 237.745 70.064C237.745 70.896 236.817 71.984 234.961 73.328C233.137 74.64 231.473 75.296 229.969 75.296C228.945 75.296 228.049 74.896 227.281 74.096C226.545 73.328 226.177 71.984 226.177 70.064C226.177 68.336 226.513 65.696 227.185 62.144C227.857 58.592 228.193 56.736 228.193 56.576C228.193 56.256 227.713 56.08 226.753 56.048C225.825 56.016 225.361 55.76 225.361 55.28ZM240.692 65.888C240.692 62.432 241.78 59.328 243.956 56.576C246.164 53.792 249.092 52.4 252.74 52.4C255.236 52.4 257.14 53.28 258.452 55.04C259.796 56.768 260.468 58.96 260.468 61.616C260.468 63.824 260.036 65.936 259.172 67.952C258.308 69.968 256.948 71.68 255.092 73.088C253.268 74.496 251.156 75.2 248.756 75.2C246.42 75.2 244.484 74.4 242.948 72.8C241.444 71.2 240.692 68.896 240.692 65.888ZM245.828 65.936C245.828 68.24 246.164 70 246.836 71.216C247.54 72.432 248.42 73.04 249.476 73.04C250.532 73.04 251.46 72.608 252.26 71.744C253.092 70.88 253.716 69.808 254.132 68.528C254.58 67.216 254.916 65.92 255.14 64.64C255.364 63.328 255.476 62.128 255.476 61.04C255.476 59.152 255.14 57.728 254.468 56.768C253.828 55.776 253.028 55.28 252.068 55.28C250.98 55.28 249.94 55.776 248.948 56.768C247.988 57.728 247.268 59.056 246.788 60.752C246.148 62.928 245.828 64.656 245.828 65.936ZM262.517 59.792C262.517 58.64 262.677 57.616 262.997 56.72C263.349 55.792 263.749 55.088 264.197 54.608C264.677 54.096 265.173 53.664 265.685 53.312C266.197 52.928 266.629 52.688 266.981 52.592C267.333 52.496 267.589 52.448 267.749 52.448C268.805 52.448 269.621 53.168 270.197 54.608C270.613 56.4 270.837 57.296 270.869 57.296C270.901 57.296 271.205 56.896 271.781 56.096C272.357 55.264 273.125 54.432 274.085 53.6C275.077 52.768 276.101 52.352 277.157 52.352C277.957 52.352 278.565 52.576 278.981 53.024C279.429 53.472 279.653 53.984 279.653 54.56C279.653 54.816 279.557 55.184 279.365 55.664C279.205 56.112 279.125 56.352 279.125 56.384L279.077 56.816C278.949 57.232 278.837 57.568 278.741 57.824C278.645 58.048 278.469 58.288 278.213 58.544C277.957 58.768 277.669 58.88 277.349 58.88C277.061 58.88 276.821 58.72 276.629 58.4C276.437 58.048 276.197 57.712 275.909 57.392C275.621 57.04 275.237 56.864 274.757 56.864C274.021 56.864 273.397 57.76 272.885 59.552C272.373 61.312 272.037 62.976 271.877 64.544L271.637 66.128C271.029 70.8 270.581 73.408 270.293 73.952C269.845 74.592 269.157 74.912 268.229 74.912H267.989C266.549 74.912 265.829 74.256 265.829 72.944C265.829 72.432 266.165 70.544 266.837 67.28C267.541 64.016 267.893 61.712 267.893 60.368C267.893 58.672 267.589 57.824 266.981 57.824C266.533 57.824 266.149 58.048 265.829 58.496C265.509 58.912 265.269 59.408 265.109 59.984C264.981 60.528 264.901 60.816 264.869 60.848C264.485 61.168 264.133 61.328 263.813 61.328C262.949 61.328 262.517 60.816 262.517 59.792ZM279.251 71.408C279.251 69.776 280.003 68.96 281.507 68.96C282.051 68.96 282.499 69.136 282.851 69.488C283.203 69.84 283.459 70.224 283.619 70.64C283.779 71.024 284.067 71.392 284.483 71.744C284.899 72.096 285.427 72.272 286.067 72.272C286.707 72.272 287.251 72.176 287.699 71.984C288.179 71.792 288.515 71.552 288.707 71.264C288.899 70.944 289.027 70.688 289.091 70.496C289.155 70.272 289.187 70.08 289.187 69.92C289.187 69.44 289.123 69.008 288.995 68.624C288.867 68.208 288.579 67.744 288.131 67.232C287.715 66.72 287.443 66.4 287.315 66.272C287.187 66.144 286.771 65.744 286.067 65.072C285.875 64.848 285.555 64.512 285.107 64.064C284.659 63.616 284.339 63.296 284.147 63.104C283.955 62.88 283.699 62.56 283.379 62.144C283.059 61.728 282.819 61.36 282.659 61.04C282.531 60.72 282.403 60.336 282.275 59.888C282.179 59.44 282.131 58.96 282.131 58.448C282.131 56.624 282.803 55.152 284.147 54.032C285.523 52.88 287.267 52.304 289.379 52.304C292.835 52.304 294.563 53.376 294.563 55.52C294.563 56.16 294.355 56.688 293.939 57.104C293.555 57.488 293.187 57.712 292.835 57.776C292.515 57.84 292.243 57.872 292.019 57.872C291.443 57.872 290.819 57.424 290.147 56.528C289.507 55.632 288.867 55.184 288.227 55.184C287.011 55.184 286.403 55.792 286.403 57.008C286.403 57.52 286.579 58.048 286.931 58.592C287.315 59.104 287.923 59.728 288.755 60.464C289.587 61.168 290.019 61.552 290.051 61.616C290.211 61.744 290.531 62.08 291.011 62.624C291.491 63.168 291.811 63.568 291.971 63.824C292.163 64.08 292.403 64.464 292.691 64.976C293.011 65.456 293.219 65.968 293.315 66.512C293.443 67.056 293.507 67.648 293.507 68.288C293.507 68.864 293.379 69.504 293.123 70.208C292.899 70.912 292.515 71.68 291.971 72.512C291.427 73.312 290.563 73.968 289.379 74.48C288.227 75.024 286.867 75.296 285.299 75.296C283.859 75.296 282.483 74.992 281.171 74.384C279.891 73.776 279.251 72.784 279.251 71.408Z" fill="#B1E080"/>
<path d="M46.8938 127.131C46.3875 127.131 46.1063 126.878 45.9469 126.325L42.6375 114.578C42.5813 114.372 42.5625 114.259 42.5625 114.109C42.5625 113.659 42.9094 113.341 43.3969 113.341C43.8375 113.341 44.1188 113.584 44.2313 114.016L46.8938 124.516H46.9688L49.8188 114.287C50.0063 113.612 50.3063 113.341 50.8781 113.341C51.4313 113.341 51.7313 113.612 51.9094 114.25L54.7688 124.516H54.8438L57.5063 114.016C57.6188 113.575 57.9094 113.341 58.3406 113.341C58.8281 113.341 59.175 113.659 59.175 114.109C59.175 114.259 59.1563 114.372 59.1 114.578L55.7906 126.325C55.6313 126.878 55.35 127.131 54.8438 127.131C54.3188 127.131 54.0375 126.897 53.8688 126.334L50.9156 116.266H50.8219L47.8688 126.334C47.7 126.897 47.4188 127.131 46.8938 127.131ZM62.709 127.169C60.7684 127.169 59.4653 125.997 59.4653 124.244C59.4653 122.575 60.7496 121.525 62.9996 121.394L65.8028 121.234V120.419C65.8028 119.228 65.0153 118.516 63.6653 118.516C62.6059 118.516 61.884 118.9 61.3403 119.866C61.1903 120.137 60.9746 120.259 60.6653 120.259C60.2434 120.259 59.9434 119.969 59.9434 119.528C59.9434 119.322 60.009 119.087 60.1403 118.853C60.6934 117.784 62.1184 117.081 63.7028 117.081C65.9903 117.081 67.434 118.319 67.434 120.259V126.344C67.434 126.831 67.1153 127.169 66.6653 127.169C66.2059 127.169 65.8871 126.831 65.8871 126.344V125.322H65.8496C65.2684 126.437 64.0215 127.169 62.709 127.169ZM63.0746 125.781C64.6121 125.781 65.8028 124.703 65.8028 123.297V122.5L63.1871 122.659C61.8746 122.744 61.1246 123.325 61.1246 124.244C61.1246 125.172 61.9028 125.781 63.0746 125.781ZM70.7899 127.169C70.3118 127.169 69.9743 126.812 69.9743 126.297V114.175C69.9743 113.659 70.3118 113.303 70.7899 113.303C71.268 113.303 71.6055 113.659 71.6055 114.175V126.297C71.6055 126.812 71.268 127.169 70.7899 127.169ZM77.8864 127.169C75.402 127.169 73.7145 125.181 73.7145 122.125C73.7145 119.069 75.3926 117.081 77.8489 117.081C79.2458 117.081 80.3708 117.766 80.952 118.834H80.9895V114.175C80.9895 113.659 81.327 113.303 81.8051 113.303C82.2833 113.303 82.6208 113.659 82.6208 114.175V126.372C82.6208 126.841 82.2926 127.169 81.8239 127.169C81.3645 127.169 80.9895 126.85 80.9895 126.372V125.256H80.9614C80.427 126.419 79.4145 127.169 77.8864 127.169ZM78.1958 125.734C79.8739 125.734 80.9989 124.309 80.9989 122.125C80.9989 119.95 79.8739 118.516 78.1958 118.516C76.4708 118.516 75.3833 119.922 75.3833 122.125C75.3833 124.337 76.4708 125.734 78.1958 125.734ZM89.2485 127.169C86.5485 127.169 84.7298 125.228 84.7298 122.125C84.7298 119.012 86.5485 117.081 89.2485 117.081C91.9391 117.081 93.7579 119.012 93.7579 122.125C93.7579 125.228 91.9391 127.169 89.2485 127.169ZM89.2485 125.734C90.9735 125.734 92.0985 124.422 92.0985 122.125C92.0985 119.828 90.9735 118.516 89.2485 118.516C87.5235 118.516 86.3891 119.828 86.3891 122.125C86.3891 124.422 87.5235 125.734 89.2485 125.734ZM103.498 127.169C101.763 127.169 100.404 126.391 99.9353 125.172C99.879 125.031 99.8603 124.909 99.8603 124.787C99.8603 124.356 100.179 124.112 100.601 124.112C100.892 124.112 101.126 124.262 101.313 124.6C101.801 125.453 102.382 125.837 103.629 125.837C104.876 125.837 105.72 125.294 105.72 124.384C105.72 123.681 105.317 123.306 104.22 123.034L102.729 122.659C100.845 122.191 99.9353 121.3 99.9353 119.931C99.9353 118.234 101.426 117.081 103.629 117.081C105.232 117.081 106.657 117.981 106.91 119.153C106.929 119.247 106.938 119.322 106.938 119.397C106.938 119.781 106.695 120.034 106.301 120.034C105.982 120.034 105.757 119.931 105.579 119.594C105.157 118.778 104.529 118.422 103.535 118.422C102.363 118.422 101.548 119.012 101.548 119.847C101.548 120.522 102.073 120.991 103.142 121.253L104.595 121.609C106.629 122.106 107.379 122.819 107.379 124.253C107.379 125.997 105.813 127.169 103.498 127.169ZM110.257 130.441C109.779 130.441 109.441 130.084 109.441 129.569V117.906C109.441 117.419 109.76 117.081 110.219 117.081C110.669 117.081 110.988 117.419 110.988 117.906V118.9H111.026C111.626 117.803 112.76 117.081 114.176 117.081C116.66 117.081 118.347 119.069 118.347 122.125C118.347 125.181 116.669 127.169 114.213 127.169C112.816 127.169 111.691 126.484 111.11 125.416H111.072V129.569C111.072 130.084 110.735 130.441 110.257 130.441ZM113.857 125.734C115.591 125.734 116.679 124.337 116.679 122.125C116.679 119.922 115.591 118.516 113.857 118.516C112.188 118.516 111.063 119.959 111.063 122.125C111.063 124.3 112.188 125.734 113.857 125.734ZM123.222 127.169C121.281 127.169 119.978 125.997 119.978 124.244C119.978 122.575 121.263 121.525 123.513 121.394L126.316 121.234V120.419C126.316 119.228 125.528 118.516 124.178 118.516C123.119 118.516 122.397 118.9 121.853 119.866C121.703 120.137 121.488 120.259 121.178 120.259C120.756 120.259 120.456 119.969 120.456 119.528C120.456 119.322 120.522 119.087 120.653 118.853C121.206 117.784 122.631 117.081 124.216 117.081C126.503 117.081 127.947 118.319 127.947 120.259V126.344C127.947 126.831 127.628 127.169 127.178 127.169C126.719 127.169 126.4 126.831 126.4 126.344V125.322H126.363C125.781 126.437 124.535 127.169 123.222 127.169ZM123.588 125.781C125.125 125.781 126.316 124.703 126.316 123.297V122.5L123.7 122.659C122.388 122.744 121.638 123.325 121.638 124.244C121.638 125.172 122.416 125.781 123.588 125.781ZM134.425 127.169C131.725 127.169 129.925 125.228 129.925 122.144C129.925 119.078 131.706 117.081 134.406 117.081C136.244 117.081 137.847 118.122 138.222 119.472C138.259 119.594 138.278 119.716 138.278 119.819C138.278 120.25 138.006 120.531 137.584 120.531C137.228 120.531 137.031 120.381 136.806 119.959C136.29 118.994 135.55 118.516 134.425 118.516C132.728 118.516 131.584 119.941 131.584 122.125C131.584 124.366 132.747 125.734 134.425 125.734C135.597 125.734 136.309 125.228 136.815 124.291C137.05 123.85 137.228 123.719 137.584 123.719C138.006 123.719 138.287 124.009 138.287 124.431C138.287 124.553 138.259 124.694 138.212 124.844C137.744 126.194 136.197 127.169 134.425 127.169ZM144.493 127.169C141.615 127.169 139.928 125.312 139.928 122.162C139.928 119.087 141.662 117.081 144.353 117.081C146.846 117.081 148.599 118.947 148.599 121.619C148.599 122.209 148.262 122.566 147.699 122.566H141.606C141.606 124.534 142.684 125.753 144.428 125.753C145.59 125.753 146.303 125.341 147.062 124.234C147.231 124 147.418 123.906 147.671 123.906C148.103 123.906 148.393 124.187 148.393 124.619C148.393 124.75 148.346 124.919 148.271 125.097C147.643 126.419 146.274 127.169 144.493 127.169ZM141.615 121.291H146.912C146.874 119.603 145.834 118.497 144.324 118.497C142.806 118.497 141.718 119.612 141.615 121.291ZM154.018 127.169C152.283 127.169 150.924 126.391 150.455 125.172C150.399 125.031 150.38 124.909 150.38 124.787C150.38 124.356 150.699 124.112 151.121 124.112C151.412 124.112 151.646 124.262 151.833 124.6C152.321 125.453 152.902 125.837 154.149 125.837C155.396 125.837 156.24 125.294 156.24 124.384C156.24 123.681 155.837 123.306 154.74 123.034L153.249 122.659C151.365 122.191 150.455 121.3 150.455 119.931C150.455 118.234 151.946 117.081 154.149 117.081C155.752 117.081 157.177 117.981 157.43 119.153C157.449 119.247 157.458 119.322 157.458 119.397C157.458 119.781 157.215 120.034 156.821 120.034C156.502 120.034 156.277 119.931 156.099 119.594C155.677 118.778 155.049 118.422 154.055 118.422C152.883 118.422 152.068 119.012 152.068 119.847C152.068 120.522 152.593 120.991 153.662 121.253L155.115 121.609C157.149 122.106 157.899 122.819 157.899 124.253C157.899 125.997 156.333 127.169 154.018 127.169ZM165.239 130.647C164.451 130.647 164.011 130.356 164.011 129.841C164.011 129.484 164.255 129.241 164.667 129.241C164.901 129.241 164.967 129.25 165.22 129.25C165.839 129.25 166.43 128.875 166.814 127.694L167.039 127.009L163.683 118.262C163.626 118.103 163.598 117.953 163.598 117.831C163.598 117.381 163.945 117.081 164.414 117.081C164.798 117.081 165.042 117.25 165.192 117.681L167.883 125.369H167.911L170.611 117.681C170.761 117.25 170.976 117.081 171.38 117.081C171.848 117.081 172.176 117.391 172.176 117.831C172.176 117.953 172.148 118.103 172.092 118.262L168.492 127.684C167.648 129.925 166.851 130.647 165.239 130.647ZM177.764 127.169C175.064 127.169 173.245 125.228 173.245 122.125C173.245 119.012 175.064 117.081 177.764 117.081C180.454 117.081 182.273 119.012 182.273 122.125C182.273 125.228 180.454 127.169 177.764 127.169ZM177.764 125.734C179.489 125.734 180.614 124.422 180.614 122.125C180.614 119.828 179.489 118.516 177.764 118.516C176.039 118.516 174.904 119.828 174.904 122.125C174.904 124.422 176.039 125.734 177.764 125.734ZM187.635 127.169C185.507 127.169 184.26 125.791 184.26 123.578V117.953C184.26 117.437 184.598 117.081 185.076 117.081C185.554 117.081 185.891 117.437 185.891 117.953V123.287C185.891 124.872 186.632 125.725 188.141 125.725C189.726 125.725 190.682 124.637 190.682 122.978V117.953C190.682 117.437 191.019 117.081 191.498 117.081C191.976 117.081 192.313 117.437 192.313 117.953V126.344C192.313 126.812 192.013 127.169 191.544 127.169C191.076 127.169 190.766 126.812 190.766 126.344V125.416H190.729C190.148 126.541 189.135 127.169 187.635 127.169ZM195.632 127.169C195.153 127.169 194.816 126.812 194.816 126.297V117.906C194.816 117.419 195.135 117.081 195.585 117.081C196.035 117.081 196.353 117.419 196.353 117.906V118.844H196.391C196.672 117.831 197.628 117.081 198.603 117.081C198.96 117.081 199.213 117.166 199.372 117.316C199.513 117.447 199.578 117.634 199.578 117.859C199.578 118.112 199.494 118.3 199.325 118.431C199.157 118.572 198.903 118.637 198.547 118.637C197.075 118.637 196.447 119.697 196.447 120.944V126.297C196.447 126.812 196.11 127.169 195.632 127.169ZM206.262 130.441C205.784 130.441 205.446 130.084 205.446 129.569V117.906C205.446 117.419 205.765 117.081 206.225 117.081C206.675 117.081 206.993 117.419 206.993 117.906V118.9H207.031C207.631 117.803 208.765 117.081 210.181 117.081C212.665 117.081 214.353 119.069 214.353 122.125C214.353 125.181 212.675 127.169 210.218 127.169C208.821 127.169 207.696 126.484 207.115 125.416H207.078V129.569C207.078 130.084 206.74 130.441 206.262 130.441ZM209.862 125.734C211.596 125.734 212.684 124.337 212.684 122.125C212.684 119.922 211.596 118.516 209.862 118.516C208.193 118.516 207.068 119.959 207.068 122.125C207.068 124.3 208.193 125.734 209.862 125.734ZM217.287 115.609C216.734 115.609 216.274 115.15 216.274 114.597C216.274 114.034 216.734 113.584 217.287 113.584C217.849 113.584 218.309 114.034 218.309 114.597C218.309 115.15 217.849 115.609 217.287 115.609ZM217.287 127.169C216.809 127.169 216.471 126.812 216.471 126.297V117.953C216.471 117.437 216.809 117.081 217.287 117.081C217.765 117.081 218.102 117.437 218.102 117.953V126.297C218.102 126.812 217.765 127.169 217.287 127.169ZM221.214 124.75V118.591H220.399C219.93 118.591 219.668 118.347 219.668 117.916C219.668 117.494 219.93 117.25 220.399 117.25H221.214V115.581C221.214 115.066 221.552 114.709 222.03 114.709C222.508 114.709 222.846 115.066 222.846 115.581V117.25H224.102C224.571 117.25 224.833 117.494 224.833 117.916C224.833 118.347 224.571 118.591 224.102 118.591H222.846V124.394C222.846 125.219 223.136 125.612 223.952 125.669L224.093 125.678C224.627 125.716 224.871 125.931 224.871 126.316C224.871 126.812 224.589 127.075 223.68 127.075H223.577C222.002 127.075 221.214 126.306 221.214 124.75ZM230.608 127.169C227.908 127.169 226.108 125.228 226.108 122.144C226.108 119.078 227.889 117.081 230.589 117.081C232.427 117.081 234.03 118.122 234.405 119.472C234.442 119.594 234.461 119.716 234.461 119.819C234.461 120.25 234.189 120.531 233.767 120.531C233.411 120.531 233.214 120.381 232.989 119.959C232.473 118.994 231.733 118.516 230.608 118.516C228.911 118.516 227.767 119.941 227.767 122.125C227.767 124.366 228.93 125.734 230.608 125.734C231.78 125.734 232.492 125.228 232.998 124.291C233.233 123.85 233.411 123.719 233.767 123.719C234.189 123.719 234.47 124.009 234.47 124.431C234.47 124.553 234.442 124.694 234.395 124.844C233.927 126.194 232.38 127.169 230.608 127.169ZM237.489 127.169C237.011 127.169 236.673 126.812 236.673 126.297V114.156C236.673 113.65 237.001 113.303 237.489 113.303C237.986 113.303 238.304 113.65 238.304 114.156V118.806H238.342C238.886 117.719 239.954 117.081 241.436 117.081C243.573 117.081 244.867 118.525 244.867 120.7V126.297C244.867 126.812 244.529 127.169 244.051 127.169C243.573 127.169 243.236 126.812 243.236 126.297V121C243.236 119.453 242.457 118.525 240.929 118.525C239.307 118.525 238.304 119.631 238.304 121.319V126.297C238.304 126.812 237.967 127.169 237.489 127.169ZM251.41 127.169C248.532 127.169 246.845 125.312 246.845 122.162C246.845 119.087 248.579 117.081 251.27 117.081C253.763 117.081 255.516 118.947 255.516 121.619C255.516 122.209 255.179 122.566 254.616 122.566H248.523C248.523 124.534 249.601 125.753 251.345 125.753C252.507 125.753 253.22 125.341 253.979 124.234C254.148 124 254.335 123.906 254.588 123.906C255.02 123.906 255.31 124.187 255.31 124.619C255.31 124.75 255.263 124.919 255.188 125.097C254.56 126.419 253.191 127.169 251.41 127.169ZM248.532 121.291H253.829C253.791 119.603 252.751 118.497 251.241 118.497C249.723 118.497 248.635 119.612 248.532 121.291ZM260.935 127.169C259.2 127.169 257.841 126.391 257.372 125.172C257.316 125.031 257.297 124.909 257.297 124.787C257.297 124.356 257.616 124.112 258.038 124.112C258.329 124.112 258.563 124.262 258.75 124.6C259.238 125.453 259.819 125.837 261.066 125.837C262.313 125.837 263.157 125.294 263.157 124.384C263.157 123.681 262.754 123.306 261.657 123.034L260.166 122.659C258.282 122.191 257.372 121.3 257.372 119.931C257.372 118.234 258.863 117.081 261.066 117.081C262.669 117.081 264.094 117.981 264.347 119.153C264.366 119.247 264.375 119.322 264.375 119.397C264.375 119.781 264.132 120.034 263.738 120.034C263.419 120.034 263.194 119.931 263.016 119.594C262.594 118.778 261.966 118.422 260.972 118.422C259.8 118.422 258.985 119.012 258.985 119.847C258.985 120.522 259.51 120.991 260.579 121.253L262.032 121.609C264.066 122.106 264.816 122.819 264.816 124.253C264.816 125.997 263.25 127.169 260.935 127.169ZM271.725 124.75V118.591H270.909C270.44 118.591 270.178 118.347 270.178 117.916C270.178 117.494 270.44 117.25 270.909 117.25H271.725V115.581C271.725 115.066 272.062 114.709 272.54 114.709C273.018 114.709 273.356 115.066 273.356 115.581V117.25H274.612C275.081 117.25 275.343 117.494 275.343 117.916C275.343 118.347 275.081 118.591 274.612 118.591H273.356V124.394C273.356 125.219 273.647 125.612 274.462 125.669L274.603 125.678C275.137 125.716 275.381 125.931 275.381 126.316C275.381 126.812 275.1 127.075 274.19 127.075H274.087C272.512 127.075 271.725 126.306 271.725 124.75ZM281.137 127.169C278.437 127.169 276.618 125.228 276.618 122.125C276.618 119.012 278.437 117.081 281.137 117.081C283.827 117.081 285.646 119.012 285.646 122.125C285.646 125.228 283.827 127.169 281.137 127.169ZM281.137 125.734C282.862 125.734 283.987 124.422 283.987 122.125C283.987 119.828 282.862 118.516 281.137 118.516C279.412 118.516 278.277 119.828 278.277 122.125C278.277 124.422 279.412 125.734 281.137 125.734ZM294.842 127.169C292.902 127.169 291.599 125.997 291.599 124.244C291.599 122.575 292.883 121.525 295.133 121.394L297.936 121.234V120.419C297.936 119.228 297.149 118.516 295.799 118.516C294.739 118.516 294.017 118.9 293.474 119.866C293.324 120.137 293.108 120.259 292.799 120.259C292.377 120.259 292.077 119.969 292.077 119.528C292.077 119.322 292.142 119.087 292.274 118.853C292.827 117.784 294.252 117.081 295.836 117.081C298.124 117.081 299.567 118.319 299.567 120.259V126.344C299.567 126.831 299.249 127.169 298.799 127.169C298.339 127.169 298.02 126.831 298.02 126.344V125.322H297.983C297.402 126.437 296.155 127.169 294.842 127.169ZM295.208 125.781C296.745 125.781 297.936 124.703 297.936 123.297V122.5L295.32 122.659C294.008 122.744 293.258 123.325 293.258 124.244C293.258 125.172 294.036 125.781 295.208 125.781ZM307.16 127.169C306.682 127.169 306.345 126.812 306.345 126.297V117.906C306.345 117.419 306.663 117.081 307.113 117.081C307.563 117.081 307.882 117.419 307.882 117.906V118.844H307.92C308.201 117.831 309.157 117.081 310.132 117.081C310.488 117.081 310.741 117.166 310.901 117.316C311.041 117.447 311.107 117.634 311.107 117.859C311.107 118.112 311.023 118.3 310.854 118.431C310.685 118.572 310.432 118.637 310.076 118.637C308.604 118.637 307.976 119.697 307.976 120.944V126.297C307.976 126.812 307.638 127.169 307.16 127.169ZM313.554 127.169C313.076 127.169 312.738 126.812 312.738 126.297V114.156C312.738 113.65 313.066 113.303 313.554 113.303C314.051 113.303 314.369 113.65 314.369 114.156V118.806H314.407C314.951 117.719 316.019 117.081 317.501 117.081C319.638 117.081 320.932 118.525 320.932 120.7V126.297C320.932 126.812 320.594 127.169 320.116 127.169C319.638 127.169 319.301 126.812 319.301 126.297V121C319.301 119.453 318.522 118.525 316.994 118.525C315.372 118.525 314.369 119.631 314.369 121.319V126.297C314.369 126.812 314.032 127.169 313.554 127.169ZM324.344 130.647C323.556 130.647 323.116 130.356 323.116 129.841C323.116 129.484 323.36 129.241 323.772 129.241C324.006 129.241 324.072 129.25 324.325 129.25C324.944 129.25 325.535 128.875 325.919 127.694L326.144 127.009L322.788 118.262C322.731 118.103 322.703 117.953 322.703 117.831C322.703 117.381 323.05 117.081 323.519 117.081C323.903 117.081 324.147 117.25 324.297 117.681L326.988 125.369H327.016L329.716 117.681C329.866 117.25 330.081 117.081 330.485 117.081C330.953 117.081 331.281 117.391 331.281 117.831C331.281 117.953 331.253 118.103 331.197 118.262L327.597 127.684C326.753 129.925 325.956 130.647 324.344 130.647ZM333.634 124.75V118.591H332.819C332.35 118.591 332.087 118.347 332.087 117.916C332.087 117.494 332.35 117.25 332.819 117.25H333.634V115.581C333.634 115.066 333.972 114.709 334.45 114.709C334.928 114.709 335.265 115.066 335.265 115.581V117.25H336.522C336.99 117.25 337.253 117.494 337.253 117.916C337.253 118.347 336.99 118.591 336.522 118.591H335.265V124.394C335.265 125.219 335.556 125.612 336.372 125.669L336.512 125.678C337.047 125.716 337.29 125.931 337.29 126.316C337.29 126.812 337.009 127.075 336.1 127.075H335.997C334.422 127.075 333.634 126.306 333.634 124.75ZM340.187 127.169C339.709 127.169 339.371 126.812 339.371 126.297V114.156C339.371 113.65 339.699 113.303 340.187 113.303C340.684 113.303 341.003 113.65 341.003 114.156V118.806H341.04C341.584 117.719 342.653 117.081 344.134 117.081C346.271 117.081 347.565 118.525 347.565 120.7V126.297C347.565 126.812 347.228 127.169 346.749 127.169C346.271 127.169 345.934 126.812 345.934 126.297V121C345.934 119.453 345.156 118.525 343.628 118.525C342.006 118.525 341.003 119.631 341.003 121.319V126.297C341.003 126.812 340.665 127.169 340.187 127.169ZM350.837 127.169C350.34 127.169 350.021 126.794 350.021 126.297V117.906C350.021 117.419 350.34 117.081 350.79 117.081C351.24 117.081 351.558 117.419 351.558 117.906V118.806H351.596C352.055 117.775 353.049 117.081 354.362 117.081C355.693 117.081 356.677 117.756 357.099 118.937H357.137C357.68 117.775 358.824 117.081 360.193 117.081C362.124 117.081 363.371 118.337 363.371 120.269V126.297C363.371 126.794 363.052 127.169 362.555 127.169C362.058 127.169 361.74 126.794 361.74 126.297V120.644C361.74 119.312 360.999 118.525 359.715 118.525C358.421 118.525 357.512 119.481 357.512 120.803V126.297C357.512 126.794 357.193 127.169 356.696 127.169C356.199 127.169 355.88 126.794 355.88 126.297V120.466C355.88 119.294 355.093 118.525 353.883 118.525C352.59 118.525 351.652 119.537 351.652 120.887V126.297C351.652 126.794 351.333 127.169 350.837 127.169ZM44.0156 157.647C43.2281 157.647 42.7875 157.356 42.7875 156.841C42.7875 156.484 43.0313 156.241 43.4438 156.241C43.6781 156.241 43.7438 156.25 43.9969 156.25C44.6156 156.25 45.2063 155.875 45.5906 154.694L45.8156 154.009L42.4594 145.262C42.4031 145.103 42.375 144.953 42.375 144.831C42.375 144.381 42.7219 144.081 43.1906 144.081C43.575 144.081 43.8188 144.25 43.9688 144.681L46.6594 152.369H46.6875L49.3875 144.681C49.5375 144.25 49.7531 144.081 50.1563 144.081C50.625 144.081 50.9531 144.391 50.9531 144.831C50.9531 144.953 50.925 145.103 50.8688 145.262L47.2688 154.684C46.425 156.925 45.6281 157.647 44.0156 157.647ZM56.5403 154.169C53.8403 154.169 52.0215 152.228 52.0215 149.125C52.0215 146.012 53.8403 144.081 56.5403 144.081C59.2309 144.081 61.0496 146.012 61.0496 149.125C61.0496 152.228 59.2309 154.169 56.5403 154.169ZM56.5403 152.734C58.2653 152.734 59.3903 151.422 59.3903 149.125C59.3903 146.828 58.2653 145.516 56.5403 145.516C54.8153 145.516 53.6809 146.828 53.6809 149.125C53.6809 151.422 54.8153 152.734 56.5403 152.734ZM66.4118 154.169C64.2836 154.169 63.0368 152.791 63.0368 150.578V144.953C63.0368 144.437 63.3743 144.081 63.8524 144.081C64.3305 144.081 64.668 144.437 64.668 144.953V150.287C64.668 151.872 65.4086 152.725 66.918 152.725C68.5024 152.725 69.4586 151.637 69.4586 149.978V144.953C69.4586 144.437 69.7961 144.081 70.2743 144.081C70.7524 144.081 71.0899 144.437 71.0899 144.953V153.344C71.0899 153.812 70.7899 154.169 70.3211 154.169C69.8524 154.169 69.543 153.812 69.543 153.344V152.416H69.5055C68.9243 153.541 67.9118 154.169 66.4118 154.169ZM74.4083 154.169C73.9301 154.169 73.5926 153.812 73.5926 153.297V144.906C73.5926 144.419 73.9114 144.081 74.3614 144.081C74.8114 144.081 75.1301 144.419 75.1301 144.906V145.844H75.1676C75.4489 144.831 76.4051 144.081 77.3801 144.081C77.7364 144.081 77.9895 144.166 78.1489 144.316C78.2895 144.447 78.3551 144.634 78.3551 144.859C78.3551 145.112 78.2708 145.3 78.102 145.431C77.9333 145.572 77.6801 145.637 77.3239 145.637C75.852 145.637 75.2239 146.697 75.2239 147.944V153.297C75.2239 153.812 74.8864 154.169 74.4083 154.169ZM85.0388 154.169C84.5606 154.169 84.2231 153.812 84.2231 153.297V144.906C84.2231 144.419 84.5419 144.081 84.9919 144.081C85.4419 144.081 85.7606 144.419 85.7606 144.906V145.844H85.7981C86.0794 144.831 87.0356 144.081 88.0106 144.081C88.3669 144.081 88.62 144.166 88.7794 144.316C88.92 144.447 88.9856 144.634 88.9856 144.859C88.9856 145.112 88.9013 145.3 88.7325 145.431C88.5638 145.572 88.3106 145.637 87.9544 145.637C86.4825 145.637 85.8544 146.697 85.8544 147.944V153.297C85.8544 153.812 85.5169 154.169 85.0388 154.169ZM94.1509 154.169C91.2728 154.169 89.5853 152.312 89.5853 149.162C89.5853 146.087 91.3196 144.081 94.0103 144.081C96.504 144.081 98.2571 145.947 98.2571 148.619C98.2571 149.209 97.9196 149.566 97.3571 149.566H91.2634C91.2634 151.534 92.3415 152.753 94.0853 152.753C95.2478 152.753 95.9603 152.341 96.7196 151.234C96.8884 151 97.0759 150.906 97.329 150.906C97.7603 150.906 98.0509 151.187 98.0509 151.619C98.0509 151.75 98.004 151.919 97.929 152.097C97.3009 153.419 95.9321 154.169 94.1509 154.169ZM91.2728 148.291H96.5696C96.5321 146.603 95.4915 145.497 93.9821 145.497C92.4634 145.497 91.3759 146.612 91.2728 148.291ZM104.313 154.169C101.613 154.169 99.813 152.228 99.813 149.144C99.813 146.078 101.594 144.081 104.294 144.081C106.132 144.081 107.735 145.122 108.11 146.472C108.147 146.594 108.166 146.716 108.166 146.819C108.166 147.25 107.894 147.531 107.472 147.531C107.116 147.531 106.919 147.381 106.694 146.959C106.179 145.994 105.438 145.516 104.313 145.516C102.616 145.516 101.472 146.941 101.472 149.125C101.472 151.366 102.635 152.734 104.313 152.734C105.485 152.734 106.197 152.228 106.704 151.291C106.938 150.85 107.116 150.719 107.472 150.719C107.894 150.719 108.176 151.009 108.176 151.431C108.176 151.553 108.147 151.694 108.101 151.844C107.632 153.194 106.085 154.169 104.313 154.169ZM114.335 154.169C111.635 154.169 109.816 152.228 109.816 149.125C109.816 146.012 111.635 144.081 114.335 144.081C117.025 144.081 118.844 146.012 118.844 149.125C118.844 152.228 117.025 154.169 114.335 154.169ZM114.335 152.734C116.06 152.734 117.185 151.422 117.185 149.125C117.185 146.828 116.06 145.516 114.335 145.516C112.61 145.516 111.475 146.828 111.475 149.125C111.475 151.422 112.61 152.734 114.335 152.734ZM124.169 154.169C123.634 154.169 123.334 153.934 123.1 153.344L119.997 145.253C119.94 145.112 119.912 144.972 119.912 144.831C119.912 144.381 120.24 144.081 120.728 144.081C121.094 144.081 121.337 144.278 121.487 144.7L124.159 152.266H124.197L126.878 144.7C127.028 144.278 127.272 144.081 127.628 144.081C128.115 144.081 128.434 144.381 128.434 144.831C128.434 144.972 128.406 145.112 128.35 145.253L125.256 153.344C125.04 153.906 124.694 154.169 124.169 154.169ZM134.068 154.169C131.19 154.169 129.503 152.312 129.503 149.162C129.503 146.087 131.237 144.081 133.928 144.081C136.421 144.081 138.174 145.947 138.174 148.619C138.174 149.209 137.837 149.566 137.274 149.566H131.181C131.181 151.534 132.259 152.753 134.003 152.753C135.165 152.753 135.878 152.341 136.637 151.234C136.806 151 136.993 150.906 137.246 150.906C137.678 150.906 137.968 151.187 137.968 151.619C137.968 151.75 137.921 151.919 137.846 152.097C137.218 153.419 135.849 154.169 134.068 154.169ZM131.19 148.291H136.487C136.449 146.603 135.409 145.497 133.899 145.497C132.381 145.497 131.293 146.612 131.19 148.291ZM141.024 154.169C140.546 154.169 140.208 153.812 140.208 153.297V144.906C140.208 144.419 140.527 144.081 140.977 144.081C141.427 144.081 141.746 144.419 141.746 144.906V145.844H141.783C142.065 144.831 143.021 144.081 143.996 144.081C144.352 144.081 144.605 144.166 144.765 144.316C144.905 144.447 144.971 144.634 144.971 144.859C144.971 145.112 144.887 145.3 144.718 145.431C144.549 145.572 144.296 145.637 143.94 145.637C142.468 145.637 141.84 146.697 141.84 147.944V153.297C141.84 153.812 141.502 154.169 141.024 154.169ZM147.474 157.647C146.686 157.647 146.246 157.356 146.246 156.841C146.246 156.484 146.489 156.241 146.902 156.241C147.136 156.241 147.202 156.25 147.455 156.25C148.074 156.25 148.664 155.875 149.049 154.694L149.274 154.009L145.917 145.262C145.861 145.103 145.833 144.953 145.833 144.831C145.833 144.381 146.18 144.081 146.649 144.081C147.033 144.081 147.277 144.25 147.427 144.681L150.117 152.369H150.146L152.846 144.681C152.996 144.25 153.211 144.081 153.614 144.081C154.083 144.081 154.411 144.391 154.411 144.831C154.411 144.953 154.383 145.103 154.327 145.262L150.727 154.684C149.883 156.925 149.086 157.647 147.474 157.647ZM164.582 154.169C161.882 154.169 160.082 152.228 160.082 149.144C160.082 146.078 161.864 144.081 164.564 144.081C166.401 144.081 168.004 145.122 168.379 146.472C168.417 146.594 168.435 146.716 168.435 146.819C168.435 147.25 168.164 147.531 167.742 147.531C167.385 147.531 167.189 147.381 166.964 146.959C166.448 145.994 165.707 145.516 164.582 145.516C162.885 145.516 161.742 146.941 161.742 149.125C161.742 151.366 162.904 152.734 164.582 152.734C165.754 152.734 166.467 152.228 166.973 151.291C167.207 150.85 167.385 150.719 167.742 150.719C168.164 150.719 168.445 151.009 168.445 151.431C168.445 151.553 168.417 151.694 168.37 151.844C167.901 153.194 166.354 154.169 164.582 154.169ZM173.404 154.169C171.463 154.169 170.16 152.997 170.16 151.244C170.16 149.575 171.444 148.525 173.694 148.394L176.498 148.234V147.419C176.498 146.228 175.71 145.516 174.36 145.516C173.301 145.516 172.579 145.9 172.035 146.866C171.885 147.137 171.669 147.259 171.36 147.259C170.938 147.259 170.638 146.969 170.638 146.528C170.638 146.322 170.704 146.087 170.835 145.853C171.388 144.784 172.813 144.081 174.398 144.081C176.685 144.081 178.129 145.319 178.129 147.259V153.344C178.129 153.831 177.81 154.169 177.36 154.169C176.901 154.169 176.582 153.831 176.582 153.344V152.322H176.544C175.963 153.437 174.716 154.169 173.404 154.169ZM173.769 152.781C175.307 152.781 176.498 151.703 176.498 150.297V149.5L173.882 149.659C172.569 149.744 171.819 150.325 171.819 151.244C171.819 152.172 172.598 152.781 173.769 152.781ZM181.4 154.169C180.922 154.169 180.585 153.812 180.585 153.297V144.906C180.585 144.419 180.903 144.081 181.353 144.081C181.803 144.081 182.122 144.419 182.122 144.906V145.806H182.16C182.703 144.756 183.744 144.081 185.253 144.081C187.391 144.081 188.628 145.459 188.628 147.672V153.297C188.628 153.812 188.291 154.169 187.813 154.169C187.335 154.169 186.997 153.812 186.997 153.297V147.962C186.997 146.387 186.257 145.525 184.757 145.525C183.219 145.525 182.216 146.612 182.216 148.262V153.297C182.216 153.812 181.878 154.169 181.4 154.169ZM198.256 154.169C196.315 154.169 195.012 152.997 195.012 151.244C195.012 149.575 196.296 148.525 198.546 148.394L201.35 148.234V147.419C201.35 146.228 200.562 145.516 199.212 145.516C198.153 145.516 197.431 145.9 196.887 146.866C196.737 147.137 196.521 147.259 196.212 147.259C195.79 147.259 195.49 146.969 195.49 146.528C195.49 146.322 195.556 146.087 195.687 145.853C196.24 144.784 197.665 144.081 199.25 144.081C201.537 144.081 202.981 145.319 202.981 147.259V153.344C202.981 153.831 202.662 154.169 202.212 154.169C201.753 154.169 201.434 153.831 201.434 153.344V152.322H201.396C200.815 153.437 199.568 154.169 198.256 154.169ZM198.621 152.781C200.159 152.781 201.35 151.703 201.35 150.297V149.5L198.734 149.659C197.421 149.744 196.671 150.325 196.671 151.244C196.671 152.172 197.45 152.781 198.621 152.781ZM209.459 154.169C206.759 154.169 204.959 152.228 204.959 149.144C204.959 146.078 206.74 144.081 209.44 144.081C211.277 144.081 212.88 145.122 213.255 146.472C213.293 146.594 213.312 146.716 213.312 146.819C213.312 147.25 213.04 147.531 212.618 147.531C212.262 147.531 212.065 147.381 211.84 146.959C211.324 145.994 210.584 145.516 209.459 145.516C207.762 145.516 206.618 146.941 206.618 149.125C206.618 151.366 207.78 152.734 209.459 152.734C210.63 152.734 211.343 152.228 211.849 151.291C212.084 150.85 212.262 150.719 212.618 150.719C213.04 150.719 213.321 151.009 213.321 151.431C213.321 151.553 213.293 151.694 213.246 151.844C212.777 153.194 211.23 154.169 209.459 154.169ZM215.964 151.75V145.591H215.149C214.68 145.591 214.418 145.347 214.418 144.916C214.418 144.494 214.68 144.25 215.149 144.25H215.964V142.581C215.964 142.066 216.302 141.709 216.78 141.709C217.258 141.709 217.596 142.066 217.596 142.581V144.25H218.852C219.321 144.25 219.583 144.494 219.583 144.916C219.583 145.347 219.321 145.591 218.852 145.591H217.596V151.394C217.596 152.219 217.886 152.612 218.702 152.669L218.843 152.678C219.377 152.716 219.621 152.931 219.621 153.316C219.621 153.812 219.339 154.075 218.43 154.075H218.327C216.752 154.075 215.964 153.306 215.964 151.75ZM224.945 154.169C222.817 154.169 221.57 152.791 221.57 150.578V144.953C221.57 144.437 221.908 144.081 222.386 144.081C222.864 144.081 223.202 144.437 223.202 144.953V150.287C223.202 151.872 223.942 152.725 225.452 152.725C227.036 152.725 227.992 151.637 227.992 149.978V144.953C227.992 144.437 228.33 144.081 228.808 144.081C229.286 144.081 229.623 144.437 229.623 144.953V153.344C229.623 153.812 229.323 154.169 228.855 154.169C228.386 154.169 228.077 153.812 228.077 153.344V152.416H228.039C227.458 153.541 226.445 154.169 224.945 154.169ZM234.967 154.169C233.026 154.169 231.723 152.997 231.723 151.244C231.723 149.575 233.007 148.525 235.257 148.394L238.061 148.234V147.419C238.061 146.228 237.273 145.516 235.923 145.516C234.864 145.516 234.142 145.9 233.598 146.866C233.448 147.137 233.232 147.259 232.923 147.259C232.501 147.259 232.201 146.969 232.201 146.528C232.201 146.322 232.267 146.087 232.398 145.853C232.951 144.784 234.376 144.081 235.961 144.081C238.248 144.081 239.692 145.319 239.692 147.259V153.344C239.692 153.831 239.373 154.169 238.923 154.169C238.464 154.169 238.145 153.831 238.145 153.344V152.322H238.107C237.526 153.437 236.279 154.169 234.967 154.169ZM235.332 152.781C236.87 152.781 238.061 151.703 238.061 150.297V149.5L235.445 149.659C234.132 149.744 233.382 150.325 233.382 151.244C233.382 152.172 234.161 152.781 235.332 152.781ZM243.048 154.169C242.57 154.169 242.232 153.812 242.232 153.297V141.175C242.232 140.659 242.57 140.303 243.048 140.303C243.526 140.303 243.863 140.659 243.863 141.175V153.297C243.863 153.812 243.526 154.169 243.048 154.169ZM247.35 154.169C246.872 154.169 246.535 153.812 246.535 153.297V141.175C246.535 140.659 246.872 140.303 247.35 140.303C247.829 140.303 248.166 140.659 248.166 141.175V153.297C248.166 153.812 247.829 154.169 247.35 154.169ZM251.709 157.647C250.922 157.647 250.481 157.356 250.481 156.841C250.481 156.484 250.725 156.241 251.138 156.241C251.372 156.241 251.438 156.25 251.691 156.25C252.309 156.25 252.9 155.875 253.284 154.694L253.509 154.009L250.153 145.262C250.097 145.103 250.069 144.953 250.069 144.831C250.069 144.381 250.416 144.081 250.884 144.081C251.269 144.081 251.513 144.25 251.663 144.681L254.353 152.369H254.381L257.081 144.681C257.231 144.25 257.447 144.081 257.85 144.081C258.319 144.081 258.647 144.391 258.647 144.831C258.647 144.953 258.619 145.103 258.563 145.262L254.963 154.684C254.119 156.925 253.322 157.647 251.709 157.647ZM268.181 154.169C266.446 154.169 265.087 153.391 264.618 152.172C264.562 152.031 264.543 151.909 264.543 151.787C264.543 151.356 264.862 151.112 265.284 151.112C265.574 151.112 265.809 151.262 265.996 151.6C266.484 152.453 267.065 152.837 268.312 152.837C269.559 152.837 270.402 152.294 270.402 151.384C270.402 150.681 269.999 150.306 268.902 150.034L267.412 149.659C265.527 149.191 264.618 148.3 264.618 146.931C264.618 145.234 266.109 144.081 268.312 144.081C269.915 144.081 271.34 144.981 271.593 146.153C271.612 146.247 271.621 146.322 271.621 146.397C271.621 146.781 271.377 147.034 270.984 147.034C270.665 147.034 270.44 146.931 270.262 146.594C269.84 145.778 269.212 145.422 268.218 145.422C267.046 145.422 266.231 146.012 266.231 146.847C266.231 147.522 266.756 147.991 267.824 148.253L269.277 148.609C271.312 149.106 272.062 149.819 272.062 151.253C272.062 152.997 270.496 154.169 268.181 154.169ZM277.452 154.169C275.324 154.169 274.077 152.791 274.077 150.578V144.953C274.077 144.437 274.415 144.081 274.893 144.081C275.371 144.081 275.708 144.437 275.708 144.953V150.287C275.708 151.872 276.449 152.725 277.958 152.725C279.543 152.725 280.499 151.637 280.499 149.978V144.953C280.499 144.437 280.836 144.081 281.315 144.081C281.793 144.081 282.13 144.437 282.13 144.953V153.344C282.13 153.812 281.83 154.169 281.361 154.169C280.893 154.169 280.583 153.812 280.583 153.344V152.416H280.546C279.965 153.541 278.952 154.169 277.452 154.169ZM288.017 154.169C286.283 154.169 284.924 153.391 284.455 152.172C284.399 152.031 284.38 151.909 284.38 151.787C284.38 151.356 284.699 151.112 285.12 151.112C285.411 151.112 285.645 151.262 285.833 151.6C286.32 152.453 286.902 152.837 288.149 152.837C289.395 152.837 290.239 152.294 290.239 151.384C290.239 150.681 289.836 150.306 288.739 150.034L287.249 149.659C285.364 149.191 284.455 148.3 284.455 146.931C284.455 145.234 285.945 144.081 288.149 144.081C289.752 144.081 291.177 144.981 291.43 146.153C291.449 146.247 291.458 146.322 291.458 146.397C291.458 146.781 291.214 147.034 290.82 147.034C290.502 147.034 290.277 146.931 290.099 146.594C289.677 145.778 289.049 145.422 288.055 145.422C286.883 145.422 286.067 146.012 286.067 146.847C286.067 147.522 286.592 147.991 287.661 148.253L289.114 148.609C291.149 149.106 291.899 149.819 291.899 151.253C291.899 152.997 290.333 154.169 288.017 154.169ZM294.486 151.75V145.591H293.67C293.201 145.591 292.939 145.347 292.939 144.916C292.939 144.494 293.201 144.25 293.67 144.25H294.486V142.581C294.486 142.066 294.823 141.709 295.301 141.709C295.779 141.709 296.117 142.066 296.117 142.581V144.25H297.373C297.842 144.25 298.104 144.494 298.104 144.916C298.104 145.347 297.842 145.591 297.373 145.591H296.117V151.394C296.117 152.219 296.408 152.612 297.223 152.669L297.364 152.678C297.898 152.716 298.142 152.931 298.142 153.316C298.142 153.812 297.861 154.075 296.951 154.075H296.848C295.273 154.075 294.486 153.306 294.486 151.75ZM302.792 154.169C300.851 154.169 299.548 152.997 299.548 151.244C299.548 149.575 300.832 148.525 303.082 148.394L305.885 148.234V147.419C305.885 146.228 305.098 145.516 303.748 145.516C302.688 145.516 301.967 145.9 301.423 146.866C301.273 147.137 301.057 147.259 300.748 147.259C300.326 147.259 300.026 146.969 300.026 146.528C300.026 146.322 300.092 146.087 300.223 145.853C300.776 144.784 302.201 144.081 303.785 144.081C306.073 144.081 307.517 145.319 307.517 147.259V153.344C307.517 153.831 307.198 154.169 306.748 154.169C306.288 154.169 305.97 153.831 305.97 153.344V152.322H305.932C305.351 153.437 304.104 154.169 302.792 154.169ZM303.157 152.781C304.695 152.781 305.885 151.703 305.885 150.297V149.5L303.27 149.659C301.957 149.744 301.207 150.325 301.207 151.244C301.207 152.172 301.985 152.781 303.157 152.781ZM310.872 142.609C310.319 142.609 309.86 142.15 309.86 141.597C309.86 141.034 310.319 140.584 310.872 140.584C311.435 140.584 311.894 141.034 311.894 141.597C311.894 142.15 311.435 142.609 310.872 142.609ZM310.872 154.169C310.394 154.169 310.057 153.812 310.057 153.297V144.953C310.057 144.437 310.394 144.081 310.872 144.081C311.351 144.081 311.688 144.437 311.688 144.953V153.297C311.688 153.812 311.351 154.169 310.872 154.169ZM315.091 154.169C314.613 154.169 314.275 153.812 314.275 153.297V144.906C314.275 144.419 314.594 144.081 315.044 144.081C315.494 144.081 315.813 144.419 315.813 144.906V145.806H315.85C316.394 144.756 317.435 144.081 318.944 144.081C321.081 144.081 322.319 145.459 322.319 147.672V153.297C322.319 153.812 321.981 154.169 321.503 154.169C321.025 154.169 320.688 153.812 320.688 153.297V147.962C320.688 146.387 319.947 145.525 318.447 145.525C316.91 145.525 315.906 146.612 315.906 148.262V153.297C315.906 153.812 315.569 154.169 315.091 154.169ZM326.162 147.194C325.562 147.194 325.094 146.725 325.094 146.125C325.094 145.525 325.562 145.056 326.162 145.056C326.762 145.056 327.231 145.525 327.231 146.125C327.231 146.725 326.762 147.194 326.162 147.194ZM326.134 151.825C326.612 151.825 326.95 152.106 326.95 152.566C326.95 152.734 326.931 152.875 326.875 153.081L326.012 156.306C325.909 156.709 325.694 156.897 325.3 156.897C324.925 156.897 324.634 156.681 324.634 156.306C324.634 156.166 324.653 156.072 324.662 156.016L325.328 152.537C325.431 152.022 325.694 151.825 326.134 151.825ZM334.89 151.75V145.591H334.074C333.605 145.591 333.343 145.347 333.343 144.916C333.343 144.494 333.605 144.25 334.074 144.25H334.89V142.581C334.89 142.066 335.227 141.709 335.705 141.709C336.183 141.709 336.521 142.066 336.521 142.581V144.25H337.777C338.246 144.25 338.508 144.494 338.508 144.916C338.508 145.347 338.246 145.591 337.777 145.591H336.521V151.394C336.521 152.219 336.812 152.612 337.627 152.669L337.768 152.678C338.302 152.716 338.546 152.931 338.546 153.316C338.546 153.812 338.265 154.075 337.355 154.075H337.252C335.677 154.075 334.89 153.306 334.89 151.75ZM341.442 154.169C340.964 154.169 340.627 153.812 340.627 153.297V141.156C340.627 140.65 340.955 140.303 341.442 140.303C341.939 140.303 342.258 140.65 342.258 141.156V145.806H342.296C342.839 144.719 343.908 144.081 345.389 144.081C347.527 144.081 348.821 145.525 348.821 147.7V153.297C348.821 153.812 348.483 154.169 348.005 154.169C347.527 154.169 347.189 153.812 347.189 153.297V148C347.189 146.453 346.411 145.525 344.883 145.525C343.261 145.525 342.258 146.631 342.258 148.319V153.297C342.258 153.812 341.921 154.169 341.442 154.169ZM355.364 154.169C352.486 154.169 350.798 152.312 350.798 149.162C350.798 146.087 352.533 144.081 355.223 144.081C357.717 144.081 359.47 145.947 359.47 148.619C359.47 149.209 359.133 149.566 358.57 149.566H352.476C352.476 151.534 353.555 152.753 355.298 152.753C356.461 152.753 357.173 152.341 357.933 151.234C358.101 151 358.289 150.906 358.542 150.906C358.973 150.906 359.264 151.187 359.264 151.619C359.264 151.75 359.217 151.919 359.142 152.097C358.514 153.419 357.145 154.169 355.364 154.169ZM352.486 148.291H357.783C357.745 146.603 356.705 145.497 355.195 145.497C353.676 145.497 352.589 146.612 352.486 148.291ZM44.4 181.169C43.9031 181.169 43.5844 180.831 43.5844 180.306V172.591H42.7781C42.3563 172.591 42.0844 172.347 42.0844 171.925C42.0844 171.522 42.3563 171.25 42.7781 171.25H43.5844V170.162C43.5844 168.297 44.475 167.397 46.0688 167.397C46.9313 167.397 47.3906 167.678 47.3906 168.156C47.3906 168.456 47.25 168.644 46.95 168.728C46.8094 168.766 46.65 168.784 46.4438 168.784C45.5813 168.784 45.2063 169.216 45.2063 170.219V171.25H46.65C47.0719 171.25 47.3438 171.522 47.3438 171.925C47.3438 172.347 47.0719 172.591 46.65 172.591H45.2156V180.306C45.2156 180.831 44.8969 181.169 44.4 181.169ZM52.8465 181.169C50.1465 181.169 48.3278 179.228 48.3278 176.125C48.3278 173.012 50.1465 171.081 52.8465 171.081C55.5371 171.081 57.3559 173.012 57.3559 176.125C57.3559 179.228 55.5371 181.169 52.8465 181.169ZM52.8465 179.734C54.5715 179.734 55.6965 178.422 55.6965 176.125C55.6965 173.828 54.5715 172.516 52.8465 172.516C51.1215 172.516 49.9871 173.828 49.9871 176.125C49.9871 178.422 51.1215 179.734 52.8465 179.734ZM62.718 181.169C60.5899 181.169 59.343 179.791 59.343 177.578V171.953C59.343 171.437 59.6805 171.081 60.1586 171.081C60.6368 171.081 60.9743 171.437 60.9743 171.953V177.287C60.9743 178.872 61.7149 179.725 63.2243 179.725C64.8086 179.725 65.7649 178.637 65.7649 176.978V171.953C65.7649 171.437 66.1024 171.081 66.5805 171.081C67.0586 171.081 67.3961 171.437 67.3961 171.953V180.344C67.3961 180.812 67.0961 181.169 66.6274 181.169C66.1586 181.169 65.8493 180.812 65.8493 180.344V179.416H65.8118C65.2305 180.541 64.218 181.169 62.718 181.169ZM70.7145 181.169C70.2364 181.169 69.8989 180.812 69.8989 180.297V171.906C69.8989 171.419 70.2176 171.081 70.6676 171.081C71.1176 171.081 71.4364 171.419 71.4364 171.906V172.806H71.4739C72.0176 171.756 73.0583 171.081 74.5676 171.081C76.7051 171.081 77.9426 172.459 77.9426 174.672V180.297C77.9426 180.812 77.6051 181.169 77.127 181.169C76.6489 181.169 76.3114 180.812 76.3114 180.297V174.962C76.3114 173.387 75.5708 172.525 74.0708 172.525C72.5333 172.525 71.5301 173.612 71.5301 175.262V180.297C71.5301 180.812 71.1926 181.169 70.7145 181.169ZM84.1016 181.169C81.6172 181.169 79.9297 179.181 79.9297 176.125C79.9297 173.069 81.6079 171.081 84.0641 171.081C85.461 171.081 86.586 171.766 87.1672 172.834H87.2047V168.175C87.2047 167.659 87.5422 167.303 88.0204 167.303C88.4985 167.303 88.836 167.659 88.836 168.175V180.372C88.836 180.841 88.5079 181.169 88.0391 181.169C87.5797 181.169 87.2047 180.85 87.2047 180.372V179.256H87.1766C86.6422 180.419 85.6297 181.169 84.1016 181.169ZM84.411 179.734C86.0891 179.734 87.2141 178.309 87.2141 176.125C87.2141 173.95 86.0891 172.516 84.411 172.516C82.686 172.516 81.5985 173.922 81.5985 176.125C81.5985 178.337 82.686 179.734 84.411 179.734ZM95.5106 181.169C92.6325 181.169 90.945 179.312 90.945 176.162C90.945 173.087 92.6794 171.081 95.37 171.081C97.8638 171.081 99.6169 172.947 99.6169 175.619C99.6169 176.209 99.2794 176.566 98.7169 176.566H92.6231C92.6231 178.534 93.7013 179.753 95.445 179.753C96.6075 179.753 97.32 179.341 98.0794 178.234C98.2481 178 98.4356 177.906 98.6888 177.906C99.12 177.906 99.4106 178.187 99.4106 178.619C99.4106 178.75 99.3638 178.919 99.2888 179.097C98.6606 180.419 97.2919 181.169 95.5106 181.169ZM92.6325 175.291H97.9294C97.8919 173.603 96.8513 172.497 95.3419 172.497C93.8231 172.497 92.7356 173.612 92.6325 175.291ZM102.467 181.169C101.988 181.169 101.651 180.812 101.651 180.297V171.906C101.651 171.419 101.97 171.081 102.42 171.081C102.87 171.081 103.188 171.419 103.188 171.906V172.844H103.226C103.507 171.831 104.463 171.081 105.438 171.081C105.795 171.081 106.048 171.166 106.207 171.316C106.348 171.447 106.413 171.634 106.413 171.859C106.413 172.112 106.329 172.3 106.16 172.431C105.992 172.572 105.738 172.637 105.382 172.637C103.91 172.637 103.282 173.697 103.282 174.944V180.297C103.282 180.812 102.945 181.169 102.467 181.169ZM113.238 184.647C112.45 184.647 112.01 184.356 112.01 183.841C112.01 183.484 112.253 183.241 112.666 183.241C112.9 183.241 112.966 183.25 113.219 183.25C113.838 183.25 114.428 182.875 114.813 181.694L115.038 181.009L111.681 172.262C111.625 172.103 111.597 171.953 111.597 171.831C111.597 171.381 111.944 171.081 112.413 171.081C112.797 171.081 113.041 171.25 113.191 171.681L115.881 179.369H115.91L118.61 171.681C118.76 171.25 118.975 171.081 119.378 171.081C119.847 171.081 120.175 171.391 120.175 171.831C120.175 171.953 120.147 172.103 120.091 172.262L116.491 181.684C115.647 183.925 114.85 184.647 113.238 184.647ZM125.762 181.169C123.062 181.169 121.244 179.228 121.244 176.125C121.244 173.012 123.062 171.081 125.762 171.081C128.453 171.081 130.272 173.012 130.272 176.125C130.272 179.228 128.453 181.169 125.762 181.169ZM125.762 179.734C127.487 179.734 128.612 178.422 128.612 176.125C128.612 173.828 127.487 172.516 125.762 172.516C124.037 172.516 122.903 173.828 122.903 176.125C122.903 178.422 124.037 179.734 125.762 179.734ZM135.634 181.169C133.506 181.169 132.259 179.791 132.259 177.578V171.953C132.259 171.437 132.596 171.081 133.074 171.081C133.553 171.081 133.89 171.437 133.89 171.953V177.287C133.89 178.872 134.631 179.725 136.14 179.725C137.724 179.725 138.681 178.637 138.681 176.978V171.953C138.681 171.437 139.018 171.081 139.496 171.081C139.974 171.081 140.312 171.437 140.312 171.953V180.344C140.312 180.812 140.012 181.169 139.543 181.169C139.074 181.169 138.765 180.812 138.765 180.344V179.416H138.728C138.146 180.541 137.134 181.169 135.634 181.169ZM143.771 172.412C143.34 172.412 143.021 172.094 143.021 171.634V168.081C143.021 167.622 143.34 167.303 143.771 167.303C144.202 167.303 144.521 167.622 144.521 168.081V171.634C144.521 172.094 144.202 172.412 143.771 172.412ZM150.549 181.169C148.064 181.169 146.377 179.181 146.377 176.125C146.377 173.069 148.055 171.081 150.511 171.081C151.908 171.081 153.033 171.766 153.614 172.834H153.652V168.175C153.652 167.659 153.989 167.303 154.467 167.303C154.946 167.303 155.283 167.659 155.283 168.175V180.372C155.283 180.841 154.955 181.169 154.486 181.169C154.027 181.169 153.652 180.85 153.652 180.372V179.256H153.624C153.089 180.419 152.077 181.169 150.549 181.169ZM150.858 179.734C152.536 179.734 153.661 178.309 153.661 176.125C153.661 173.95 152.536 172.516 150.858 172.516C149.133 172.516 148.046 173.922 148.046 176.125C148.046 178.337 149.133 179.734 150.858 179.734ZM163.092 181.169C162.614 181.169 162.276 180.812 162.276 180.297V168.156C162.276 167.65 162.604 167.303 163.092 167.303C163.589 167.303 163.907 167.65 163.907 168.156V172.806H163.945C164.489 171.719 165.557 171.081 167.039 171.081C169.176 171.081 170.47 172.525 170.47 174.7V180.297C170.47 180.812 170.132 181.169 169.654 181.169C169.176 181.169 168.839 180.812 168.839 180.297V175C168.839 173.453 168.06 172.525 166.532 172.525C164.91 172.525 163.907 173.631 163.907 175.319V180.297C163.907 180.812 163.57 181.169 163.092 181.169ZM175.766 181.169C173.826 181.169 172.523 179.997 172.523 178.244C172.523 176.575 173.807 175.525 176.057 175.394L178.86 175.234V174.419C178.86 173.228 178.073 172.516 176.723 172.516C175.663 172.516 174.941 172.9 174.398 173.866C174.248 174.137 174.032 174.259 173.723 174.259C173.301 174.259 173.001 173.969 173.001 173.528C173.001 173.322 173.066 173.087 173.198 172.853C173.751 171.784 175.176 171.081 176.76 171.081C179.048 171.081 180.491 172.319 180.491 174.259V180.344C180.491 180.831 180.173 181.169 179.723 181.169C179.263 181.169 178.944 180.831 178.944 180.344V179.322H178.907C178.326 180.437 177.079 181.169 175.766 181.169ZM176.132 179.781C177.669 179.781 178.86 178.703 178.86 177.297V176.5L176.244 176.659C174.932 176.744 174.182 177.325 174.182 178.244C174.182 179.172 174.96 179.781 176.132 179.781ZM186.519 181.169C185.985 181.169 185.685 180.934 185.45 180.344L182.347 172.253C182.291 172.112 182.263 171.972 182.263 171.831C182.263 171.381 182.591 171.081 183.078 171.081C183.444 171.081 183.688 171.278 183.838 171.7L186.51 179.266H186.547L189.228 171.7C189.378 171.278 189.622 171.081 189.978 171.081C190.466 171.081 190.785 171.381 190.785 171.831C190.785 171.972 190.757 172.112 190.7 172.253L187.607 180.344C187.391 180.906 187.044 181.169 186.519 181.169ZM196.419 181.169C193.541 181.169 191.853 179.312 191.853 176.162C191.853 173.087 193.587 171.081 196.278 171.081C198.772 171.081 200.525 172.947 200.525 175.619C200.525 176.209 200.187 176.566 199.625 176.566H193.531C193.531 178.534 194.609 179.753 196.353 179.753C197.516 179.753 198.228 179.341 198.987 178.234C199.156 178 199.344 177.906 199.597 177.906C200.028 177.906 200.319 178.187 200.319 178.619C200.319 178.75 200.272 178.919 200.197 179.097C199.569 180.419 198.2 181.169 196.419 181.169ZM193.541 175.291H198.837C198.8 173.603 197.759 172.497 196.25 172.497C194.731 172.497 193.644 173.612 193.541 175.291ZM207.78 181.169C207.302 181.169 206.965 180.812 206.965 180.297V168.156C206.965 167.65 207.293 167.303 207.78 167.303C208.277 167.303 208.596 167.65 208.596 168.156V172.806H208.633C209.177 171.719 210.246 171.081 211.727 171.081C213.865 171.081 215.158 172.525 215.158 174.7V180.297C215.158 180.812 214.821 181.169 214.343 181.169C213.865 181.169 213.527 180.812 213.527 180.297V175C213.527 173.453 212.749 172.525 211.221 172.525C209.599 172.525 208.596 173.631 208.596 175.319V180.297C208.596 180.812 208.258 181.169 207.78 181.169ZM220.455 181.169C218.514 181.169 217.211 179.997 217.211 178.244C217.211 176.575 218.496 175.525 220.746 175.394L223.549 175.234V174.419C223.549 173.228 222.761 172.516 221.411 172.516C220.352 172.516 219.63 172.9 219.086 173.866C218.936 174.137 218.721 174.259 218.411 174.259C217.989 174.259 217.689 173.969 217.689 173.528C217.689 173.322 217.755 173.087 217.886 172.853C218.439 171.784 219.864 171.081 221.449 171.081C223.736 171.081 225.18 172.319 225.18 174.259V180.344C225.18 180.831 224.861 181.169 224.411 181.169C223.952 181.169 223.633 180.831 223.633 180.344V179.322H223.596C223.014 180.437 221.768 181.169 220.455 181.169ZM220.821 179.781C222.358 179.781 223.549 178.703 223.549 177.297V176.5L220.933 176.659C219.621 176.744 218.871 177.325 218.871 178.244C218.871 179.172 219.649 179.781 220.821 179.781ZM228.536 181.169C228.058 181.169 227.72 180.812 227.72 180.297V168.175C227.72 167.659 228.058 167.303 228.536 167.303C229.014 167.303 229.352 167.659 229.352 168.175V180.297C229.352 180.812 229.014 181.169 228.536 181.169ZM233.279 181.169C232.782 181.169 232.464 180.831 232.464 180.306V172.591H231.657C231.236 172.591 230.964 172.347 230.964 171.925C230.964 171.522 231.236 171.25 231.657 171.25H232.464V170.162C232.464 168.297 233.354 167.397 234.948 167.397C235.811 167.397 236.27 167.678 236.27 168.156C236.27 168.456 236.129 168.644 235.829 168.728C235.689 168.766 235.529 168.784 235.323 168.784C234.461 168.784 234.086 169.216 234.086 170.219V171.25H235.529C235.951 171.25 236.223 171.522 236.223 171.925C236.223 172.347 235.951 172.591 235.529 172.591H234.095V180.306C234.095 180.831 233.776 181.169 233.279 181.169ZM238.426 176.275C237.966 176.275 237.62 175.975 237.62 175.516C237.62 175.056 237.966 174.756 238.426 174.756H243.245C243.704 174.756 244.051 175.056 244.051 175.516C244.051 175.975 243.704 176.275 243.245 176.275H238.426ZM247.294 181.169C246.816 181.169 246.479 180.812 246.479 180.297V168.156C246.479 167.65 246.807 167.303 247.294 167.303C247.791 167.303 248.11 167.65 248.11 168.156V172.806H248.147C248.691 171.719 249.76 171.081 251.241 171.081C253.379 171.081 254.672 172.525 254.672 174.7V180.297C254.672 180.812 254.335 181.169 253.857 181.169C253.379 181.169 253.041 180.812 253.041 180.297V175C253.041 173.453 252.263 172.525 250.735 172.525C249.113 172.525 248.11 173.631 248.11 175.319V180.297C248.11 180.812 247.772 181.169 247.294 181.169ZM261.216 181.169C258.338 181.169 256.65 179.312 256.65 176.162C256.65 173.087 258.384 171.081 261.075 171.081C263.569 171.081 265.322 172.947 265.322 175.619C265.322 176.209 264.984 176.566 264.422 176.566H258.328C258.328 178.534 259.406 179.753 261.15 179.753C262.313 179.753 263.025 179.341 263.784 178.234C263.953 178 264.141 177.906 264.394 177.906C264.825 177.906 265.116 178.187 265.116 178.619C265.116 178.75 265.069 178.919 264.994 179.097C264.366 180.419 262.997 181.169 261.216 181.169ZM258.338 175.291H263.634C263.597 173.603 262.556 172.497 261.047 172.497C259.528 172.497 258.441 173.612 258.338 175.291ZM270.197 181.169C268.256 181.169 266.953 179.997 266.953 178.244C266.953 176.575 268.237 175.525 270.487 175.394L273.29 175.234V174.419C273.29 173.228 272.503 172.516 271.153 172.516C270.093 172.516 269.372 172.9 268.828 173.866C268.678 174.137 268.462 174.259 268.153 174.259C267.731 174.259 267.431 173.969 267.431 173.528C267.431 173.322 267.497 173.087 267.628 172.853C268.181 171.784 269.606 171.081 271.19 171.081C273.478 171.081 274.922 172.319 274.922 174.259V180.344C274.922 180.831 274.603 181.169 274.153 181.169C273.693 181.169 273.375 180.831 273.375 180.344V179.322H273.337C272.756 180.437 271.509 181.169 270.197 181.169ZM270.562 179.781C272.1 179.781 273.29 178.703 273.29 177.297V176.5L270.675 176.659C269.362 176.744 268.612 177.325 268.612 178.244C268.612 179.172 269.39 179.781 270.562 179.781ZM278.193 181.169C277.715 181.169 277.377 180.812 277.377 180.297V171.906C277.377 171.419 277.696 171.081 278.146 171.081C278.596 171.081 278.915 171.419 278.915 171.906V172.844H278.952C279.234 171.831 280.19 171.081 281.165 171.081C281.521 171.081 281.774 171.166 281.934 171.316C282.074 171.447 282.14 171.634 282.14 171.859C282.14 172.112 282.056 172.3 281.887 172.431C281.718 172.572 281.465 172.637 281.109 172.637C279.637 172.637 279.009 173.697 279.009 174.944V180.297C279.009 180.812 278.671 181.169 278.193 181.169ZM286.911 181.169C284.427 181.169 282.74 179.181 282.74 176.125C282.74 173.069 284.418 171.081 286.874 171.081C288.271 171.081 289.396 171.766 289.977 172.834H290.015V168.175C290.015 167.659 290.352 167.303 290.83 167.303C291.308 167.303 291.646 167.659 291.646 168.175V180.372C291.646 180.841 291.318 181.169 290.849 181.169C290.39 181.169 290.015 180.85 290.015 180.372V179.256H289.986C289.452 180.419 288.44 181.169 286.911 181.169ZM287.221 179.734C288.899 179.734 290.024 178.309 290.024 176.125C290.024 173.95 288.899 172.516 287.221 172.516C285.496 172.516 284.408 173.922 284.408 176.125C284.408 178.337 285.496 179.734 287.221 179.734ZM301.395 181.169C299.454 181.169 298.151 179.997 298.151 178.244C298.151 176.575 299.436 175.525 301.686 175.394L304.489 175.234V174.419C304.489 173.228 303.701 172.516 302.351 172.516C301.292 172.516 300.57 172.9 300.026 173.866C299.876 174.137 299.661 174.259 299.351 174.259C298.929 174.259 298.629 173.969 298.629 173.528C298.629 173.322 298.695 173.087 298.826 172.853C299.379 171.784 300.804 171.081 302.389 171.081C304.676 171.081 306.12 172.319 306.12 174.259V180.344C306.12 180.831 305.801 181.169 305.351 181.169C304.892 181.169 304.573 180.831 304.573 180.344V179.322H304.536C303.954 180.437 302.708 181.169 301.395 181.169ZM301.761 179.781C303.298 179.781 304.489 178.703 304.489 177.297V176.5L301.873 176.659C300.561 176.744 299.811 177.325 299.811 178.244C299.811 179.172 300.589 179.781 301.761 179.781ZM309.101 178.75V172.591H308.285C307.817 172.591 307.554 172.347 307.554 171.916C307.554 171.494 307.817 171.25 308.285 171.25H309.101V169.581C309.101 169.066 309.438 168.709 309.917 168.709C310.395 168.709 310.732 169.066 310.732 169.581V171.25H311.988C312.457 171.25 312.72 171.494 312.72 171.916C312.72 172.347 312.457 172.591 311.988 172.591H310.732V178.394C310.732 179.219 311.023 179.612 311.838 179.669L311.979 179.678C312.513 179.716 312.757 179.931 312.757 180.316C312.757 180.812 312.476 181.075 311.567 181.075H311.463C309.888 181.075 309.101 180.306 309.101 178.75ZM319.891 184.441C319.413 184.441 319.075 184.084 319.075 183.569V171.906C319.075 171.419 319.394 171.081 319.853 171.081C320.303 171.081 320.622 171.419 320.622 171.906V172.9H320.659C321.259 171.803 322.394 171.081 323.809 171.081C326.294 171.081 327.981 173.069 327.981 176.125C327.981 179.181 326.303 181.169 323.847 181.169C322.45 181.169 321.325 180.484 320.744 179.416H320.706V183.569C320.706 184.084 320.369 184.441 319.891 184.441ZM323.491 179.734C325.225 179.734 326.313 178.337 326.313 176.125C326.313 173.922 325.225 172.516 323.491 172.516C321.822 172.516 320.697 173.959 320.697 176.125C320.697 178.3 321.822 179.734 323.491 179.734ZM330.915 169.609C330.362 169.609 329.903 169.15 329.903 168.597C329.903 168.034 330.362 167.584 330.915 167.584C331.478 167.584 331.937 168.034 331.937 168.597C331.937 169.15 331.478 169.609 330.915 169.609ZM330.915 181.169C330.437 181.169 330.1 180.812 330.1 180.297V171.953C330.1 171.437 330.437 171.081 330.915 171.081C331.394 171.081 331.731 171.437 331.731 171.953V180.297C331.731 180.812 331.394 181.169 330.915 181.169ZM334.843 178.75V172.591H334.028C333.559 172.591 333.296 172.347 333.296 171.916C333.296 171.494 333.559 171.25 334.028 171.25H334.843V169.581C334.843 169.066 335.181 168.709 335.659 168.709C336.137 168.709 336.474 169.066 336.474 169.581V171.25H337.731C338.199 171.25 338.462 171.494 338.462 171.916C338.462 172.347 338.199 172.591 337.731 172.591H336.474V178.394C336.474 179.219 336.765 179.612 337.581 179.669L337.721 179.678C338.256 179.716 338.499 179.931 338.499 180.316C338.499 180.812 338.218 181.075 337.309 181.075H337.206C335.631 181.075 334.843 180.306 334.843 178.75ZM344.237 181.169C341.537 181.169 339.737 179.228 339.737 176.144C339.737 173.078 341.518 171.081 344.218 171.081C346.055 171.081 347.658 172.122 348.033 173.472C348.071 173.594 348.09 173.716 348.09 173.819C348.09 174.25 347.818 174.531 347.396 174.531C347.04 174.531 346.843 174.381 346.618 173.959C346.102 172.994 345.362 172.516 344.237 172.516C342.54 172.516 341.396 173.941 341.396 176.125C341.396 178.366 342.558 179.734 344.237 179.734C345.408 179.734 346.121 179.228 346.627 178.291C346.862 177.85 347.04 177.719 347.396 177.719C347.818 177.719 348.099 178.009 348.099 178.431C348.099 178.553 348.071 178.694 348.024 178.844C347.555 180.194 346.008 181.169 344.237 181.169ZM351.117 181.169C350.639 181.169 350.302 180.812 350.302 180.297V168.156C350.302 167.65 350.63 167.303 351.117 167.303C351.614 167.303 351.933 167.65 351.933 168.156V172.806H351.971C352.514 171.719 353.583 171.081 355.064 171.081C357.202 171.081 358.496 172.525 358.496 174.7V180.297C358.496 180.812 358.158 181.169 357.68 181.169C357.202 181.169 356.864 180.812 356.864 180.297V175C356.864 173.453 356.086 172.525 354.558 172.525C352.936 172.525 351.933 173.631 351.933 175.319V180.297C351.933 180.812 351.596 181.169 351.117 181.169ZM44.4 208.169C43.9031 208.169 43.5844 207.831 43.5844 207.306V199.591H42.7781C42.3563 199.591 42.0844 199.347 42.0844 198.925C42.0844 198.522 42.3563 198.25 42.7781 198.25H43.5844V197.162C43.5844 195.297 44.475 194.397 46.0688 194.397C46.9313 194.397 47.3906 194.678 47.3906 195.156C47.3906 195.456 47.25 195.644 46.95 195.728C46.8094 195.766 46.65 195.784 46.4438 195.784C45.5813 195.784 45.2063 196.216 45.2063 197.219V198.25H46.65C47.0719 198.25 47.3438 198.522 47.3438 198.925C47.3438 199.347 47.0719 199.591 46.65 199.591H45.2156V207.306C45.2156 207.831 44.8969 208.169 44.4 208.169ZM50.1746 196.609C49.6215 196.609 49.1621 196.15 49.1621 195.597C49.1621 195.034 49.6215 194.584 50.1746 194.584C50.7371 194.584 51.1965 195.034 51.1965 195.597C51.1965 196.15 50.7371 196.609 50.1746 196.609ZM50.1746 208.169C49.6965 208.169 49.359 207.812 49.359 207.297V198.953C49.359 198.437 49.6965 198.081 50.1746 198.081C50.6528 198.081 50.9903 198.437 50.9903 198.953V207.297C50.9903 207.812 50.6528 208.169 50.1746 208.169ZM57.1493 208.169C56.6149 208.169 56.3149 207.934 56.0805 207.344L52.9774 199.253C52.9211 199.112 52.893 198.972 52.893 198.831C52.893 198.381 53.2211 198.081 53.7086 198.081C54.0743 198.081 54.318 198.278 54.468 198.7L57.1399 206.266H57.1774L59.8586 198.7C60.0086 198.278 60.2524 198.081 60.6086 198.081C61.0961 198.081 61.4149 198.381 61.4149 198.831C61.4149 198.972 61.3868 199.112 61.3305 199.253L58.2368 207.344C58.0211 207.906 57.6743 208.169 57.1493 208.169ZM67.0489 208.169C64.1708 208.169 62.4833 206.312 62.4833 203.162C62.4833 200.087 64.2176 198.081 66.9083 198.081C69.402 198.081 71.1551 199.947 71.1551 202.619C71.1551 203.209 70.8176 203.566 70.2551 203.566H64.1614C64.1614 205.534 65.2395 206.753 66.9833 206.753C68.1458 206.753 68.8583 206.341 69.6176 205.234C69.7864 205 69.9739 204.906 70.227 204.906C70.6583 204.906 70.9489 205.187 70.9489 205.619C70.9489 205.75 70.902 205.919 70.827 206.097C70.1989 207.419 68.8301 208.169 67.0489 208.169ZM64.1708 202.291H69.4676C69.4301 200.603 68.3895 199.497 66.8801 199.497C65.3614 199.497 64.2739 200.612 64.1708 202.291ZM78.3263 208.169C77.8481 208.169 77.5106 207.812 77.5106 207.297V198.906C77.5106 198.419 77.8294 198.081 78.2794 198.081C78.7294 198.081 79.0481 198.419 79.0481 198.906V199.806H79.0856C79.6294 198.756 80.67 198.081 82.1794 198.081C84.3169 198.081 85.5544 199.459 85.5544 201.672V207.297C85.5544 207.812 85.2169 208.169 84.7388 208.169C84.2606 208.169 83.9231 207.812 83.9231 207.297V201.962C83.9231 200.387 83.1825 199.525 81.6825 199.525C80.145 199.525 79.1419 200.612 79.1419 202.262V207.297C79.1419 207.812 78.8044 208.169 78.3263 208.169ZM92.0603 208.169C89.3603 208.169 87.5415 206.228 87.5415 203.125C87.5415 200.012 89.3603 198.081 92.0603 198.081C94.7509 198.081 96.5696 200.012 96.5696 203.125C96.5696 206.228 94.7509 208.169 92.0603 208.169ZM92.0603 206.734C93.7853 206.734 94.9103 205.422 94.9103 203.125C94.9103 200.828 93.7853 199.516 92.0603 199.516C90.3353 199.516 89.2009 200.828 89.2009 203.125C89.2009 205.422 90.3353 206.734 92.0603 206.734ZM101.351 208.169C100.835 208.169 100.526 207.925 100.366 207.381L97.9849 199.206C97.938 199.047 97.9193 198.906 97.9193 198.784C97.9193 198.353 98.2286 198.081 98.7161 198.081C99.1193 198.081 99.3349 198.269 99.4568 198.747L101.379 206.181H101.416L103.46 198.812C103.591 198.334 103.919 198.081 104.416 198.081C104.904 198.081 105.213 198.325 105.344 198.803L107.407 206.181H107.444L109.366 198.747C109.488 198.269 109.704 198.081 110.107 198.081C110.594 198.081 110.904 198.353 110.904 198.784C110.904 198.906 110.885 199.047 110.838 199.206L108.457 207.381C108.307 207.906 107.969 208.169 107.463 208.169C106.919 208.169 106.61 207.934 106.451 207.381L104.426 200.453H104.388L102.372 207.381C102.222 207.897 101.866 208.169 101.351 208.169ZM120.99 211.675C119.359 211.656 118 211.009 117.315 209.931C117.184 209.725 117.128 209.538 117.128 209.322C117.128 208.909 117.428 208.619 117.859 208.619C118.131 208.619 118.29 208.713 118.543 208.994C119.378 209.913 120.062 210.269 121.056 210.288C122.8 210.316 123.859 209.313 123.859 207.859V206.322H123.822C123.222 207.381 122.059 208.075 120.69 208.075C118.206 208.075 116.575 206.116 116.575 203.087C116.575 200.031 118.206 198.081 120.728 198.081C122.106 198.081 123.184 198.756 123.831 199.853H123.859V198.925C123.859 198.419 124.206 198.081 124.675 198.081C125.144 198.081 125.49 198.419 125.49 198.925V207.803C125.49 210.128 123.765 211.703 120.99 211.675ZM121.018 206.641C122.715 206.641 123.859 205.234 123.859 203.087C123.859 200.941 122.715 199.516 121.018 199.516C119.34 199.516 118.243 200.903 118.243 203.087C118.243 205.272 119.34 206.641 121.018 206.641ZM132.081 208.169C129.203 208.169 127.515 206.312 127.515 203.162C127.515 200.087 129.249 198.081 131.94 198.081C134.434 198.081 136.187 199.947 136.187 202.619C136.187 203.209 135.849 203.566 135.287 203.566H129.193C129.193 205.534 130.271 206.753 132.015 206.753C133.178 206.753 133.89 206.341 134.649 205.234C134.818 205 135.006 204.906 135.259 204.906C135.69 204.906 135.981 205.187 135.981 205.619C135.981 205.75 135.934 205.919 135.859 206.097C135.231 207.419 133.862 208.169 132.081 208.169ZM129.203 202.291H134.499C134.462 200.603 133.421 199.497 131.912 199.497C130.393 199.497 129.306 200.612 129.203 202.291ZM138.746 205.75V199.591H137.93C137.461 199.591 137.199 199.347 137.199 198.916C137.199 198.494 137.461 198.25 137.93 198.25H138.746V196.581C138.746 196.066 139.083 195.709 139.561 195.709C140.04 195.709 140.377 196.066 140.377 196.581V198.25H141.633C142.102 198.25 142.365 198.494 142.365 198.916C142.365 199.347 142.102 199.591 141.633 199.591H140.377V205.394C140.377 206.219 140.668 206.612 141.483 206.669L141.624 206.678C142.158 206.716 142.402 206.931 142.402 207.316C142.402 207.812 142.121 208.075 141.211 208.075H141.108C139.533 208.075 138.746 207.306 138.746 205.75ZM147.783 208.169C146.049 208.169 144.689 207.391 144.221 206.172C144.164 206.031 144.146 205.909 144.146 205.787C144.146 205.356 144.464 205.112 144.886 205.112C145.177 205.112 145.411 205.262 145.599 205.6C146.086 206.453 146.667 206.837 147.914 206.837C149.161 206.837 150.005 206.294 150.005 205.384C150.005 204.681 149.602 204.306 148.505 204.034L147.014 203.659C145.13 203.191 144.221 202.3 144.221 200.931C144.221 199.234 145.711 198.081 147.914 198.081C149.517 198.081 150.942 198.981 151.196 200.153C151.214 200.247 151.224 200.322 151.224 200.397C151.224 200.781 150.98 201.034 150.586 201.034C150.267 201.034 150.042 200.931 149.864 200.594C149.442 199.778 148.814 199.422 147.821 199.422C146.649 199.422 145.833 200.012 145.833 200.847C145.833 201.522 146.358 201.991 147.427 202.253L148.88 202.609C150.914 203.106 151.664 203.819 151.664 205.253C151.664 206.997 150.099 208.169 147.783 208.169ZM159.004 211.647C158.217 211.647 157.776 211.356 157.776 210.841C157.776 210.484 158.02 210.241 158.432 210.241C158.667 210.241 158.732 210.25 158.985 210.25C159.604 210.25 160.195 209.875 160.579 208.694L160.804 208.009L157.448 199.262C157.392 199.103 157.364 198.953 157.364 198.831C157.364 198.381 157.71 198.081 158.179 198.081C158.564 198.081 158.807 198.25 158.957 198.681L161.648 206.369H161.676L164.376 198.681C164.526 198.25 164.742 198.081 165.145 198.081C165.614 198.081 165.942 198.391 165.942 198.831C165.942 198.953 165.914 199.103 165.857 199.262L162.257 208.684C161.414 210.925 160.617 211.647 159.004 211.647ZM171.529 208.169C168.829 208.169 167.01 206.228 167.01 203.125C167.01 200.012 168.829 198.081 171.529 198.081C174.219 198.081 176.038 200.012 176.038 203.125C176.038 206.228 174.219 208.169 171.529 208.169ZM171.529 206.734C173.254 206.734 174.379 205.422 174.379 203.125C174.379 200.828 173.254 199.516 171.529 199.516C169.804 199.516 168.669 200.828 168.669 203.125C168.669 205.422 169.804 206.734 171.529 206.734ZM181.4 208.169C179.272 208.169 178.025 206.791 178.025 204.578V198.953C178.025 198.437 178.363 198.081 178.841 198.081C179.319 198.081 179.657 198.437 179.657 198.953V204.287C179.657 205.872 180.397 206.725 181.907 206.725C183.491 206.725 184.447 205.637 184.447 203.978V198.953C184.447 198.437 184.785 198.081 185.263 198.081C185.741 198.081 186.078 198.437 186.078 198.953V207.344C186.078 207.812 185.778 208.169 185.31 208.169C184.841 208.169 184.532 207.812 184.532 207.344V206.416H184.494C183.913 207.541 182.9 208.169 181.4 208.169ZM189.397 208.169C188.919 208.169 188.581 207.812 188.581 207.297V198.906C188.581 198.419 188.9 198.081 189.35 198.081C189.8 198.081 190.119 198.419 190.119 198.906V199.844H190.156C190.437 198.831 191.394 198.081 192.369 198.081C192.725 198.081 192.978 198.166 193.137 198.316C193.278 198.447 193.344 198.634 193.344 198.859C193.344 199.112 193.259 199.3 193.091 199.431C192.922 199.572 192.669 199.637 192.312 199.637C190.841 199.637 190.212 200.697 190.212 201.944V207.297C190.212 207.812 189.875 208.169 189.397 208.169ZM200.027 211.441C199.549 211.441 199.212 211.084 199.212 210.569V198.906C199.212 198.419 199.53 198.081 199.99 198.081C200.44 198.081 200.759 198.419 200.759 198.906V199.9H200.796C201.396 198.803 202.53 198.081 203.946 198.081C206.43 198.081 208.118 200.069 208.118 203.125C208.118 206.181 206.44 208.169 203.984 208.169C202.587 208.169 201.462 207.484 200.88 206.416H200.843V210.569C200.843 211.084 200.505 211.441 200.027 211.441ZM203.627 206.734C205.362 206.734 206.449 205.337 206.449 203.125C206.449 200.922 205.362 199.516 203.627 199.516C201.959 199.516 200.834 200.959 200.834 203.125C200.834 205.3 201.959 206.734 203.627 206.734ZM211.052 196.609C210.499 196.609 210.039 196.15 210.039 195.597C210.039 195.034 210.499 194.584 211.052 194.584C211.614 194.584 212.074 195.034 212.074 195.597C212.074 196.15 211.614 196.609 211.052 196.609ZM211.052 208.169C210.574 208.169 210.236 207.812 210.236 207.297V198.953C210.236 198.437 210.574 198.081 211.052 198.081C211.53 198.081 211.867 198.437 211.867 198.953V207.297C211.867 207.812 211.53 208.169 211.052 208.169ZM214.98 205.75V199.591H214.164C213.695 199.591 213.433 199.347 213.433 198.916C213.433 198.494 213.695 198.25 214.164 198.25H214.98V196.581C214.98 196.066 215.317 195.709 215.795 195.709C216.273 195.709 216.611 196.066 216.611 196.581V198.25H217.867C218.336 198.25 218.598 198.494 218.598 198.916C218.598 199.347 218.336 199.591 217.867 199.591H216.611V205.394C216.611 206.219 216.901 206.612 217.717 206.669L217.858 206.678C218.392 206.716 218.636 206.931 218.636 207.316C218.636 207.812 218.355 208.075 217.445 208.075H217.342C215.767 208.075 214.98 207.306 214.98 205.75ZM224.373 208.169C221.673 208.169 219.873 206.228 219.873 203.144C219.873 200.078 221.654 198.081 224.354 198.081C226.192 198.081 227.795 199.122 228.17 200.472C228.207 200.594 228.226 200.716 228.226 200.819C228.226 201.25 227.954 201.531 227.532 201.531C227.176 201.531 226.979 201.381 226.754 200.959C226.239 199.994 225.498 199.516 224.373 199.516C222.676 199.516 221.532 200.941 221.532 203.125C221.532 205.366 222.695 206.734 224.373 206.734C225.545 206.734 226.257 206.228 226.764 205.291C226.998 204.85 227.176 204.719 227.532 204.719C227.954 204.719 228.236 205.009 228.236 205.431C228.236 205.553 228.207 205.694 228.161 205.844C227.692 207.194 226.145 208.169 224.373 208.169ZM231.254 208.169C230.776 208.169 230.438 207.812 230.438 207.297V195.156C230.438 194.65 230.766 194.303 231.254 194.303C231.751 194.303 232.07 194.65 232.07 195.156V199.806H232.107C232.651 198.719 233.72 198.081 235.201 198.081C237.338 198.081 238.632 199.525 238.632 201.7V207.297C238.632 207.812 238.295 208.169 237.816 208.169C237.338 208.169 237.001 207.812 237.001 207.297V202C237.001 200.453 236.223 199.525 234.695 199.525C233.073 199.525 232.07 200.631 232.07 202.319V207.297C232.07 207.812 231.732 208.169 231.254 208.169ZM241.735 203.275C241.275 203.275 240.929 202.975 240.929 202.516C240.929 202.056 241.275 201.756 241.735 201.756H246.554C247.013 201.756 247.36 202.056 247.36 202.516C247.36 202.975 247.013 203.275 246.554 203.275H241.735ZM253.744 208.169C251.044 208.169 249.225 206.228 249.225 203.125C249.225 200.012 251.044 198.081 253.744 198.081C256.434 198.081 258.253 200.012 258.253 203.125C258.253 206.228 256.434 208.169 253.744 208.169ZM253.744 206.734C255.469 206.734 256.594 205.422 256.594 203.125C256.594 200.828 255.469 199.516 253.744 199.516C252.019 199.516 250.884 200.828 250.884 203.125C250.884 205.422 252.019 206.734 253.744 206.734ZM261.103 208.169C260.625 208.169 260.287 207.812 260.287 207.297V198.906C260.287 198.419 260.606 198.081 261.056 198.081C261.506 198.081 261.825 198.419 261.825 198.906V199.806H261.862C262.406 198.756 263.447 198.081 264.956 198.081C267.093 198.081 268.331 199.459 268.331 201.672V207.297C268.331 207.812 267.993 208.169 267.515 208.169C267.037 208.169 266.7 207.812 266.7 207.297V201.962C266.7 200.387 265.959 199.525 264.459 199.525C262.922 199.525 261.918 200.612 261.918 202.262V207.297C261.918 207.812 261.581 208.169 261.103 208.169ZM274.884 208.169C272.006 208.169 270.318 206.312 270.318 203.162C270.318 200.087 272.052 198.081 274.743 198.081C277.237 198.081 278.99 199.947 278.99 202.619C278.99 203.209 278.652 203.566 278.09 203.566H271.996C271.996 205.534 273.074 206.753 274.818 206.753C275.981 206.753 276.693 206.341 277.452 205.234C277.621 205 277.809 204.906 278.062 204.906C278.493 204.906 278.784 205.187 278.784 205.619C278.784 205.75 278.737 205.919 278.662 206.097C278.034 207.419 276.665 208.169 274.884 208.169ZM272.006 202.291H277.302C277.265 200.603 276.224 199.497 274.715 199.497C273.196 199.497 272.109 200.612 272.006 202.291ZM288.186 208.169C286.245 208.169 284.942 206.997 284.942 205.244C284.942 203.575 286.227 202.525 288.477 202.394L291.28 202.234V201.419C291.28 200.228 290.492 199.516 289.142 199.516C288.083 199.516 287.361 199.9 286.817 200.866C286.667 201.137 286.452 201.259 286.142 201.259C285.72 201.259 285.42 200.969 285.42 200.528C285.42 200.322 285.486 200.087 285.617 199.853C286.17 198.784 287.595 198.081 289.18 198.081C291.467 198.081 292.911 199.319 292.911 201.259V207.344C292.911 207.831 292.592 208.169 292.142 208.169C291.683 208.169 291.364 207.831 291.364 207.344V206.322H291.327C290.745 207.437 289.499 208.169 288.186 208.169ZM288.552 206.781C290.089 206.781 291.28 205.703 291.28 204.297V203.5L288.664 203.659C287.352 203.744 286.602 204.325 286.602 205.244C286.602 206.172 287.38 206.781 288.552 206.781ZM295.892 205.75V199.591H295.076C294.608 199.591 294.345 199.347 294.345 198.916C294.345 198.494 294.608 198.25 295.076 198.25H295.892V196.581C295.892 196.066 296.229 195.709 296.708 195.709C297.186 195.709 297.523 196.066 297.523 196.581V198.25H298.779C299.248 198.25 299.511 198.494 299.511 198.916C299.511 199.347 299.248 199.591 298.779 199.591H297.523V205.394C297.523 206.219 297.814 206.612 298.629 206.669L298.77 206.678C299.304 206.716 299.548 206.931 299.548 207.316C299.548 207.812 299.267 208.075 298.358 208.075H298.254C296.679 208.075 295.892 207.306 295.892 205.75ZM302.07 205.75V199.591H301.254C300.785 199.591 300.523 199.347 300.523 198.916C300.523 198.494 300.785 198.25 301.254 198.25H302.07V196.581C302.07 196.066 302.407 195.709 302.885 195.709C303.363 195.709 303.701 196.066 303.701 196.581V198.25H304.957C305.426 198.25 305.688 198.494 305.688 198.916C305.688 199.347 305.426 199.591 304.957 199.591H303.701V205.394C303.701 206.219 303.992 206.612 304.807 206.669L304.948 206.678C305.482 206.716 305.726 206.931 305.726 207.316C305.726 207.812 305.445 208.075 304.535 208.075H304.432C302.857 208.075 302.07 207.306 302.07 205.75ZM311.529 208.169C308.651 208.169 306.963 206.312 306.963 203.162C306.963 200.087 308.697 198.081 311.388 198.081C313.882 198.081 315.635 199.947 315.635 202.619C315.635 203.209 315.297 203.566 314.735 203.566H308.641C308.641 205.534 309.719 206.753 311.463 206.753C312.626 206.753 313.338 206.341 314.097 205.234C314.266 205 314.454 204.906 314.707 204.906C315.138 204.906 315.429 205.187 315.429 205.619C315.429 205.75 315.382 205.919 315.307 206.097C314.679 207.419 313.31 208.169 311.529 208.169ZM308.651 202.291H313.947C313.91 200.603 312.869 199.497 311.36 199.497C309.841 199.497 308.754 200.612 308.651 202.291ZM318.484 208.169C318.006 208.169 317.669 207.812 317.669 207.297V198.906C317.669 198.419 317.988 198.081 318.438 198.081C318.888 198.081 319.206 198.419 319.206 198.906V199.806H319.244C319.788 198.756 320.828 198.081 322.338 198.081C324.475 198.081 325.713 199.459 325.713 201.672V207.297C325.713 207.812 325.375 208.169 324.897 208.169C324.419 208.169 324.081 207.812 324.081 207.297V201.962C324.081 200.387 323.341 199.525 321.841 199.525C320.303 199.525 319.3 200.612 319.3 202.262V207.297C319.3 207.812 318.963 208.169 318.484 208.169ZM328.703 205.75V199.591H327.887C327.418 199.591 327.156 199.347 327.156 198.916C327.156 198.494 327.418 198.25 327.887 198.25H328.703V196.581C328.703 196.066 329.04 195.709 329.518 195.709C329.997 195.709 330.334 196.066 330.334 196.581V198.25H331.59C332.059 198.25 332.322 198.494 332.322 198.916C332.322 199.347 332.059 199.591 331.59 199.591H330.334V205.394C330.334 206.219 330.625 206.612 331.44 206.669L331.581 206.678C332.115 206.716 332.359 206.931 332.359 207.316C332.359 207.812 332.078 208.075 331.168 208.075H331.065C329.49 208.075 328.703 207.306 328.703 205.75ZM335.256 196.609C334.703 196.609 334.243 196.15 334.243 195.597C334.243 195.034 334.703 194.584 335.256 194.584C335.818 194.584 336.278 195.034 336.278 195.597C336.278 196.15 335.818 196.609 335.256 196.609ZM335.256 208.169C334.778 208.169 334.44 207.812 334.44 207.297V198.953C334.44 198.437 334.778 198.081 335.256 198.081C335.734 198.081 336.071 198.437 336.071 198.953V207.297C336.071 207.812 335.734 208.169 335.256 208.169ZM342.699 208.169C339.999 208.169 338.18 206.228 338.18 203.125C338.18 200.012 339.999 198.081 342.699 198.081C345.39 198.081 347.208 200.012 347.208 203.125C347.208 206.228 345.39 208.169 342.699 208.169ZM342.699 206.734C344.424 206.734 345.549 205.422 345.549 203.125C345.549 200.828 344.424 199.516 342.699 199.516C340.974 199.516 339.84 200.828 339.84 203.125C339.84 205.422 340.974 206.734 342.699 206.734ZM350.058 208.169C349.58 208.169 349.242 207.812 349.242 207.297V198.906C349.242 198.419 349.561 198.081 350.011 198.081C350.461 198.081 350.78 198.419 350.78 198.906V199.806H350.817C351.361 198.756 352.402 198.081 353.911 198.081C356.049 198.081 357.286 199.459 357.286 201.672V207.297C357.286 207.812 356.949 208.169 356.471 208.169C355.992 208.169 355.655 207.812 355.655 207.297V201.962C355.655 200.387 354.914 199.525 353.414 199.525C351.877 199.525 350.874 200.612 350.874 202.262V207.297C350.874 207.812 350.536 208.169 350.058 208.169ZM361.13 208.094C360.53 208.094 360.061 207.625 360.061 207.025C360.061 206.425 360.53 205.956 361.13 205.956C361.73 205.956 362.198 206.425 362.198 207.025C362.198 207.625 361.73 208.094 361.13 208.094Z" fill="#B1E080"/>
</svg>
