<svg width="307" height="156" viewBox="0 0 307 156" fill="none" xmlns="http://www.w3.org/2000/svg">
<g filter="url(#filter0_d_1220_20205)">
<rect x="24.5" y="24.5" width="218" height="67" rx="10" fill="white"/>
<rect x="25" y="25" width="217" height="66" rx="9.5" stroke="#1A1A1A" stroke-opacity="0.08"/>
<circle cx="42.828" cy="43.7728" r="2.79997" fill="#86DA19" stroke="#6AB50A" stroke-width="0.509086"/>
<path d="M51.2581 45.8483C50.8412 45.8483 50.4769 45.7535 50.1652 45.564C49.8536 45.3745 49.6114 45.1091 49.4387 44.768C49.2661 44.4269 49.1797 44.0289 49.1797 43.5741C49.1797 43.1234 49.2661 42.7254 49.4387 42.3801C49.6156 42.0347 49.8662 41.7652 50.1905 41.5715C50.519 41.3735 50.9064 41.2746 51.3529 41.2746C51.854 41.2746 52.2731 41.3967 52.61 41.641C52.9469 41.881 53.1638 42.2158 53.2607 42.6454H52.5405C52.4773 42.4011 52.3447 42.2095 52.1425 42.0705C51.9404 41.9273 51.675 41.8558 51.3465 41.8558C51.0349 41.8558 50.7633 41.9252 50.5316 42.0642C50.3042 42.2032 50.1294 42.4011 50.0073 42.658C49.8852 42.9149 49.8241 43.2203 49.8241 43.5741C49.8241 43.932 49.8852 44.2395 50.0073 44.4964C50.1294 44.7533 50.3021 44.9491 50.5253 45.0839C50.7485 45.2186 51.0054 45.286 51.296 45.286C51.7424 45.286 52.0772 45.1576 52.3005 44.9007C52.5279 44.6438 52.6605 44.3005 52.6984 43.871H51.4792V43.3845H53.3365V45.7725H52.7616L52.7048 45.0965C52.6037 45.2608 52.4858 45.3997 52.351 45.5135C52.2204 45.623 52.0667 45.7072 51.8898 45.7661C51.7129 45.8209 51.5024 45.8483 51.2581 45.8483ZM54.1683 45.7725V41.3504H54.9137L56.4109 44.3384L57.9018 41.3504H58.6536V45.7725H58.0218V42.4559L56.651 45.1534H56.1646L54.8 42.4622V45.7725H54.1683ZM60.5959 45.8483C60.3348 45.8483 60.1179 45.804 59.9452 45.7156C59.7726 45.6272 59.6441 45.5092 59.5599 45.3618C59.4757 45.2102 59.4335 45.0481 59.4335 44.8754C59.4335 44.6648 59.4883 44.4858 59.5978 44.3384C59.7073 44.1868 59.8631 44.071 60.0653 43.991C60.2674 43.911 60.5096 43.871 60.7918 43.871H61.6193C61.6193 43.6857 61.5919 43.5319 61.5372 43.4098C61.4824 43.2877 61.4003 43.1971 61.2908 43.1382C61.1855 43.075 61.0508 43.0434 60.8865 43.0434C60.697 43.0434 60.5349 43.0897 60.4001 43.1824C60.2653 43.2708 60.1811 43.4035 60.1474 43.5804H59.5157C59.5409 43.3572 59.6167 43.1676 59.7431 43.0118C59.8736 42.8518 60.04 42.7296 60.2422 42.6454C60.4443 42.557 60.6591 42.5127 60.8865 42.5127C61.1855 42.5127 61.4361 42.5654 61.6383 42.6707C61.8404 42.776 61.992 42.9255 62.0931 43.1192C62.1984 43.3087 62.251 43.5361 62.251 43.8015V45.7725H61.7014L61.6509 45.2355C61.6046 45.3197 61.5498 45.3997 61.4867 45.4755C61.4235 45.5514 61.3477 45.6166 61.2592 45.6714C61.175 45.7261 61.076 45.7682 60.9623 45.7977C60.8528 45.8314 60.7307 45.8483 60.5959 45.8483ZM60.7159 45.3366C60.8507 45.3366 60.9729 45.3092 61.0823 45.2544C61.1918 45.1997 61.2845 45.126 61.3603 45.0333C61.4403 44.9365 61.4993 44.8291 61.5372 44.7112C61.5793 44.589 61.6025 44.4648 61.6067 44.3384V44.3195H60.8549C60.6738 44.3195 60.5264 44.3427 60.4127 44.389C60.3032 44.4311 60.2232 44.4901 60.1727 44.5659C60.1221 44.6417 60.0969 44.7301 60.0969 44.8312C60.0969 44.9365 60.12 45.027 60.1663 45.1028C60.2169 45.1744 60.2885 45.2313 60.3811 45.2734C60.4738 45.3155 60.5854 45.3366 60.7159 45.3366ZM63.1016 45.7725V42.5886H63.7333V45.7725H63.1016ZM63.4238 41.9884C63.3017 41.9884 63.2006 41.9505 63.1206 41.8747C63.0448 41.7989 63.0068 41.702 63.0068 41.5841C63.0068 41.4704 63.0448 41.3777 63.1206 41.3062C63.2006 41.2303 63.3017 41.1924 63.4238 41.1924C63.5417 41.1924 63.6407 41.2303 63.7207 41.3062C63.8007 41.3777 63.8407 41.4704 63.8407 41.5841C63.8407 41.702 63.8007 41.7989 63.7207 41.8747C63.6407 41.9505 63.5417 41.9884 63.4238 41.9884ZM64.6367 45.7725V41.224H65.2684V45.7725H64.6367Z" fill="#1A1A1A"/>
<path opacity="0.4" d="M69.9763 45.7725L69.0243 42.5307H69.6611L70.3686 45.2322L70.2464 45.2257L71.0311 42.5307H71.7515L72.5362 45.2257L72.414 45.2322L73.1151 42.5307H73.7648L72.8128 45.7725H72.1503L71.327 42.9616H71.4556L70.6323 45.7725H69.9763ZM75.7116 45.8496C75.4071 45.8496 75.1327 45.7789 74.8883 45.6374C74.6481 45.4959 74.4573 45.2986 74.3158 45.0456C74.1786 44.7884 74.11 44.4925 74.11 44.158C74.11 43.815 74.1807 43.5169 74.3222 43.264C74.4637 43.0067 74.6567 42.8073 74.9011 42.6658C75.1455 42.5243 75.42 42.4535 75.7244 42.4535C76.0332 42.4535 76.3076 42.5243 76.5477 42.6658C76.7879 42.8073 76.9765 43.0045 77.1137 43.2575C77.2553 43.5105 77.326 43.8085 77.326 44.1516C77.326 44.4946 77.2553 44.7926 77.1137 45.0456C76.9765 45.2986 76.7857 45.4959 76.5413 45.6374C76.2969 45.7789 76.0203 45.8496 75.7116 45.8496ZM75.7116 45.2965C75.8874 45.2965 76.046 45.2536 76.1875 45.1678C76.3333 45.0821 76.4491 44.9556 76.5349 44.7884C76.6249 44.6168 76.6699 44.4046 76.6699 44.1516C76.6699 43.8986 76.6271 43.6885 76.5413 43.5212C76.4555 43.3497 76.3398 43.2211 76.194 43.1353C76.0525 43.0496 75.8959 43.0067 75.7244 43.0067C75.5529 43.0067 75.3942 43.0496 75.2484 43.1353C75.1027 43.2211 74.9847 43.3497 74.8947 43.5212C74.8089 43.6885 74.766 43.8986 74.766 44.1516C74.766 44.4046 74.8089 44.6168 74.8947 44.7884C74.9847 44.9556 75.1005 45.0821 75.242 45.1678C75.3878 45.2536 75.5443 45.2965 75.7116 45.2965ZM78.0826 45.7725V42.5307H78.6615L78.7194 43.1417C78.7923 42.996 78.8866 42.8737 79.0024 42.7751C79.1182 42.6722 79.2533 42.5929 79.4076 42.5371C79.5663 42.4814 79.7464 42.4535 79.9479 42.4535V43.1353H79.7164C79.5834 43.1353 79.4569 43.1525 79.3369 43.1868C79.2168 43.2168 79.1096 43.2704 79.0153 43.3476C78.9252 43.4248 78.8545 43.5298 78.803 43.6627C78.7516 43.7957 78.7258 43.9608 78.7258 44.158V45.7725H78.0826ZM82.5776 45.7725L81.0853 43.9972L82.4361 42.5307H83.2144L81.6063 44.2481V43.7657L83.388 45.7725H82.5776ZM80.5386 45.7725V41.1414H81.1818V45.7725H80.5386Z" fill="#1A1A1A"/>
<path opacity="0.4" d="M88.3943 45.3286V42.4857H88.9604V45.3286H88.3943ZM87.1787 44.1773V43.637H90.1825V44.1773H87.1787ZM91.4598 45.7725V41.9968L90.6751 42.1962V41.7138L91.6978 41.27H92.1159V45.7725H91.4598ZM93.5704 45.7725V41.9968L92.7856 42.1962V41.7138L93.8083 41.27H94.2264V45.7725H93.5704ZM97.2117 45.7725V44.8527H94.9541V44.351L97.1088 41.27H97.8485V44.2931H98.4917V44.8527H97.8485V45.7725H97.2117ZM95.6551 44.2931H97.2503V41.9775L95.6551 44.2931ZM100.711 45.8496C100.394 45.8496 100.122 45.7939 99.8945 45.6824C99.6672 45.5666 99.4871 45.4123 99.3542 45.2193C99.2213 45.0221 99.1398 44.8012 99.1098 44.5568H99.7401C99.783 44.7755 99.8902 44.9556 100.062 45.0971C100.233 45.2343 100.45 45.3029 100.711 45.3029C100.909 45.3029 101.078 45.2558 101.219 45.1614C101.361 45.0671 101.47 44.9406 101.548 44.7819C101.625 44.6233 101.663 44.4475 101.663 44.2545C101.663 44.0487 101.623 43.8707 101.541 43.7206C101.464 43.5663 101.355 43.4462 101.213 43.3604C101.076 43.2747 100.915 43.2318 100.731 43.2318C100.508 43.2318 100.315 43.2833 100.152 43.3862C99.9931 43.4848 99.8773 43.6113 99.8044 43.7657H99.1805L99.5536 41.27H101.978V41.8296H100.049L99.8109 43.0903C99.9138 42.9745 100.051 42.8802 100.223 42.8073C100.398 42.7344 100.598 42.6979 100.821 42.6979C101.048 42.6979 101.252 42.7387 101.432 42.8201C101.612 42.8973 101.764 43.0067 101.888 43.1482C102.017 43.2897 102.114 43.4548 102.178 43.6434C102.246 43.8321 102.281 44.0315 102.281 44.2416C102.281 44.4689 102.244 44.679 102.171 44.872C102.099 45.0649 101.993 45.2365 101.856 45.3865C101.723 45.5323 101.558 45.646 101.361 45.7274C101.168 45.8089 100.951 45.8496 100.711 45.8496ZM104.54 45.8496C104.253 45.8496 103.989 45.7982 103.749 45.6953C103.513 45.5881 103.324 45.4294 103.183 45.2193C103.046 45.0049 102.973 44.7369 102.964 44.4153H103.607C103.612 44.5782 103.65 44.7262 103.723 44.8591C103.796 44.992 103.901 45.0992 104.038 45.1807C104.18 45.2579 104.347 45.2965 104.54 45.2965C104.733 45.2965 104.894 45.26 105.022 45.1871C105.155 45.1142 105.254 45.0156 105.318 44.8913C105.387 44.7669 105.421 44.6276 105.421 44.4732C105.421 44.2802 105.374 44.1237 105.28 44.0036C105.19 43.8836 105.065 43.7935 104.907 43.7335C104.752 43.6735 104.579 43.6434 104.386 43.6434H104.051V43.1032H104.386C104.656 43.1032 104.87 43.041 105.029 42.9166C105.192 42.7923 105.273 42.6165 105.273 42.3892C105.273 42.2005 105.211 42.0462 105.087 41.9261C104.962 41.806 104.78 41.746 104.54 41.746C104.3 41.746 104.109 41.8146 103.968 41.9518C103.83 42.089 103.753 42.2627 103.736 42.4728H103.099C103.112 42.2198 103.179 41.9968 103.299 41.8039C103.423 41.6066 103.59 41.4565 103.8 41.3536C104.015 41.2464 104.261 41.1928 104.54 41.1928C104.84 41.1928 105.091 41.2464 105.293 41.3536C105.498 41.4565 105.653 41.5959 105.756 41.7717C105.863 41.9475 105.917 42.1405 105.917 42.3506C105.917 42.5093 105.887 42.6572 105.827 42.7944C105.766 42.9273 105.681 43.0431 105.569 43.1417C105.458 43.2404 105.323 43.3111 105.164 43.354C105.336 43.3883 105.49 43.4548 105.627 43.5534C105.764 43.652 105.872 43.7807 105.949 43.9393C106.026 44.0937 106.064 44.2738 106.064 44.4796C106.064 44.724 106.007 44.9513 105.891 45.1614C105.775 45.3672 105.604 45.5345 105.376 45.6631C105.153 45.7875 104.875 45.8496 104.54 45.8496Z" fill="#1A1A1A"/>
<path d="M40.9974 59.8818V55.1858L40.0214 55.4338V54.8338L41.2934 54.2818H41.8134V59.8818H40.9974ZM45.1664 59.9778C44.6704 59.9778 44.2438 59.8578 43.8864 59.6178C43.5291 59.3725 43.2544 59.0338 43.0624 58.6018C42.8704 58.1645 42.7744 57.6578 42.7744 57.0818C42.7744 56.5058 42.8704 56.0018 43.0624 55.5698C43.2544 55.1325 43.5291 54.7938 43.8864 54.5538C44.2438 54.3085 44.6704 54.1858 45.1664 54.1858C45.6624 54.1858 46.0864 54.3085 46.4384 54.5538C46.7958 54.7938 47.0678 55.1325 47.2544 55.5698C47.4464 56.0018 47.5424 56.5058 47.5424 57.0818C47.5424 57.6578 47.4464 58.1645 47.2544 58.6018C47.0678 59.0338 46.7958 59.3725 46.4384 59.6178C46.0864 59.8578 45.6624 59.9778 45.1664 59.9778ZM45.1664 59.2658C45.4651 59.2658 45.7318 59.1778 45.9664 59.0018C46.2064 58.8258 46.3931 58.5752 46.5264 58.2498C46.6598 57.9245 46.7264 57.5352 46.7264 57.0818C46.7264 56.6285 46.6598 56.2392 46.5264 55.9138C46.3931 55.5885 46.2064 55.3405 45.9664 55.1698C45.7318 54.9938 45.4651 54.9058 45.1664 54.9058C44.8624 54.9058 44.5904 54.9938 44.3504 55.1698C44.1104 55.3405 43.9238 55.5885 43.7904 55.9138C43.6571 56.2392 43.5904 56.6285 43.5904 57.0818C43.5904 57.5352 43.6571 57.9245 43.7904 58.2498C43.9238 58.5752 44.1104 58.8258 44.3504 59.0018C44.5904 59.1778 44.8624 59.2658 45.1664 59.2658ZM48.7859 59.9218C48.6312 59.9218 48.5032 59.8738 48.4019 59.7778C48.3059 59.6765 48.2579 59.5565 48.2579 59.4178C48.2579 59.2738 48.3059 59.1538 48.4019 59.0578C48.5032 58.9565 48.6312 58.9058 48.7859 58.9058C48.9405 58.9058 49.0659 58.9565 49.1619 59.0578C49.2579 59.1538 49.3059 59.2738 49.3059 59.4178C49.3059 59.5565 49.2579 59.6765 49.1619 59.7778C49.0659 59.8738 48.9405 59.9218 48.7859 59.9218ZM48.7859 56.7698C48.6312 56.7698 48.5032 56.7218 48.4019 56.6258C48.3059 56.5245 48.2579 56.4045 48.2579 56.2658C48.2579 56.1218 48.3059 56.0018 48.4019 55.9058C48.5032 55.8045 48.6312 55.7538 48.7859 55.7538C48.9405 55.7538 49.0659 55.8045 49.1619 55.9058C49.2579 56.0018 49.3059 56.1218 49.3059 56.2658C49.3059 56.4045 49.2579 56.5245 49.1619 56.6258C49.0659 56.7218 48.9405 56.7698 48.7859 56.7698ZM52.4321 59.9778C51.9361 59.9778 51.5094 59.8578 51.1521 59.6178C50.7947 59.3725 50.5201 59.0338 50.3281 58.6018C50.1361 58.1645 50.0401 57.6578 50.0401 57.0818C50.0401 56.5058 50.1361 56.0018 50.3281 55.5698C50.5201 55.1325 50.7947 54.7938 51.1521 54.5538C51.5094 54.3085 51.9361 54.1858 52.4321 54.1858C52.9281 54.1858 53.3521 54.3085 53.7041 54.5538C54.0614 54.7938 54.3334 55.1325 54.5201 55.5698C54.7121 56.0018 54.8081 56.5058 54.8081 57.0818C54.8081 57.6578 54.7121 58.1645 54.5201 58.6018C54.3334 59.0338 54.0614 59.3725 53.7041 59.6178C53.3521 59.8578 52.9281 59.9778 52.4321 59.9778ZM52.4321 59.2658C52.7307 59.2658 52.9974 59.1778 53.2321 59.0018C53.4721 58.8258 53.6587 58.5752 53.7921 58.2498C53.9254 57.9245 53.9921 57.5352 53.9921 57.0818C53.9921 56.6285 53.9254 56.2392 53.7921 55.9138C53.6587 55.5885 53.4721 55.3405 53.2321 55.1698C52.9974 54.9938 52.7307 54.9058 52.4321 54.9058C52.1281 54.9058 51.8561 54.9938 51.6161 55.1698C51.3761 55.3405 51.1894 55.5885 51.0561 55.9138C50.9227 56.2392 50.8561 56.6285 50.8561 57.0818C50.8561 57.5352 50.9227 57.9245 51.0561 58.2498C51.1894 58.5752 51.3761 58.8258 51.6161 59.0018C51.8561 59.1778 52.1281 59.2658 52.4321 59.2658ZM57.9555 59.9778C57.4595 59.9778 57.0328 59.8578 56.6755 59.6178C56.3182 59.3725 56.0435 59.0338 55.8515 58.6018C55.6595 58.1645 55.5635 57.6578 55.5635 57.0818C55.5635 56.5058 55.6595 56.0018 55.8515 55.5698C56.0435 55.1325 56.3182 54.7938 56.6755 54.5538C57.0328 54.3085 57.4595 54.1858 57.9555 54.1858C58.4515 54.1858 58.8755 54.3085 59.2275 54.5538C59.5848 54.7938 59.8568 55.1325 60.0435 55.5698C60.2355 56.0018 60.3315 56.5058 60.3315 57.0818C60.3315 57.6578 60.2355 58.1645 60.0435 58.6018C59.8568 59.0338 59.5848 59.3725 59.2275 59.6178C58.8755 59.8578 58.4515 59.9778 57.9555 59.9778ZM57.9555 59.2658C58.2542 59.2658 58.5208 59.1778 58.7555 59.0018C58.9955 58.8258 59.1822 58.5752 59.3155 58.2498C59.4488 57.9245 59.5155 57.5352 59.5155 57.0818C59.5155 56.6285 59.4488 56.2392 59.3155 55.9138C59.1822 55.5885 58.9955 55.3405 58.7555 55.1698C58.5208 54.9938 58.2542 54.9058 57.9555 54.9058C57.6515 54.9058 57.3795 54.9938 57.1395 55.1698C56.8995 55.3405 56.7128 55.5885 56.5795 55.9138C56.4462 56.2392 56.3795 56.6285 56.3795 57.0818C56.3795 57.5352 56.4462 57.9245 56.5795 58.2498C56.7128 58.5752 56.8995 58.8258 57.1395 59.0018C57.3795 59.1778 57.6515 59.2658 57.9555 59.2658ZM62.9818 59.8818L65.0378 54.2818H65.9098L67.9658 59.8818H67.1098L65.4698 55.2418L63.8218 59.8818H62.9818ZM63.9098 58.4978L64.1338 57.8578H66.7658L66.9898 58.4978H63.9098ZM68.7637 59.8818V54.2818H69.7077L71.6037 58.0658L73.4917 54.2818H74.4437V59.8818H73.6437V55.6818L71.9077 59.0978H71.2917L69.5637 55.6898V59.8818H68.7637ZM77.6543 60.6818V54.1218H78.4543V60.6818H77.6543ZM85.6299 60.6818L83.7019 57.6498H84.6219L86.5659 60.6818H85.6299ZM84.1899 59.9778C83.6513 59.9778 83.1766 59.8578 82.7659 59.6178C82.3606 59.3725 82.0406 59.0338 81.8059 58.6018C81.5766 58.1645 81.4619 57.6578 81.4619 57.0818C81.4619 56.5112 81.5766 56.0098 81.8059 55.5778C82.0406 55.1405 82.3606 54.7992 82.7659 54.5538C83.1766 54.3085 83.6513 54.1858 84.1899 54.1858C84.7393 54.1858 85.2193 54.3085 85.6299 54.5538C86.0406 54.7992 86.3579 55.1405 86.5819 55.5778C86.8113 56.0098 86.9259 56.5112 86.9259 57.0818C86.9259 57.6578 86.8113 58.1645 86.5819 58.6018C86.3579 59.0338 86.0406 59.3725 85.6299 59.6178C85.2193 59.8578 84.7393 59.9778 84.1899 59.9778ZM84.1979 59.2658C84.5819 59.2658 84.9179 59.1778 85.2059 59.0018C85.4939 58.8258 85.7153 58.5752 85.8699 58.2498C86.0299 57.9245 86.1099 57.5352 86.1099 57.0818C86.1099 56.6285 86.0299 56.2392 85.8699 55.9138C85.7153 55.5885 85.4939 55.3405 85.2059 55.1698C84.9179 54.9938 84.5819 54.9058 84.1979 54.9058C83.8139 54.9058 83.4779 54.9938 83.1899 55.1698C82.9019 55.3405 82.6779 55.5885 82.5179 55.9138C82.3579 56.2392 82.2779 56.6285 82.2779 57.0818C82.2779 57.5352 82.3579 57.9245 82.5179 58.2498C82.6779 58.5752 82.9019 58.8258 83.1899 59.0018C83.4779 59.1778 83.8139 59.2658 84.1979 59.2658ZM88.5287 59.8818V55.1858L87.5527 55.4338V54.8338L88.8247 54.2818H89.3447V59.8818H88.5287ZM94.3926 59.9778C93.9819 59.9778 93.6219 59.9058 93.3126 59.7618C93.0032 59.6125 92.7632 59.4045 92.5926 59.1378C92.4219 58.8712 92.3366 58.5592 92.3366 58.2018H93.1766C93.1819 58.4045 93.2299 58.5912 93.3206 58.7618C93.4166 58.9272 93.5526 59.0605 93.7286 59.1618C93.9099 59.2578 94.1312 59.3058 94.3926 59.3058C94.6166 59.3058 94.8086 59.2685 94.9686 59.1938C95.1339 59.1192 95.2592 59.0178 95.3446 58.8898C95.4299 58.7565 95.4726 58.6045 95.4726 58.4338C95.4726 58.2365 95.4272 58.0738 95.3366 57.9458C95.2459 57.8178 95.1232 57.7138 94.9686 57.6338C94.8192 57.5485 94.6432 57.4738 94.4406 57.4098C94.2432 57.3458 94.0352 57.2765 93.8166 57.2018C93.3739 57.0578 93.0432 56.8712 92.8246 56.6418C92.6112 56.4125 92.5046 56.1138 92.5046 55.7458C92.5046 55.4312 92.5792 55.1592 92.7286 54.9298C92.8779 54.6952 93.0859 54.5138 93.3526 54.3858C93.6246 54.2525 93.9446 54.1858 94.3126 54.1858C94.6752 54.1858 94.9926 54.2525 95.2646 54.3858C95.5366 54.5192 95.7499 54.7032 95.9046 54.9378C96.0592 55.1725 96.1366 55.4472 96.1366 55.7618H95.2886C95.2886 55.6178 95.2512 55.4765 95.1766 55.3378C95.1019 55.1992 94.9899 55.0872 94.8406 55.0018C94.6912 54.9112 94.5072 54.8658 94.2886 54.8658C94.1072 54.8605 93.9446 54.8898 93.8006 54.9538C93.6566 55.0178 93.5446 55.1112 93.4646 55.2338C93.3846 55.3565 93.3446 55.5032 93.3446 55.6738C93.3446 55.8445 93.3792 55.9832 93.4486 56.0898C93.5232 56.1912 93.6299 56.2792 93.7686 56.3538C93.9072 56.4285 94.0672 56.4978 94.2486 56.5618C94.4352 56.6205 94.6406 56.6872 94.8646 56.7618C95.1419 56.8525 95.3872 56.9645 95.6006 57.0978C95.8192 57.2258 95.9899 57.3938 96.1126 57.6018C96.2406 57.8045 96.3046 58.0658 96.3046 58.3858C96.3046 58.6632 96.2326 58.9218 96.0886 59.1618C95.9446 59.4018 95.7312 59.5992 95.4486 59.7538C95.1659 59.9032 94.8139 59.9778 94.3926 59.9778ZM98.5519 59.9778C98.2212 59.9778 97.9465 59.9218 97.7279 59.8098C97.5092 59.6978 97.3465 59.5485 97.2399 59.3618C97.1332 59.1698 97.0799 58.9645 97.0799 58.7458C97.0799 58.4792 97.1492 58.2525 97.2879 58.0658C97.4265 57.8738 97.6239 57.7272 97.8799 57.6258C98.1359 57.5245 98.4425 57.4738 98.7999 57.4738H99.8479C99.8479 57.2392 99.8132 57.0445 99.7439 56.8898C99.6745 56.7352 99.5705 56.6205 99.4319 56.5458C99.2985 56.4658 99.1279 56.4258 98.9199 56.4258C98.6799 56.4258 98.4745 56.4845 98.3039 56.6018C98.1332 56.7138 98.0265 56.8818 97.9839 57.1058H97.1839C97.2159 56.8232 97.3119 56.5832 97.4719 56.3858C97.6372 56.1832 97.8479 56.0285 98.1039 55.9218C98.3599 55.8098 98.6319 55.7538 98.9199 55.7538C99.2985 55.7538 99.6159 55.8205 99.8719 55.9538C100.128 56.0872 100.32 56.2765 100.448 56.5218C100.581 56.7618 100.648 57.0498 100.648 57.3858V59.8818H99.9519L99.8879 59.2018C99.8292 59.3085 99.7599 59.4098 99.6799 59.5058C99.5999 59.6018 99.5039 59.6845 99.3919 59.7538C99.2852 59.8232 99.1599 59.8765 99.0159 59.9138C98.8772 59.9565 98.7225 59.9778 98.5519 59.9778ZM98.7039 59.3298C98.8745 59.3298 99.0292 59.2952 99.1679 59.2258C99.3065 59.1565 99.4239 59.0632 99.5199 58.9458C99.6212 58.8232 99.6959 58.6872 99.7439 58.5378C99.7972 58.3832 99.8265 58.2258 99.8319 58.0658V58.0418H98.8799C98.6505 58.0418 98.4639 58.0712 98.3199 58.1298C98.1812 58.1832 98.0799 58.2578 98.0159 58.3538C97.9519 58.4498 97.9199 58.5618 97.9199 58.6898C97.9199 58.8232 97.9492 58.9378 98.0079 59.0338C98.0719 59.1245 98.1625 59.1965 98.2799 59.2498C98.3972 59.3032 98.5385 59.3298 98.7039 59.3298ZM101.669 59.8818V54.1218H102.469V59.8818H101.669ZM105.391 59.9778C105.007 59.9778 104.666 59.8898 104.367 59.7138C104.069 59.5378 103.834 59.2925 103.663 58.9778C103.498 58.6632 103.415 58.2978 103.415 57.8818C103.415 57.4552 103.498 57.0845 103.663 56.7698C103.834 56.4498 104.069 56.2018 104.367 56.0258C104.666 55.8445 105.013 55.7538 105.407 55.7538C105.802 55.7538 106.141 55.8418 106.423 56.0178C106.706 56.1938 106.925 56.4285 107.079 56.7218C107.234 57.0098 107.311 57.3298 107.311 57.6818C107.311 57.7352 107.309 57.7938 107.303 57.8578C107.303 57.9165 107.301 57.9832 107.295 58.0578H103.999V57.4898H106.511C106.495 57.1538 106.383 56.8925 106.175 56.7058C105.967 56.5138 105.709 56.4178 105.399 56.4178C105.181 56.4178 104.981 56.4685 104.799 56.5698C104.618 56.6658 104.471 56.8098 104.359 57.0018C104.253 57.1885 104.199 57.4258 104.199 57.7138V57.9378C104.199 58.2365 104.253 58.4898 104.359 58.6978C104.471 58.9005 104.618 59.0552 104.799 59.1618C104.981 59.2632 105.178 59.3138 105.391 59.3138C105.647 59.3138 105.858 59.2578 106.023 59.1458C106.189 59.0338 106.311 58.8818 106.391 58.6898H107.191C107.122 58.9352 107.005 59.1565 106.839 59.3538C106.674 59.5458 106.469 59.6978 106.223 59.8098C105.983 59.9218 105.706 59.9778 105.391 59.9778ZM109.76 59.9778C109.419 59.9778 109.12 59.9218 108.864 59.8098C108.608 59.6978 108.406 59.5405 108.256 59.3378C108.107 59.1352 108.016 58.8978 107.984 58.6258H108.8C108.827 58.7538 108.878 58.8712 108.952 58.9778C109.032 59.0845 109.139 59.1698 109.272 59.2338C109.411 59.2978 109.574 59.3298 109.76 59.3298C109.936 59.3298 110.08 59.3058 110.192 59.2578C110.31 59.2045 110.395 59.1352 110.448 59.0498C110.502 58.9592 110.528 58.8632 110.528 58.7618C110.528 58.6125 110.491 58.5005 110.416 58.4258C110.347 58.3458 110.24 58.2845 110.096 58.2418C109.958 58.1938 109.79 58.1512 109.592 58.1138C109.406 58.0818 109.224 58.0392 109.048 57.9858C108.878 57.9272 108.723 57.8552 108.584 57.7698C108.451 57.6845 108.344 57.5778 108.264 57.4498C108.184 57.3165 108.144 57.1538 108.144 56.9618C108.144 56.7325 108.206 56.5272 108.328 56.3458C108.451 56.1592 108.624 56.0152 108.848 55.9138C109.078 55.8072 109.347 55.7538 109.656 55.7538C110.104 55.7538 110.464 55.8605 110.736 56.0738C111.008 56.2872 111.168 56.5885 111.216 56.9778H110.44C110.419 56.7965 110.339 56.6578 110.2 56.5618C110.062 56.4605 109.878 56.4098 109.648 56.4098C109.419 56.4098 109.243 56.4552 109.12 56.5458C108.998 56.6365 108.936 56.7565 108.936 56.9058C108.936 57.0018 108.971 57.0872 109.04 57.1618C109.11 57.2365 109.211 57.3005 109.344 57.3538C109.483 57.4018 109.651 57.4472 109.848 57.4898C110.131 57.5432 110.384 57.6098 110.608 57.6898C110.832 57.7698 111.011 57.8872 111.144 58.0418C111.278 58.1965 111.344 58.4178 111.344 58.7058C111.35 58.9565 111.286 59.1778 111.152 59.3698C111.024 59.5618 110.84 59.7112 110.6 59.8178C110.366 59.9245 110.086 59.9778 109.76 59.9778ZM114.373 59.8818V54.2818H116.269C116.712 54.2818 117.074 54.3565 117.357 54.5058C117.64 54.6552 117.848 54.8552 117.981 55.1058C118.12 55.3512 118.189 55.6312 118.189 55.9458C118.189 56.2445 118.12 56.5218 117.981 56.7778C117.848 57.0285 117.637 57.2312 117.349 57.3858C117.061 57.5352 116.693 57.6098 116.245 57.6098H115.173V59.8818H114.373ZM117.317 59.8818L116.109 57.3938H116.989L118.245 59.8818H117.317ZM115.173 57.0018H116.213C116.608 57.0018 116.898 56.9058 117.085 56.7138C117.272 56.5165 117.365 56.2658 117.365 55.9618C117.365 55.6525 117.274 55.4072 117.093 55.2258C116.912 55.0445 116.618 54.9538 116.213 54.9538H115.173V57.0018ZM120.766 59.9778C120.382 59.9778 120.041 59.8898 119.742 59.7138C119.444 59.5378 119.209 59.2925 119.038 58.9778C118.873 58.6632 118.79 58.2978 118.79 57.8818C118.79 57.4552 118.873 57.0845 119.038 56.7698C119.209 56.4498 119.444 56.2018 119.742 56.0258C120.041 55.8445 120.388 55.7538 120.782 55.7538C121.177 55.7538 121.516 55.8418 121.798 56.0178C122.081 56.1938 122.3 56.4285 122.454 56.7218C122.609 57.0098 122.686 57.3298 122.686 57.6818C122.686 57.7352 122.684 57.7938 122.678 57.8578C122.678 57.9165 122.676 57.9832 122.67 58.0578H119.374V57.4898H121.886C121.87 57.1538 121.758 56.8925 121.55 56.7058C121.342 56.5138 121.084 56.4178 120.774 56.4178C120.556 56.4178 120.356 56.4685 120.174 56.5698C119.993 56.6658 119.846 56.8098 119.734 57.0018C119.628 57.1885 119.574 57.4258 119.574 57.7138V57.9378C119.574 58.2365 119.628 58.4898 119.734 58.6978C119.846 58.9005 119.993 59.0552 120.174 59.1618C120.356 59.2632 120.553 59.3138 120.766 59.3138C121.022 59.3138 121.233 59.2578 121.398 59.1458C121.564 59.0338 121.686 58.8818 121.766 58.6898H122.566C122.497 58.9352 122.38 59.1565 122.214 59.3538C122.049 59.5458 121.844 59.6978 121.598 59.8098C121.358 59.9218 121.081 59.9778 120.766 59.9778ZM124.563 59.8818L123.051 55.8498H123.891L125.035 59.1138L126.187 55.8498H127.011L125.507 59.8818H124.563ZM127.788 59.8818V55.8498H128.588V59.8818H127.788ZM128.196 55.0898C128.041 55.0898 127.913 55.0418 127.812 54.9458C127.716 54.8498 127.668 54.7272 127.668 54.5778C127.668 54.4338 127.716 54.3165 127.812 54.2258C127.913 54.1298 128.041 54.0818 128.196 54.0818C128.345 54.0818 128.47 54.1298 128.572 54.2258C128.673 54.3165 128.724 54.4338 128.724 54.5778C128.724 54.7272 128.673 54.8498 128.572 54.9458C128.47 55.0418 128.345 55.0898 128.196 55.0898ZM131.556 59.9778C131.172 59.9778 130.83 59.8898 130.532 59.7138C130.233 59.5378 129.998 59.2925 129.828 58.9778C129.662 58.6632 129.58 58.2978 129.58 57.8818C129.58 57.4552 129.662 57.0845 129.828 56.7698C129.998 56.4498 130.233 56.2018 130.532 56.0258C130.83 55.8445 131.177 55.7538 131.572 55.7538C131.966 55.7538 132.305 55.8418 132.588 56.0178C132.87 56.1938 133.089 56.4285 133.244 56.7218C133.398 57.0098 133.476 57.3298 133.476 57.6818C133.476 57.7352 133.473 57.7938 133.468 57.8578C133.468 57.9165 133.465 57.9832 133.46 58.0578H130.164V57.4898H132.676C132.66 57.1538 132.548 56.8925 132.34 56.7058C132.132 56.5138 131.873 56.4178 131.564 56.4178C131.345 56.4178 131.145 56.4685 130.964 56.5698C130.782 56.6658 130.636 56.8098 130.524 57.0018C130.417 57.1885 130.363 57.4258 130.363 57.7138V57.9378C130.363 58.2365 130.417 58.4898 130.524 58.6978C130.636 58.9005 130.782 59.0552 130.964 59.1618C131.145 59.2632 131.342 59.3138 131.556 59.3138C131.812 59.3138 132.022 59.2578 132.188 59.1458C132.353 59.0338 132.476 58.8818 132.556 58.6898H133.356C133.286 58.9352 133.169 59.1565 133.004 59.3538C132.838 59.5458 132.633 59.6978 132.388 59.8098C132.148 59.9218 131.87 59.9778 131.556 59.9778ZM135.024 59.8818L133.84 55.8498H134.632L135.512 59.2098L135.36 59.2018L136.336 55.8498H137.232L138.208 59.2018L138.056 59.2098L138.928 55.8498H139.736L138.552 59.8818H137.728L136.704 56.3858H136.864L135.84 59.8818H135.024ZM145.968 61.0418C145.68 60.7592 145.413 60.4232 145.168 60.0338C144.928 59.6498 144.736 59.2232 144.592 58.7538C144.453 58.2792 144.384 57.7672 144.384 57.2178C144.384 56.6685 144.453 56.1592 144.592 55.6898C144.736 55.2152 144.928 54.7832 145.168 54.3938C145.413 54.0045 145.68 53.6712 145.968 53.3938H146.784V53.4658C146.458 53.7965 146.176 54.1592 145.936 54.5538C145.696 54.9485 145.509 55.3698 145.376 55.8178C145.242 56.2658 145.176 56.7325 145.176 57.2178C145.176 57.7032 145.242 58.1698 145.376 58.6178C145.509 59.0658 145.696 59.4872 145.936 59.8818C146.181 60.2765 146.464 60.6392 146.784 60.9698V61.0418H145.968ZM149.701 59.8818V54.2818H151.421C152.072 54.2818 152.611 54.3965 153.037 54.6258C153.464 54.8552 153.779 55.1805 153.981 55.6018C154.189 56.0178 154.293 56.5138 154.293 57.0898C154.293 57.6658 154.189 58.1618 153.981 58.5778C153.779 58.9938 153.464 59.3165 153.037 59.5458C152.616 59.7698 152.077 59.8818 151.421 59.8818H149.701ZM150.501 59.2098H151.389C151.907 59.2098 152.317 59.1245 152.621 58.9538C152.925 58.7832 153.141 58.5405 153.269 58.2258C153.403 57.9058 153.469 57.5272 153.469 57.0898C153.469 56.6472 153.403 56.2658 153.269 55.9458C153.141 55.6258 152.925 55.3805 152.621 55.2098C152.317 55.0392 151.907 54.9538 151.389 54.9538H150.501V59.2098ZM157.04 59.9778C156.656 59.9778 156.315 59.8898 156.016 59.7138C155.717 59.5378 155.483 59.2925 155.312 58.9778C155.147 58.6632 155.064 58.2978 155.064 57.8818C155.064 57.4552 155.147 57.0845 155.312 56.7698C155.483 56.4498 155.717 56.2018 156.016 56.0258C156.315 55.8445 156.661 55.7538 157.056 55.7538C157.451 55.7538 157.789 55.8418 158.072 56.0178C158.355 56.1938 158.573 56.4285 158.728 56.7218C158.883 57.0098 158.96 57.3298 158.96 57.6818C158.96 57.7352 158.957 57.7938 158.952 57.8578C158.952 57.9165 158.949 57.9832 158.944 58.0578H155.648V57.4898H158.16C158.144 57.1538 158.032 56.8925 157.824 56.7058C157.616 56.5138 157.357 56.4178 157.048 56.4178C156.829 56.4178 156.629 56.4685 156.448 56.5698C156.267 56.6658 156.12 56.8098 156.008 57.0018C155.901 57.1885 155.848 57.4258 155.848 57.7138V57.9378C155.848 58.2365 155.901 58.4898 156.008 58.6978C156.12 58.9005 156.267 59.0552 156.448 59.1618C156.629 59.2632 156.827 59.3138 157.04 59.3138C157.296 59.3138 157.507 59.2578 157.672 59.1458C157.837 59.0338 157.96 58.8818 158.04 58.6898H158.84C158.771 58.9352 158.653 59.1565 158.488 59.3538C158.323 59.5458 158.117 59.6978 157.872 59.8098C157.632 59.9218 157.355 59.9778 157.04 59.9778ZM161.713 59.9778C161.323 59.9778 160.977 59.8898 160.673 59.7138C160.369 59.5325 160.129 59.2845 159.953 58.9698C159.782 58.6552 159.697 58.2898 159.697 57.8738C159.697 57.4525 159.782 57.0845 159.953 56.7698C160.129 56.4498 160.369 56.2018 160.673 56.0258C160.977 55.8445 161.323 55.7538 161.713 55.7538C162.203 55.7538 162.614 55.8818 162.945 56.1378C163.275 56.3938 163.486 56.7405 163.577 57.1778H162.745C162.691 56.9432 162.569 56.7618 162.377 56.6338C162.19 56.5058 161.966 56.4418 161.705 56.4418C161.491 56.4418 161.294 56.4978 161.113 56.6098C160.931 56.7165 160.785 56.8765 160.673 57.0898C160.566 57.2978 160.513 57.5565 160.513 57.8658C160.513 58.0952 160.545 58.3005 160.609 58.4818C160.673 58.6578 160.758 58.8072 160.865 58.9298C160.977 59.0525 161.105 59.1458 161.249 59.2098C161.393 59.2685 161.545 59.2978 161.705 59.2978C161.881 59.2978 162.038 59.2712 162.177 59.2178C162.321 59.1592 162.441 59.0738 162.537 58.9618C162.638 58.8498 162.707 58.7165 162.745 58.5618H163.577C163.486 58.9885 163.275 59.3325 162.945 59.5938C162.614 59.8498 162.203 59.9778 161.713 59.9778ZM167.049 59.8818L165.193 57.6738L166.873 55.8498H167.841L165.841 57.9858V57.3858L168.057 59.8818H167.049ZM164.513 59.8818V54.1218H165.313V59.8818H164.513ZM170.778 59.8818V55.8498H171.498L171.546 56.5378C171.674 56.2978 171.856 56.1085 172.09 55.9698C172.325 55.8258 172.594 55.7538 172.898 55.7538C173.218 55.7538 173.493 55.8178 173.722 55.9458C173.952 56.0738 174.13 56.2685 174.258 56.5298C174.386 56.7858 174.45 57.1085 174.45 57.4978V59.8818H173.65V57.5778C173.65 57.2045 173.568 56.9218 173.402 56.7298C173.237 56.5378 172.997 56.4418 172.682 56.4418C172.474 56.4418 172.288 56.4925 172.122 56.5938C171.957 56.6898 171.824 56.8338 171.722 57.0258C171.626 57.2178 171.578 57.4525 171.578 57.7298V59.8818H170.778ZM177.314 59.9778C176.935 59.9778 176.594 59.8898 176.29 59.7138C175.991 59.5378 175.754 59.2925 175.578 58.9778C175.407 58.6578 175.322 58.2898 175.322 57.8738C175.322 57.4472 175.41 57.0765 175.586 56.7618C175.762 56.4418 176.002 56.1938 176.306 56.0178C176.61 55.8418 176.951 55.7538 177.33 55.7538C177.714 55.7538 178.055 55.8418 178.354 56.0178C178.652 56.1938 178.887 56.4392 179.058 56.7538C179.234 57.0685 179.322 57.4392 179.322 57.8658C179.322 58.2925 179.234 58.6632 179.058 58.9778C178.887 59.2925 178.65 59.5378 178.346 59.7138C178.042 59.8898 177.698 59.9778 177.314 59.9778ZM177.314 59.2898C177.532 59.2898 177.73 59.2365 177.906 59.1298C178.087 59.0232 178.231 58.8658 178.338 58.6578C178.45 58.4445 178.506 58.1805 178.506 57.8658C178.506 57.5512 178.452 57.2898 178.346 57.0818C178.239 56.8685 178.095 56.7085 177.914 56.6018C177.738 56.4952 177.543 56.4418 177.33 56.4418C177.116 56.4418 176.919 56.4952 176.738 56.6018C176.556 56.7085 176.41 56.8685 176.298 57.0818C176.191 57.2898 176.138 57.5512 176.138 57.8658C176.138 58.1805 176.191 58.4445 176.298 58.6578C176.41 58.8658 176.554 59.0232 176.73 59.1298C176.911 59.2365 177.106 59.2898 177.314 59.2898ZM181.771 59.8818C181.515 59.8818 181.293 59.8418 181.107 59.7618C180.92 59.6818 180.776 59.5485 180.675 59.3618C180.573 59.1752 180.523 58.9218 180.523 58.6018V56.5298H179.826V55.8498H180.523L180.618 54.8418H181.323V55.8498H182.467V56.5298H181.323V58.6098C181.323 58.8392 181.371 58.9965 181.467 59.0818C181.563 59.1618 181.728 59.2018 181.963 59.2018H182.427V59.8818H181.771ZM185.612 59.8818V56.5298H185.02V55.8498H185.612V55.3058C185.612 55.0285 185.657 54.8018 185.748 54.6258C185.844 54.4498 185.982 54.3218 186.164 54.2418C186.345 54.1618 186.564 54.1218 186.82 54.1218H187.236V54.8018H186.948C186.756 54.8018 186.617 54.8418 186.532 54.9218C186.452 54.9965 186.412 55.1298 186.412 55.3218V55.8498H188.868V59.8818H188.068V56.5298H186.412V59.8818H185.612ZM188.476 55.1538C188.326 55.1538 188.201 55.1058 188.1 55.0098C187.998 54.9138 187.948 54.7912 187.948 54.6418C187.948 54.4978 187.998 54.3805 188.1 54.2898C188.201 54.1938 188.326 54.1458 188.476 54.1458C188.63 54.1458 188.756 54.1938 188.852 54.2898C188.953 54.3805 189.004 54.4978 189.004 54.6418C189.004 54.7912 188.953 54.9138 188.852 55.0098C188.756 55.1058 188.63 55.1538 188.476 55.1538ZM190.021 59.8818V55.8498H190.741L190.789 56.5378C190.917 56.2978 191.098 56.1085 191.333 55.9698C191.567 55.8258 191.837 55.7538 192.141 55.7538C192.461 55.7538 192.735 55.8178 192.965 55.9458C193.194 56.0738 193.373 56.2685 193.501 56.5298C193.629 56.7858 193.693 57.1085 193.693 57.4978V59.8818H192.893V57.5778C192.893 57.2045 192.81 56.9218 192.645 56.7298C192.479 56.5378 192.239 56.4418 191.925 56.4418C191.717 56.4418 191.53 56.4925 191.365 56.5938C191.199 56.6898 191.066 56.8338 190.965 57.0258C190.869 57.2178 190.821 57.4525 190.821 57.7298V59.8818H190.021ZM196.052 59.9778C195.721 59.9778 195.447 59.9218 195.228 59.8098C195.009 59.6978 194.847 59.5485 194.74 59.3618C194.633 59.1698 194.58 58.9645 194.58 58.7458C194.58 58.4792 194.649 58.2525 194.788 58.0658C194.927 57.8738 195.124 57.7272 195.38 57.6258C195.636 57.5245 195.943 57.4738 196.3 57.4738H197.348C197.348 57.2392 197.313 57.0445 197.244 56.8898C197.175 56.7352 197.071 56.6205 196.932 56.5458C196.799 56.4658 196.628 56.4258 196.42 56.4258C196.18 56.4258 195.975 56.4845 195.804 56.6018C195.633 56.7138 195.527 56.8818 195.484 57.1058H194.684C194.716 56.8232 194.812 56.5832 194.972 56.3858C195.137 56.1832 195.348 56.0285 195.604 55.9218C195.86 55.8098 196.132 55.7538 196.42 55.7538C196.799 55.7538 197.116 55.8205 197.372 55.9538C197.628 56.0872 197.82 56.2765 197.948 56.5218C198.081 56.7618 198.148 57.0498 198.148 57.3858V59.8818H197.452L197.388 59.2018C197.329 59.3085 197.26 59.4098 197.18 59.5058C197.1 59.6018 197.004 59.6845 196.892 59.7538C196.785 59.8232 196.66 59.8765 196.516 59.9138C196.377 59.9565 196.223 59.9778 196.052 59.9778ZM196.204 59.3298C196.375 59.3298 196.529 59.2952 196.668 59.2258C196.807 59.1565 196.924 59.0632 197.02 58.9458C197.121 58.8232 197.196 58.6872 197.244 58.5378C197.297 58.3832 197.327 58.2258 197.332 58.0658V58.0418H196.38C196.151 58.0418 195.964 58.0712 195.82 58.1298C195.681 58.1832 195.58 58.2578 195.516 58.3538C195.452 58.4498 195.42 58.5618 195.42 58.6898C195.42 58.8232 195.449 58.9378 195.508 59.0338C195.572 59.1245 195.663 59.1965 195.78 59.2498C195.897 59.3032 196.039 59.3298 196.204 59.3298ZM199.169 59.8818V54.1218H199.969V59.8818H199.169ZM201.123 59.8818V55.8498H201.923V59.8818H201.123ZM201.531 55.0898C201.377 55.0898 201.249 55.0418 201.147 54.9458C201.051 54.8498 201.003 54.7272 201.003 54.5778C201.003 54.4338 201.051 54.3165 201.147 54.2258C201.249 54.1298 201.377 54.0818 201.531 54.0818C201.681 54.0818 201.806 54.1298 201.907 54.2258C202.009 54.3165 202.059 54.4338 202.059 54.5778C202.059 54.7272 202.009 54.8498 201.907 54.9458C201.806 55.0418 201.681 55.0898 201.531 55.0898ZM204.627 59.9778C204.286 59.9778 203.987 59.9218 203.731 59.8098C203.475 59.6978 203.273 59.5405 203.123 59.3378C202.974 59.1352 202.883 58.8978 202.851 58.6258H203.667C203.694 58.7538 203.745 58.8712 203.819 58.9778C203.899 59.0845 204.006 59.1698 204.139 59.2338C204.278 59.2978 204.441 59.3298 204.627 59.3298C204.803 59.3298 204.947 59.3058 205.059 59.2578C205.177 59.2045 205.262 59.1352 205.315 59.0498C205.369 58.9592 205.395 58.8632 205.395 58.7618C205.395 58.6125 205.358 58.5005 205.283 58.4258C205.214 58.3458 205.107 58.2845 204.963 58.2418C204.825 58.1938 204.657 58.1512 204.459 58.1138C204.273 58.0818 204.091 58.0392 203.915 57.9858C203.745 57.9272 203.59 57.8552 203.451 57.7698C203.318 57.6845 203.211 57.5778 203.131 57.4498C203.051 57.3165 203.011 57.1538 203.011 56.9618C203.011 56.7325 203.073 56.5272 203.195 56.3458C203.318 56.1592 203.491 56.0152 203.715 55.9138C203.945 55.8072 204.214 55.7538 204.523 55.7538C204.971 55.7538 205.331 55.8605 205.603 56.0738C205.875 56.2872 206.035 56.5885 206.083 56.9778H205.307C205.286 56.7965 205.206 56.6578 205.067 56.5618C204.929 56.4605 204.745 56.4098 204.515 56.4098C204.286 56.4098 204.11 56.4552 203.987 56.5458C203.865 56.6365 203.803 56.7565 203.803 56.9058C203.803 57.0018 203.838 57.0872 203.907 57.1618C203.977 57.2365 204.078 57.3005 204.211 57.3538C204.35 57.4018 204.518 57.4472 204.715 57.4898C204.998 57.5432 205.251 57.6098 205.475 57.6898C205.699 57.7698 205.878 57.8872 206.011 58.0418C206.145 58.1965 206.211 58.4178 206.211 58.7058C206.217 58.9565 206.153 59.1778 206.019 59.3698C205.891 59.5618 205.707 59.7112 205.467 59.8178C205.233 59.9245 204.953 59.9778 204.627 59.9778ZM208.977 59.9778C208.593 59.9778 208.252 59.8898 207.953 59.7138C207.655 59.5378 207.42 59.2925 207.249 58.9778C207.084 58.6632 207.001 58.2978 207.001 57.8818C207.001 57.4552 207.084 57.0845 207.249 56.7698C207.42 56.4498 207.655 56.2018 207.953 56.0258C208.252 55.8445 208.599 55.7538 208.993 55.7538C209.388 55.7538 209.727 55.8418 210.009 56.0178C210.292 56.1938 210.511 56.4285 210.665 56.7218C210.82 57.0098 210.897 57.3298 210.897 57.6818C210.897 57.7352 210.895 57.7938 210.889 57.8578C210.889 57.9165 210.887 57.9832 210.881 58.0578H207.585V57.4898H210.097C210.081 57.1538 209.969 56.8925 209.761 56.7058C209.553 56.5138 209.295 56.4178 208.985 56.4178C208.767 56.4178 208.567 56.4685 208.385 56.5698C208.204 56.6658 208.057 56.8098 207.945 57.0018C207.839 57.1885 207.785 57.4258 207.785 57.7138V57.9378C207.785 58.2365 207.839 58.4898 207.945 58.6978C208.057 58.9005 208.204 59.0552 208.385 59.1618C208.567 59.2632 208.764 59.3138 208.977 59.3138C209.233 59.3138 209.444 59.2578 209.609 59.1458C209.775 59.0338 209.897 58.8818 209.977 58.6898H210.777C210.708 58.9352 210.591 59.1565 210.425 59.3538C210.26 59.5458 210.055 59.6978 209.809 59.8098C209.569 59.9218 209.292 59.9778 208.977 59.9778ZM213.578 59.9778C213.194 59.9778 212.856 59.8872 212.562 59.7058C212.269 59.5192 212.04 59.2685 211.874 58.9538C211.714 58.6338 211.634 58.2712 211.634 57.8658C211.634 57.4552 211.714 57.0925 211.874 56.7778C212.04 56.4632 212.269 56.2152 212.562 56.0338C212.861 55.8472 213.202 55.7538 213.586 55.7538C213.901 55.7538 214.178 55.8178 214.418 55.9458C214.658 56.0685 214.845 56.2445 214.978 56.4738V54.1218H215.778V59.8818H215.058L214.978 59.2578C214.898 59.3805 214.794 59.4978 214.666 59.6098C214.538 59.7165 214.384 59.8045 214.202 59.8738C214.021 59.9432 213.813 59.9778 213.578 59.9778ZM213.706 59.2818C213.957 59.2818 214.178 59.2232 214.37 59.1058C214.562 58.9885 214.709 58.8232 214.81 58.6098C214.917 58.3965 214.97 58.1485 214.97 57.8658C214.97 57.5832 214.917 57.3378 214.81 57.1298C214.709 56.9165 214.562 56.7512 214.37 56.6338C214.178 56.5112 213.957 56.4498 213.706 56.4498C213.466 56.4498 213.25 56.5112 213.058 56.6338C212.866 56.7512 212.717 56.9165 212.61 57.1298C212.504 57.3378 212.45 57.5832 212.45 57.8658C212.45 58.1485 212.504 58.3965 212.61 58.6098C212.717 58.8232 212.866 58.9885 213.058 59.1058C213.25 59.2232 213.466 59.2818 213.706 59.2818ZM217.192 59.9218C217.037 59.9218 216.909 59.8738 216.808 59.7778C216.712 59.6765 216.664 59.5565 216.664 59.4178C216.664 59.2738 216.712 59.1538 216.808 59.0578C216.909 58.9565 217.037 58.9058 217.192 58.9058C217.347 58.9058 217.472 58.9565 217.568 59.0578C217.664 59.1538 217.712 59.2738 217.712 59.4178C217.712 59.5565 217.664 59.6765 217.568 59.7778C217.472 59.8738 217.347 59.9218 217.192 59.9218ZM218.911 59.9218C218.756 59.9218 218.628 59.8738 218.527 59.7778C218.431 59.6765 218.383 59.5565 218.383 59.4178C218.383 59.2738 218.431 59.1538 218.527 59.0578C218.628 58.9565 218.756 58.9058 218.911 58.9058C219.066 58.9058 219.191 58.9565 219.287 59.0578C219.383 59.1538 219.431 59.2738 219.431 59.4178C219.431 59.5565 219.383 59.6765 219.287 59.7778C219.191 59.8738 219.066 59.9218 218.911 59.9218ZM220.63 59.9218C220.475 59.9218 220.347 59.8738 220.246 59.7778C220.15 59.6765 220.102 59.5565 220.102 59.4178C220.102 59.2738 220.15 59.1538 220.246 59.0578C220.347 58.9565 220.475 58.9058 220.63 58.9058C220.784 58.9058 220.91 58.9565 221.006 59.0578C221.102 59.1538 221.15 59.2738 221.15 59.4178C221.15 59.5565 221.102 59.6765 221.006 59.7778C220.91 59.8738 220.784 59.9218 220.63 59.9218Z" fill="#1A1A1A"/>
<path d="M41.2399 69.6752L41.5037 68.7168L40.6353 69.2828L40.4617 68.8326L41.3943 68.4595L40.5967 68.0993L40.9055 67.6684L41.5937 68.228L41.6645 67.2696H42.1597L41.8832 68.228L42.7579 67.6684L42.9187 68.0929L41.9796 68.466L42.7901 68.839L42.4749 69.2764L41.7931 68.7168L41.7288 69.6752H41.2399ZM44.4146 72.0679C44.1359 72.0679 43.8979 72.0014 43.7006 71.8685C43.5077 71.7356 43.3619 71.5555 43.2632 71.3282C43.1689 71.101 43.1282 70.848 43.141 70.5692C43.1539 70.2948 43.2075 70.0418 43.3018 69.8103C43.4005 69.5787 43.5312 69.3793 43.6942 69.2121C43.8614 69.0405 44.0522 68.9076 44.2666 68.8133C44.4853 68.7189 44.7169 68.6718 44.9613 68.6718C45.2357 68.6718 45.4587 68.7254 45.6302 68.8326C45.8018 68.9355 45.9283 69.0749 46.0097 69.2507L46.3442 67.3596H46.9874L46.1705 71.9907H45.5852L45.6109 71.489C45.5338 71.5876 45.4373 71.682 45.3215 71.772C45.21 71.8578 45.0792 71.9285 44.9291 71.9843C44.7791 72.04 44.6075 72.0679 44.4146 72.0679ZM44.6333 71.5083C44.852 71.5083 45.0492 71.4504 45.225 71.3347C45.4008 71.2189 45.5402 71.0602 45.6431 70.8587C45.7503 70.6571 45.8103 70.432 45.8232 70.1833C45.8361 69.9903 45.8103 69.8231 45.746 69.6816C45.6817 69.5401 45.5852 69.4308 45.4566 69.3536C45.3322 69.2721 45.18 69.2314 44.9999 69.2314C44.7812 69.2314 44.584 69.2871 44.4081 69.3986C44.2323 69.5101 44.0908 69.6623 43.9836 69.8553C43.8764 70.0482 43.8185 70.2691 43.81 70.5178C43.7971 70.7107 43.8228 70.8823 43.8871 71.0323C43.9515 71.1824 44.0458 71.3003 44.1702 71.3861C44.2988 71.4676 44.4532 71.5083 44.6333 71.5083ZM47.1023 71.9907L47.6683 68.749H48.3115L47.7455 71.9907H47.1023ZM48.1764 68.1443C48.0521 68.1443 47.9492 68.1058 47.8677 68.0286C47.7905 67.9514 47.7519 67.8528 47.7519 67.7327C47.7519 67.6169 47.7905 67.5204 47.8677 67.4433C47.9492 67.3661 48.0521 67.3275 48.1764 67.3275C48.2965 67.3275 48.3973 67.3661 48.4787 67.4433C48.5602 67.5161 48.6009 67.6126 48.6009 67.7327C48.6009 67.8528 48.5581 67.9514 48.4723 68.0286C48.3908 68.1058 48.2922 68.1443 48.1764 68.1443ZM50.0929 72.0679C49.8142 72.0679 49.5762 72.0014 49.3789 71.8685C49.186 71.7356 49.0402 71.5555 48.9415 71.3282C48.8472 71.101 48.8065 70.848 48.8193 70.5692C48.8322 70.2948 48.8858 70.0418 48.9801 69.8103C49.0788 69.5787 49.2095 69.3793 49.3725 69.2121C49.5397 69.0405 49.7305 68.9076 49.9449 68.8133C50.1636 68.7189 50.3952 68.6718 50.6396 68.6718C50.914 68.6718 51.137 68.7254 51.3085 68.8326C51.4801 68.9355 51.6066 69.0749 51.688 69.2507L52.0225 67.3596H52.6657L51.8488 71.9907H51.2635L51.2892 71.489C51.2121 71.5876 51.1156 71.682 50.9998 71.772C50.8883 71.8578 50.7575 71.9285 50.6074 71.9843C50.4574 72.04 50.2858 72.0679 50.0929 72.0679ZM50.3116 71.5083C50.5303 71.5083 50.7275 71.4504 50.9033 71.3347C51.0791 71.2189 51.2185 71.0602 51.3214 70.8587C51.4286 70.6571 51.4886 70.432 51.5015 70.1833C51.5144 69.9903 51.4886 69.8231 51.4243 69.6816C51.36 69.5401 51.2635 69.4308 51.1349 69.3536C51.0105 69.2721 50.8583 69.2314 50.6782 69.2314C50.4595 69.2314 50.2623 69.2871 50.0865 69.3986C49.9106 69.5101 49.7691 69.6623 49.6619 69.8553C49.5547 70.0482 49.4968 70.2691 49.4883 70.5178C49.4754 70.7107 49.5011 70.8823 49.5655 71.0323C49.6298 71.1824 49.7241 71.3003 49.8485 71.3861C49.9771 71.4676 50.1315 71.5083 50.3116 71.5083ZM54.488 71.9907L55.2985 67.3596H55.9417L55.6072 69.2764C55.7444 69.0877 55.916 68.9398 56.1218 68.8326C56.3319 68.7254 56.5527 68.6718 56.7843 68.6718C57.0416 68.6718 57.2538 68.7254 57.4211 68.8326C57.5883 68.9355 57.7019 69.092 57.762 69.3021C57.8263 69.5079 57.8306 69.7674 57.7748 70.0804L57.4404 71.9907H56.7972L57.1252 70.1447C57.1766 69.8446 57.1509 69.6173 57.048 69.4629C56.9451 69.3043 56.7671 69.2249 56.5141 69.2249C56.3426 69.2249 56.1818 69.2657 56.0317 69.3471C55.8817 69.4286 55.7552 69.5487 55.6522 69.7073C55.5493 69.8617 55.4764 70.0504 55.4336 70.2734L55.1313 71.9907H54.488ZM59.7358 72.0679C59.457 72.0679 59.2148 72.0079 59.0089 71.8878C58.8074 71.7677 58.653 71.5984 58.5458 71.3797C58.4429 71.161 58.4 70.9058 58.4172 70.6143C58.4258 70.3398 58.4794 70.0868 58.578 69.8553C58.6809 69.6194 58.816 69.4136 58.9832 69.2378C59.1547 69.062 59.3541 68.9248 59.5814 68.8261C59.8087 68.7232 60.0574 68.6718 60.3275 68.6718C60.6191 68.6718 60.8635 68.7318 61.0608 68.8519C61.258 68.9719 61.4017 69.1327 61.4917 69.3343C61.586 69.5358 61.6268 69.7609 61.6139 70.0096C61.6139 70.0868 61.6053 70.1726 61.5882 70.2669C61.5753 70.3613 61.5582 70.447 61.5367 70.5242H58.8932L58.9703 70.0675H60.9836C61.005 69.8831 60.9857 69.7288 60.9257 69.6044C60.8699 69.4758 60.782 69.3772 60.662 69.3086C60.5462 69.2399 60.4068 69.2056 60.2439 69.2056C60.0681 69.2056 59.9008 69.2464 59.7422 69.3278C59.5835 69.405 59.4463 69.5208 59.3305 69.6752C59.2148 69.8253 59.1354 70.0161 59.0925 70.2476L59.0604 70.4277C59.0218 70.6464 59.0282 70.8394 59.0797 71.0066C59.1311 71.1739 59.2212 71.3046 59.3498 71.399C59.4785 71.489 59.6371 71.534 59.8258 71.534C60.0316 71.534 60.2096 71.489 60.3597 71.399C60.5097 71.3046 60.6298 71.1824 60.7199 71.0323H61.3631C61.2687 71.2296 61.1422 71.4075 60.9836 71.5662C60.8249 71.7206 60.6405 71.8428 60.4304 71.9328C60.2203 72.0229 59.9888 72.0679 59.7358 72.0679ZM65.2451 72.0679C64.9621 72.0679 64.7155 72.0079 64.5054 71.8878C64.2996 71.7635 64.143 71.5919 64.0358 71.3732C63.9286 71.1503 63.8836 70.8951 63.9008 70.6078C63.9093 70.3291 63.9651 70.0718 64.068 69.836C64.1752 69.6001 64.3167 69.3965 64.4925 69.2249C64.6683 69.0491 64.8699 68.9141 65.0971 68.8197C65.3287 68.7211 65.5753 68.6718 65.8368 68.6718C66.2313 68.6718 66.5444 68.7768 66.7759 68.9869C67.0117 69.1971 67.1318 69.4822 67.1361 69.8424H66.4672C66.4629 69.6409 66.3921 69.4886 66.2549 69.3857C66.1177 69.2785 65.9462 69.2249 65.7403 69.2249C65.5302 69.2249 65.3373 69.2807 65.1615 69.3922C64.9899 69.5037 64.8506 69.6602 64.7434 69.8617C64.6362 70.059 64.5761 70.2905 64.5633 70.5564C64.5547 70.7065 64.5676 70.8437 64.6019 70.968C64.6362 71.0881 64.6876 71.1889 64.7562 71.2703C64.8291 71.3518 64.9128 71.414 65.0071 71.4569C65.1057 71.4997 65.2151 71.5212 65.3351 71.5212C65.4723 71.5212 65.6031 71.4976 65.7275 71.4504C65.8518 71.4033 65.9633 71.3347 66.0619 71.2446C66.1606 71.1503 66.2356 71.0366 66.2871 70.9037H66.9496C66.8681 71.131 66.7416 71.3325 66.5701 71.5083C66.4028 71.6841 66.2056 71.8213 65.9783 71.92C65.7511 72.0186 65.5066 72.0679 65.2451 72.0679ZM69.0204 72.0679C68.7374 72.0679 68.4909 72.0036 68.2808 71.8749C68.0706 71.7463 67.9098 71.5705 67.7984 71.3475C67.6912 71.1202 67.6461 70.863 67.6633 70.5757C67.6761 70.3012 67.7319 70.0482 67.8305 69.8167C67.9334 69.5851 68.0706 69.3857 68.2422 69.2185C68.418 69.047 68.6174 68.9141 68.8403 68.8197C69.0676 68.7211 69.3099 68.6718 69.5672 68.6718C69.8502 68.6718 70.0967 68.7361 70.3069 68.8647C70.517 68.9891 70.6756 69.1628 70.7828 69.3857C70.8943 69.6044 70.9436 69.8617 70.9308 70.1576C70.9179 70.432 70.86 70.685 70.7571 70.9166C70.6585 71.1481 70.5213 71.3497 70.3455 71.5212C70.1739 71.6927 69.9745 71.8278 69.7473 71.9264C69.5243 72.0207 69.282 72.0679 69.0204 72.0679ZM69.1105 71.5147C69.3206 71.5147 69.5093 71.459 69.6765 71.3475C69.848 71.236 69.9874 71.0795 70.0946 70.878C70.2018 70.6764 70.2597 70.4449 70.2683 70.1833C70.2811 69.9775 70.2533 69.8038 70.1846 69.6623C70.1203 69.5208 70.026 69.4136 69.9016 69.3407C69.7773 69.2635 69.6379 69.2249 69.4836 69.2249C69.2777 69.2249 69.0891 69.2828 68.9175 69.3986C68.7503 69.5101 68.6131 69.6666 68.5059 69.8681C68.3987 70.0654 68.3408 70.2948 68.3322 70.5564C68.3193 70.7622 68.3451 70.9359 68.4094 71.0774C68.478 71.2189 68.5723 71.3282 68.6924 71.4054C68.8168 71.4783 68.9561 71.5147 69.1105 71.5147ZM71.3911 71.9907L71.9571 68.749H72.5295L72.4909 69.2442C72.6196 69.0684 72.774 68.9291 72.9541 68.8261C73.1384 68.7232 73.3357 68.6718 73.5458 68.6718C73.7045 68.6718 73.8481 68.6954 73.9768 68.7425C74.1054 68.7897 74.2126 68.8583 74.2984 68.9484C74.3884 69.0384 74.4549 69.152 74.4978 69.2893C74.6393 69.0963 74.8129 68.9462 75.0188 68.839C75.2289 68.7275 75.4454 68.6718 75.6684 68.6718C75.9214 68.6718 76.1315 68.7254 76.2987 68.8326C76.4703 68.9355 76.5903 69.092 76.6589 69.3021C76.7275 69.5079 76.734 69.7652 76.6782 70.074L76.3438 71.9907H75.7005L76.0222 70.1383C76.0779 69.8381 76.0565 69.6109 75.9578 69.4565C75.8592 69.3021 75.6984 69.2249 75.4754 69.2249C75.3339 69.2249 75.1988 69.2614 75.0702 69.3343C74.9416 69.4029 74.8279 69.5079 74.7293 69.6495C74.6307 69.7867 74.5578 69.956 74.5106 70.1576L74.1826 71.9907H73.5458L73.8674 70.1383C73.9232 69.8381 73.9017 69.6109 73.8031 69.4565C73.7045 69.3021 73.5437 69.2249 73.3207 69.2249C73.1749 69.2249 73.0334 69.2657 72.8962 69.3471C72.7632 69.4286 72.6453 69.5465 72.5424 69.7009C72.4438 69.8553 72.3752 70.044 72.3366 70.2669L72.0343 71.9907H71.3911ZM76.9189 73.4058L77.7422 68.749H78.3275L78.2953 69.2507C78.3854 69.1435 78.4862 69.047 78.5976 68.9612C78.7134 68.8712 78.8442 68.8004 78.99 68.749C79.1401 68.6975 79.3052 68.6718 79.4853 68.6718C79.7683 68.6718 80.0063 68.7382 80.1992 68.8712C80.3965 68.9998 80.5444 69.1756 80.643 69.3986C80.746 69.6173 80.7888 69.8681 80.7717 70.1512C80.7631 70.4213 80.7095 70.6743 80.6109 70.9101C80.5123 71.1417 80.3793 71.3432 80.2121 71.5147C80.0491 71.6863 79.8583 71.8213 79.6396 71.92C79.4209 72.0186 79.1851 72.0679 78.9321 72.0679C78.7649 72.0679 78.6127 72.0422 78.4754 71.9907C78.3382 71.935 78.2203 71.8642 78.1217 71.7785C78.0273 71.6884 77.9544 71.5919 77.903 71.489L77.5621 73.4058H76.9189ZM78.9321 71.5083C79.1508 71.5083 79.3459 71.4547 79.5174 71.3475C79.6932 71.236 79.8326 71.0838 79.9355 70.8908C80.0427 70.6936 80.1006 70.4706 80.1092 70.2219C80.122 70.0289 80.0942 69.8574 80.0256 69.7073C79.9612 69.5573 79.8648 69.4415 79.7361 69.36C79.6118 69.2742 79.4617 69.2314 79.2859 69.2314C79.0629 69.2314 78.8635 69.2893 78.6877 69.405C78.5119 69.5165 78.3704 69.6709 78.2632 69.8681C78.156 70.0654 78.0981 70.2884 78.0895 70.5371C78.0766 70.73 78.1024 70.9016 78.1667 71.0516C78.2353 71.1974 78.3339 71.3111 78.4626 71.3925C78.5955 71.4697 78.752 71.5083 78.9321 71.5083ZM81.2275 71.9907L82.0508 67.3596H82.694L81.8707 71.9907H81.2275ZM84.2266 72.0679C83.9479 72.0679 83.7056 72.0079 83.4998 71.8878C83.2982 71.7677 83.1439 71.5984 83.0367 71.3797C82.9338 71.161 82.8909 70.9058 82.908 70.6143C82.9166 70.3398 82.9702 70.0868 83.0688 69.8553C83.1717 69.6194 83.3068 69.4136 83.4741 69.2378C83.6456 69.062 83.845 68.9248 84.0722 68.8261C84.2995 68.7232 84.5482 68.6718 84.8184 68.6718C85.1099 68.6718 85.3544 68.7318 85.5516 68.8519C85.7489 68.9719 85.8925 69.1327 85.9826 69.3343C86.0769 69.5358 86.1176 69.7609 86.1048 70.0096C86.1048 70.0868 86.0962 70.1726 86.079 70.2669C86.0662 70.3613 86.049 70.447 86.0276 70.5242H83.384L83.4612 70.0675H85.4744C85.4959 69.8831 85.4766 69.7288 85.4165 69.6044C85.3608 69.4758 85.2729 69.3772 85.1528 69.3086C85.037 69.2399 84.8977 69.2056 84.7347 69.2056C84.5589 69.2056 84.3917 69.2464 84.233 69.3278C84.0744 69.405 83.9372 69.5208 83.8214 69.6752C83.7056 69.8253 83.6263 70.0161 83.5834 70.2476L83.5512 70.4277C83.5126 70.6464 83.5191 70.8394 83.5705 71.0066C83.622 71.1739 83.712 71.3046 83.8407 71.399C83.9693 71.489 84.128 71.534 84.3167 71.534C84.5225 71.534 84.7004 71.489 84.8505 71.399C85.0006 71.3046 85.1207 71.1824 85.2107 71.0323H85.8539C85.7596 71.2296 85.6331 71.4075 85.4744 71.5662C85.3158 71.7206 85.1314 71.8428 84.9213 71.9328C84.7112 72.0229 84.4796 72.0679 84.2266 72.0679ZM87.8162 71.9907C87.5889 71.9907 87.4045 71.9543 87.263 71.8814C87.1215 71.8085 87.0272 71.697 86.98 71.5469C86.9329 71.3925 86.9286 71.1953 86.9672 70.9552L87.263 69.2957H86.7356L86.8385 68.749H87.3595L87.5846 67.9385H88.1507L88.0027 68.749H88.9225L88.826 69.2957H87.9127L87.6104 70.9552C87.5804 71.1438 87.5997 71.2725 87.6683 71.3411C87.7369 71.4097 87.8569 71.444 88.0285 71.444H88.4465L88.3501 71.9907H87.8162ZM90.4451 72.0679C90.1664 72.0679 89.9241 72.0079 89.7183 71.8878C89.5167 71.7677 89.3624 71.5984 89.2552 71.3797C89.1523 71.161 89.1094 70.9058 89.1265 70.6143C89.1351 70.3398 89.1887 70.0868 89.2873 69.8553C89.3902 69.6194 89.5253 69.4136 89.6926 69.2378C89.8641 69.062 90.0635 68.9248 90.2907 68.8261C90.518 68.7232 90.7667 68.6718 91.0369 68.6718C91.3284 68.6718 91.5729 68.7318 91.7701 68.8519C91.9674 68.9719 92.111 69.1327 92.2011 69.3343C92.2954 69.5358 92.3361 69.7609 92.3233 70.0096C92.3233 70.0868 92.3147 70.1726 92.2975 70.2669C92.2847 70.3613 92.2675 70.447 92.2461 70.5242H89.6025L89.6797 70.0675H91.6929C91.7144 69.8831 91.6951 69.7288 91.635 69.6044C91.5793 69.4758 91.4914 69.3772 91.3713 69.3086C91.2555 69.2399 91.1162 69.2056 90.9532 69.2056C90.7774 69.2056 90.6102 69.2464 90.4515 69.3278C90.2929 69.405 90.1557 69.5208 90.0399 69.6752C89.9241 69.8253 89.8448 70.0161 89.8019 70.2476L89.7697 70.4277C89.7311 70.6464 89.7376 70.8394 89.789 71.0066C89.8405 71.1739 89.9305 71.3046 90.0592 71.399C90.1878 71.489 90.3465 71.534 90.5352 71.534C90.741 71.534 90.9189 71.489 91.069 71.399C91.2191 71.3046 91.3392 71.1824 91.4292 71.0323H92.0724C91.9781 71.2296 91.8516 71.4075 91.6929 71.5662C91.5343 71.7206 91.3499 71.8428 91.1398 71.9328C90.9297 72.0229 90.6981 72.0679 90.4451 72.0679ZM95.7872 71.9907C95.5599 71.9907 95.3755 71.9543 95.234 71.8814C95.0925 71.8085 94.9982 71.697 94.951 71.5469C94.9038 71.3925 94.8996 71.1953 94.9382 70.9552L95.234 69.2957H94.7066L94.8095 68.749H95.3305L95.5556 67.9385H96.1217L95.9737 68.749H96.8935L96.797 69.2957H95.8837L95.5814 70.9552C95.5513 71.1438 95.5706 71.2725 95.6392 71.3411C95.7079 71.4097 95.8279 71.444 95.9994 71.444H96.4175L96.321 71.9907H95.7872ZM97.044 71.9907L97.8544 67.3596H98.4976L98.1631 69.2764C98.3004 69.0877 98.4719 68.9398 98.6777 68.8326C98.8878 68.7254 99.1086 68.6718 99.3402 68.6718C99.5975 68.6718 99.8097 68.7254 99.977 68.8326C100.144 68.9355 100.258 69.092 100.318 69.3021C100.382 69.5079 100.386 69.7674 100.331 70.0804L99.9963 71.9907H99.3531L99.6811 70.1447C99.7326 69.8446 99.7068 69.6173 99.6039 69.4629C99.501 69.3043 99.323 69.2249 99.0701 69.2249C98.8985 69.2249 98.7377 69.2657 98.5876 69.3471C98.4376 69.4286 98.3111 69.5487 98.2082 69.7073C98.1052 69.8617 98.0323 70.0504 97.9895 70.2734L97.6872 71.9907H97.044ZM102.292 72.0679C102.013 72.0679 101.771 72.0079 101.565 71.8878C101.363 71.7677 101.209 71.5984 101.102 71.3797C100.999 71.161 100.956 70.9058 100.973 70.6143C100.982 70.3398 101.035 70.0868 101.134 69.8553C101.237 69.6194 101.372 69.4136 101.539 69.2378C101.711 69.062 101.91 68.9248 102.137 68.8261C102.365 68.7232 102.613 68.6718 102.883 68.6718C103.175 68.6718 103.419 68.7318 103.617 68.8519C103.814 68.9719 103.958 69.1327 104.048 69.3343C104.142 69.5358 104.183 69.7609 104.17 70.0096C104.17 70.0868 104.161 70.1726 104.144 70.2669C104.131 70.3613 104.114 70.447 104.093 70.5242H101.449L101.526 70.0675H103.539C103.561 69.8831 103.542 69.7288 103.482 69.6044C103.426 69.4758 103.338 69.3772 103.218 69.3086C103.102 69.2399 102.963 69.2056 102.8 69.2056C102.624 69.2056 102.457 69.2464 102.298 69.3278C102.139 69.405 102.002 69.5208 101.886 69.6752C101.771 69.8253 101.691 70.0161 101.648 70.2476L101.616 70.4277C101.578 70.6464 101.584 70.8394 101.636 71.0066C101.687 71.1739 101.777 71.3046 101.906 71.399C102.034 71.489 102.193 71.534 102.382 71.534C102.588 71.534 102.765 71.489 102.916 71.399C103.066 71.3046 103.186 71.1824 103.276 71.0323H103.919C103.825 71.2296 103.698 71.4075 103.539 71.5662C103.381 71.7206 103.196 71.8428 102.986 71.9328C102.776 72.0229 102.545 72.0679 102.292 72.0679ZM107.73 72.0679C107.452 72.0679 107.214 72.0014 107.016 71.8685C106.823 71.7356 106.678 71.5555 106.579 71.3282C106.485 71.101 106.444 70.848 106.457 70.5692C106.47 70.2948 106.523 70.0418 106.617 69.8103C106.716 69.5787 106.847 69.3793 107.01 69.2121C107.177 69.0405 107.368 68.9076 107.582 68.8133C107.801 68.7189 108.033 68.6718 108.277 68.6718C108.551 68.6718 108.774 68.7254 108.946 68.8326C109.117 68.9355 109.244 69.0749 109.325 69.2507L109.66 67.3596H110.303L109.486 71.9907H108.901L108.927 71.489C108.849 71.5876 108.753 71.682 108.637 71.772C108.526 71.8578 108.395 71.9285 108.245 71.9843C108.095 72.04 107.923 72.0679 107.73 72.0679ZM107.949 71.5083C108.168 71.5083 108.365 71.4504 108.541 71.3347C108.716 71.2189 108.856 71.0602 108.959 70.8587C109.066 70.6571 109.126 70.432 109.139 70.1833C109.152 69.9903 109.126 69.8231 109.062 69.6816C108.997 69.5401 108.901 69.4308 108.772 69.3536C108.648 69.2721 108.496 69.2314 108.316 69.2314C108.097 69.2314 107.9 69.2871 107.724 69.3986C107.548 69.5101 107.406 69.6623 107.299 69.8553C107.192 70.0482 107.134 70.2691 107.126 70.5178C107.113 70.7107 107.138 70.8823 107.203 71.0323C107.267 71.1824 107.361 71.3003 107.486 71.3861C107.614 71.4676 107.769 71.5083 107.949 71.5083ZM111.833 72.0679C111.554 72.0679 111.312 72.0079 111.106 71.8878C110.905 71.7677 110.75 71.5984 110.643 71.3797C110.54 71.161 110.497 70.9058 110.514 70.6143C110.523 70.3398 110.577 70.0868 110.675 69.8553C110.778 69.6194 110.913 69.4136 111.08 69.2378C111.252 69.062 111.451 68.9248 111.679 68.8261C111.906 68.7232 112.155 68.6718 112.425 68.6718C112.716 68.6718 112.961 68.7318 113.158 68.8519C113.355 68.9719 113.499 69.1327 113.589 69.3343C113.683 69.5358 113.724 69.7609 113.711 70.0096C113.711 70.0868 113.703 70.1726 113.685 70.2669C113.673 70.3613 113.655 70.447 113.634 70.5242H110.99L111.068 70.0675H113.081C113.102 69.8831 113.083 69.7288 113.023 69.6044C112.967 69.4758 112.879 69.3772 112.759 69.3086C112.643 69.2399 112.504 69.2056 112.341 69.2056C112.165 69.2056 111.998 69.2464 111.839 69.3278C111.681 69.405 111.544 69.5208 111.428 69.6752C111.312 69.8253 111.233 70.0161 111.19 70.2476L111.158 70.4277C111.119 70.6464 111.125 70.8394 111.177 71.0066C111.228 71.1739 111.318 71.3046 111.447 71.399C111.576 71.489 111.734 71.534 111.923 71.534C112.129 71.534 112.307 71.489 112.457 71.399C112.607 71.3046 112.727 71.1824 112.817 71.0323H113.46C113.366 71.2296 113.239 71.4075 113.081 71.5662C112.922 71.7206 112.738 71.8428 112.528 71.9328C112.318 72.0229 112.086 72.0679 111.833 72.0679ZM115.59 72.0679C115.307 72.0679 115.06 72.0079 114.85 71.8878C114.644 71.7635 114.488 71.5919 114.381 71.3732C114.273 71.1503 114.228 70.8951 114.246 70.6078C114.254 70.3291 114.31 70.0718 114.413 69.836C114.52 69.6001 114.661 69.3965 114.837 69.2249C115.013 69.0491 115.215 68.9141 115.442 68.8197C115.673 68.7211 115.92 68.6718 116.182 68.6718C116.576 68.6718 116.889 68.7768 117.121 68.9869C117.356 69.1971 117.477 69.4822 117.481 69.8424H116.812C116.808 69.6409 116.737 69.4886 116.6 69.3857C116.462 69.2785 116.291 69.2249 116.085 69.2249C115.875 69.2249 115.682 69.2807 115.506 69.3922C115.335 69.5037 115.195 69.6602 115.088 69.8617C114.981 70.059 114.921 70.2905 114.908 70.5564C114.899 70.7065 114.912 70.8437 114.947 70.968C114.981 71.0881 115.032 71.1889 115.101 71.2703C115.174 71.3518 115.257 71.414 115.352 71.4569C115.45 71.4997 115.56 71.5212 115.68 71.5212C115.817 71.5212 115.948 71.4976 116.072 71.4504C116.197 71.4033 116.308 71.3347 116.407 71.2446C116.505 71.1503 116.58 71.0366 116.632 70.9037H117.294C117.213 71.131 117.086 71.3325 116.915 71.5083C116.748 71.6841 116.55 71.8213 116.323 71.92C116.096 72.0186 115.851 72.0679 115.59 72.0679ZM119.976 71.9907L118.728 70.2026L120.336 68.749H121.153L119.23 70.4084L119.288 69.9775L120.755 71.9907H119.976ZM117.86 71.9907L118.683 67.3596H119.327L118.503 71.9907H117.86ZM123.711 71.9907L123.325 68.749H123.968L124.2 71.4504L124.077 71.444L125.338 68.749H126.059L126.367 71.444L126.245 71.4504L127.429 68.749H128.065L126.547 71.9907H125.885L125.563 69.1799H125.692L124.373 71.9907H123.711ZM128.131 71.9907L128.697 68.749H129.34L128.774 71.9907H128.131ZM129.205 68.1443C129.081 68.1443 128.978 68.1058 128.897 68.0286C128.819 67.9514 128.781 67.8528 128.781 67.7327C128.781 67.6169 128.819 67.5204 128.897 67.4433C128.978 67.3661 129.081 67.3275 129.205 67.3275C129.325 67.3275 129.426 67.3661 129.508 67.4433C129.589 67.5161 129.63 67.6126 129.63 67.7327C129.63 67.8528 129.587 67.9514 129.501 68.0286C129.42 68.1058 129.321 68.1443 129.205 68.1443ZM131.025 71.9907C130.798 71.9907 130.614 71.9543 130.472 71.8814C130.331 71.8085 130.236 71.697 130.189 71.5469C130.142 71.3925 130.138 71.1953 130.176 70.9552L130.472 69.2957H129.945L130.048 68.749H130.569L130.794 67.9385H131.36L131.212 68.749H132.132L132.035 69.2957H131.122L130.82 70.9552C130.79 71.1438 130.809 71.2725 130.877 71.3411C130.946 71.4097 131.066 71.444 131.238 71.444H131.656L131.559 71.9907H131.025ZM132.282 71.9907L133.093 67.3596H133.736L133.401 69.2764C133.539 69.0877 133.71 68.9398 133.916 68.8326C134.126 68.7254 134.347 68.6718 134.578 68.6718C134.836 68.6718 135.048 68.7254 135.215 68.8326C135.382 68.9355 135.496 69.092 135.556 69.3021C135.62 69.5079 135.625 69.7674 135.569 70.0804L135.234 71.9907H134.591L134.919 70.1447C134.971 69.8446 134.945 69.6173 134.842 69.4629C134.739 69.3043 134.561 69.2249 134.308 69.2249C134.137 69.2249 133.976 69.2657 133.826 69.3471C133.676 69.4286 133.549 69.5487 133.446 69.7073C133.343 69.8617 133.271 70.0504 133.228 70.2734L132.925 71.9907H132.282ZM137.568 72.0679C137.285 72.0679 137.039 72.0036 136.829 71.8749C136.619 71.7463 136.458 71.5705 136.346 71.3475C136.239 71.1202 136.194 70.863 136.211 70.5757C136.224 70.3012 136.28 70.0482 136.378 69.8167C136.481 69.5851 136.619 69.3857 136.79 69.2185C136.966 69.047 137.165 68.9141 137.388 68.8197C137.616 68.7211 137.858 68.6718 138.115 68.6718C138.398 68.6718 138.645 68.7361 138.855 68.8647C139.065 68.9891 139.224 69.1628 139.331 69.3857C139.442 69.6044 139.492 69.8617 139.479 70.1576C139.466 70.432 139.408 70.685 139.305 70.9166C139.206 71.1481 139.069 71.3497 138.893 71.5212C138.722 71.6927 138.523 71.8278 138.295 71.9264C138.072 72.0207 137.83 72.0679 137.568 72.0679ZM137.658 71.5147C137.869 71.5147 138.057 71.459 138.225 71.3475C138.396 71.236 138.535 71.0795 138.643 70.878C138.75 70.6764 138.808 70.4449 138.816 70.1833C138.829 69.9775 138.801 69.8038 138.733 69.6623C138.668 69.5208 138.574 69.4136 138.45 69.3407C138.325 69.2635 138.186 69.2249 138.032 69.2249C137.826 69.2249 137.637 69.2828 137.466 69.3986C137.298 69.5101 137.161 69.6666 137.054 69.8681C136.947 70.0654 136.889 70.2948 136.88 70.5564C136.867 70.7622 136.893 70.9359 136.957 71.0774C137.026 71.2189 137.12 71.3282 137.24 71.4054C137.365 71.4783 137.504 71.5147 137.658 71.5147ZM141.116 72.0679C140.846 72.0679 140.627 72.01 140.46 71.8942C140.297 71.7742 140.186 71.6091 140.126 71.399C140.07 71.1846 140.068 70.938 140.119 70.6593L140.46 68.749H141.097L140.769 70.6014C140.722 70.8973 140.743 71.1245 140.833 71.2832C140.923 71.4419 141.101 71.5212 141.367 71.5212C141.538 71.5212 141.697 71.4826 141.843 71.4054C141.993 71.3239 142.122 71.2103 142.229 71.0645C142.336 70.9144 142.409 70.7322 142.448 70.5178L142.763 68.749H143.406L142.833 71.9907H142.261L142.306 71.4376C142.177 71.6348 142.008 71.7892 141.798 71.9007C141.592 72.0122 141.365 72.0679 141.116 72.0679ZM145.039 71.9907C144.812 71.9907 144.627 71.9543 144.486 71.8814C144.344 71.8085 144.25 71.697 144.203 71.5469C144.156 71.3925 144.151 71.1953 144.19 70.9552L144.486 69.2957H143.958L144.061 68.749H144.582L144.807 67.9385H145.373L145.226 68.749H146.145L146.049 69.2957H145.135L144.833 70.9552C144.803 71.1438 144.822 71.2725 144.891 71.3411C144.96 71.4097 145.08 71.444 145.251 71.444H145.669L145.573 71.9907H145.039ZM149.367 71.9907C149.14 71.9907 148.955 71.9543 148.814 71.8814C148.672 71.8085 148.578 71.697 148.531 71.5469C148.483 71.3925 148.479 71.1953 148.518 70.9552L148.814 69.2957H148.286L148.389 68.749H148.91L149.135 67.9385H149.701L149.553 68.749H150.473L150.377 69.2957H149.463L149.161 70.9552C149.131 71.1438 149.15 71.2725 149.219 71.3411C149.287 71.4097 149.408 71.444 149.579 71.444H149.997L149.901 71.9907H149.367ZM150.624 71.9907L151.434 67.3596H152.077L151.743 69.2764C151.88 69.0877 152.051 68.9398 152.257 68.8326C152.467 68.7254 152.688 68.6718 152.92 68.6718C153.177 68.6718 153.389 68.7254 153.557 68.8326C153.724 68.9355 153.837 69.092 153.897 69.3021C153.962 69.5079 153.966 69.7674 153.91 70.0804L153.576 71.9907H152.933L153.261 70.1447C153.312 69.8446 153.286 69.6173 153.184 69.4629C153.081 69.3043 152.903 69.2249 152.65 69.2249C152.478 69.2249 152.317 69.2657 152.167 69.3471C152.017 69.4286 151.891 69.5487 151.788 69.7073C151.685 69.8617 151.612 70.0504 151.569 70.2734L151.267 71.9907H150.624ZM155.871 72.0679C155.593 72.0679 155.35 72.0079 155.144 71.8878C154.943 71.7677 154.789 71.5984 154.681 71.3797C154.578 71.161 154.536 70.9058 154.553 70.6143C154.561 70.3398 154.615 70.0868 154.714 69.8553C154.816 69.6194 154.951 69.4136 155.119 69.2378C155.29 69.062 155.49 68.9248 155.717 68.8261C155.944 68.7232 156.193 68.6718 156.463 68.6718C156.755 68.6718 156.999 68.7318 157.196 68.8519C157.394 68.9719 157.537 69.1327 157.627 69.3343C157.722 69.5358 157.762 69.7609 157.749 70.0096C157.749 70.0868 157.741 70.1726 157.724 70.2669C157.711 70.3613 157.694 70.447 157.672 70.5242H155.029L155.106 70.0675H157.119C157.141 69.8831 157.121 69.7288 157.061 69.6044C157.005 69.4758 156.918 69.3772 156.798 69.3086C156.682 69.2399 156.542 69.2056 156.379 69.2056C156.204 69.2056 156.036 69.2464 155.878 69.3278C155.719 69.405 155.582 69.5208 155.466 69.6752C155.35 69.8253 155.271 70.0161 155.228 70.2476L155.196 70.4277C155.157 70.6464 155.164 70.8394 155.215 71.0066C155.267 71.1739 155.357 71.3046 155.485 71.399C155.614 71.489 155.773 71.534 155.961 71.534C156.167 71.534 156.345 71.489 156.495 71.399C156.645 71.3046 156.765 71.1824 156.855 71.0323H157.499C157.404 71.2296 157.278 71.4075 157.119 71.5662C156.96 71.7206 156.776 71.8428 156.566 71.9328C156.356 72.0229 156.124 72.0679 155.871 72.0679ZM161.31 72.0679C161.031 72.0679 160.793 72.0014 160.596 71.8685C160.403 71.7356 160.257 71.5555 160.159 71.3282C160.064 71.101 160.023 70.848 160.036 70.5692C160.049 70.2948 160.103 70.0418 160.197 69.8103C160.296 69.5787 160.427 69.3793 160.589 69.2121C160.757 69.0405 160.948 68.9076 161.162 68.8133C161.381 68.7189 161.612 68.6718 161.857 68.6718C162.131 68.6718 162.354 68.7254 162.526 68.8326C162.697 68.9355 162.824 69.0749 162.905 69.2507L163.239 67.3596H163.883L163.066 71.9907H162.48L162.506 71.489C162.429 71.5876 162.333 71.682 162.217 71.772C162.105 71.8578 161.974 71.9285 161.824 71.9843C161.674 72.04 161.503 72.0679 161.31 72.0679ZM161.529 71.5083C161.747 71.5083 161.944 71.4504 162.12 71.3347C162.296 71.2189 162.435 71.0602 162.538 70.8587C162.646 70.6571 162.706 70.432 162.718 70.1833C162.731 69.9903 162.706 69.8231 162.641 69.6816C162.577 69.5401 162.48 69.4308 162.352 69.3536C162.227 69.2721 162.075 69.2314 161.895 69.2314C161.676 69.2314 161.479 69.2871 161.303 69.3986C161.128 69.5101 160.986 69.6623 160.879 69.8553C160.772 70.0482 160.714 70.2691 160.705 70.5178C160.692 70.7107 160.718 70.8823 160.782 71.0323C160.847 71.1824 160.941 71.3003 161.065 71.3861C161.194 71.4676 161.348 71.5083 161.529 71.5083ZM165.001 72.0679C164.757 72.0679 164.557 72.0272 164.403 71.9457C164.248 71.8642 164.137 71.7549 164.068 71.6177C164 71.4804 163.97 71.3304 163.978 71.1674C163.987 70.9402 164.058 70.7429 164.191 70.5757C164.323 70.4084 164.506 70.2798 164.737 70.1897C164.973 70.0997 165.245 70.0547 165.554 70.0547H166.39C166.425 69.866 166.425 69.7095 166.39 69.5851C166.36 69.4565 166.296 69.3622 166.197 69.3021C166.099 69.2421 165.966 69.2121 165.799 69.2121C165.606 69.2121 165.432 69.2592 165.278 69.3536C165.123 69.4436 165.014 69.5787 164.949 69.7588H164.3C164.368 69.5315 164.48 69.3386 164.634 69.1799C164.793 69.017 164.98 68.8926 165.194 68.8068C165.413 68.7168 165.644 68.6718 165.889 68.6718C166.184 68.6718 166.427 68.7254 166.615 68.8326C166.804 68.9398 166.935 69.092 167.008 69.2893C167.081 69.4822 167.094 69.7138 167.046 69.9839L166.699 71.9907H166.12L166.172 71.444C166.112 71.5298 166.043 71.6112 165.966 71.6884C165.889 71.7656 165.801 71.8342 165.702 71.8942C165.603 71.95 165.496 71.9929 165.38 72.0229C165.265 72.0529 165.138 72.0679 165.001 72.0679ZM165.207 71.5469C165.344 71.5469 165.475 71.519 165.599 71.4633C165.728 71.4075 165.841 71.3325 165.94 71.2382C166.039 71.1395 166.118 71.0302 166.178 70.9101C166.242 70.7901 166.281 70.6636 166.294 70.5306L166.3 70.5113H165.535C165.359 70.5113 165.205 70.5349 165.072 70.5821C164.943 70.6293 164.844 70.6979 164.776 70.7879C164.707 70.8737 164.671 70.9766 164.666 71.0967C164.662 71.2382 164.707 71.3497 164.802 71.4311C164.896 71.5083 165.031 71.5469 165.207 71.5469ZM168.908 71.9907C168.681 71.9907 168.496 71.9543 168.355 71.8814C168.213 71.8085 168.119 71.697 168.072 71.5469C168.025 71.3925 168.02 71.1953 168.059 70.9552L168.355 69.2957H167.827L167.93 68.749H168.451L168.676 67.9385H169.242L169.095 68.749H170.014L169.918 69.2957H169.004L168.702 70.9552C168.672 71.1438 168.691 71.2725 168.76 71.3411C168.829 71.4097 168.949 71.444 169.12 71.444H169.538L169.442 71.9907H168.908ZM171.213 72.0679C170.969 72.0679 170.769 72.0272 170.615 71.9457C170.461 71.8642 170.349 71.7549 170.281 71.6177C170.212 71.4804 170.182 71.3304 170.19 71.1674C170.199 70.9402 170.27 70.7429 170.403 70.5757C170.536 70.4084 170.718 70.2798 170.949 70.1897C171.185 70.0997 171.458 70.0547 171.766 70.0547H172.602C172.637 69.866 172.637 69.7095 172.602 69.5851C172.572 69.4565 172.508 69.3622 172.41 69.3021C172.311 69.2421 172.178 69.2121 172.011 69.2121C171.818 69.2121 171.644 69.2592 171.49 69.3536C171.335 69.4436 171.226 69.5787 171.162 69.7588H170.512C170.581 69.5315 170.692 69.3386 170.847 69.1799C171.005 69.017 171.192 68.8926 171.406 68.8068C171.625 68.7168 171.856 68.6718 172.101 68.6718C172.397 68.6718 172.639 68.7254 172.828 68.8326C173.016 68.9398 173.147 69.092 173.22 69.2893C173.293 69.4822 173.306 69.7138 173.259 69.9839L172.911 71.9907H172.332L172.384 71.444C172.324 71.5298 172.255 71.6112 172.178 71.6884C172.101 71.7656 172.013 71.8342 171.914 71.8942C171.816 71.95 171.708 71.9929 171.593 72.0229C171.477 72.0529 171.35 72.0679 171.213 72.0679ZM171.419 71.5469C171.556 71.5469 171.687 71.519 171.811 71.4633C171.94 71.4075 172.054 71.3325 172.152 71.2382C172.251 71.1395 172.33 71.0302 172.39 70.9101C172.455 70.7901 172.493 70.6636 172.506 70.5306L172.512 70.5113H171.747C171.571 70.5113 171.417 70.5349 171.284 70.5821C171.155 70.6293 171.057 70.6979 170.988 70.7879C170.919 70.8737 170.883 70.9766 170.879 71.0967C170.874 71.2382 170.919 71.3497 171.014 71.4311C171.108 71.5083 171.243 71.5469 171.419 71.5469ZM174.58 70.6464L174.734 69.6302H174.959C175.165 69.6302 175.356 69.6151 175.532 69.5851C175.708 69.5551 175.862 69.5037 175.995 69.4308C176.128 69.3579 176.233 69.2571 176.31 69.1285C176.387 68.9955 176.43 68.8304 176.439 68.6332C176.447 68.4917 176.424 68.3716 176.368 68.273C176.312 68.1701 176.231 68.0907 176.124 68.035C176.016 67.9793 175.888 67.9514 175.738 67.9514C175.566 67.9514 175.412 67.9835 175.275 68.0479C175.137 68.1079 175.024 68.1958 174.934 68.3116C174.848 68.4231 174.79 68.5581 174.76 68.7168H174.155C174.198 68.4595 174.297 68.2323 174.451 68.035C174.61 67.8378 174.807 67.6855 175.043 67.5783C175.279 67.4668 175.543 67.4111 175.834 67.4111C176.091 67.4111 176.314 67.4604 176.503 67.559C176.692 67.6534 176.835 67.7884 176.934 67.9642C177.037 68.1358 177.082 68.3437 177.069 68.5882C177.052 68.9098 176.964 69.1821 176.805 69.405C176.651 69.6237 176.441 69.7888 176.175 69.9003C175.909 70.0118 175.607 70.0675 175.268 70.0675L175.139 70.6464H174.58ZM174.715 72.0229C174.595 72.0229 174.494 71.9843 174.413 71.9071C174.335 71.8299 174.297 71.7334 174.297 71.6177C174.297 71.5019 174.335 71.4054 174.413 71.3282C174.494 71.2467 174.595 71.206 174.715 71.206C174.839 71.206 174.94 71.2467 175.017 71.3282C175.094 71.4054 175.133 71.5019 175.133 71.6177C175.133 71.7334 175.094 71.8299 175.017 71.9071C174.94 71.9843 174.839 72.0229 174.715 72.0229ZM178.518 69.6752L178.782 68.7168L177.913 69.2828L177.74 68.8326L178.672 68.4595L177.875 68.0993L178.184 67.6684L178.872 68.228L178.943 67.2696H179.438L179.161 68.228L180.036 67.6684L180.197 68.0929L179.258 68.466L180.068 68.839L179.753 69.2764L179.071 68.7168L179.007 69.6752H178.518Z" fill="#717171"/>
</g>
<defs>
<filter id="filter0_d_1220_20205" x="0" y="0" width="307" height="156" filterUnits="userSpaceOnUse" color-interpolation-filters="sRGB">
<feFlood flood-opacity="0" result="BackgroundImageFix"/>
<feColorMatrix in="SourceAlpha" type="matrix" values="0 0 0 0 0 0 0 0 0 0 0 0 0 0 0 0 0 0 127 0" result="hardAlpha"/>
<feOffset dx="20" dy="20"/>
<feGaussianBlur stdDeviation="22.25"/>
<feComposite in2="hardAlpha" operator="out"/>
<feColorMatrix type="matrix" values="0 0 0 0 0 0 0 0 0 0 0 0 0 0 0 0 0 0 0.08 0"/>
<feBlend mode="normal" in2="BackgroundImageFix" result="effect1_dropShadow_1220_20205"/>
<feBlend mode="normal" in="SourceGraphic" in2="effect1_dropShadow_1220_20205" result="shape"/>
</filter>
</defs>
</svg>
