<svg width="307" height="165" viewBox="0 0 307 165" fill="none" xmlns="http://www.w3.org/2000/svg">
<g filter="url(#filter0_d_1220_20198)">
<rect x="24.5" y="24.5" width="217.545" height="76" rx="10" fill="white"/>
<rect x="25" y="25" width="216.545" height="75" rx="9.5" stroke="#1A1A1A" stroke-opacity="0.08"/>
<circle cx="42.828" cy="43.7728" r="2.79997" fill="#86DA19" stroke="#6AB50A" stroke-width="0.509086"/>
<path d="M51.2581 45.8483C50.8412 45.8483 50.4769 45.7535 50.1652 45.564C49.8536 45.3745 49.6114 45.1091 49.4387 44.768C49.2661 44.4269 49.1797 44.0289 49.1797 43.5741C49.1797 43.1234 49.2661 42.7254 49.4387 42.3801C49.6156 42.0347 49.8662 41.7652 50.1905 41.5715C50.519 41.3735 50.9064 41.2746 51.3529 41.2746C51.854 41.2746 52.2731 41.3967 52.61 41.641C52.9469 41.881 53.1638 42.2158 53.2607 42.6454H52.5405C52.4773 42.4011 52.3447 42.2095 52.1425 42.0705C51.9404 41.9273 51.675 41.8558 51.3465 41.8558C51.0349 41.8558 50.7633 41.9252 50.5316 42.0642C50.3042 42.2032 50.1294 42.4011 50.0073 42.658C49.8852 42.9149 49.8241 43.2203 49.8241 43.5741C49.8241 43.932 49.8852 44.2395 50.0073 44.4964C50.1294 44.7533 50.3021 44.9491 50.5253 45.0839C50.7485 45.2186 51.0054 45.286 51.296 45.286C51.7424 45.286 52.0772 45.1576 52.3005 44.9007C52.5279 44.6438 52.6605 44.3005 52.6984 43.871H51.4792V43.3845H53.3365V45.7725H52.7616L52.7048 45.0965C52.6037 45.2608 52.4858 45.3997 52.351 45.5135C52.2204 45.623 52.0667 45.7072 51.8898 45.7661C51.7129 45.8209 51.5024 45.8483 51.2581 45.8483ZM54.1683 45.7725V41.3504H54.9137L56.4109 44.3384L57.9018 41.3504H58.6536V45.7725H58.0218V42.4559L56.651 45.1534H56.1646L54.8 42.4622V45.7725H54.1683ZM60.5959 45.8483C60.3348 45.8483 60.1179 45.804 59.9452 45.7156C59.7726 45.6272 59.6441 45.5092 59.5599 45.3618C59.4757 45.2102 59.4335 45.0481 59.4335 44.8754C59.4335 44.6648 59.4883 44.4858 59.5978 44.3384C59.7073 44.1868 59.8631 44.071 60.0653 43.991C60.2674 43.911 60.5096 43.871 60.7918 43.871H61.6193C61.6193 43.6857 61.5919 43.5319 61.5372 43.4098C61.4824 43.2877 61.4003 43.1971 61.2908 43.1382C61.1855 43.075 61.0508 43.0434 60.8865 43.0434C60.697 43.0434 60.5349 43.0897 60.4001 43.1824C60.2653 43.2708 60.1811 43.4035 60.1474 43.5804H59.5157C59.5409 43.3572 59.6167 43.1676 59.7431 43.0118C59.8736 42.8518 60.04 42.7296 60.2422 42.6454C60.4443 42.557 60.6591 42.5127 60.8865 42.5127C61.1855 42.5127 61.4361 42.5654 61.6383 42.6707C61.8404 42.776 61.992 42.9255 62.0931 43.1192C62.1984 43.3087 62.251 43.5361 62.251 43.8015V45.7725H61.7014L61.6509 45.2355C61.6046 45.3197 61.5498 45.3997 61.4867 45.4755C61.4235 45.5514 61.3477 45.6166 61.2592 45.6714C61.175 45.7261 61.076 45.7682 60.9623 45.7977C60.8528 45.8314 60.7307 45.8483 60.5959 45.8483ZM60.7159 45.3366C60.8507 45.3366 60.9729 45.3092 61.0823 45.2544C61.1918 45.1997 61.2845 45.126 61.3603 45.0333C61.4403 44.9365 61.4993 44.8291 61.5372 44.7112C61.5793 44.589 61.6025 44.4648 61.6067 44.3384V44.3195H60.8549C60.6738 44.3195 60.5264 44.3427 60.4127 44.389C60.3032 44.4311 60.2232 44.4901 60.1727 44.5659C60.1221 44.6417 60.0969 44.7301 60.0969 44.8312C60.0969 44.9365 60.12 45.027 60.1663 45.1028C60.2169 45.1744 60.2885 45.2313 60.3811 45.2734C60.4738 45.3155 60.5854 45.3366 60.7159 45.3366ZM63.1016 45.7725V42.5886H63.7333V45.7725H63.1016ZM63.4238 41.9884C63.3017 41.9884 63.2006 41.9505 63.1206 41.8747C63.0448 41.7989 63.0068 41.702 63.0068 41.5841C63.0068 41.4704 63.0448 41.3777 63.1206 41.3062C63.2006 41.2303 63.3017 41.1924 63.4238 41.1924C63.5417 41.1924 63.6407 41.2303 63.7207 41.3062C63.8007 41.3777 63.8407 41.4704 63.8407 41.5841C63.8407 41.702 63.8007 41.7989 63.7207 41.8747C63.6407 41.9505 63.5417 41.9884 63.4238 41.9884ZM64.6367 45.7725V41.224H65.2684V45.7725H64.6367Z" fill="#1A1A1A"/>
<path d="M41.6534 59.3298V55.7938H42.3574V59.3298H41.6534ZM40.1414 57.8978V57.2258H43.8774V57.8978H40.1414ZM45.4662 59.8818V55.1858L44.4902 55.4338V54.8338L45.7622 54.2818H46.2822V59.8818H45.4662ZM49.6352 59.9778C49.1392 59.9778 48.7125 59.8578 48.3552 59.6178C47.9979 59.3725 47.7232 59.0338 47.5312 58.6018C47.3392 58.1645 47.2432 57.6578 47.2432 57.0818C47.2432 56.5058 47.3392 56.0018 47.5312 55.5698C47.7232 55.1325 47.9979 54.7938 48.3552 54.5538C48.7125 54.3085 49.1392 54.1858 49.6352 54.1858C50.1312 54.1858 50.5552 54.3085 50.9072 54.5538C51.2645 54.7938 51.5365 55.1325 51.7232 55.5698C51.9152 56.0018 52.0112 56.5058 52.0112 57.0818C52.0112 57.6578 51.9152 58.1645 51.7232 58.6018C51.5365 59.0338 51.2645 59.3725 50.9072 59.6178C50.5552 59.8578 50.1312 59.9778 49.6352 59.9778ZM49.6352 59.2658C49.9339 59.2658 50.2005 59.1778 50.4352 59.0018C50.6752 58.8258 50.8619 58.5752 50.9952 58.2498C51.1285 57.9245 51.1952 57.5352 51.1952 57.0818C51.1952 56.6285 51.1285 56.2392 50.9952 55.9138C50.8619 55.5885 50.6752 55.3405 50.4352 55.1698C50.2005 54.9938 49.9339 54.9058 49.6352 54.9058C49.3312 54.9058 49.0592 54.9938 48.8192 55.1698C48.5792 55.3405 48.3925 55.5885 48.2592 55.9138C48.1259 56.2392 48.0592 56.6285 48.0592 57.0818C48.0592 57.5352 48.1259 57.9245 48.2592 58.2498C48.3925 58.5752 48.5792 58.8258 48.8192 59.0018C49.0592 59.1778 49.3312 59.2658 49.6352 59.2658ZM55.5186 59.8818V58.7378H52.7106V58.1138L55.3906 54.2818H56.3106V58.0418H57.1106V58.7378H56.3106V59.8818H55.5186ZM53.5826 58.0418H55.5666V55.1618L53.5826 58.0418ZM61.7743 59.9778C61.3903 59.9778 61.0489 59.8898 60.7503 59.7138C60.4516 59.5378 60.2169 59.2925 60.0463 58.9778C59.8809 58.6632 59.7983 58.2978 59.7983 57.8818C59.7983 57.4552 59.8809 57.0845 60.0463 56.7698C60.2169 56.4498 60.4516 56.2018 60.7503 56.0258C61.0489 55.8445 61.3956 55.7538 61.7903 55.7538C62.1849 55.7538 62.5236 55.8418 62.8063 56.0178C63.0889 56.1938 63.3076 56.4285 63.4623 56.7218C63.6169 57.0098 63.6943 57.3298 63.6943 57.6818C63.6943 57.7352 63.6916 57.7938 63.6863 57.8578C63.6863 57.9165 63.6836 57.9832 63.6783 58.0578H60.3823V57.4898H62.8943C62.8783 57.1538 62.7663 56.8925 62.5583 56.7058C62.3503 56.5138 62.0916 56.4178 61.7823 56.4178C61.5636 56.4178 61.3636 56.4685 61.1823 56.5698C61.0009 56.6658 60.8543 56.8098 60.7423 57.0018C60.6356 57.1885 60.5822 57.4258 60.5822 57.7138V57.9378C60.5822 58.2365 60.6356 58.4898 60.7423 58.6978C60.8543 58.9005 61.0009 59.0552 61.1823 59.1618C61.3636 59.2632 61.5609 59.3138 61.7743 59.3138C62.0303 59.3138 62.2409 59.2578 62.4063 59.1458C62.5716 59.0338 62.6943 58.8818 62.7743 58.6898H63.5743C63.5049 58.9352 63.3876 59.1565 63.2223 59.3538C63.0569 59.5458 62.8516 59.6978 62.6063 59.8098C62.3663 59.9218 62.0889 59.9778 61.7743 59.9778ZM64.5831 59.8818V55.8498H65.3031L65.3591 56.4178C65.4871 56.2098 65.6577 56.0472 65.8711 55.9298C66.0844 55.8125 66.3244 55.7538 66.5911 55.7538C66.7937 55.7538 66.9777 55.7832 67.1431 55.8418C67.3084 55.8952 67.4551 55.9778 67.5831 56.0898C67.7111 56.2018 67.8151 56.3405 67.8951 56.5058C68.0391 56.2712 68.2311 56.0872 68.4711 55.9538C68.7164 55.8205 68.9751 55.7538 69.2471 55.7538C69.5724 55.7538 69.8524 55.8205 70.0871 55.9538C70.3217 56.0818 70.5004 56.2765 70.6231 56.5378C70.7457 56.7938 70.8071 57.1138 70.8071 57.4978V59.8818H70.0151V57.5778C70.0151 57.2045 69.9377 56.9218 69.7831 56.7298C69.6337 56.5378 69.4124 56.4418 69.1191 56.4418C68.9217 56.4418 68.7457 56.4925 68.5911 56.5938C68.4364 56.6952 68.3137 56.8418 68.2231 57.0338C68.1377 57.2258 68.0951 57.4605 68.0951 57.7378V59.8818H67.2951V57.5778C67.2951 57.2045 67.2177 56.9218 67.0631 56.7298C66.9137 56.5378 66.6924 56.4418 66.3991 56.4418C66.2124 56.4418 66.0417 56.4925 65.8871 56.5938C65.7324 56.6952 65.6097 56.8418 65.5191 57.0338C65.4284 57.2258 65.3831 57.4605 65.3831 57.7378V59.8818H64.5831ZM73.1769 59.9778C72.8462 59.9778 72.5715 59.9218 72.3529 59.8098C72.1342 59.6978 71.9715 59.5485 71.8649 59.3618C71.7582 59.1698 71.7049 58.9645 71.7049 58.7458C71.7049 58.4792 71.7742 58.2525 71.9129 58.0658C72.0515 57.8738 72.2489 57.7272 72.5049 57.6258C72.7609 57.5245 73.0675 57.4738 73.4249 57.4738H74.4729C74.4729 57.2392 74.4382 57.0445 74.3689 56.8898C74.2995 56.7352 74.1955 56.6205 74.0569 56.5458C73.9235 56.4658 73.7529 56.4258 73.5449 56.4258C73.3049 56.4258 73.0995 56.4845 72.9289 56.6018C72.7582 56.7138 72.6515 56.8818 72.6089 57.1058H71.8089C71.8409 56.8232 71.9369 56.5832 72.0969 56.3858C72.2622 56.1832 72.4729 56.0285 72.7289 55.9218C72.9849 55.8098 73.2569 55.7538 73.5449 55.7538C73.9235 55.7538 74.2409 55.8205 74.4969 55.9538C74.7529 56.0872 74.9449 56.2765 75.0729 56.5218C75.2062 56.7618 75.2729 57.0498 75.2729 57.3858V59.8818H74.5769L74.5129 59.2018C74.4542 59.3085 74.3849 59.4098 74.3049 59.5058C74.2249 59.6018 74.1289 59.6845 74.0169 59.7538C73.9102 59.8232 73.7849 59.8765 73.6409 59.9138C73.5022 59.9565 73.3475 59.9778 73.1769 59.9778ZM73.3289 59.3298C73.4995 59.3298 73.6542 59.2952 73.7929 59.2258C73.9315 59.1565 74.0489 59.0632 74.1449 58.9458C74.2462 58.8232 74.3209 58.6872 74.3689 58.5378C74.4222 58.3832 74.4515 58.2258 74.4569 58.0658V58.0418H73.5049C73.2755 58.0418 73.0889 58.0712 72.9449 58.1298C72.8062 58.1832 72.7049 58.2578 72.6409 58.3538C72.5769 58.4498 72.5449 58.5618 72.5449 58.6898C72.5449 58.8232 72.5742 58.9378 72.6329 59.0338C72.6969 59.1245 72.7875 59.1965 72.9049 59.2498C73.0222 59.3032 73.1635 59.3298 73.3289 59.3298ZM76.35 59.8818V55.8498H77.15V59.8818H76.35ZM76.758 55.0898C76.6033 55.0898 76.4753 55.0418 76.374 54.9458C76.278 54.8498 76.23 54.7272 76.23 54.5778C76.23 54.4338 76.278 54.3165 76.374 54.2258C76.4753 54.1298 76.6033 54.0818 76.758 54.0818C76.9073 54.0818 77.0327 54.1298 77.134 54.2258C77.2353 54.3165 77.286 54.4338 77.286 54.5778C77.286 54.7272 77.2353 54.8498 77.134 54.9458C77.0327 55.0418 76.9073 55.0898 76.758 55.0898ZM78.294 59.8818V54.1218H79.094V59.8818H78.294ZM81.7524 59.9778C81.4111 59.9778 81.1124 59.9218 80.8564 59.8098C80.6004 59.6978 80.3978 59.5405 80.2484 59.3378C80.0991 59.1352 80.0084 58.8978 79.9764 58.6258H80.7924C80.8191 58.7538 80.8698 58.8712 80.9444 58.9778C81.0244 59.0845 81.1311 59.1698 81.2644 59.2338C81.4031 59.2978 81.5658 59.3298 81.7524 59.3298C81.9284 59.3298 82.0724 59.3058 82.1844 59.2578C82.3018 59.2045 82.3871 59.1352 82.4404 59.0498C82.4938 58.9592 82.5204 58.8632 82.5204 58.7618C82.5204 58.6125 82.4831 58.5005 82.4084 58.4258C82.3391 58.3458 82.2324 58.2845 82.0884 58.2418C81.9498 58.1938 81.7818 58.1512 81.5844 58.1138C81.3978 58.0818 81.2164 58.0392 81.0404 57.9858C80.8698 57.9272 80.7151 57.8552 80.5764 57.7698C80.4431 57.6845 80.3364 57.5778 80.2564 57.4498C80.1764 57.3165 80.1364 57.1538 80.1364 56.9618C80.1364 56.7325 80.1978 56.5272 80.3204 56.3458C80.4431 56.1592 80.6164 56.0152 80.8404 55.9138C81.0698 55.8072 81.3391 55.7538 81.6484 55.7538C82.0964 55.7538 82.4564 55.8605 82.7284 56.0738C83.0004 56.2872 83.1604 56.5885 83.2084 56.9778H82.4324C82.4111 56.7965 82.3311 56.6578 82.1924 56.5618C82.0538 56.4605 81.8698 56.4098 81.6404 56.4098C81.4111 56.4098 81.2351 56.4552 81.1124 56.5458C80.9898 56.6365 80.9284 56.7565 80.9284 56.9058C80.9284 57.0018 80.9631 57.0872 81.0324 57.1618C81.1018 57.2365 81.2031 57.3005 81.3364 57.3538C81.4751 57.4018 81.6431 57.4472 81.8404 57.4898C82.1231 57.5432 82.3764 57.6098 82.6004 57.6898C82.8244 57.7698 83.0031 57.8872 83.1364 58.0418C83.2698 58.1965 83.3364 58.4178 83.3364 58.7058C83.3418 58.9565 83.2778 59.1778 83.1444 59.3698C83.0164 59.5618 82.8324 59.7112 82.5924 59.8178C82.3578 59.9245 82.0778 59.9778 81.7524 59.9778ZM86.5413 59.8818V55.3058C86.5413 55.0285 86.5866 54.8018 86.6773 54.6258C86.7733 54.4498 86.9119 54.3218 87.0933 54.2418C87.2746 54.1618 87.4933 54.1218 87.7493 54.1218H88.2213V54.8018H87.8773C87.6853 54.8018 87.5466 54.8418 87.4613 54.9218C87.3813 54.9965 87.3413 55.1298 87.3413 55.3218V59.8818H86.5413ZM85.9493 56.5298V55.8498H88.3093V56.5298H85.9493ZM89.1221 59.8818V55.8498H89.8421L89.9141 56.6098C90.0048 56.4285 90.1221 56.2765 90.2661 56.1538C90.4101 56.0258 90.5781 55.9272 90.7701 55.8578C90.9675 55.7885 91.1915 55.7538 91.4421 55.7538V56.6018H91.1541C90.9888 56.6018 90.8315 56.6232 90.6821 56.6658C90.5328 56.7032 90.3995 56.7698 90.2821 56.8658C90.1701 56.9618 90.0821 57.0925 90.0181 57.2578C89.9541 57.4232 89.9221 57.6285 89.9221 57.8738V59.8818H89.1221ZM93.8996 59.9778C93.521 59.9778 93.1796 59.8898 92.8756 59.7138C92.577 59.5378 92.3396 59.2925 92.1636 58.9778C91.993 58.6578 91.9076 58.2898 91.9076 57.8738C91.9076 57.4472 91.9956 57.0765 92.1716 56.7618C92.3476 56.4418 92.5876 56.1938 92.8916 56.0178C93.1956 55.8418 93.537 55.7538 93.9156 55.7538C94.2996 55.7538 94.641 55.8418 94.9396 56.0178C95.2383 56.1938 95.473 56.4392 95.6436 56.7538C95.8196 57.0685 95.9076 57.4392 95.9076 57.8658C95.9076 58.2925 95.8196 58.6632 95.6436 58.9778C95.473 59.2925 95.2356 59.5378 94.9316 59.7138C94.6276 59.8898 94.2836 59.9778 93.8996 59.9778ZM93.8996 59.2898C94.1183 59.2898 94.3156 59.2365 94.4916 59.1298C94.673 59.0232 94.817 58.8658 94.9236 58.6578C95.0356 58.4445 95.0916 58.1805 95.0916 57.8658C95.0916 57.5512 95.0383 57.2898 94.9316 57.0818C94.825 56.8685 94.681 56.7085 94.4996 56.6018C94.3236 56.4952 94.129 56.4418 93.9156 56.4418C93.7023 56.4418 93.505 56.4952 93.3236 56.6018C93.1423 56.7085 92.9956 56.8685 92.8836 57.0818C92.777 57.2898 92.7236 57.5512 92.7236 57.8658C92.7236 58.1805 92.777 58.4445 92.8836 58.6578C92.9956 58.8658 93.1396 59.0232 93.3156 59.1298C93.497 59.2365 93.6916 59.2898 93.8996 59.2898ZM96.8487 59.8818V55.8498H97.5687L97.6247 56.4178C97.7527 56.2098 97.9234 56.0472 98.1367 55.9298C98.35 55.8125 98.59 55.7538 98.8567 55.7538C99.0594 55.7538 99.2434 55.7832 99.4087 55.8418C99.574 55.8952 99.7207 55.9778 99.8487 56.0898C99.9767 56.2018 100.081 56.3405 100.161 56.5058C100.305 56.2712 100.497 56.0872 100.737 55.9538C100.982 55.8205 101.241 55.7538 101.513 55.7538C101.838 55.7538 102.118 55.8205 102.353 55.9538C102.587 56.0818 102.766 56.2765 102.889 56.5378C103.011 56.7938 103.073 57.1138 103.073 57.4978V59.8818H102.281V57.5778C102.281 57.2045 102.203 56.9218 102.049 56.7298C101.899 56.5378 101.678 56.4418 101.385 56.4418C101.187 56.4418 101.011 56.4925 100.857 56.5938C100.702 56.6952 100.579 56.8418 100.489 57.0338C100.403 57.2258 100.361 57.4605 100.361 57.7378V59.8818H99.5607V57.5778C99.5607 57.2045 99.4834 56.9218 99.3287 56.7298C99.1794 56.5378 98.958 56.4418 98.6647 56.4418C98.478 56.4418 98.3074 56.4925 98.1527 56.5938C97.998 56.6952 97.8754 56.8418 97.7847 57.0338C97.694 57.2258 97.6487 57.4605 97.6487 57.7378V59.8818H96.8487ZM107.817 59.8818C107.561 59.8818 107.34 59.8418 107.153 59.7618C106.967 59.6818 106.823 59.5485 106.721 59.3618C106.62 59.1752 106.569 58.9218 106.569 58.6018V56.5298H105.873V55.8498H106.569L106.665 54.8418H107.369V55.8498H108.513V56.5298H107.369V58.6098C107.369 58.8392 107.417 58.9965 107.513 59.0818C107.609 59.1618 107.775 59.2018 108.009 59.2018H108.473V59.8818H107.817ZM109.396 59.8818V54.1218H110.196V56.5058C110.329 56.2712 110.513 56.0872 110.748 55.9538C110.988 55.8205 111.252 55.7538 111.54 55.7538C111.86 55.7538 112.134 55.8205 112.364 55.9538C112.593 56.0818 112.769 56.2765 112.892 56.5378C113.014 56.7938 113.076 57.1165 113.076 57.5058V59.8818H112.284V57.5858C112.284 57.2125 112.204 56.9298 112.044 56.7378C111.884 56.5405 111.646 56.4418 111.332 56.4418C111.118 56.4418 110.926 56.4925 110.756 56.5938C110.585 56.6952 110.449 56.8445 110.348 57.0418C110.246 57.2338 110.196 57.4685 110.196 57.7458V59.8818H109.396ZM115.923 59.9778C115.539 59.9778 115.197 59.8898 114.899 59.7138C114.6 59.5378 114.365 59.2925 114.195 58.9778C114.029 58.6632 113.947 58.2978 113.947 57.8818C113.947 57.4552 114.029 57.0845 114.195 56.7698C114.365 56.4498 114.6 56.2018 114.899 56.0258C115.197 55.8445 115.544 55.7538 115.939 55.7538C116.333 55.7538 116.672 55.8418 116.955 56.0178C117.237 56.1938 117.456 56.4285 117.611 56.7218C117.765 57.0098 117.843 57.3298 117.843 57.6818C117.843 57.7352 117.84 57.7938 117.835 57.8578C117.835 57.9165 117.832 57.9832 117.827 58.0578H114.531V57.4898H117.043C117.027 57.1538 116.915 56.8925 116.707 56.7058C116.499 56.5138 116.24 56.4178 115.931 56.4178C115.712 56.4178 115.512 56.4685 115.331 56.5698C115.149 56.6658 115.003 56.8098 114.891 57.0018C114.784 57.1885 114.731 57.4258 114.731 57.7138V57.9378C114.731 58.2365 114.784 58.4898 114.891 58.6978C115.003 58.9005 115.149 59.0552 115.331 59.1618C115.512 59.2632 115.709 59.3138 115.923 59.3138C116.179 59.3138 116.389 59.2578 116.555 59.1458C116.72 59.0338 116.843 58.8818 116.923 58.6898H117.723C117.653 58.9352 117.536 59.1565 117.371 59.3538C117.205 59.5458 117 59.6978 116.755 59.8098C116.515 59.9218 116.237 59.9778 115.923 59.9778ZM120.778 59.8818V54.1218H121.578V56.5058C121.712 56.2712 121.896 56.0872 122.13 55.9538C122.37 55.8205 122.634 55.7538 122.922 55.7538C123.242 55.7538 123.517 55.8205 123.746 55.9538C123.976 56.0818 124.152 56.2765 124.274 56.5378C124.397 56.7938 124.458 57.1165 124.458 57.5058V59.8818H123.666V57.5858C123.666 57.2125 123.586 56.9298 123.426 56.7378C123.266 56.5405 123.029 56.4418 122.714 56.4418C122.501 56.4418 122.309 56.4925 122.138 56.5938C121.968 56.6952 121.832 56.8445 121.73 57.0418C121.629 57.2338 121.578 57.4685 121.578 57.7458V59.8818H120.778ZM127.306 59.9778C126.922 59.9778 126.58 59.8898 126.282 59.7138C125.983 59.5378 125.748 59.2925 125.578 58.9778C125.412 58.6632 125.33 58.2978 125.33 57.8818C125.33 57.4552 125.412 57.0845 125.578 56.7698C125.748 56.4498 125.983 56.2018 126.282 56.0258C126.58 55.8445 126.927 55.7538 127.322 55.7538C127.716 55.7538 128.055 55.8418 128.338 56.0178C128.62 56.1938 128.839 56.4285 128.994 56.7218C129.148 57.0098 129.226 57.3298 129.226 57.6818C129.226 57.7352 129.223 57.7938 129.218 57.8578C129.218 57.9165 129.215 57.9832 129.21 58.0578H125.914V57.4898H128.426C128.41 57.1538 128.298 56.8925 128.09 56.7058C127.882 56.5138 127.623 56.4178 127.314 56.4178C127.095 56.4178 126.895 56.4685 126.714 56.5698C126.532 56.6658 126.386 56.8098 126.274 57.0018C126.167 57.1885 126.113 57.4258 126.113 57.7138V57.9378C126.113 58.2365 126.167 58.4898 126.274 58.6978C126.386 58.9005 126.532 59.0552 126.714 59.1618C126.895 59.2632 127.092 59.3138 127.306 59.3138C127.562 59.3138 127.772 59.2578 127.938 59.1458C128.103 59.0338 128.226 58.8818 128.306 58.6898H129.106C129.036 58.9352 128.919 59.1565 128.754 59.3538C128.588 59.5458 128.383 59.6978 128.138 59.8098C127.898 59.9218 127.62 59.9778 127.306 59.9778ZM131.45 59.9778C131.12 59.9778 130.845 59.9218 130.626 59.8098C130.408 59.6978 130.245 59.5485 130.138 59.3618C130.032 59.1698 129.978 58.9645 129.978 58.7458C129.978 58.4792 130.048 58.2525 130.186 58.0658C130.325 57.8738 130.522 57.7272 130.778 57.6258C131.034 57.5245 131.341 57.4738 131.698 57.4738H132.746C132.746 57.2392 132.712 57.0445 132.642 56.8898C132.573 56.7352 132.469 56.6205 132.33 56.5458C132.197 56.4658 132.026 56.4258 131.818 56.4258C131.578 56.4258 131.373 56.4845 131.202 56.6018C131.032 56.7138 130.925 56.8818 130.882 57.1058H130.082C130.114 56.8232 130.21 56.5832 130.37 56.3858C130.536 56.1832 130.746 56.0285 131.002 55.9218C131.258 55.8098 131.53 55.7538 131.818 55.7538C132.197 55.7538 132.514 55.8205 132.77 55.9538C133.026 56.0872 133.218 56.2765 133.346 56.5218C133.48 56.7618 133.546 57.0498 133.546 57.3858V59.8818H132.85L132.786 59.2018C132.728 59.3085 132.658 59.4098 132.578 59.5058C132.498 59.6018 132.402 59.6845 132.29 59.7538C132.184 59.8232 132.058 59.8765 131.914 59.9138C131.776 59.9565 131.621 59.9778 131.45 59.9778ZM131.602 59.3298C131.773 59.3298 131.928 59.2952 132.066 59.2258C132.205 59.1565 132.322 59.0632 132.418 58.9458C132.52 58.8232 132.594 58.6872 132.642 58.5378C132.696 58.3832 132.725 58.2258 132.73 58.0658V58.0418H131.778C131.549 58.0418 131.362 58.0712 131.218 58.1298C131.08 58.1832 130.978 58.2578 130.914 58.3538C130.85 58.4498 130.818 58.5618 130.818 58.6898C130.818 58.8232 130.848 58.9378 130.906 59.0338C130.97 59.1245 131.061 59.1965 131.178 59.2498C131.296 59.3032 131.437 59.3298 131.602 59.3298ZM134.567 59.8818V54.1218H135.367V59.8818H134.567ZM138.13 59.8818C137.874 59.8818 137.653 59.8418 137.466 59.7618C137.279 59.6818 137.135 59.5485 137.034 59.3618C136.933 59.1752 136.882 58.9218 136.882 58.6018V56.5298H136.186V55.8498H136.882L136.978 54.8418H137.682V55.8498H138.826V56.5298H137.682V58.6098C137.682 58.8392 137.73 58.9965 137.826 59.0818C137.922 59.1618 138.087 59.2018 138.322 59.2018H138.786V59.8818H138.13ZM139.708 59.8818V54.1218H140.508V56.5058C140.641 56.2712 140.825 56.0872 141.06 55.9538C141.3 55.8205 141.564 55.7538 141.852 55.7538C142.172 55.7538 142.447 55.8205 142.676 55.9538C142.905 56.0818 143.081 56.2765 143.204 56.5378C143.327 56.7938 143.388 57.1165 143.388 57.5058V59.8818H142.596V57.5858C142.596 57.2125 142.516 56.9298 142.356 56.7378C142.196 56.5405 141.959 56.4418 141.644 56.4418C141.431 56.4418 141.239 56.4925 141.068 56.5938C140.897 56.6952 140.761 56.8445 140.66 57.0418C140.559 57.2338 140.508 57.4685 140.508 57.7458V59.8818H139.708ZM144.411 59.8818V54.1218H145.211V59.8818H144.411ZM146.774 61.6418L147.758 59.4338H147.526L145.934 55.8498H146.798L148.062 58.7778L149.334 55.8498H150.174L147.614 61.6418H146.774ZM152.927 59.8818V54.1218H153.727V59.8818H152.927ZM154.881 59.8818V55.8498H155.681V59.8818H154.881ZM155.289 55.0898C155.135 55.0898 155.007 55.0418 154.905 54.9458C154.809 54.8498 154.761 54.7272 154.761 54.5778C154.761 54.4338 154.809 54.3165 154.905 54.2258C155.007 54.1298 155.135 54.0818 155.289 54.0818C155.439 54.0818 155.564 54.1298 155.665 54.2258C155.767 54.3165 155.817 54.4338 155.817 54.5778C155.817 54.7272 155.767 54.8498 155.665 54.9458C155.564 55.0418 155.439 55.0898 155.289 55.0898ZM157.041 59.8818V55.3058C157.041 55.0285 157.087 54.8018 157.177 54.6258C157.273 54.4498 157.412 54.3218 157.593 54.2418C157.775 54.1618 157.993 54.1218 158.249 54.1218H158.721V54.8018H158.377C158.185 54.8018 158.047 54.8418 157.961 54.9218C157.881 54.9965 157.841 55.1298 157.841 55.3218V59.8818H157.041ZM156.449 56.5298V55.8498H158.809V56.5298H156.449ZM161.29 59.9778C160.906 59.9778 160.565 59.8898 160.266 59.7138C159.967 59.5378 159.733 59.2925 159.562 58.9778C159.397 58.6632 159.314 58.2978 159.314 57.8818C159.314 57.4552 159.397 57.0845 159.562 56.7698C159.733 56.4498 159.967 56.2018 160.266 56.0258C160.565 55.8445 160.911 55.7538 161.306 55.7538C161.701 55.7538 162.039 55.8418 162.322 56.0178C162.605 56.1938 162.823 56.4285 162.978 56.7218C163.133 57.0098 163.21 57.3298 163.21 57.6818C163.21 57.7352 163.207 57.7938 163.202 57.8578C163.202 57.9165 163.199 57.9832 163.194 58.0578H159.898V57.4898H162.41C162.394 57.1538 162.282 56.8925 162.074 56.7058C161.866 56.5138 161.607 56.4178 161.298 56.4178C161.079 56.4178 160.879 56.4685 160.698 56.5698C160.517 56.6658 160.37 56.8098 160.258 57.0018C160.151 57.1885 160.098 57.4258 160.098 57.7138V57.9378C160.098 58.2365 160.151 58.4898 160.258 58.6978C160.37 58.9005 160.517 59.0552 160.698 59.1618C160.879 59.2632 161.077 59.3138 161.29 59.3138C161.546 59.3138 161.757 59.2578 161.922 59.1458C162.087 59.0338 162.21 58.8818 162.29 58.6898H163.09C163.021 58.9352 162.903 59.1565 162.738 59.3538C162.573 59.5458 162.367 59.6978 162.122 59.8098C161.882 59.9218 161.605 59.9778 161.29 59.9778ZM165.659 59.9778C165.317 59.9778 165.019 59.9218 164.763 59.8098C164.507 59.6978 164.304 59.5405 164.155 59.3378C164.005 59.1352 163.915 58.8978 163.883 58.6258H164.699C164.725 58.7538 164.776 58.8712 164.851 58.9778C164.931 59.0845 165.037 59.1698 165.171 59.2338C165.309 59.2978 165.472 59.3298 165.659 59.3298C165.835 59.3298 165.979 59.3058 166.091 59.2578C166.208 59.2045 166.293 59.1352 166.347 59.0498C166.4 58.9592 166.427 58.8632 166.427 58.7618C166.427 58.6125 166.389 58.5005 166.315 58.4258C166.245 58.3458 166.139 58.2845 165.995 58.2418C165.856 58.1938 165.688 58.1512 165.491 58.1138C165.304 58.0818 165.123 58.0392 164.947 57.9858C164.776 57.9272 164.621 57.8552 164.483 57.7698C164.349 57.6845 164.243 57.5778 164.163 57.4498C164.083 57.3165 164.043 57.1538 164.043 56.9618C164.043 56.7325 164.104 56.5272 164.227 56.3458C164.349 56.1592 164.523 56.0152 164.747 55.9138C164.976 55.8072 165.245 55.7538 165.555 55.7538C166.003 55.7538 166.363 55.8605 166.635 56.0738C166.907 56.2872 167.067 56.5885 167.115 56.9778H166.339C166.317 56.7965 166.237 56.6578 166.099 56.5618C165.96 56.4605 165.776 56.4098 165.547 56.4098C165.317 56.4098 165.141 56.4552 165.019 56.5458C164.896 56.6365 164.835 56.7565 164.835 56.9058C164.835 57.0018 164.869 57.0872 164.939 57.1618C165.008 57.2365 165.109 57.3005 165.243 57.3538C165.381 57.4018 165.549 57.4472 165.747 57.4898C166.029 57.5432 166.283 57.6098 166.507 57.6898C166.731 57.7698 166.909 57.8872 167.043 58.0418C167.176 58.1965 167.243 58.4178 167.243 58.7058C167.248 58.9565 167.184 59.1778 167.051 59.3698C166.923 59.5618 166.739 59.7112 166.499 59.8178C166.264 59.9245 165.984 59.9778 165.659 59.9778ZM169.685 59.8818C169.429 59.8818 169.207 59.8418 169.021 59.7618C168.834 59.6818 168.69 59.5485 168.589 59.3618C168.487 59.1752 168.437 58.9218 168.437 58.6018V56.5298H167.741V55.8498H168.437L168.533 54.8418H169.237V55.8498H170.381V56.5298H169.237V58.6098C169.237 58.8392 169.285 58.9965 169.381 59.0818C169.477 59.1618 169.642 59.2018 169.877 59.2018H170.341V59.8818H169.685ZM171.727 61.6418L172.711 59.4338H172.479L170.887 55.8498H171.751L173.015 58.7778L174.287 55.8498H175.127L172.567 61.6418H171.727ZM175.833 59.8818V54.1218H176.633V59.8818H175.833ZM179.556 59.9778C179.172 59.9778 178.83 59.8898 178.532 59.7138C178.233 59.5378 177.998 59.2925 177.828 58.9778C177.662 58.6632 177.58 58.2978 177.58 57.8818C177.58 57.4552 177.662 57.0845 177.828 56.7698C177.998 56.4498 178.233 56.2018 178.532 56.0258C178.83 55.8445 179.177 55.7538 179.572 55.7538C179.966 55.7538 180.305 55.8418 180.588 56.0178C180.87 56.1938 181.089 56.4285 181.244 56.7218C181.398 57.0098 181.476 57.3298 181.476 57.6818C181.476 57.7352 181.473 57.7938 181.468 57.8578C181.468 57.9165 181.465 57.9832 181.46 58.0578H178.164V57.4898H180.676C180.66 57.1538 180.548 56.8925 180.34 56.7058C180.132 56.5138 179.873 56.4178 179.564 56.4178C179.345 56.4178 179.145 56.4685 178.964 56.5698C178.782 56.6658 178.636 56.8098 178.524 57.0018C178.417 57.1885 178.363 57.4258 178.363 57.7138V57.9378C178.363 58.2365 178.417 58.4898 178.524 58.6978C178.636 58.9005 178.782 59.0552 178.964 59.1618C179.145 59.2632 179.342 59.3138 179.556 59.3138C179.812 59.3138 180.022 59.2578 180.188 59.1458C180.353 59.0338 180.476 58.8818 180.556 58.6898H181.356C181.286 58.9352 181.169 59.1565 181.004 59.3538C180.838 59.5458 180.633 59.6978 180.388 59.8098C180.148 59.9218 179.87 59.9778 179.556 59.9778ZM184.411 59.8818V55.8498H185.131L185.179 56.5378C185.307 56.2978 185.489 56.1085 185.723 55.9698C185.958 55.8258 186.227 55.7538 186.531 55.7538C186.851 55.7538 187.126 55.8178 187.355 55.9458C187.585 56.0738 187.763 56.2685 187.891 56.5298C188.019 56.7858 188.083 57.1085 188.083 57.4978V59.8818H187.283V57.5778C187.283 57.2045 187.201 56.9218 187.035 56.7298C186.87 56.5378 186.63 56.4418 186.315 56.4418C186.107 56.4418 185.921 56.4925 185.755 56.5938C185.59 56.6898 185.457 56.8338 185.355 57.0258C185.259 57.2178 185.211 57.4525 185.211 57.7298V59.8818H184.411ZM190.931 59.9778C190.547 59.9778 190.205 59.8898 189.907 59.7138C189.608 59.5378 189.373 59.2925 189.203 58.9778C189.037 58.6632 188.955 58.2978 188.955 57.8818C188.955 57.4552 189.037 57.0845 189.203 56.7698C189.373 56.4498 189.608 56.2018 189.907 56.0258C190.205 55.8445 190.552 55.7538 190.947 55.7538C191.341 55.7538 191.68 55.8418 191.963 56.0178C192.245 56.1938 192.464 56.4285 192.619 56.7218C192.773 57.0098 192.851 57.3298 192.851 57.6818C192.851 57.7352 192.848 57.7938 192.843 57.8578C192.843 57.9165 192.84 57.9832 192.835 58.0578H189.539V57.4898H192.051C192.035 57.1538 191.923 56.8925 191.715 56.7058C191.507 56.5138 191.248 56.4178 190.939 56.4178C190.72 56.4178 190.52 56.4685 190.339 56.5698C190.157 56.6658 190.011 56.8098 189.899 57.0018C189.792 57.1885 189.738 57.4258 189.738 57.7138V57.9378C189.738 58.2365 189.792 58.4898 189.899 58.6978C190.011 58.9005 190.157 59.0552 190.339 59.1618C190.52 59.2632 190.717 59.3138 190.931 59.3138C191.187 59.3138 191.397 59.2578 191.563 59.1458C191.728 59.0338 191.851 58.8818 191.931 58.6898H192.731C192.661 58.9352 192.544 59.1565 192.379 59.3538C192.213 59.5458 192.008 59.6978 191.763 59.8098C191.523 59.9218 191.245 59.9778 190.931 59.9778ZM194.399 59.8818L193.215 55.8498H194.007L194.887 59.2098L194.735 59.2018L195.711 55.8498H196.607L197.583 59.2018L197.431 59.2098L198.303 55.8498H199.111L197.927 59.8818H197.103L196.079 56.3858H196.239L195.215 59.8818H194.399ZM201.393 59.9778C201.052 59.9778 200.753 59.9218 200.497 59.8098C200.241 59.6978 200.038 59.5405 199.889 59.3378C199.74 59.1352 199.649 58.8978 199.617 58.6258H200.433C200.46 58.7538 200.51 58.8712 200.585 58.9778C200.665 59.0845 200.772 59.1698 200.905 59.2338C201.044 59.2978 201.206 59.3298 201.393 59.3298C201.569 59.3298 201.713 59.3058 201.825 59.2578C201.942 59.2045 202.028 59.1352 202.081 59.0498C202.134 58.9592 202.161 58.8632 202.161 58.7618C202.161 58.6125 202.124 58.5005 202.049 58.4258C201.98 58.3458 201.873 58.2845 201.729 58.2418C201.59 58.1938 201.422 58.1512 201.225 58.1138C201.038 58.0818 200.857 58.0392 200.681 57.9858C200.51 57.9272 200.356 57.8552 200.217 57.7698C200.084 57.6845 199.977 57.5778 199.897 57.4498C199.817 57.3165 199.777 57.1538 199.777 56.9618C199.777 56.7325 199.838 56.5272 199.961 56.3458C200.084 56.1592 200.257 56.0152 200.481 55.9138C200.71 55.8072 200.98 55.7538 201.289 55.7538C201.737 55.7538 202.097 55.8605 202.369 56.0738C202.641 56.2872 202.801 56.5885 202.849 56.9778H202.073C202.052 56.7965 201.972 56.6578 201.833 56.5618C201.694 56.4605 201.51 56.4098 201.281 56.4098C201.052 56.4098 200.876 56.4552 200.753 56.5458C200.63 56.6365 200.569 56.7565 200.569 56.9058C200.569 57.0018 200.604 57.0872 200.673 57.1618C200.742 57.2365 200.844 57.3005 200.977 57.3538C201.116 57.4018 201.284 57.4472 201.481 57.4898C201.764 57.5432 202.017 57.6098 202.241 57.6898C202.465 57.7698 202.644 57.8872 202.777 58.0418C202.91 58.1965 202.977 58.4178 202.977 58.7058C202.982 58.9565 202.918 59.1778 202.785 59.3698C202.657 59.5618 202.473 59.7112 202.233 59.8178C201.998 59.9245 201.718 59.9778 201.393 59.9778ZM203.919 59.8818V54.1218H204.719V59.8818H203.919ZM207.641 59.9778C207.257 59.9778 206.916 59.8898 206.617 59.7138C206.319 59.5378 206.084 59.2925 205.913 58.9778C205.748 58.6632 205.665 58.2978 205.665 57.8818C205.665 57.4552 205.748 57.0845 205.913 56.7698C206.084 56.4498 206.319 56.2018 206.617 56.0258C206.916 55.8445 207.263 55.7538 207.657 55.7538C208.052 55.7538 208.391 55.8418 208.673 56.0178C208.956 56.1938 209.175 56.4285 209.329 56.7218C209.484 57.0098 209.561 57.3298 209.561 57.6818C209.561 57.7352 209.559 57.7938 209.553 57.8578C209.553 57.9165 209.551 57.9832 209.545 58.0578H206.249V57.4898H208.761C208.745 57.1538 208.633 56.8925 208.425 56.7058C208.217 56.5138 207.959 56.4178 207.649 56.4178C207.431 56.4178 207.231 56.4685 207.049 56.5698C206.868 56.6658 206.721 56.8098 206.609 57.0018C206.503 57.1885 206.449 57.4258 206.449 57.7138V57.9378C206.449 58.2365 206.503 58.4898 206.609 58.6978C206.721 58.9005 206.868 59.0552 207.049 59.1618C207.231 59.2632 207.428 59.3138 207.641 59.3138C207.897 59.3138 208.108 59.2578 208.273 59.1458C208.439 59.0338 208.561 58.8818 208.641 58.6898H209.441C209.372 58.9352 209.255 59.1565 209.089 59.3538C208.924 59.5458 208.719 59.6978 208.473 59.8098C208.233 59.9218 207.956 59.9778 207.641 59.9778ZM212.005 59.8818C211.749 59.8818 211.528 59.8418 211.341 59.7618C211.154 59.6818 211.01 59.5485 210.909 59.3618C210.808 59.1752 210.757 58.9218 210.757 58.6018V56.5298H210.061V55.8498H210.757L210.853 54.8418H211.557V55.8498H212.701V56.5298H211.557V58.6098C211.557 58.8392 211.605 58.9965 211.701 59.0818C211.797 59.1618 211.962 59.2018 212.197 59.2018H212.661V59.8818H212.005ZM215.247 59.8818C214.991 59.8818 214.77 59.8418 214.583 59.7618C214.396 59.6818 214.252 59.5485 214.151 59.3618C214.05 59.1752 213.999 58.9218 213.999 58.6018V56.5298H213.303V55.8498H213.999L214.095 54.8418H214.799V55.8498H215.943V56.5298H214.799V58.6098C214.799 58.8392 214.847 58.9965 214.943 59.0818C215.039 59.1618 215.204 59.2018 215.439 59.2018H215.903V59.8818H215.247ZM218.54 59.9778C218.156 59.9778 217.815 59.8898 217.516 59.7138C217.217 59.5378 216.983 59.2925 216.812 58.9778C216.647 58.6632 216.564 58.2978 216.564 57.8818C216.564 57.4552 216.647 57.0845 216.812 56.7698C216.983 56.4498 217.217 56.2018 217.516 56.0258C217.815 55.8445 218.161 55.7538 218.556 55.7538C218.951 55.7538 219.289 55.8418 219.572 56.0178C219.855 56.1938 220.073 56.4285 220.228 56.7218C220.383 57.0098 220.46 57.3298 220.46 57.6818C220.46 57.7352 220.457 57.7938 220.452 57.8578C220.452 57.9165 220.449 57.9832 220.444 58.0578H217.148V57.4898H219.66C219.644 57.1538 219.532 56.8925 219.324 56.7058C219.116 56.5138 218.857 56.4178 218.548 56.4178C218.329 56.4178 218.129 56.4685 217.948 56.5698C217.767 56.6658 217.62 56.8098 217.508 57.0018C217.401 57.1885 217.348 57.4258 217.348 57.7138V57.9378C217.348 58.2365 217.401 58.4898 217.508 58.6978C217.62 58.9005 217.767 59.0552 217.948 59.1618C218.129 59.2632 218.327 59.3138 218.54 59.3138C218.796 59.3138 219.007 59.2578 219.172 59.1458C219.337 59.0338 219.46 58.8818 219.54 58.6898H220.34C220.271 58.9352 220.153 59.1565 219.988 59.3538C219.823 59.5458 219.617 59.6978 219.372 59.8098C219.132 59.9218 218.855 59.9778 218.54 59.9778ZM221.349 59.8818V55.8498H222.069L222.141 56.6098C222.231 56.4285 222.349 56.2765 222.493 56.1538C222.637 56.0258 222.805 55.9272 222.997 55.8578C223.194 55.7885 223.418 55.7538 223.669 55.7538V56.6018H223.381C223.215 56.6018 223.058 56.6232 222.909 56.6658C222.759 56.7032 222.626 56.7698 222.509 56.8658C222.397 56.9618 222.309 57.0925 222.245 57.2578C222.181 57.4232 222.149 57.6285 222.149 57.8738V59.8818H221.349ZM40.7814 70.6418L41.7654 68.4338H41.5334L39.9414 64.8498H40.8054L42.0694 67.7778L43.3414 64.8498H44.1814L41.6214 70.6418H40.7814ZM46.3606 68.9778C45.9819 68.9778 45.6406 68.8898 45.3366 68.7138C45.0379 68.5378 44.8006 68.2925 44.6246 67.9778C44.4539 67.6578 44.3686 67.2898 44.3686 66.8738C44.3686 66.4472 44.4566 66.0765 44.6326 65.7618C44.8086 65.4418 45.0486 65.1938 45.3526 65.0178C45.6566 64.8418 45.9979 64.7538 46.3766 64.7538C46.7606 64.7538 47.1019 64.8418 47.4006 65.0178C47.6992 65.1938 47.9339 65.4392 48.1046 65.7538C48.2806 66.0685 48.3686 66.4392 48.3686 66.8658C48.3686 67.2925 48.2806 67.6632 48.1046 67.9778C47.9339 68.2925 47.6966 68.5378 47.3926 68.7138C47.0886 68.8898 46.7446 68.9778 46.3606 68.9778ZM46.3606 68.2898C46.5792 68.2898 46.7766 68.2365 46.9526 68.1298C47.1339 68.0232 47.2779 67.8658 47.3846 67.6578C47.4966 67.4445 47.5526 67.1805 47.5526 66.8658C47.5526 66.5512 47.4992 66.2898 47.3926 66.0818C47.2859 65.8685 47.1419 65.7085 46.9606 65.6018C46.7846 65.4952 46.5899 65.4418 46.3766 65.4418C46.1632 65.4418 45.9659 65.4952 45.7846 65.6018C45.6032 65.7085 45.4566 65.8685 45.3446 66.0818C45.2379 66.2898 45.1846 66.5512 45.1846 66.8658C45.1846 67.1805 45.2379 67.4445 45.3446 67.6578C45.4566 67.8658 45.6006 68.0232 45.7766 68.1298C45.9579 68.2365 46.1526 68.2898 46.3606 68.2898ZM50.7896 68.9778C50.475 68.9778 50.2003 68.9138 49.9656 68.7858C49.7363 68.6578 49.5576 68.4658 49.4296 68.2098C49.307 67.9538 49.2456 67.6312 49.2456 67.2418V64.8498H50.0456V67.1538C50.0456 67.5325 50.1283 67.8178 50.2936 68.0098C50.459 68.2018 50.6963 68.2978 51.0056 68.2978C51.2136 68.2978 51.4003 68.2472 51.5656 68.1458C51.7363 68.0445 51.8696 67.8978 51.9656 67.7058C52.0616 67.5138 52.1096 67.2792 52.1096 67.0018V64.8498H52.9096V68.8818H52.1976L52.1416 68.1938C52.019 68.4392 51.8403 68.6312 51.6056 68.7698C51.371 68.9085 51.099 68.9778 50.7896 68.9778ZM56.2678 68.8818V64.3058C56.2678 64.0285 56.3131 63.8018 56.4038 63.6258C56.4998 63.4498 56.6385 63.3218 56.8198 63.2418C57.0011 63.1618 57.2198 63.1218 57.4758 63.1218H57.9478V63.8018H57.6038C57.4118 63.8018 57.2731 63.8418 57.1878 63.9218C57.1078 63.9965 57.0678 64.1298 57.0678 64.3218V68.8818H56.2678ZM55.6758 65.5298V64.8498H58.0358V65.5298H55.6758ZM60.5324 68.9778C60.1538 68.9778 59.8124 68.8898 59.5084 68.7138C59.2098 68.5378 58.9724 68.2925 58.7964 67.9778C58.6258 67.6578 58.5404 67.2898 58.5404 66.8738C58.5404 66.4472 58.6284 66.0765 58.8044 65.7618C58.9804 65.4418 59.2204 65.1938 59.5244 65.0178C59.8284 64.8418 60.1698 64.7538 60.5484 64.7538C60.9324 64.7538 61.2738 64.8418 61.5724 65.0178C61.8711 65.1938 62.1058 65.4392 62.2764 65.7538C62.4524 66.0685 62.5404 66.4392 62.5404 66.8658C62.5404 67.2925 62.4524 67.6632 62.2764 67.9778C62.1058 68.2925 61.8684 68.5378 61.5644 68.7138C61.2604 68.8898 60.9164 68.9778 60.5324 68.9778ZM60.5324 68.2898C60.7511 68.2898 60.9484 68.2365 61.1244 68.1298C61.3058 68.0232 61.4498 67.8658 61.5564 67.6578C61.6684 67.4445 61.7244 67.1805 61.7244 66.8658C61.7244 66.5512 61.6711 66.2898 61.5644 66.0818C61.4578 65.8685 61.3138 65.7085 61.1324 65.6018C60.9564 65.4952 60.7618 65.4418 60.5484 65.4418C60.3351 65.4418 60.1378 65.4952 59.9564 65.6018C59.7751 65.7085 59.6284 65.8685 59.5164 66.0818C59.4098 66.2898 59.3564 66.5512 59.3564 66.8658C59.3564 67.1805 59.4098 67.4445 59.5164 67.6578C59.6284 67.8658 59.7724 68.0232 59.9484 68.1298C60.1298 68.2365 60.3244 68.2898 60.5324 68.2898ZM63.4815 68.8818V64.8498H64.2015L64.2735 65.6098C64.3642 65.4285 64.4815 65.2765 64.6255 65.1538C64.7695 65.0258 64.9375 64.9272 65.1295 64.8578C65.3268 64.7885 65.5508 64.7538 65.8015 64.7538V65.6018H65.5135C65.3482 65.6018 65.1908 65.6232 65.0415 65.6658C64.8922 65.7032 64.7588 65.7698 64.6415 65.8658C64.5295 65.9618 64.4415 66.0925 64.3775 66.2578C64.3135 66.4232 64.2815 66.6285 64.2815 66.8738V68.8818H63.4815ZM68.0824 70.7378C67.7144 70.7378 67.3891 70.6898 67.1064 70.5938C66.8238 70.5032 66.6051 70.3618 66.4504 70.1698C66.2958 69.9778 66.2184 69.7432 66.2184 69.4658C66.2184 69.3218 66.2504 69.1752 66.3144 69.0258C66.3784 68.8818 66.4824 68.7432 66.6264 68.6098C66.7704 68.4765 66.9651 68.3565 67.2104 68.2498L67.6584 68.6098C67.3864 68.7112 67.2024 68.8312 67.1064 68.9698C67.0158 69.1138 66.9704 69.2525 66.9704 69.3858C66.9704 69.5458 67.0184 69.6792 67.1144 69.7858C67.2104 69.8925 67.3411 69.9725 67.5064 70.0258C67.6771 70.0792 67.8691 70.1058 68.0824 70.1058C68.2904 70.1058 68.4718 70.0765 68.6264 70.0178C68.7811 69.9592 68.9011 69.8765 68.9864 69.7698C69.0718 69.6632 69.1144 69.5378 69.1144 69.3938C69.1144 69.2232 69.0504 69.0792 68.9224 68.9618C68.7944 68.8498 68.5491 68.7832 68.1864 68.7618C67.8824 68.7405 67.6238 68.7112 67.4104 68.6738C67.2024 68.6365 67.0238 68.5912 66.8744 68.5378C66.7304 68.4845 66.6078 68.4258 66.5064 68.3618C66.4104 68.2978 66.3278 68.2312 66.2584 68.1618V67.9778L67.0584 67.1538L67.7064 67.3778L66.8344 68.1858L67.0024 67.8258C67.0611 67.8632 67.1171 67.9005 67.1704 67.9378C67.2238 67.9698 67.2958 67.9992 67.3864 68.0258C67.4771 68.0525 67.5998 68.0765 67.7544 68.0978C67.9091 68.1192 68.1118 68.1405 68.3624 68.1618C68.7251 68.1885 69.0158 68.2525 69.2344 68.3538C69.4584 68.4552 69.6211 68.5912 69.7224 68.7618C69.8238 68.9325 69.8744 69.1352 69.8744 69.3698C69.8744 69.5992 69.8104 69.8178 69.6824 70.0258C69.5598 70.2338 69.3651 70.4045 69.0984 70.5378C68.8371 70.6712 68.4984 70.7378 68.0824 70.7378ZM68.0824 67.6418C67.7411 67.6418 67.4504 67.5778 67.2104 67.4498C66.9758 67.3218 66.7944 67.1485 66.6664 66.9298C66.5438 66.7112 66.4824 66.4685 66.4824 66.2018C66.4824 65.9298 66.5438 65.6872 66.6664 65.4738C66.7944 65.2552 66.9784 65.0818 67.2184 64.9538C67.4584 64.8205 67.7464 64.7538 68.0824 64.7538C68.4184 64.7538 68.7038 64.8205 68.9384 64.9538C69.1784 65.0818 69.3598 65.2552 69.4824 65.4738C69.6104 65.6872 69.6744 65.9298 69.6744 66.2018C69.6744 66.4685 69.6104 66.7112 69.4824 66.9298C69.3598 67.1485 69.1784 67.3218 68.9384 67.4498C68.7038 67.5778 68.4184 67.6418 68.0824 67.6418ZM68.0824 67.0018C68.3438 67.0018 68.5518 66.9352 68.7064 66.8018C68.8611 66.6632 68.9384 66.4632 68.9384 66.2018C68.9384 65.9405 68.8611 65.7432 68.7064 65.6098C68.5518 65.4712 68.3438 65.4018 68.0824 65.4018C67.8211 65.4018 67.6104 65.4712 67.4504 65.6098C67.2904 65.7432 67.2104 65.9405 67.2104 66.2018C67.2104 66.4632 67.2904 66.6632 67.4504 66.8018C67.6104 66.9352 67.8211 67.0018 68.0824 67.0018ZM68.7384 65.4818L68.5464 64.8498H70.2024V65.4018L68.7384 65.4818ZM72.6887 68.9778C72.31 68.9778 71.9687 68.8898 71.6647 68.7138C71.366 68.5378 71.1287 68.2925 70.9527 67.9778C70.782 67.6578 70.6967 67.2898 70.6967 66.8738C70.6967 66.4472 70.7847 66.0765 70.9607 65.7618C71.1367 65.4418 71.3767 65.1938 71.6807 65.0178C71.9847 64.8418 72.326 64.7538 72.7047 64.7538C73.0887 64.7538 73.43 64.8418 73.7287 65.0178C74.0274 65.1938 74.262 65.4392 74.4327 65.7538C74.6087 66.0685 74.6967 66.4392 74.6967 66.8658C74.6967 67.2925 74.6087 67.6632 74.4327 67.9778C74.262 68.2925 74.0247 68.5378 73.7207 68.7138C73.4167 68.8898 73.0727 68.9778 72.6887 68.9778ZM72.6887 68.2898C72.9074 68.2898 73.1047 68.2365 73.2807 68.1298C73.462 68.0232 73.606 67.8658 73.7127 67.6578C73.8247 67.4445 73.8807 67.1805 73.8807 66.8658C73.8807 66.5512 73.8274 66.2898 73.7207 66.0818C73.614 65.8685 73.47 65.7085 73.2887 65.6018C73.1127 65.4952 72.918 65.4418 72.7047 65.4418C72.4914 65.4418 72.294 65.4952 72.1127 65.6018C71.9314 65.7085 71.7847 65.8685 71.6727 66.0818C71.566 66.2898 71.5127 66.5512 71.5127 66.8658C71.5127 67.1805 71.566 67.4445 71.6727 67.6578C71.7847 67.8658 71.9287 68.0232 72.1047 68.1298C72.286 68.2365 72.4807 68.2898 72.6887 68.2898ZM77.1455 68.8818C76.8895 68.8818 76.6682 68.8418 76.4815 68.7618C76.2948 68.6818 76.1508 68.5485 76.0495 68.3618C75.9482 68.1752 75.8975 67.9218 75.8975 67.6018V65.5298H75.2015V64.8498H75.8975L75.9935 63.8418H76.6975V64.8498H77.8415V65.5298H76.6975V67.6098C76.6975 67.8392 76.7455 67.9965 76.8415 68.0818C76.9375 68.1618 77.1028 68.2018 77.3375 68.2018H77.8015V68.8818H77.1455ZM81.2346 70.6418L82.2186 68.4338H81.9866L80.3946 64.8498H81.2586L82.5226 67.7778L83.7946 64.8498H84.6346L82.0746 70.6418H81.2346ZM86.8137 68.9778C86.435 68.9778 86.0937 68.8898 85.7897 68.7138C85.491 68.5378 85.2537 68.2925 85.0777 67.9778C84.907 67.6578 84.8217 67.2898 84.8217 66.8738C84.8217 66.4472 84.9097 66.0765 85.0857 65.7618C85.2617 65.4418 85.5017 65.1938 85.8057 65.0178C86.1097 64.8418 86.451 64.7538 86.8297 64.7538C87.2137 64.7538 87.555 64.8418 87.8537 65.0178C88.1524 65.1938 88.387 65.4392 88.5577 65.7538C88.7337 66.0685 88.8217 66.4392 88.8217 66.8658C88.8217 67.2925 88.7337 67.6632 88.5577 67.9778C88.387 68.2925 88.1497 68.5378 87.8457 68.7138C87.5417 68.8898 87.1977 68.9778 86.8137 68.9778ZM86.8137 68.2898C87.0324 68.2898 87.2297 68.2365 87.4057 68.1298C87.587 68.0232 87.731 67.8658 87.8377 67.6578C87.9497 67.4445 88.0057 67.1805 88.0057 66.8658C88.0057 66.5512 87.9524 66.2898 87.8457 66.0818C87.739 65.8685 87.595 65.7085 87.4137 65.6018C87.2377 65.4952 87.043 65.4418 86.8297 65.4418C86.6164 65.4418 86.419 65.4952 86.2377 65.6018C86.0564 65.7085 85.9097 65.8685 85.7977 66.0818C85.691 66.2898 85.6377 66.5512 85.6377 66.8658C85.6377 67.1805 85.691 67.4445 85.7977 67.6578C85.9097 67.8658 86.0537 68.0232 86.2297 68.1298C86.411 68.2365 86.6057 68.2898 86.8137 68.2898ZM91.2428 68.9778C90.9281 68.9778 90.6534 68.9138 90.4188 68.7858C90.1894 68.6578 90.0108 68.4658 89.8828 68.2098C89.7601 67.9538 89.6988 67.6312 89.6988 67.2418V64.8498H90.4988V67.1538C90.4988 67.5325 90.5814 67.8178 90.7468 68.0098C90.9121 68.2018 91.1494 68.2978 91.4588 68.2978C91.6668 68.2978 91.8534 68.2472 92.0188 68.1458C92.1894 68.0445 92.3228 67.8978 92.4188 67.7058C92.5148 67.5138 92.5628 67.2792 92.5628 67.0018V64.8498H93.3628V68.8818H92.6508L92.5948 68.1938C92.4721 68.4392 92.2934 68.6312 92.0588 68.7698C91.8241 68.9085 91.5521 68.9778 91.2428 68.9778ZM96.5049 68.8818V63.1218H97.3049V65.5058C97.4383 65.2712 97.6223 65.0872 97.8569 64.9538C98.0969 64.8205 98.3609 64.7538 98.6489 64.7538C98.9689 64.7538 99.2436 64.8205 99.4729 64.9538C99.7023 65.0818 99.8783 65.2765 100.001 65.5378C100.124 65.7938 100.185 66.1165 100.185 66.5058V68.8818H99.3929V66.5858C99.3929 66.2125 99.3129 65.9298 99.1529 65.7378C98.9929 65.5405 98.7556 65.4418 98.4409 65.4418C98.2276 65.4418 98.0356 65.4925 97.8649 65.5938C97.6943 65.6952 97.5583 65.8445 97.4569 66.0418C97.3556 66.2338 97.3049 66.4685 97.3049 66.7458V68.8818H96.5049ZM102.544 68.9778C102.213 68.9778 101.939 68.9218 101.72 68.8098C101.501 68.6978 101.339 68.5485 101.232 68.3618C101.125 68.1698 101.072 67.9645 101.072 67.7458C101.072 67.4792 101.141 67.2525 101.28 67.0658C101.419 66.8738 101.616 66.7272 101.872 66.6258C102.128 66.5245 102.435 66.4738 102.792 66.4738H103.84C103.84 66.2392 103.805 66.0445 103.736 65.8898C103.667 65.7352 103.563 65.6205 103.424 65.5458C103.291 65.4658 103.12 65.4258 102.912 65.4258C102.672 65.4258 102.467 65.4845 102.296 65.6018C102.125 65.7138 102.019 65.8818 101.976 66.1058H101.176C101.208 65.8232 101.304 65.5832 101.464 65.3858C101.629 65.1832 101.84 65.0285 102.096 64.9218C102.352 64.8098 102.624 64.7538 102.912 64.7538C103.291 64.7538 103.608 64.8205 103.864 64.9538C104.12 65.0872 104.312 65.2765 104.44 65.5218C104.573 65.7618 104.64 66.0498 104.64 66.3858V68.8818H103.944L103.88 68.2018C103.821 68.3085 103.752 68.4098 103.672 68.5058C103.592 68.6018 103.496 68.6845 103.384 68.7538C103.277 68.8232 103.152 68.8765 103.008 68.9138C102.869 68.9565 102.715 68.9778 102.544 68.9778ZM102.696 68.3298C102.867 68.3298 103.021 68.2952 103.16 68.2258C103.299 68.1565 103.416 68.0632 103.512 67.9458C103.613 67.8232 103.688 67.6872 103.736 67.5378C103.789 67.3832 103.819 67.2258 103.824 67.0658V67.0418H102.872C102.643 67.0418 102.456 67.0712 102.312 67.1298C102.173 67.1832 102.072 67.2578 102.008 67.3538C101.944 67.4498 101.912 67.5618 101.912 67.6898C101.912 67.8232 101.941 67.9378 102 68.0338C102.064 68.1245 102.155 68.1965 102.272 68.2498C102.389 68.3032 102.531 68.3298 102.696 68.3298ZM107.453 68.9778C107.069 68.9778 106.731 68.8872 106.437 68.7058C106.144 68.5192 105.915 68.2685 105.749 67.9538C105.589 67.6338 105.509 67.2712 105.509 66.8658C105.509 66.4552 105.589 66.0925 105.749 65.7778C105.915 65.4632 106.144 65.2152 106.437 65.0338C106.736 64.8472 107.077 64.7538 107.461 64.7538C107.776 64.7538 108.053 64.8178 108.293 64.9458C108.533 65.0685 108.72 65.2445 108.853 65.4738V63.1218H109.653V68.8818H108.933L108.853 68.2578C108.773 68.3805 108.669 68.4978 108.541 68.6098C108.413 68.7165 108.259 68.8045 108.077 68.8738C107.896 68.9432 107.688 68.9778 107.453 68.9778ZM107.581 68.2818C107.832 68.2818 108.053 68.2232 108.245 68.1058C108.437 67.9885 108.584 67.8232 108.685 67.6098C108.792 67.3965 108.845 67.1485 108.845 66.8658C108.845 66.5832 108.792 66.3378 108.685 66.1298C108.584 65.9165 108.437 65.7512 108.245 65.6338C108.053 65.5112 107.832 65.4498 107.581 65.4498C107.341 65.4498 107.125 65.5112 106.933 65.6338C106.741 65.7512 106.592 65.9165 106.485 66.1298C106.379 66.3378 106.325 66.5832 106.325 66.8658C106.325 67.1485 106.379 67.3965 106.485 67.6098C106.592 67.8232 106.741 67.9885 106.933 68.1058C107.125 68.2232 107.341 68.2818 107.581 68.2818ZM114.354 68.9778C114.013 68.9778 113.714 68.9218 113.458 68.8098C113.202 68.6978 112.999 68.5405 112.85 68.3378C112.701 68.1352 112.61 67.8978 112.578 67.6258H113.394C113.421 67.7538 113.471 67.8712 113.546 67.9778C113.626 68.0845 113.733 68.1698 113.866 68.2338C114.005 68.2978 114.167 68.3298 114.354 68.3298C114.53 68.3298 114.674 68.3058 114.786 68.2578C114.903 68.2045 114.989 68.1352 115.042 68.0498C115.095 67.9592 115.122 67.8632 115.122 67.7618C115.122 67.6125 115.085 67.5005 115.01 67.4258C114.941 67.3458 114.834 67.2845 114.69 67.2418C114.551 67.1938 114.383 67.1512 114.186 67.1138C113.999 67.0818 113.818 67.0392 113.642 66.9858C113.471 66.9272 113.317 66.8552 113.178 66.7698C113.045 66.6845 112.938 66.5778 112.858 66.4498C112.778 66.3165 112.738 66.1538 112.738 65.9618C112.738 65.7325 112.799 65.5272 112.922 65.3458C113.045 65.1592 113.218 65.0152 113.442 64.9138C113.671 64.8072 113.941 64.7538 114.25 64.7538C114.698 64.7538 115.058 64.8605 115.33 65.0738C115.602 65.2872 115.762 65.5885 115.81 65.9778H115.034C115.013 65.7965 114.933 65.6578 114.794 65.5618C114.655 65.4605 114.471 65.4098 114.242 65.4098C114.013 65.4098 113.837 65.4552 113.714 65.5458C113.591 65.6365 113.53 65.7565 113.53 65.9058C113.53 66.0018 113.565 66.0872 113.634 66.1618C113.703 66.2365 113.805 66.3005 113.938 66.3538C114.077 66.4018 114.245 66.4472 114.442 66.4898C114.725 66.5432 114.978 66.6098 115.202 66.6898C115.426 66.7698 115.605 66.8872 115.738 67.0418C115.871 67.1965 115.938 67.4178 115.938 67.7058C115.943 67.9565 115.879 68.1778 115.746 68.3698C115.618 68.5618 115.434 68.7112 115.194 68.8178C114.959 68.9245 114.679 68.9778 114.354 68.9778ZM118.36 68.9778C118.045 68.9778 117.771 68.9138 117.536 68.7858C117.307 68.6578 117.128 68.4658 117 68.2098C116.877 67.9538 116.816 67.6312 116.816 67.2418V64.8498H117.616V67.1538C117.616 67.5325 117.699 67.8178 117.864 68.0098C118.029 68.2018 118.267 68.2978 118.576 68.2978C118.784 68.2978 118.971 68.2472 119.136 68.1458C119.307 68.0445 119.44 67.8978 119.536 67.7058C119.632 67.5138 119.68 67.2792 119.68 67.0018V64.8498H120.48V68.8818H119.768L119.712 68.1938C119.589 68.4392 119.411 68.6312 119.176 68.7698C118.941 68.9085 118.669 68.9778 118.36 68.9778ZM123.775 68.9778C123.557 68.9778 123.357 68.9458 123.175 68.8818C122.999 68.8232 122.845 68.7405 122.711 68.6338C122.578 68.5272 122.466 68.4045 122.375 68.2658L122.295 68.8818H121.575V63.1218H122.375V65.4818C122.503 65.2792 122.682 65.1085 122.911 64.9698C123.146 64.8258 123.434 64.7538 123.775 64.7538C124.159 64.7538 124.498 64.8472 124.791 65.0338C125.085 65.2152 125.311 65.4658 125.471 65.7858C125.637 66.1005 125.719 66.4632 125.719 66.8738C125.719 67.2738 125.637 67.6338 125.471 67.9538C125.311 68.2738 125.085 68.5245 124.791 68.7058C124.498 68.8872 124.159 68.9778 123.775 68.9778ZM123.647 68.2818C123.893 68.2818 124.109 68.2232 124.295 68.1058C124.487 67.9885 124.637 67.8232 124.743 67.6098C124.855 67.3965 124.911 67.1485 124.911 66.8658C124.911 66.5832 124.855 66.3378 124.743 66.1298C124.637 65.9165 124.487 65.7512 124.295 65.6338C124.109 65.5112 123.893 65.4498 123.647 65.4498C123.397 65.4498 123.175 65.5112 122.983 65.6338C122.797 65.7512 122.65 65.9165 122.543 66.1298C122.437 66.3378 122.383 66.5832 122.383 66.8658C122.383 67.1485 122.437 67.3965 122.543 67.6098C122.65 67.8232 122.797 67.9885 122.983 68.1058C123.175 68.2232 123.397 68.2818 123.647 68.2818ZM128.213 68.9778C127.872 68.9778 127.573 68.9218 127.317 68.8098C127.061 68.6978 126.859 68.5405 126.709 68.3378C126.56 68.1352 126.469 67.8978 126.437 67.6258H127.253C127.28 67.7538 127.331 67.8712 127.405 67.9778C127.485 68.0845 127.592 68.1698 127.725 68.2338C127.864 68.2978 128.027 68.3298 128.213 68.3298C128.389 68.3298 128.533 68.3058 128.645 68.2578C128.763 68.2045 128.848 68.1352 128.901 68.0498C128.955 67.9592 128.981 67.8632 128.981 67.7618C128.981 67.6125 128.944 67.5005 128.869 67.4258C128.8 67.3458 128.693 67.2845 128.549 67.2418C128.411 67.1938 128.243 67.1512 128.045 67.1138C127.859 67.0818 127.677 67.0392 127.501 66.9858C127.331 66.9272 127.176 66.8552 127.037 66.7698C126.904 66.6845 126.797 66.5778 126.717 66.4498C126.637 66.3165 126.597 66.1538 126.597 65.9618C126.597 65.7325 126.659 65.5272 126.781 65.3458C126.904 65.1592 127.077 65.0152 127.301 64.9138C127.531 64.8072 127.8 64.7538 128.109 64.7538C128.557 64.7538 128.917 64.8605 129.189 65.0738C129.461 65.2872 129.621 65.5885 129.669 65.9778H128.893C128.872 65.7965 128.792 65.6578 128.653 65.5618C128.515 65.4605 128.331 65.4098 128.101 65.4098C127.872 65.4098 127.696 65.4552 127.573 65.5458C127.451 65.6365 127.389 65.7565 127.389 65.9058C127.389 66.0018 127.424 66.0872 127.493 66.1618C127.563 66.2365 127.664 66.3005 127.797 66.3538C127.936 66.4018 128.104 66.4472 128.301 66.4898C128.584 66.5432 128.837 66.6098 129.061 66.6898C129.285 66.7698 129.464 66.8872 129.597 67.0418C129.731 67.1965 129.797 67.4178 129.797 67.7058C129.803 67.9565 129.739 68.1778 129.605 68.3698C129.477 68.5618 129.293 68.7112 129.053 68.8178C128.819 68.9245 128.539 68.9778 128.213 68.9778ZM132.603 68.9778C132.214 68.9778 131.867 68.8898 131.563 68.7138C131.259 68.5325 131.019 68.2845 130.843 67.9698C130.673 67.6552 130.587 67.2898 130.587 66.8738C130.587 66.4525 130.673 66.0845 130.843 65.7698C131.019 65.4498 131.259 65.2018 131.563 65.0258C131.867 64.8445 132.214 64.7538 132.603 64.7538C133.094 64.7538 133.505 64.8818 133.835 65.1378C134.166 65.3938 134.377 65.7405 134.467 66.1778H133.635C133.582 65.9432 133.459 65.7618 133.267 65.6338C133.081 65.5058 132.857 65.4418 132.595 65.4418C132.382 65.4418 132.185 65.4978 132.003 65.6098C131.822 65.7165 131.675 65.8765 131.563 66.0898C131.457 66.2978 131.403 66.5565 131.403 66.8658C131.403 67.0952 131.435 67.3005 131.499 67.4818C131.563 67.6578 131.649 67.8072 131.755 67.9298C131.867 68.0525 131.995 68.1458 132.139 68.2098C132.283 68.2685 132.435 68.2978 132.595 68.2978C132.771 68.2978 132.929 68.2712 133.067 68.2178C133.211 68.1592 133.331 68.0738 133.427 67.9618C133.529 67.8498 133.598 67.7165 133.635 67.5618H134.467C134.377 67.9885 134.166 68.3325 133.835 68.5938C133.505 68.8498 133.094 68.9778 132.603 68.9778ZM135.403 68.8818V64.8498H136.123L136.195 65.6098C136.286 65.4285 136.403 65.2765 136.547 65.1538C136.691 65.0258 136.859 64.9272 137.051 64.8578C137.249 64.7885 137.473 64.7538 137.723 64.7538V65.6018H137.435C137.27 65.6018 137.113 65.6232 136.963 65.6658C136.814 65.7032 136.681 65.7698 136.563 65.8658C136.451 65.9618 136.363 66.0925 136.299 66.2578C136.235 66.4232 136.203 66.6285 136.203 66.8738V68.8818H135.403ZM138.514 68.8818V64.8498H139.314V68.8818H138.514ZM138.922 64.0898C138.767 64.0898 138.639 64.0418 138.538 63.9458C138.442 63.8498 138.394 63.7272 138.394 63.5778C138.394 63.4338 138.442 63.3165 138.538 63.2258C138.639 63.1298 138.767 63.0818 138.922 63.0818C139.071 63.0818 139.197 63.1298 139.298 63.2258C139.399 63.3165 139.45 63.4338 139.45 63.5778C139.45 63.7272 139.399 63.8498 139.298 63.9458C139.197 64.0418 139.071 64.0898 138.922 64.0898ZM142.658 68.9778C142.439 68.9778 142.239 68.9458 142.058 68.8818C141.882 68.8232 141.727 68.7405 141.594 68.6338C141.461 68.5272 141.349 68.4045 141.258 68.2658L141.178 68.8818H140.458V63.1218H141.258V65.4818C141.386 65.2792 141.565 65.1085 141.794 64.9698C142.029 64.8258 142.317 64.7538 142.658 64.7538C143.042 64.7538 143.381 64.8472 143.674 65.0338C143.967 65.2152 144.194 65.4658 144.354 65.7858C144.519 66.1005 144.602 66.4632 144.602 66.8738C144.602 67.2738 144.519 67.6338 144.354 67.9538C144.194 68.2738 143.967 68.5245 143.674 68.7058C143.381 68.8872 143.042 68.9778 142.658 68.9778ZM142.53 68.2818C142.775 68.2818 142.991 68.2232 143.178 68.1058C143.37 67.9885 143.519 67.8232 143.626 67.6098C143.738 67.3965 143.794 67.1485 143.794 66.8658C143.794 66.5832 143.738 66.3378 143.626 66.1298C143.519 65.9165 143.37 65.7512 143.178 65.6338C142.991 65.5112 142.775 65.4498 142.53 65.4498C142.279 65.4498 142.058 65.5112 141.866 65.6338C141.679 65.7512 141.533 65.9165 141.426 66.1298C141.319 66.3378 141.266 66.5832 141.266 66.8658C141.266 67.1485 141.319 67.3965 141.426 67.6098C141.533 67.8232 141.679 67.9885 141.866 68.1058C142.058 68.2232 142.279 68.2818 142.53 68.2818ZM147.36 68.9778C146.976 68.9778 146.635 68.8898 146.336 68.7138C146.038 68.5378 145.803 68.2925 145.632 67.9778C145.467 67.6632 145.384 67.2978 145.384 66.8818C145.384 66.4552 145.467 66.0845 145.632 65.7698C145.803 65.4498 146.038 65.2018 146.336 65.0258C146.635 64.8445 146.982 64.7538 147.376 64.7538C147.771 64.7538 148.11 64.8418 148.392 65.0178C148.675 65.1938 148.894 65.4285 149.048 65.7218C149.203 66.0098 149.28 66.3298 149.28 66.6818C149.28 66.7352 149.278 66.7938 149.272 66.8578C149.272 66.9165 149.27 66.9832 149.264 67.0578H145.968V66.4898H148.48C148.464 66.1538 148.352 65.8925 148.144 65.7058C147.936 65.5138 147.678 65.4178 147.368 65.4178C147.15 65.4178 146.95 65.4685 146.768 65.5698C146.587 65.6658 146.44 65.8098 146.328 66.0018C146.222 66.1885 146.168 66.4258 146.168 66.7138V66.9378C146.168 67.2365 146.222 67.4898 146.328 67.6978C146.44 67.9005 146.587 68.0552 146.768 68.1618C146.95 68.2632 147.147 68.3138 147.36 68.3138C147.616 68.3138 147.827 68.2578 147.992 68.1458C148.158 68.0338 148.28 67.8818 148.36 67.6898H149.16C149.091 67.9352 148.974 68.1565 148.808 68.3538C148.643 68.5458 148.438 68.6978 148.192 68.8098C147.952 68.9218 147.675 68.9778 147.36 68.9778ZM151.961 68.9778C151.577 68.9778 151.238 68.8872 150.945 68.7058C150.652 68.5192 150.422 68.2685 150.257 67.9538C150.097 67.6338 150.017 67.2712 150.017 66.8658C150.017 66.4552 150.097 66.0925 150.257 65.7778C150.422 65.4632 150.652 65.2152 150.945 65.0338C151.244 64.8472 151.585 64.7538 151.969 64.7538C152.284 64.7538 152.561 64.8178 152.801 64.9458C153.041 65.0685 153.228 65.2445 153.361 65.4738V63.1218H154.161V68.8818H153.441L153.361 68.2578C153.281 68.3805 153.177 68.4978 153.049 68.6098C152.921 68.7165 152.766 68.8045 152.585 68.8738C152.404 68.9432 152.196 68.9778 151.961 68.9778ZM152.089 68.2818C152.34 68.2818 152.561 68.2232 152.753 68.1058C152.945 67.9885 153.092 67.8232 153.193 67.6098C153.3 67.3965 153.353 67.1485 153.353 66.8658C153.353 66.5832 153.3 66.3378 153.193 66.1298C153.092 65.9165 152.945 65.7512 152.753 65.6338C152.561 65.5112 152.34 65.4498 152.089 65.4498C151.849 65.4498 151.633 65.5112 151.441 65.6338C151.249 65.7512 151.1 65.9165 150.993 66.1298C150.886 66.3378 150.833 66.5832 150.833 66.8658C150.833 67.1485 150.886 67.3965 150.993 67.6098C151.1 67.8232 151.249 67.9885 151.441 68.1058C151.633 68.2232 151.849 68.2818 152.089 68.2818ZM158.966 68.8818C158.71 68.8818 158.488 68.8418 158.302 68.7618C158.115 68.6818 157.971 68.5485 157.87 68.3618C157.768 68.1752 157.718 67.9218 157.718 67.6018V65.5298H157.022V64.8498H157.718L157.814 63.8418H158.518V64.8498H159.662V65.5298H158.518V67.6098C158.518 67.8392 158.566 67.9965 158.662 68.0818C158.758 68.1618 158.923 68.2018 159.158 68.2018H159.622V68.8818H158.966ZM162.275 68.9778C161.896 68.9778 161.555 68.8898 161.251 68.7138C160.952 68.5378 160.715 68.2925 160.539 67.9778C160.368 67.6578 160.283 67.2898 160.283 66.8738C160.283 66.4472 160.371 66.0765 160.547 65.7618C160.723 65.4418 160.963 65.1938 161.267 65.0178C161.571 64.8418 161.912 64.7538 162.291 64.7538C162.675 64.7538 163.016 64.8418 163.315 65.0178C163.613 65.1938 163.848 65.4392 164.019 65.7538C164.195 66.0685 164.283 66.4392 164.283 66.8658C164.283 67.2925 164.195 67.6632 164.019 67.9778C163.848 68.2925 163.611 68.5378 163.307 68.7138C163.003 68.8898 162.659 68.9778 162.275 68.9778ZM162.275 68.2898C162.493 68.2898 162.691 68.2365 162.867 68.1298C163.048 68.0232 163.192 67.8658 163.299 67.6578C163.411 67.4445 163.467 67.1805 163.467 66.8658C163.467 66.5512 163.413 66.2898 163.307 66.0818C163.2 65.8685 163.056 65.7085 162.875 65.6018C162.699 65.4952 162.504 65.4418 162.291 65.4418C162.077 65.4418 161.88 65.4952 161.699 65.6018C161.517 65.7085 161.371 65.8685 161.259 66.0818C161.152 66.2898 161.099 66.5512 161.099 66.8658C161.099 67.1805 161.152 67.4445 161.259 67.6578C161.371 67.8658 161.515 68.0232 161.691 68.1298C161.872 68.2365 162.067 68.2898 162.275 68.2898ZM165.544 68.9218C165.389 68.9218 165.261 68.8738 165.16 68.7778C165.064 68.6765 165.016 68.5565 165.016 68.4178C165.016 68.2738 165.064 68.1538 165.16 68.0578C165.261 67.9565 165.389 67.9058 165.544 67.9058C165.698 67.9058 165.824 67.9565 165.92 68.0578C166.016 68.1538 166.064 68.2738 166.064 68.4178C166.064 68.5565 166.016 68.6765 165.92 68.7778C165.824 68.8738 165.698 68.9218 165.544 68.9218Z" fill="#1A1A1A"/>
<path d="M41.2399 78.6752L41.5037 77.7168L40.6353 78.2828L40.4617 77.8326L41.3943 77.4595L40.5967 77.0993L40.9055 76.6684L41.5937 77.228L41.6645 76.2696H42.1597L41.8832 77.228L42.7579 76.6684L42.9187 77.0929L41.9796 77.466L42.7901 77.839L42.4749 78.2764L41.7931 77.7168L41.7288 78.6752H41.2399ZM43.0875 80.9907L43.8979 76.3596H44.5411L44.2066 78.2764C44.3439 78.0877 44.5154 77.9398 44.7212 77.8326C44.9313 77.7254 45.1522 77.6718 45.3837 77.6718C45.641 77.6718 45.8532 77.7254 46.0205 77.8326C46.1877 77.9355 46.3013 78.092 46.3614 78.3021C46.4257 78.5079 46.43 78.7674 46.3742 79.0804L46.0398 80.9907H45.3966L45.7246 79.1447C45.7761 78.8446 45.7503 78.6173 45.6474 78.4629C45.5445 78.3043 45.3666 78.2249 45.1136 78.2249C44.942 78.2249 44.7812 78.2657 44.6312 78.3471C44.4811 78.4286 44.3546 78.5487 44.2517 78.7073C44.1488 78.8617 44.0759 79.0504 44.033 79.2734L43.7307 80.9907H43.0875ZM48.3352 81.0679C48.0564 81.0679 47.8142 81.0079 47.6083 80.8878C47.4068 80.7677 47.2524 80.5984 47.1452 80.3797C47.0423 80.161 46.9994 79.9058 47.0166 79.6143C47.0252 79.3398 47.0788 79.0868 47.1774 78.8553C47.2803 78.6194 47.4154 78.4136 47.5826 78.2378C47.7541 78.062 47.9535 77.9248 48.1808 77.8261C48.4081 77.7232 48.6568 77.6718 48.9269 77.6718C49.2185 77.6718 49.4629 77.7318 49.6602 77.8519C49.8574 77.9719 50.0011 78.1327 50.0911 78.3343C50.1855 78.5358 50.2262 78.7609 50.2133 79.0096C50.2133 79.0868 50.2048 79.1726 50.1876 79.2669C50.1747 79.3613 50.1576 79.447 50.1361 79.5242H47.4926L47.5698 79.0675H49.583C49.6044 78.8831 49.5851 78.7288 49.5251 78.6044C49.4694 78.4758 49.3815 78.3772 49.2614 78.3086C49.1456 78.2399 49.0063 78.2056 48.8433 78.2056C48.6675 78.2056 48.5003 78.2464 48.3416 78.3278C48.1829 78.405 48.0457 78.5208 47.93 78.6752C47.8142 78.8253 47.7348 79.0161 47.692 79.2476L47.6598 79.4277C47.6212 79.6464 47.6276 79.8394 47.6791 80.0066C47.7306 80.1739 47.8206 80.3046 47.9492 80.399C48.0779 80.489 48.2365 80.534 48.4252 80.534C48.631 80.534 48.809 80.489 48.9591 80.399C49.1092 80.3046 49.2292 80.1824 49.3193 80.0323H49.9625C49.8681 80.2296 49.7416 80.4075 49.583 80.5662C49.4243 80.7206 49.2399 80.8428 49.0298 80.9328C48.8197 81.0229 48.5882 81.0679 48.3352 81.0679ZM50.6062 80.9907L51.1722 77.749H51.7511L51.7061 78.3343C51.8047 78.1928 51.9205 78.0749 52.0534 77.9805C52.1863 77.8819 52.3364 77.8068 52.5037 77.7554C52.6752 77.6996 52.8574 77.6718 53.0504 77.6718L52.9346 78.3536H52.7095C52.568 78.3536 52.435 78.3686 52.3107 78.3986C52.1863 78.4286 52.0727 78.4822 51.9698 78.5594C51.8669 78.6323 51.7768 78.7288 51.6996 78.8488C51.6267 78.9689 51.5753 79.1211 51.5453 79.3055L51.2494 80.9907H50.6062ZM54.4532 81.0679C54.1744 81.0679 53.9322 81.0079 53.7263 80.8878C53.5248 80.7677 53.3704 80.5984 53.2632 80.3797C53.1603 80.161 53.1174 79.9058 53.1346 79.6143C53.1432 79.3398 53.1968 79.0868 53.2954 78.8553C53.3983 78.6194 53.5334 78.4136 53.7006 78.2378C53.8721 78.062 54.0715 77.9248 54.2988 77.8261C54.5261 77.7232 54.7748 77.6718 55.0449 77.6718C55.3365 77.6718 55.5809 77.7318 55.7782 77.8519C55.9754 77.9719 56.1191 78.1327 56.2091 78.3343C56.3035 78.5358 56.3442 78.7609 56.3313 79.0096C56.3313 79.0868 56.3228 79.1726 56.3056 79.2669C56.2927 79.3613 56.2756 79.447 56.2542 79.5242H53.6106L53.6878 79.0675H55.701C55.7224 78.8831 55.7031 78.7288 55.6431 78.6044C55.5874 78.4758 55.4995 78.3772 55.3794 78.3086C55.2636 78.2399 55.1243 78.2056 54.9613 78.2056C54.7855 78.2056 54.6183 78.2464 54.4596 78.3278C54.3009 78.405 54.1637 78.5208 54.048 78.6752C53.9322 78.8253 53.8528 79.0161 53.81 79.2476L53.7778 79.4277C53.7392 79.6464 53.7456 79.8394 53.7971 80.0066C53.8486 80.1739 53.9386 80.3046 54.0672 80.399C54.1959 80.489 54.3545 80.534 54.5432 80.534C54.749 80.534 54.927 80.489 55.0771 80.399C55.2272 80.3046 55.3472 80.1824 55.4373 80.0323H56.0805C55.9861 80.2296 55.8597 80.4075 55.701 80.5662C55.5423 80.7206 55.3579 80.8428 55.1478 80.9328C54.9377 81.0229 54.7062 81.0679 54.4532 81.0679ZM59.1263 80.9907L58.7404 77.749H59.3836L59.6152 80.4504L59.4929 80.444L60.7536 77.749H61.474L61.7828 80.444L61.6606 80.4504L62.8441 77.749H63.4808L61.9629 80.9907H61.3004L60.9788 78.1799H61.1074L59.7888 80.9907H59.1263ZM64.9053 81.0679C64.6266 81.0679 64.3843 81.0079 64.1785 80.8878C63.9769 80.7677 63.8225 80.5984 63.7153 80.3797C63.6124 80.161 63.5696 79.9058 63.5867 79.6143C63.5953 79.3398 63.6489 79.0868 63.7475 78.8553C63.8504 78.6194 63.9855 78.4136 64.1527 78.2378C64.3242 78.062 64.5236 77.9248 64.7509 77.8261C64.9782 77.7232 65.2269 77.6718 65.497 77.6718C65.7886 77.6718 66.033 77.7318 66.2303 77.8519C66.4275 77.9719 66.5712 78.1327 66.6612 78.3343C66.7556 78.5358 66.7963 78.7609 66.7834 79.0096C66.7834 79.0868 66.7749 79.1726 66.7577 79.2669C66.7449 79.3613 66.7277 79.447 66.7063 79.5242H64.0627L64.1399 79.0675H66.1531C66.1745 78.8831 66.1552 78.7288 66.0952 78.6044C66.0395 78.4758 65.9516 78.3772 65.8315 78.3086C65.7157 78.2399 65.5764 78.2056 65.4134 78.2056C65.2376 78.2056 65.0704 78.2464 64.9117 78.3278C64.7531 78.405 64.6158 78.5208 64.5001 78.6752C64.3843 78.8253 64.305 79.0161 64.2621 79.2476L64.2299 79.4277C64.1913 79.6464 64.1978 79.8394 64.2492 80.0066C64.3007 80.1739 64.3907 80.3046 64.5194 80.399C64.648 80.489 64.8067 80.534 64.9953 80.534C65.2012 80.534 65.3791 80.489 65.5292 80.399C65.6793 80.3046 65.7993 80.1824 65.8894 80.0323H66.5326C66.4383 80.2296 66.3118 80.4075 66.1531 80.5662C65.9944 80.7206 65.8101 80.8428 65.5999 80.9328C65.3898 81.0229 65.1583 81.0679 64.9053 81.0679ZM69.9193 82.483C69.6406 82.483 69.3983 82.4465 69.1925 82.3736C68.991 82.305 68.8366 82.2 68.7294 82.0584C68.6179 81.9212 68.5664 81.7519 68.575 81.5503C68.5836 81.3959 68.6243 81.2523 68.6972 81.1194C68.7701 80.9864 68.8752 80.8642 69.0124 80.7527C69.1496 80.6412 69.3211 80.5405 69.527 80.4504L69.8357 80.7334C69.6213 80.8192 69.4626 80.9243 69.3597 81.0486C69.2611 81.173 69.2097 81.3037 69.2054 81.441C69.2011 81.5525 69.229 81.6489 69.289 81.7304C69.3533 81.8119 69.4455 81.8719 69.5656 81.9105C69.6899 81.9534 69.8357 81.9748 70.0029 81.9748C70.2688 81.9748 70.4896 81.9169 70.6654 81.8012C70.8413 81.6854 70.9334 81.5289 70.942 81.3316C70.9463 81.2073 70.9034 81.1001 70.8134 81.01C70.7276 80.9243 70.5497 80.8749 70.2795 80.8621C70.0737 80.8449 69.8915 80.8213 69.7328 80.7913C69.5784 80.7613 69.4434 80.727 69.3276 80.6884C69.2161 80.6455 69.1196 80.5984 69.0381 80.5469C68.9567 80.4912 68.8881 80.4311 68.8323 80.3668L68.858 80.2189L69.5913 79.6014L70.0673 79.7815L69.2697 80.4118L69.4498 80.0967C69.5012 80.131 69.5527 80.1631 69.6042 80.1931C69.6556 80.2232 69.7156 80.251 69.7843 80.2768C69.8571 80.2982 69.9451 80.3175 70.048 80.3347C70.1509 80.3518 70.2795 80.3647 70.4339 80.3732C70.7255 80.3947 70.9549 80.4483 71.1221 80.534C71.2894 80.6155 71.4073 80.7206 71.4759 80.8492C71.5445 80.9779 71.5745 81.1215 71.5659 81.2802C71.5574 81.5074 71.4823 81.7111 71.3408 81.8912C71.2036 82.0713 71.0128 82.215 70.7684 82.3222C70.5282 82.4294 70.2452 82.483 69.9193 82.483ZM70.3438 79.9938C70.0994 79.9938 69.8936 79.9509 69.7264 79.8651C69.5591 79.7751 69.4348 79.655 69.3533 79.5049C69.2761 79.3548 69.2418 79.1833 69.2504 78.9903C69.259 78.7459 69.3297 78.5251 69.4626 78.3278C69.5999 78.1263 69.78 77.9677 70.0029 77.8519C70.2259 77.7318 70.4768 77.6718 70.7555 77.6718C70.9999 77.6718 71.2036 77.7168 71.3665 77.8068C71.5338 77.8969 71.656 78.017 71.7332 78.167C71.8146 78.3171 71.8511 78.4865 71.8425 78.6752C71.8297 78.9239 71.7568 79.149 71.6238 79.3505C71.4952 79.5478 71.3194 79.7043 71.0964 79.8201C70.8777 79.9359 70.6269 79.9938 70.3438 79.9938ZM70.4339 79.4856C70.6697 79.4856 70.8627 79.417 71.0128 79.2798C71.1629 79.1426 71.2422 78.9603 71.2508 78.7331C71.2636 78.553 71.2165 78.4179 71.1093 78.3278C71.0063 78.2335 70.8584 78.1863 70.6654 78.1863C70.4339 78.1863 70.2409 78.255 70.0866 78.3922C69.9322 78.5294 69.8507 78.7116 69.8421 78.9389C69.8293 79.1147 69.8764 79.2498 69.9836 79.3441C70.0908 79.4385 70.2409 79.4856 70.4339 79.4856ZM71.1864 78.2507L71.1157 77.749H72.4471L72.3635 78.1863L71.1864 78.2507ZM73.8885 81.0679C73.6055 81.0679 73.3589 81.0036 73.1488 80.8749C72.9387 80.7463 72.7779 80.5705 72.6664 80.3475C72.5592 80.1202 72.5141 79.863 72.5313 79.5757C72.5442 79.3012 72.5999 79.0482 72.6985 78.8167C72.8014 78.5851 72.9387 78.3857 73.1102 78.2185C73.286 78.047 73.4854 77.9141 73.7084 77.8197C73.9356 77.7211 74.1779 77.6718 74.4352 77.6718C74.7182 77.6718 74.9648 77.7361 75.1749 77.8647C75.385 77.9891 75.5437 78.1628 75.6509 78.3857C75.7623 78.6044 75.8117 78.8617 75.7988 79.1576C75.7859 79.432 75.728 79.685 75.6251 79.9166C75.5265 80.1481 75.3893 80.3497 75.2135 80.5212C75.0419 80.6927 74.8426 80.8278 74.6153 80.9264C74.3923 81.0207 74.15 81.0679 73.8885 81.0679ZM73.9785 80.5147C74.1886 80.5147 74.3773 80.459 74.5445 80.3475C74.7161 80.236 74.8554 80.0795 74.9626 79.878C75.0698 79.6764 75.1277 79.4449 75.1363 79.1833C75.1492 78.9775 75.1213 78.8038 75.0527 78.6623C74.9883 78.5208 74.894 78.4136 74.7697 78.3407C74.6453 78.2635 74.5059 78.2249 74.3516 78.2249C74.1457 78.2249 73.9571 78.2828 73.7856 78.3986C73.6183 78.5101 73.4811 78.6666 73.3739 78.8681C73.2667 79.0654 73.2088 79.2948 73.2002 79.5564C73.1874 79.7622 73.2131 79.9359 73.2774 80.0774C73.346 80.2189 73.4404 80.3282 73.5604 80.4054C73.6848 80.4783 73.8241 80.5147 73.9785 80.5147ZM79.06 81.0679C78.8156 81.0679 78.6162 81.0272 78.4618 80.9457C78.3074 80.8642 78.196 80.7549 78.1273 80.6177C78.0587 80.4804 78.0287 80.3304 78.0373 80.1674C78.0459 79.9402 78.1166 79.7429 78.2496 79.5757C78.3825 79.4084 78.5647 79.2798 78.7963 79.1897C79.0321 79.0997 79.3044 79.0547 79.6132 79.0547H80.4493C80.4836 78.866 80.4836 78.7095 80.4493 78.5851C80.4193 78.4565 80.355 78.3622 80.2564 78.3021C80.1577 78.2421 80.0248 78.2121 79.8576 78.2121C79.6646 78.2121 79.4909 78.2592 79.3366 78.3536C79.1822 78.4436 79.0729 78.5787 79.0085 78.7588H78.3589C78.4275 78.5315 78.539 78.3386 78.6934 78.1799C78.852 78.017 79.0386 77.8926 79.253 77.8068C79.4716 77.7168 79.7032 77.6718 79.9476 77.6718C80.2435 77.6718 80.4858 77.7254 80.6744 77.8326C80.8631 77.9398 80.9939 78.092 81.0668 78.2893C81.1397 78.4822 81.1526 78.7138 81.1054 78.9839L80.7581 80.9907H80.1792L80.2306 80.444C80.1706 80.5298 80.102 80.6112 80.0248 80.6884C79.9476 80.7656 79.8597 80.8342 79.7611 80.8942C79.6625 80.95 79.5553 80.9929 79.4395 81.0229C79.3237 81.0529 79.1972 81.0679 79.06 81.0679ZM79.2658 80.5469C79.403 80.5469 79.5338 80.519 79.6582 80.4633C79.7868 80.4075 79.9005 80.3325 79.9991 80.2382C80.0977 80.1395 80.177 80.0302 80.2371 79.9101C80.3014 79.7901 80.34 79.6636 80.3528 79.5306L80.3593 79.5113H79.5939C79.418 79.5113 79.2637 79.5349 79.1308 79.5821C79.0021 79.6293 78.9035 79.6979 78.8349 79.7879C78.7663 79.8737 78.7298 79.9766 78.7255 80.0967C78.7212 80.2382 78.7663 80.3497 78.8606 80.4311C78.9549 80.5083 79.09 80.5469 79.2658 80.5469ZM82.639 82.483C82.3603 82.483 82.118 82.4465 81.9122 82.3736C81.7106 82.305 81.5563 82.2 81.4491 82.0584C81.3376 81.9212 81.2861 81.7519 81.2947 81.5503C81.3033 81.3959 81.344 81.2523 81.4169 81.1194C81.4898 80.9864 81.5948 80.8642 81.7321 80.7527C81.8693 80.6412 82.0408 80.5405 82.2466 80.4504L82.5554 80.7334C82.341 80.8192 82.1823 80.9243 82.0794 81.0486C81.9808 81.173 81.9293 81.3037 81.925 81.441C81.9207 81.5525 81.9486 81.6489 82.0086 81.7304C82.073 81.8119 82.1652 81.8719 82.2852 81.9105C82.4096 81.9534 82.5554 81.9748 82.7226 81.9748C82.9885 81.9748 83.2093 81.9169 83.3851 81.8012C83.5609 81.6854 83.6531 81.5289 83.6617 81.3316C83.666 81.2073 83.6231 81.1001 83.533 81.01C83.4473 80.9243 83.2693 80.8749 82.9992 80.8621C82.7934 80.8449 82.6111 80.8213 82.4525 80.7913C82.2981 80.7613 82.163 80.727 82.0472 80.6884C81.9357 80.6455 81.8393 80.5984 81.7578 80.5469C81.6763 80.4912 81.6077 80.4311 81.552 80.3668L81.5777 80.2189L82.311 79.6014L82.7869 79.7815L81.9893 80.4118L82.1694 80.0967C82.2209 80.131 82.2724 80.1631 82.3238 80.1931C82.3753 80.2232 82.4353 80.251 82.5039 80.2768C82.5768 80.2982 82.6647 80.3175 82.7676 80.3347C82.8705 80.3518 82.9992 80.3647 83.1536 80.3732C83.4451 80.3947 83.6746 80.4483 83.8418 80.534C84.009 80.6155 84.1269 80.7206 84.1955 80.8492C84.2642 80.9779 84.2942 81.1215 84.2856 81.2802C84.277 81.5074 84.202 81.7111 84.0605 81.8912C83.9233 82.0713 83.7324 82.215 83.488 82.3222C83.2479 82.4294 82.9649 82.483 82.639 82.483ZM83.0635 79.9938C82.8191 79.9938 82.6133 79.9509 82.446 79.8651C82.2788 79.7751 82.1544 79.655 82.073 79.5049C81.9958 79.3548 81.9615 79.1833 81.9701 78.9903C81.9786 78.7459 82.0494 78.5251 82.1823 78.3278C82.3195 78.1263 82.4996 77.9677 82.7226 77.8519C82.9456 77.7318 83.1964 77.6718 83.4752 77.6718C83.7196 77.6718 83.9233 77.7168 84.0862 77.8068C84.2534 77.8969 84.3756 78.017 84.4528 78.167C84.5343 78.3171 84.5708 78.4865 84.5622 78.6752C84.5493 78.9239 84.4764 79.149 84.3435 79.3505C84.2148 79.5478 84.039 79.7043 83.8161 79.8201C83.5974 79.9359 83.3465 79.9938 83.0635 79.9938ZM83.1536 79.4856C83.3894 79.4856 83.5824 79.417 83.7324 79.2798C83.8825 79.1426 83.9618 78.9603 83.9704 78.7331C83.9833 78.553 83.9361 78.4179 83.8289 78.3278C83.726 78.2335 83.5781 78.1863 83.3851 78.1863C83.1536 78.1863 82.9606 78.255 82.8062 78.3922C82.6519 78.5294 82.5704 78.7116 82.5618 78.9389C82.5489 79.1147 82.5961 79.2498 82.7033 79.3441C82.8105 79.4385 82.9606 79.4856 83.1536 79.4856ZM83.9061 78.2507L83.8354 77.749H85.1668L85.0832 78.1863L83.9061 78.2507ZM86.2772 81.0679C86.0328 81.0679 85.8334 81.0272 85.679 80.9457C85.5247 80.8642 85.4132 80.7549 85.3446 80.6177C85.276 80.4804 85.246 80.3304 85.2545 80.1674C85.2631 79.9402 85.3339 79.7429 85.4668 79.5757C85.5997 79.4084 85.782 79.2798 86.0135 79.1897C86.2494 79.0997 86.5216 79.0547 86.8304 79.0547H87.6666C87.7009 78.866 87.7009 78.7095 87.6666 78.5851C87.6365 78.4565 87.5722 78.3622 87.4736 78.3021C87.375 78.2421 87.242 78.2121 87.0748 78.2121C86.8818 78.2121 86.7082 78.2592 86.5538 78.3536C86.3994 78.4436 86.2901 78.5787 86.2258 78.7588H85.5761C85.6447 78.5315 85.7562 78.3386 85.9106 78.1799C86.0693 78.017 86.2558 77.8926 86.4702 77.8068C86.6889 77.7168 86.9204 77.6718 87.1649 77.6718C87.4607 77.6718 87.703 77.7254 87.8917 77.8326C88.0804 77.9398 88.2111 78.092 88.284 78.2893C88.3569 78.4822 88.3698 78.7138 88.3226 78.9839L87.9753 80.9907H87.3964L87.4479 80.444C87.3878 80.5298 87.3192 80.6112 87.242 80.6884C87.1649 80.7656 87.0769 80.8342 86.9783 80.8942C86.8797 80.95 86.7725 80.9929 86.6567 81.0229C86.5409 81.0529 86.4144 81.0679 86.2772 81.0679ZM86.4831 80.5469C86.6203 80.5469 86.7511 80.519 86.8754 80.4633C87.0041 80.4075 87.1177 80.3325 87.2163 80.2382C87.3149 80.1395 87.3943 80.0302 87.4543 79.9101C87.5186 79.7901 87.5572 79.6636 87.5701 79.5306L87.5765 79.5113H86.8111C86.6353 79.5113 86.4809 79.5349 86.348 79.5821C86.2193 79.6293 86.1207 79.6979 86.0521 79.7879C85.9835 79.8737 85.947 79.9766 85.9428 80.0967C85.9385 80.2382 85.9835 80.3497 86.0778 80.4311C86.1722 80.5083 86.3072 80.5469 86.4831 80.5469ZM88.9107 80.9907L89.4767 77.749H90.1199L89.5539 80.9907H88.9107ZM89.9849 77.1443C89.8605 77.1443 89.7576 77.1058 89.6761 77.0286C89.5989 76.9514 89.5603 76.8528 89.5603 76.7327C89.5603 76.6169 89.5989 76.5204 89.6761 76.4433C89.7576 76.3661 89.8605 76.3275 89.9849 76.3275C90.1049 76.3275 90.2057 76.3661 90.2872 76.4433C90.3686 76.5161 90.4094 76.6126 90.4094 76.7327C90.4094 76.8528 90.3665 76.9514 90.2807 77.0286C90.1993 77.1058 90.1006 77.1443 89.9849 77.1443ZM90.4863 80.9907L91.0523 77.749H91.6247L91.5797 78.2957C91.7126 78.1027 91.882 77.9505 92.0878 77.839C92.298 77.7275 92.5252 77.6718 92.7696 77.6718C93.0398 77.6718 93.2563 77.7297 93.4193 77.8454C93.5865 77.9612 93.698 78.1242 93.7538 78.3343C93.8138 78.5401 93.8181 78.7867 93.7666 79.074L93.4321 80.9907H92.7889L93.1105 79.1383C93.162 78.8467 93.1384 78.6216 93.0398 78.4629C92.9412 78.3043 92.7632 78.2249 92.5059 78.2249C92.3387 78.2249 92.1822 78.2635 92.0364 78.3407C91.8906 78.4179 91.7641 78.5315 91.6569 78.6816C91.554 78.8274 91.4811 79.0096 91.4382 79.2283L91.1295 80.9907H90.4863ZM94.5828 81.0229C94.4627 81.0229 94.362 80.9843 94.2805 80.9071C94.2033 80.8299 94.1647 80.7334 94.1647 80.6177C94.1647 80.5019 94.2033 80.4054 94.2805 80.3282C94.362 80.2467 94.4627 80.206 94.5828 80.206C94.7071 80.206 94.8079 80.2467 94.8851 80.3282C94.9623 80.4054 95.0009 80.5019 95.0009 80.6177C95.0009 80.7334 94.9623 80.8299 94.8851 80.9071C94.8079 80.9843 94.7071 81.0229 94.5828 81.0229ZM95.9772 81.0229C95.8572 81.0229 95.7564 80.9843 95.6749 80.9071C95.5977 80.8299 95.5592 80.7334 95.5592 80.6177C95.5592 80.5019 95.5977 80.4054 95.6749 80.3282C95.7564 80.2467 95.8572 80.206 95.9772 80.206C96.1016 80.206 96.2024 80.2467 96.2795 80.3282C96.3567 80.4054 96.3953 80.5019 96.3953 80.6177C96.3953 80.7334 96.3567 80.8299 96.2795 80.9071C96.2024 80.9843 96.1016 81.0229 95.9772 81.0229ZM97.3717 81.0229C97.2516 81.0229 97.1509 80.9843 97.0694 80.9071C96.9922 80.8299 96.9536 80.7334 96.9536 80.6177C96.9536 80.5019 96.9922 80.4054 97.0694 80.3282C97.1509 80.2467 97.2516 80.206 97.3717 80.206C97.496 80.206 97.5968 80.2467 97.674 80.3282C97.7512 80.4054 97.7898 80.5019 97.7898 80.6177C97.7898 80.7334 97.7512 80.8299 97.674 80.9071C97.5968 80.9843 97.496 81.0229 97.3717 81.0229ZM99.7567 78.6752L100.02 77.7168L99.1521 78.2828L98.9784 77.8326L99.911 77.4595L99.1135 77.0993L99.4222 76.6684L100.11 77.228L100.181 76.2696H100.676L100.4 77.228L101.275 76.6684L101.435 77.0929L100.496 77.466L101.307 77.839L100.992 78.2764L100.31 77.7168L100.246 78.6752H99.7567Z" fill="#717171"/>
</g>
<defs>
<filter id="filter0_d_1220_20198" x="0" y="0" width="306.547" height="165" filterUnits="userSpaceOnUse" color-interpolation-filters="sRGB">
<feFlood flood-opacity="0" result="BackgroundImageFix"/>
<feColorMatrix in="SourceAlpha" type="matrix" values="0 0 0 0 0 0 0 0 0 0 0 0 0 0 0 0 0 0 127 0" result="hardAlpha"/>
<feOffset dx="20" dy="20"/>
<feGaussianBlur stdDeviation="22.25"/>
<feComposite in2="hardAlpha" operator="out"/>
<feColorMatrix type="matrix" values="0 0 0 0 0 0 0 0 0 0 0 0 0 0 0 0 0 0 0.08 0"/>
<feBlend mode="normal" in2="BackgroundImageFix" result="effect1_dropShadow_1220_20198"/>
<feBlend mode="normal" in="SourceGraphic" in2="effect1_dropShadow_1220_20198" result="shape"/>
</filter>
</defs>
</svg>
