<svg width="307" height="156" viewBox="0 0 307 156" fill="none" xmlns="http://www.w3.org/2000/svg">
<g filter="url(#filter0_d_1220_20167)">
<rect x="24.5" y="24.5" width="218" height="67" rx="10" fill="white"/>
<rect x="25" y="25" width="217" height="66" rx="9.5" stroke="#1A1A1A" stroke-opacity="0.08"/>
<circle cx="42.828" cy="43.7728" r="2.79997" fill="#FD9E22" stroke="#E1850E" stroke-width="0.509086"/>
<path d="M50.8253 45.8496C50.4951 45.8496 50.2057 45.7918 49.957 45.676C49.7083 45.5559 49.5153 45.3887 49.3781 45.1743C49.2409 44.9599 49.1723 44.709 49.1723 44.4217H49.8476C49.8519 44.5847 49.8905 44.7348 49.9634 44.872C50.0406 45.0049 50.1499 45.1121 50.2914 45.1936C50.4372 45.2708 50.6152 45.3094 50.8253 45.3094C51.0054 45.3094 51.1598 45.2793 51.2884 45.2193C51.4213 45.1593 51.5221 45.0778 51.5907 44.9749C51.6593 44.8677 51.6936 44.7455 51.6936 44.6083C51.6936 44.4496 51.6572 44.3188 51.5843 44.2159C51.5114 44.113 51.4128 44.0294 51.2884 43.9651C51.1683 43.8964 51.0268 43.8364 50.8639 43.785C50.7052 43.7335 50.538 43.6778 50.3622 43.6177C50.0063 43.5019 49.7404 43.3519 49.5646 43.1675C49.3931 42.9831 49.3073 42.743 49.3073 42.4471C49.3073 42.1941 49.3674 41.9754 49.4874 41.791C49.6075 41.6023 49.7747 41.4565 49.9891 41.3536C50.2078 41.2464 50.4651 41.1928 50.761 41.1928C51.0526 41.1928 51.3077 41.2464 51.5264 41.3536C51.7451 41.4608 51.9166 41.6088 52.041 41.7974C52.1653 41.9861 52.2275 42.207 52.2275 42.4599H51.5457C51.5457 42.3442 51.5157 42.2305 51.4556 42.119C51.3956 42.0076 51.3056 41.9175 51.1855 41.8489C51.0654 41.776 50.9175 41.7396 50.7417 41.7396C50.5959 41.7353 50.4651 41.7589 50.3493 41.8103C50.2335 41.8618 50.1435 41.9368 50.0792 42.0354C50.0149 42.1341 49.9827 42.252 49.9827 42.3892C49.9827 42.5264 50.0106 42.6379 50.0663 42.7237C50.1263 42.8051 50.2121 42.8759 50.3236 42.9359C50.4351 42.996 50.5637 43.0517 50.7095 43.1032C50.8596 43.1503 51.0247 43.2039 51.2048 43.264C51.4278 43.3369 51.625 43.4269 51.7965 43.5341C51.9723 43.637 52.1096 43.7721 52.2082 43.9393C52.3111 44.1023 52.3626 44.3124 52.3626 44.5697C52.3626 44.7926 52.3047 45.0006 52.1889 45.1936C52.0731 45.3865 51.9016 45.5452 51.6743 45.6695C51.4471 45.7896 51.1641 45.8496 50.8253 45.8496ZM53.0953 45.7725V41.1414H53.7385V45.7725H53.0953ZM55.6958 45.8496C55.4299 45.8496 55.2091 45.8046 55.0333 45.7146C54.8575 45.6245 54.7267 45.5045 54.6409 45.3544C54.5552 45.2 54.5123 45.0349 54.5123 44.8591C54.5123 44.6447 54.568 44.4625 54.6795 44.3124C54.791 44.158 54.9497 44.0401 55.1555 43.9586C55.3613 43.8771 55.6079 43.8364 55.8952 43.8364H56.7378C56.7378 43.6477 56.7099 43.4912 56.6542 43.3669C56.5984 43.2425 56.5148 43.1503 56.4033 43.0903C56.2961 43.026 56.1589 42.9938 55.9917 42.9938C55.7987 42.9938 55.6336 43.041 55.4964 43.1353C55.3592 43.2254 55.2734 43.3604 55.2391 43.5405H54.5959C54.6216 43.3133 54.6988 43.1203 54.8274 42.9616C54.9604 42.7987 55.1298 42.6743 55.3356 42.5886C55.5414 42.4985 55.7601 42.4535 55.9917 42.4535C56.2961 42.4535 56.5512 42.5071 56.7571 42.6143C56.9629 42.7215 57.1173 42.8737 57.2202 43.071C57.3274 43.264 57.381 43.4955 57.381 43.7657V45.7725H56.8214L56.7699 45.2257C56.7228 45.3115 56.667 45.393 56.6027 45.4702C56.5384 45.5473 56.4612 45.6138 56.3711 45.6695C56.2854 45.7253 56.1846 45.7682 56.0688 45.7982C55.9573 45.8325 55.833 45.8496 55.6958 45.8496ZM55.818 45.3286C55.9552 45.3286 56.0796 45.3008 56.191 45.245C56.3025 45.1893 56.3969 45.1142 56.4741 45.0199C56.5555 44.9213 56.6156 44.8119 56.6542 44.6919C56.697 44.5675 56.7206 44.441 56.7249 44.3124V44.2931H55.9595C55.7751 44.2931 55.625 44.3167 55.5092 44.3638C55.3978 44.4067 55.3163 44.4668 55.2648 44.5439C55.2134 44.6211 55.1876 44.7112 55.1876 44.8141C55.1876 44.9213 55.2112 45.0135 55.2584 45.0907C55.3099 45.1636 55.3828 45.2214 55.4771 45.2643C55.5714 45.3072 55.6851 45.3286 55.818 45.3286ZM59.7006 45.8496C59.3876 45.8496 59.1089 45.7789 58.8645 45.6374C58.6201 45.4916 58.4271 45.2922 58.2856 45.0392C58.1484 44.7862 58.0798 44.4925 58.0798 44.158C58.0798 43.8193 58.1484 43.5234 58.2856 43.2704C58.4271 43.0131 58.6201 42.8137 58.8645 42.6722C59.1089 42.5264 59.3876 42.4535 59.7006 42.4535C60.0951 42.4535 60.4253 42.5564 60.6912 42.7623C60.957 42.9681 61.1264 43.2468 61.1993 43.5984H60.5304C60.4875 43.4097 60.3889 43.264 60.2345 43.161C60.0844 43.0581 59.9043 43.0067 59.6942 43.0067C59.5227 43.0067 59.364 43.0517 59.2182 43.1417C59.0724 43.2275 58.9545 43.3561 58.8645 43.5277C58.7787 43.6949 58.7358 43.9029 58.7358 44.1516C58.7358 44.336 58.7616 44.5011 58.813 44.6468C58.8645 44.7884 58.9331 44.9084 59.0188 45.007C59.1089 45.1057 59.2118 45.1807 59.3276 45.2322C59.4434 45.2793 59.5656 45.3029 59.6942 45.3029C59.8357 45.3029 59.9622 45.2815 60.0737 45.2386C60.1895 45.1914 60.286 45.1228 60.3631 45.0328C60.4446 44.9427 60.5004 44.8355 60.5304 44.7112H61.1993C61.1264 45.0542 60.957 45.3308 60.6912 45.5409C60.4253 45.7467 60.0951 45.8496 59.7006 45.8496ZM63.9909 45.7725L62.4986 43.9972L63.8494 42.5307H64.6277L63.0196 44.2481V43.7657L64.8013 45.7725H63.9909ZM61.9519 45.7725V41.1414H62.5951V45.7725H61.9519Z" fill="#1A1A1A"/>
<path opacity="0.4" d="M72.4451 45.3286V42.4857H73.0112V45.3286H72.4451ZM71.2295 44.1773V43.637H74.2332V44.1773H71.2295ZM77.0414 45.7725V44.8527H74.7838V44.351L76.9385 41.27H77.6782V44.2931H78.3214V44.8527H77.6782V45.7725H77.0414ZM75.4849 44.2931H77.08V41.9775L75.4849 44.2931ZM80.4768 45.8496C80.1852 45.8496 79.9365 45.7939 79.7307 45.6824C79.5248 45.5666 79.3619 45.4144 79.2418 45.2257C79.1217 45.0328 79.0489 44.8248 79.0231 44.6018H79.6213C79.6642 44.8248 79.7607 44.9985 79.9107 45.1228C80.0608 45.2429 80.2516 45.3029 80.4832 45.3029C80.6976 45.3029 80.8863 45.2386 81.0492 45.11C81.2122 44.9813 81.343 44.7862 81.4416 44.5246C81.5402 44.2631 81.596 43.9329 81.6088 43.5341C81.6131 43.5212 81.6152 43.5084 81.6152 43.4955C81.6152 43.4826 81.6152 43.4698 81.6152 43.4569C81.5466 43.5856 81.4523 43.7035 81.3322 43.8107C81.2122 43.9179 81.0707 44.0036 80.9077 44.068C80.7491 44.128 80.5711 44.158 80.3739 44.158C80.1209 44.158 79.8829 44.1001 79.6599 43.9843C79.4412 43.8643 79.2611 43.6949 79.1196 43.4762C78.9824 43.2575 78.9138 43.0024 78.9138 42.7108C78.9138 42.4492 78.976 42.2027 79.1003 41.9711C79.2289 41.7396 79.409 41.553 79.6406 41.4115C79.8764 41.2657 80.153 41.1928 80.4703 41.1928C80.8005 41.1928 81.0771 41.255 81.3001 41.3794C81.5273 41.4994 81.7074 41.6645 81.8404 41.8746C81.9776 42.0805 82.0762 42.312 82.1362 42.5693C82.2006 42.8223 82.2327 43.0839 82.2327 43.354C82.2327 43.8471 82.1641 44.2824 82.0269 44.6597C81.8897 45.0328 81.6903 45.3244 81.4287 45.5345C81.1671 45.7446 80.8498 45.8496 80.4768 45.8496ZM80.5154 43.6113C80.6997 43.6113 80.8648 43.5706 81.0106 43.4891C81.1564 43.4033 81.2722 43.2897 81.358 43.1482C81.4437 43.0067 81.4866 42.8502 81.4866 42.6786C81.4866 42.4985 81.4437 42.3399 81.358 42.2027C81.2722 42.0612 81.1543 41.9518 81.0042 41.8746C80.8584 41.7932 80.6933 41.7524 80.5089 41.7524C80.3288 41.7524 80.1659 41.7932 80.0201 41.8746C79.8743 41.9518 79.7585 42.0612 79.6728 42.2027C79.5913 42.3399 79.5506 42.5007 79.5506 42.6851C79.5506 42.8695 79.5913 43.0324 79.6728 43.1739C79.7585 43.3111 79.8743 43.4183 80.0201 43.4955C80.1659 43.5727 80.331 43.6113 80.5154 43.6113Z" fill="#1A1A1A"/>
<path d="M40.3574 59.8818V54.2818H41.1574L44.0134 58.5778V54.2818H44.8134V59.8818H44.0134L41.1574 55.5938V59.8818H40.3574ZM47.7664 59.9778C47.3824 59.9778 47.0411 59.8898 46.7424 59.7138C46.4438 59.5378 46.2091 59.2925 46.0384 58.9778C45.8731 58.6632 45.7904 58.2978 45.7904 57.8818C45.7904 57.4552 45.8731 57.0845 46.0384 56.7698C46.2091 56.4498 46.4438 56.2018 46.7424 56.0258C47.0411 55.8445 47.3878 55.7538 47.7824 55.7538C48.1771 55.7538 48.5158 55.8418 48.7984 56.0178C49.0811 56.1938 49.2998 56.4285 49.4544 56.7218C49.6091 57.0098 49.6864 57.3298 49.6864 57.6818C49.6864 57.7352 49.6838 57.7938 49.6784 57.8578C49.6784 57.9165 49.6758 57.9832 49.6704 58.0578H46.3744V57.4898H48.8864C48.8704 57.1538 48.7584 56.8925 48.5504 56.7058C48.3424 56.5138 48.0838 56.4178 47.7744 56.4178C47.5558 56.4178 47.3558 56.4685 47.1744 56.5698C46.9931 56.6658 46.8464 56.8098 46.7344 57.0018C46.6278 57.1885 46.5744 57.4258 46.5744 57.7138V57.9378C46.5744 58.2365 46.6278 58.4898 46.7344 58.6978C46.8464 58.9005 46.9931 59.0552 47.1744 59.1618C47.3558 59.2632 47.5531 59.3138 47.7664 59.3138C48.0224 59.3138 48.2331 59.2578 48.3984 59.1458C48.5638 59.0338 48.6864 58.8818 48.7664 58.6898H49.5664C49.4971 58.9352 49.3798 59.1565 49.2144 59.3538C49.0491 59.5458 48.8438 59.6978 48.5984 59.8098C48.3584 59.9218 48.0811 59.9778 47.7664 59.9778ZM52.3993 59.9778C52.0153 59.9778 51.6739 59.8898 51.3753 59.7138C51.0766 59.5378 50.8419 59.2925 50.6713 58.9778C50.5059 58.6632 50.4233 58.2978 50.4233 57.8818C50.4233 57.4552 50.5059 57.0845 50.6713 56.7698C50.8419 56.4498 51.0766 56.2018 51.3753 56.0258C51.6739 55.8445 52.0206 55.7538 52.4153 55.7538C52.8099 55.7538 53.1486 55.8418 53.4313 56.0178C53.7139 56.1938 53.9326 56.4285 54.0873 56.7218C54.2419 57.0098 54.3193 57.3298 54.3193 57.6818C54.3193 57.7352 54.3166 57.7938 54.3113 57.8578C54.3113 57.9165 54.3086 57.9832 54.3033 58.0578H51.0073V57.4898H53.5193C53.5033 57.1538 53.3913 56.8925 53.1833 56.7058C52.9753 56.5138 52.7166 56.4178 52.4073 56.4178C52.1886 56.4178 51.9886 56.4685 51.8073 56.5698C51.6259 56.6658 51.4793 56.8098 51.3673 57.0018C51.2606 57.1885 51.2072 57.4258 51.2072 57.7138V57.9378C51.2072 58.2365 51.2606 58.4898 51.3673 58.6978C51.4793 58.9005 51.6259 59.0552 51.8073 59.1618C51.9886 59.2632 52.1859 59.3138 52.3993 59.3138C52.6553 59.3138 52.8659 59.2578 53.0313 59.1458C53.1966 59.0338 53.3193 58.8818 53.3993 58.6898H54.1993C54.1299 58.9352 54.0126 59.1565 53.8473 59.3538C53.6819 59.5458 53.4766 59.6978 53.2313 59.8098C52.9913 59.9218 52.7139 59.9778 52.3993 59.9778ZM57.0001 59.9778C56.6161 59.9778 56.2774 59.8872 55.9841 59.7058C55.6907 59.5192 55.4614 59.2685 55.2961 58.9538C55.1361 58.6338 55.0561 58.2712 55.0561 57.8658C55.0561 57.4552 55.1361 57.0925 55.2961 56.7778C55.4614 56.4632 55.6907 56.2152 55.9841 56.0338C56.2827 55.8472 56.6241 55.7538 57.0081 55.7538C57.3227 55.7538 57.6001 55.8178 57.8401 55.9458C58.0801 56.0685 58.2667 56.2445 58.4001 56.4738V54.1218H59.2001V59.8818H58.4801L58.4001 59.2578C58.3201 59.3805 58.2161 59.4978 58.0881 59.6098C57.9601 59.7165 57.8054 59.8045 57.6241 59.8738C57.4427 59.9432 57.2347 59.9778 57.0001 59.9778ZM57.1281 59.2818C57.3787 59.2818 57.6001 59.2232 57.7921 59.1058C57.9841 58.9885 58.1307 58.8232 58.2321 58.6098C58.3387 58.3965 58.3921 58.1485 58.3921 57.8658C58.3921 57.5832 58.3387 57.3378 58.2321 57.1298C58.1307 56.9165 57.9841 56.7512 57.7921 56.6338C57.6001 56.5112 57.3787 56.4498 57.1281 56.4498C56.8881 56.4498 56.6721 56.5112 56.4801 56.6338C56.2881 56.7512 56.1387 56.9165 56.0321 57.1298C55.9254 57.3378 55.8721 57.5832 55.8721 57.8658C55.8721 58.1485 55.9254 58.3965 56.0321 58.6098C56.1387 58.8232 56.2881 58.9885 56.4801 59.1058C56.6721 59.2232 56.8881 59.2818 57.1281 59.2818ZM64.0049 59.8818C63.7489 59.8818 63.5275 59.8418 63.3409 59.7618C63.1542 59.6818 63.0102 59.5485 62.9089 59.3618C62.8075 59.1752 62.7569 58.9218 62.7569 58.6018V56.5298H62.0609V55.8498H62.7569L62.8529 54.8418H63.5569V55.8498H64.7009V56.5298H63.5569V58.6098C63.5569 58.8392 63.6049 58.9965 63.7009 59.0818C63.7969 59.1618 63.9622 59.2018 64.1969 59.2018H64.6609V59.8818H64.0049ZM67.3137 59.9778C66.935 59.9778 66.5937 59.8898 66.2897 59.7138C65.991 59.5378 65.7537 59.2925 65.5777 58.9778C65.407 58.6578 65.3217 58.2898 65.3217 57.8738C65.3217 57.4472 65.4097 57.0765 65.5857 56.7618C65.7617 56.4418 66.0017 56.1938 66.3057 56.0178C66.6097 55.8418 66.951 55.7538 67.3297 55.7538C67.7137 55.7538 68.055 55.8418 68.3537 56.0178C68.6524 56.1938 68.887 56.4392 69.0577 56.7538C69.2337 57.0685 69.3217 57.4392 69.3217 57.8658C69.3217 58.2925 69.2337 58.6632 69.0577 58.9778C68.887 59.2925 68.6497 59.5378 68.3457 59.7138C68.0417 59.8898 67.6977 59.9778 67.3137 59.9778ZM67.3137 59.2898C67.5324 59.2898 67.7297 59.2365 67.9057 59.1298C68.087 59.0232 68.231 58.8658 68.3377 58.6578C68.4497 58.4445 68.5057 58.1805 68.5057 57.8658C68.5057 57.5512 68.4524 57.2898 68.3457 57.0818C68.239 56.8685 68.095 56.7085 67.9137 56.6018C67.7377 56.4952 67.543 56.4418 67.3297 56.4418C67.1164 56.4418 66.919 56.4952 66.7377 56.6018C66.5564 56.7085 66.4097 56.8685 66.2977 57.0818C66.191 57.2898 66.1377 57.5512 66.1377 57.8658C66.1377 58.1805 66.191 58.4445 66.2977 58.6578C66.4097 58.8658 66.5537 59.0232 66.7297 59.1298C66.911 59.2365 67.1057 59.2898 67.3137 59.2898ZM73.9736 59.8818C73.7176 59.8818 73.4963 59.8418 73.3096 59.7618C73.123 59.6818 72.979 59.5485 72.8776 59.3618C72.7763 59.1752 72.7256 58.9218 72.7256 58.6018V56.5298H72.0296V55.8498H72.7256L72.8216 54.8418H73.5256V55.8498H74.6696V56.5298H73.5256V58.6098C73.5256 58.8392 73.5736 58.9965 73.6696 59.0818C73.7656 59.1618 73.931 59.2018 74.1656 59.2018H74.6296V59.8818H73.9736ZM76.8878 59.9778C76.5571 59.9778 76.2825 59.9218 76.0638 59.8098C75.8451 59.6978 75.6825 59.5485 75.5758 59.3618C75.4691 59.1698 75.4158 58.9645 75.4158 58.7458C75.4158 58.4792 75.4851 58.2525 75.6238 58.0658C75.7625 57.8738 75.9598 57.7272 76.2158 57.6258C76.4718 57.5245 76.7785 57.4738 77.1358 57.4738H78.1838C78.1838 57.2392 78.1491 57.0445 78.0798 56.8898C78.0105 56.7352 77.9065 56.6205 77.7678 56.5458C77.6345 56.4658 77.4638 56.4258 77.2558 56.4258C77.0158 56.4258 76.8105 56.4845 76.6398 56.6018C76.4691 56.7138 76.3625 56.8818 76.3198 57.1058H75.5198C75.5518 56.8232 75.6478 56.5832 75.8078 56.3858C75.9731 56.1832 76.1838 56.0285 76.4398 55.9218C76.6958 55.8098 76.9678 55.7538 77.2558 55.7538C77.6345 55.7538 77.9518 55.8205 78.2078 55.9538C78.4638 56.0872 78.6558 56.2765 78.7838 56.5218C78.9171 56.7618 78.9838 57.0498 78.9838 57.3858V59.8818H78.2878L78.2238 59.2018C78.1651 59.3085 78.0958 59.4098 78.0158 59.5058C77.9358 59.6018 77.8398 59.6845 77.7278 59.7538C77.6211 59.8232 77.4958 59.8765 77.3518 59.9138C77.2131 59.9565 77.0585 59.9778 76.8878 59.9778ZM77.0398 59.3298C77.2105 59.3298 77.3651 59.2952 77.5038 59.2258C77.6425 59.1565 77.7598 59.0632 77.8558 58.9458C77.9571 58.8232 78.0318 58.6872 78.0798 58.5378C78.1331 58.3832 78.1625 58.2258 78.1678 58.0658V58.0418H77.2158C76.9865 58.0418 76.7998 58.0712 76.6558 58.1298C76.5171 58.1832 76.4158 58.2578 76.3518 58.3538C76.2878 58.4498 76.2558 58.5618 76.2558 58.6898C76.2558 58.8232 76.2851 58.9378 76.3438 59.0338C76.4078 59.1245 76.4985 59.1965 76.6158 59.2498C76.7331 59.3032 76.8745 59.3298 77.0398 59.3298ZM80.0049 59.8818V54.1218H80.8049V59.8818H80.0049ZM84.4394 59.8818L82.5834 57.6738L84.2634 55.8498H85.2314L83.2314 57.9858V57.3858L85.4474 59.8818H84.4394ZM81.9034 59.8818V54.1218H82.7034V59.8818H81.9034ZM89.505 59.9778C89.1743 59.9778 88.8997 59.9218 88.681 59.8098C88.4623 59.6978 88.2997 59.5485 88.193 59.3618C88.0863 59.1698 88.033 58.9645 88.033 58.7458C88.033 58.4792 88.1023 58.2525 88.241 58.0658C88.3797 57.8738 88.577 57.7272 88.833 57.6258C89.089 57.5245 89.3957 57.4738 89.753 57.4738H90.801C90.801 57.2392 90.7663 57.0445 90.697 56.8898C90.6277 56.7352 90.5237 56.6205 90.385 56.5458C90.2517 56.4658 90.081 56.4258 89.873 56.4258C89.633 56.4258 89.4277 56.4845 89.257 56.6018C89.0863 56.7138 88.9797 56.8818 88.937 57.1058H88.137C88.169 56.8232 88.265 56.5832 88.425 56.3858C88.5903 56.1832 88.801 56.0285 89.057 55.9218C89.313 55.8098 89.585 55.7538 89.873 55.7538C90.2517 55.7538 90.569 55.8205 90.825 55.9538C91.081 56.0872 91.273 56.2765 91.401 56.5218C91.5343 56.7618 91.601 57.0498 91.601 57.3858V59.8818H90.905L90.841 59.2018C90.7823 59.3085 90.713 59.4098 90.633 59.5058C90.553 59.6018 90.457 59.6845 90.345 59.7538C90.2383 59.8232 90.113 59.8765 89.969 59.9138C89.8303 59.9565 89.6757 59.9778 89.505 59.9778ZM89.657 59.3298C89.8277 59.3298 89.9823 59.2952 90.121 59.2258C90.2597 59.1565 90.377 59.0632 90.473 58.9458C90.5743 58.8232 90.649 58.6872 90.697 58.5378C90.7503 58.3832 90.7797 58.2258 90.785 58.0658V58.0418H89.833C89.6037 58.0418 89.417 58.0712 89.273 58.1298C89.1343 58.1832 89.033 58.2578 88.969 58.3538C88.905 58.4498 88.873 58.5618 88.873 58.6898C88.873 58.8232 88.9023 58.9378 88.961 59.0338C89.025 59.1245 89.1157 59.1965 89.233 59.2498C89.3503 59.3032 89.4917 59.3298 89.657 59.3298ZM94.8221 59.9778C94.6035 59.9778 94.4035 59.9458 94.2221 59.8818C94.0461 59.8232 93.8915 59.7405 93.7581 59.6338C93.6248 59.5272 93.5128 59.4045 93.4221 59.2658L93.3421 59.8818H92.6221V54.1218H93.4221V56.4818C93.5501 56.2792 93.7288 56.1085 93.9581 55.9698C94.1928 55.8258 94.4808 55.7538 94.8221 55.7538C95.2061 55.7538 95.5448 55.8472 95.8381 56.0338C96.1315 56.2152 96.3581 56.4658 96.5181 56.7858C96.6835 57.1005 96.7661 57.4632 96.7661 57.8738C96.7661 58.2738 96.6835 58.6338 96.5181 58.9538C96.3581 59.2738 96.1315 59.5245 95.8381 59.7058C95.5448 59.8872 95.2061 59.9778 94.8221 59.9778ZM94.6941 59.2818C94.9395 59.2818 95.1555 59.2232 95.3421 59.1058C95.5341 58.9885 95.6835 58.8232 95.7901 58.6098C95.9021 58.3965 95.9581 58.1485 95.9581 57.8658C95.9581 57.5832 95.9021 57.3378 95.7901 57.1298C95.6835 56.9165 95.5341 56.7512 95.3421 56.6338C95.1555 56.5112 94.9395 56.4498 94.6941 56.4498C94.4435 56.4498 94.2221 56.5112 94.0301 56.6338C93.8435 56.7512 93.6968 56.9165 93.5901 57.1298C93.4835 57.3378 93.4301 57.5832 93.4301 57.8658C93.4301 58.1485 93.4835 58.3965 93.5901 58.6098C93.6968 58.8232 93.8435 58.9885 94.0301 59.1058C94.2221 59.2232 94.4435 59.2818 94.6941 59.2818ZM99.5403 59.9778C99.1616 59.9778 98.8203 59.8898 98.5163 59.7138C98.2176 59.5378 97.9803 59.2925 97.8043 58.9778C97.6336 58.6578 97.5483 58.2898 97.5483 57.8738C97.5483 57.4472 97.6363 57.0765 97.8123 56.7618C97.9883 56.4418 98.2283 56.1938 98.5323 56.0178C98.8363 55.8418 99.1776 55.7538 99.5563 55.7538C99.9403 55.7538 100.282 55.8418 100.58 56.0178C100.879 56.1938 101.114 56.4392 101.284 56.7538C101.46 57.0685 101.548 57.4392 101.548 57.8658C101.548 58.2925 101.46 58.6632 101.284 58.9778C101.114 59.2925 100.876 59.5378 100.572 59.7138C100.268 59.8898 99.9243 59.9778 99.5403 59.9778ZM99.5403 59.2898C99.7589 59.2898 99.9563 59.2365 100.132 59.1298C100.314 59.0232 100.458 58.8658 100.564 58.6578C100.676 58.4445 100.732 58.1805 100.732 57.8658C100.732 57.5512 100.679 57.2898 100.572 57.0818C100.466 56.8685 100.322 56.7085 100.14 56.6018C99.9643 56.4952 99.7696 56.4418 99.5563 56.4418C99.3429 56.4418 99.1456 56.4952 98.9643 56.6018C98.7829 56.7085 98.6363 56.8685 98.5243 57.0818C98.4176 57.2898 98.3643 57.5512 98.3643 57.8658C98.3643 58.1805 98.4176 58.4445 98.5243 58.6578C98.6363 58.8658 98.7803 59.0232 98.9563 59.1298C99.1376 59.2365 99.3323 59.2898 99.5403 59.2898ZM103.969 59.9778C103.655 59.9778 103.38 59.9138 103.145 59.7858C102.916 59.6578 102.737 59.4658 102.609 59.2098C102.487 58.9538 102.425 58.6312 102.425 58.2418V55.8498H103.225V58.1538C103.225 58.5325 103.308 58.8178 103.473 59.0098C103.639 59.2018 103.876 59.2978 104.185 59.2978C104.393 59.2978 104.58 59.2472 104.745 59.1458C104.916 59.0445 105.049 58.8978 105.145 58.7058C105.241 58.5138 105.289 58.2792 105.289 58.0018V55.8498H106.089V59.8818H105.377L105.321 59.1938C105.199 59.4392 105.02 59.6312 104.785 59.7698C104.551 59.9085 104.279 59.9778 103.969 59.9778ZM108.849 59.8818C108.593 59.8818 108.371 59.8418 108.185 59.7618C107.998 59.6818 107.854 59.5485 107.753 59.3618C107.651 59.1752 107.601 58.9218 107.601 58.6018V56.5298H106.905V55.8498H107.601L107.697 54.8418H108.401V55.8498H109.545V56.5298H108.401V58.6098C108.401 58.8392 108.449 58.9965 108.545 59.0818C108.641 59.1618 108.806 59.2018 109.041 59.2018H109.505V59.8818H108.849ZM114.138 59.8818C113.882 59.8818 113.66 59.8418 113.474 59.7618C113.287 59.6818 113.143 59.5485 113.042 59.3618C112.94 59.1752 112.89 58.9218 112.89 58.6018V56.5298H112.194V55.8498H112.89L112.986 54.8418H113.69V55.8498H114.834V56.5298H113.69V58.6098C113.69 58.8392 113.738 58.9965 113.834 59.0818C113.93 59.1618 114.095 59.2018 114.33 59.2018H114.794V59.8818H114.138ZM115.716 59.8818V54.1218H116.516V56.5058C116.649 56.2712 116.833 56.0872 117.068 55.9538C117.308 55.8205 117.572 55.7538 117.86 55.7538C118.18 55.7538 118.455 55.8205 118.684 55.9538C118.913 56.0818 119.089 56.2765 119.212 56.5378C119.335 56.7938 119.396 57.1165 119.396 57.5058V59.8818H118.604V57.5858C118.604 57.2125 118.524 56.9298 118.364 56.7378C118.204 56.5405 117.967 56.4418 117.652 56.4418C117.439 56.4418 117.247 56.4925 117.076 56.5938C116.905 56.6952 116.769 56.8445 116.668 57.0418C116.567 57.2338 116.516 57.4685 116.516 57.7458V59.8818H115.716ZM122.243 59.9778C121.859 59.9778 121.518 59.8898 121.219 59.7138C120.92 59.5378 120.686 59.2925 120.515 58.9778C120.35 58.6632 120.267 58.2978 120.267 57.8818C120.267 57.4552 120.35 57.0845 120.515 56.7698C120.686 56.4498 120.92 56.2018 121.219 56.0258C121.518 55.8445 121.864 55.7538 122.259 55.7538C122.654 55.7538 122.992 55.8418 123.275 56.0178C123.558 56.1938 123.776 56.4285 123.931 56.7218C124.086 57.0098 124.163 57.3298 124.163 57.6818C124.163 57.7352 124.16 57.7938 124.155 57.8578C124.155 57.9165 124.152 57.9832 124.147 58.0578H120.851V57.4898H123.363C123.347 57.1538 123.235 56.8925 123.027 56.7058C122.819 56.5138 122.56 56.4178 122.251 56.4178C122.032 56.4178 121.832 56.4685 121.651 56.5698C121.47 56.6658 121.323 56.8098 121.211 57.0018C121.104 57.1885 121.051 57.4258 121.051 57.7138V57.9378C121.051 58.2365 121.104 58.4898 121.211 58.6978C121.323 58.9005 121.47 59.0552 121.651 59.1618C121.832 59.2632 122.03 59.3138 122.243 59.3138C122.499 59.3138 122.71 59.2578 122.875 59.1458C123.04 59.0338 123.163 58.8818 123.243 58.6898H124.043C123.974 58.9352 123.856 59.1565 123.691 59.3538C123.526 59.5458 123.32 59.6978 123.075 59.8098C122.835 59.9218 122.558 59.9778 122.243 59.9778ZM128.659 59.9778C128.317 59.9778 128.019 59.9218 127.763 59.8098C127.507 59.6978 127.304 59.5405 127.155 59.3378C127.005 59.1352 126.915 58.8978 126.883 58.6258H127.699C127.725 58.7538 127.776 58.8712 127.851 58.9778C127.931 59.0845 128.037 59.1698 128.171 59.2338C128.309 59.2978 128.472 59.3298 128.659 59.3298C128.835 59.3298 128.979 59.3058 129.091 59.2578C129.208 59.2045 129.293 59.1352 129.347 59.0498C129.4 58.9592 129.427 58.8632 129.427 58.7618C129.427 58.6125 129.389 58.5005 129.315 58.4258C129.245 58.3458 129.139 58.2845 128.995 58.2418C128.856 58.1938 128.688 58.1512 128.491 58.1138C128.304 58.0818 128.123 58.0392 127.947 57.9858C127.776 57.9272 127.621 57.8552 127.483 57.7698C127.349 57.6845 127.243 57.5778 127.163 57.4498C127.083 57.3165 127.043 57.1538 127.043 56.9618C127.043 56.7325 127.104 56.5272 127.227 56.3458C127.349 56.1592 127.523 56.0152 127.747 55.9138C127.976 55.8072 128.245 55.7538 128.555 55.7538C129.003 55.7538 129.363 55.8605 129.635 56.0738C129.907 56.2872 130.067 56.5885 130.115 56.9778H129.339C129.317 56.7965 129.237 56.6578 129.099 56.5618C128.96 56.4605 128.776 56.4098 128.547 56.4098C128.317 56.4098 128.141 56.4552 128.019 56.5458C127.896 56.6365 127.835 56.7565 127.835 56.9058C127.835 57.0018 127.869 57.0872 127.939 57.1618C128.008 57.2365 128.109 57.3005 128.243 57.3538C128.381 57.4018 128.549 57.4472 128.747 57.4898C129.029 57.5432 129.283 57.6098 129.507 57.6898C129.731 57.7698 129.909 57.8872 130.043 58.0418C130.176 58.1965 130.243 58.4178 130.243 58.7058C130.248 58.9565 130.184 59.1778 130.051 59.3698C129.923 59.5618 129.739 59.7112 129.499 59.8178C129.264 59.9245 128.984 59.9778 128.659 59.9778ZM132.521 59.9778C132.19 59.9778 131.915 59.9218 131.697 59.8098C131.478 59.6978 131.315 59.5485 131.209 59.3618C131.102 59.1698 131.049 58.9645 131.049 58.7458C131.049 58.4792 131.118 58.2525 131.257 58.0658C131.395 57.8738 131.593 57.7272 131.849 57.6258C132.105 57.5245 132.411 57.4738 132.769 57.4738H133.817C133.817 57.2392 133.782 57.0445 133.713 56.8898C133.643 56.7352 133.539 56.6205 133.401 56.5458C133.267 56.4658 133.097 56.4258 132.889 56.4258C132.649 56.4258 132.443 56.4845 132.273 56.6018C132.102 56.7138 131.995 56.8818 131.953 57.1058H131.153C131.185 56.8232 131.281 56.5832 131.441 56.3858C131.606 56.1832 131.817 56.0285 132.073 55.9218C132.329 55.8098 132.601 55.7538 132.889 55.7538C133.267 55.7538 133.585 55.8205 133.841 55.9538C134.097 56.0872 134.289 56.2765 134.417 56.5218C134.55 56.7618 134.617 57.0498 134.617 57.3858V59.8818H133.921L133.857 59.2018C133.798 59.3085 133.729 59.4098 133.649 59.5058C133.569 59.6018 133.473 59.6845 133.361 59.7538C133.254 59.8232 133.129 59.8765 132.985 59.9138C132.846 59.9565 132.691 59.9778 132.521 59.9778ZM132.673 59.3298C132.843 59.3298 132.998 59.2952 133.137 59.2258C133.275 59.1565 133.393 59.0632 133.489 58.9458C133.59 58.8232 133.665 58.6872 133.713 58.5378C133.766 58.3832 133.795 58.2258 133.801 58.0658V58.0418H132.849C132.619 58.0418 132.433 58.0712 132.289 58.1298C132.15 58.1832 132.049 58.2578 131.985 58.3538C131.921 58.4498 131.889 58.5618 131.889 58.6898C131.889 58.8232 131.918 58.9378 131.977 59.0338C132.041 59.1245 132.131 59.1965 132.249 59.2498C132.366 59.3032 132.507 59.3298 132.673 59.3298ZM135.638 59.8818V54.1218H136.438V59.8818H135.638ZM139.36 59.9778C138.976 59.9778 138.635 59.8898 138.336 59.7138C138.038 59.5378 137.803 59.2925 137.632 58.9778C137.467 58.6632 137.384 58.2978 137.384 57.8818C137.384 57.4552 137.467 57.0845 137.632 56.7698C137.803 56.4498 138.038 56.2018 138.336 56.0258C138.635 55.8445 138.982 55.7538 139.376 55.7538C139.771 55.7538 140.11 55.8418 140.392 56.0178C140.675 56.1938 140.894 56.4285 141.048 56.7218C141.203 57.0098 141.28 57.3298 141.28 57.6818C141.28 57.7352 141.278 57.7938 141.272 57.8578C141.272 57.9165 141.27 57.9832 141.264 58.0578H137.968V57.4898H140.48C140.464 57.1538 140.352 56.8925 140.144 56.7058C139.936 56.5138 139.678 56.4178 139.368 56.4178C139.15 56.4178 138.95 56.4685 138.768 56.5698C138.587 56.6658 138.44 56.8098 138.328 57.0018C138.222 57.1885 138.168 57.4258 138.168 57.7138V57.9378C138.168 58.2365 138.222 58.4898 138.328 58.6978C138.44 58.9005 138.587 59.0552 138.768 59.1618C138.95 59.2632 139.147 59.3138 139.36 59.3138C139.616 59.3138 139.827 59.2578 139.992 59.1458C140.158 59.0338 140.28 58.8818 140.36 58.6898H141.16C141.091 58.9352 140.974 59.1565 140.808 59.3538C140.643 59.5458 140.438 59.6978 140.192 59.8098C139.952 59.9218 139.675 59.9778 139.36 59.9778ZM143.729 59.9778C143.388 59.9778 143.089 59.9218 142.833 59.8098C142.577 59.6978 142.374 59.5405 142.225 59.3378C142.076 59.1352 141.985 58.8978 141.953 58.6258H142.769C142.796 58.7538 142.846 58.8712 142.921 58.9778C143.001 59.0845 143.108 59.1698 143.241 59.2338C143.38 59.2978 143.542 59.3298 143.729 59.3298C143.905 59.3298 144.049 59.3058 144.161 59.2578C144.278 59.2045 144.364 59.1352 144.417 59.0498C144.47 58.9592 144.497 58.8632 144.497 58.7618C144.497 58.6125 144.46 58.5005 144.385 58.4258C144.316 58.3458 144.209 58.2845 144.065 58.2418C143.926 58.1938 143.758 58.1512 143.561 58.1138C143.374 58.0818 143.193 58.0392 143.017 57.9858C142.846 57.9272 142.692 57.8552 142.553 57.7698C142.42 57.6845 142.313 57.5778 142.233 57.4498C142.153 57.3165 142.113 57.1538 142.113 56.9618C142.113 56.7325 142.174 56.5272 142.297 56.3458C142.42 56.1592 142.593 56.0152 142.817 55.9138C143.046 55.8072 143.316 55.7538 143.625 55.7538C144.073 55.7538 144.433 55.8605 144.705 56.0738C144.977 56.2872 145.137 56.5885 145.185 56.9778H144.409C144.388 56.7965 144.308 56.6578 144.169 56.5618C144.03 56.4605 143.846 56.4098 143.617 56.4098C143.388 56.4098 143.212 56.4552 143.089 56.5458C142.966 56.6365 142.905 56.7565 142.905 56.9058C142.905 57.0018 142.94 57.0872 143.009 57.1618C143.078 57.2365 143.18 57.3005 143.313 57.3538C143.452 57.4018 143.62 57.4472 143.817 57.4898C144.1 57.5432 144.353 57.6098 144.577 57.6898C144.801 57.7698 144.98 57.8872 145.113 58.0418C145.246 58.1965 145.313 58.4178 145.313 58.7058C145.318 58.9565 145.254 59.1778 145.121 59.3698C144.993 59.5618 144.809 59.7112 144.569 59.8178C144.334 59.9245 144.054 59.9778 143.729 59.9778ZM148.302 59.8818V55.8498H149.022L149.094 56.6098C149.184 56.4285 149.302 56.2765 149.446 56.1538C149.59 56.0258 149.758 55.9272 149.95 55.8578C150.147 55.7885 150.371 55.7538 150.622 55.7538V56.6018H150.334C150.168 56.6018 150.011 56.6232 149.862 56.6658C149.712 56.7032 149.579 56.7698 149.462 56.8658C149.35 56.9618 149.262 57.0925 149.198 57.2578C149.134 57.4232 149.102 57.6285 149.102 57.8738V59.8818H148.302ZM153.063 59.9778C152.679 59.9778 152.338 59.8898 152.039 59.7138C151.741 59.5378 151.506 59.2925 151.335 58.9778C151.17 58.6632 151.087 58.2978 151.087 57.8818C151.087 57.4552 151.17 57.0845 151.335 56.7698C151.506 56.4498 151.741 56.2018 152.039 56.0258C152.338 55.8445 152.685 55.7538 153.079 55.7538C153.474 55.7538 153.813 55.8418 154.095 56.0178C154.378 56.1938 154.597 56.4285 154.751 56.7218C154.906 57.0098 154.983 57.3298 154.983 57.6818C154.983 57.7352 154.981 57.7938 154.975 57.8578C154.975 57.9165 154.973 57.9832 154.967 58.0578H151.671V57.4898H154.183C154.167 57.1538 154.055 56.8925 153.847 56.7058C153.639 56.5138 153.381 56.4178 153.071 56.4178C152.853 56.4178 152.653 56.4685 152.471 56.5698C152.29 56.6658 152.143 56.8098 152.031 57.0018C151.925 57.1885 151.871 57.4258 151.871 57.7138V57.9378C151.871 58.2365 151.925 58.4898 152.031 58.6978C152.143 58.9005 152.29 59.0552 152.471 59.1618C152.653 59.2632 152.85 59.3138 153.063 59.3138C153.319 59.3138 153.53 59.2578 153.695 59.1458C153.861 59.0338 153.983 58.8818 154.063 58.6898H154.863C154.794 58.9352 154.677 59.1565 154.511 59.3538C154.346 59.5458 154.141 59.6978 153.895 59.8098C153.655 59.9218 153.378 59.9778 153.063 59.9778ZM156.86 59.8818L155.348 55.8498H156.188L157.332 59.1138L158.484 55.8498H159.308L157.804 59.8818H156.86ZM160.084 59.8818V55.8498H160.884V59.8818H160.084ZM160.492 55.0898C160.338 55.0898 160.21 55.0418 160.108 54.9458C160.012 54.8498 159.964 54.7272 159.964 54.5778C159.964 54.4338 160.012 54.3165 160.108 54.2258C160.21 54.1298 160.338 54.0818 160.492 54.0818C160.642 54.0818 160.767 54.1298 160.868 54.2258C160.97 54.3165 161.02 54.4338 161.02 54.5778C161.02 54.7272 160.97 54.8498 160.868 54.9458C160.767 55.0418 160.642 55.0898 160.492 55.0898ZM163.852 59.9778C163.468 59.9778 163.127 59.8898 162.828 59.7138C162.53 59.5378 162.295 59.2925 162.124 58.9778C161.959 58.6632 161.876 58.2978 161.876 57.8818C161.876 57.4552 161.959 57.0845 162.124 56.7698C162.295 56.4498 162.53 56.2018 162.828 56.0258C163.127 55.8445 163.474 55.7538 163.868 55.7538C164.263 55.7538 164.602 55.8418 164.884 56.0178C165.167 56.1938 165.386 56.4285 165.54 56.7218C165.695 57.0098 165.772 57.3298 165.772 57.6818C165.772 57.7352 165.77 57.7938 165.764 57.8578C165.764 57.9165 165.762 57.9832 165.756 58.0578H162.46V57.4898H164.972C164.956 57.1538 164.844 56.8925 164.636 56.7058C164.428 56.5138 164.17 56.4178 163.86 56.4178C163.642 56.4178 163.442 56.4685 163.26 56.5698C163.079 56.6658 162.932 56.8098 162.82 57.0018C162.714 57.1885 162.66 57.4258 162.66 57.7138V57.9378C162.66 58.2365 162.714 58.4898 162.82 58.6978C162.932 58.9005 163.079 59.0552 163.26 59.1618C163.442 59.2632 163.639 59.3138 163.852 59.3138C164.108 59.3138 164.319 59.2578 164.484 59.1458C164.65 59.0338 164.772 58.8818 164.852 58.6898H165.652C165.583 58.9352 165.466 59.1565 165.3 59.3538C165.135 59.5458 164.93 59.6978 164.684 59.8098C164.444 59.9218 164.167 59.9778 163.852 59.9778ZM167.321 59.8818L166.137 55.8498H166.929L167.809 59.2098L167.657 59.2018L168.633 55.8498H169.529L170.505 59.2018L170.353 59.2098L171.225 55.8498H172.033L170.849 59.8818H170.025L169.001 56.3858H169.161L168.137 59.8818H167.321ZM175.018 59.8818V55.3058C175.018 55.0285 175.063 54.8018 175.154 54.6258C175.25 54.4498 175.388 54.3218 175.57 54.2418C175.751 54.1618 175.97 54.1218 176.226 54.1218H176.698V54.8018H176.354C176.162 54.8018 176.023 54.8418 175.938 54.9218C175.858 54.9965 175.818 55.1298 175.818 55.3218V59.8818H175.018ZM174.426 56.5298V55.8498H176.786V56.5298H174.426ZM179.282 59.9778C178.904 59.9778 178.562 59.8898 178.258 59.7138C177.96 59.5378 177.722 59.2925 177.546 58.9778C177.376 58.6578 177.29 58.2898 177.29 57.8738C177.29 57.4472 177.378 57.0765 177.554 56.7618C177.73 56.4418 177.97 56.1938 178.274 56.0178C178.578 55.8418 178.92 55.7538 179.298 55.7538C179.682 55.7538 180.024 55.8418 180.322 56.0178C180.621 56.1938 180.856 56.4392 181.026 56.7538C181.202 57.0685 181.29 57.4392 181.29 57.8658C181.29 58.2925 181.202 58.6632 181.026 58.9778C180.856 59.2925 180.618 59.5378 180.314 59.7138C180.01 59.8898 179.666 59.9778 179.282 59.9778ZM179.282 59.2898C179.501 59.2898 179.698 59.2365 179.874 59.1298C180.056 59.0232 180.2 58.8658 180.306 58.6578C180.418 58.4445 180.474 58.1805 180.474 57.8658C180.474 57.5512 180.421 57.2898 180.314 57.0818C180.208 56.8685 180.064 56.7085 179.882 56.6018C179.706 56.4952 179.512 56.4418 179.298 56.4418C179.085 56.4418 178.888 56.4952 178.706 56.6018C178.525 56.7085 178.378 56.8685 178.266 57.0818C178.16 57.2898 178.106 57.5512 178.106 57.8658C178.106 58.1805 178.16 58.4445 178.266 58.6578C178.378 58.8658 178.522 59.0232 178.698 59.1298C178.88 59.2365 179.074 59.2898 179.282 59.2898ZM182.232 59.8818V55.8498H182.952L183.024 56.6098C183.114 56.4285 183.232 56.2765 183.376 56.1538C183.52 56.0258 183.688 55.9272 183.88 55.8578C184.077 55.7885 184.301 55.7538 184.552 55.7538V56.6018H184.264C184.098 56.6018 183.941 56.6232 183.792 56.6658C183.642 56.7032 183.509 56.7698 183.392 56.8658C183.28 56.9618 183.192 57.0925 183.128 57.2578C183.064 57.4232 183.032 57.6285 183.032 57.8738V59.8818H182.232ZM191.333 60.6818L189.405 57.6498H190.325L192.269 60.6818H191.333ZM189.893 59.9778C189.354 59.9778 188.88 59.8578 188.469 59.6178C188.064 59.3725 187.744 59.0338 187.509 58.6018C187.28 58.1645 187.165 57.6578 187.165 57.0818C187.165 56.5112 187.28 56.0098 187.509 55.5778C187.744 55.1405 188.064 54.7992 188.469 54.5538C188.88 54.3085 189.354 54.1858 189.893 54.1858C190.442 54.1858 190.922 54.3085 191.333 54.5538C191.744 54.7992 192.061 55.1405 192.285 55.5778C192.514 56.0098 192.629 56.5112 192.629 57.0818C192.629 57.6578 192.514 58.1645 192.285 58.6018C192.061 59.0338 191.744 59.3725 191.333 59.6178C190.922 59.8578 190.442 59.9778 189.893 59.9778ZM189.901 59.2658C190.285 59.2658 190.621 59.1778 190.909 59.0018C191.197 58.8258 191.418 58.5752 191.573 58.2498C191.733 57.9245 191.813 57.5352 191.813 57.0818C191.813 56.6285 191.733 56.2392 191.573 55.9138C191.418 55.5885 191.197 55.3405 190.909 55.1698C190.621 54.9938 190.285 54.9058 189.901 54.9058C189.517 54.9058 189.181 54.9938 188.893 55.1698C188.605 55.3405 188.381 55.5885 188.221 55.9138C188.061 56.2392 187.981 56.6285 187.981 57.0818C187.981 57.5352 188.061 57.9245 188.221 58.2498C188.381 58.5752 188.605 58.8258 188.893 59.0018C189.181 59.1778 189.517 59.2658 189.901 59.2658ZM194.232 59.8818V55.1858L193.256 55.4338V54.8338L194.528 54.2818H195.048V59.8818H194.232ZM196.497 59.9218C196.342 59.9218 196.214 59.8738 196.113 59.7778C196.017 59.6765 195.969 59.5565 195.969 59.4178C195.969 59.2738 196.017 59.1538 196.113 59.0578C196.214 58.9565 196.342 58.9058 196.497 58.9058C196.651 58.9058 196.777 58.9565 196.873 59.0578C196.969 59.1538 197.017 59.2738 197.017 59.4178C197.017 59.5565 196.969 59.6765 196.873 59.7778C196.777 59.8738 196.651 59.9218 196.497 59.9218ZM198.216 59.9218C198.061 59.9218 197.933 59.8738 197.832 59.7778C197.736 59.6765 197.688 59.5565 197.688 59.4178C197.688 59.2738 197.736 59.1538 197.832 59.0578C197.933 58.9565 198.061 58.9058 198.216 58.9058C198.37 58.9058 198.496 58.9565 198.592 59.0578C198.688 59.1538 198.736 59.2738 198.736 59.4178C198.736 59.5565 198.688 59.6765 198.592 59.7778C198.496 59.8738 198.37 59.9218 198.216 59.9218ZM199.934 59.9218C199.78 59.9218 199.652 59.8738 199.55 59.7778C199.454 59.6765 199.406 59.5565 199.406 59.4178C199.406 59.2738 199.454 59.1538 199.55 59.0578C199.652 58.9565 199.78 58.9058 199.934 58.9058C200.089 58.9058 200.214 58.9565 200.31 59.0578C200.406 59.1538 200.454 59.2738 200.454 59.4178C200.454 59.5565 200.406 59.6765 200.31 59.7778C200.214 59.8738 200.089 59.9218 199.934 59.9218Z" fill="#1A1A1A"/>
<path d="M41.2399 69.6752L41.5037 68.7168L40.6353 69.2828L40.4617 68.8326L41.3943 68.4595L40.5967 68.0993L40.9055 67.6684L41.5937 68.228L41.6645 67.2696H42.1597L41.8832 68.228L42.7579 67.6684L42.9187 68.0929L41.9796 68.466L42.7901 68.839L42.4749 69.2764L41.7931 68.7168L41.7288 69.6752H41.2399ZM44.6183 72.0679C44.2967 72.0679 44.018 72.0122 43.7821 71.9007C43.5506 71.7892 43.379 71.6262 43.2676 71.4118C43.1561 71.1974 43.1239 70.9402 43.1711 70.64H43.8464C43.8121 70.8115 43.825 70.9637 43.885 71.0967C43.9494 71.2296 44.0523 71.3347 44.1938 71.4118C44.3353 71.489 44.5025 71.5276 44.6955 71.5276C44.897 71.5276 45.0685 71.4955 45.21 71.4311C45.3515 71.3625 45.4609 71.2682 45.5381 71.1481C45.6195 71.0281 45.6624 70.8887 45.6667 70.73C45.6753 70.6185 45.6603 70.5242 45.6217 70.447C45.5831 70.3656 45.5252 70.2969 45.448 70.2412C45.3751 70.1812 45.2894 70.1297 45.1907 70.0868C45.0921 70.0397 44.9828 69.9968 44.8627 69.9582C44.7469 69.9153 44.629 69.8746 44.5089 69.836C44.2088 69.7288 43.9837 69.5851 43.8336 69.405C43.6878 69.2249 43.6213 69.0105 43.6342 68.7618C43.647 68.4917 43.7242 68.2558 43.8657 68.0543C44.0072 67.8528 44.2002 67.6962 44.4446 67.5848C44.689 67.469 44.9699 67.4111 45.2872 67.4111C45.5745 67.4111 45.8211 67.4647 46.0269 67.5719C46.2327 67.6748 46.385 67.8227 46.4836 68.0157C46.5865 68.2044 46.6165 68.4252 46.5736 68.6782H45.8918C45.9176 68.5453 45.9026 68.4252 45.8468 68.318C45.7954 68.2065 45.7117 68.1186 45.596 68.0543C45.4845 67.99 45.3473 67.9578 45.1843 67.9578C45.0171 67.9578 44.8691 67.9878 44.7405 68.0479C44.6119 68.1079 44.5111 68.1915 44.4382 68.2987C44.3653 68.4016 44.3267 68.5238 44.3224 68.6653C44.3181 68.764 44.331 68.8476 44.361 68.9162C44.3953 68.9848 44.4446 69.0448 44.5089 69.0963C44.5776 69.1477 44.6569 69.1949 44.7469 69.2378C44.837 69.2807 44.9378 69.3214 45.0492 69.36C45.1607 69.3943 45.2787 69.435 45.403 69.4822C45.5445 69.5294 45.6753 69.5894 45.7954 69.6623C45.9154 69.7309 46.0183 69.8124 46.1041 69.9067C46.1899 70.0011 46.2542 70.1104 46.2971 70.2348C46.3442 70.3591 46.3635 70.5006 46.3549 70.6593C46.3464 70.9337 46.267 71.176 46.117 71.3861C45.9712 71.5962 45.7696 71.7635 45.5123 71.8878C45.2594 72.0079 44.9613 72.0679 44.6183 72.0679ZM48.0584 72.0679C47.7883 72.0679 47.5696 72.01 47.4024 71.8942C47.2394 71.7742 47.1279 71.6091 47.0679 71.399C47.0122 71.1846 47.01 70.938 47.0615 70.6593L47.4024 68.749H48.0391L47.7111 70.6014C47.6639 70.8973 47.6854 71.1245 47.7754 71.2832C47.8655 71.4419 48.0434 71.5212 48.3093 71.5212C48.4808 71.5212 48.6395 71.4826 48.7853 71.4054C48.9353 71.3239 49.064 71.2103 49.1712 71.0645C49.2784 70.9144 49.3513 70.7322 49.3899 70.5178L49.7051 68.749H50.3483L49.7758 71.9907H49.2033L49.2484 71.4376C49.1197 71.6348 48.9504 71.7892 48.7402 71.9007C48.5344 72.0122 48.3071 72.0679 48.0584 72.0679ZM50.6627 71.9907L51.2287 68.749H51.8012L51.7562 69.2957C51.8891 69.1027 52.0585 68.9505 52.2643 68.839C52.4744 68.7275 52.7017 68.6718 52.9461 68.6718C53.2163 68.6718 53.4328 68.7297 53.5957 68.8454C53.763 68.9612 53.8745 69.1242 53.9302 69.3343C53.9902 69.5401 53.9945 69.7867 53.9431 70.074L53.6086 71.9907H52.9654L53.287 70.1383C53.3385 69.8467 53.3149 69.6216 53.2163 69.4629C53.1176 69.3043 52.9397 69.2249 52.6824 69.2249C52.5152 69.2249 52.3586 69.2635 52.2129 69.3407C52.0671 69.4179 51.9406 69.5315 51.8334 69.6816C51.7304 69.8274 51.6576 70.0096 51.6147 70.2283L51.3059 71.9907H50.6627ZM55.8591 72.0679C55.5804 72.0679 55.3424 72.0014 55.1452 71.8685C54.9522 71.7356 54.8064 71.5555 54.7078 71.3282C54.6135 71.101 54.5727 70.848 54.5856 70.5692C54.5984 70.2948 54.652 70.0418 54.7464 69.8103C54.845 69.5787 54.9758 69.3793 55.1387 69.2121C55.306 69.0405 55.4968 68.9076 55.7112 68.8133C55.9299 68.7189 56.1614 68.6718 56.4059 68.6718C56.6803 68.6718 56.9033 68.7254 57.0748 68.8326C57.2463 68.9355 57.3728 69.0749 57.4543 69.2507L57.7888 67.3596H58.432L57.6151 71.9907H57.0298L57.0555 71.489C56.9783 71.5876 56.8818 71.682 56.7661 71.772C56.6546 71.8578 56.5238 71.9285 56.3737 71.9843C56.2236 72.04 56.0521 72.0679 55.8591 72.0679ZM56.0778 71.5083C56.2965 71.5083 56.4938 71.4504 56.6696 71.3347C56.8454 71.2189 56.9847 71.0602 57.0877 70.8587C57.1949 70.6571 57.2549 70.432 57.2678 70.1833C57.2806 69.9903 57.2549 69.8231 57.1906 69.6816C57.1262 69.5401 57.0298 69.4308 56.9011 69.3536C56.7768 69.2721 56.6245 69.2314 56.4444 69.2314C56.2258 69.2314 56.0285 69.2871 55.8527 69.3986C55.6769 69.5101 55.5354 69.6623 55.4282 69.8553C55.321 70.0482 55.2631 70.2691 55.2545 70.5178C55.2417 70.7107 55.2674 70.8823 55.3317 71.0323C55.396 71.1824 55.4904 71.3003 55.6147 71.3861C55.7434 71.4676 55.8977 71.5083 56.0778 71.5083ZM59.5502 72.0679C59.3058 72.0679 59.1064 72.0272 58.952 71.9457C58.7977 71.8642 58.6862 71.7549 58.6176 71.6177C58.549 71.4804 58.519 71.3304 58.5275 71.1674C58.5361 70.9402 58.6069 70.7429 58.7398 70.5757C58.8727 70.4084 59.055 70.2798 59.2865 70.1897C59.5224 70.0997 59.7947 70.0547 60.1034 70.0547H60.9396C60.9739 69.866 60.9739 69.7095 60.9396 69.5851C60.9095 69.4565 60.8452 69.3622 60.7466 69.3021C60.648 69.2421 60.515 69.2121 60.3478 69.2121C60.1548 69.2121 59.9812 69.2592 59.8268 69.3536C59.6724 69.4436 59.5631 69.5787 59.4988 69.7588H58.8491C58.9177 69.5315 59.0292 69.3386 59.1836 69.1799C59.3423 69.017 59.5288 68.8926 59.7432 68.8068C59.9619 68.7168 60.1934 68.6718 60.4379 68.6718C60.7337 68.6718 60.976 68.7254 61.1647 68.8326C61.3534 68.9398 61.4841 69.092 61.557 69.2893C61.6299 69.4822 61.6428 69.7138 61.5956 69.9839L61.2483 71.9907H60.6694L60.7209 71.444C60.6608 71.5298 60.5922 71.6112 60.515 71.6884C60.4379 71.7656 60.35 71.8342 60.2513 71.8942C60.1527 71.95 60.0455 71.9929 59.9297 72.0229C59.8139 72.0529 59.6874 72.0679 59.5502 72.0679ZM59.7561 71.5469C59.8933 71.5469 60.0241 71.519 60.1484 71.4633C60.2771 71.4075 60.3907 71.3325 60.4893 71.2382C60.5879 71.1395 60.6673 71.0302 60.7273 70.9101C60.7916 70.7901 60.8302 70.6636 60.8431 70.5306L60.8495 70.5113H60.0841C59.9083 70.5113 59.7539 70.5349 59.621 70.5821C59.4923 70.6293 59.3937 70.6979 59.3251 70.7879C59.2565 70.8737 59.2201 70.9766 59.2158 71.0967C59.2115 71.2382 59.2565 71.3497 59.3508 71.4311C59.4452 71.5083 59.5802 71.5469 59.7561 71.5469ZM62.1416 73.4058L63.2093 71.6948H63.0227L62.2766 68.749H62.952L63.5502 71.1739L65.0167 68.749H65.6921L62.8169 73.4058H62.1416ZM64.84 72.7561L65.4703 71.2703H66.12L65.2774 72.7561H64.84ZM68.954 71.9907L69.6165 68.2151L68.7932 68.4402L68.8897 67.9321L69.9896 67.4883H70.4077L69.6101 71.9907H68.954ZM71.0708 71.9907L71.7333 68.2151L70.91 68.4402L71.0065 67.9321L72.1064 67.4883H72.5245L71.7269 71.9907H71.0708ZM72.9689 72.0229C72.8489 72.0229 72.7481 71.9843 72.6666 71.9071C72.5894 71.8299 72.5508 71.7334 72.5508 71.6177C72.5508 71.5019 72.5894 71.4054 72.6666 71.3282C72.7481 71.2467 72.8489 71.206 72.9689 71.206C73.0933 71.206 73.1941 71.2467 73.2712 71.3282C73.3484 71.4054 73.387 71.5019 73.387 71.6177C73.387 71.7334 73.3484 71.8299 73.2712 71.9071C73.1941 71.9843 73.0933 72.0229 72.9689 72.0229ZM73.4127 69.4886C73.2927 69.4886 73.1919 69.4501 73.1104 69.3729C73.0333 69.2957 72.9947 69.1992 72.9947 69.0834C72.9947 68.9677 73.0333 68.8712 73.1104 68.794C73.1919 68.7125 73.2927 68.6718 73.4127 68.6718C73.5371 68.6718 73.6379 68.7125 73.7151 68.794C73.7922 68.8712 73.8308 68.9677 73.8308 69.0834C73.8308 69.1992 73.7922 69.2957 73.7151 69.3729C73.6379 69.4501 73.5371 69.4886 73.4127 69.4886ZM76.138 71.9907L76.3053 71.0709H74.0412L74.1248 70.5692L76.8327 67.4883H77.5724L77.0385 70.5113H77.6817L77.5852 71.0709H76.942L76.7748 71.9907H76.138ZM74.8388 70.5113H76.4339L76.8456 68.1958L74.8388 70.5113ZM79.5219 72.0679C79.196 72.0679 78.9259 72.01 78.7115 71.8942C78.4971 71.7742 78.3448 71.6069 78.2548 71.3925C78.1647 71.1781 78.139 70.9251 78.1776 70.6336H78.8208C78.8079 70.8265 78.8272 70.9895 78.8787 71.1224C78.9302 71.251 79.0138 71.3497 79.1295 71.4183C79.2496 71.4826 79.4061 71.5147 79.5991 71.5147C79.7963 71.5147 79.97 71.4762 80.1201 71.399C80.2745 71.3218 80.3945 71.2146 80.4803 71.0774C80.5703 70.9402 80.6196 70.7815 80.6282 70.6014C80.6368 70.4385 80.6025 70.3034 80.5253 70.1962C80.4481 70.0847 80.3409 70.0011 80.2037 69.9453C80.0708 69.8896 79.9164 69.8617 79.7406 69.8617H79.4061L79.4962 69.3214H79.8306C80.1265 69.3214 80.3666 69.2507 80.551 69.1092C80.7354 68.9677 80.834 68.7725 80.8469 68.5238C80.8555 68.3652 80.8062 68.2323 80.699 68.1251C80.5918 68.0178 80.4288 67.9642 80.2101 67.9642C79.97 67.9642 79.7685 68.0329 79.6055 68.1701C79.4426 68.3073 79.3354 68.481 79.2839 68.6911H78.6407C78.7007 68.4381 78.8058 68.2151 78.9559 68.0221C79.1102 67.8249 79.3011 67.6748 79.5283 67.5719C79.7556 67.4647 80.0086 67.4111 80.2873 67.4111C80.5618 67.4111 80.789 67.4561 80.9691 67.5462C81.1535 67.6362 81.2907 67.7584 81.3808 67.9128C81.4708 68.0672 81.5116 68.243 81.503 68.4402C81.4944 68.6117 81.4494 68.7747 81.3679 68.9291C81.2907 69.0834 81.1835 69.2185 81.0463 69.3343C80.9134 69.4458 80.7547 69.5251 80.5703 69.5723C80.7161 69.6023 80.8426 69.6623 80.9498 69.7524C81.057 69.8381 81.1385 69.9496 81.1942 70.0868C81.2543 70.224 81.28 70.3806 81.2714 70.5564C81.2586 70.8437 81.1749 71.101 81.0206 71.3282C80.8705 71.5555 80.6647 71.7356 80.4031 71.8685C80.1458 72.0014 79.8521 72.0679 79.5219 72.0679ZM81.6236 73.4058L82.4469 68.749H83.0322L83 69.2507C83.0901 69.1435 83.1909 69.047 83.3023 68.9612C83.4181 68.8712 83.5489 68.8004 83.6947 68.749C83.8448 68.6975 84.0099 68.6718 84.19 68.6718C84.473 68.6718 84.711 68.7382 84.9039 68.8712C85.1012 68.9998 85.2491 69.1756 85.3477 69.3986C85.4507 69.6173 85.4935 69.8681 85.4764 70.1512C85.4678 70.4213 85.4142 70.6743 85.3156 70.9101C85.217 71.1417 85.084 71.3432 84.9168 71.5147C84.7538 71.6863 84.563 71.8213 84.3443 71.92C84.1257 72.0186 83.8898 72.0679 83.6368 72.0679C83.4696 72.0679 83.3174 72.0422 83.1801 71.9907C83.0429 71.935 82.925 71.8642 82.8264 71.7785C82.732 71.6884 82.6591 71.5919 82.6077 71.489L82.2668 73.4058H81.6236ZM83.6368 71.5083C83.8555 71.5083 84.0506 71.4547 84.2221 71.3475C84.3979 71.236 84.5373 71.0838 84.6402 70.8908C84.7474 70.6936 84.8053 70.4706 84.8139 70.2219C84.8267 70.0289 84.7989 69.8574 84.7303 69.7073C84.6659 69.5573 84.5695 69.4415 84.4408 69.36C84.3165 69.2742 84.1664 69.2314 83.9906 69.2314C83.7676 69.2314 83.5682 69.2893 83.3924 69.405C83.2166 69.5165 83.0751 69.6709 82.9679 69.8681C82.8607 70.0654 82.8028 70.2884 82.7942 70.5371C82.7813 70.73 82.8071 70.9016 82.8714 71.0516C82.94 71.1974 83.0386 71.3111 83.1673 71.3925C83.3002 71.4697 83.4567 71.5083 83.6368 71.5083ZM85.9386 71.9907L86.5046 68.749H87.0771L87.0385 69.2442C87.1671 69.0684 87.3215 68.9291 87.5016 68.8261C87.686 68.7232 87.8832 68.6718 88.0933 68.6718C88.252 68.6718 88.3956 68.6954 88.5243 68.7425C88.6529 68.7897 88.7601 68.8583 88.8459 68.9484C88.9359 69.0384 89.0024 69.152 89.0453 69.2893C89.1868 69.0963 89.3604 68.9462 89.5663 68.839C89.7764 68.7275 89.9929 68.6718 90.2159 68.6718C90.4689 68.6718 90.679 68.7254 90.8463 68.8326C91.0178 68.9355 91.1378 69.092 91.2065 69.3021C91.2751 69.5079 91.2815 69.7652 91.2257 70.074L90.8913 71.9907H90.2481L90.5697 70.1383C90.6254 69.8381 90.604 69.6109 90.5054 69.4565C90.4067 69.3021 90.2459 69.2249 90.023 69.2249C89.8814 69.2249 89.7464 69.2614 89.6177 69.3343C89.4891 69.4029 89.3755 69.5079 89.2768 69.6495C89.1782 69.7867 89.1053 69.956 89.0581 70.1576L88.7301 71.9907H88.0933L88.4149 70.1383C88.4707 69.8381 88.4492 69.6109 88.3506 69.4565C88.252 69.3021 88.0912 69.2249 87.8682 69.2249C87.7224 69.2249 87.5809 69.2657 87.4437 69.3471C87.3108 69.4286 87.1928 69.5465 87.0899 69.7009C86.9913 69.8553 86.9227 70.044 86.8841 70.2669L86.5818 71.9907H85.9386ZM91.2027 72.7561L91.833 71.2703H92.4827L91.6401 72.7561H91.2027ZM94.7764 71.9907L95.3424 68.749H95.9213L95.8763 69.3343C95.9749 69.1928 96.0907 69.0749 96.2236 68.9805C96.3565 68.8819 96.5066 68.8068 96.6739 68.7554C96.8454 68.6996 97.0276 68.6718 97.2206 68.6718L97.1048 69.3536H96.8797C96.7382 69.3536 96.6052 69.3686 96.4809 69.3986C96.3565 69.4286 96.2429 69.4822 96.14 69.5594C96.0371 69.6323 95.947 69.7288 95.8698 69.8488C95.797 69.9689 95.7455 70.1211 95.7155 70.3055L95.4196 71.9907H94.7764ZM98.6234 72.0679C98.3447 72.0679 98.1024 72.0079 97.8966 71.8878C97.695 71.7677 97.5406 71.5984 97.4334 71.3797C97.3305 71.161 97.2877 70.9058 97.3048 70.6143C97.3134 70.3398 97.367 70.0868 97.4656 69.8553C97.5685 69.6194 97.7036 69.4136 97.8708 69.2378C98.0423 69.062 98.2417 68.9248 98.469 68.8261C98.6963 68.7232 98.945 68.6718 99.2151 68.6718C99.5067 68.6718 99.7511 68.7318 99.9484 68.8519C100.146 68.9719 100.289 69.1327 100.379 69.3343C100.474 69.5358 100.514 69.7609 100.502 70.0096C100.502 70.0868 100.493 70.1726 100.476 70.2669C100.463 70.3613 100.446 70.447 100.424 70.5242H97.7808L97.858 70.0675H99.8712C99.8926 69.8831 99.8733 69.7288 99.8133 69.6044C99.7576 69.4758 99.6697 69.3772 99.5496 69.3086C99.4338 69.2399 99.2945 69.2056 99.1315 69.2056C98.9557 69.2056 98.7885 69.2464 98.6298 69.3278C98.4712 69.405 98.3339 69.5208 98.2182 69.6752C98.1024 69.8253 98.0231 70.0161 97.9802 70.2476L97.948 70.4277C97.9094 70.6464 97.9159 70.8394 97.9673 71.0066C98.0188 71.1739 98.1088 71.3046 98.2375 71.399C98.3661 71.489 98.5248 71.534 98.7134 71.534C98.9193 71.534 99.0972 71.489 99.2473 71.399C99.3974 71.3046 99.5174 71.1824 99.6075 71.0323H100.251C100.156 71.2296 100.03 71.4075 99.8712 71.5662C99.7125 71.7206 99.5282 71.8428 99.318 71.9328C99.1079 72.0229 98.8764 72.0679 98.6234 72.0679ZM101.943 72.0679C101.698 72.0679 101.499 72.0272 101.345 71.9457C101.19 71.8642 101.079 71.7549 101.01 71.6177C100.942 71.4804 100.912 71.3304 100.92 71.1674C100.929 70.9402 100.999 70.7429 101.132 70.5757C101.265 70.4084 101.448 70.2798 101.679 70.1897C101.915 70.0997 102.187 70.0547 102.496 70.0547H103.332C103.366 69.866 103.366 69.7095 103.332 69.5851C103.302 69.4565 103.238 69.3622 103.139 69.3021C103.041 69.2421 102.908 69.2121 102.74 69.2121C102.547 69.2121 102.374 69.2592 102.219 69.3536C102.065 69.4436 101.956 69.5787 101.891 69.7588H101.242C101.31 69.5315 101.422 69.3386 101.576 69.1799C101.735 69.017 101.921 68.8926 102.136 68.8068C102.354 68.7168 102.586 68.6718 102.83 68.6718C103.126 68.6718 103.369 68.7254 103.557 68.8326C103.746 68.9398 103.877 69.092 103.95 69.2893C104.023 69.4822 104.035 69.7138 103.988 69.9839L103.641 71.9907H103.062L103.113 71.444C103.053 71.5298 102.985 71.6112 102.908 71.6884C102.83 71.7656 102.743 71.8342 102.644 71.8942C102.545 71.95 102.438 71.9929 102.322 72.0229C102.207 72.0529 102.08 72.0679 101.943 72.0679ZM102.149 71.5469C102.286 71.5469 102.417 71.519 102.541 71.4633C102.67 71.4075 102.783 71.3325 102.882 71.2382C102.981 71.1395 103.06 71.0302 103.12 70.9101C103.184 70.7901 103.223 70.6636 103.236 70.5306L103.242 70.5113H102.477C102.301 70.5113 102.147 70.5349 102.014 70.5821C101.885 70.6293 101.786 70.6979 101.718 70.7879C101.649 70.8737 101.613 70.9766 101.608 71.0967C101.604 71.2382 101.649 71.3497 101.743 71.4311C101.838 71.5083 101.973 71.5469 102.149 71.5469ZM104.525 71.9907L105.348 67.3596H105.991L105.168 71.9907H104.525ZM106.057 71.9907L106.881 67.3596H107.524L106.701 71.9907H106.057ZM107.719 73.4058L108.786 71.6948H108.6L107.854 68.749H108.529L109.127 71.1739L110.594 68.749H111.269L108.394 73.4058H107.719ZM112.056 70.6464L112.21 69.6302H112.435C112.641 69.6302 112.832 69.6151 113.008 69.5851C113.183 69.5551 113.338 69.5037 113.471 69.4308C113.604 69.3579 113.709 69.2571 113.786 69.1285C113.863 68.9955 113.906 68.8304 113.915 68.6332C113.923 68.4917 113.9 68.3716 113.844 68.273C113.788 68.1701 113.707 68.0907 113.599 68.035C113.492 67.9793 113.364 67.9514 113.213 67.9514C113.042 67.9514 112.888 67.9835 112.75 68.0479C112.613 68.1079 112.5 68.1958 112.409 68.3116C112.324 68.4231 112.266 68.5581 112.236 68.7168H111.631C111.674 68.4595 111.773 68.2323 111.927 68.035C112.086 67.8378 112.283 67.6855 112.519 67.5783C112.755 67.4668 113.018 67.4111 113.31 67.4111C113.567 67.4111 113.79 67.4604 113.979 67.559C114.168 67.6534 114.311 67.7884 114.41 67.9642C114.513 68.1358 114.558 68.3437 114.545 68.5882C114.528 68.9098 114.44 69.1821 114.281 69.405C114.127 69.6237 113.917 69.7888 113.651 69.9003C113.385 70.0118 113.083 70.0675 112.744 70.0675L112.615 70.6464H112.056ZM112.191 72.0229C112.071 72.0229 111.97 71.9843 111.888 71.9071C111.811 71.8299 111.773 71.7334 111.773 71.6177C111.773 71.5019 111.811 71.4054 111.888 71.3282C111.97 71.2467 112.071 71.206 112.191 71.206C112.315 71.206 112.416 71.2467 112.493 71.3282C112.57 71.4054 112.609 71.5019 112.609 71.6177C112.609 71.7334 112.57 71.8299 112.493 71.9071C112.416 71.9843 112.315 72.0229 112.191 72.0229ZM115.994 69.6752L116.258 68.7168L115.389 69.2828L115.216 68.8326L116.148 68.4595L115.351 68.0993L115.659 67.6684L116.348 68.228L116.418 67.2696H116.914L116.637 68.228L117.512 67.6684L117.673 68.0929L116.734 68.466L117.544 68.839L117.229 69.2764L116.547 68.7168L116.483 69.6752H115.994Z" fill="#717171"/>
</g>
<defs>
<filter id="filter0_d_1220_20167" x="0" y="0" width="307" height="156" filterUnits="userSpaceOnUse" color-interpolation-filters="sRGB">
<feFlood flood-opacity="0" result="BackgroundImageFix"/>
<feColorMatrix in="SourceAlpha" type="matrix" values="0 0 0 0 0 0 0 0 0 0 0 0 0 0 0 0 0 0 127 0" result="hardAlpha"/>
<feOffset dx="20" dy="20"/>
<feGaussianBlur stdDeviation="22.25"/>
<feComposite in2="hardAlpha" operator="out"/>
<feColorMatrix type="matrix" values="0 0 0 0 0 0 0 0 0 0 0 0 0 0 0 0 0 0 0.08 0"/>
<feBlend mode="normal" in2="BackgroundImageFix" result="effect1_dropShadow_1220_20167"/>
<feBlend mode="normal" in="SourceGraphic" in2="effect1_dropShadow_1220_20167" result="shape"/>
</filter>
</defs>
</svg>
