<svg width="179" height="152" viewBox="0 0 179 152" fill="none" xmlns="http://www.w3.org/2000/svg">
<path d="M30.1785 67.1793C31.3592 65.7406 33.483 65.5318 34.9217 66.7125C36.3602 67.8931 36.5698 70.016 35.3895 71.4547C29.8248 78.2356 22.3647 88.8369 17.3074 99.36C40.0887 93.2118 55.5295 121.086 35.157 132.965C31.7268 134.028 28.4581 134.375 25.4354 134.154C31.7507 137.215 39.0648 139.169 45.9188 139.48C46.1535 139.491 46.3874 139.496 46.6199 139.503C43.4134 135.912 42.9361 130.282 47.7977 127.094C54.8603 124.88 60.8221 131.231 60.4051 136.824C64.0112 134.88 66.5346 131.85 67.4471 127.341C67.8807 125.199 68.1011 123.197 68.1766 121.354C67.8822 121.546 67.5759 121.734 67.2557 121.914C50.8416 126.431 39.6361 106.427 53.657 97.693C61.1533 95.4094 67.6686 98.6984 71.1053 103.686C71.2545 103.855 71.3892 104.041 71.5057 104.245L71.4812 104.257C71.4819 104.258 71.4826 104.259 71.4832 104.26C71.5039 104.249 71.5071 104.248 71.5076 104.248L71.5125 104.257C71.515 104.262 71.5182 104.267 71.5213 104.272C71.5276 104.283 71.5352 104.298 71.5437 104.313C71.561 104.344 71.5835 104.384 71.6092 104.432C71.6431 104.496 71.6824 104.575 71.7293 104.668C72.5408 106.057 73.1211 107.549 73.4314 109.072C73.6188 109.703 73.8036 110.392 73.9754 111.136C74.9528 115.372 75.5296 121.385 74.0535 128.678C72.7071 135.331 68.7945 139.984 63.5223 142.8C58.3649 145.555 52.0268 146.505 45.6121 146.213C32.8533 145.634 18.5351 140.08 9.92656 131.603C5.80379 127.543 4.65857 122.026 5.08281 116.401C5.50514 110.802 7.49553 104.683 10.1678 98.732C15.5235 86.8055 24.007 74.6997 30.1785 67.1793Z" fill="#1A1A1A"/>
<path d="M74.2791 27.4C81.5692 26.8182 87.2267 28.2564 91.8768 30.691C96.4352 33.0778 99.8945 36.3652 102.783 39.1236C105.823 42.0272 108.053 44.1394 110.544 45.2437C112.722 46.2095 115.347 46.4883 119.371 44.7789C130.439 40.0767 140.374 37.4625 148.395 36.7799C150.293 34.501 153.022 32.732 156.28 31.9156C163.682 30.0607 171.003 33.8256 172.632 40.3248C173.417 43.4582 172.732 46.653 170.986 49.3316C172.611 54.667 174.015 62.3272 173.104 70.2418C172.438 76.0247 170.522 82.0601 166.438 87.3961C162.338 92.7535 156.211 97.199 147.475 100.023C133.585 104.514 125.246 105.745 115.959 106.707C120.359 113.598 124.695 120.218 127.984 125.194C129.711 127.806 131.148 129.964 132.153 131.467C132.656 132.219 133.051 132.808 133.319 133.208C133.453 133.407 133.556 133.561 133.625 133.664C133.659 133.715 133.687 133.753 133.704 133.779C133.712 133.791 133.718 133.802 133.722 133.808C133.724 133.811 133.726 133.813 133.727 133.815L133.728 133.817L130.935 135.702C128.302 137.477 128.149 137.578 128.14 137.584L128.138 137.583C128.137 137.581 128.135 137.577 128.133 137.574C128.128 137.567 128.122 137.557 128.113 137.544C128.095 137.517 128.068 137.477 128.033 137.425C127.963 137.321 127.859 137.166 127.723 136.964C127.452 136.561 127.056 135.968 126.551 135.212C125.54 133.701 124.096 131.534 122.362 128.911C118.895 123.667 114.264 116.594 109.612 109.289C104.965 101.991 100.276 94.4276 96.7049 88.2135C94.922 85.1113 93.3914 82.3004 92.2791 80.0045C91.7238 78.8583 91.2503 77.7949 90.8992 76.8619C90.5738 75.9972 90.2539 74.9912 90.1785 74.0435C89.425 64.5695 88.9322 59.1672 87.5535 51.5924C87.1385 49.3121 86.3784 48.2267 85.7898 47.691C85.2011 47.1552 84.4694 46.883 83.5848 46.8062C82.9954 46.7551 82.3893 46.7979 81.8221 46.8883L81.8709 50.942C81.893 52.8029 80.4017 54.3289 78.5408 54.3512C76.6802 54.373 75.1541 52.8836 75.1316 51.023L75.075 46.36C74.8333 46.2346 74.5725 46.1012 74.2977 45.9674C72.8209 45.2483 71.2711 44.6367 70.1853 44.4684C68.2254 44.1645 66.7782 44.1609 65.4754 44.398C65.1707 44.4535 64.863 44.5248 64.5486 44.6129C65.0697 45.3833 65.5404 46.0911 65.9402 46.7076C66.4137 47.4378 66.7947 48.0415 67.0584 48.4644C67.1901 48.6757 67.2924 48.8434 67.3631 48.9586C67.3983 49.0161 67.4262 49.0613 67.4451 49.0924C67.4544 49.1076 67.4614 49.12 67.4666 49.1285C67.469 49.1325 67.4719 49.1358 67.4734 49.1383L67.4764 49.1432C68.4384 50.7361 67.9266 52.8078 66.3338 53.7701C64.7906 54.702 62.7984 54.2513 61.8006 52.774L61.7068 52.6285L61.7029 52.6217C61.6995 52.6161 61.6936 52.6073 61.6863 52.5953C61.6713 52.5706 61.649 52.5317 61.618 52.481C61.5556 52.3793 61.461 52.2271 61.3387 52.0309C61.0935 51.6376 60.7349 51.0678 60.2859 50.3756C59.9025 49.7843 59.4518 49.1071 58.9549 48.3727C57.6019 49.947 57.146 51.0959 57.0809 52.0084C56.9841 53.3668 57.6675 55.3685 60.7059 58.8619C62.2637 60.6531 63.6288 62.2917 64.8328 63.8238C70.0389 70.4488 75.0348 74.4253 78.7107 83.2545C80.0871 86.5603 85.284 100.734 90.0877 113.94C92.5008 120.574 94.8305 127.007 96.5564 131.781C97.4194 134.168 98.1303 136.141 98.6268 137.517C98.8749 138.205 99.0697 138.743 99.202 139.11C99.268 139.293 99.3192 139.434 99.3533 139.529C99.3703 139.576 99.3828 139.612 99.3914 139.636C99.3956 139.648 99.399 139.657 99.4012 139.663C99.4023 139.666 99.4035 139.669 99.4041 139.671L99.4051 139.671C100.036 141.422 99.1277 143.354 97.3768 143.985C95.6259 144.616 93.6943 143.708 93.0633 141.958V141.955C93.0628 141.953 93.0622 141.951 93.0613 141.949C93.0592 141.943 93.0549 141.932 93.0506 141.921C93.042 141.897 93.0293 141.861 93.0125 141.814C92.9785 141.72 92.9289 141.58 92.8631 141.397C92.731 141.031 92.5359 140.492 92.2879 139.804C91.7918 138.43 91.08 136.458 90.2176 134.073C88.4926 129.301 86.1648 122.873 83.7537 116.245C78.909 102.926 73.7875 88.9664 72.4881 85.8453C69.2804 78.1409 65.6849 75.8166 59.533 67.9879C58.4149 66.5651 57.1245 65.0156 55.6199 63.2857C52.3663 59.5449 50.0595 55.7379 50.3592 51.5299C50.6589 47.3221 53.4816 43.8812 57.2322 40.6393L57.4871 40.4195L57.7801 40.2545C59.9467 39.0316 62.017 38.177 64.2684 37.7672C66.52 37.3574 68.7597 37.427 71.2186 37.8082C73.361 38.1404 75.6718 39.1403 77.2478 39.9078C77.8105 40.1818 78.3205 40.4506 78.7508 40.6822C78.9046 40.6377 79.0677 40.5923 79.2381 40.5484C80.4624 40.2331 82.2309 39.9233 84.1678 40.0914C86.1381 40.2625 88.3898 40.9435 90.327 42.7066C92.2642 44.47 93.5738 47.0308 94.1844 50.3853C95.6276 58.3149 96.1401 64.0023 96.8963 73.5094C96.8935 73.4746 96.9303 73.7513 97.2078 74.4889C97.4598 75.1583 97.8368 76.0191 98.3436 77.065C99.3557 79.1542 100.798 81.809 102.548 84.8541C105.192 89.4556 108.483 94.8482 111.933 100.349C112.023 100.333 112.114 100.32 112.206 100.311C122.572 99.2958 130.624 98.3875 145.402 93.61C152.996 91.1549 157.916 87.4426 161.086 83.3004C164.272 79.1369 165.849 74.3312 166.409 69.4713C167.041 63.9782 166.354 58.5655 165.345 54.2848C164.36 54.7741 163.3 55.1695 162.178 55.4508C154.776 57.3054 147.456 53.5406 145.827 47.0416C145.565 45.9959 145.467 44.9431 145.516 43.9049C138.979 44.8833 131 47.1601 122.007 50.981C116.494 53.3232 111.911 53.2228 107.812 51.4059C104.026 49.7274 100.908 46.6537 98.1277 43.9986C95.1954 41.1983 92.3606 38.5529 88.7508 36.6627C85.2323 34.8205 80.8455 33.6367 74.8162 34.1178C61.9588 35.1439 53.3791 38.7625 48.1961 43.3619C43.0903 47.8929 41.0594 53.5541 41.5145 59.4C41.6587 61.2554 40.2713 62.8767 38.4158 63.0211C36.5605 63.1652 34.9402 61.7778 34.7957 59.9225C34.1785 51.9918 37.024 44.2652 43.7225 38.3209C50.3437 32.4451 60.4967 28.5 74.2791 27.4Z" fill="#1A1A1A"/>
<path d="M133.729 133.818C134.769 135.361 134.361 137.455 132.818 138.496C131.275 139.536 129.181 139.127 128.14 137.584L130.935 135.702L133.729 133.818Z" fill="#1A1A1A"/>
<path d="M36.5984 88.5367C43.5138 86.3686 48.9369 95.8301 42.9236 99.3668C35.9195 101.345 30.7066 92.4 36.5984 88.5367Z" fill="#1A1A1A"/>
<path d="M153.692 69.6236C155.543 69.4253 157.204 70.7653 157.402 72.6158C157.6 74.4659 156.261 76.1262 154.411 76.3248C151.477 76.6394 149.689 77.3349 148.59 78.0484C147.537 78.7318 146.961 79.5306 146.596 80.3883C146.202 81.3118 146.02 82.3776 145.912 83.6246C145.853 84.309 145.832 84.7884 145.778 85.5133C145.732 86.1279 145.663 86.8735 145.506 87.5855C145.103 89.4022 143.304 90.5493 141.487 90.1471C139.67 89.7444 138.524 87.9445 138.927 86.1275C138.973 85.92 139.013 85.5855 139.056 85.0103C139.091 84.5452 139.138 83.7224 139.197 83.0435C139.325 81.5639 139.581 79.654 140.396 77.7437C141.239 75.7677 142.645 73.8732 144.92 72.3961C147.148 70.9492 150.035 70.0157 153.692 69.6236Z" fill="#1A1A1A"/>
<path d="M55.199 9.0416C55.3741 7.18886 57.0182 5.82863 58.8709 6.00351C60.7237 6.17867 62.084 7.82258 61.909 9.67539C61.3925 15.1408 59.8378 19.8728 57.0584 23.5846C54.2458 27.3405 50.3434 29.829 45.5711 31.025C43.7658 31.4774 41.9346 30.3801 41.4822 28.5748C41.0302 26.7697 42.1274 24.9404 43.9324 24.4879C47.3319 23.636 49.8552 21.9584 51.6629 19.5445C53.5037 17.0862 54.7641 13.6427 55.199 9.0416Z" fill="#1A1A1A"/>
<path d="M80.3641 5.57578C81.9073 4.53592 84.0006 4.9439 85.0408 6.48691C85.7265 7.50386 88.611 10.3587 93.1941 10.8893C95.0429 11.1033 96.3691 12.7758 96.1551 14.6246C95.941 16.4734 94.2675 17.7986 92.4187 17.5846C85.5401 16.7882 81.0314 12.5942 79.4529 10.2525C78.4131 8.70929 78.8209 6.61593 80.3641 5.57578Z" fill="#1A1A1A"/>
<path fill-rule="evenodd" clip-rule="evenodd" d="M50.2717 8.14416C50.9108 3.76258 54.8821 0.605192 59.3401 1.02599C63.7975 1.44755 67.1082 5.29221 66.9153 9.71642L66.886 10.1461C66.4106 15.1763 65.1221 19.9227 62.7395 24.0348C66.2118 23.2749 69.9284 22.732 73.8801 22.4166C82.1051 21.7602 88.7058 23.3871 94.1955 26.2613C99.4562 29.0158 103.377 32.7784 106.236 35.5084C109.483 38.6095 111.044 39.9972 112.57 40.6735L112.766 40.7555C113.221 40.9348 113.657 41.0238 114.184 41.0153C114.829 41.0047 115.85 40.8422 117.415 40.1774C127.986 35.6864 137.747 32.9576 146.037 31.9938C148.464 29.6801 151.557 27.945 155.064 27.066C164.532 24.6932 175.037 29.3587 177.481 39.11C178.43 42.9007 177.898 46.6721 176.356 49.9449C177.844 55.5557 178.968 63.0195 178.071 70.8141C177.326 77.2811 175.158 84.2291 170.408 90.4352C165.618 96.6944 158.594 101.683 149.013 104.781C138.741 108.102 131.361 109.699 124.477 110.704C127.306 115.072 129.962 119.121 132.155 122.437C133.876 125.041 135.308 127.192 136.309 128.689C136.808 129.437 137.202 130.022 137.47 130.421C137.562 130.557 137.626 130.653 137.678 130.731L137.85 130.986C137.858 130.999 137.867 131.012 137.875 131.024L138.049 131.279L138.089 131.359C138.333 131.759 138.506 132.095 138.706 132.596C139.22 133.882 139.294 136.091 139.294 136.091C139.173 138.642 137.892 141.106 135.613 142.642C127.723 146.764 122.362 140.603 114.057 142.264C105.752 143.925 103.42 147.122 99.0715 148.689C94.758 150.243 90.0013 148.037 88.3967 143.752L88.3948 143.747C88.3918 143.739 88.3852 143.721 88.3772 143.7C88.3717 143.685 88.3651 143.667 88.3577 143.647C88.3623 143.66 88.3658 143.672 88.3694 143.681C88.366 143.672 88.362 143.662 88.3586 143.653L88.0627 142.832V142.828C87.9391 142.485 87.7805 142.046 87.5842 141.502C87.0884 140.128 86.3769 138.157 85.5149 135.773C84.0048 131.596 82.0307 126.15 79.9455 120.412C79.9175 123.029 79.6689 125.874 79.0998 128.917L78.9534 129.671C77.2883 137.897 72.3607 143.747 65.8772 147.211C59.6776 150.522 52.3643 151.525 45.385 151.209C31.602 150.583 16.0436 144.645 6.41722 135.166C0.875609 129.708 -0.392459 122.501 0.0959323 116.025C0.580062 109.608 2.82115 102.885 5.6057 96.6842C11.2019 84.222 19.9702 71.7363 26.3127 64.0074L26.594 63.6813C27.5479 62.632 28.7154 61.8783 29.9748 61.4313C29.8965 61.0668 29.8396 60.693 29.8098 60.3111C29.0789 50.9198 32.4621 41.7433 40.1916 34.7731C38.4798 33.6614 37.1664 31.9264 36.6311 29.7906C35.5079 25.3052 38.2353 20.7616 42.716 19.6383L43.1526 19.5211C45.2815 18.9066 46.6626 17.8785 47.6594 16.5475C48.8045 15.0183 49.8467 12.5304 50.2209 8.57189L50.2717 8.14416ZM34.9217 66.7125C33.483 65.5318 31.3592 65.7406 30.1785 67.1793C24.007 74.6997 15.5235 86.8055 10.1678 98.732L9.67406 99.8502C7.25214 105.446 5.47879 111.152 5.08281 116.401L5.0471 116.928C4.73253 122.37 5.93274 127.67 9.92656 131.603C18.5351 140.08 32.8533 145.634 45.6121 146.213C51.8263 146.496 57.9678 145.613 63.0344 143.053L63.5223 142.8C68.6295 140.072 72.4606 135.62 73.9192 129.297L74.0535 128.678C75.4372 121.841 75.0158 116.129 74.1526 111.952L73.9754 111.136C73.8036 110.392 73.6188 109.703 73.4314 109.072C73.1211 107.549 72.5408 106.057 71.7293 104.668C71.6824 104.575 71.6431 104.496 71.6092 104.432C71.5835 104.384 71.561 104.344 71.5437 104.313C71.5352 104.298 71.5276 104.283 71.5213 104.272C71.5182 104.267 71.515 104.262 71.5125 104.257L71.5076 104.248C71.5071 104.248 71.5039 104.249 71.4832 104.26L71.4812 104.257L71.5057 104.245C71.3892 104.041 71.2545 103.855 71.1053 103.686C67.6686 98.6984 61.1533 95.4094 53.657 97.693L53.3323 97.9C39.811 106.738 50.9699 126.396 67.2557 121.914C67.5759 121.734 67.8822 121.546 68.1766 121.354C68.1011 123.197 67.8807 125.199 67.4471 127.341L67.3557 127.76C66.3746 132.038 63.8982 134.941 60.4051 136.824C60.8221 131.231 54.8603 124.88 47.7977 127.094C42.9361 130.282 43.4134 135.912 46.6199 139.503C46.3874 139.496 46.1535 139.491 45.9188 139.48C39.0648 139.169 31.7507 137.215 25.4354 134.154C28.4581 134.375 31.7268 134.028 35.157 132.965C55.5295 121.086 40.0887 93.2118 17.3074 99.36C22.0486 89.4947 28.9013 79.5606 34.3244 72.7701L35.3895 71.4547C36.5698 70.016 36.3602 67.8931 34.9217 66.7125ZM91.8768 30.691C87.2267 28.2564 81.5692 26.8182 74.2791 27.4L72.9973 27.5113C59.8652 28.7483 50.1369 32.6288 43.7225 38.3209L43.1047 38.8834C36.8487 44.7483 34.1979 52.2398 34.7957 59.9225C34.9402 61.7778 36.5605 63.1652 38.4158 63.0211C40.2713 62.8767 41.6587 61.2554 41.5145 59.4C41.0594 53.5541 43.0903 47.8929 48.1961 43.3619C53.3791 38.7625 61.9588 35.1439 74.8162 34.1178C80.8455 33.6367 85.2323 34.8205 88.7508 36.6627C92.3606 38.5529 95.1954 41.1983 98.1277 43.9986C100.908 46.6537 104.026 49.7274 107.812 51.4059C111.783 53.166 116.207 53.3156 121.491 51.194L122.007 50.981C131 47.1601 138.979 44.8833 145.516 43.9049C145.467 44.9431 145.565 45.9959 145.827 47.0416C147.456 53.5406 154.776 57.3054 162.178 55.4508C163.3 55.1695 164.36 54.7741 165.345 54.2848C166.354 58.5655 167.041 63.9782 166.409 69.4713L166.291 70.3824C165.645 74.9298 164.073 79.3974 161.086 83.3004L160.782 83.6881C157.605 87.6739 152.758 91.2317 145.402 93.61C130.624 98.3875 122.572 99.2958 112.206 100.311C112.114 100.32 112.023 100.333 111.933 100.349L110.647 98.2936C108.095 94.1961 105.666 90.2073 103.568 86.6158L102.548 84.8541C101.077 82.2949 100.52 81.1674 99.5566 79.2637C98.3709 76.9203 97.7348 75.2551 96.8957 72.5094C96.0566 69.7637 95.6918 59.0407 94.4436 51.8473L94.1844 50.3853C93.5738 47.0308 92.2642 44.47 90.327 42.7066C88.3898 40.9435 86.1381 40.2625 84.1678 40.0914C82.2309 39.9233 80.4624 40.2331 79.2381 40.5484L78.7508 40.6822L78.0481 40.3111L77.2478 39.9078C75.6718 39.1403 73.361 38.1404 71.2186 37.8082C68.7597 37.427 66.52 37.3574 64.2684 37.7672C62.017 38.177 59.9467 39.0316 57.7801 40.2545L57.4871 40.4195L57.2322 40.6393C53.4816 43.8812 50.6589 47.3221 50.3592 51.5299L50.3381 51.9235C50.2041 55.9759 52.4681 59.6618 55.6199 63.2857C57.1245 65.0156 58.4149 66.5651 59.533 67.9879C65.6849 75.8166 69.2804 78.1409 72.4881 85.8453C73.7875 88.9664 78.909 102.926 83.7537 116.245C86.1648 122.873 88.4926 129.301 90.2176 134.073C91.08 136.458 91.7918 138.43 92.2879 139.804C92.5359 140.492 92.731 141.031 92.8631 141.397C92.9289 141.58 92.9785 141.72 93.0125 141.814C93.0293 141.861 93.042 141.897 93.0506 141.921C93.0549 141.932 93.0592 141.943 93.0613 141.949L93.0633 141.955V141.958C93.6746 143.653 95.5056 144.558 97.2112 144.04L97.3768 143.985C99.0727 143.374 99.9776 141.542 99.4592 139.837L99.4051 139.671L99.4041 139.671C99.4041 139.671 99.4022 139.666 99.4012 139.663L99.3914 139.636L99.3533 139.529L96.5564 131.781C95.6935 129.394 94.6791 126.592 93.5793 123.558L90.0877 113.94C85.5845 101.56 80.7348 88.3297 79.0119 83.9996L78.7107 83.2545C75.1497 74.7016 70.349 70.7025 65.3196 64.4381L64.8328 63.8238C63.9299 62.6748 62.9357 61.4656 61.8381 60.1774L60.7059 58.8619C57.6675 55.3685 56.9841 53.3668 57.0809 52.0084C57.146 51.0959 57.6019 49.947 58.9549 48.3727C59.4518 49.1071 59.9025 49.7843 60.2859 50.3756C60.7349 51.0678 61.0935 51.6376 61.3387 52.0309C61.461 52.2271 61.5556 52.3793 61.618 52.481C61.649 52.5317 61.6713 52.5706 61.6863 52.5953C61.6936 52.6073 61.6995 52.6161 61.7029 52.6217L61.7068 52.6285L61.8006 52.774C62.7671 54.2048 64.6661 54.6731 66.1868 53.8541L66.3338 53.7701C67.9266 52.8078 68.4384 50.7361 67.4764 49.1432L67.4734 49.1383C67.4719 49.1358 67.469 49.1325 67.4666 49.1285C67.4614 49.12 67.4544 49.1076 67.4451 49.0924C67.4262 49.0613 67.3983 49.0161 67.3631 48.9586C67.2924 48.8434 67.1901 48.6757 67.0584 48.4644C66.7947 48.0415 66.4137 47.4378 65.9402 46.7076C65.5404 46.0911 65.0697 45.3833 64.5486 44.6129C64.863 44.5248 65.1707 44.4535 65.4754 44.398C66.7782 44.1609 68.2254 44.1645 70.1853 44.4684C71.2711 44.6367 72.8209 45.2483 74.2977 45.9674C74.5725 46.1012 74.8333 46.2346 75.075 46.36L75.1316 51.023C75.1535 52.8253 76.5855 54.2799 78.3664 54.3492L78.5408 54.3512C80.3434 54.3295 81.7981 52.897 81.8674 51.1158L81.8709 50.942L81.8221 46.8883C82.3893 46.7979 82.9954 46.7551 83.5848 46.8062C84.4694 46.883 85.2011 47.1552 85.7898 47.691C86.3784 48.2267 87.1385 49.3121 87.5535 51.5924C88.9322 59.1672 89.425 64.5695 90.1785 74.0435C90.2539 74.9912 90.5738 75.9972 90.8992 76.8619C91.2503 77.7949 91.7238 78.8583 92.2791 80.0045C93.3914 82.3004 94.922 85.1113 96.7049 88.2135C100.276 94.4276 104.965 101.991 109.612 109.289C114.264 116.594 118.895 123.667 122.362 128.911C124.096 131.534 125.54 133.701 126.551 135.212C127.056 135.968 127.452 136.561 127.723 136.964C127.859 137.166 127.963 137.321 128.033 137.425C128.068 137.477 128.095 137.517 128.113 137.544C128.122 137.557 128.128 137.567 128.133 137.574C128.135 137.577 128.137 137.581 128.138 137.583L128.14 137.584C129.181 139.127 131.275 139.536 132.818 138.496C134.361 137.455 134.769 135.361 133.729 133.818L130.935 135.702L133.728 133.817L133.727 133.815C133.727 133.815 133.724 133.811 133.722 133.808C133.718 133.802 133.712 133.791 133.704 133.779C133.687 133.753 133.659 133.715 133.625 133.664C133.556 133.561 133.453 133.407 133.319 133.208C133.051 132.808 132.656 132.219 132.153 131.467C131.651 130.716 131.039 129.801 130.338 128.747L127.984 125.194C124.695 120.218 120.359 113.598 115.959 106.707C124.955 105.775 133.062 104.591 146.189 100.435L147.475 100.023C155.937 97.2873 161.952 93.03 166.047 87.8961L166.438 87.3961C170.266 82.3936 172.19 76.7763 172.964 71.3287L173.104 70.2418C174.015 62.3272 172.611 54.667 170.986 49.3316C172.677 46.7368 173.372 43.6573 172.7 40.6188L172.632 40.3248C171.003 33.8256 163.682 30.0607 156.28 31.9156L155.675 32.0797C152.684 32.955 150.174 34.6435 148.395 36.7799C140.374 37.4625 130.439 40.0767 119.371 44.7789L118.997 44.9342C115.43 46.3718 112.985 46.2093 110.957 45.4166L110.544 45.2437C108.364 44.2775 106.384 42.5398 103.887 40.1754L102.783 39.1236C100.075 36.5376 96.8646 33.4869 92.718 31.149L91.8768 30.691ZM42.9236 99.3668C48.9369 95.8301 43.5138 86.3686 36.5984 88.5367L36.3293 88.7223C30.9564 92.6151 35.8673 101.041 42.5959 99.4518L42.9236 99.3668ZM157.402 72.6158C157.204 70.7653 155.543 69.4253 153.692 69.6236C150.035 70.0157 147.148 70.9492 144.92 72.3961L144.502 72.6783C142.471 74.1106 141.187 75.8915 140.396 77.7437L140.249 78.1022C139.549 79.8912 139.317 81.6564 139.197 83.0435L139.117 84.107C139.094 84.4556 139.074 84.7778 139.056 85.0103C139.013 85.5855 138.973 85.92 138.927 86.1275C138.524 87.9445 139.67 89.7444 141.487 90.1471C143.247 90.5366 144.99 89.4727 145.463 87.7545L145.506 87.5855C145.624 87.0518 145.691 86.4989 145.738 85.9967L145.778 85.5133C145.805 85.1512 145.823 84.8501 145.842 84.5543L145.912 83.6246C146.02 82.3776 146.202 81.3118 146.596 80.3883C146.961 79.5306 147.537 78.7318 148.59 78.0484C149.62 77.3795 151.255 76.7265 153.873 76.3883L154.411 76.3248C156.203 76.1323 157.515 74.5683 157.415 72.7887L157.402 72.6158ZM58.8709 6.00351C57.0182 5.82863 55.3741 7.18886 55.199 9.0416C54.7641 13.6427 53.5037 17.0862 51.6629 19.5445L51.3147 19.9889C49.5356 22.1651 47.1192 23.6892 43.9324 24.4879C42.1274 24.9404 41.0302 26.7697 41.4822 28.5748C41.9346 30.3801 43.7658 31.4774 45.5711 31.025C50.1942 29.8664 54.0008 27.495 56.7912 23.9332L57.0584 23.5846C59.6639 20.105 61.1925 15.7285 61.7991 10.692L61.909 9.67539C62.084 7.82258 60.7237 6.17867 58.8709 6.00351Z" fill="#FAFAF8"/>
<path d="M88.3703 143.683C88.3743 143.694 88.3783 143.703 88.3811 143.711L88.3899 143.734L88.3703 143.683Z" fill="#FAFAF8"/>
<path fill-rule="evenodd" clip-rule="evenodd" d="M77.5696 1.42931C81.403 -1.15351 86.6027 -0.139295 89.1858 3.69201L89.1741 3.67248C89.1998 3.6929 89.5911 4.16003 90.4016 4.69299C91.2528 5.25261 92.3879 5.76262 93.7688 5.92248C98.3587 6.45411 101.653 10.6065 101.121 15.1998C100.606 19.6502 96.6887 22.8763 92.2717 22.5904L91.843 22.5514C83.2579 21.5574 77.5444 16.3683 75.3059 13.0475C72.7232 9.21429 73.7364 4.01358 77.5686 1.43029L77.5696 1.42931ZM85.0408 6.48691C84.0006 4.9439 81.9073 4.53592 80.3641 5.57578C78.8209 6.61593 78.4131 8.70929 79.4529 10.2525C81.0314 12.5942 85.5401 16.7882 92.4187 17.5846C94.2097 17.7918 95.8356 16.5548 96.1301 14.7965L96.1551 14.6246C96.3622 12.8339 95.1236 11.2083 93.3655 10.9137L93.1941 10.8893C88.8981 10.3919 86.0937 7.85262 85.1946 6.69885L85.0408 6.48691Z" fill="#FAFAF8"/>
</svg>
