<svg width="180" height="145" viewBox="0 0 180 145" fill="none" xmlns="http://www.w3.org/2000/svg">
<path d="M49.9913 119.752C41.6255 125.191 48.9594 137.888 58.8899 135.124C67.4255 130.149 59.7969 116.719 49.9913 119.752Z" fill="#1A1A1A"/>
<path d="M38.9352 81.1505C33.0282 84.9909 38.2066 93.9561 45.2185 92.005C51.2454 88.4917 45.8589 79.0091 38.9352 81.1505Z" fill="#1A1A1A"/>
<path d="M55.9597 90.3724C41.9045 99.0518 53.0327 119.1 69.4644 114.646C83.7656 106.699 72.2054 85.4923 55.9597 90.3724Z" fill="#1A1A1A"/>
<path d="M17.9496 92.3964C-2.60968 105.492 13.3554 132.896 37.3248 125.573C58.2337 113.49 41.6534 84.4889 17.9496 92.3964Z" fill="#1A1A1A"/>
<mask id="path-5-inside-1_1221_21413" fill="white">
<ellipse cx="53.2023" cy="44.9835" rx="6.40284" ry="9.43576" transform="rotate(-20.4495 53.2023 44.9835)"/>
</mask>
<ellipse cx="53.2023" cy="44.9835" rx="6.40284" ry="9.43576" transform="rotate(-20.4495 53.2023 44.9835)" fill="#1A1A1A"/>
<path d="M59.2016 42.7465L52.8865 45.1012C53.3883 46.447 53.3568 47.5268 53.2278 48.0559C53.0882 48.6281 53.0845 47.9047 54.1442 47.5095L56.499 53.8246L58.8537 60.1397C63.2267 58.5091 65.4848 54.688 66.3233 51.2507C67.1724 47.7702 66.8356 43.9287 65.5167 40.3917L59.2016 42.7465ZM56.499 53.8246L54.1442 47.5095C55.2038 47.1144 55.6747 47.6636 55.1946 47.3225C54.7507 47.0071 54.0199 46.2116 53.518 44.8657L47.2029 47.2205L40.8878 49.5753C42.2067 53.1123 44.4673 56.2365 47.3878 58.3114C50.2722 60.3605 54.4807 61.7703 58.8537 60.1397L56.499 53.8246ZM47.2029 47.2205L53.518 44.8657C53.0162 43.5199 53.0477 42.4401 53.1768 41.9111C53.3164 41.3389 53.32 42.0623 52.2604 42.4575L49.9056 36.1424L47.5508 29.8273C43.1778 31.4579 40.9198 35.279 40.0812 38.7163C39.2321 42.1967 39.569 46.0383 40.8878 49.5753L47.2029 47.2205ZM49.9056 36.1424L52.2604 42.4575C51.2007 42.8526 50.7298 42.3034 51.21 42.6445C51.6539 42.9599 52.3847 43.7554 52.8865 45.1012L59.2016 42.7465L65.5167 40.3917C64.1978 36.8547 61.9373 33.7304 59.0167 31.6556C56.1324 29.6065 51.9238 28.1967 47.5508 29.8273L49.9056 36.1424Z" fill="#1A1A1A" mask="url(#path-5-inside-1_1221_21413)"/>
<mask id="path-7-inside-2_1221_21413" fill="white">
<ellipse cx="72.5148" cy="38.836" rx="6.40284" ry="9.43576" transform="rotate(-20.4495 72.5148 38.836)"/>
</mask>
<ellipse cx="72.5148" cy="38.836" rx="6.40284" ry="9.43576" transform="rotate(-20.4495 72.5148 38.836)" fill="#1A1A1A"/>
<path d="M78.5141 36.599L72.199 38.9538C72.7008 40.2996 72.6693 41.3794 72.5403 41.9084C72.4007 42.4806 72.397 41.7572 73.4567 41.3621L75.8115 47.6772L78.1662 53.9922C82.5392 52.3616 84.7973 48.5405 85.6358 45.1032C86.4849 41.6228 86.1481 37.7812 84.8292 34.2442L78.5141 36.599ZM75.8115 47.6772L73.4567 41.3621C74.5163 40.9669 74.9872 41.5161 74.5071 41.175C74.0632 40.8596 73.3324 40.0641 72.8305 38.7183L66.5154 41.0731L60.2003 43.4278C61.5192 46.9648 63.7798 50.0891 66.7003 52.1639C69.5847 54.213 73.7932 55.6229 78.1662 53.9922L75.8115 47.6772ZM66.5154 41.0731L72.8305 38.7183C72.3287 37.3725 72.3602 36.2927 72.4893 35.7636C72.6289 35.1914 72.6325 35.9149 71.5729 36.31L69.2181 29.9949L66.8633 23.6798C62.4903 25.3104 60.2323 29.1315 59.3937 32.5688C58.5446 36.0493 58.8815 39.8908 60.2003 43.4278L66.5154 41.0731ZM69.2181 29.9949L71.5729 36.31C70.5132 36.7051 70.0423 36.1559 70.5225 36.497C70.9664 36.8124 71.6972 37.608 72.199 38.9538L78.5141 36.599L84.8292 34.2442C83.5103 30.7072 81.2498 27.583 78.3292 25.5081C75.4449 23.459 71.2363 22.0492 66.8633 23.6798L69.2181 29.9949Z" fill="#1A1A1A" mask="url(#path-7-inside-2_1221_21413)"/>
<path d="M162.577 66.4596C160.248 69.4214 139.054 76.5796 130.173 70.1221" stroke="#1A1A1A" stroke-width="6.73983" stroke-linecap="round"/>
<path d="M34.4696 15.5877C26.2896 17.6039 21.5864 23.8687 20.596 33.9317" stroke="#1A1A1A" stroke-width="6.73983" stroke-linecap="round"/>
<path d="M52.8828 25.5176C53.0968 23.5039 54.7133 18.659 59.4671 15.3896" stroke="#1A1A1A" stroke-width="6.73983" stroke-linecap="round"/>
<path d="M35.1999 61.916C23.0301 76.6291 1.84755 109.188 14.4756 121.721C30.2606 137.386 68.3247 143.109 72.9389 120.755C75.7277 107.245 70.8551 98.6569 70.8551 98.6569" stroke="#1A1A1A" stroke-width="6.73983" stroke-linecap="round"/>
<path d="M40.606 52.2815C36.0137 33.6503 47.6858 24.4445 74.334 22.4216C100.982 20.3987 104.08 48.8496 123.185 40.8205C147.065 30.7841 164.747 30.9713 168.357 38.3819C171.967 45.7926 181.445 79.4249 148.746 89.8565C116.046 100.288 93.0729 93.1046 84.4854 105.696" stroke="#1A1A1A" stroke-width="6.73983" stroke-linecap="round"/>
<path d="M161.44 29.4124C167.455 27.9298 172.618 31.1077 173.681 35.4192C174.743 39.7307 171.649 44.9441 165.634 46.4266C159.619 47.909 154.457 44.7309 153.394 40.4195C152.332 36.108 155.426 30.895 161.44 29.4124Z" fill="#1A1A1A" stroke="#1A1A1A" stroke-width="6.73983"/>
</svg>
