<svg width="194" height="111" viewBox="0 0 194 111" fill="none" xmlns="http://www.w3.org/2000/svg">
<path d="M39.4302 86.4888C29.5244 87.6915 30.5229 102.32 40.6562 104.209C50.5105 103.497 49.5699 88.0805 39.4302 86.4888Z" fill="#1A1A1A"/>
<path d="M46.4895 46.9626C39.4952 47.8119 40.2001 58.1411 47.3552 59.4747C54.3132 58.972 53.6491 48.0865 46.4895 46.9626Z" fill="#1A1A1A"/>
<path d="M57.7175 62.7356C41.277 64.3446 42.4474 87.2447 59.1628 90.4755C75.502 89.6324 74.4533 65.5023 57.7175 62.7356Z" fill="#1A1A1A"/>
<path d="M22.6937 47.8254C-1.53053 50.5375 0.746604 82.171 25.4927 86.1436C49.5858 84.4935 47.4588 51.1554 22.6937 47.8254Z" fill="#1A1A1A"/>
<mask id="path-5-inside-1_1221_21439" fill="white">
<ellipse cx="6.40284" cy="9.43576" rx="6.40284" ry="9.43576" transform="matrix(-0.979884 -0.199569 -0.199569 0.979884 132.82 36.0059)"/>
</mask>
<ellipse cx="6.40284" cy="9.43576" rx="6.40284" ry="9.43576" transform="matrix(-0.979884 -0.199569 -0.199569 0.979884 132.82 36.0059)" fill="#1A1A1A"/>
<path d="M118.389 42.6962L124.993 44.0413C124.707 45.4487 124.906 46.5105 125.115 47.013C125.342 47.5566 125.233 46.8414 124.125 46.6157L122.78 53.22L121.435 59.8242C116.862 58.8928 114.038 55.4689 112.675 52.2036C111.296 48.8973 111.032 45.0501 111.785 41.3511L118.389 42.6962ZM122.78 53.22L124.125 46.6157C123.017 46.39 122.637 47.0057 123.058 46.5941C123.448 46.2136 124.046 45.3142 124.333 43.9067L130.937 45.2518L137.541 46.5969C136.788 50.2958 135.04 53.7333 132.478 56.2367C129.947 58.7091 126.008 60.7556 121.435 59.8242L122.78 53.22ZM130.937 45.2518L124.333 43.9067C124.62 42.4993 124.421 41.4375 124.211 40.935C123.984 40.3914 124.093 41.1066 125.201 41.3323L126.546 34.728L127.891 28.1238C132.465 29.0552 135.289 32.4791 136.651 35.7444C138.031 39.0507 138.295 42.8979 137.541 46.5969L130.937 45.2518ZM126.546 34.728L125.201 41.3323C126.309 41.558 126.689 40.9423 126.268 41.3539C125.878 41.7344 125.28 42.6338 124.993 44.0413L118.389 42.6962L111.785 41.3511C112.538 37.6522 114.286 34.2147 116.849 31.7113C119.38 29.2389 123.318 27.1924 127.891 28.1238L126.546 34.728Z" fill="#1A1A1A" mask="url(#path-5-inside-1_1221_21439)"/>
<mask id="path-7-inside-2_1221_21439" fill="white">
<ellipse cx="6.40284" cy="9.43576" rx="6.40284" ry="9.43576" transform="matrix(-0.979884 -0.199569 -0.199569 0.979884 112.789 32.9321)"/>
</mask>
<ellipse cx="6.40284" cy="9.43576" rx="6.40284" ry="9.43576" transform="matrix(-0.979884 -0.199569 -0.199569 0.979884 112.789 32.9321)" fill="#1A1A1A"/>
<path d="M98.3579 39.6225L104.962 40.9675C104.676 42.375 104.874 43.4368 105.084 43.9393C105.311 44.4829 105.202 43.7677 104.094 43.542L102.749 50.1462L101.404 56.7505C96.8305 55.8191 94.0063 52.3952 92.6439 49.1299C91.2643 45.8236 91.0003 41.9764 91.7536 38.2774L98.3579 39.6225ZM102.749 50.1462L104.094 43.542C102.986 43.3163 102.606 43.932 103.027 43.5204C103.417 43.1399 104.015 42.2405 104.302 40.833L110.906 42.1781L117.51 43.5231C116.757 47.2221 115.009 50.6596 112.446 53.163C109.915 55.6353 105.977 57.6819 101.404 56.7505L102.749 50.1462ZM110.906 42.1781L104.302 40.833C104.588 39.4256 104.389 38.3638 104.18 37.8612C103.953 37.3177 104.062 38.0329 105.17 38.2586L106.515 31.6543L107.86 25.0501C112.433 25.9815 115.258 29.4054 116.62 32.6707C118 35.9769 118.264 39.8242 117.51 43.5231L110.906 42.1781ZM106.515 31.6543L105.17 38.2586C106.278 38.4843 106.658 37.8686 106.237 38.2802C105.847 38.6607 105.249 39.5601 104.962 40.9675L98.3579 39.6225L91.7536 38.2774C92.507 34.5784 94.2547 31.1409 96.8175 28.6375C99.3484 26.1652 103.287 24.1187 107.86 25.0501L106.515 31.6543Z" fill="#1A1A1A" mask="url(#path-7-inside-2_1221_21439)"/>
<path d="M163.979 88.1768C160.584 89.8116 138.403 86.9133 133.269 77.2065" stroke="#1A1A1A" stroke-width="6.73983" stroke-linecap="round"/>
<path d="M114.198 7.85401C105.966 6.06498 98.9854 9.6209 93.6679 18.2214" stroke="#1A1A1A" stroke-width="6.73983" stroke-linecap="round"/>
<path d="M146.703 25.1562C146.433 23.1492 144.683 18.351 139.841 15.2144" stroke="#1A1A1A" stroke-width="6.73983" stroke-linecap="round"/>
<path d="M51.5985 28.0462C34.1959 35.9029 0.846844 55.8189 6.67163 72.6296C13.9526 93.643 45.615 115.532 59.5951 97.4893C68.0445 86.5847 67.4482 76.7286 67.4482 76.7286" stroke="#1A1A1A" stroke-width="6.73983" stroke-linecap="round"/>
<path d="M60.6941 21.7739C64.7689 3.02269 79.3012 -0.107661 104.121 9.8023C128.94 19.7123 119.203 46.6238 139.891 47.8206C165.751 49.3167 181.547 57.2656 181.527 65.5087C181.508 73.7519 175.22 108.124 141.266 103.102C107.312 98.0796 89.8439 81.5199 76.5919 89.0475" stroke="#1A1A1A" stroke-width="6.73983" stroke-linecap="round"/>
<path d="M179.262 54.4098C185.316 55.7253 188.554 60.8509 187.611 65.1902C186.668 69.5295 181.594 72.8491 175.541 71.5336C169.488 70.2181 166.251 65.0927 167.194 60.7534C168.137 56.4142 173.209 53.0945 179.262 54.4098Z" fill="#1A1A1A" stroke="#1A1A1A" stroke-width="6.73983"/>
</svg>
