<svg width="198" height="127" viewBox="0 0 198 127" fill="none" xmlns="http://www.w3.org/2000/svg">
<path fill-rule="evenodd" clip-rule="evenodd" d="M106.215 1.61077C109.831 -1.0295 114.857 -0.346338 117.647 3.09124L117.91 3.43206V3.43402C120.635 7.16602 119.821 12.4015 116.089 15.1284L116.088 15.1293L114.468 16.3119C115.749 17.1264 116.933 17.9891 118.029 18.8881C118.602 17.5708 119.521 16.3833 120.764 15.475C124.496 12.75 129.732 13.563 132.459 17.2963L137.8 24.6088C140.526 28.3412 139.711 33.5775 135.979 36.3041C134.568 37.3344 132.942 37.8583 131.318 37.9106C133.252 42.001 134.393 44.2313 135.797 45.7182L135.97 45.8959C136.853 46.7765 138.031 47.4981 140.805 47.4936C153.927 47.472 165.205 49.158 173.703 52.1879C176.262 51.5447 179.014 51.3987 181.798 51.8325C191.443 53.3353 199.3 61.7244 197.753 71.6567C197.027 76.3153 194.34 80.085 190.763 82.5619C189.767 87.6915 187.939 93.6762 184.738 99.3373C181.533 105.003 176.829 110.558 170.037 114.424C163.188 118.323 154.775 120.183 144.744 119.304C126.581 117.712 112.492 112.762 102.297 109.638C97.0208 108.021 93.2468 107.038 90.2005 106.789C87.4067 106.56 85.855 107.007 84.639 107.797C81.5251 109.819 77.5667 109.506 74.8245 107.292C73.7239 109.742 72.3184 112.314 70.5237 114.939C65.7859 121.867 58.9684 125.337 51.6478 126.001C44.6482 126.636 37.5212 124.713 31.2161 121.703C18.7654 115.758 6.75029 104.229 1.57647 91.7485C-1.40184 84.5639 0.235452 77.4323 3.20831 71.6567L3.48956 71.1215C6.44689 65.6027 10.9926 60.4716 15.8167 55.9897C25.8249 46.6916 38.7636 38.6074 47.6155 33.9594C49.012 33.2261 50.5212 32.9271 51.9886 33.0131C52.888 27.4433 54.7081 22.3491 57.8304 18.1332L58.138 17.726C61.348 13.5645 65.5783 10.6908 70.5433 9.07659C77.8714 6.69431 86.4597 7.15374 95.6868 9.30023L106.215 1.61077ZM54.4905 39.8032C53.6253 38.1557 51.5884 37.5213 49.9407 38.3862C41.3275 42.9088 28.798 50.7544 19.22 59.6528L18.3304 60.4907C13.9202 64.7011 10.0636 69.2651 7.6546 73.9448C5.07288 78.9604 3.97979 84.4882 6.19561 89.8334C10.8224 100.994 21.846 111.687 33.3714 117.19C38.9847 119.87 44.9854 121.45 50.6487 121.066L51.1966 121.022C56.963 120.499 62.2261 117.89 66.0325 112.634L66.3968 112.117C70.3341 106.359 72.1722 100.934 73.0042 96.7514L73.1575 95.9311C73.2901 95.1739 73.3877 94.4621 73.4612 93.8041C73.7639 92.296 73.811 90.7123 73.6106 89.1332C73.6027 89.0144 73.5964 88.914 73.5892 88.8344C73.5843 88.7803 73.5792 88.734 73.5755 88.6987C73.5737 88.6814 73.572 88.6655 73.5706 88.6528C73.5699 88.6467 73.5692 88.6402 73.5687 88.6352C73.5684 88.633 73.5677 88.6283 73.5677 88.6283V88.6244C73.5677 88.6244 73.5622 88.6248 73.5384 88.6274V88.6244L73.5667 88.6215C73.5385 88.3871 73.4859 88.161 73.4134 87.9457C72.1894 82.0152 67.4703 76.4508 59.679 75.6342C43.3632 78.2169 45.8921 101.006 62.7698 103.239C63.1349 103.198 63.491 103.145 63.8372 103.082C63.0498 104.75 62.0671 106.509 60.8333 108.313L60.5872 108.664C58.018 112.221 54.606 113.928 50.6566 114.302C53.2174 109.314 50.2003 101.144 42.8343 100.432C37.1146 101.474 35.3619 106.846 36.9173 111.403C36.7046 111.305 36.4899 111.209 36.2767 111.107C30.0839 108.15 24.1067 103.5 19.4817 98.2201C22.1809 99.6023 25.329 100.557 28.9046 100.914C52.2947 97.9081 48.9306 66.222 25.554 63.0112C33.7629 55.7724 43.9422 49.2915 51.5814 45.1498L53.0745 44.353C54.7217 43.4876 55.3553 41.4507 54.4905 39.8032ZM113.873 6.38226C112.776 4.88 110.667 4.55179 109.164 5.64886L96.7562 14.7114L95.848 14.4809C86.5067 12.1581 78.4982 11.748 72.0892 13.8315L71.3118 14.0991C67.4699 15.4995 64.2802 17.8265 61.8489 21.1088C59.285 24.5708 57.6821 28.9334 56.8851 34.0493C56.5991 35.8879 57.8579 37.6114 59.6966 37.8979C61.4777 38.1751 63.1504 37.0022 63.514 35.2573L63.5452 35.0864C64.225 30.7231 65.5209 27.4756 67.2649 25.1205C68.98 22.8051 71.244 21.193 74.1731 20.2407C78.0287 18.9874 83.0984 18.8615 89.5042 20.0073L82.6097 25.0444L82.472 25.1508C81.0877 26.2741 80.8129 28.2985 81.8763 29.7543C82.9399 31.2097 84.9518 31.5635 86.4427 30.5864L86.5853 30.4877L98.098 22.0776C99.2942 22.4301 100.526 22.8163 101.793 23.2368C113.025 26.9648 116.824 34.7017 120.53 42.558C122.327 46.3689 124.269 50.6088 127.261 53.7778C130.472 57.1778 134.751 59.2448 140.826 59.2348C151.593 59.2171 160.495 60.4452 167.134 62.3959C166.315 63.6589 165.75 65.0861 165.509 66.6332C164.478 73.2533 169.754 79.5729 177.293 80.7475C177.907 80.8431 178.517 80.9009 179.12 80.9242C178.303 84.8755 176.881 89.3829 174.52 93.558C172.112 97.816 168.786 101.629 164.23 104.222L163.8 104.461C159.465 106.816 153.847 108.193 146.509 107.667L145.77 107.609C131.187 106.331 119.582 102.733 109.814 99.6801L105.737 98.4135C100.839 96.913 96.2354 95.6237 91.9993 95.1674L91.1575 95.0873C86.591 94.714 82.2381 95.3595 78.2454 97.9526C76.685 98.9665 76.2415 101.054 77.2552 102.615C78.2374 104.126 80.2259 104.588 81.7679 103.695L81.9163 103.604C84.314 102.047 87.0585 101.515 90.6087 101.805C94.2598 102.104 98.5094 103.247 103.762 104.857C114.125 108.032 127.655 112.787 145.181 114.323C154.04 115.099 161.239 113.521 167.01 110.387L167.565 110.079C173.039 106.962 176.999 102.538 179.833 97.8227L180.386 96.8754C183.714 90.9912 185.434 84.6255 186.235 79.4438C189.589 77.7865 192.064 74.8619 192.751 71.2397L192.813 70.8871C193.828 64.3706 188.731 58.145 181.38 56.8315L181.029 56.7729C178.378 56.36 175.801 56.6401 173.529 57.4614L172.852 57.2006C165.241 54.3325 154.707 52.5832 142.045 52.4965L140.814 52.4936C136.795 52.5002 134.366 51.3131 132.523 49.518L132.162 49.1508C130.32 47.2 128.942 44.5514 127.331 41.1752L126.625 39.683C122.953 31.8976 118.258 21.9777 104.833 17.1576L113.14 11.0912C114.642 9.99352 114.97 7.88493 113.873 6.38226ZM168.725 89.6899C162.558 87.3977 154.101 86.9878 146.267 87.9936L145.537 88.0912C137.998 89.1491 130.359 91.6217 125.626 95.7377C124.223 96.9591 124.074 99.0875 125.295 100.492C126.517 101.896 128.646 102.045 130.05 100.824C133.344 97.9596 139.454 95.7541 146.446 94.77L147.125 94.6782C154.339 93.7521 161.596 94.2301 166.377 96.0073C168.121 96.6551 170.062 95.7659 170.71 94.0219C171.338 92.332 170.523 90.4591 168.885 89.7543L168.725 89.6899ZM47.5345 60.5551C40.603 61.8184 41.9203 72.0883 49.1419 72.9946C56.0569 72.0788 54.7474 61.2523 47.5345 60.5551ZM115.644 45.2221C113.805 44.9359 112.083 46.1941 111.796 48.0326C111.169 52.0594 109.452 55.6278 106.327 57.3647L106.033 57.5209C102.915 59.0961 97.3799 59.5044 87.7923 55.0034C86.1078 54.2127 84.1009 54.9372 83.3099 56.6215C82.5193 58.3061 83.2444 60.3131 84.929 61.1039C95.3522 65.9972 103.283 66.4589 109.049 63.5483L109.601 63.2563C115.343 60.0651 117.682 54.0336 118.455 49.0707C118.742 47.232 117.482 45.5089 115.644 45.2221ZM104.161 38.269C104.13 38.3014 101.022 41.4825 97.721 42.9975L97.4065 43.1371C94.1351 44.5431 90.03 44.9038 89.5052 45.0766C92.0814 50.623 97.2641 53.723 101.265 52.2026L101.649 52.0405C105.695 50.1604 106.82 43.9943 104.161 38.269ZM128.422 20.2455C127.325 18.7429 125.216 18.415 123.713 19.5121C122.211 20.6099 121.881 22.7183 122.979 24.2211L128.32 31.5336C129.383 32.9893 131.396 33.3431 132.887 32.3657L133.03 32.267C134.485 31.2036 134.838 29.1914 133.862 27.7006L133.763 27.558L128.422 20.2455Z" fill="#FAFAF8"/>
<path d="M49.9407 38.3862C51.5884 37.5213 53.6253 38.1557 54.4905 39.8032C55.3553 41.4507 54.7217 43.4876 53.0745 44.353C45.3086 48.4306 34.3104 55.2895 25.554 63.0112C48.9306 66.222 52.2947 97.9081 28.9046 100.914C25.329 100.557 22.1809 99.6023 19.4817 98.2201C24.1067 103.5 30.0839 108.15 36.2767 111.107C36.4899 111.209 36.7046 111.305 36.9173 111.403C35.3619 106.846 37.1146 101.474 42.8343 100.432C50.2003 101.144 53.2174 109.314 50.6566 114.302C54.7338 113.916 58.2375 112.109 60.8333 108.313C62.0671 106.509 63.0498 104.75 63.8372 103.082C63.491 103.145 63.1349 103.198 62.7698 103.239C45.8921 101.006 43.3632 78.2169 59.679 75.6342C67.4703 76.4508 72.1894 82.0152 73.4134 87.9457C73.4859 88.161 73.5385 88.3871 73.5667 88.6215L73.5384 88.6244V88.6274C73.5637 88.6246 73.5677 88.6244 73.5677 88.6244V88.6283C73.5679 88.6305 73.5684 88.6328 73.5687 88.6352C73.5692 88.6402 73.5699 88.6467 73.5706 88.6528C73.572 88.6655 73.5737 88.6814 73.5755 88.6987C73.5792 88.734 73.5843 88.7803 73.5892 88.8344C73.5964 88.914 73.6027 89.0144 73.6106 89.1332C73.811 90.7123 73.7639 92.296 73.4612 93.8041C73.3877 94.4621 73.2901 95.1739 73.1575 95.9311C72.408 100.212 70.5969 105.974 66.3968 112.117C62.5655 117.72 57.1494 120.482 51.1966 121.022C45.3735 121.55 39.1661 119.957 33.3714 117.19C21.846 111.687 10.8224 100.994 6.19561 89.8334C3.97979 84.4882 5.07288 78.9604 7.6546 73.9448C10.2242 68.9529 14.4411 64.0928 19.22 59.6528C28.798 50.7544 41.3275 42.9088 49.9407 38.3862Z" fill="#1A1A1A"/>
<path d="M109.164 5.64886C110.667 4.55179 112.776 4.88 113.873 6.38226C114.97 7.88493 114.642 9.99352 113.14 11.0912L104.833 17.1576C118.258 21.9777 122.953 31.8976 126.625 39.683C128.558 43.7803 130.057 46.9211 132.162 49.1508C134.05 51.1493 136.527 52.5006 140.814 52.4936C154.025 52.4718 164.996 54.24 172.852 57.2006C173.079 57.2864 173.305 57.3732 173.529 57.4614C175.801 56.6401 178.378 56.36 181.029 56.7729C188.568 57.9476 193.844 64.267 192.813 70.8871C192.223 74.6723 189.697 77.7331 186.235 79.4438C185.434 84.6255 183.714 90.9912 180.386 96.8754C177.52 101.942 173.404 106.754 167.565 110.079C161.702 113.416 154.326 115.124 145.181 114.323C127.655 112.787 114.125 108.032 103.762 104.857C98.5094 103.247 94.2598 102.104 90.6087 101.805C87.0585 101.515 84.314 102.047 81.9163 103.604C80.3558 104.617 78.2691 104.175 77.2552 102.615C76.2415 101.054 76.685 98.9665 78.2454 97.9526C82.2381 95.3595 86.591 94.714 91.1575 95.0873C95.6233 95.4525 100.513 96.813 105.737 98.4135C116.328 101.659 129.104 106.148 145.77 107.609C153.72 108.306 159.697 106.802 164.23 104.222C168.786 101.629 172.112 97.816 174.52 93.558C176.881 89.3829 178.303 84.8755 179.12 80.9242C178.517 80.9009 177.907 80.8431 177.293 80.7475C169.754 79.5729 164.478 73.2533 165.509 66.6332C165.75 65.0861 166.315 63.6589 167.134 62.3959C160.495 60.4452 151.593 59.2171 140.826 59.2348C134.751 59.2448 130.472 57.1778 127.261 53.7778C124.269 50.6088 122.327 46.3689 120.53 42.558C116.824 34.7017 113.025 26.9648 101.793 23.2368C100.526 22.8163 99.2942 22.4301 98.098 22.0776L86.5853 30.4877C85.0825 31.5852 82.974 31.2569 81.8763 29.7543C80.7785 28.2514 81.1068 26.1422 82.6097 25.0444L89.5042 20.0073C83.0984 18.8615 78.0287 18.9874 74.1731 20.2407C71.244 21.193 68.98 22.8051 67.2649 25.1205C65.5209 27.4756 64.225 30.7231 63.5452 35.0864C63.2586 36.9252 61.5355 38.1843 59.6966 37.8979C57.8579 37.6114 56.5991 35.8879 56.8851 34.0493C57.6821 28.9334 59.285 24.5708 61.8489 21.1088C64.4423 17.6075 67.8987 15.1938 72.0892 13.8315C78.7049 11.6807 87.0251 12.1869 96.7562 14.7114L109.164 5.64886Z" fill="#1A1A1A"/>
<path d="M146.267 87.9936C154.101 86.9878 162.558 87.3977 168.725 89.6899C170.469 90.3383 171.358 92.2775 170.71 94.0219C170.062 95.7659 168.121 96.6551 166.377 96.0073C161.596 94.2301 154.339 93.7521 147.125 94.6782C139.851 95.6122 133.45 97.8671 130.05 100.824C128.646 102.045 126.517 101.896 125.295 100.492C124.074 99.0875 124.223 96.9591 125.626 95.7377C130.512 91.4888 138.493 88.9917 146.267 87.9936Z" fill="#1A1A1A"/>
<path d="M49.1419 72.9946C56.0569 72.0788 54.7474 61.2523 47.5345 60.5551C40.603 61.8184 41.9203 72.0883 49.1419 72.9946Z" fill="#1A1A1A"/>
<path d="M111.796 48.0326C112.083 46.1941 113.805 44.9359 115.644 45.2221C117.482 45.5089 118.742 47.232 118.455 49.0707C117.682 54.0336 115.343 60.0651 109.601 63.2563C103.792 66.4843 95.6887 66.1553 84.929 61.1039C83.2444 60.3131 82.5193 58.3061 83.3099 56.6215C84.1009 54.9372 86.1078 54.2127 87.7923 55.0034C97.69 59.6501 103.269 59.0645 106.327 57.3647C109.452 55.6278 111.169 52.0594 111.796 48.0326Z" fill="#1A1A1A"/>
<path d="M104.161 38.269C106.82 43.9943 105.695 50.1604 101.649 52.0405C97.6014 53.9202 92.1645 50.8023 89.5052 45.0766C90.045 44.8983 94.4034 44.5199 97.721 42.9975C101.039 41.4748 104.161 38.269 104.161 38.269Z" fill="#1A1A1A"/>
<path d="M123.713 19.5121C125.216 18.415 127.325 18.7429 128.422 20.2455L133.763 27.558C134.861 29.0609 134.532 31.1692 133.03 32.267C131.527 33.3648 129.417 33.0366 128.32 31.5336L122.979 24.2211C121.881 22.7183 122.211 20.6099 123.713 19.5121Z" fill="#1A1A1A"/>
</svg>
