<svg width="184" height="143" viewBox="0 0 184 143" fill="none" xmlns="http://www.w3.org/2000/svg">
<path fill-rule="evenodd" clip-rule="evenodd" d="M102.989 39.6118C105.597 42.3684 108.452 45.2494 111.824 47.0873C115.802 49.2551 120.344 49.9229 125.872 48.2426L126.41 48.0727C136.642 44.719 145.487 43.1281 152.404 42.9252C152.017 44.3797 151.924 45.9112 152.174 47.4565C153.245 54.0704 160.219 58.4437 167.752 57.2241C168.365 57.1249 168.962 56.9901 169.542 56.8256C169.99 60.8359 170.034 65.5621 169.083 70.2641L168.89 71.1616C167.86 75.638 165.913 79.9567 162.605 83.5922L162.271 83.9526C158.767 87.6542 153.635 90.7885 146.103 92.5336L144.989 92.7866C133.516 95.3341 123.386 95.8793 114.575 96.059C115.571 91.81 116.318 88.1979 116.979 83.9379L117.258 82.0688C117.677 79.1379 117.356 76.6135 116.32 74.5336L116.103 74.1235C114.973 72.1036 113.312 70.8539 111.709 70.0991L111.389 69.9545C109.929 69.3222 108.479 69.0548 107.355 68.9428L106.894 68.9037C106.775 68.8954 106.658 68.8886 106.547 68.8832C106.402 68.7298 106.245 68.5652 106.077 68.393L105.544 67.8569C104.398 66.734 102.66 65.1744 100.86 64.2465C99.6272 63.6109 98.4255 63.0967 97.2021 62.7221C97.8822 62.5003 98.5406 62.2096 99.1699 61.8442C105.329 58.2672 106.742 48.8616 102.989 39.6118ZM159.732 63.2114C158.053 62.7224 155.977 62.8512 153.964 63.2739L153.563 63.3618C151.542 63.8264 149.258 64.6512 146.861 65.8852L146.379 66.1381C141.376 68.8132 135.826 73.3244 131.082 80.2934C130.035 81.8317 130.433 83.9277 131.971 84.975C133.461 85.9893 135.475 85.6471 136.552 84.226L136.652 84.0854C140.641 78.2258 145.195 74.4983 149.162 72.2973L149.947 71.8774C151.765 70.9412 153.417 70.3417 154.782 70.0004L155.35 69.8696C156.081 69.7159 156.682 69.6494 157.139 69.6381L157.44 69.6391C157.529 69.6423 157.604 69.6481 157.668 69.6547C157.788 69.6672 157.844 69.6811 157.849 69.6821C159.579 70.1859 161.388 69.2382 161.973 67.5541L162.025 67.3891C162.546 65.6024 161.519 63.7319 159.732 63.2114Z" fill="#FAFAF8"/>
<path fill-rule="evenodd" clip-rule="evenodd" d="M80.6767 30.0014C81.6992 29.4076 83.6487 29.0883 86.6122 30.5141C89.5358 31.9209 92.7511 34.7812 95.1845 38.9711C97.6176 43.1609 98.5081 47.3705 98.2812 50.6069L98.2265 51.2016C97.8965 54.0756 96.7437 55.4593 95.7851 56.0161L95.5829 56.1235C94.5155 56.6426 92.6291 56.8392 89.8505 55.5024C89.2015 55.1901 88.5399 54.8032 87.874 54.3491C88.866 53.4917 89.7845 52.5503 90.54 51.5356L90.8534 51.0961C91.9024 49.5594 91.507 47.4631 89.9706 46.4135C88.4338 45.3641 86.3367 45.7587 85.287 47.2954C84.7575 48.0706 83.9579 48.8696 83.0048 49.6352C82.3999 48.8381 81.818 47.9766 81.2783 47.0473C79.3799 43.7785 78.4086 40.4701 78.1943 37.6137L78.1611 37.0483C77.9841 32.7113 79.5081 30.6803 80.6767 30.0014Z" fill="#FAFAF8"/>
<path fill-rule="evenodd" clip-rule="evenodd" d="M73.4179 2.17523C76.9666 0.186648 81.4581 1.44785 83.4492 4.99945C85.3765 8.43893 84.2497 12.7613 80.9501 14.8373L80.624 15.0317C80.4878 15.108 80.3434 15.1827 80.1943 15.2592C95.6095 16.0497 103.924 24.9454 109.762 31.1391C113.005 34.5798 114.947 36.5575 116.964 37.6567C118.374 38.4252 120.002 38.8706 123.065 37.8666C135.607 33.7561 146.846 31.8984 155.765 32.1928C157.944 30.7728 160.478 29.771 163.233 29.3246C172.448 27.8325 181.9 33.1385 183.4 42.3998C184.128 46.8939 182.726 51.1719 180.076 54.4897C180.754 59.6736 180.907 65.9799 179.609 72.393C178.346 78.6381 175.661 85.1993 170.55 90.8178C165.399 96.4794 158.165 100.763 148.528 102.996C136.382 105.81 125.663 106.518 116.634 106.754C116.632 107.558 116.65 108.492 116.694 109.548C116.825 112.649 117.146 116.301 117.527 119.855C117.906 123.391 118.335 126.744 118.671 129.215C118.838 130.447 118.982 131.457 119.084 132.158C119.138 132.53 119.174 132.782 119.2 132.959C119.205 132.995 119.21 133.027 119.215 133.059L119.231 133.164C119.232 133.167 119.232 133.171 119.232 133.174L119.241 133.227C119.852 137.25 117.108 139.469 114.062 140.62C111.017 141.771 106.017 142.771 102.017 142.271C98.0166 141.771 95.0166 141.271 91.0019 139.743C86.9872 138.215 83.7281 136.354 83.7607 132.316H83.7587V132.267L83.7597 132.232C83.7599 132.222 83.7596 132.214 83.7597 132.207C83.7598 132.201 83.7606 132.196 83.7607 132.192L83.7636 132.03C83.7659 131.887 83.7691 131.677 83.7734 131.397C83.7818 130.849 83.7931 130.056 83.8056 129.083C83.8305 127.139 83.8588 124.484 83.873 121.637C83.8869 118.838 83.8845 115.948 83.8574 113.387C81.8441 114.055 79.5816 113.843 77.6894 112.683C77.461 115.687 76.9103 118.994 75.873 122.539C73.6057 130.287 68.4215 135.477 61.9199 138.269C55.6786 140.949 48.5023 141.332 41.6874 140.439C28.2107 138.672 13.4536 131.533 4.85247 121.488C0.0530849 115.882 -0.603234 108.932 0.406184 102.689C1.40724 96.4979 4.15043 90.1066 7.42474 84.2123C8.15005 82.9067 8.91254 81.6035 9.70599 80.31C6.45591 80.8192 3.15082 79.0918 1.79583 75.9301C0.256291 72.3371 0.62546 68.7467 2.08782 65.7885C3.40897 63.1165 5.49628 61.1663 7.28509 59.8256C10.8742 57.1359 15.3355 55.3716 18.2773 54.5024C20.101 53.9636 27.128 52.2417 35.539 50.2153C35.2644 49.6685 35.0545 49.0794 34.9208 48.4565L34.8505 48.0834C33.9601 42.5844 34.0624 37.328 35.7704 32.5913C37.5373 27.692 40.8027 23.962 45.1035 21.309C49.7431 18.4472 55.6266 16.8289 62.3574 15.9868C58.5717 14.5643 56.6361 10.3526 58.0312 6.55023L58.1708 6.19769C59.6485 2.7252 63.5269 0.930005 67.1298 2.04828L67.4892 2.17035L67.7656 2.26605C69.141 2.71872 70.4413 2.76483 71.5077 2.64203C72.7003 2.5047 73.4024 2.18206 73.4179 2.17523ZM78.1796 19.2026C64.8116 19.1309 54.1496 20.4286 47.2031 24.7133L46.538 25.1401C43.2698 27.3235 40.8739 30.2307 39.5331 33.9487L39.4052 34.3149C38.1211 38.1229 38.0011 42.5177 38.7988 47.4438C39.0964 49.2807 40.827 50.5282 42.664 50.2309C44.5009 49.9333 45.7493 48.2036 45.4521 46.3666C44.742 41.9812 44.9839 38.7034 45.874 36.2348C46.6835 33.9902 48.1069 32.1948 50.2939 30.7377L50.7411 30.4506C55.4871 27.5232 63.394 26.1062 75.0322 25.9545C72.4618 28.6351 71.2379 32.7212 71.4257 37.3237C71.531 39.9017 72.0807 42.6415 73.082 45.3871C71.693 45.7151 69.7742 46.1695 67.4843 46.7114L59.1308 48.6909C56.0548 49.4211 52.7502 50.2072 49.4072 51.0043L39.4775 53.3793C29.7778 55.7086 21.3486 57.7656 19.4101 58.3383L18.8925 58.4965C16.2317 59.3339 12.5626 60.8691 9.68353 63.0268L9.10931 63.4741C7.77436 64.5561 6.49006 65.91 5.67376 67.561L5.49603 67.9438C4.65133 69.8764 4.50462 72.096 5.47259 74.3549C6.18274 76.0119 8.06425 76.8079 9.73626 76.1899L9.8974 76.1254C11.5544 75.4152 12.3504 73.5338 11.7324 71.8618L11.6679 71.7006C11.4877 71.28 11.5019 70.9791 11.7148 70.5483C11.9588 70.0549 12.4726 69.428 13.3349 68.726L13.7255 68.4203C15.9227 66.7737 19.0632 65.4688 21.3193 64.8022C22.1237 64.5645 24.2649 64.0199 27.2704 63.2778C21.6432 69.8045 15.4751 77.9567 10.9208 86.1547L10.3349 87.226C7.44651 92.5962 5.19459 98.1315 4.35443 103.328L4.27532 103.85C3.49991 109.245 4.24509 114.628 7.89056 118.886C15.7482 128.064 29.5434 134.813 42.207 136.473C48.3746 137.282 54.5694 136.924 59.8349 134.804L60.3417 134.593C65.6622 132.309 69.8583 128.198 71.8486 122.021L72.0341 121.416C73.9934 114.721 74.0592 108.993 73.5536 104.758L73.4452 103.931C73.3366 103.17 73.2092 102.463 73.0751 101.815C72.895 100.284 72.4482 98.7599 71.7656 97.3178C71.7229 97.212 71.6877 97.1223 71.6572 97.0512C71.6357 97.0011 71.616 96.9587 71.6015 96.9262C71.5944 96.9103 71.5882 96.8959 71.5829 96.8842C71.5804 96.8787 71.5782 96.8731 71.5761 96.8686C71.575 96.8664 71.5731 96.8637 71.5722 96.8618L71.5712 96.8578C71.5712 96.8578 71.5653 96.8603 71.5449 96.8696L71.5429 96.8666L71.5693 96.8549C71.4689 96.6392 71.3488 96.4387 71.2118 96.2553C68.209 90.9988 61.9991 87.1732 54.3408 88.811L54.0009 88.9897C39.7773 96.6478 49.2262 117.184 65.8339 114.1C66.1687 113.948 66.4906 113.787 66.8007 113.62C66.569 115.45 66.1793 117.426 65.5654 119.524L65.4404 119.933C64.1 124.111 61.385 126.791 57.746 128.372C58.6338 122.835 53.2334 116.004 46.0097 117.61L45.5449 117.877C40.8978 120.725 40.9833 126.144 43.7831 129.873C43.551 129.847 43.317 129.821 43.0829 129.79C36.2799 128.898 29.1577 126.331 23.1249 122.745C25.9314 123.192 28.9963 123.16 32.2597 122.522L32.915 122.386C54.2225 112.279 41.203 83.1933 17.9814 87.3862C23.543 77.959 31.2151 68.6428 37.1952 62.3373L38.3671 61.1176C38.5637 60.9158 38.7293 60.6942 38.8652 60.4614L50.9706 57.561C57.6516 55.9679 64.179 54.4203 69.0361 53.2709C71.4644 52.6963 73.4752 52.2205 74.8788 51.8891C75.3865 51.7692 75.8152 51.6675 76.1552 51.5873C76.4697 52.0805 76.7945 52.5606 77.1288 53.0268C76.798 53.1541 76.4986 53.2579 76.2382 53.3344C76.1103 53.372 75.9991 53.3998 75.9072 53.4213C74.7073 53.1518 73.4026 53.5496 72.5663 54.5629C71.3821 55.9985 71.5861 58.1226 73.0214 59.3071C73.7155 59.8797 74.4553 60.0719 74.9003 60.1459C75.2557 60.2051 75.5905 60.2163 75.8779 60.2075L76.1484 60.1928C76.6542 60.1552 77.1695 60.0561 77.6581 59.9321L78.1367 59.8012C79.2756 59.4668 80.5857 58.9306 81.914 58.2661C84.1134 60.1411 86.4714 61.5343 88.8232 62.3657C88.6609 62.3943 88.497 62.4217 88.3329 62.4536L88.0029 62.517L87.6923 62.645C83.4968 64.3724 79.9595 66.5743 78.4365 70.2446C76.9139 73.9149 77.8526 77.9735 79.5927 82.1635C80.3936 84.0918 81.0617 85.8006 81.6161 87.3491C83.454 92.482 85.0501 95.6087 86.1562 98.892C83.3889 100.067 80.9311 101.778 78.9111 104.278C77.7415 105.725 77.9658 107.847 79.413 109.017C80.8604 110.187 82.9824 109.961 84.1523 108.514C85.1022 107.339 86.2297 106.41 87.5849 105.674C87.6092 105.933 87.6327 106.197 87.6523 106.467C87.8703 109.477 87.9018 115.872 87.873 121.657L87.8427 125.738C87.8305 127.006 87.8171 128.16 87.8046 129.135L87.7724 131.458L87.7626 132.095L87.7597 132.259L87.7587 132.301V132.316C87.7277 134.118 89.1187 135.615 90.8974 135.736L91.0702 135.744C92.9308 135.776 94.4647 134.292 94.497 132.431L94.498 132.428V132.373L94.5019 132.205L94.5117 131.562L94.5439 129.221C94.5564 128.24 94.5698 127.079 94.582 125.802L94.6122 121.692C94.6389 116.343 94.6181 110.136 94.4169 106.642L94.374 105.981C93.7793 97.7721 90.9207 92.8877 88.4492 86.3979L87.9609 85.0776C87.5099 83.8182 86.9984 82.4811 86.4199 81.0463L85.8183 79.5776C84.2043 75.6912 84.2332 73.8595 84.6611 72.8276C84.9281 72.184 85.5254 71.4297 86.8808 70.5649C87.0549 71.1963 87.2124 71.7804 87.3466 72.2993C87.5346 73.026 87.681 73.621 87.7792 74.0307C87.8283 74.2353 87.8651 74.3949 87.8896 74.5004C87.9017 74.5527 87.9111 74.5922 87.9169 74.6176C87.9198 74.63 87.9225 74.6393 87.9238 74.645C87.9243 74.6475 87.9247 74.6508 87.9247 74.6508C88.3203 76.4097 90.0244 77.5352 91.7812 77.2328L91.9511 77.1996C93.6555 76.8164 94.7654 75.2043 94.5575 73.5063L94.5331 73.3422L94.4999 73.1723L94.499 73.1664L94.497 73.1567C94.495 73.1477 94.4918 73.1344 94.4882 73.1186C94.4807 73.0858 94.47 73.0373 94.456 72.977C94.428 72.8562 94.386 72.6818 94.3329 72.4604C94.2266 72.0167 94.0713 71.3823 93.872 70.6118C93.7317 70.0695 93.5665 69.4577 93.3837 68.7944C93.5279 68.8079 93.6698 68.8252 93.8095 68.8452C94.9634 69.0103 96.183 69.4179 97.7714 70.2368C98.6208 70.6747 99.7584 71.6258 100.825 72.6713C100.976 72.8192 101.121 72.9641 101.257 73.103L100.013 76.9848L99.9638 77.1508C99.5059 78.8738 100.476 80.6714 102.192 81.2221C103.909 81.7725 105.744 80.8742 106.374 79.2065L106.431 79.0424L107.479 75.768C107.897 75.8512 108.318 75.9709 108.709 76.1401C109.408 76.4431 109.906 76.8515 110.222 77.4155C110.537 77.9793 110.879 79.0692 110.586 81.1147L110.398 82.392C109.448 88.6672 108.331 93.3841 106.377 101.273C105.843 103.428 105.824 106.715 105.963 110.001C106.108 113.432 106.455 117.343 106.848 121.001C107.241 124.668 107.684 128.124 108.028 130.661C108.201 131.929 108.348 132.971 108.453 133.697C108.506 134.059 108.548 134.344 108.577 134.538C108.591 134.634 108.603 134.709 108.61 134.76C108.614 134.785 108.617 134.805 108.619 134.818L108.622 134.839C108.893 136.622 110.515 137.865 112.289 137.687L112.461 137.665C114.243 137.394 115.486 135.773 115.308 133.999L115.286 133.828L115.283 133.811C115.281 133.799 115.279 133.781 115.275 133.758L115.243 133.547L115.125 132.731L114.707 129.753C114.453 127.881 114.146 125.506 113.846 122.923L113.55 120.282C113.213 117.138 112.918 113.876 112.758 110.95L112.697 109.717C112.555 106.35 112.649 103.983 112.919 102.893C112.931 102.844 112.943 102.794 112.955 102.746C113.138 102.784 113.326 102.809 113.518 102.817L113.712 102.819C122.907 102.656 133.87 102.155 146.407 99.3754L147.625 99.0991C156.289 97.0916 162.644 93.3592 167.16 88.5912L167.591 88.1264C171.83 83.467 174.223 78.0334 175.457 72.6713L175.688 71.6C177.029 64.974 176.692 58.3891 175.848 53.2143C178.524 50.5991 179.972 47.0514 179.503 43.394L179.451 43.0395C178.38 36.4258 171.405 32.0532 163.873 33.2729L163.38 33.3608C160.931 33.8365 158.742 34.8588 156.955 36.2514L156.231 36.2133C147.845 35.833 136.865 37.5526 124.311 41.6674L123.934 41.7875C120.315 42.8934 117.738 42.5046 115.507 41.4067L115.05 41.1694C112.694 39.8853 110.562 37.7938 107.984 35.0825L106.851 33.8832C100.908 27.5785 93.3106 19.5384 78.873 19.2123L78.1796 19.2026ZM73.2011 100.509C73.2035 100.508 73.207 100.508 73.207 100.508L73.2099 100.506C73.2077 100.507 73.2043 100.508 73.2011 100.509ZM43.5038 89.5678C49.7955 86.5544 45.1954 76.6665 38.121 78.2397L37.8388 78.4008C32.1536 81.823 36.3314 90.6364 43.1708 89.6245L43.5038 89.5678ZM79.9599 6.95551C79.0499 5.33237 76.9964 4.75481 75.373 5.66449L75.1406 5.78363C73.8189 6.40912 70.1718 7.41492 66.1113 5.92523C64.3642 5.28444 62.4272 6.18117 61.7861 7.92816C61.1452 9.67526 62.042 11.6122 63.789 12.2534C70.0866 14.564 75.8337 13.0258 78.4267 11.6723L78.6679 11.5424C80.2912 10.6324 80.8697 8.57895 79.9599 6.95551Z" fill="#FAFAF8"/>
<path fill-rule="evenodd" clip-rule="evenodd" d="M92.1044 0.458437C97.5899 -0.559693 102.949 0.100219 107.819 2.61664L108.289 2.86566L108.744 3.12055C113.116 5.62547 116.648 9.43859 119.466 14.0454L120.038 15.0092C122.072 18.5348 120.862 23.0427 117.337 25.0766C113.81 27.1102 109.303 25.8977 107.27 22.3745C105.219 18.8189 103.118 16.8334 101.236 15.808C99.4607 14.8406 97.413 14.4638 94.7949 14.9496C90.7947 15.6921 86.9468 13.0528 86.2031 9.05023C85.4607 5.049 88.1031 1.20172 92.1044 0.458437ZM106.375 6.37836C102.255 4.13318 97.671 3.49323 92.8339 4.39105C91.0044 4.73094 89.7962 6.49013 90.1357 8.31977C90.465 10.0922 92.1265 11.2807 93.8935 11.0444L94.0644 11.017C97.5101 10.3775 100.502 10.8533 103.15 12.2963C105.847 13.7659 108.426 16.3726 110.735 20.3754C111.636 21.9368 113.598 22.5055 115.185 21.6948L115.338 21.6118C116.95 20.6817 117.503 18.6202 116.573 17.0082C113.83 12.2532 110.447 8.5973 106.375 6.37836Z" fill="#FAFAF8"/>
<path d="M153.878 63.2494C155.891 62.8268 157.966 62.698 159.645 63.1869C161.432 63.7074 162.459 65.5778 161.938 67.3647C161.418 69.1514 159.548 70.1778 157.761 69.6576C157.76 69.6572 157.703 69.643 157.581 69.6303C157.454 69.6171 157.278 69.6081 157.052 69.6137C156.595 69.6249 155.994 69.6915 155.262 69.8451C153.798 70.1527 151.938 70.7828 149.86 71.853C145.717 73.9865 140.821 77.8108 136.566 84.061C135.519 85.5993 133.423 85.9974 131.885 84.9506C130.346 83.9034 129.948 81.8075 130.995 80.269C135.892 73.0751 141.648 68.5006 146.774 65.8608C149.331 64.5444 151.76 63.6941 153.878 63.2494Z" fill="#1A1A1A"/>
<path fill-rule="evenodd" clip-rule="evenodd" d="M78.0935 19.1781C92.9824 19.2581 100.727 27.454 106.763 33.8588C109.871 37.1555 112.27 39.6775 114.963 41.1449C117.376 42.4602 120.151 42.978 124.224 41.643C136.779 37.5282 147.758 35.8085 156.144 36.1889C156.387 36.1999 156.628 36.2124 156.868 36.227C158.775 34.7413 161.139 33.6773 163.787 33.2485C171.319 32.0289 178.294 36.4012 179.365 43.0151C179.977 46.7974 178.524 50.4911 175.761 53.1908C176.605 58.3656 176.942 64.9499 175.601 71.5756C174.447 77.2811 172.025 83.1319 167.504 88.102C162.964 93.0919 156.481 97.0024 147.538 99.0746C134.491 102.097 123.116 102.626 113.625 102.794C113.365 102.799 113.112 102.772 112.868 102.721C112.856 102.77 112.844 102.819 112.832 102.869C112.562 103.959 112.468 106.325 112.61 109.693C112.747 112.917 113.078 116.665 113.463 120.257C113.847 123.842 114.281 127.233 114.62 129.729C114.789 130.976 114.935 131.998 115.038 132.706C115.089 133.06 115.128 133.336 115.156 133.523C115.17 133.616 115.182 133.687 115.189 133.734C115.193 133.757 115.194 133.775 115.196 133.787L115.199 133.803C115.478 135.643 114.213 137.361 112.374 137.641C110.534 137.921 108.815 136.655 108.536 134.815L108.532 134.793C108.53 134.78 108.528 134.761 108.524 134.736C108.517 134.685 108.505 134.61 108.491 134.513C108.462 134.319 108.419 134.035 108.367 133.672C108.262 132.947 108.114 131.905 107.942 130.636C107.598 128.1 107.154 124.643 106.761 120.977C106.368 117.318 106.022 113.408 105.877 109.977C105.738 106.69 105.757 103.403 106.291 101.248C108.375 92.8336 109.506 88.0279 110.499 81.0903C110.792 79.0449 110.451 77.955 110.136 77.391C109.82 76.827 109.321 76.4187 108.622 76.1156C108.231 75.9465 107.811 75.8268 107.393 75.7436L106.344 79.018C105.775 80.7902 103.877 81.7659 102.105 81.1977C100.333 80.6293 99.3574 78.7325 99.9256 76.9604L101.17 73.0785C101.033 72.9396 100.889 72.7949 100.738 72.6469C99.6712 71.6012 98.5338 70.6502 97.6843 70.2123C96.0958 69.3934 94.8764 68.9859 93.7224 68.8207C93.5827 68.8007 93.4408 68.7835 93.2967 68.7699C93.4795 69.4333 93.6447 70.045 93.7849 70.5873C93.9843 71.358 94.1395 71.9923 94.2459 72.436C94.299 72.6575 94.3409 72.8317 94.3689 72.9526C94.3829 73.013 94.3937 73.0614 94.4011 73.0942C94.4048 73.1101 94.4079 73.1233 94.4099 73.1322C94.4109 73.1363 94.4123 73.1395 94.4129 73.142L94.4138 73.1479L94.447 73.3178C94.7498 75.0748 93.624 76.7795 91.865 77.1752C90.0492 77.5835 88.246 76.4421 87.8377 74.6264C87.8377 74.6264 87.8373 74.6233 87.8367 74.6205C87.8354 74.6149 87.8327 74.6058 87.8299 74.5932C87.8241 74.5678 87.8147 74.5284 87.8025 74.476C87.778 74.3704 87.7412 74.211 87.6922 74.0063C87.5939 73.5965 87.4485 73.0017 87.2605 72.2748C87.1263 71.7558 86.9679 71.1721 86.7937 70.5405C85.4382 71.4053 84.841 72.1596 84.574 72.8031C84.1461 73.8351 84.1171 75.6666 85.7312 79.5531C86.5632 81.5565 87.2725 83.3737 87.8738 85.0531C90.4425 92.2271 93.6535 97.1997 94.2879 105.955C94.5286 109.28 94.5545 115.961 94.5261 121.666C94.5118 124.55 94.4819 127.234 94.4568 129.197C94.4442 130.178 94.4331 130.981 94.4246 131.538C94.4203 131.815 94.4172 132.032 94.4148 132.18C94.4136 132.254 94.4116 132.311 94.4109 132.349V132.404L94.4099 132.407C94.3776 134.267 92.8438 135.751 90.9832 135.719C89.1223 135.687 87.6394 134.151 87.6717 132.29L87.6726 132.288V132.235C87.6733 132.198 87.6744 132.143 87.6756 132.071C87.6779 131.925 87.6811 131.71 87.6853 131.434C87.6938 130.882 87.7051 130.086 87.7176 129.111C87.7425 127.16 87.7717 124.494 87.7859 121.632C87.8147 115.847 87.7832 109.453 87.5652 106.443C87.5456 106.173 87.5221 105.909 87.4978 105.65C86.1426 106.386 85.0151 107.313 84.0652 108.489C82.8954 109.936 80.7735 110.162 79.326 108.993C77.8786 107.823 77.6544 105.701 78.824 104.253C80.844 101.754 83.3018 100.042 86.0691 98.8676C84.9631 95.5842 83.367 92.4577 81.5291 87.3246C80.9747 85.7762 80.3074 84.0673 79.5066 82.1391C77.7664 77.949 76.8267 73.8905 78.3494 70.2201C79.8724 66.5497 83.4096 64.348 87.6052 62.6205L87.9158 62.4926L88.2459 62.4291C88.4097 62.3973 88.5731 62.3689 88.7351 62.3403C86.3841 61.509 84.0267 60.1169 81.8279 58.2426C80.4993 58.9073 79.1888 59.4423 78.0496 59.7768C77.4268 59.9596 76.7359 60.1182 76.0613 60.1684C75.724 60.1934 75.2872 60.2003 74.8133 60.1215C74.3682 60.0475 73.6285 59.8554 72.9343 59.2826C71.4988 58.0982 71.2949 55.9741 72.4793 54.5385C73.3157 53.5248 74.6209 53.127 75.8211 53.3969C75.9129 53.3754 76.0234 53.3475 76.1511 53.31C76.4116 53.2335 76.7109 53.1296 77.0418 53.0024C76.7074 52.5361 76.3827 52.0561 76.0681 51.5629C75.7281 51.6431 75.2995 51.7448 74.7918 51.8647C73.3881 52.1961 71.3773 52.6719 68.949 53.2465C64.0919 54.3959 57.5646 55.9435 50.8836 57.5365C46.7726 58.5168 42.6243 59.5103 38.7781 60.436C38.6422 60.6692 38.4779 60.8911 38.281 61.0932C32.1608 67.3771 23.8277 77.3061 17.8953 87.3617C41.1166 83.1696 54.1356 112.255 32.8279 122.362C29.3192 123.129 26.0323 123.197 23.0388 122.72C29.0717 126.306 36.1939 128.874 42.9968 129.766C43.2308 129.797 43.4641 129.822 43.6961 129.849C40.8057 125.999 40.8078 120.349 45.9226 117.585C53.1466 115.979 58.547 122.81 57.659 128.347C61.4155 126.716 64.1866 123.913 65.4783 119.499C66.0923 117.401 66.4819 115.425 66.7136 113.595C66.4035 113.762 66.0817 113.924 65.7468 114.076C49.0084 117.183 39.5415 96.2983 54.2537 88.7865C61.9122 87.1487 68.122 90.9742 71.1248 96.2309C71.2619 96.4144 71.3828 96.6145 71.4832 96.8305L71.4568 96.8422L71.4578 96.8451C71.4802 96.835 71.4842 96.8334 71.4842 96.8334L71.4861 96.8373C71.487 96.8393 71.488 96.842 71.489 96.8442C71.4912 96.8487 71.4933 96.8542 71.4959 96.8598C71.5012 96.8715 71.5082 96.8857 71.5154 96.9018C71.5299 96.9343 71.5486 96.9767 71.5701 97.0268C71.6006 97.0979 71.6358 97.1875 71.6785 97.2934C72.3622 98.7378 72.8104 100.264 72.99 101.797C73.1236 102.444 73.2508 103.148 73.3592 103.907C73.9734 108.21 74.037 114.25 71.947 121.392C70.0406 127.906 65.7469 132.21 60.2547 134.569C54.882 136.876 48.4867 137.283 42.1199 136.449C29.4563 134.788 15.6612 128.039 7.80349 118.862C4.04023 114.466 3.36702 108.872 4.26736 103.303C5.16348 97.7607 7.66601 91.8327 10.8338 86.1303C15.388 77.9322 21.556 69.7802 27.1834 63.2533C24.1777 63.9955 22.0365 64.5401 21.2322 64.7778C18.9761 65.4444 15.8356 66.7493 13.6384 68.3959C12.5371 69.2214 11.9065 69.96 11.6277 70.5238C11.4148 70.9548 11.4005 71.2554 11.5808 71.6762C12.3136 73.3867 11.5208 75.3679 9.81032 76.101C8.09976 76.8338 6.1186 76.041 5.38552 74.3305C4.35292 71.9209 4.58828 69.5561 5.58669 67.5365C6.51963 65.6496 8.06381 64.1511 9.59646 63.0024C12.6673 60.701 16.6367 59.1076 19.323 58.3139C21.9075 57.5503 36.031 54.1486 49.3201 50.9799C56.0061 49.3857 62.5379 47.8368 67.3972 46.6869C69.6871 46.1451 71.6059 45.6907 72.9949 45.3627C71.9935 42.617 71.4439 39.8773 71.3386 37.2992C71.1507 32.6964 72.3754 28.6107 74.9461 25.9301C63.3072 26.0818 55.4002 27.4986 50.6541 30.4262C48.2118 31.9328 46.6503 33.8161 45.7869 36.2104C44.8968 38.679 44.6548 41.9565 45.365 46.3422C45.6623 48.1793 44.414 49.909 42.5769 50.2065C40.7398 50.504 39.0094 49.2564 38.7117 47.4194C37.8883 42.3344 38.0437 37.816 39.447 33.9242C40.8772 29.9584 43.5066 26.9154 47.116 24.6889C54.0627 20.404 64.7249 19.1065 78.0935 19.1781ZM102.902 39.5873C106.655 48.8372 105.242 58.2428 99.0828 61.8198C98.4537 62.1851 97.7959 62.4759 97.116 62.6977C98.3393 63.0723 99.5403 63.5865 100.773 64.2221C102.573 65.15 104.311 66.7096 105.457 67.8324C105.832 68.2003 106.169 68.5518 106.46 68.8588C106.572 68.8642 106.688 68.8709 106.807 68.8793C107.978 68.9616 109.633 69.2074 111.302 69.9301C113.001 70.6663 114.81 71.9442 116.016 74.099C117.222 76.2543 117.618 78.9179 117.171 82.0444C116.439 87.1546 115.626 91.1784 114.488 96.0346C123.584 95.8491 134.083 95.273 146.016 92.5082C153.791 90.7068 159.008 87.4258 162.518 83.5678C166.047 79.6898 168.027 75.0346 168.997 70.2397C169.948 65.5375 169.903 60.8116 169.455 56.8012C168.875 56.9657 168.277 57.1004 167.665 57.1996C160.132 58.4193 153.158 54.046 152.087 47.4321C151.836 45.8866 151.931 44.3554 152.318 42.9008C145.401 43.1035 136.555 44.6944 126.323 48.0483C120.551 49.94 115.843 49.3007 111.737 47.0629C108.365 45.225 105.51 42.3441 102.902 39.5873ZM86.5252 30.4897C83.5614 29.0637 81.6122 29.3831 80.5896 29.977C79.4211 30.6559 77.897 32.6866 78.074 37.0239C78.1957 40.0043 79.1671 43.5359 81.1922 47.0229C81.7318 47.9519 82.312 48.8139 82.9168 49.6108C83.8703 48.8449 84.6703 48.0464 85.2 47.2709C86.2496 45.734 88.3466 45.3395 89.8836 46.3891C91.4202 47.4387 91.8156 49.5349 90.7664 51.0717C89.958 52.2553 88.9208 53.3447 87.7869 54.3246C88.4529 54.7788 89.1144 55.1656 89.7635 55.478C92.727 56.9038 94.6764 56.5854 95.699 55.9916C96.7214 55.3976 97.9639 53.8627 98.1941 50.5824C98.4211 47.346 97.5306 43.1366 95.0974 38.9467C92.664 34.7566 89.4489 31.8964 86.5252 30.4897Z" fill="#1A1A1A"/>
<path d="M38.034 78.2153C45.1083 76.6421 49.709 86.5298 43.4177 89.5434C36.2709 90.9197 31.8356 81.5645 38.034 78.2153Z" fill="#1A1A1A"/>
<path d="M92.7478 4.36663C97.585 3.46887 102.169 4.10765 106.289 6.35295C110.36 8.5719 113.744 12.2278 116.487 16.9828C117.417 18.5947 116.863 20.6561 115.252 21.5864C113.64 22.5162 111.579 21.9629 110.649 20.351C108.34 16.3478 105.76 13.7416 103.063 12.2719C100.415 10.8288 97.4231 10.353 93.9773 10.9926C92.1476 11.3322 90.3886 10.1249 90.0486 8.29534C89.709 6.46544 90.9179 4.70628 92.7478 4.36663Z" fill="#1A1A1A"/>
<path d="M75.2859 5.64006C76.9094 4.73027 78.9629 5.30778 79.8728 6.93108C80.7826 8.55456 80.2042 10.608 78.5808 11.518C76.1171 12.8986 70.2027 14.6141 63.7019 12.2289C61.9549 11.5878 61.0581 9.65086 61.699 7.90373C62.3401 6.15652 64.277 5.25981 66.0242 5.9008C70.3552 7.48976 74.2155 6.23959 75.2859 5.64006Z" fill="#1A1A1A"/>
</svg>
