<svg preserveAspectRatio="none" width="100%" height="100%" overflow="visible" style="display: block;" viewBox="0 0 195 199" fill="none" xmlns="http://www.w3.org/2000/svg">
<g id="logo">
<path id="Vector" d="M105.107 86.4265C81.571 89.3821 68.9744 40.4184 94.0459 31.2918C119.445 28.4777 130.141 79.0354 105.107 86.4265Z" fill="var(--fill-0, #FB943F)"/>
<path id="Vector_2" d="M79.9086 102.061C68.3123 125.496 17.4838 108.985 24.559 80.5855C37.4045 55.5118 88.4934 74.6938 79.9086 102.061Z" fill="var(--fill-0, #FB943F)"/>
<path id="Vector_3" d="M133.65 97.4584C117.74 81.3178 139.319 48.0464 159.825 62.3265C176.77 79.9275 153.1 112.556 133.65 97.4584Z" fill="var(--fill-0, #FB943F)"/>
<path id="Vector_4" d="M142.596 120.58C145.942 105.726 176.556 107.868 176.401 124.885C172.576 140.839 141.459 137.227 142.596 120.58Z" fill="var(--fill-0, #FB943F)"/>
<path id="Vector_5" d="M124.679 134.593C132.31 129.131 148.648 154.176 141.969 163.302C133.643 168.988 117.592 142.752 124.679 134.593Z" fill="var(--fill-0, #FB943F)"/>
<path id="Vector_6" d="M107.796 142.31C115.982 143.084 115.132 163.865 105.794 165.449C96.9988 164.463 98.6496 143.198 107.796 142.31Z" fill="var(--fill-0, #FB943F)"/>
<path id="Vector_7" d="M78.8035 147.117C72.9944 149.199 67.222 150.007 61.26 147.984C55.433 146.07 51.678 140.481 54.103 134.435C56.1195 129.408 60.8072 126.183 65.589 124.105C88.9014 114.17 103.742 136.894 78.8035 147.117Z" fill="var(--fill-0, #FB943F)"/>
</g>
</svg>
