<svg width="181" height="137" viewBox="0 0 181 137" fill="none" xmlns="http://www.w3.org/2000/svg">
<path fill-rule="evenodd" clip-rule="evenodd" d="M52.4995 1.47398C56.1891 -1.06314 61.1955 -0.237633 63.8862 3.27867L64.1391 3.6273C64.989 4.86327 65.4591 6.2481 65.5796 7.64292C67.4903 7.40418 69.4563 7.20911 71.4731 7.05601L72.27 7.00328C88.8838 6.03682 98.4698 14.7793 104.967 20.639C108.516 23.8392 110.485 25.5254 112.408 26.3793C113.614 26.9147 114.986 27.232 117.714 26.0853C129.812 21.0008 140.867 18.2035 149.877 17.7191C151.991 16.1373 154.473 14.9406 157.209 14.266C166.687 11.9299 177.174 16.6368 179.58 26.3968C180.708 30.9767 179.683 35.4927 177.336 39.1595C178.397 44.2752 179.02 50.4997 178.251 56.9564C177.482 63.4211 175.284 70.3606 170.511 76.5482C165.697 82.7884 158.655 87.7514 149.062 90.8119C131.691 96.3533 116.783 97.2229 106.172 98.2757C100.682 98.8206 96.8202 99.3699 93.9135 100.316C91.2481 101.183 89.9894 102.195 89.1723 103.393C87.0802 106.46 83.309 107.697 79.9262 106.715C79.8561 109.399 79.5524 112.315 78.9096 115.429C77.2127 123.649 72.2619 129.48 65.7651 132.918C59.5528 136.206 52.2364 137.18 45.2583 136.836C31.4777 136.157 15.9425 130.16 6.35299 120.643C0.832551 115.164 -0.407689 107.953 0.105915 101.478C0.614936 95.0622 2.88136 88.3487 5.6899 82.1585L6.22799 80.9925C11.883 68.9445 20.3506 57.0253 26.5239 49.5619C27.5282 48.3481 28.8038 47.4903 30.1889 47.0033C28.8691 41.5179 28.5828 36.1154 29.8364 31.0209C31.1392 25.7271 33.9825 21.2755 38.0678 17.7601C39.5887 16.4515 41.2573 15.2939 43.0473 14.2699C44.2592 10.3295 47.0575 5.21673 52.4995 1.47398ZM35.1215 52.3011C33.6876 51.1152 31.5637 51.3158 30.3774 52.7494C24.1768 60.2458 15.6455 72.3192 10.2436 84.225L9.74556 85.3402C7.3019 90.9267 5.5066 96.6263 5.09029 101.873L5.0522 102.4C4.71644 107.84 5.89683 113.145 9.87545 117.094C18.4511 125.605 32.748 131.214 45.5044 131.843C51.7172 132.149 57.8626 131.29 62.9389 128.75L63.4272 128.499C68.5449 125.791 72.3933 121.353 73.8764 115.035L74.0131 114.418C75.4234 107.586 75.0252 101.872 74.1782 97.6917L74.0034 96.8763C73.8325 96.1225 73.6476 95.4247 73.4604 94.7865C73.1572 93.2824 72.5904 91.8069 71.7983 90.431C71.745 90.3244 71.7 90.2342 71.6626 90.1634C71.6372 90.1155 71.6152 90.0745 71.5981 90.0433C71.5897 90.028 71.5819 90.0135 71.5756 90.0023C71.5727 89.9971 71.5693 89.9919 71.5669 89.9876C71.5657 89.9857 71.563 89.9818 71.563 89.9818L71.562 89.9779C71.562 89.9779 71.5577 89.9794 71.5356 89.9916L71.5337 89.9886L71.56 89.975C71.4417 89.7665 71.3035 89.5753 71.1508 89.4027C67.7313 84.4088 61.2334 81.1016 53.7348 83.3539L53.4096 83.5589C39.8533 92.3446 50.9364 112.047 67.2397 107.627C67.5611 107.449 67.869 107.262 68.1645 107.071C68.0819 108.914 67.8545 110.915 67.4126 113.056L67.3198 113.474C66.3221 117.748 63.8336 120.64 60.3335 122.51C60.7712 116.919 54.8338 110.546 47.7631 112.733L47.3217 113.036C42.9202 116.251 43.4449 121.645 46.5376 125.136C46.3051 125.128 46.071 125.122 45.8364 125.111C38.9838 124.773 31.6768 122.791 25.3735 119.706C28.3949 119.939 31.6653 119.604 35.0991 118.555C55.5162 106.755 40.1849 78.8228 17.3813 84.8802C22.1607 75.0334 29.0511 65.1252 34.5004 58.3558L35.5708 57.0453C36.7565 55.6113 36.5551 53.4873 35.1215 52.3011ZM60.02 6.46128C58.9654 4.92811 56.8668 4.53987 55.3335 5.5941C49.9551 9.29304 47.8502 14.6739 47.3764 17.6312C45.0911 18.7545 43.0684 20.054 41.3295 21.5502L40.7153 22.097C37.7117 24.8718 35.6679 28.2499 34.6919 32.2162L34.5981 32.6097C33.6756 36.69 33.9065 41.1997 35.1069 46.0697C35.5387 47.8198 37.2659 48.911 39.0161 48.5726L39.186 48.5355C40.9924 48.0898 42.0958 46.263 41.6508 44.4564C40.594 40.1685 40.5366 36.6723 41.2368 33.8265C41.9254 31.0286 43.3914 28.6685 45.726 26.6595C50.5521 22.507 59.2121 19.7613 72.3628 18.763C84.1628 17.8677 90.6534 23.5393 97.104 29.3568C100.233 32.1787 103.661 35.341 107.645 37.1097C111.785 38.9476 116.367 39.244 121.74 37.1214L122.263 36.9086C132.191 32.736 140.88 30.4334 147.758 29.6712C147.49 31.1526 147.52 32.6871 147.895 34.2074C149.499 40.7124 156.805 44.506 164.213 42.68C164.815 42.5318 165.399 42.3494 165.962 42.139C166.733 46.0995 167.161 50.8058 166.594 55.5687C166.016 60.4264 164.419 65.2272 161.217 69.3783L160.913 69.764C157.719 73.7373 152.86 77.2776 145.495 79.6273L144.007 80.0912C128.713 84.7611 115.692 85.5345 105.013 86.5941L102.994 86.8021C98.3297 87.3035 94.0087 87.9395 90.2807 89.1527L89.4702 89.4281C85.4565 90.8607 81.9891 93.0912 79.4741 96.7787C78.4258 98.3161 78.8226 100.413 80.3598 101.461L80.5053 101.555C81.978 102.453 83.8979 102.09 84.9409 100.716L85.0424 100.576C86.5528 98.3613 88.6912 96.8609 91.7436 95.7738L92.3667 95.5619C95.4148 94.57 99.1351 93.9972 103.68 93.5062L105.679 93.3001C116.127 92.2635 129.89 91.4475 145.978 86.5365L147.542 86.0482C156.015 83.3453 162.046 79.1105 166.161 73.9925L166.553 73.4945C170.401 68.5067 172.347 62.8962 173.142 57.4515L173.287 56.3656C174.085 49.6543 173.217 43.1194 171.956 38.0306C174.413 35.2066 175.568 31.5516 174.804 27.9427L174.725 27.5941C173.121 21.0889 165.815 17.2955 158.407 19.1214L157.921 19.2484C155.519 19.9211 153.421 21.1187 151.752 22.6517C151.511 22.6566 151.268 22.6635 151.024 22.6722L150.23 22.7064C141.957 23.1372 131.45 25.7361 119.652 30.6947L119.285 30.8441C115.767 32.2399 113.167 32.0621 110.854 31.1488L110.379 30.9496C107.927 29.8607 105.634 27.9488 102.845 25.4554L101.619 24.3519C95.0826 18.4574 86.6984 10.9157 71.852 12.0423L70.7397 12.1312C65.2132 12.5985 60.2059 13.3878 55.7885 14.5619C56.5735 13.3876 57.6648 12.1712 59.1528 11.1478C60.6857 10.0932 61.074 7.99459 60.02 6.46128ZM42.9936 84.9857C49.0192 81.4722 43.6334 71.9909 36.7104 74.1312L36.4409 74.3148C31.0523 78.1866 35.9307 86.6318 42.6655 85.0687L42.9936 84.9857ZM56.9741 35.7279C55.1534 30.8454 50.9914 27.8883 47.6782 29.1234C44.3651 30.359 43.1556 35.3189 44.976 40.2015C46.7399 44.9315 50.7004 47.8546 53.9585 46.9095L54.2719 46.806C57.4813 45.6089 58.7162 40.9169 57.1352 36.1859L56.9741 35.7279ZM76.2856 29.5804C74.4649 24.6979 70.3029 21.7408 66.9897 22.9759C63.6766 24.2115 62.4671 29.1715 64.2876 34.0541C66.0514 38.784 70.0119 41.7072 73.27 40.7621L73.5835 40.6586C76.7929 39.4615 78.0277 34.7694 76.4467 30.0384L76.2856 29.5804Z" fill="#FAFAF8"/>
<path fill-rule="evenodd" clip-rule="evenodd" d="M30.6616 0.349956C34.8688 -0.46366 39.0223 2.04723 40.2573 6.15074L40.3715 6.56578V6.56773C41.442 10.9161 38.9009 15.3046 34.6635 16.5804L34.2475 16.6947C32.0151 17.2449 30.5524 18.219 29.4975 19.5052L29.2915 19.766C28.1402 21.2912 27.0891 23.7756 26.6997 27.7318C26.2471 32.3292 22.1541 35.6944 17.5522 35.2425C12.952 34.7897 9.58792 30.6923 10.0405 26.0921C10.6413 19.9886 12.4375 14.3081 15.9311 9.68003L16.271 9.24058C19.818 4.75154 24.6266 1.82558 30.2407 0.441753L30.6616 0.349956ZM35.517 7.76304C35.0716 5.95625 33.2448 4.8521 31.4379 5.29722C26.6611 6.47465 22.7494 8.94789 19.9223 12.6927C17.1286 16.3935 15.5548 21.1192 15.017 26.5824C14.835 28.4344 16.1894 30.0847 18.0415 30.2669C19.8353 30.4429 21.4384 29.1772 21.7026 27.4144L21.7241 27.2425C22.1485 22.9309 23.2943 19.6392 24.9604 17.225L25.3012 16.7543C27.0048 14.4977 29.3347 12.8904 32.4233 12.0072L33.0512 11.8402C34.8574 11.3945 35.9616 9.56941 35.517 7.76304Z" fill="#FAFAF8"/>
<path d="M30.3774 52.7494C31.5637 51.3158 33.6876 51.1152 35.1215 52.3011C36.5551 53.4873 36.7565 55.6113 35.5708 57.0453C29.9799 63.8045 22.4793 74.3769 17.3813 84.8802C40.1849 78.8228 55.5162 106.755 35.0991 118.555C31.6653 119.604 28.3949 119.939 25.3735 119.706C31.6768 122.791 38.9838 124.773 45.8364 125.111C46.071 125.122 46.3051 125.128 46.5376 125.136C43.3451 121.533 42.8894 115.901 47.7631 112.733C54.8338 110.546 60.7712 116.919 60.3335 122.51C63.9468 120.58 66.4826 117.561 67.4126 113.056C67.8545 110.915 68.0819 108.914 68.1645 107.071C67.869 107.262 67.5611 107.449 67.2397 107.627C50.808 112.082 39.6797 92.0333 53.7348 83.3539C61.2334 81.1016 67.7313 84.4088 71.1508 89.4027C71.3035 89.5753 71.4417 89.7665 71.56 89.975L71.5337 89.9886L71.5356 89.9916C71.5577 89.9794 71.562 89.9779 71.562 89.9779L71.563 89.9818C71.564 89.9837 71.5656 89.9855 71.5669 89.9876C71.5693 89.9919 71.5727 89.9971 71.5756 90.0023C71.5819 90.0135 71.5897 90.028 71.5981 90.0433C71.6152 90.0745 71.6372 90.1155 71.6626 90.1634C71.7 90.2342 71.745 90.3244 71.7983 90.431C72.5904 91.8069 73.1572 93.2824 73.4604 94.7865C73.6476 95.4247 73.8325 96.1225 74.0034 96.8763C74.9643 101.115 75.5175 107.13 74.0131 114.418C72.6409 121.066 68.7102 125.704 63.4272 128.499C58.2592 131.234 51.9178 132.159 45.5044 131.843C32.748 131.214 18.4511 125.605 9.87545 117.094C5.76843 113.018 4.6442 107.497 5.09029 101.873C5.53431 96.2765 7.54836 90.1654 10.2436 84.225C15.6455 72.3192 24.1768 60.2458 30.3774 52.7494Z" fill="#1A1A1A"/>
<path d="M55.3335 5.5941C56.8668 4.53987 58.9654 4.92811 60.02 6.46128C61.074 7.99459 60.6857 10.0932 59.1528 11.1478C57.6648 12.1712 56.5735 13.3876 55.7885 14.5619C60.5004 13.3095 65.8835 12.4954 71.852 12.0423C86.6984 10.9157 95.0826 18.4574 101.619 24.3519C104.983 27.3857 107.577 29.7051 110.379 30.9496C112.892 32.065 115.7 32.3556 119.652 30.6947C131.831 25.576 142.634 22.9728 151.024 22.6722C151.268 22.6635 151.511 22.6566 151.752 22.6517C153.532 21.0163 155.802 19.7635 158.407 19.1214C165.815 17.2955 173.121 21.0889 174.725 27.5941C175.642 31.3154 174.492 35.1155 171.956 38.0306C173.217 43.1194 174.085 49.6543 173.287 56.3656C172.598 62.146 170.657 68.1742 166.553 73.4945C162.432 78.8359 156.289 83.2581 147.542 86.0482C130.781 91.3951 116.464 92.23 105.679 93.3001C100.212 93.8426 95.8503 94.4282 92.3667 95.5619C88.9795 96.6642 86.6535 98.2136 85.0424 100.576C83.9938 102.113 81.8973 102.509 80.3598 101.461C78.8226 100.413 78.4258 98.3161 79.4741 96.7787C82.1567 92.8453 85.9236 90.5706 90.2807 89.1527C94.5414 87.7661 99.5766 87.1335 105.013 86.5941C116.036 85.5003 129.556 84.7119 145.495 79.6273C153.098 77.2017 158.031 73.508 161.217 69.3783C164.419 65.2272 166.016 60.4264 166.594 55.5687C167.161 50.8058 166.733 46.0995 165.962 42.139C165.399 42.3494 164.815 42.5318 164.213 42.68C156.805 44.506 149.499 40.7124 147.895 34.2074C147.52 32.6871 147.49 31.1526 147.758 29.6712C140.88 30.4334 132.191 32.736 122.263 36.9086C116.663 39.262 111.919 39.0072 107.645 37.1097C103.661 35.341 100.233 32.1787 97.104 29.3568C90.6534 23.5393 84.1628 17.8677 72.3628 18.763C59.2121 19.7613 50.5521 22.507 45.726 26.6595C43.3914 28.6685 41.9254 31.0286 41.2368 33.8265C40.5366 36.6723 40.594 40.1685 41.6508 44.4564C42.0958 46.263 40.9924 48.0898 39.186 48.5355C37.379 48.9809 35.5525 47.8765 35.1069 46.0697C33.8677 41.0423 33.6625 36.3996 34.6919 32.2162C35.733 27.9853 37.9896 24.4241 41.3295 21.5502C43.0684 20.054 45.0911 18.7545 47.3764 17.6312C47.8502 14.6739 49.9551 9.29304 55.3335 5.5941Z" fill="#1A1A1A"/>
<path d="M42.9936 84.9857C49.0192 81.4722 43.6334 71.9909 36.7104 74.1312C30.8034 77.9716 35.9817 86.9367 42.9936 84.9857Z" fill="#1A1A1A"/>
<path d="M157.7 57.3576C158.85 55.8947 160.968 55.6419 162.431 56.7922C163.894 57.9425 164.148 60.0597 162.998 61.5227C162.277 62.4389 161.198 63.1415 160.319 63.6418C159.331 64.2042 158.131 64.7653 156.809 65.2971C154.16 66.3625 150.817 67.3916 147.271 68.1076C143.734 68.8216 139.877 69.2478 136.231 69.0353C132.628 68.8253 128.912 67.9727 125.963 65.8293C124.458 64.7348 124.125 62.6256 125.219 61.1203C126.314 59.6155 128.422 59.2828 129.927 60.3771C131.419 61.462 133.682 62.1363 136.624 62.3078C139.522 62.4767 142.774 62.1397 145.937 61.5012C149.09 60.8646 152.037 59.952 154.294 59.0441C155.425 58.5893 156.334 58.155 156.985 57.7844C157.745 57.3517 157.838 57.182 157.7 57.3576Z" fill="#1A1A1A"/>
<path d="M47.6782 29.1234C50.9914 27.8883 55.1534 30.8454 56.9741 35.7279C58.7948 40.6107 57.5852 45.5705 54.2719 46.806C50.9586 48.0415 46.7967 45.0843 44.976 40.2015C43.1556 35.3189 44.3651 30.359 47.6782 29.1234Z" fill="#1A1A1A"/>
<path d="M66.9897 22.9759C70.3029 21.7408 74.4649 24.6979 76.2856 29.5804C78.1063 34.4632 76.8968 39.423 73.5835 40.6586C70.2701 41.894 66.1083 38.9369 64.2876 34.0541C62.4671 29.1715 63.6766 24.2115 66.9897 22.9759Z" fill="#1A1A1A"/>
<path d="M31.4379 5.29722C33.2448 4.8521 35.0716 5.95625 35.517 7.76304C35.9616 9.56941 34.8574 11.3945 33.0512 11.8402C29.6483 12.679 27.1183 14.3472 25.3012 16.7543C23.451 19.2054 22.1768 22.6434 21.7241 27.2425C21.5418 29.0945 19.8933 30.4488 18.0415 30.2669C16.1894 30.0847 14.835 28.4344 15.017 26.5824C15.5548 21.1192 17.1286 16.3935 19.9223 12.6927C22.7494 8.94789 26.6611 6.47465 31.4379 5.29722Z" fill="#1A1A1A"/>
</svg>
