<?xml version="1.0" encoding="UTF-8" standalone="no"?>
<!DOCTYPE svg PUBLIC "-//W3C//DTD SVG 1.1//EN" "http://www.w3.org/Graphics/SVG/1.1/DTD/svg11.dtd">
<svg xmlns="http://www.w3.org/2000/svg" version="1.1" viewBox="0.00 0.00 512.00 512.00" width="128" height="128">
<g stroke-width="2.00" fill="none" stroke-linecap="butt">
<path stroke="#808080" vector-effect="non-scaling-stroke" d="
  M 127.53 447.23
  C 132.39 453.46 138.46 457.54 146.56 458.63
  Q 152.86 459.47 159.07 459.10
  Q 382.14 445.65 424.50 443.04
  Q 429.50 442.73 435.05 441.09
  C 449.04 436.95 452.05 425.37 452.04 412.50
  Q 451.92 173.23 452.06 134.50
  Q 452.09 127.57 448.25 123.51
  Q 445.06 120.15 435.15 113.17
  Q 361.32 61.17 357.95 58.85
  C 346.16 50.76 334.80 49.20 321.75 50.16
  Q 121.56 64.90 83.75 67.73
  C 75.30 68.36 67.05 72.58 63.26 80.37
  Q 60.04 86.99 60.04 93.01
  Q 59.94 245.00 60.04 344.25
  Q 60.05 354.58 65.25 364.24
  Q 68.99 371.19 71.63 374.62
  Q 119.43 436.81 127.53 447.23"
/>
<path stroke="#808080" vector-effect="non-scaling-stroke" d="
  M 396.14 115.11
  Q 396.30 114.25 395.32 112.76
  Q 394.51 111.54 393.51 110.84
  Q 387.90 106.96 363.97 89.45
  Q 349.60 78.93 345.37 76.94
  Q 335.26 72.19 323.49 73.04
  Q 134.67 86.74 101.75 89.26
  C 98.94 89.48 93.87 91.44 95.27 95.16
  Q 95.72 96.34 98.03 98.20
  Q 117.46 113.87 131.68 124.83
  C 139.76 131.05 148.43 130.96 158.24 130.36
  Q 227.21 126.17 395.01 116.10
  A 1.22 1.21 -86.0 0 0 396.14 115.11"
/>
<path stroke="#808080" vector-effect="non-scaling-stroke" d="
  M 147.37 159.86
  Q 141.15 163.66 141.15 171.03
  Q 141.08 378.00 141.15 413.03
  C 141.17 424.20 149.37 428.70 159.55 428.12
  Q 221.56 424.61 405.12 413.91
  Q 414.36 413.37 417.20 411.97
  C 423.88 408.68 424.89 401.61 424.89 394.50
  Q 424.86 276.17 424.88 157.89
  C 424.89 150.27 422.18 142.64 413.24 143.16
  Q 281.35 150.86 154.28 158.30
  C 152.21 158.43 148.94 158.90 147.37 159.86"
/>
<path stroke="#808080" vector-effect="non-scaling-stroke" d="
  M 337.83 317.58
  L 257.44 194.54
  A 0.85 0.85 0.0 0 0 256.68 194.16
  Q 200.71 197.94 199.49 198.02
  Q 184.77 199.07 184.36 214.67
  A 1.80 1.80 0.0 0 0 186.02 216.52
  L 204.34 217.97
  A 0.45 0.44 -88.0 0 1 204.75 218.42
  L 204.75 374.14
  A 0.77 0.77 0.0 0 1 204.19 374.88
  L 189.97 378.79
  A 3.51 3.49 -70.6 0 0 188.83 379.34
  Q 183.20 383.44 184.58 391.01
  A 0.47 0.47 0.0 0 0 185.08 391.40
  Q 218.66 389.46 243.24 388.03
  C 251.27 387.56 258.45 383.00 259.48 374.49
  A 0.66 0.65 9.8 0 0 258.97 373.78
  L 235.41 368.48
  A 0.69 0.68 -83.7 0 1 234.88 367.81
  L 234.88 250.56
  A 0.23 0.23 0.0 0 1 235.31 250.44
  Q 272.41 308.80 311.20 369.79
  C 313.75 373.79 317.04 377.71 320.14 381.12
  C 332.29 394.42 352.89 386.61 365.90 379.50
  A 0.44 0.42 76.3 0 0 366.12 379.12
  L 366.12 204.83
  A 0.45 0.44 -6.6 0 1 366.47 204.40
  Q 373.82 202.84 376.39 202.44
  C 381.25 201.67 384.21 200.22 385.30 195.55
  Q 386.27 191.36 385.20 187.49
  A 0.68 0.67 80.1 0 0 384.50 186.99
  Q 375.78 187.54 336.42 189.79
  Q 329.20 190.20 327.64 190.65
  C 320.71 192.65 316.59 198.18 317.48 205.49
  A 0.75 0.75 0.0 0 0 318.14 206.15
  L 337.96 208.42
  A 0.33 0.33 0.0 0 1 338.26 208.75
  L 338.26 317.45
  A 0.23 0.23 0.0 0 1 337.83 317.58"
/>
</g>
<path fill="#ffffff" d="
  M 512.00 0.00
  L 512.00 512.00
  L 0.00 512.00
  L 0.00 0.00
  L 512.00 0.00
  Z
  M 127.53 447.23
  C 132.39 453.46 138.46 457.54 146.56 458.63
  Q 152.86 459.47 159.07 459.10
  Q 382.14 445.65 424.50 443.04
  Q 429.50 442.73 435.05 441.09
  C 449.04 436.95 452.05 425.37 452.04 412.50
  Q 451.92 173.23 452.06 134.50
  Q 452.09 127.57 448.25 123.51
  Q 445.06 120.15 435.15 113.17
  Q 361.32 61.17 357.95 58.85
  C 346.16 50.76 334.80 49.20 321.75 50.16
  Q 121.56 64.90 83.75 67.73
  C 75.30 68.36 67.05 72.58 63.26 80.37
  Q 60.04 86.99 60.04 93.01
  Q 59.94 245.00 60.04 344.25
  Q 60.05 354.58 65.25 364.24
  Q 68.99 371.19 71.63 374.62
  Q 119.43 436.81 127.53 447.23
  Z"
/>
<path fill="#000000" d="
  M 146.56 458.63
  C 138.46 457.54 132.39 453.46 127.53 447.23
  Q 119.43 436.81 71.63 374.62
  Q 68.99 371.19 65.25 364.24
  Q 60.05 354.58 60.04 344.25
  Q 59.94 245.00 60.04 93.01
  Q 60.04 86.99 63.26 80.37
  C 67.05 72.58 75.30 68.36 83.75 67.73
  Q 121.56 64.90 321.75 50.16
  C 334.80 49.20 346.16 50.76 357.95 58.85
  Q 361.32 61.17 435.15 113.17
  Q 445.06 120.15 448.25 123.51
  Q 452.09 127.57 452.06 134.50
  Q 451.92 173.23 452.04 412.50
  C 452.05 425.37 449.04 436.95 435.05 441.09
  Q 429.50 442.73 424.50 443.04
  Q 382.14 445.65 159.07 459.10
  Q 152.86 459.47 146.56 458.63
  Z
  M 396.14 115.11
  Q 396.30 114.25 395.32 112.76
  Q 394.51 111.54 393.51 110.84
  Q 387.90 106.96 363.97 89.45
  Q 349.60 78.93 345.37 76.94
  Q 335.26 72.19 323.49 73.04
  Q 134.67 86.74 101.75 89.26
  C 98.94 89.48 93.87 91.44 95.27 95.16
  Q 95.72 96.34 98.03 98.20
  Q 117.46 113.87 131.68 124.83
  C 139.76 131.05 148.43 130.96 158.24 130.36
  Q 227.21 126.17 395.01 116.10
  A 1.22 1.21 -86.0 0 0 396.14 115.11
  Z
  M 147.37 159.86
  Q 141.15 163.66 141.15 171.03
  Q 141.08 378.00 141.15 413.03
  C 141.17 424.20 149.37 428.70 159.55 428.12
  Q 221.56 424.61 405.12 413.91
  Q 414.36 413.37 417.20 411.97
  C 423.88 408.68 424.89 401.61 424.89 394.50
  Q 424.86 276.17 424.88 157.89
  C 424.89 150.27 422.18 142.64 413.24 143.16
  Q 281.35 150.86 154.28 158.30
  C 152.21 158.43 148.94 158.90 147.37 159.86
  Z"
/>
<path fill="#ffffff" d="
  M 396.14 115.11
  A 1.22 1.21 -86.0 0 1 395.01 116.10
  Q 227.21 126.17 158.24 130.36
  C 148.43 130.96 139.76 131.05 131.68 124.83
  Q 117.46 113.87 98.03 98.20
  Q 95.72 96.34 95.27 95.16
  C 93.87 91.44 98.94 89.48 101.75 89.26
  Q 134.67 86.74 323.49 73.04
  Q 335.26 72.19 345.37 76.94
  Q 349.60 78.93 363.97 89.45
  Q 387.90 106.96 393.51 110.84
  Q 394.51 111.54 395.32 112.76
  Q 396.30 114.25 396.14 115.11
  Z"
/>
<path fill="#ffffff" d="
  M 147.37 159.86
  C 148.94 158.90 152.21 158.43 154.28 158.30
  Q 281.35 150.86 413.24 143.16
  C 422.18 142.64 424.89 150.27 424.88 157.89
  Q 424.86 276.17 424.89 394.50
  C 424.89 401.61 423.88 408.68 417.20 411.97
  Q 414.36 413.37 405.12 413.91
  Q 221.56 424.61 159.55 428.12
  C 149.37 428.70 141.17 424.20 141.15 413.03
  Q 141.08 378.00 141.15 171.03
  Q 141.15 163.66 147.37 159.86
  Z
  M 337.83 317.58
  L 257.44 194.54
  A 0.85 0.85 0.0 0 0 256.68 194.16
  Q 200.71 197.94 199.49 198.02
  Q 184.77 199.07 184.36 214.67
  A 1.80 1.80 0.0 0 0 186.02 216.52
  L 204.34 217.97
  A 0.45 0.44 -88.0 0 1 204.75 218.42
  L 204.75 374.14
  A 0.77 0.77 0.0 0 1 204.19 374.88
  L 189.97 378.79
  A 3.51 3.49 -70.6 0 0 188.83 379.34
  Q 183.20 383.44 184.58 391.01
  A 0.47 0.47 0.0 0 0 185.08 391.40
  Q 218.66 389.46 243.24 388.03
  C 251.27 387.56 258.45 383.00 259.48 374.49
  A 0.66 0.65 9.8 0 0 258.97 373.78
  L 235.41 368.48
  A 0.69 0.68 -83.7 0 1 234.88 367.81
  L 234.88 250.56
  A 0.23 0.23 0.0 0 1 235.31 250.44
  Q 272.41 308.80 311.20 369.79
  C 313.75 373.79 317.04 377.71 320.14 381.12
  C 332.29 394.42 352.89 386.61 365.90 379.50
  A 0.44 0.42 76.3 0 0 366.12 379.12
  L 366.12 204.83
  A 0.45 0.44 -6.6 0 1 366.47 204.40
  Q 373.82 202.84 376.39 202.44
  C 381.25 201.67 384.21 200.22 385.30 195.55
  Q 386.27 191.36 385.20 187.49
  A 0.68 0.67 80.1 0 0 384.50 186.99
  Q 375.78 187.54 336.42 189.79
  Q 329.20 190.20 327.64 190.65
  C 320.71 192.65 316.59 198.18 317.48 205.49
  A 0.75 0.75 0.0 0 0 318.14 206.15
  L 337.96 208.42
  A 0.33 0.33 0.0 0 1 338.26 208.75
  L 338.26 317.45
  A 0.23 0.23 0.0 0 1 337.83 317.58
  Z"
/>
<path fill="#000000" d="
  M 338.26 317.45
  L 338.26 208.75
  A 0.33 0.33 0.0 0 0 337.96 208.42
  L 318.14 206.15
  A 0.75 0.75 0.0 0 1 317.48 205.49
  C 316.59 198.18 320.71 192.65 327.64 190.65
  Q 329.20 190.20 336.42 189.79
  Q 375.78 187.54 384.50 186.99
  A 0.68 0.67 80.1 0 1 385.20 187.49
  Q 386.27 191.36 385.30 195.55
  C 384.21 200.22 381.25 201.67 376.39 202.44
  Q 373.82 202.84 366.47 204.40
  A 0.45 0.44 -6.6 0 0 366.12 204.83
  L 366.12 379.12
  A 0.44 0.42 76.3 0 1 365.90 379.50
  C 352.89 386.61 332.29 394.42 320.14 381.12
  C 317.04 377.71 313.75 373.79 311.20 369.79
  Q 272.41 308.80 235.31 250.44
  A 0.23 0.23 0.0 0 0 234.88 250.56
  L 234.88 367.81
  A 0.69 0.68 -83.7 0 0 235.41 368.48
  L 258.97 373.78
  A 0.66 0.65 9.8 0 1 259.48 374.49
  C 258.45 383.00 251.27 387.56 243.24 388.03
  Q 218.66 389.46 185.08 391.40
  A 0.47 0.47 0.0 0 1 184.58 391.01
  Q 183.20 383.44 188.83 379.34
  A 3.51 3.49 -70.6 0 1 189.97 378.79
  L 204.19 374.88
  A 0.77 0.77 0.0 0 0 204.75 374.14
  L 204.75 218.42
  A 0.45 0.44 -88.0 0 0 204.34 217.97
  L 186.02 216.52
  A 1.80 1.80 0.0 0 1 184.36 214.67
  Q 184.77 199.07 199.49 198.02
  Q 200.71 197.94 256.68 194.16
  A 0.85 0.85 0.0 0 1 257.44 194.54
  L 337.83 317.58
  A 0.23 0.23 0.0 0 0 338.26 317.45
  Z"
/>
</svg>