<svg width="158" height="164" viewBox="0 0 158 164" fill="none" xmlns="http://www.w3.org/2000/svg">
<path fill-rule="evenodd" clip-rule="evenodd" d="M66.3643 0C70.9871 0 74.734 3.74829 74.7344 8.37012C74.7336 12.9932 70.9853 16.7393 66.3643 16.7393C63.9117 16.7393 62.1949 17.4164 60.8184 18.5352C59.3357 19.7403 57.7207 21.9008 56.3955 25.6494C56.2798 25.9767 56.1429 26.2915 55.9922 26.5947C56.9196 25.9943 57.895 25.4522 58.9287 24.9746C62.7988 23.1869 66.8857 22.5464 71.0176 22.2715C75.0697 22.0019 79.935 22.0527 85.3867 22.0527C86.5055 22.0527 87.5994 22.0877 88.6689 22.1514C88.1068 21.7096 87.432 21.3028 86.6348 21.002C82.3109 19.3703 80.1268 14.5417 81.7578 10.2168L81.9199 9.81738C83.6337 5.88974 88.0568 3.88961 92.1377 5.19727L92.5449 5.33984L93.292 5.63477C100.896 8.78878 104.954 14.9303 106.275 18.5781C107.249 21.2664 106.759 24.1277 105.217 26.292C109.528 28.3651 113.329 31.1277 116.758 34.4248L117.447 35.1006C124.52 42.1528 129.995 51.5001 135.34 60.3037C146.908 79.3568 157.448 101.952 157.448 121.937L157.435 122.773C157.149 131.382 152.496 138.716 146.949 144.252C141.143 150.047 133.566 154.71 125.931 157.917C118.33 161.11 110.04 163.124 102.629 163.052C95.6152 162.984 86.822 160.906 82.4346 152.93C76.17 141.539 74.5441 131.827 74.7031 124.615C74.7073 124.425 74.7121 124.237 74.7187 124.051C74.1485 124.174 73.5571 124.24 72.9502 124.24C59.1324 124.24 47.6693 124.361 38.5947 123.904C29.6666 123.455 21.7434 122.419 15.4658 119.399C8.47848 116.038 4.15202 110.551 1.96777 103.093C-0.0304278 96.2688 -0.250956 87.7545 0.191402 77.7568C0.474411 71.3638 2.75225 66.1228 6.50586 61.9473C10.0605 57.9933 14.6174 55.3541 18.9277 53.3506C23.19 51.3694 28.0754 49.6413 32.3369 48.0273C35.9672 46.6524 39.3962 45.2734 42.5918 43.6621C45.225 38.6018 47.8295 34.2658 50.9873 30.8535C49.3239 31.3719 47.4853 31.3771 45.7158 30.752C41.3584 29.2116 39.0718 24.4301 40.6123 20.0713L41.0078 18.9951C43.0495 13.6582 46.041 8.97397 50.2598 5.54492C54.8666 1.80056 60.3955 5.90629e-05 66.3643 0ZM85.3867 27.0527C79.8208 27.0527 75.1881 27.0054 71.3496 27.2607C67.4794 27.5183 64.0921 28.097 61.0254 29.5137C54.9908 32.3015 51.1148 37.9227 46.3086 47.3643C42.4326 49.4483 38.2938 51.1176 34.1074 52.7031C29.6853 54.3779 25.079 56.0051 21.0352 57.8848C16.9721 59.7734 13.1195 62.0688 10.2236 65.29C7.24778 68.6005 5.41854 72.7364 5.18652 77.9775C4.74661 87.9196 5.01721 95.7165 6.76562 101.688C8.58898 107.914 12.0369 112.201 17.6328 114.894C22.9438 117.449 29.9959 118.465 38.8457 118.91C47.7557 119.359 59.0229 119.24 72.9492 119.24C74.8101 119.24 76.3191 117.731 76.3193 115.87C76.3191 114.009 74.8101 112.5 72.9492 112.5C58.8761 112.5 47.8726 112.617 39.1846 112.18C30.4374 111.739 24.5615 110.748 20.5547 108.82C16.833 107.03 14.5709 104.357 13.2344 99.793C11.8229 94.9727 11.4833 88.1447 11.9199 78.2764C12.0832 74.5878 13.3077 71.9403 15.2353 69.7959C17.2431 67.5624 20.1458 65.73 23.876 63.9961C27.6251 62.2535 31.8525 60.7638 36.4941 59.0059C41.0526 57.2794 45.898 55.3323 50.4873 52.7598L51.3867 52.2549L51.8506 51.332C56.9329 41.2166 59.9847 37.4184 63.8516 35.6318C65.8348 34.7158 68.2785 34.2204 71.7969 33.9863C75.3471 33.7501 79.664 33.793 85.3867 33.793C95.7538 33.793 102.766 37.2578 108.621 42.8877C114.678 48.7112 119.489 56.8195 125.304 66.3965C134.166 80.9934 141.567 96.4405 144.433 110.356C143.495 109.54 142.453 108.757 141.301 108.017C116.304 99.57 98.6774 130.124 120.706 142.97C122.986 143.676 125.199 144.082 127.322 144.229C125.403 145.282 123.411 146.243 121.385 147.095C116.025 149.346 110.595 150.764 105.853 151.183C110.422 147.605 111.781 140.557 106.007 136.771C98.4591 134.404 92.1009 141.302 92.7119 147.258C89.3287 141.103 87.659 135.739 86.9258 131.33C104.196 135.978 115.944 114.927 101.171 105.725C89.3282 102.117 79.7981 111.677 80.0166 120.717C79.8533 121.901 79.7339 123.24 79.7012 124.726C79.5617 131.051 80.9717 139.894 86.8154 150.52C89.8805 156.092 96.2799 157.99 102.677 158.052C109.226 158.115 116.83 156.317 123.994 153.308C131.172 150.293 138.164 145.955 143.417 140.713C148.638 135.502 152.448 129.07 152.448 121.937C152.448 103.422 142.567 81.8427 131.065 62.8984C125.423 53.6045 120.125 44.5997 113.292 38.0293C106.257 31.2655 97.5979 27.0528 85.3867 27.0527ZM119.186 96.0557C111.883 93.7665 106.158 103.757 112.507 107.491C119.903 109.58 125.407 100.135 119.186 96.0557ZM69.1592 94.0205C68.4185 92.3132 66.433 91.5289 64.7256 92.2695C52.4584 97.5909 42.5129 98.8335 35.3779 98.4932C31.8028 98.3225 28.9367 97.754 26.835 97.1064C24.6483 96.4326 23.5037 95.7399 23.1904 95.4766C21.7661 94.279 19.6392 94.4625 18.4414 95.8867C17.2441 97.3109 17.4278 99.4369 18.8516 100.635C20.1476 101.725 22.2616 102.75 24.8496 103.548C27.5234 104.372 30.9518 105.029 35.0576 105.225C43.2855 105.617 54.2549 104.159 67.4082 98.4531C69.1153 97.7125 69.8993 95.7277 69.1592 94.0205ZM29.7207 66.333C22.0904 66.3333 15.9045 71.764 15.9043 78.4639C15.9043 85.1639 22.0902 90.5954 29.7207 90.5957C37.3514 90.5957 43.5381 85.164 43.5381 78.4639C43.5379 71.7639 37.3513 66.333 29.7207 66.333ZM86.6699 41.9619C83.1398 41.758 80.0333 45.8103 79.7324 51.0127C79.4316 56.2151 82.05 60.5983 85.5801 60.8027C89.1104 61.0069 92.2158 56.9545 92.5166 51.752C92.8174 46.5496 90.2 42.1663 86.6699 41.9619ZM64.4541 40.8584C60.9239 40.6545 57.8174 44.7068 57.5166 49.9092C57.2158 55.1115 59.8341 59.4948 63.3643 59.6992C66.8945 59.9033 70 55.851 70.3008 50.6484C70.6016 45.4461 67.9842 41.0628 64.4541 40.8584ZM66.3643 5C61.4445 5.00006 57.0542 6.46535 53.4131 9.4248C49.8149 12.3495 47.1557 16.5615 45.3262 21.7373C44.7061 23.4919 45.6264 25.4177 47.3809 26.0381C49.1355 26.6581 51.0604 25.7379 51.6807 23.9834C53.2209 19.6261 55.2809 16.5924 57.6641 14.6553C60.0043 12.7531 62.8597 11.7393 66.3643 11.7393C68.2253 11.7393 69.7341 10.2311 69.7344 8.37012C69.7342 6.50908 68.2253 5 66.3643 5ZM90.7793 10.0176C89.038 9.36077 87.0925 10.2402 86.4355 11.9814C85.779 13.7225 86.6586 15.6671 88.3994 16.3242C92.7161 17.9529 94.8203 21.4229 95.2383 22.5762C95.8722 24.3257 97.8041 25.2301 99.5537 24.5967C101.303 23.9627 102.208 22.031 101.574 20.2812C100.612 17.626 97.2579 12.4621 90.7793 10.0176Z" fill="#FAFAF8"/>
<path d="M85.3867 27.0527C97.5979 27.0528 106.257 31.2655 113.292 38.0293C120.125 44.5997 125.423 53.6045 131.065 62.8984C142.567 81.8427 152.448 103.422 152.448 121.937C152.448 129.07 148.638 135.502 143.417 140.713C138.164 145.955 131.172 150.293 123.994 153.308C116.83 156.317 109.226 158.115 102.677 158.052C96.2799 157.99 89.8805 156.092 86.8154 150.52C80.9717 139.894 79.5617 131.051 79.7012 124.726C79.7339 123.24 79.8533 121.901 80.0166 120.717C79.7981 111.677 89.3282 102.117 101.171 105.725C115.944 114.927 104.196 135.978 86.9258 131.33C87.659 135.739 89.3287 141.103 92.7119 147.258C92.1009 141.302 98.4591 134.404 106.007 136.771C111.781 140.557 110.422 147.605 105.853 151.183C110.595 150.764 116.025 149.346 121.385 147.095C123.411 146.243 125.403 145.282 127.322 144.229C125.199 144.082 122.986 143.676 120.706 142.97C98.6774 130.124 116.304 99.57 141.301 108.017C142.453 108.757 143.495 109.54 144.433 110.356C141.567 96.4405 134.166 80.9934 125.304 66.3965C119.489 56.8195 114.678 48.7112 108.621 42.8877C102.766 37.2578 95.7538 33.793 85.3867 33.793C79.664 33.793 75.3471 33.7501 71.7969 33.9863C68.2785 34.2204 65.8348 34.7158 63.8516 35.6318C59.9847 37.4184 56.9329 41.2166 51.8506 51.332L51.3867 52.2549L50.4873 52.7598C45.898 55.3323 41.0526 57.2794 36.4941 59.0059C31.8525 60.7638 27.6251 62.2535 23.876 63.9961C20.1458 65.73 17.2431 67.5624 15.2353 69.7959C13.3077 71.9403 12.0832 74.5878 11.9199 78.2764C11.4833 88.1447 11.8229 94.9727 13.2344 99.793C14.5709 104.357 16.833 107.03 20.5547 108.82C24.5615 110.748 30.4374 111.739 39.1846 112.18C47.8726 112.617 58.8761 112.5 72.9492 112.5C74.8101 112.5 76.3191 114.009 76.3193 115.87C76.3191 117.731 74.8101 119.24 72.9492 119.24C59.0229 119.24 47.7557 119.359 38.8457 118.91C29.9959 118.465 22.9438 117.449 17.6328 114.894C12.0369 112.201 8.58898 107.914 6.76562 101.688C5.01721 95.7165 4.74661 87.9196 5.18652 77.9775C5.41854 72.7364 7.24778 68.6005 10.2236 65.29C13.1195 62.0688 16.9721 59.7734 21.0352 57.8848C25.079 56.0051 29.6853 54.3779 34.1074 52.7031C38.2938 51.1176 42.4326 49.4483 46.3086 47.3643C51.1148 37.9227 54.9908 32.3015 61.0254 29.5137C64.0921 28.097 67.4794 27.5183 71.3496 27.2607C75.1881 27.0054 79.8208 27.0527 85.3867 27.0527Z" fill="#1A1A1A"/>
<path d="M119.186 96.0557C111.883 93.7665 106.158 103.757 112.507 107.491C119.903 109.58 125.407 100.135 119.186 96.0557Z" fill="#1A1A1A"/>
<path d="M64.7256 92.2695C66.433 91.5289 68.4185 92.3132 69.1592 94.0205C69.8993 95.7277 69.1153 97.7125 67.4082 98.4531C54.2549 104.159 43.2855 105.617 35.0576 105.225C30.9518 105.029 27.5234 104.372 24.8496 103.548C22.2616 102.75 20.1476 101.725 18.8516 100.635C17.4278 99.4369 17.2441 97.3109 18.4414 95.8867C19.6392 94.4625 21.7661 94.279 23.1904 95.4766C23.5037 95.7399 24.6483 96.4326 26.835 97.1064C28.9367 97.754 31.8028 98.3225 35.3779 98.4932C42.5129 98.8335 52.4584 97.5909 64.7256 92.2695Z" fill="#1A1A1A"/>
<path d="M29.7207 66.333C37.3513 66.333 43.5379 71.7639 43.5381 78.4639C43.5381 85.164 37.3514 90.5957 29.7207 90.5957C22.0902 90.5954 15.9043 85.1639 15.9043 78.4639C15.9045 71.764 22.0904 66.3333 29.7207 66.333Z" fill="#1A1A1A"/>
<path d="M86.6699 41.9619C90.2 42.1663 92.8174 46.5496 92.5166 51.752C92.2158 56.9545 89.1104 61.0069 85.5801 60.8027C82.05 60.5983 79.4316 56.2151 79.7324 51.0127C80.0333 45.8103 83.1398 41.758 86.6699 41.9619Z" fill="#1A1A1A"/>
<path d="M64.4541 40.8584C67.9842 41.0628 70.6016 45.4461 70.3008 50.6484C70 55.851 66.8945 59.9033 63.3643 59.6992C59.8341 59.4948 57.2158 55.1115 57.5166 49.9092C57.8174 44.7068 60.9239 40.6545 64.4541 40.8584Z" fill="#1A1A1A"/>
<path d="M66.3643 5C68.2253 5 69.7342 6.50908 69.7344 8.37012C69.7341 10.2311 68.2253 11.7393 66.3643 11.7393C62.8597 11.7393 60.0043 12.7531 57.6641 14.6553C55.2809 16.5924 53.2209 19.6261 51.6807 23.9834C51.0604 25.7379 49.1355 26.6581 47.3809 26.0381C45.6264 25.4177 44.7061 23.4919 45.3262 21.7373C47.1557 16.5615 49.8149 12.3495 53.4131 9.4248C57.0542 6.46535 61.4445 5.00006 66.3643 5Z" fill="#1A1A1A"/>
<path d="M86.4355 11.9814C87.0925 10.2402 89.038 9.36077 90.7793 10.0176C97.2579 12.4621 100.612 17.626 101.574 20.2812C102.208 22.031 101.303 23.9627 99.5537 24.5967C97.8041 25.2301 95.8722 24.3257 95.2383 22.5762C94.8203 21.4229 92.7161 17.9529 88.3994 16.3242C86.6586 15.6671 85.779 13.7225 86.4355 11.9814Z" fill="#1A1A1A"/>
</svg>
