<svg width="198" height="147" viewBox="0 0 198 147" fill="none" xmlns="http://www.w3.org/2000/svg">
<path fill-rule="evenodd" clip-rule="evenodd" d="M57.2636 6.58682C61.6199 2.55421 67.0211 0.401536 72.9776 0.0176003C77.5885 -0.279374 81.5709 3.21716 81.8687 7.83148C82.1653 12.4468 78.6632 16.4247 74.0537 16.7218C71.6061 16.8796 69.9359 17.6657 68.6342 18.8708C67.3593 20.0511 66.0274 22.0276 64.9831 25.253C72.2172 23.1278 80.7679 22.5113 90.4699 23.4998C98.6782 24.3362 104.878 27.1256 109.76 30.9421C112.33 32.9515 114.427 35.1685 116.179 37.2817C120.05 37.5492 123.889 39.2105 126.873 42.5065L126.874 42.5073C128.54 44.3495 129.233 46.7302 128.987 49.0194C129.32 48.9713 129.688 48.9056 130.092 48.8149C143.359 45.8405 155.091 45.0836 164.186 46.3792C165.434 46.557 166.655 46.7781 167.841 47.0437C170.679 45.1399 174.097 43.95 177.776 43.7129C187.517 43.0855 197.008 49.5677 197.655 59.5988C198.151 67.3026 193.159 73.6329 186.444 76.4105C186.271 80.6186 185.644 85.2521 184.234 89.8803C182.336 96.1073 178.951 102.55 173.162 107.798C167.322 113.092 159.514 116.734 149.531 118.054C131.455 120.445 116.627 118.673 105.997 117.838C100.495 117.405 96.5982 117.265 93.5707 117.683C90.7957 118.067 89.3775 118.84 88.361 119.877L88.3602 119.878C85.7588 122.527 81.8284 123.077 78.6728 121.514C78.1743 123.931 77.4468 126.505 76.4149 129.197L76.135 129.912C73.0148 137.704 67.112 142.572 60.1105 144.81C53.4156 146.95 46.0416 146.618 39.2341 145.049C25.7898 141.95 11.5566 133.306 3.79584 122.247C-0.671657 115.881 -0.621563 108.563 1.02602 102.28C2.65865 96.055 6.07473 89.8468 9.93085 84.2494C17.6812 72.9996 28.5566 62.2989 36.1879 55.8396L36.5232 55.5699C37.6504 54.7098 38.9339 54.1787 40.2532 53.9657C40.2417 53.5927 40.2534 53.2139 40.293 52.8325L40.3965 51.9484C41.4617 43.8624 45.5496 36.5434 52.5736 31.3024C49.2452 29.4649 47.4906 25.5202 48.569 21.7026C50.2371 15.8002 53.0087 10.5259 57.2636 6.58682ZM44.1676 60.0515C42.9652 58.6309 40.8387 58.4537 39.4181 59.6561C31.9925 65.9414 21.4659 76.3199 14.0489 87.086L13.362 88.0962C9.97132 93.1642 7.19818 98.4578 5.86297 103.549L5.73337 104.061C4.44346 109.357 4.66884 114.787 7.88866 119.376C14.8288 129.265 27.9124 137.308 40.3578 140.177C46.4192 141.574 52.6193 141.813 58.064 140.208L58.5888 140.048C64.1043 138.284 68.6758 134.594 71.25 128.637L71.4931 128.054C74.0863 121.578 74.7019 115.883 74.6055 111.619L74.5776 110.786C74.5431 110.029 74.4852 109.322 74.4155 108.672C74.3863 107.108 74.0818 105.525 73.529 104.003C73.5014 103.91 73.4782 103.83 73.4574 103.765C73.441 103.713 73.4265 103.669 73.4152 103.636C73.4097 103.619 73.4048 103.604 73.4006 103.592C73.3987 103.586 73.3961 103.58 73.3944 103.575C73.3937 103.573 73.3921 103.568 73.3921 103.568L73.3904 103.565C73.3904 103.565 73.3846 103.566 73.3661 103.573L73.3645 103.57L73.3898 103.562C73.3144 103.348 73.218 103.146 73.1063 102.958C70.6295 97.4236 64.8086 93.0036 57.0148 93.9C41.6497 99.9644 49.0669 121.661 66.0263 120.174C66.3731 120.056 66.7083 119.927 67.032 119.791C66.6256 121.59 66.0483 123.52 65.2358 125.549L65.0714 125.944C63.3355 129.975 60.3754 132.384 56.6 133.607C58.0177 128.181 53.2976 120.859 45.9518 121.764C40.5955 124.024 40.0508 129.647 42.5577 133.757C42.3302 133.709 42.1008 133.662 41.8718 133.609C35.1865 132.068 28.3442 128.828 22.6839 124.68C25.6166 125.441 28.8938 125.688 32.4583 125.262C54.6375 117.248 44.4733 87.0496 20.9578 88.991C27.3992 80.1411 35.9307 71.6034 42.489 65.9011L43.773 64.7998C45.1929 63.5976 45.3691 61.4719 44.1676 60.0515ZM89.9633 28.4741C76.2085 27.0727 65.5106 29.1232 57.939 33.7097L57.2305 34.1519C50.0204 38.7936 46.0625 45.6848 45.2662 53.3492C45.0744 55.1999 46.4182 56.8576 48.2688 57.0501C50.0619 57.2362 51.6733 55.9787 51.9472 54.2171L51.9694 54.0456C52.5753 48.2138 55.5932 43.0117 61.4314 39.4751C67.3584 35.8849 76.4493 33.871 89.2811 35.1784C95.2985 35.7917 99.4008 37.7464 102.53 40.1925C104.374 41.6345 105.922 43.2768 107.356 45.0349C105.232 46.7627 103.602 49.2331 102.947 52.282C102.557 54.1014 103.715 55.8934 105.535 56.2841C107.354 56.6742 109.146 55.5159 109.537 53.6972C109.849 52.2446 110.522 51.1536 111.372 50.3943C113.391 53.1655 115.668 56.1147 118.623 58.1294C122.211 60.5759 126.536 61.5212 132.117 60.3867L132.661 60.2701C145.045 57.4936 155.276 56.9685 162.531 58.0019C163.544 58.1463 164.486 58.3207 165.359 58.5179C165.116 59.542 165.02 60.6088 165.09 61.6982L165.132 62.1806C165.674 67.1369 169.581 71.102 174.738 72.4508C174.856 76.63 174.482 81.6109 173.005 86.458L172.725 87.3327C171.27 91.689 168.918 95.7999 165.277 99.1008L164.91 99.4264C161.19 102.667 156.005 105.232 148.727 106.313L147.992 106.416C133.48 108.336 121.371 107.344 111.173 106.485L106.917 106.134C101.811 105.733 97.0374 105.475 92.8034 105.95L91.9641 106.054C87.4254 106.682 83.3163 108.255 79.9819 111.654C78.679 112.982 78.6994 115.116 80.0276 116.42C81.3144 117.681 83.3564 117.702 84.6676 116.495L84.7924 116.375C86.7948 114.334 89.3578 113.218 92.8864 112.73C96.5153 112.229 100.912 112.423 106.389 112.853C117.194 113.702 131.434 115.404 148.876 113.098C157.692 111.932 164.376 108.828 169.329 104.516L169.803 104.094C174.47 99.8637 177.374 94.6849 179.118 89.4662L179.452 88.4226C181.113 82.9696 181.585 77.4302 181.486 72.6906C188.077 71.4869 192.908 66.2284 192.68 60.2078L192.666 59.9211C192.241 53.3394 185.914 48.3698 178.453 48.6843L178.098 48.7031C174.5 48.935 171.302 50.357 168.975 52.4968L168.332 52.3142C167.034 51.9602 165.656 51.6684 164.21 51.4387L163.481 51.3297C155.17 50.1457 144.077 50.8035 131.186 53.6937L130.791 53.7781C126.763 54.6023 124.327 53.8607 122.42 52.5604C121.948 52.2387 121.496 51.8742 121.053 51.4698C121.728 51.3924 122.387 51.1115 122.929 50.6208C124.308 49.372 124.414 47.2421 123.166 45.8624C120.586 43.0126 117.132 41.9424 113.793 42.3114C111.993 39.9617 109.882 37.4936 107.22 35.3135L106.68 34.8818C102.674 31.7502 97.5693 29.3685 90.6397 28.5486L89.9633 28.4741ZM154.331 77.6741C152.773 76.6567 150.685 77.0944 149.667 78.6521L152.488 80.4959L149.665 78.6555L149.663 78.6578C149.662 78.66 149.66 78.6634 149.659 78.6657C149.656 78.6703 149.652 78.6761 149.648 78.6817C149.64 78.6934 149.631 78.7079 149.621 78.7237C149.601 78.7563 149.574 78.7978 149.544 78.8474C149.484 78.9468 149.405 79.0808 149.314 79.2446C149.133 79.5715 148.898 80.0287 148.66 80.5838C148.198 81.663 147.658 83.2705 147.587 85.0998C147.514 86.9827 147.943 89.1889 149.521 91.1674C151.074 93.1146 153.456 94.4821 156.599 95.2901C158.401 95.7528 160.238 94.6665 160.702 92.8647C161.15 91.1186 160.145 89.3399 158.443 88.8092L158.276 88.7622C156.352 88.2673 155.414 87.6218 154.958 87.1521L154.79 86.963C154.439 86.5225 154.297 86.0165 154.322 85.361C154.347 84.7405 154.523 84.0801 154.754 83.4873L154.856 83.2374C154.989 82.9269 155.119 82.6754 155.21 82.5113C155.255 82.4306 155.289 82.3725 155.307 82.342C155.315 82.3288 155.321 82.3204 155.323 82.3181C156.323 80.7624 155.881 78.6877 154.331 77.6741ZM41.8788 81.82C35.4891 84.5157 38.7959 93.993 45.8121 93.6369L46.1496 93.6126C52.7012 91.2172 49.0714 80.9337 41.8788 81.82ZM97.0059 56.0109C90.6122 48.9484 78.851 52.8157 76.7866 62.4305C76.3964 64.2499 77.5551 66.0419 79.3745 66.4325C81.1368 66.8105 82.8738 65.7351 83.336 64.0138L83.3767 63.8456C84.4539 58.8292 89.8207 58.1154 92.0094 60.533C93.2193 61.8689 95.2562 62.01 96.6365 60.8827L96.7685 60.7692C98.1476 59.5205 98.2538 57.3906 97.0059 56.0109ZM73.2991 5.00782C68.3895 5.32428 64.1033 7.06889 60.6601 10.2564L60.3434 10.5552C57.1089 13.6806 54.8273 17.9455 53.3811 23.063C52.8755 24.8537 53.9176 26.7164 55.7083 27.2225C57.443 27.7123 59.2447 26.7494 59.8157 25.0608L59.8669 24.8956C61.0452 20.7264 62.7535 17.6881 64.8193 15.6056L65.2379 15.2022C67.451 13.1534 70.235 11.958 73.7324 11.7325C75.5313 11.6165 76.9107 10.1089 76.8866 8.32652L76.8796 8.15374C76.7635 6.35447 75.2547 4.97625 73.4719 5.00086L73.2991 5.00782Z" fill="#FAFAF8"/>
<path fill-rule="evenodd" clip-rule="evenodd" d="M94.5968 9.35413C94.8418 5.07612 98.2962 1.66627 102.577 1.47725L103.009 1.4694L103.812 1.48717C112.038 1.80841 117.974 6.16201 120.479 9.12479C123.462 12.6553 123.019 17.935 119.489 20.9185L119.489 20.9197C115.958 23.9028 110.679 23.4578 107.696 19.9294C107.796 20.0485 107.364 19.571 106.378 19.0668C105.471 18.6029 104.288 18.2192 102.898 18.21C98.275 18.1789 94.5536 14.4051 94.5836 9.78462L94.5968 9.35413ZM102.976 6.46931C101.115 6.45706 99.5958 7.9564 99.5835 9.81749C99.5717 11.6781 101.07 13.1976 102.931 13.2101C107.544 13.2406 110.722 15.7652 111.514 16.7018C112.678 18.0781 114.709 18.2887 116.127 17.2085L116.262 17.1005C117.683 15.8993 117.861 13.7737 116.661 12.3523C114.837 10.1956 109.9 6.51516 102.976 6.46931Z" fill="#FAFAF8"/>
<path d="M39.4181 59.6561C40.8387 58.4537 42.9652 58.6309 44.1676 60.0515C45.3691 61.4719 45.1929 63.5976 43.773 64.7998C37.0774 70.4672 27.8286 79.5512 20.9578 88.991C44.4733 87.0496 54.6375 117.248 32.4583 125.262C28.8938 125.688 25.6166 125.441 22.6839 124.68C28.3442 128.828 35.1865 132.068 41.8718 133.609C42.1008 133.662 42.3302 133.709 42.5577 133.757C40.0508 129.647 40.5955 124.024 45.9518 121.764C53.2976 120.859 58.0177 128.181 56.6 133.607C60.4974 132.344 63.5259 129.819 65.2358 125.549C66.0483 123.52 66.6256 121.59 67.032 119.791C66.7083 119.927 66.3731 120.056 66.0263 120.174C49.0669 121.661 41.6497 99.9644 57.0148 93.9C64.8086 93.0036 70.6295 97.4236 73.1063 102.958C73.218 103.146 73.3144 103.348 73.3898 103.562L73.3645 103.57L73.3661 103.573C73.3846 103.566 73.3904 103.565 73.3904 103.565L73.3921 103.568C73.3928 103.571 73.3936 103.573 73.3944 103.575C73.3961 103.58 73.3987 103.586 73.4006 103.592C73.4048 103.604 73.4097 103.619 73.4152 103.636C73.4265 103.669 73.441 103.713 73.4574 103.765C73.4782 103.83 73.5014 103.91 73.529 104.003C74.0818 105.525 74.3863 107.108 74.4155 108.672C74.4852 109.322 74.5431 110.029 74.5776 110.786C74.7758 115.128 74.2593 121.146 71.4931 128.054C68.97 134.355 64.2823 138.228 58.5888 140.048C53.0196 141.828 46.6148 141.619 40.3578 140.177C27.9124 137.308 14.8288 129.265 7.88866 119.376C4.56486 114.639 4.43196 109.006 5.86297 103.549C7.28724 98.1182 10.348 92.4579 14.0489 87.086C21.4659 76.3199 31.9925 65.9414 39.4181 59.6561Z" fill="#1A1A1A"/>
<path d="M57.939 33.7097C65.5106 29.1232 76.2085 27.0727 89.9633 28.4741C97.2389 29.2154 102.545 31.6491 106.68 34.8818C109.6 37.1643 111.873 39.805 113.793 42.3114C117.132 41.9424 120.586 43.0126 123.166 45.8624C124.414 47.2421 124.308 49.372 122.929 50.6208C122.387 51.1115 121.728 51.3924 121.053 51.4698C121.496 51.8742 121.948 52.2387 122.42 52.5604C124.389 53.9029 126.92 54.6501 131.186 53.6937C144.077 50.8035 155.17 50.1457 163.481 51.3297C165.439 51.6087 167.28 51.9967 168.975 52.4968C171.302 50.357 174.5 48.935 178.098 48.7031C185.712 48.2126 192.235 53.2351 192.666 59.9211C193.061 66.0611 188.182 71.4679 181.486 72.6906C181.585 77.4302 181.113 82.9696 179.452 88.4226C177.755 93.9909 174.781 99.5816 169.803 104.094C164.805 108.625 157.977 111.894 148.876 113.098C131.434 115.404 117.194 113.702 106.389 112.853C100.912 112.423 96.5153 112.229 92.8864 112.73C89.3578 113.218 86.7948 114.334 84.7924 116.375C83.489 117.703 81.3558 117.723 80.0276 116.42C78.6994 115.116 78.679 112.982 79.9819 111.654C83.3163 108.255 87.4254 106.682 91.9641 106.054C96.4027 105.441 101.471 105.706 106.917 106.134C117.96 107.002 131.407 108.61 147.992 106.416C155.904 105.37 161.412 102.604 165.277 99.1008C169.161 95.5796 171.579 91.1374 173.005 86.458C174.482 81.6109 174.856 76.63 174.738 72.4508C169.415 71.0584 165.424 66.8789 165.09 61.6982C165.02 60.6088 165.116 59.542 165.359 58.5179C164.486 58.3207 163.544 58.1463 162.531 58.0019C155.276 56.9685 145.045 57.4936 132.661 60.2701C126.816 61.5805 122.327 60.6551 118.623 58.1294C115.668 56.1147 113.391 53.1655 111.372 50.3943C110.522 51.1536 109.849 52.2446 109.537 53.6972C109.146 55.5159 107.354 56.6742 105.535 56.2841C103.715 55.8934 102.557 54.1014 102.947 52.282C103.602 49.2331 105.232 46.7627 107.356 45.0349C105.922 43.2768 104.374 41.6345 102.53 40.1925C99.4008 37.7464 95.2985 35.7917 89.2811 35.1784C76.4493 33.871 67.3584 35.8849 61.4314 39.4751C55.5932 43.0117 52.5753 48.2138 51.9694 54.0456C51.777 55.8967 50.1199 57.2424 48.2688 57.0501C46.4182 56.8576 45.0744 55.1999 45.2662 53.3492C46.0882 45.4373 50.2793 38.3497 57.939 33.7097Z" fill="#1A1A1A"/>
<path d="M149.667 78.6521C150.685 77.0944 152.773 76.6567 154.331 77.6741C155.881 78.6877 156.323 80.7624 155.323 82.3181C155.321 82.3204 155.315 82.3288 155.307 82.342C155.289 82.3725 155.255 82.4306 155.21 82.5113C155.119 82.6754 154.989 82.9269 154.856 83.2374C154.576 83.8907 154.35 84.6516 154.322 85.361C154.297 86.0165 154.439 86.5225 154.79 86.963C155.167 87.435 156.076 88.1965 158.276 88.7622C160.079 89.2255 161.165 91.0623 160.702 92.8647C160.238 94.6665 158.401 95.7528 156.599 95.2901C153.456 94.4821 151.074 93.1146 149.521 91.1674C147.943 89.1889 147.514 86.9827 147.587 85.0998C147.658 83.2705 148.198 81.663 148.66 80.5838C148.898 80.0287 149.133 79.5715 149.314 79.2446C149.405 79.0808 149.484 78.9468 149.544 78.8474C149.574 78.7978 149.601 78.7563 149.621 78.7237C149.631 78.7079 149.64 78.6934 149.648 78.6817C149.652 78.6761 149.656 78.6703 149.659 78.6657C149.66 78.6634 149.662 78.66 149.663 78.6578L149.665 78.6555L152.488 80.4959L149.667 78.6521Z" fill="#1A1A1A"/>
<path d="M46.1496 93.6126C52.7012 91.2172 49.0714 80.9337 41.8788 81.82C35.3874 84.5585 38.9036 94.2963 46.1496 93.6126Z" fill="#1A1A1A"/>
<path d="M76.7866 62.4305C78.851 52.8157 90.6122 48.9484 97.0059 56.0109C98.2538 57.3906 98.1476 59.5205 96.7685 60.7692C95.3888 62.0182 93.2585 61.9127 92.0094 60.533C89.8207 58.1154 84.4539 58.8292 83.3767 63.8456C82.9858 65.6649 81.1939 66.8229 79.3745 66.4325C77.5551 66.0419 76.3964 64.2499 76.7866 62.4305Z" fill="#1A1A1A"/>
<path d="M99.5835 9.81749C99.5958 7.9564 101.115 6.45706 102.976 6.46931C109.9 6.51516 114.837 10.1956 116.661 12.3523C117.861 13.7737 117.683 15.8993 116.262 17.1005C114.841 18.3015 112.715 18.1229 111.514 16.7018C110.722 15.7652 107.544 13.2406 102.931 13.2101C101.07 13.1976 99.5717 11.6781 99.5835 9.81749Z" fill="#1A1A1A"/>
<path d="M60.6601 10.2564C64.1033 7.06889 68.3895 5.32428 73.2991 5.00782C75.1563 4.88813 76.7598 6.29653 76.8796 8.15374C76.9991 10.0109 75.5895 11.6128 73.7324 11.7325C70.235 11.958 67.451 13.1534 65.2379 15.2022C62.9842 17.2885 61.1238 20.4482 59.8669 24.8956C59.3608 26.6864 57.4992 27.7284 55.7083 27.2225C53.9176 26.7164 52.8755 24.8537 53.3811 23.063C54.874 17.7801 57.2573 13.4065 60.6601 10.2564Z" fill="#1A1A1A"/>
</svg>
