<svg width="199" height="145" viewBox="0 0 199 145" fill="none" xmlns="http://www.w3.org/2000/svg">
<path fill-rule="evenodd" clip-rule="evenodd" d="M168.951 15.0859C175.401 14.0601 182.715 17.5028 185.673 24.1152C188.386 30.1786 187.853 40.0731 177.038 53.0918L176.617 53.0234C176.475 53.0024 176.333 52.983 176.19 52.9658C165.278 47.1047 157.301 38.7317 154.646 31.4912L154.406 30.7939C153.197 27.0442 153.538 23.958 155.247 21.5449L155.417 21.3135C157.308 18.8214 161.181 16.4359 168.256 15.2021L168.951 15.0859Z" fill="#FAFAF8"/>
<path fill-rule="evenodd" clip-rule="evenodd" d="M84.6235 0.0107422C89.0459 0.234912 92.5629 3.89199 92.5629 8.37012C92.5621 12.9929 88.814 16.7392 84.1928 16.7393C81.7398 16.7393 80.0225 17.4163 78.6459 18.5352C77.3842 19.5608 76.0285 21.279 74.8354 24.0781C81.1199 23.2563 88.1667 23.4691 95.8871 24.7617C104.025 26.1243 110.031 29.3075 114.658 33.4297C118.237 36.6189 120.806 40.2354 122.774 43.2686C122.81 43.2785 122.847 43.2874 122.883 43.2979L122.884 43.2988C126.718 44.4022 129.152 48.0071 128.924 51.8311C128.943 51.8459 128.961 51.8616 128.979 51.876C129.434 52.2315 129.874 52.4638 130.46 52.6006C131.088 52.7471 132.118 52.8368 133.798 52.5723C141.066 51.4278 147.835 50.9058 153.935 50.9609C148.95 45.9147 145.119 40.2474 143.233 34.3965C141.147 27.928 141.295 20.5036 146.065 14.2168C150.594 8.24783 158.098 4.92501 167.107 3.49219C178.435 1.69065 191.117 7.53314 196.39 19.3203C201.015 29.6585 199.105 42.3149 189.961 55.4834C191.918 58.1541 193.116 61.4058 193.116 64.9844C193.116 69.3337 191.347 73.2016 188.594 76.1289C188.699 81.9719 187.991 89.5912 185.188 97.0342C182.894 103.127 179.101 109.34 172.986 114.205C166.818 119.112 158.792 122.243 148.745 122.919C130.552 124.142 115.869 121.42 105.315 119.903C99.8519 119.118 95.9723 118.726 92.9242 118.949C90.1297 119.153 88.6651 119.835 87.5844 120.803C84.8173 123.281 80.8589 123.578 77.81 121.813C77.157 124.194 76.2654 126.716 75.0619 129.337L74.7367 130.032C71.1219 137.608 64.9196 142.085 57.7885 143.868C50.9697 145.573 43.632 144.769 36.9389 142.765C23.7213 138.807 10.0737 129.266 3.04046 117.73C-1.00821 111.09 -0.487405 103.791 1.56096 97.627C3.59064 91.5194 7.39859 85.544 11.6069 80.2061C20.0647 69.4778 31.6051 59.4982 39.6362 53.543C40.9042 52.6027 42.3506 52.0749 43.8149 51.9346C43.8274 51.5617 43.8631 51.1846 43.9272 50.8066C45.5011 41.5204 51.012 33.4419 60.2026 28.5596C58.153 26.3512 57.3673 23.109 58.4408 20.0713L58.8364 18.9951C60.878 13.6582 63.8696 8.97397 68.0883 5.54492C72.6953 1.80048 78.2239 0 84.1928 0L84.6235 0.0107422ZM47.3285 58.2598C46.22 56.7648 44.1097 56.451 42.6147 57.5596C34.8002 63.3542 23.6279 73.0347 15.5336 83.3018L14.7836 84.2656C11.0738 89.1051 7.96603 94.209 6.30608 99.2041L6.14397 99.707C4.51609 104.909 4.39188 110.342 7.30999 115.128C13.5996 125.444 26.1381 134.311 38.3735 137.975C44.3326 139.759 50.5046 140.396 56.0414 139.145L56.5756 139.018C62.1932 137.613 66.9917 134.225 69.9438 128.445L70.2241 127.879C73.2284 121.583 74.2091 115.94 74.3871 111.679L74.4125 110.845C74.4269 110.076 74.4148 109.359 74.3862 108.697C74.4534 107.155 74.2541 105.578 73.81 104.044C73.7851 103.934 73.7651 103.841 73.7465 103.767C73.7333 103.714 73.7215 103.669 73.7123 103.635C73.7078 103.618 73.704 103.602 73.7006 103.59C73.699 103.584 73.6971 103.578 73.6957 103.573C73.6951 103.571 73.6944 103.569 73.6938 103.566L73.6928 103.562C73.6928 103.562 73.6892 103.563 73.6655 103.569L73.6645 103.566L73.6918 103.56C73.628 103.333 73.5414 103.118 73.4369 102.917C71.315 97.2447 65.7953 92.4715 57.9701 92.8643L57.6059 92.9863C42.3411 98.2724 48.3866 120.054 65.2739 119.665C65.6285 119.569 65.9715 119.461 66.3041 119.346C65.7828 121.115 65.0826 123.003 64.141 124.977L63.9516 125.36C61.9607 129.27 58.8536 131.483 55.0092 132.461C56.7715 127.137 52.5321 119.53 45.144 119.961C39.6531 121.871 38.7479 127.448 40.9858 131.711C40.7605 131.648 40.5336 131.585 40.3071 131.518C33.7347 129.55 27.1156 125.877 21.7338 121.373C24.6117 122.321 27.8659 122.779 31.4506 122.582C54.0995 116.011 45.8981 85.2211 22.3061 85.6465C29.3032 77.2293 38.3654 69.2588 45.2768 63.9902L46.6293 62.9736C48.1242 61.8651 48.437 59.7547 47.3285 58.2598ZM191.826 21.3623C187.539 11.7815 177.145 6.95805 167.892 8.42969L167.114 8.55957C159.142 9.94836 153.372 12.8592 150.048 17.2393L149.727 17.6777C146.507 22.2373 146.315 27.663 147.992 32.8623C150.519 40.7021 157.435 48.7081 166.523 54.9561C165.666 55.4693 164.879 56.0654 164.175 56.7305C156.3 55.5273 146.208 55.68 134.577 57.5117L134.177 57.5713C130.367 58.0985 128.036 57.3479 126.261 56.0859L125.902 55.8174C125.027 55.1348 124.237 54.2995 123.455 53.3105C123.586 52.9758 123.705 52.6301 123.808 52.2725C124.322 50.4841 123.29 48.6182 121.501 48.1035C120.958 47.9473 120.408 47.934 119.89 48.041L119.861 47.9941C117.863 44.8273 115.491 41.0874 112.037 37.8115L111.331 37.1631C107.535 33.7803 102.595 31.0753 95.7319 29.8115L95.0619 29.6934C81.4256 27.4101 70.618 28.7684 62.767 32.8584L62.0317 33.2539C54.5376 37.4222 50.1445 44.045 48.8569 51.6426L48.8324 51.8145C48.6241 53.5848 49.8383 55.2269 51.6157 55.5283C53.3934 55.8296 55.0818 54.6791 55.4682 52.9385L55.5014 52.7686C56.4811 46.9876 59.8274 41.9898 65.8813 38.8359C72.0269 35.6344 81.2285 34.2098 93.9496 36.3398C99.9152 37.3388 103.883 39.5531 106.848 42.1953C109.89 44.9063 111.997 48.1617 114.161 51.5908C114.454 52.0559 114.753 52.5306 115.058 53.0107C113.041 54.0387 110.174 53.8379 108.122 51.2334C106.971 49.7716 104.852 49.5207 103.39 50.6719C101.928 51.8234 101.675 53.9422 102.827 55.4043L103.229 55.8916C107.475 60.7902 114.334 61.4841 119.071 58.5674C119.891 59.4978 120.778 60.3676 121.754 61.1299C125.178 63.8024 129.433 65.0233 135.075 64.25L135.625 64.1689C145.526 62.6099 153.996 62.3664 160.653 63.0703C160.54 63.6938 160.482 64.3331 160.482 64.9844L160.487 65.2979C160.676 71.8531 166.787 77.1161 174.298 77.1162C175.175 77.1162 176.033 77.0434 176.865 76.9062C176.892 81.4661 176.301 87.3225 174.202 92.8975L173.867 93.752C172.134 98.0062 169.522 101.957 165.676 105.018C161.594 108.265 155.92 110.671 147.957 111.206L146.403 111.301C132.496 112.062 120.97 110.366 111.209 108.907L106.986 108.283C101.578 107.506 96.5376 106.915 92.0688 107.241L91.2162 107.315C86.9764 107.746 83.0758 109.08 79.7514 112.059C78.3653 113.3 78.2489 115.431 79.4907 116.817L79.6098 116.943C80.8246 118.168 82.775 118.276 84.1166 117.191L84.2485 117.079C86.2449 115.29 88.6806 114.345 91.9047 114.02L92.56 113.963C96.2137 113.696 100.589 114.172 106.027 114.954C116.419 116.448 129.978 118.948 146.774 118.03L148.41 117.931C157.283 117.334 164.152 114.666 169.372 110.682L169.872 110.292C174.802 106.37 178.035 101.389 180.11 96.293L180.509 95.2725C183.394 87.6126 183.841 79.6194 183.511 74.0225C186.248 71.8706 188.004 68.7768 188.111 65.3203L188.116 64.9844C188.116 61.363 186.306 58.1145 183.441 55.8916C193.942 42.5528 195.777 30.6969 192.009 21.7842L191.826 21.3623ZM154.151 86.0566C152.389 85.4589 150.475 86.4029 149.877 88.165L153.069 89.248L149.875 88.1689L149.874 88.1719C149.874 88.1742 149.872 88.177 149.872 88.1797C149.87 88.185 149.868 88.1917 149.866 88.1982C149.861 88.2116 149.856 88.2279 149.85 88.2461C149.838 88.2826 149.824 88.3294 149.807 88.3848C149.773 88.4962 149.73 88.6457 149.683 88.8271C149.589 89.1889 149.475 89.6902 149.383 90.2871C149.204 91.4474 149.081 93.1382 149.468 94.9277C149.866 96.7697 150.831 98.7988 152.852 100.322C154.841 101.821 157.488 102.554 160.734 102.554C162.536 102.553 164.008 101.137 164.098 99.3564L164.103 99.1826C164.103 97.38 162.687 95.9069 160.907 95.8164L160.733 95.8125C158.746 95.8125 157.678 95.422 157.119 95.0811L156.909 94.9395C156.515 94.6427 156.264 94.2576 156.115 93.7363L156.057 93.5039C155.926 92.8967 155.931 92.213 156.007 91.5811L156.044 91.3135C156.096 90.9793 156.159 90.704 156.206 90.5225C156.23 90.433 156.249 90.369 156.259 90.335C156.264 90.3192 156.266 90.3095 156.267 90.3076C156.849 88.5516 155.906 86.652 154.151 86.0566ZM43.6498 79.8359L43.3451 79.9502C37.0865 82.4594 39.9913 92.0918 47.1528 91.8789C53.8452 89.91 50.8847 79.4139 43.6498 79.8359ZM93.5483 50.499C91.7599 49.9848 89.8929 51.0173 89.3783 52.8057C88.4767 55.9397 83.344 57.6607 80.1694 53.6299C79.018 52.168 76.899 51.9163 75.4369 53.0674C73.9748 54.2189 73.7221 56.3386 74.8735 57.8008C80.9579 65.5262 93.2208 63.824 95.8549 54.6689C96.3692 52.8806 95.3365 51.0137 93.5483 50.499ZM84.1928 5C79.2729 5 74.8829 6.46523 71.2416 9.4248L70.9067 9.70312C67.4778 12.6141 64.9271 16.7233 63.1547 21.7373C62.5346 23.492 63.4547 25.4178 65.2094 26.0381L65.3744 26.0918C67.028 26.5833 68.7911 25.7408 69.4477 24.1455L69.5092 23.9834C70.9532 19.8983 72.8536 16.9766 75.0492 15.0312L75.4926 14.6553C77.6867 12.8719 80.3332 11.8693 83.5434 11.751L84.1928 11.7393C86.0538 11.7392 87.5626 10.231 87.5629 8.37012C87.5629 6.50897 86.0539 5.00002 84.1928 5Z" fill="#FAFAF8"/>
<path fill-rule="evenodd" clip-rule="evenodd" d="M99.5854 10.2168C101.166 6.02704 105.748 3.84584 109.965 5.19727L110.372 5.33984L111.119 5.63477C118.477 8.68703 122.516 14.5374 123.966 18.2178L124.103 18.5781C125.677 22.9242 123.429 27.7234 119.084 29.2979C114.739 30.8715 109.939 28.6249 108.365 24.2793C108.419 24.428 108.179 23.8296 107.428 23.0137C106.739 22.264 105.763 21.4927 104.462 21.002C100.139 19.3702 97.9541 14.542 99.5854 10.2168ZM108.607 10.0176C106.866 9.36059 104.92 10.2402 104.263 11.9814C103.606 13.7226 104.486 15.6672 106.227 16.3242C110.544 17.953 112.648 21.423 113.066 22.5762C113.68 24.2711 115.512 25.1725 117.216 24.6514L117.381 24.5967C119.131 23.9627 120.035 22.0309 119.402 20.2812C118.44 17.626 115.085 12.462 108.607 10.0176Z" fill="#FAFAF8"/>
<path d="M42.6147 57.5596C44.1097 56.451 46.22 56.7648 47.3285 58.2598C48.437 59.7547 48.1242 61.8651 46.6293 62.9736C39.5831 68.1986 29.7697 76.6682 22.3061 85.6465C45.8981 85.2211 54.0995 116.011 31.4506 122.582C27.8659 122.779 24.6117 122.321 21.7338 121.373C27.1156 125.877 33.7347 129.55 40.3071 131.518C40.5336 131.585 40.7605 131.648 40.9858 131.711C38.7479 127.448 39.6531 121.871 45.144 119.961C52.5321 119.53 56.7715 127.137 55.0092 132.461C58.9777 131.451 62.1607 129.126 64.141 124.977C65.0826 123.003 65.7828 121.115 66.3041 119.346C65.9715 119.461 65.6285 119.569 65.2739 119.665C48.2537 120.057 42.2465 97.9278 57.9701 92.8643C65.7953 92.4715 71.315 97.2447 73.4369 102.917C73.5414 103.118 73.628 103.333 73.6918 103.56L73.6645 103.566L73.6655 103.569C73.6892 103.563 73.6928 103.562 73.6928 103.562L73.6938 103.566C73.6944 103.569 73.6951 103.571 73.6957 103.573C73.6971 103.578 73.699 103.584 73.7006 103.59C73.704 103.602 73.7078 103.618 73.7123 103.635C73.7215 103.669 73.7333 103.714 73.7465 103.767C73.7651 103.841 73.7851 103.934 73.81 104.044C74.2541 105.578 74.4534 107.155 74.3862 108.697C74.4148 109.359 74.4269 110.076 74.4125 110.845C74.331 115.19 73.4288 121.163 70.2241 127.879C67.3008 134.005 62.3743 137.568 56.5756 139.018C50.9033 140.436 44.525 139.816 38.3735 137.975C26.1381 134.311 13.5996 125.444 7.30999 115.128C4.29771 110.187 4.52712 104.557 6.30608 99.2041C8.07667 93.8761 11.495 88.4245 15.5336 83.3018C23.6279 73.0347 34.8002 63.3542 42.6147 57.5596Z" fill="#1A1A1A"/>
<path fill-rule="evenodd" clip-rule="evenodd" d="M167.892 8.42969C177.145 6.95805 187.539 11.7815 191.826 21.3623C195.833 30.3212 194.109 42.3412 183.441 55.8916C186.306 58.1145 188.116 61.363 188.116 64.9844C188.116 68.576 186.336 71.8011 183.511 74.0225C183.841 79.6194 183.394 87.6126 180.509 95.2725C178.458 100.72 175.131 106.109 169.872 110.292C164.593 114.492 157.569 117.315 148.41 117.931C130.856 119.111 116.755 116.496 106.027 114.954C100.589 114.172 96.2137 113.696 92.56 113.963C89.0073 114.223 86.378 115.171 84.2485 117.079C82.8623 118.321 80.7325 118.203 79.4907 116.817C78.2489 115.431 78.3653 113.3 79.7514 112.059C83.2974 108.882 87.4991 107.575 92.0688 107.241C96.5376 106.915 101.578 107.506 106.986 108.283C117.95 109.859 131.265 112.328 147.957 111.206C155.92 110.671 161.594 108.265 165.676 105.018C169.779 101.753 172.477 97.4756 174.202 92.8975C176.301 87.3225 176.892 81.4661 176.865 76.9062C176.033 77.0434 175.175 77.1162 174.298 77.1162C166.668 77.1161 160.482 71.6844 160.482 64.9844C160.482 64.3331 160.54 63.6938 160.653 63.0703C153.996 62.3664 145.526 62.6099 135.625 64.1689C129.708 65.1008 125.288 63.8887 121.754 61.1299C120.778 60.3676 119.891 59.4978 119.071 58.5674C114.182 61.5781 107.03 60.7415 102.827 55.4043C101.675 53.9422 101.928 51.8234 103.39 50.6719C104.852 49.5207 106.971 49.7716 108.122 51.2334C110.174 53.8379 113.041 54.0387 115.058 53.0107C114.753 52.5306 114.454 52.0559 114.161 51.5908C111.997 48.1617 109.89 44.9063 106.848 42.1953C103.883 39.5531 99.9152 37.3388 93.9496 36.3398C81.2285 34.2098 72.0269 35.6344 65.8813 38.8359C59.8274 41.9898 56.4811 46.9876 55.5014 52.7686C55.1904 54.6035 53.4506 55.8393 51.6157 55.5283C49.7809 55.2172 48.546 53.4774 48.8569 51.6426C50.186 43.7998 54.8245 36.9962 62.767 32.8584C70.618 28.7684 81.4256 27.4101 95.0619 29.6934C102.275 30.9011 107.413 33.6712 111.331 37.1631C115.173 40.5863 117.729 44.6163 119.861 47.9941C119.871 48.0097 119.88 48.0255 119.89 48.041C120.408 47.934 120.958 47.9473 121.501 48.1035C123.29 48.6182 124.322 50.4841 123.808 52.2725C123.705 52.6301 123.586 52.9758 123.455 53.3105C124.237 54.2995 125.027 55.1348 125.902 55.8174C127.78 57.2837 130.258 58.1918 134.577 57.5117C146.208 55.68 156.3 55.5273 164.175 56.7305C164.879 56.0654 165.666 55.4693 166.523 54.9561C157.435 48.7081 150.519 40.7021 147.992 32.8623C146.261 27.4952 146.522 21.8871 150.048 17.2393C153.479 12.7179 159.516 9.76185 167.892 8.42969ZM185.673 24.1152C182.715 17.5028 175.401 14.0601 168.951 15.0859C161.433 16.2817 157.369 18.7411 155.417 21.3135C153.562 23.7595 153.158 26.9232 154.406 30.7939C156.79 38.1887 164.926 46.9155 176.19 52.9658C176.476 53.0002 176.759 53.0423 177.038 53.0918C187.853 40.0731 188.386 30.1786 185.673 24.1152Z" fill="#1A1A1A"/>
<path d="M149.877 88.165C150.475 86.4029 152.389 85.4589 154.151 86.0566C155.906 86.652 156.849 88.5516 156.267 90.3076C156.266 90.3095 156.264 90.3192 156.259 90.335C156.249 90.369 156.23 90.433 156.206 90.5225C156.159 90.704 156.096 90.9793 156.044 91.3135C155.936 92.016 155.907 92.8098 156.057 93.5039C156.196 94.1454 156.459 94.6002 156.909 94.9395C157.391 95.3028 158.462 95.8125 160.733 95.8125C162.594 95.8125 164.103 97.3217 164.103 99.1826C164.103 101.043 162.595 102.553 160.734 102.554C157.488 102.554 154.841 101.821 152.852 100.322C150.831 98.7988 149.866 96.7697 149.468 94.9277C149.081 93.1382 149.204 91.4474 149.383 90.2871C149.475 89.6902 149.589 89.1889 149.683 88.8271C149.73 88.6457 149.773 88.4962 149.807 88.3848C149.824 88.3294 149.838 88.2826 149.85 88.2461C149.856 88.2279 149.861 88.2116 149.866 88.1982C149.868 88.1917 149.87 88.185 149.872 88.1797C149.872 88.177 149.874 88.1742 149.874 88.1719L149.875 88.1689L153.069 89.248L149.877 88.165Z" fill="#1A1A1A"/>
<path d="M47.1528 91.8789C53.8452 89.91 50.8847 79.4139 43.6498 79.8359C36.9953 82.1511 39.8777 92.0951 47.1528 91.8789Z" fill="#1A1A1A"/>
<path d="M89.3783 52.8057C89.8929 51.0173 91.7599 49.9848 93.5483 50.499C95.3365 51.0137 96.3692 52.8806 95.8549 54.6689C93.2208 63.824 80.9579 65.5262 74.8735 57.8008C73.7221 56.3386 73.9748 54.2189 75.4369 53.0674C76.899 51.9163 79.018 52.168 80.1694 53.6299C83.344 57.6607 88.4767 55.9397 89.3783 52.8057Z" fill="#1A1A1A"/>
<path d="M84.1928 5C86.0539 5.00002 87.5629 6.50897 87.5629 8.37012C87.5626 10.231 86.0538 11.7392 84.1928 11.7393C80.688 11.7393 77.8329 12.753 75.4926 14.6553C73.1094 16.5924 71.0495 19.6259 69.5092 23.9834C68.8889 25.7379 66.964 26.6581 65.2094 26.0381C63.4547 25.4178 62.5346 23.492 63.1547 21.7373C64.9843 16.5614 67.6433 12.3496 71.2416 9.4248C74.8829 6.46523 79.2729 5 84.1928 5Z" fill="#1A1A1A"/>
<path d="M104.263 11.9814C104.92 10.2402 106.866 9.36059 108.607 10.0176C115.085 12.462 118.44 17.626 119.402 20.2812C120.035 22.0309 119.131 23.9627 117.381 24.5967C115.632 25.2303 113.7 24.3259 113.066 22.5762C112.648 21.423 110.544 17.953 106.227 16.3242C104.486 15.6672 103.606 13.7226 104.263 11.9814Z" fill="#1A1A1A"/>
</svg>
