<svg width="199" height="154" viewBox="0 0 199 154" fill="none" xmlns="http://www.w3.org/2000/svg">
<path d="M138.651 86.264C138.648 86.2645 138.646 86.264 138.646 86.264C138.646 86.264 138.65 86.263 138.654 86.262L138.651 86.264Z" fill="#FAFAF8"/>
<path d="M138.662 86.2611L138.66 86.2601H138.664L138.662 86.2611Z" fill="#FAFAF8"/>
<path fill-rule="evenodd" clip-rule="evenodd" d="M81.4279 0.419266C85.5953 -0.492911 90.1608 0.0132182 94.4513 2.63216L94.4523 2.63313C98.5292 5.12222 101.746 9.13859 104.32 14.1732C106.425 18.2884 104.795 23.331 100.68 25.4359L100.679 25.4368C96.5638 27.5406 91.5209 25.9111 89.4162 21.7952C87.6962 18.4317 86.2996 17.2682 85.7297 16.9202C85.4799 16.7678 85.3549 16.7478 85.3273 16.7435C85.2951 16.7385 85.2068 16.7281 85.007 16.7718C84.4833 16.8865 83.5874 17.3029 82.4621 18.2376C81.3803 19.1362 80.3502 20.2972 79.551 21.4681C79.2871 21.8546 78.9939 22.2098 78.6808 22.5374C87.6765 24.5319 94.0618 29.5607 98.8586 33.305C102.625 36.2452 104.711 37.788 106.69 38.5033C107.931 38.9519 109.321 39.1696 111.961 37.8324C123.667 31.9024 134.495 28.3275 143.447 27.2044C145.443 25.4769 147.833 24.1068 150.516 23.2396C159.804 20.2367 170.598 24.1878 173.691 33.7523C175.078 38.0436 174.496 42.4215 172.623 46.14C174.284 50.9816 175.724 56.9589 175.842 63.2825C175.957 69.4853 173.959 77.6878 170.257 84.8622C171.088 83.6916 172.853 82.8876 174.256 82.2544L174.754 82.0358C177.264 80.9624 181.296 79.6701 185.388 79.8502L185.812 79.8735L186.267 79.9116C188.594 80.1391 191.65 80.9526 194.208 83.3961C196.922 85.9887 197.979 89.3552 198.089 92.5563L198.099 93.1936C198.082 97.2669 196.743 100.94 193.93 103.727C191.466 106.166 188.521 107.232 186.886 107.775C185.994 108.071 185.213 108.302 184.736 108.449C184.056 109.488 183.16 110.348 182.127 110.985C182.221 111.857 182.18 112.757 181.984 113.655L181.881 114.074L180.908 117.651C179.693 122.11 175.093 124.741 170.633 123.527L170.631 123.527C166.171 122.311 163.542 117.71 164.756 113.252L165.73 109.676L165.854 109.263C166.49 107.321 167.781 105.76 169.41 104.754C169.302 103.746 169.375 102.701 169.657 101.664L169.781 101.241C170.401 99.2401 171.43 97.6957 172.581 96.5073C171.636 95.7784 170.206 94.6362 169.41 92.9562C168.662 91.3767 168.638 89.6954 168.637 88.5482C164.756 92.2744 161.142 93.784 156.232 96.3763C156.079 100.757 155.738 104.797 155.236 109.901L154.956 112.697C154.947 112.791 154.933 113.175 155.01 113.938C155.083 114.662 155.224 115.587 155.447 116.703C155.883 118.875 156.541 121.344 157.26 123.745C157.972 126.125 158.71 128.326 159.273 129.94C159.553 130.744 159.786 131.394 159.947 131.835C160.026 132.05 160.087 132.215 160.132 132.336C160.15 132.385 160.165 132.428 160.176 132.457C160.178 132.464 160.182 132.471 160.185 132.478L160.192 132.497C160.192 132.499 160.194 132.503 160.194 132.503L160.195 132.504V132.506C161.814 136.824 159.328 142.144 153.549 142.882C147.77 143.62 148.136 141.382 142.136 141.882C136.136 142.382 136.934 144.249 132.424 144.77C128.541 145.217 125.698 143.372 123.865 139.803C123.136 138.382 122.927 135.565 122.927 135.565C122.783 134.4 122.577 132.786 122.331 130.988C121.827 127.305 121.19 123.128 120.591 120.377C119.663 116.119 118.432 114.053 116.198 110.303C104.831 114.534 94.1841 115.294 81.8996 113.758C80.8065 113.621 79.7898 113.278 78.882 112.775C79.9174 117.237 80.4955 122.963 79.5969 129.705C78.4876 138.026 73.9629 144.194 67.7267 148.084C61.7635 151.804 54.5349 153.296 47.55 153.449C33.7558 153.749 17.8339 148.869 7.59295 140.057C1.69744 134.984 -0.0515824 127.878 0.00115027 121.383C0.0535359 114.948 1.83838 108.091 4.20037 101.717C8.94769 88.9072 16.8586 75.86 22.6681 67.723C23.5839 66.4407 24.7954 65.4946 26.1428 64.9105C24.4369 59.5326 23.7666 54.1643 24.6554 48.9935C25.5793 43.6203 28.1005 38.9784 31.926 35.182C36.7195 30.425 43.3581 27.183 51.1125 24.9476C50.498 21.568 52.0173 18.018 55.1623 16.2015C58.1144 14.4973 61.6735 14.7973 64.2658 16.6771C64.2782 15.0736 64.7511 13.4557 65.7228 12.0316L66.2609 11.2689C69.1087 7.35185 74.3672 1.96492 81.4279 0.419266ZM31.4377 69.845C29.9231 68.764 27.8189 69.115 26.7375 70.6292C21.0846 78.5469 13.432 91.1953 8.88885 103.454L8.47185 104.603C6.43096 110.349 5.04397 116.161 5.00115 121.424V121.952C5.05248 127.403 6.60583 132.611 10.8547 136.267C19.7266 143.901 33.761 148.438 46.2385 148.461L47.4406 148.45C53.6595 148.314 59.7282 147.021 64.6115 144.127L65.0803 143.842C69.9931 140.777 73.5181 136.078 74.549 129.67L74.6408 129.045C75.5625 122.13 74.7591 116.459 73.6174 112.349L73.3849 111.548C73.1618 110.811 72.9286 110.131 72.6974 109.509C72.2874 108.024 71.6151 106.588 70.7228 105.267C70.6643 105.168 70.6155 105.084 70.5744 105.018C70.5457 104.972 70.5204 104.933 70.5012 104.904C70.4916 104.889 70.4828 104.875 70.4758 104.865L70.4621 104.844L70.4601 104.84C70.4601 104.84 70.4544 104.844 70.4357 104.856L70.4347 104.853L70.4582 104.838C70.3268 104.641 70.1783 104.461 70.0158 104.301C66.2513 99.559 59.532 96.7182 52.2092 99.4984L51.8996 99.7259C39.0012 109.452 51.4541 128.318 67.4025 122.752C67.7104 122.551 68.0042 122.343 68.2853 122.131C68.3337 123.975 68.248 125.988 67.9592 128.155L67.8976 128.578C67.2058 132.913 64.9275 135.976 61.5676 138.089C61.6087 132.481 55.2335 126.543 48.3351 129.227L47.9162 129.562C43.7545 133.081 44.6605 138.425 47.9933 141.687C47.7613 141.696 47.5276 141.705 47.2931 141.71C40.4339 141.86 33.0056 140.402 26.4992 137.772C29.5288 137.789 32.7656 137.223 36.1154 135.933C55.6429 122.714 38.3699 95.9418 16.0549 103.6C20.1232 93.4392 26.2942 83.0687 31.2492 75.93L32.2228 74.5462C33.3041 73.0316 32.9522 70.9265 31.4377 69.845ZM62.2668 21.765C61.3361 20.1535 59.2749 19.6012 57.6633 20.5316C56.0521 21.4621 55.5 23.5226 56.4299 25.1341C57.0296 26.1729 57.3241 27.3061 57.3322 28.5238C47.764 30.6562 40.2953 33.92 35.4474 38.7308L34.8742 39.3197C32.075 42.3007 30.2753 45.8155 29.5832 49.8411L29.5187 50.2406C28.8882 54.376 29.4376 58.8577 30.9806 63.6302L31.0383 63.7933C31.6515 65.4061 33.3913 66.2961 35.0578 65.849L35.2238 65.8001C36.9944 65.2276 37.9658 63.3276 37.3937 61.557C36.1201 57.6176 35.7714 54.3095 36.1418 51.5316L36.2258 50.9827C36.714 48.143 38.0093 45.6846 40.1955 43.515C43.1767 40.5566 47.8657 38.0911 54.4572 36.2015C51.9915 39.8553 48.4771 43.0989 45.8947 44.9974C44.3953 46.0997 44.0739 48.2098 45.176 49.7093C46.244 51.1616 48.2564 51.5085 49.7443 50.5267L49.8869 50.4281C52.9957 48.1426 57.3057 44.1886 60.3459 39.5179L60.6359 39.0638C61.5534 37.5999 62.3884 35.9808 63.008 34.2659C63.5246 34.1748 64.0494 34.0857 64.5822 33.9993L66.2043 33.7484C74.8507 32.47 80.8613 34.9717 86.1721 38.5199C84.7702 40.7893 84.7314 44.4233 86.3176 47.9007C88.4128 52.4937 92.5713 55.1276 95.7541 53.9534L96.0588 53.8284C98.058 52.9165 99.1438 50.6271 99.1613 47.887C100.303 48.5342 101.481 49.1028 102.699 49.5433C106.96 51.0831 111.551 51.0541 116.761 48.555L117.267 48.306C126.873 43.4398 135.374 40.5265 142.181 39.2777C142.018 40.774 142.158 42.3018 142.64 43.7913C144.701 50.1664 152.258 53.4317 159.519 51.0843C160.25 50.8477 160.951 50.5617 161.617 50.2347C162.928 54.1221 164.016 58.7634 164.105 63.5013C164.193 68.2436 163.279 72.9311 160.735 77.0687L160.339 77.6878C158.29 80.7745 155.19 83.6866 150.567 86.0921C150.243 85.1725 149.817 84.3347 149.29 83.5824L149.058 83.265C147.652 81.4253 145.831 80.4237 144.137 79.9036L143.8 79.806C142.046 79.3269 140.371 79.3173 139.201 79.4017C139.082 79.4103 138.966 79.4205 138.855 79.431L138.32 79.012L137.716 78.5579C136.504 77.6681 134.722 76.4715 132.928 75.7786L132.569 75.6468C130.538 74.9427 128.625 74.514 126.639 74.4632L126.24 74.4583C124.111 74.4584 122.079 74.896 119.914 75.6468L119.596 75.7562L119.306 75.9281L118.582 76.3646C115.008 78.5718 112.147 81.1527 111.221 84.7611L111.136 85.1214C110.328 88.8526 111.811 92.6172 114.055 96.3968C114.408 96.9922 114.743 97.5667 115.062 98.1204C104.5 102.651 95.0792 103.574 83.3556 102.109C81.5091 101.878 79.8249 103.189 79.5939 105.035C79.3635 106.882 80.6733 108.566 82.5197 108.797C95.5296 110.423 106.31 109.327 118.33 104.047C121.749 110.06 124.069 112.852 125.477 119.313C126.122 122.274 126.781 126.624 127.285 130.31C127.535 132.136 127.743 133.773 127.889 134.951C127.962 135.54 128.019 136.015 128.058 136.341C128.077 136.504 128.092 136.631 128.102 136.716L128.113 136.812C128.115 136.822 128.116 136.83 128.116 136.835V136.841L128.117 136.842C128.324 138.633 129.899 139.933 131.678 139.819L131.851 139.803C133.642 139.596 134.942 138.021 134.828 136.243L134.813 136.07L134.812 136.068L134.811 136.06L134.809 136.034L134.796 135.932L134.751 135.544L134.578 134.124C134.504 133.524 134.414 132.807 134.311 132.008L133.963 129.396C133.521 126.165 132.938 122.253 132.325 119.153L132.062 117.878C130.31 109.837 126.788 105.407 123.422 99.3333L122.751 98.095C121.918 96.518 120.958 94.8203 119.851 92.9554C117.702 89.3365 117.472 87.518 117.749 86.4359C117.922 85.761 118.407 84.9292 119.626 83.8812C119.888 84.4818 120.127 85.0387 120.333 85.5335C120.622 86.226 120.851 86.7943 121.006 87.1859C121.083 87.3813 121.143 87.5341 121.182 87.6351C121.201 87.6847 121.216 87.7221 121.226 87.7464C121.23 87.7579 121.233 87.7673 121.236 87.7728C121.236 87.7748 121.237 87.7786 121.237 87.7786L121.303 87.9398C121.998 89.5207 123.784 90.3206 125.427 89.7865L125.585 89.7308C127.27 89.0901 128.143 87.2443 127.595 85.5482L127.538 85.3841L127.535 85.3783C127.534 85.3758 127.533 85.3723 127.531 85.3685C127.528 85.3598 127.524 85.3467 127.518 85.3314C127.506 85.3001 127.487 85.2549 127.465 85.1976C127.42 85.082 127.356 84.9141 127.272 84.7025C127.104 84.2784 126.859 83.6722 126.553 82.9378C126.337 82.4211 126.088 81.8389 125.813 81.2083C125.957 81.2013 126.1 81.1976 126.241 81.1976C127.407 81.1976 128.671 81.4286 130.36 82.014C131.262 82.3271 132.524 83.1068 133.728 83.9906C133.898 84.1156 134.061 84.2395 134.216 84.3577L133.534 88.3763L133.51 88.5482C133.301 90.3184 134.515 91.9601 136.292 92.262C138.127 92.5735 139.866 91.339 140.178 89.5042L140.753 86.1136C141.178 86.1368 141.613 86.1957 142.024 86.3079C142.759 86.5088 143.31 86.8423 143.702 87.3558C144.094 87.8693 144.586 88.9 144.586 90.9661C144.586 97.9745 144.148 102.892 143.277 111.517L143.241 111.934C143.101 114.047 143.452 116.59 143.937 119.01C144.471 121.675 145.239 124.526 146.013 127.112C146.789 129.705 147.585 132.08 148.186 133.803C148.486 134.666 148.74 135.37 148.918 135.86C149.007 136.104 149.079 136.295 149.128 136.427C149.152 136.493 149.171 136.544 149.184 136.579C149.19 136.597 149.196 136.611 149.199 136.62C149.201 136.625 149.203 136.629 149.204 136.631L149.205 136.636L149.206 136.637C149.864 138.377 151.808 139.255 153.549 138.598C155.235 137.961 156.112 136.115 155.568 134.417L155.51 134.253L155.507 134.245L155.494 134.213L155.445 134.078L155.25 133.549L154.551 131.585C154.117 130.34 153.579 128.749 153.026 126.989L152.47 125.179C151.82 123.009 151.199 120.723 150.735 118.59L150.545 117.686C150.082 115.376 149.892 113.569 149.964 112.416L149.982 112.195C150.765 104.443 151.221 99.461 151.309 93.2142C158.249 90.1124 163.062 85.9209 166.18 81.0706L166.476 80.599C169.649 75.4386 170.804 69.8044 170.849 64.4447L170.843 63.3763C170.72 56.774 168.978 50.4663 167.116 45.6165C169.217 42.6717 170.026 39.0608 169.034 35.6224L168.933 35.2904C166.871 28.9155 159.314 25.65 152.054 27.9974L151.579 28.1585C149.231 29 147.223 30.3439 145.667 31.9915C145.428 32.0134 145.187 32.0378 144.945 32.0638L144.155 32.1546C135.934 33.1715 125.638 36.5096 114.221 42.2933L113.865 42.4691C110.456 44.1109 107.85 44.1175 105.478 43.3704L104.99 43.2054C102.467 42.2934 100.044 40.5493 97.0851 38.2601L95.7824 37.2464C88.8443 31.8306 79.9465 24.9033 65.217 27.0814C64.8168 27.1406 64.4192 27.2009 64.0246 27.263C63.8577 25.4346 63.3166 23.5835 62.2668 21.765ZM174.691 108.623C172.895 108.135 171.043 109.194 170.554 110.989L169.581 114.566C169.092 116.361 170.151 118.214 171.946 118.703C173.685 119.177 175.479 118.197 176.034 116.503L176.083 116.337L177.057 112.76C177.546 110.965 176.486 109.112 174.691 108.623ZM73.1467 109.057C73.1485 109.056 73.1515 109.054 73.1515 109.054C73.155 109.052 73.1584 109.049 73.1584 109.049L73.1467 109.057ZM185.466 84.8622C182.148 84.6324 177.357 86.0102 175.137 87.0121C173.44 87.7777 172.871 89.8892 173.637 91.5855C174.402 93.2814 177.389 93.7212 179.085 92.9562C180.887 92.1429 183.302 91.4678 185.001 91.5855C185.801 91.641 186.058 91.8456 186.1 91.8859C186.118 91.9028 186.167 91.9532 186.222 92.1026C186.283 92.2687 186.362 92.5929 186.359 93.1461L186.354 93.4014C186.305 94.6281 185.943 95.1146 185.668 95.3864L185.492 95.5448C185.045 95.9101 184.342 96.2498 183.188 96.6331C182.157 96.9752 180.186 97.4973 178.751 98.1805C177.095 98.9692 175.195 100.36 174.482 102.978C173.993 104.774 175.053 106.626 176.848 107.115C178.587 107.589 180.381 106.61 180.936 104.916L180.985 104.75C181.001 104.691 181.011 104.677 181.046 104.642C181.11 104.578 181.274 104.444 181.65 104.265C182.356 103.929 183.057 103.735 184.117 103.409L185.311 103.029C186.715 102.563 188.563 101.854 190.106 100.462L190.411 100.174C192.04 98.5601 192.967 96.4065 193.086 93.7178L193.099 93.1735C193.108 90.9148 192.489 88.8597 191.053 87.314L190.755 87.0121C189.172 85.5003 187.173 84.9805 185.466 84.8622ZM41.6076 101.889C47.3697 97.9567 41.3236 88.8801 34.5695 91.5072L34.3146 91.7093C29.2138 95.9539 34.68 104.033 41.2873 101.995L41.6076 101.889ZM157.579 64.8792C155.531 64.3508 152.231 63.8726 148.641 64.0345L147.965 64.0726C144.554 64.3026 140.659 65.151 137.345 67.3607C135.797 68.393 135.378 70.485 136.41 72.0335C137.41 73.5336 139.405 73.9734 140.937 73.0609L141.464 72.7269C143.402 71.5596 145.853 70.9716 148.4 70.7982L148.945 70.7679C151.83 70.6378 154.461 71.0354 155.896 71.4056C157.698 71.8705 159.535 70.7864 160 68.9847C160.45 67.2391 159.447 65.4595 157.746 64.9271L157.579 64.8792ZM72.5041 53.6527C70.3414 48.9116 65.9801 46.2575 62.7629 47.7249C59.5459 49.1927 58.6912 54.2261 60.8537 58.9671C62.9489 63.56 67.1074 66.1932 70.2902 65.0189L70.5949 64.8939C73.7113 63.4721 74.6111 58.7048 72.6984 54.098L72.5041 53.6527ZM91.8469 6.90071C88.7321 4.99937 85.4963 4.64668 82.4972 5.30305L81.9679 5.43001C76.5414 6.84107 72.2044 11.4044 69.8527 14.8499C68.804 16.387 69.2006 18.4834 70.7375 19.5325C72.2268 20.5489 74.2412 20.2094 75.3195 18.7894L75.4211 18.6488C77.4908 15.6166 80.7679 12.5811 83.9377 11.887C85.3601 11.5757 86.803 11.7181 88.3342 12.6527C89.951 13.6397 91.8924 15.6549 93.8683 19.5189C94.6892 21.1238 96.6201 21.7898 98.2463 21.0599L98.4035 20.9847C100.009 20.1637 100.675 18.2321 99.9445 16.6058L99.8693 16.4495C97.6219 12.0547 95.0421 8.94851 92.1291 7.07747L91.8469 6.90071Z" fill="#FAFAF8"/>
<path fill-rule="evenodd" clip-rule="evenodd" d="M138.646 86.264C138.646 86.264 138.648 86.2645 138.651 86.264L138.654 86.262C138.65 86.263 138.646 86.264 138.646 86.264ZM138.662 86.2611L138.664 86.2601H138.66L138.662 86.2611Z" fill="#1A1A1A"/>
<path d="M26.7373 70.3796C27.8188 68.8651 29.9229 68.5142 31.4375 69.5954C32.9522 70.6769 33.3041 72.7819 32.2227 74.2966C27.1259 81.4354 20.3943 92.5121 16.0547 103.35C38.3698 95.692 55.6431 122.464 36.1153 135.683C32.7654 136.973 29.5287 137.539 26.4991 137.522C33.0056 140.152 40.4346 141.61 47.294 141.461C47.5283 141.456 47.7613 141.446 47.9932 141.437C44.5526 138.07 43.6983 132.484 48.335 128.977C55.2336 126.294 61.6089 132.231 61.5674 137.84C65.0359 135.658 67.351 132.465 67.959 127.905C68.2479 125.738 68.3336 123.726 68.2852 121.882C68.004 122.094 67.7103 122.302 67.4024 122.503C51.3283 128.112 38.8054 108.904 52.209 99.2487C59.532 96.4685 66.2511 99.3092 70.0157 104.051C70.1782 104.212 70.3266 104.391 70.458 104.589L70.4346 104.603L70.4356 104.606C70.456 104.593 70.46 104.591 70.46 104.591L70.4619 104.594C70.4632 104.596 70.4645 104.598 70.4659 104.6C70.4686 104.604 70.4722 104.609 70.4756 104.614C70.4827 104.625 70.4914 104.639 70.501 104.654C70.5203 104.684 70.5455 104.722 70.5742 104.768C70.6154 104.834 70.664 104.918 70.7227 105.017C71.615 106.338 72.2873 107.775 72.6973 109.259C72.9285 109.881 73.1616 110.561 73.3848 111.299C74.6442 115.459 75.6238 121.419 74.6407 128.795C73.7438 135.523 70.1516 140.429 65.0801 143.592C60.1194 146.687 53.86 148.06 47.4405 148.2C34.6715 148.478 20.0126 143.898 10.8545 136.017C6.46842 132.243 4.95521 126.816 5.001 121.175C5.04662 115.56 6.6219 109.322 8.8887 103.205C13.4319 90.9455 21.0844 78.2973 26.7373 70.3796Z" fill="#1A1A1A"/>
<path fill-rule="evenodd" clip-rule="evenodd" d="M57.6631 20.282C59.2749 19.3514 61.336 19.9037 62.2666 21.5154C63.3164 23.3337 63.8575 25.1842 64.0244 27.0124C64.4191 26.9503 64.8166 26.89 65.2168 26.8308C79.9462 24.6528 88.8442 31.58 95.7823 36.9958C99.3534 39.7834 102.106 41.9135 104.99 42.9558C107.575 43.89 110.397 43.9809 114.221 42.0437C126.006 36.0734 136.597 32.7095 144.944 31.8142C145.187 31.7882 145.428 31.7638 145.667 31.7419C147.326 29.9843 149.501 28.5731 152.054 27.7478C159.314 25.4003 166.871 28.6657 168.933 35.0408C170.076 38.5778 169.285 42.327 167.116 45.3669C168.978 50.2167 170.72 56.5235 170.843 63.1257C170.948 68.8006 169.861 74.8446 166.476 80.3493C163.37 85.3995 158.473 89.7627 151.309 92.9646C151.221 99.2115 150.765 104.193 149.981 111.945C149.867 113.08 150.051 114.972 150.545 117.436C151.022 119.818 151.728 122.449 152.47 124.929C153.209 127.401 153.972 129.676 154.551 131.336C154.84 132.164 155.081 132.837 155.25 133.299C155.334 133.53 155.401 133.709 155.445 133.829C155.467 133.888 155.483 133.934 155.494 133.964C155.5 133.978 155.504 133.989 155.507 133.996C155.508 133.999 155.51 134.004 155.51 134.004C156.168 135.745 155.29 137.69 153.549 138.348C151.808 139.006 149.864 138.128 149.206 136.387L152.358 135.196L149.205 136.386L149.204 136.382C149.203 136.379 149.201 136.375 149.199 136.371C149.196 136.361 149.19 136.347 149.184 136.33C149.17 136.295 149.152 136.243 149.128 136.177C149.079 136.046 149.007 135.855 148.918 135.61C148.739 135.121 148.486 134.417 148.186 133.553C147.585 131.83 146.789 129.456 146.013 126.862C145.239 124.276 144.471 121.425 143.937 118.76C143.419 116.178 143.055 113.458 143.276 111.267C144.148 102.642 144.586 97.725 144.586 90.7165C144.586 88.65 144.094 87.6196 143.702 87.1062C143.31 86.5925 142.759 86.2592 142.023 86.0583C141.612 85.9461 141.178 85.8872 140.753 85.864L140.179 89.2546C139.867 91.0895 138.127 92.3239 136.292 92.0124C134.457 91.7007 133.223 89.9614 133.534 88.1267L134.216 84.1081C134.061 83.9898 133.898 83.866 133.728 83.7409C132.523 82.8571 131.262 82.0775 130.359 81.7644C128.671 81.1789 127.407 80.948 126.241 80.948C126.1 80.948 125.957 80.9517 125.813 80.9587C126.087 81.5894 126.337 82.1713 126.553 82.6882C126.859 83.4228 127.103 84.0287 127.272 84.4528C127.355 84.6647 127.42 84.8324 127.465 84.948C127.487 85.0055 127.506 85.0504 127.518 85.0817C127.524 85.0973 127.528 85.1101 127.531 85.1189C127.533 85.1229 127.534 85.1261 127.535 85.1286L127.537 85.1315L127.538 85.1335L127.595 85.2985C128.143 86.9947 127.27 88.8404 125.585 89.4812C123.9 90.1218 122.02 89.3221 121.303 87.6901L121.237 87.529C121.237 87.529 121.236 87.5256 121.235 87.5231C121.233 87.5177 121.23 87.5085 121.226 87.4968C121.216 87.4724 121.201 87.4346 121.182 87.3845C121.143 87.2835 121.083 87.1315 121.006 86.9362C120.851 86.5446 120.622 85.9757 120.333 85.2829C120.127 84.7881 119.888 84.2322 119.626 83.6315C118.407 84.6798 117.922 85.5113 117.749 86.1862C117.472 87.2684 117.702 89.0865 119.851 92.7058C120.958 94.5706 121.918 96.2675 122.751 97.8444C126.31 104.582 130.193 109.051 132.062 117.629C132.768 120.873 133.458 125.454 133.963 129.146C134.218 131.009 134.43 132.674 134.578 133.875C134.652 134.475 134.711 134.959 134.751 135.295C134.771 135.462 134.786 135.593 134.796 135.682C134.801 135.726 134.806 135.761 134.809 135.784C134.81 135.795 134.81 135.804 134.811 135.81C134.811 135.813 134.812 135.818 134.812 135.818L134.813 135.82C135.026 137.669 133.699 139.34 131.851 139.553C130.002 139.767 128.331 138.441 128.117 136.592L128.116 136.59V136.586C128.116 136.581 128.115 136.572 128.113 136.562C128.111 136.541 128.107 136.509 128.102 136.466C128.092 136.382 128.077 136.255 128.058 136.091C128.019 135.765 127.962 135.291 127.889 134.702C127.743 133.523 127.535 131.887 127.285 130.06C126.781 126.374 126.122 122.024 125.477 119.063C124.069 112.602 121.749 109.81 118.33 103.798C106.31 109.078 95.5295 110.174 82.5196 108.548C80.6731 108.317 79.3633 106.632 79.5938 104.786C79.8246 102.939 81.5089 101.628 83.3555 101.859C95.0791 103.325 104.5 102.402 115.062 97.8708C114.743 97.3169 114.408 96.7427 114.055 96.1472C111.738 92.2458 110.233 88.3606 111.221 84.5114C112.208 80.6625 115.397 77.9828 119.306 75.6784L119.596 75.5065L119.914 75.3972C122.079 74.6463 124.11 74.2078 126.24 74.2077C128.37 74.2077 130.403 74.6461 132.568 75.3972C134.482 76.0607 136.423 77.3591 137.716 78.3083C138.139 78.6192 138.523 78.9187 138.855 79.1814C138.966 79.1709 139.082 79.1607 139.201 79.1521C140.371 79.0677 142.046 79.0763 143.8 79.5554C145.586 80.0434 147.558 81.0529 149.058 83.0153C149.693 83.8475 150.196 84.7912 150.566 85.8425C155.498 83.2766 158.695 80.1347 160.734 76.819C163.279 72.6814 164.193 67.9941 164.105 63.2517C164.016 58.5137 162.928 53.8725 161.618 49.9851C160.951 50.3123 160.251 50.598 159.519 50.8347C152.258 53.1822 144.701 49.917 142.64 43.5417C142.158 42.0521 142.018 40.5245 142.181 39.0281C135.374 40.2769 126.872 43.1902 117.267 48.0564C111.848 50.8014 107.097 50.8831 102.699 49.2937C101.48 48.8532 100.303 48.2847 99.1612 47.6374C99.1436 50.3776 98.0579 52.6669 96.0586 53.5788C92.8414 55.0462 88.4801 52.3921 86.3174 47.6511C84.731 44.1732 84.7695 40.5388 86.1719 38.2693C80.8612 34.7212 74.8505 32.2204 66.2041 33.4988C65.1063 33.6611 64.0408 33.834 63.0078 34.0163C62.3882 35.7313 61.5533 37.3502 60.6358 38.8142C57.5846 43.6824 53.0959 47.8193 49.8867 50.1785C48.3873 51.2807 46.2783 50.9589 45.1758 49.4597C44.0735 47.9601 44.395 45.8501 45.8946 44.7478C48.477 42.8493 51.9913 39.6058 54.4571 35.9519C47.8654 37.8415 43.1766 40.3069 40.1953 43.2654C38.009 45.4351 36.7139 47.8932 36.2256 50.7331C35.7291 53.6215 36.035 57.1043 37.3936 61.3064C37.966 63.0772 36.9945 64.978 35.2237 65.5505C33.453 66.1229 31.5532 65.1512 30.9805 63.3806C29.3876 58.4539 28.8532 53.8375 29.583 49.5915C30.3213 45.2973 32.3197 41.5851 35.4473 38.4812C40.2951 33.6703 47.7637 30.4066 57.3321 28.2742C57.324 27.0563 57.0295 25.9234 56.4297 24.8845C55.4996 23.2729 56.0518 21.2126 57.6631 20.282ZM138.646 86.0144C138.646 86.0144 138.648 86.0139 138.65 86.0134L138.654 86.0124C138.65 86.0134 138.646 86.0144 138.646 86.0144Z" fill="#1A1A1A"/>
<path d="M170.586 111.105C171.064 109.307 172.636 107.719 175.136 108.382C176.935 108.86 177.578 111.036 177.1 112.834L176.15 116.417C175.672 118.216 173.827 119.287 172.028 118.81C170.229 118.333 169.158 116.487 169.636 114.688L170.586 111.105Z" fill="#1A1A1A"/>
<path d="M175.136 86.8824C177.349 85.8661 182.009 84.674 185.329 84.8824C187.036 84.9896 189.039 85.4962 190.631 86.9979C192.29 88.5622 193.01 90.7347 193.016 93.144C193.023 96.088 192.099 98.4291 190.372 100.162C188.783 101.756 186.785 102.543 185.291 103.05C183.508 103.655 182.577 103.855 181.638 104.31C181.263 104.491 181.1 104.626 181.037 104.69C181.002 104.726 180.992 104.739 180.977 104.797C180.499 106.596 178.654 107.668 176.855 107.191C175.056 106.713 173.984 104.868 174.462 103.069C175.158 100.446 177.049 99.0432 178.7 98.2438C180.13 97.5513 182.098 97.0165 183.127 96.6678C184.444 96.221 185.17 95.8343 185.599 95.404C185.889 95.1122 186.279 94.5763 186.276 93.1603C186.274 92.6067 186.193 92.2834 186.131 92.1176C186.075 91.9682 186.026 91.9186 186.008 91.9017C185.966 91.8621 185.708 91.6589 184.907 91.6085C183.207 91.5018 180.796 92.1916 179 93.0165C177.308 93.7925 174.412 93.5734 173.636 91.8824C172.859 90.191 173.262 87.7425 175.136 86.8824Z" fill="#1A1A1A"/>
<path d="M34.5694 91.2575C41.3236 88.6302 47.3698 97.7071 41.6074 101.639C34.7517 104.083 28.9498 95.5076 34.5694 91.2575Z" fill="#1A1A1A"/>
<path d="M148.641 63.7849C152.231 63.623 155.531 64.1012 157.579 64.6296C159.381 65.0947 160.465 66.933 160 68.7351C159.535 70.5369 157.697 71.6209 155.896 71.156C154.461 70.7858 151.83 70.3881 148.944 70.5183C146.034 70.6496 143.209 71.3014 141.083 72.7185C139.534 73.7508 137.443 73.3324 136.41 71.7839C135.378 70.2353 135.796 68.1434 137.345 67.1111C140.88 64.754 145.075 63.9457 148.641 63.7849Z" fill="#1A1A1A"/>
<path d="M62.7627 47.4753C65.9799 46.0078 70.3411 48.6611 72.5039 53.4021C74.6666 58.1433 73.812 63.1767 70.5948 64.6443C67.3775 66.1118 63.0162 63.4578 60.8535 58.7165C58.6911 53.9755 59.5458 48.943 62.7627 47.4753Z" fill="#1A1A1A"/>
<path d="M82.1731 5.38234C85.1649 4.69266 88.4042 5.00884 91.54 6.87576C94.5894 8.6914 97.2978 11.8253 99.6677 16.3359C100.533 17.9835 99.8995 20.021 98.2519 20.8866C96.6044 21.7521 94.5668 21.1183 93.7012 19.4709C91.6826 15.6289 89.7195 13.6359 88.0917 12.6668C86.5502 11.7491 85.1062 11.6227 83.6871 11.9498C80.525 12.6788 77.2813 15.7504 75.2452 18.8055C74.2131 20.3542 72.1202 20.7733 70.5714 19.7412C69.023 18.7092 68.6041 16.617 69.6357 15.0684C72.0238 11.485 76.5138 6.68703 82.1731 5.38234Z" fill="#1A1A1A"/>
</svg>
