<svg preserveAspectRatio="none" width="100%" height="100%" overflow="visible" style="display: block;" viewBox="0 0 128.544 275.731" fill="none" xmlns="http://www.w3.org/2000/svg">
<g id="Group 1000006774">
<path id="Vector" d="M64.9807 2.85354C39.5322 3.57425 42.6426 15.6278 31.7572 27.5947C14.0468 47.0647 -2.03264 78.9152 4.18801 89.0944C11.9638 101.818 21.1548 117.37 33.8788 115.249C40.878 114.083 43.5988 110.503 43.0075 98.9636C43.0075 98.9636 49.4156 118.063 36.6915 135.735C31.0029 143.636 28.7525 151.113 28.2347 158.356C11.412 149.166 6.85933 185.218 17.6192 208.545C22.3614 218.826 43.3056 221.269 57.4434 214.2C46.8396 228.338 48.2531 253.786 72.2874 269.338C85.717 278.029 88.5455 268.631 84.3053 264.39C72.9945 253.076 51.7891 238.235 75.1157 214.2C89.2535 221.269 110.602 221.269 115.169 206.425C123.649 178.856 117.996 149.166 101.174 158.356C100.656 151.113 98.4054 143.636 92.7168 135.735C79.9928 118.063 86.734 98.3323 86.734 98.3323C86.9635 106.832 89.1924 114.336 94.6701 115.249C107.394 117.37 116.585 101.818 124.361 89.0944C130.582 78.9152 114.308 47.2394 96.7911 27.5947C86.3172 15.8485 90.4292 2.13283 64.9807 2.85354Z" fill="var(--fill-0, white)"/>
<g id="Union">
<path d="M48.0219 198.287C52.5239 198.877 52.4778 206.145 47.9032 206.637C43.3657 205.813 43.4576 198.919 48.0219 198.287Z" fill="var(--fill-0, #1A1A1A)"/>
<path d="M75.0494 184.389C85.3545 185.875 85.3768 200.209 75.0936 201.752C64.762 200.558 64.8533 185.448 75.0494 184.389Z" fill="var(--fill-0, #1A1A1A)"/>
<path d="M74.8838 160.114C79.3857 160.705 79.3397 167.972 74.765 168.465C70.2276 167.641 70.3195 160.747 74.8838 160.114Z" fill="var(--fill-0, #1A1A1A)"/>
<path d="M42.6884 152.178C39.0144 146.248 47.2742 139.06 52.6857 143.464C56.5399 149.262 47.7827 156.781 42.6884 152.178Z" fill="var(--fill-0, #1A1A1A)"/>
<path d="M98.8408 95.3649C104.508 96.7644 103.269 108.512 97.3331 108.855C91.6587 107.074 92.8952 95.9369 98.8408 95.3649Z" fill="var(--fill-0, #1A1A1A)"/>
<path d="M20.8369 62.0843C25.2409 63.3218 25.1478 72.7221 20.7168 73.4705C16.348 72.5518 16.3969 62.6416 20.8369 62.0843Z" fill="var(--fill-0, #1A1A1A)"/>
<path d="M101.982 58.9309C108.316 59.5402 109.633 71.4067 103.587 73.3035C97.2638 72.9374 95.9445 60.4219 101.982 58.9309Z" fill="var(--fill-0, #1A1A1A)"/>
<path fill-rule="evenodd" clip-rule="evenodd" d="M64.9044 0.0283845C71.4912 -0.158131 76.4355 0.577575 80.2849 2.1463C84.2078 3.7451 86.8086 6.13378 88.7993 8.89766C90.6977 11.5336 92.1055 14.633 93.5059 17.3928C94.9567 20.2517 96.5329 23.0529 98.9057 25.7139C107.845 35.74 116.444 48.799 122.04 60.6913C124.836 66.6331 126.933 72.3927 127.919 77.4095C128.876 82.286 128.908 87.0823 126.777 90.5699C125.829 92.1214 124.845 93.7379 123.826 95.3759C123.042 97.6515 121.77 99.7056 119.984 101.302C117.939 104.294 115.764 107.177 113.442 109.667C108.353 115.127 101.98 119.334 94.2087 118.039C91.4221 117.575 89.365 115.977 87.8757 113.907C88.2798 120.015 90.0742 127.221 95.015 134.084C100.037 141.059 102.552 147.783 103.565 154.324C107.087 153.341 110.409 153.803 113.269 155.792C116.854 158.286 119.11 162.79 120.405 167.914C123.02 178.263 122.223 193.12 117.874 207.257C115.148 216.117 107.414 220.282 99.0907 221.337C91.4911 222.299 82.9357 220.781 75.7798 217.632C71.1073 222.783 68.7671 227.29 67.8825 231.214C66.9272 235.452 67.6063 239.274 69.2866 242.869C70.9946 246.523 73.7325 249.929 76.8636 253.2C78.4212 254.828 80.0457 256.39 81.6572 257.921C83.2521 259.436 84.8611 260.943 86.3086 262.391C87.8365 263.92 88.7441 265.92 88.925 267.921C89.1053 269.919 88.5622 272.133 86.8913 273.747C85.1848 275.396 82.7574 275.987 80.0612 275.632C77.4071 275.282 74.3089 274.012 70.7542 271.712C48.9416 257.598 44.5017 235.373 51.1615 219.55C45.3709 221.08 39.2062 221.424 33.6383 220.682C25.7203 219.627 18.043 216.208 15.0548 209.731C9.42822 197.532 7.80949 182.102 9.8028 170.768C10.7889 165.161 12.7458 160.052 16.0392 156.975C17.7448 155.381 19.8341 154.317 22.2618 154.102C23.4409 153.997 24.6361 154.099 25.839 154.389C26.846 147.828 29.3615 141.082 34.4004 134.084C39.109 127.544 41.0089 120.794 41.5867 115.007C39.6166 116.716 37.1081 117.579 34.3466 118.039C26.5752 119.334 20.2025 115.126 15.1128 109.667C10.015 104.199 5.61485 96.8476 1.77848 90.5699C-0.34975 87.0873 -0.334113 82.2846 0.607692 77.3943C1.57662 72.3637 3.65619 66.5876 6.44093 60.6319C12.0135 48.7139 20.6172 35.6445 29.6689 25.6932C32.1831 22.9293 33.9096 20.1416 35.5187 17.3652C37.0853 14.6622 38.6579 11.741 40.7238 9.21659C42.8703 6.5939 45.5775 4.33999 49.5144 2.72479C53.3929 1.13358 58.338 0.214349 64.9044 0.0283845ZM78.5259 262.745C78.044 264.72 76.6496 266.614 74.6352 267.469C77.3821 269.145 79.4117 269.842 80.7998 270.025C82.2774 270.22 82.8123 269.824 82.9619 269.68C83.1462 269.501 83.3535 269.112 83.2919 268.429C83.2301 267.747 82.9006 266.982 82.3089 266.39C81.1455 265.226 79.8772 264.025 78.5259 262.745ZM54.0194 232.331C53.8298 236.192 54.3096 240.24 55.5754 244.275C56.6219 243.562 57.9092 243.133 59.3791 243.17C63.9829 244.539 63.2618 250.567 59.7146 253.116C61.973 256.664 64.9467 260.081 68.7233 263.22C68.8144 260.824 70.4007 258.285 72.9522 257.289C72.8947 257.229 72.8357 257.17 72.7783 257.11C71.9409 256.236 71.1082 255.329 70.2973 254.391C69.4057 255.506 68.0514 256.283 66.3914 256.192C62.9833 254.989 63.4752 250.686 66.1042 248.796C65.388 247.658 64.7324 246.481 64.163 245.263C62.7351 242.208 61.8366 238.894 61.7925 235.327C61.4955 235.484 61.1758 235.626 60.8315 235.748C57.8672 235.909 55.4858 234.408 54.0194 232.331ZM78.1504 7.38309C75.2861 6.21583 71.2018 5.50698 65.0646 5.68076C58.9069 5.85514 54.6971 6.71199 51.6613 7.95744C48.6842 9.17887 46.7166 10.8216 45.0991 12.798C43.4012 14.8727 42.1185 17.2549 40.4118 20.1996C38.7476 23.0711 36.7804 26.2793 33.8523 29.4983C25.1941 39.0169 16.9025 51.6082 11.5631 63.0273C8.89218 68.7397 7.01046 74.0521 6.16066 78.4643C5.28397 83.0167 5.62191 86.0139 6.60384 87.6208C6.61191 87.634 6.61925 87.6476 6.62732 87.6608C6.77123 81.957 9.32746 76.4609 14.3424 75.7707C24.4025 78.2573 24.7081 98.0821 15.1818 100.854C16.4957 102.634 17.8473 104.307 19.2492 105.811C20.1442 106.771 21.0386 107.638 21.9332 108.408C21.3765 104.099 22.9273 99.1602 26.5846 98.7019C31.3961 100.054 32.4147 108.285 29.749 112.464C30.9531 112.664 32.1736 112.669 33.4174 112.461C36.5213 111.944 37.9896 111.016 38.8654 109.548C39.889 107.832 40.4776 104.787 40.1867 99.1092C40.1834 99.0451 40.1778 98.9804 40.1743 98.9159C38.7623 99.8435 37.1343 100.478 35.2868 100.719C20.1603 97.6223 20.3688 67.27 35.7479 65.8549C46.2108 68.6526 49.3221 83.0879 45.2841 92.5166C45.5304 94.682 45.7116 96.658 45.8129 98.4603C45.8608 98.6213 45.9228 98.8292 45.991 99.0816C46.1573 99.6974 46.3738 100.58 46.5888 101.685C47.0182 103.894 47.4456 107.016 47.4517 110.719C47.4637 118.129 45.7855 127.949 38.9897 137.388C33.6209 144.844 31.5413 151.815 31.0593 158.558C30.8433 161.58 30.9486 165.871 31.2346 170.538C32.8714 164.919 37.2526 160.174 44.388 159.25C63.3599 161.655 63.7648 188.865 44.9099 192.21C38.7918 191.616 34.6228 188.241 32.4012 183.857C32.6849 186.412 32.9852 188.825 33.2807 190.943C42.553 195.554 37.7901 211.445 27.4254 210.255C19.8783 207.058 21.4952 195.641 27.7153 191.96C26.4615 183.05 25.0624 168.702 25.3199 160.132C24.3023 159.769 23.4563 159.673 22.7602 159.735C21.7612 159.823 20.8181 160.249 19.8995 161.107C17.9444 162.934 16.2822 166.575 15.3723 171.748C14.8975 174.448 14.6538 177.429 14.6434 180.559C15.8783 179.978 17.4176 179.78 19.1995 180.173C26.5774 183.749 23.5707 193.318 15.5615 191.81C16.4477 197.193 17.9797 202.568 20.1908 207.362C21.9453 211.164 27.1119 214.107 34.3852 215.077C41.4866 216.023 49.6772 214.925 56.1829 211.672C57.3558 211.086 58.7778 211.383 59.6179 212.39C60.4576 213.397 60.4957 214.849 59.7091 215.898C58.3359 217.729 57.1795 219.785 56.2726 222.008C56.3188 221.993 56.3651 221.977 56.4121 221.963C59.6759 221.881 62.2146 223.649 63.6177 225.967C65.3731 221.577 68.4487 217.014 73.0903 212.231L73.256 212.074C74.1137 211.322 75.3495 211.155 76.3831 211.672C81.7835 214.372 88.3011 215.955 94.3468 215.966C83.7232 209.768 85.1099 188.034 98.5025 186.224C98.6668 186.251 98.829 186.284 98.9899 186.316C99.1224 183.731 99.1661 180.851 99.1473 177.871C97.389 181.421 94.0019 184.045 89.6539 183.402C80.2848 178.837 85.046 162.859 95.4375 164.052C96.9064 164.674 98.0283 165.607 98.8366 166.735C98.6935 163.664 98.521 160.845 98.3575 158.558C97.8755 151.815 95.7945 144.844 90.4257 137.388C83.6139 127.927 82.0305 117.929 82.1308 110.37C82.181 106.589 82.6512 103.391 83.1124 101.128C83.3433 99.9946 83.5735 99.0903 83.7489 98.4589C83.8062 98.2525 83.8581 98.0743 83.9022 97.9273C83.8313 94.1031 84.1388 90.0952 84.7319 86.3561C83.8619 79.5186 88.2084 71.0439 95.0923 71.8262C104.631 76.2423 100.344 94.4439 89.9163 93.8779C89.8195 93.8373 89.7257 93.7917 89.6318 93.7481C89.5516 95.2586 89.5241 96.7731 89.5642 98.2573C89.6744 102.336 90.2652 105.949 91.348 108.55C92.4349 111.161 93.7643 112.232 95.1379 112.461C100.09 113.287 104.676 110.778 109.306 105.811C110.031 105.033 110.74 104.206 111.441 103.346C99.3217 99.1276 98.0361 76.2153 111.543 72.9487C116.769 73.2753 120.558 76.4317 122.714 80.6361C122.63 79.9664 122.518 79.254 122.37 78.4989C121.506 74.1002 119.607 68.8035 116.923 63.0991C111.558 51.698 103.26 39.0961 94.6836 29.4776C91.8197 26.2658 89.9816 22.9462 88.4624 19.9525C86.8931 16.8599 85.7735 14.3724 84.21 12.2016C82.7386 10.1588 80.9406 8.52022 78.1504 7.38309ZM110.039 160.435C108.636 159.459 106.775 159.053 104.129 160.088C104.412 164.44 104.695 170.116 104.782 175.767C104.851 180.32 104.794 184.955 104.49 188.895C111.339 194.458 111.927 206.73 106.132 213.337C109.181 211.631 111.398 209.075 112.469 205.594C113.5 202.245 114.31 198.873 114.913 195.558C114.705 195.645 114.487 195.715 114.256 195.761C109.907 195.152 109.925 186.266 114.34 185.55C115.021 185.689 115.595 186.011 116.062 186.457C116.515 179.949 116.11 173.998 114.923 169.299C113.761 164.703 111.979 161.784 110.039 160.435Z" fill="var(--fill-0, #1A1A1A)"/>
</g>
</g>
</svg>
