<svg preserveAspectRatio="none" width="100%" height="100%" overflow="visible" style="display: block;" viewBox="0 0 54.9476 298.904" fill="none" xmlns="http://www.w3.org/2000/svg">
<g id="Vector 4486">
<path d="M47.887 205.346C42.084 165.886 47.9024 70.737 51.9365 22.9868C52.2397 19.398 51.3098 15.8034 48.9332 13.0973C44.2973 7.81866 37.3033 1.60691 31.2856 1.60691C26.1192 1.60691 19.5793 4.44121 14.4216 7.31096C10.187 9.66714 7.89331 14.2871 7.89331 19.1332V101.065C7.89331 102.166 7.77264 103.261 7.66119 104.356C7.22236 108.67 6.86652 120.126 7.89331 142.715C9.00511 167.174 4.22998 239.156 1.11027 280.054C0.654542 286.029 3.70373 291.859 9.34467 293.879C25.34 299.607 38.7584 296.932 46.8407 293.181C50.608 291.433 52.646 287.522 52.8175 283.372C53.4223 268.735 53.0053 240.15 47.887 205.346Z" fill="var(--fill-0, #726350)"/>
<path d="M50.4262 48.8742L48.8936 48.6351L50.4262 48.8742ZM49.3909 56.2447L50.93 56.4371V56.4371L49.3909 56.2447ZM49.0834 63.6573L47.5336 63.7215L49.0834 63.6573ZM48.0445 78.4463L49.5476 78.8292L48.0445 78.4463ZM47.0434 85.8192L48.5942 85.8478L47.0434 85.8192ZM47.2689 108.105L48.8197 108.132L47.2689 108.105ZM46.2862 122.907L47.8352 122.826L46.2862 122.907ZM46.1434 130.323L44.5986 130.182L46.1434 130.323ZM45.2929 145.132L46.8374 144.989L45.2929 145.132ZM45.6367 152.552L47.1877 152.552L45.6367 152.552ZM45.5256 159.975L47.076 160.022L45.5256 159.975ZM45.5172 182.234L43.9668 182.281L45.5172 182.234ZM46.1572 189.627L47.6926 189.407L46.1572 189.627ZM47.175 196.979L48.7124 196.773V196.773L47.175 196.979ZM47.5943 204.396L49.1451 204.426L47.5943 204.396ZM50.3297 218.984L48.7902 219.173L50.3297 218.984ZM50.7238 226.402L49.1729 226.377L50.7238 226.402ZM50.9004 233.835L52.4484 233.737L50.9004 233.835ZM52.0923 256.023L50.5417 255.983L52.0923 256.023ZM53.269 270.823L51.7267 270.659L53.269 270.823ZM53.0714 278.244L51.5225 278.327L53.0714 278.244ZM52.0452 285.4L53.5068 285.919L52.0452 285.4ZM48.3056 291.446L49.4205 292.524L48.3056 291.446ZM42.1879 294.986L41.7966 293.485L42.1879 294.986ZM27.6144 297.085L27.88 295.556L27.6144 297.085ZM20.1637 296.467L20.1746 298.018L20.1637 296.467ZM6.36835 291.782L7.24141 290.5L6.36835 291.782ZM2.30524 286.137L3.7982 285.716L2.30524 286.137ZM1.63358 278.91L3.17836 279.049L1.63358 278.91ZM2.19476 271.536L3.7429 271.632L2.19476 271.536ZM2.80414 264.145L4.34704 264.304L2.80414 264.145ZM2.9786 256.729L1.42985 256.814L2.9786 256.729ZM3.59118 249.334L5.10495 249.672L3.59118 249.334ZM4.06623 241.934L5.61084 241.792L4.06623 241.934ZM4.98238 227.128L3.43887 226.974L4.98238 227.128ZM5.66007 219.739L4.11443 219.609L5.66007 219.739ZM5.78863 212.317L4.23939 212.393L5.78863 212.317ZM6.64091 197.507L5.11667 197.219V197.219L6.64091 197.507ZM8.24018 153.028L6.69309 152.916L8.24018 153.028ZM8.44627 145.607L9.99716 145.582L8.44627 145.607ZM8.04963 138.21L9.59438 138.07L8.04963 138.21ZM7.39496 130.815L8.94031 130.682L7.39496 130.815ZM7.93253 115.995L6.38257 115.936L7.93253 115.995ZM8.06098 101.171L6.53232 100.908L8.06098 101.171ZM7.91787 93.7729L6.39983 94.0914L7.91787 93.7729ZM7.47479 78.9444L5.92653 78.8506L7.47479 78.9444ZM8.18535 64.1159L6.64383 63.9439L8.18535 64.1159ZM8.6255 56.7017L7.07444 56.6906L8.6255 56.7017ZM10.1904 12.7269L8.7505 12.1502L10.1904 12.7269ZM14.6309 7.31584L13.7726 6.02387L14.6309 7.31584ZM35.3038 2.82743L34.4923 4.14933L35.3038 2.82743ZM41.3618 7.07741L40.3918 8.28781L41.3618 7.07741ZM47.1296 11.6683L48.0917 10.4516L47.1296 11.6683ZM51.2104 26.6324L49.6892 26.3294C49.1862 28.855 48.9222 31.4099 48.8971 33.9931L50.4481 34.0082L51.9992 34.0232C52.0224 31.6328 52.2666 29.2706 52.7316 26.9354L51.2104 26.6324ZM50.4481 34.0082L48.8971 33.9931C48.8725 36.5257 48.96 39.0579 49.1596 41.5893L50.7059 41.4674L52.2522 41.3454C52.0598 38.9049 51.9754 36.4642 51.9992 34.0232L50.4481 34.0082ZM50.7059 41.4674L49.1596 41.5893C49.3462 43.9554 49.2574 46.3032 48.8936 48.6351L50.4262 48.8742L51.9587 49.1133C52.36 46.5414 52.4577 43.9513 52.2522 41.3454L50.7059 41.4674ZM50.4262 48.8742L48.8936 48.6351C48.5087 51.1026 48.1614 53.575 47.8518 56.0523L49.3909 56.2447L50.93 56.4371C51.2358 53.9909 51.5787 51.5497 51.9587 49.1133L50.4262 48.8742ZM49.3909 56.2447L47.8518 56.0523C47.5335 58.5992 47.4274 61.1559 47.5336 63.7215L49.0834 63.6573L50.6331 63.5932C50.534 61.1988 50.633 58.8137 50.93 56.4371L49.3909 56.2447ZM49.0834 63.6573L47.5336 63.7215C47.6346 66.1622 47.6424 68.5973 47.5571 71.0268L49.1072 71.0813L50.6573 71.1358C50.7455 68.6268 50.7374 66.1126 50.6331 63.5932L49.0834 63.6573ZM49.1072 71.0813L47.5571 71.0268C47.4742 73.3831 47.1362 75.7281 46.5414 78.0634L48.0445 78.4463L49.5476 78.8292C50.1961 76.2831 50.5666 73.718 50.6573 71.1358L49.1072 71.0813ZM48.0445 78.4463L46.5414 78.0634C45.8907 80.618 45.5405 83.1944 45.4926 85.7905L47.0434 85.8192L48.5942 85.8478C48.6377 83.4949 48.9549 81.1561 49.5476 78.8292L48.0445 78.4463ZM47.0434 85.8192L45.4926 85.7905C45.4464 88.29 45.4604 90.7919 45.5346 93.2962L47.085 93.2503L48.6354 93.2044C48.5627 90.7496 48.549 88.2974 48.5942 85.8478L47.0434 85.8192ZM47.085 93.2503L45.5346 93.2962C45.6078 95.7701 45.6674 98.2423 45.7135 100.713L47.2643 100.684L48.8151 100.655C48.7689 98.1731 48.709 95.6896 48.6354 93.2044L47.085 93.2503ZM47.2643 100.684L45.7135 100.713C45.7593 103.17 45.7608 105.625 45.718 108.078L47.2689 108.105L48.8197 108.132C48.8632 105.642 48.8617 103.15 48.8151 100.655L47.2643 100.684ZM47.2689 108.105L45.718 108.078C45.6761 110.48 45.4751 112.877 45.1149 115.27L46.6487 115.501L48.1825 115.732C48.5629 113.205 48.7754 110.672 48.8197 108.132L47.2689 108.105ZM46.6487 115.501L45.1149 115.27C44.7291 117.833 44.6031 120.406 44.7371 122.987L46.2862 122.907L47.8352 122.826C47.712 120.453 47.8277 118.089 48.1825 115.732L46.6487 115.501ZM46.2862 122.907L44.7371 122.987C44.8619 125.391 44.8158 127.789 44.5986 130.182L46.1434 130.323L47.6882 130.463C47.9186 127.923 47.9676 125.377 47.8352 122.826L46.2862 122.907ZM46.1434 130.323L44.5986 130.182C44.376 132.636 44.1224 135.09 43.8378 137.544L45.3785 137.722L46.9193 137.901C47.2069 135.422 47.4632 132.942 47.6882 130.463L46.1434 130.323ZM45.3785 137.722L43.8378 137.544C43.5392 140.117 43.5095 142.695 43.7484 145.275L45.2929 145.132L46.8374 144.989C46.6183 142.623 46.6456 140.261 46.9193 137.901L45.3785 137.722ZM45.2929 145.132L43.7484 145.275C43.9731 147.701 44.0855 150.127 44.0856 152.553L45.6367 152.552L47.1877 152.552C47.1877 150.031 47.0709 147.51 46.8374 144.989L45.2929 145.132ZM45.6367 152.552L44.0856 152.553C44.0856 155.011 44.0488 157.469 43.9752 159.929L45.5256 159.975L47.076 160.022C47.1506 157.531 47.1878 155.042 47.1877 152.552L45.6367 152.552ZM45.5256 159.975L43.9752 159.929C43.8985 162.486 44.026 165.038 44.3575 167.584L45.8956 167.384L47.4337 167.184C47.1235 164.801 47.0043 162.414 47.076 160.022L45.5256 159.975ZM45.8956 167.384L44.3575 167.584C44.6609 169.915 44.6593 172.251 44.352 174.596L45.8899 174.798L47.4279 174.999C47.7699 172.389 47.7721 169.783 47.4337 167.184L45.8956 167.384ZM45.8899 174.798L44.352 174.596C44.0166 177.156 43.8881 179.718 43.9668 182.281L45.5172 182.234L47.0675 182.186C46.994 179.79 47.114 177.395 47.4279 174.999L45.8899 174.798ZM45.5172 182.234L43.9668 182.281C44.0447 184.818 44.263 187.34 44.6217 189.847L46.1572 189.627L47.6926 189.407C47.3503 187.015 47.1419 184.608 47.0675 182.186L45.5172 182.234ZM46.1572 189.627L44.6217 189.847C44.9716 192.291 45.3102 194.737 45.6376 197.185L47.175 196.979L48.7124 196.773C48.3837 194.317 48.0438 191.861 47.6926 189.407L46.1572 189.627ZM47.175 196.979L45.6376 197.185C45.9551 199.558 46.0905 201.951 46.0435 204.366L47.5943 204.396L49.1451 204.426C49.1952 201.855 49.051 199.304 48.7124 196.773L47.175 196.979ZM47.5943 204.396L46.0435 204.366C45.9916 207.034 46.3865 209.649 47.2259 212.201L48.6993 211.716L50.1728 211.232C49.4417 209.009 49.1 206.742 49.1451 204.426L47.5943 204.396ZM48.6993 211.716L47.2259 212.201C47.9799 214.494 48.501 216.818 48.7902 219.173L50.3297 218.984L51.8693 218.795C51.555 216.236 50.9891 213.714 50.1728 211.232L48.6993 211.716ZM50.3297 218.984L48.7902 219.173C49.0832 221.559 49.2108 223.961 49.1729 226.377L50.7238 226.402L52.2747 226.426C52.3148 223.867 52.1797 221.323 51.8693 218.795L50.3297 218.984ZM50.7238 226.402L49.1729 226.377C49.1332 228.906 49.193 231.425 49.3524 233.933L50.9004 233.835L52.4484 233.737C52.2942 231.31 52.2363 228.873 52.2747 226.426L50.7238 226.402ZM50.9004 233.835L49.3524 233.933C49.5098 236.411 49.6912 238.885 49.8967 241.356L51.4425 241.228L52.9882 241.099C52.7844 238.648 52.6045 236.194 52.4484 233.737L50.9004 233.835ZM51.4425 241.228L49.8967 241.356C50.1003 243.805 50.2748 246.255 50.4201 248.708L51.9685 248.616L53.5169 248.524C53.3701 246.047 53.1939 243.572 52.9882 241.099L51.4425 241.228ZM51.9685 248.616L50.4201 248.708C50.5636 251.128 50.6041 253.554 50.5417 255.983L52.0923 256.023L53.6429 256.063C53.7076 253.546 53.6656 251.033 53.5169 248.524L51.9685 248.616ZM52.0923 256.023L50.5417 255.983C50.4748 258.588 50.7343 261.182 51.3181 263.764L52.831 263.422L54.3439 263.08C53.8157 260.744 53.5827 258.406 53.6429 256.063L52.0923 256.023ZM52.831 263.422L51.3181 263.764C51.837 266.06 51.9723 268.356 51.7267 270.659L53.269 270.823L54.8114 270.988C55.0936 268.342 54.9369 265.704 54.3439 263.08L52.831 263.422ZM53.269 270.823L51.7267 270.659C51.454 273.215 51.3859 275.771 51.5225 278.327L53.0714 278.244L54.6203 278.162C54.4925 275.771 54.5561 273.381 54.8114 270.988L53.269 270.823ZM53.0714 278.244L51.5225 278.327C51.644 280.599 51.3303 282.779 50.5836 284.88L52.0452 285.4L53.5068 285.919C54.3928 283.426 54.7633 280.836 54.6203 278.162L53.0714 278.244ZM52.0452 285.4L50.5836 284.88C49.8407 286.971 48.7114 288.795 47.1906 290.368L48.3056 291.446L49.4205 292.524C51.2531 290.63 52.617 288.423 53.5068 285.919L52.0452 285.4ZM48.3056 291.446L47.1906 290.368C45.7178 291.891 43.9313 292.928 41.7966 293.485L42.1879 294.986L42.5792 296.487C45.2479 295.791 47.54 294.469 49.4205 292.524L48.3056 291.446ZM42.1879 294.986L41.7966 293.485C39.4008 294.109 36.9946 294.722 34.5781 295.321L34.9516 296.827L35.3252 298.332C37.7535 297.73 40.1715 297.114 42.5792 296.487L42.1879 294.986ZM34.9516 296.827L34.5781 295.321C32.3656 295.87 30.1376 295.949 27.88 295.556L27.6144 297.085L27.3489 298.613C30.0293 299.079 32.6927 298.985 35.3252 298.332L34.9516 296.827ZM27.6144 297.085L27.88 295.556C25.32 295.112 22.7439 294.898 20.1529 294.916L20.1637 296.467L20.1746 298.018C22.5798 298.002 24.9708 298.2 27.3489 298.613L27.6144 297.085ZM20.1637 296.467L20.1529 294.916C17.8441 294.932 15.6191 294.537 13.4682 293.728L12.9222 295.179L12.3762 296.631C14.8844 297.575 17.487 298.037 20.1746 298.018L20.1637 296.467ZM12.9222 295.179L13.4682 293.728C11.2531 292.895 9.17836 291.819 7.24141 290.5L6.36835 291.782L5.4953 293.064C7.63777 294.523 9.9323 295.712 12.3762 296.631L12.9222 295.179ZM6.36835 291.782L7.24141 290.5C5.50307 289.316 4.36827 287.739 3.7982 285.716L2.30524 286.137L0.812278 286.557C1.58027 289.283 3.15422 291.47 5.4953 293.064L6.36835 291.782ZM2.30524 286.137L3.7982 285.716C3.18021 283.523 2.97426 281.304 3.17836 279.049L1.63358 278.91L0.0888 278.77C-0.149612 281.403 0.0922101 284.002 0.812278 286.557L2.30524 286.137ZM1.63358 278.91L3.17836 279.049C3.40096 276.591 3.58914 274.118 3.7429 271.632L2.19476 271.536L0.646622 271.44C0.494659 273.898 0.308714 276.341 0.0888 278.77L1.63358 278.91ZM2.19476 271.536L3.7429 271.632C3.89446 269.181 4.09585 266.739 4.34704 264.304L2.80414 264.145L1.26123 263.986C1.00566 266.462 0.800794 268.947 0.646622 271.44L2.19476 271.536ZM2.80414 264.145L4.34704 264.304C4.60889 261.767 4.66887 259.213 4.52735 256.643L2.9786 256.729L1.42985 256.814C1.56248 259.222 1.50615 261.612 1.26123 263.986L2.80414 264.145ZM2.9786 256.729L4.52735 256.643C4.39813 254.297 4.59041 251.975 5.10495 249.672L3.59118 249.334L2.0774 248.996C1.50102 251.575 1.28491 254.183 1.42985 256.814L2.9786 256.729ZM3.59118 249.334L5.10495 249.672C5.6856 247.073 5.85433 244.445 5.61084 241.792L4.06623 241.934L2.52163 242.075C2.73565 244.407 2.58767 246.712 2.0774 248.996L3.59118 249.334ZM4.06623 241.934L5.61084 241.792C5.392 239.408 5.42505 237.042 5.70926 234.694L4.1694 234.508L2.62954 234.321C2.31868 236.89 2.28295 239.475 2.52163 242.075L4.06623 241.934ZM4.1694 234.508L5.70926 234.694C6.00813 232.225 6.28034 229.754 6.52588 227.281L4.98238 227.128L3.43887 226.974C3.19552 229.425 2.92575 231.874 2.62954 234.321L4.1694 234.508ZM4.98238 227.128L6.52588 227.281C6.7711 224.812 6.9977 222.341 7.20571 219.869L5.66007 219.739L4.11443 219.609C3.90773 222.065 3.68255 224.521 3.43887 226.974L4.98238 227.128ZM5.66007 219.739L7.20571 219.869C7.41885 217.336 7.46286 214.793 7.33787 212.241L5.78863 212.317L4.23939 212.393C4.35769 214.809 4.31599 217.214 4.11443 219.609L5.66007 219.739ZM5.78863 212.317L7.33787 212.241C7.21861 209.806 7.21473 207.379 7.32614 204.96L5.77669 204.889L4.22723 204.817C4.11128 207.335 4.11536 209.86 4.23939 212.393L5.78863 212.317ZM5.77669 204.889L7.32614 204.96C7.43645 202.565 7.716 200.176 8.16515 197.794L6.64091 197.507L5.11667 197.219C4.64089 199.743 4.34428 202.276 4.22723 204.817L5.77669 204.889ZM6.64091 197.507L8.16515 197.794C8.64684 195.239 8.86758 192.671 8.82669 190.091L7.27578 190.116L5.72488 190.141C5.76243 192.509 5.55992 194.868 5.11667 197.219L6.64091 197.507ZM7.27578 190.116L8.82669 190.091C8.78748 187.618 8.75085 185.142 8.71679 182.664L7.16584 182.685L5.61489 182.707C5.64898 185.187 5.68564 187.665 5.72488 190.141L7.27578 190.116ZM7.16584 182.685L8.71679 182.664C8.68363 180.251 8.80553 177.847 9.0825 175.45L7.54166 175.272L6.00081 175.094C5.70855 177.623 5.5799 180.161 5.61489 182.707L7.16584 182.685ZM7.54166 175.272L9.0825 175.45C9.37293 172.937 9.53945 170.419 9.58202 167.898L8.03114 167.872L6.48026 167.845C6.43942 170.265 6.27962 172.681 6.00081 175.094L7.54166 175.272ZM8.03114 167.872L9.58202 167.898C9.62401 165.41 9.62467 162.921 9.58399 160.429L8.0331 160.455L6.48221 160.48C6.52232 162.937 6.52167 165.392 6.48026 167.845L8.03114 167.872ZM8.0331 160.455L9.58399 160.429C9.54434 158.001 9.61209 155.571 9.78727 153.139L8.24018 153.028L6.69309 152.916C6.51137 155.439 6.44106 157.96 6.48221 160.48L8.0331 160.455ZM8.24018 153.028L9.78727 153.139C9.96899 150.616 10.039 148.097 9.99716 145.582L8.44627 145.607L6.89539 145.633C6.93567 148.057 6.86826 150.484 6.69309 152.916L8.24018 153.028ZM8.44627 145.607L9.99716 145.582C9.95547 143.074 9.82121 140.57 9.59438 138.07L8.04963 138.21L6.50488 138.35C6.72481 140.774 6.85497 143.202 6.89539 145.633L8.44627 145.607ZM8.04963 138.21L9.59438 138.07C9.37121 135.61 9.15318 133.148 8.94031 130.682L7.39496 130.815L5.84961 130.949C6.06287 133.419 6.2813 135.886 6.50488 138.35L8.04963 138.21ZM7.39496 130.815L8.94031 130.682C8.73538 128.308 8.74764 125.932 8.97727 123.551L7.43334 123.402L5.88941 123.253C5.64172 125.821 5.6284 128.387 5.84961 130.949L7.39496 130.815ZM7.43334 123.402L8.97727 123.551C9.21879 121.048 9.38721 118.549 9.4825 116.055L7.93253 115.995L6.38257 115.936C6.28958 118.37 6.12521 120.809 5.88941 123.253L7.43334 123.402ZM7.93253 115.995L9.4825 116.055C9.57913 113.526 9.51664 110.99 9.29528 108.447L7.75002 108.581L6.20477 108.716C6.41502 111.131 6.47421 113.538 6.38257 115.936L7.93253 115.995ZM7.75002 108.581L9.29528 108.447C9.09105 106.1 9.18901 103.764 9.58965 101.434L8.06098 101.171L6.53232 100.908C6.08672 103.5 5.97738 106.103 6.20477 108.716L7.75002 108.581ZM8.06098 101.171L9.58965 101.434C10.0463 98.7783 9.99412 96.115 9.43592 93.4544L7.91787 93.7729L6.39983 94.0914C6.87866 96.3737 6.92191 98.6425 6.53232 100.908L8.06098 101.171ZM7.91787 93.7729L9.43592 93.4544C8.94045 91.0928 8.71111 88.7359 8.74605 86.3817L7.19512 86.3587L5.64419 86.3357C5.60577 88.9242 5.85827 91.5102 6.39983 94.0914L7.91787 93.7729ZM7.19512 86.3587L8.74605 86.3817C8.78238 83.9339 8.87471 81.4861 9.02305 79.0382L7.47479 78.9444L5.92653 78.8506C5.77534 81.3456 5.68122 83.8406 5.64419 86.3357L7.19512 86.3587ZM7.47479 78.9444L9.02305 79.0382C9.1744 76.5407 9.26223 74.043 9.28655 71.5453L7.73553 71.5302L6.1845 71.5151C6.1607 73.9602 6.07471 76.4054 5.92653 78.8506L7.47479 78.9444ZM7.73553 71.5302L9.28655 71.5453C9.3101 69.1266 9.45684 66.7076 9.72688 64.288L8.18535 64.1159L6.64383 63.9439C6.36222 66.4671 6.20908 68.9909 6.1845 71.5151L7.73553 71.5302ZM8.18535 64.1159L9.72688 64.288C10.0086 61.7634 10.1586 59.2383 10.1766 56.7127L8.6255 56.7017L7.07444 56.6906C7.05722 59.1079 6.91372 61.5256 6.64383 63.9439L8.18535 64.1159ZM8.6255 56.7017L10.1766 56.7127C10.1946 54.1847 10.0746 51.6571 9.81672 49.13L8.27363 49.2874L6.73054 49.4449C6.97705 51.8606 7.09164 54.2758 7.07444 56.6906L8.6255 56.7017ZM8.27363 49.2874L9.81672 49.13C9.56441 46.6574 9.30928 44.1848 9.05134 41.7122L7.50861 41.8732L5.96588 42.0341C6.22359 44.5044 6.47848 46.9746 6.73054 49.4449L8.27363 49.2874ZM7.50861 41.8732L9.05134 41.7122C8.81049 39.4035 8.93163 37.0938 9.41752 34.7773L7.89946 34.4589L6.38139 34.1405C5.8305 36.7669 5.69108 39.4 5.96588 42.0341L7.50861 41.8732ZM7.89946 34.4589L9.41752 34.7773C9.9723 32.1325 10.065 29.4804 9.69307 26.8292L8.15701 27.0447L6.62096 27.2602C6.94242 29.5518 6.8634 31.8426 6.38139 34.1405L7.89946 34.4589ZM8.15701 27.0447L9.69307 26.8292C9.36792 24.5113 9.39506 22.2248 9.77203 19.9641L8.24206 19.709L6.71209 19.4538C6.28229 22.0313 6.25274 24.6353 6.62096 27.2602L8.15701 27.0447ZM8.24206 19.709L9.77203 19.9641C10.1574 17.6531 10.777 15.4338 11.6303 13.3037L10.1904 12.7269L8.7505 12.1502C7.81273 14.4913 7.1335 16.9267 6.71209 19.4538L8.24206 19.709ZM10.1904 12.7269L11.6303 13.3037C12.4053 11.3689 13.678 9.81105 15.4892 8.60781L14.6309 7.31584L13.7726 6.02387C11.4541 7.56417 9.7665 9.61374 8.7505 12.1502L10.1904 12.7269ZM14.6309 7.31584L15.4892 8.60781C17.4327 7.31664 19.5136 6.32268 21.7356 5.62388L21.2703 4.14422L20.805 2.66457C18.3042 3.45103 15.9587 4.57147 13.7726 6.02387L14.6309 7.31584ZM21.2703 4.14422L21.7356 5.62388C24.0906 4.88328 26.4759 4.15012 28.8917 3.4244L28.4455 1.93888L27.9992 0.453366C25.571 1.18283 23.1729 1.9199 20.805 2.66457L21.2703 4.14422ZM28.4455 1.93888L28.8917 3.4244C30.8915 2.82366 32.7199 3.06128 34.4923 4.14933L35.3038 2.82743L36.1153 1.50554C33.5873 -0.0463375 30.8435 -0.401084 27.9992 0.453366L28.4455 1.93888ZM35.3038 2.82743L34.4923 4.14933C36.5897 5.43689 38.5559 6.81655 40.3918 8.28781L41.3618 7.07741L42.3318 5.86701C40.3907 4.31155 38.3182 2.8579 36.1153 1.50554L35.3038 2.82743ZM41.3618 7.07741L40.3918 8.28781C42.283 9.80333 44.2083 11.3357 46.1676 12.885L47.1296 11.6683L48.0917 10.4516C46.1375 8.9064 44.2175 7.3782 42.3318 5.86701L41.3618 7.07741ZM47.1296 11.6683L46.1676 12.885C47.8443 14.2108 48.8671 15.8647 49.2847 17.8947L50.804 17.5822L52.3233 17.2696C51.7553 14.509 50.3285 12.2203 48.0917 10.4516L47.1296 11.6683ZM50.804 17.5822L49.2847 17.8947C49.7769 20.287 50.0908 21.7961 50.224 22.4101L51.7398 22.081L53.2556 21.7519C53.1267 21.1581 52.8167 19.668 52.3233 17.2696L50.804 17.5822ZM51.7398 22.081L50.224 22.4101C50.2191 22.3871 50.2344 22.4552 50.2297 22.672C50.2255 22.8723 50.2058 23.1427 50.1651 23.4926C50.0837 24.1922 49.9274 25.1334 49.6892 26.3294L51.2104 26.6324L52.7316 26.9354C52.9775 25.701 53.1514 24.6684 53.2465 23.851C53.3338 23.1002 53.3821 22.3344 53.2556 21.7519L51.7398 22.081Z" fill="var(--stroke-0, #1A1A1A)"/>
</g>
</svg>
