<svg preserveAspectRatio="none" width="100%" height="100%" overflow="visible" style="display: block;" viewBox="0 0 55.2003 299.03" fill="none" xmlns="http://www.w3.org/2000/svg">
<g id="Vector 4485">
<path d="M48.2444 205.317C42.4414 165.857 48.2597 70.7079 52.2939 22.9578C52.5971 19.369 51.6672 15.7744 49.2905 13.0682C44.6547 7.78959 37.6607 1.57784 31.6429 1.57784C26.4766 1.57784 19.9367 4.41214 14.779 7.28189C10.5444 9.63807 8.25071 14.2581 8.25071 19.1041V101.036C8.25071 102.137 8.13003 103.232 8.01859 104.327C7.57976 108.641 7.22392 120.096 8.25071 142.686C9.3625 167.145 4.58738 239.127 1.46766 280.025C1.01194 285.999 4.06112 291.83 9.70207 293.85C25.6974 299.578 39.1158 296.903 47.1981 293.152C50.9654 291.404 53.0034 287.493 53.1749 283.343C53.7797 268.706 53.3627 240.121 48.2444 205.317Z" fill="var(--fill-0, #726350)"/>
<path d="M50.1017 48.7952L48.5576 48.9425L50.1017 48.7952ZM49.1049 63.608L50.6377 63.846L49.1049 63.608ZM48.2354 78.4066L46.6901 78.273L48.2354 78.4066ZM47.3752 93.2193L45.8459 92.9604V92.9604L47.3752 93.2193ZM47.2477 100.637L48.7853 100.433L47.2477 100.637ZM46.3641 122.87L44.8165 122.765L46.3641 122.87ZM46.315 130.287L47.8638 130.203L46.315 130.287ZM45.7867 159.948L47.3305 160.097L45.7867 159.948ZM45.451 167.37L43.9 167.38L45.451 167.37ZM45.5517 174.784L47.1025 174.752L45.5517 174.784ZM47.391 196.965L45.8503 197.144L47.391 196.965ZM48.2781 204.318L46.7389 204.51L48.2781 204.318ZM48.864 211.705L47.3138 211.759L48.864 211.705ZM52.0571 241.185L53.5529 240.775L52.0571 241.185ZM52.7802 248.557L51.2334 248.442L52.7802 248.557ZM52.7987 255.983L51.2525 256.106L52.7987 255.983ZM53.4898 263.382L51.9475 263.547L53.4898 263.382ZM48.8966 291.686L47.7808 290.609L48.8966 291.686ZM42.619 295.127L42.9289 296.646L42.619 295.127ZM20.5705 296.394L20.3277 297.926L20.5705 296.394ZM1.85959 278.831L3.40606 278.711L1.85959 278.831ZM3.48838 256.71L1.94149 256.824L3.48838 256.71ZM4.74588 227.062L3.19531 227.021L4.74588 227.062ZM5.80462 212.268L4.25765 212.155L5.80462 212.268ZM7.05618 182.636L5.50664 182.706L7.05618 182.636ZM7.35224 175.222L5.81319 175.029L7.35224 175.222ZM7.88628 138.204L6.33721 138.125L7.88628 138.204ZM8.35974 41.8441L6.83556 41.5564L8.35974 41.8441ZM28.7593 1.84699L28.388 0.340999L28.7593 1.84699ZM35.6932 2.80076L34.9265 4.14912L35.6932 2.80076ZM41.9891 6.73776L41.1112 8.01652V8.01652L41.9891 6.73776ZM47.2529 11.7096L46.0256 12.658L47.2529 11.7096ZM51.3347 17.8522L49.9861 18.6185L51.3347 17.8522ZM51.9323 26.6325L50.3886 26.4806C50.1483 28.9229 49.889 31.3735 49.6106 33.8324L51.1519 34.0069L52.6932 34.1814C52.9732 31.7075 53.2341 29.2418 53.4759 26.7844L51.9323 26.6325ZM51.1519 34.0069L49.6106 33.8324C49.3327 36.2881 49.0296 38.7344 48.7016 41.1714L50.2388 41.3784L51.776 41.5853C52.107 39.1266 52.4127 36.6586 52.6932 34.1814L51.1519 34.0069ZM50.2388 41.3784L48.7016 41.1714C48.356 43.7385 48.3084 46.3297 48.5576 48.9425L50.1017 48.7952L51.6457 48.648C51.4187 46.2674 51.4625 43.914 51.776 41.5853L50.2388 41.3784ZM50.1017 48.7952L48.5576 48.9425C48.7859 51.337 48.7747 53.7135 48.5247 56.0736L50.0671 56.237L51.6096 56.4004C51.8818 53.8314 51.8936 51.2467 51.6457 48.648L50.1017 48.7952ZM50.0671 56.237L48.5247 56.0736C48.2662 58.5131 47.9487 60.9453 47.5722 63.37L49.1049 63.608L50.6377 63.846C51.0218 61.3717 51.3458 58.8899 51.6096 56.4004L50.0671 56.237ZM49.1049 63.608L47.5722 63.37C47.1794 65.8996 46.9866 68.4434 46.9937 71.0006L48.5448 70.9963L50.0959 70.9919C50.0892 68.5972 50.2697 66.2154 50.6377 63.846L49.1049 63.608ZM48.5448 70.9963L46.9937 71.0006C47.0005 73.4306 46.8993 75.8547 46.6901 78.273L48.2354 78.4066L49.7807 78.5403C49.9979 76.0302 50.103 73.514 50.0959 70.9919L48.5448 70.9963ZM48.2354 78.4066L46.6901 78.273C46.4726 80.7875 46.3779 83.3089 46.4062 85.837L47.9572 85.8196L49.5082 85.8023C49.4811 83.3748 49.5719 80.9543 49.7807 78.5403L48.2354 78.4066ZM47.9572 85.8196L46.4062 85.837C46.4329 88.2217 46.2463 90.5958 45.8459 92.9604L47.3752 93.2193L48.9046 93.4782C49.3357 90.9321 49.537 88.3731 49.5082 85.8023L47.9572 85.8196ZM47.3752 93.2193L45.8459 92.9604C45.404 95.5702 45.3591 98.1988 45.7101 100.841L47.2477 100.637L48.7853 100.433C48.4748 98.0956 48.515 95.7792 48.9046 93.4782L47.3752 93.2193ZM47.2477 100.637L45.7101 100.841C46.0177 103.157 45.9327 105.452 45.4551 107.732L46.9733 108.05L48.4914 108.368C49.0411 105.744 49.139 103.096 48.7853 100.433L47.2477 100.637ZM46.9733 108.05L45.4551 107.732C44.9139 110.317 44.7153 112.918 44.8605 115.534L46.4092 115.448L47.9579 115.362C47.8279 113.02 48.0053 110.689 48.4914 108.368L46.9733 108.05ZM46.4092 115.448L44.8605 115.534C44.9945 117.95 44.9799 120.36 44.8165 122.765L46.3641 122.87L47.9116 122.975C48.0836 120.443 48.099 117.905 47.9579 115.362L46.4092 115.448ZM46.3641 122.87L44.8165 122.765C44.6446 125.297 44.6278 127.832 44.7662 130.371L46.315 130.287L47.8638 130.203C47.7323 127.789 47.7482 125.38 47.9116 122.975L46.3641 122.87ZM46.315 130.287L44.7662 130.371C44.8973 132.777 44.8638 135.178 44.6659 137.575L46.2117 137.702L47.7575 137.83C47.9672 135.292 48.0026 132.749 47.8638 130.203L46.315 130.287ZM46.2117 137.702L44.6659 137.575C44.4565 140.11 44.415 142.647 44.5416 145.187L46.0907 145.109L47.6399 145.032C47.5202 142.63 47.5594 140.229 47.7575 137.83L46.2117 137.702ZM46.0907 145.109L44.5416 145.187C44.663 147.623 44.7025 150.06 44.6603 152.498L46.2111 152.525L47.762 152.552C47.8055 150.044 47.7648 147.537 47.6399 145.032L46.0907 145.109ZM46.2111 152.525L44.6603 152.498C44.6181 154.93 44.479 157.363 44.2428 159.798L45.7867 159.948L47.3305 160.097C47.5746 157.581 47.7184 155.066 47.762 152.552L46.2111 152.525ZM45.7867 159.948L44.2428 159.798C43.9976 162.326 43.8833 164.854 43.9 167.38L45.451 167.37L47.0021 167.359C46.9861 164.941 47.0956 162.52 47.3305 160.097L45.7867 159.948ZM45.451 167.37L43.9 167.38C43.9163 169.859 43.95 172.338 44.0009 174.816L45.5517 174.784L47.1025 174.752C47.0518 172.289 47.0183 169.824 47.0021 167.359L45.451 167.37ZM45.5517 174.784L44.0009 174.816C44.0536 177.375 44.324 179.927 44.8116 182.471L46.3349 182.179L47.8583 181.887C47.4032 179.512 47.1515 177.134 47.1025 174.752L45.5517 174.784ZM46.3349 182.179L44.8116 182.471C45.2637 184.83 45.4763 187.191 45.4505 189.556L47.0015 189.573L48.5525 189.59C48.5806 187.015 48.3489 184.447 47.8583 181.887L46.3349 182.179ZM47.0015 189.573L45.4505 189.556C45.4229 192.092 45.5562 194.621 45.8503 197.144L47.391 196.965L48.9316 196.785C48.6527 194.392 48.5263 191.994 48.5525 189.59L47.0015 189.573ZM47.391 196.965L45.8503 197.144C46.1374 199.606 46.4335 202.061 46.7389 204.51L48.2781 204.318L49.8172 204.126C49.5129 201.686 49.2177 199.239 48.9316 196.785L47.391 196.965ZM48.2781 204.318L46.7389 204.51C47.038 206.908 47.2296 209.324 47.3138 211.759L48.864 211.705L50.4141 211.652C50.3268 209.125 50.1278 206.617 49.8172 204.126L48.2781 204.318ZM48.864 211.705L47.3138 211.759C47.4028 214.335 47.727 216.882 48.286 219.399L49.8002 219.063L51.3144 218.727C50.7966 216.395 50.4966 214.037 50.4141 211.652L48.864 211.705ZM49.8002 219.063L48.286 219.399C48.8133 221.774 49.22 224.162 49.5062 226.564L51.0464 226.38L52.5866 226.197C52.2881 223.692 51.864 221.202 51.3144 218.727L49.8002 219.063ZM51.0464 226.38L49.5062 226.564C49.7877 228.926 49.8601 231.309 49.7228 233.713L51.2714 233.801L52.82 233.89C52.9675 231.306 52.8899 228.741 52.5866 226.197L51.0464 226.38ZM51.2714 233.801L49.7228 233.713C49.5707 236.376 49.8509 239.006 50.5613 241.595L52.0571 241.185L53.5529 240.775C52.9309 238.507 52.6872 236.215 52.82 233.89L51.2714 233.801ZM52.0571 241.185L50.5613 241.595C51.1811 243.855 51.4043 246.135 51.2334 248.442L52.7802 248.557L54.3271 248.671C54.5244 246.007 54.2655 243.372 53.5529 240.775L52.0571 241.185ZM52.7802 248.557L51.2334 248.442C51.0434 251.007 51.0497 253.562 51.2525 256.106L52.7987 255.983L54.3449 255.86C54.1548 253.475 54.1488 251.079 54.3271 248.671L52.7802 248.557ZM52.7987 255.983L51.2525 256.106C51.45 258.585 51.6817 261.066 51.9475 263.547L53.4898 263.382L55.0321 263.217C54.7692 260.763 54.5402 258.311 54.3449 255.86L52.7987 255.983ZM53.4898 263.382L51.9475 263.547C52.1972 265.878 52.1366 268.211 51.7647 270.55L53.2966 270.793L54.8284 271.037C55.2429 268.43 55.3112 265.822 55.0321 263.217L53.4898 263.382ZM53.2966 270.793L51.7647 270.55C51.3464 273.18 51.3377 275.816 51.7384 278.45L53.2719 278.217L54.8053 277.984C54.4527 275.665 54.4604 273.351 54.8284 271.037L53.2966 270.793ZM53.2719 278.217L51.7384 278.45C52.0787 280.687 51.8963 282.856 51.193 284.976L52.6653 285.464L54.1375 285.953C54.9964 283.363 55.2184 280.7 54.8053 277.984L53.2719 278.217ZM52.6653 285.464L51.193 284.976C50.4854 287.109 49.3514 288.982 47.7808 290.609L48.8966 291.686L50.0124 292.764C51.9044 290.804 53.2829 288.529 54.1375 285.953L52.6653 285.464ZM48.8966 291.686L47.7808 290.609C46.2682 292.175 44.4571 293.169 42.309 293.607L42.619 295.127L42.9289 296.646C45.6883 296.084 48.0622 294.783 50.0124 292.764L48.8966 291.686ZM42.619 295.127L42.309 293.607C39.829 294.113 37.3661 294.682 34.9203 295.315L35.3088 296.816L35.6974 298.318C38.091 297.699 40.5015 297.141 42.9289 296.646L42.619 295.127ZM35.3088 296.816L34.9203 295.315C32.6801 295.894 30.4142 296.063 28.1139 295.822L27.9521 297.364L27.7903 298.907C30.4596 299.187 33.0982 298.991 35.6974 298.318L35.3088 296.816ZM27.9521 297.364L28.1139 295.822C25.6559 295.564 23.2223 295.244 20.8133 294.862L20.5705 296.394L20.3277 297.926C22.7912 298.317 25.2787 298.644 27.7903 298.907L27.9521 297.364ZM20.5705 296.394L20.8133 294.862C18.4735 294.491 16.1933 293.905 13.9713 293.103L13.4447 294.562L12.9182 296.021C15.3247 296.89 17.795 297.525 20.3277 297.926L20.5705 296.394ZM13.4447 294.562L13.9713 293.103C11.7429 292.299 9.62109 291.312 7.60445 290.143L6.82641 291.485L6.04837 292.826C8.22763 294.09 10.518 295.155 12.9182 296.021L13.4447 294.562ZM6.82641 291.485L7.60445 290.143C5.88769 289.147 4.84898 287.717 4.42825 285.756L2.91167 286.081L1.39509 286.407C1.99811 289.217 3.56924 291.389 6.04837 292.826L6.82641 291.485ZM2.91167 286.081L4.42825 285.756C3.93101 283.438 3.59025 281.09 3.40606 278.711L1.85959 278.831L0.313118 278.951C0.507944 281.467 0.868565 283.953 1.39509 286.407L2.91167 286.081ZM1.85959 278.831L3.40606 278.711C3.21942 276.3 3.11825 273.871 3.10266 271.423L1.55159 271.433L0.000524938 271.443C0.016581 273.963 0.12075 276.466 0.313118 278.951L1.85959 278.831ZM1.55159 271.433L3.10266 271.423C3.08786 269.101 3.42855 266.806 4.12833 264.535L2.64597 264.078L1.16361 263.621C0.372569 266.189 -0.0163272 268.798 0.000524938 271.443L1.55159 271.433ZM2.64597 264.078L4.12833 264.535C4.92982 261.933 5.23348 259.284 5.03528 256.596L3.48838 256.71L1.94149 256.824C2.11089 259.121 1.85294 261.384 1.16361 263.621L2.64597 264.078ZM3.48838 256.71L5.03528 256.596C4.85672 254.175 4.84627 251.768 5.00361 249.373L3.45585 249.272L1.90809 249.17C1.74121 251.71 1.75245 254.261 1.94149 256.824L3.48838 256.71ZM3.45585 249.272L5.00361 249.373C5.16272 246.952 5.42905 244.538 5.80266 242.131L4.26992 241.893L2.73718 241.655C2.34959 244.152 2.07321 246.657 1.90809 249.17L3.45585 249.272ZM4.26992 241.893L5.80266 242.131C6.19754 239.588 6.36175 237.028 6.29525 234.453L4.74467 234.493L3.19409 234.533C3.25579 236.922 3.1035 239.296 2.73718 241.655L4.26992 241.893ZM4.74467 234.493L6.29525 234.453C6.23185 231.998 6.23225 229.548 6.29644 227.102L4.74588 227.062L3.19531 227.021C3.1297 229.52 3.1293 232.025 3.19409 234.533L4.74467 234.493ZM4.74588 227.062L6.29644 227.102C6.36044 224.665 6.50597 222.232 6.73305 219.804L5.1887 219.66L3.64434 219.515C3.4108 222.012 3.26113 224.514 3.19531 227.021L4.74588 227.062ZM5.1887 219.66L6.73305 219.804C6.96434 217.332 7.17052 214.857 7.35159 212.381L5.80462 212.268L4.25765 212.155C4.07811 214.61 3.87367 217.064 3.64434 219.515L5.1887 219.66ZM5.80462 212.268L7.35159 212.381C7.53232 209.909 7.69912 207.437 7.85198 204.965L6.30383 204.869L4.75569 204.773C4.60355 207.234 4.43754 209.694 4.25765 212.155L5.80462 212.268ZM6.30383 204.869L7.85198 204.965C8.00474 202.494 8.14738 200.021 8.27989 197.548L6.73101 197.465L5.18213 197.382C5.05008 199.847 4.90793 202.311 4.75569 204.773L6.30383 204.869ZM6.73101 197.465L8.27989 197.548C8.41256 195.071 8.52795 192.595 8.62605 190.121L7.07617 190.06L5.52629 189.998C5.42876 192.458 5.31404 194.919 5.18213 197.382L6.73101 197.465ZM7.07617 190.06L8.62605 190.121C8.72561 187.61 8.71881 185.092 8.60573 182.567L7.05618 182.636L5.50664 182.706C5.61584 185.144 5.62237 187.575 5.52629 189.998L7.07617 190.06ZM7.05618 182.636L8.60573 182.567C8.4985 180.172 8.5937 177.789 8.89129 175.415L7.35224 175.222L5.81319 175.029C5.49375 177.577 5.39157 180.136 5.50664 182.706L7.05618 182.636ZM7.35224 175.222L8.89129 175.415C9.19854 172.964 9.53045 170.513 9.88703 168.063L8.3521 167.839L6.81716 167.616C6.45764 170.087 6.12299 172.558 5.81319 175.029L7.35224 175.222ZM8.3521 167.839L9.88703 168.063C10.2641 165.471 10.3093 162.87 10.0228 160.26L8.48101 160.429L6.93917 160.599C7.19698 162.948 7.15624 165.286 6.81716 167.616L8.3521 167.839ZM8.48101 160.429L10.0228 160.26C9.75475 157.818 9.57483 155.378 9.48302 152.942L7.93303 153.001L6.38303 153.059C6.47764 155.57 6.66304 158.083 6.93917 160.599L8.48101 160.429ZM7.93303 153.001L9.48302 152.942C9.39029 150.482 9.32786 148.029 9.29572 145.585L7.74475 145.606L6.19379 145.626C6.22626 148.095 6.28935 150.573 6.38303 153.059L7.93303 153.001ZM7.74475 145.606L9.29572 145.585C9.26385 143.162 9.31038 140.728 9.43536 138.283L7.88628 138.204L6.33721 138.125C6.20887 140.635 6.16104 143.136 6.19379 145.626L7.74475 145.606ZM7.88628 138.204L9.43536 138.283C9.56441 135.759 9.57875 133.238 9.47834 130.72L7.92847 130.782L6.37861 130.844C6.47526 133.267 6.46148 135.694 6.33721 138.125L7.88628 138.204ZM7.92847 130.782L9.47834 130.72C9.38121 128.285 9.36715 125.85 9.43615 123.414L7.88567 123.37L6.3352 123.326C6.2642 125.832 6.27867 128.338 6.37861 130.844L7.92847 130.782ZM7.88567 123.37L9.43615 123.414C9.50768 120.889 9.44794 118.364 9.257 115.84L7.71032 115.957L6.16364 116.074C6.3465 118.491 6.40368 120.908 6.3352 123.326L7.88567 123.37ZM7.71032 115.957L9.257 115.84C9.07459 113.429 9.03146 111.016 9.12758 108.601L7.57771 108.54L6.02784 108.478C5.92697 111.012 5.97224 113.544 6.16364 116.074L7.71032 115.957ZM7.57771 108.54L9.12758 108.601C9.22317 106.2 9.48813 103.806 9.9228 101.417L8.39677 101.139L6.87074 100.862C6.41033 103.391 6.12925 105.93 6.02784 108.478L7.57771 108.54ZM8.39677 101.139L9.9228 101.417C10.4045 98.7707 10.3956 96.1144 9.89739 93.458L8.37287 93.7439L6.84834 94.0298C7.27711 96.3161 7.28414 98.5903 6.87074 100.862L8.39677 101.139ZM8.37287 93.7439L9.89739 93.458C9.45515 91.0998 9.28302 88.7456 9.3795 86.3932L7.8297 86.3296L6.27991 86.266C6.17367 88.8565 6.36364 91.4451 6.84834 94.0298L8.37287 93.7439ZM7.8297 86.3296L9.3795 86.3932C9.48294 83.871 9.46244 81.3487 9.318 78.8267L7.76944 78.9154L6.22088 79.004C6.35951 81.4248 6.37918 83.8454 6.27991 86.266L7.8297 86.3296ZM7.76944 78.9154L9.318 78.8267C9.18176 76.4476 9.2576 74.0682 9.54585 71.6875L8.006 71.5011L6.46615 71.3147C6.15592 73.8768 6.07406 76.4403 6.22088 79.004L7.76944 78.9154ZM8.006 71.5011L9.54585 71.6875C9.84726 69.1982 10.1045 66.7087 10.3177 64.2192L8.77221 64.0869L7.22676 63.9546C7.01675 66.4078 6.76321 68.8612 6.46615 71.3147L8.006 71.5011ZM8.77221 64.0869L10.3177 64.2192C10.5381 61.6443 10.5001 59.0692 10.2039 56.4953L8.66296 56.6726L7.12203 56.8499C7.39464 59.2189 7.42948 61.5865 7.22676 63.9546L8.77221 64.0869ZM8.66296 56.6726L10.2039 56.4953C9.92165 54.0428 9.68523 51.5904 9.49462 49.1381L7.94818 49.2584L6.40175 49.3786C6.59534 51.8691 6.83544 54.3596 7.12203 56.8499L8.66296 56.6726ZM7.94818 49.2584L9.49462 49.1381C9.31326 46.8051 9.44244 44.4708 9.88393 42.1318L8.35974 41.8441L6.83556 41.5564C6.34408 44.1602 6.19889 46.7688 6.40175 49.3786L7.94818 49.2584ZM8.35974 41.8441L9.88393 42.1318C10.3695 39.5591 10.5922 36.983 10.5506 34.4049L8.99974 34.4299L7.44885 34.4548C7.48694 36.8196 7.28292 39.1862 6.83556 41.5564L8.35974 41.8441ZM8.99974 34.4299L10.5506 34.4049C10.5105 31.9126 10.4202 29.4204 10.2796 26.9283L8.73099 27.0156L7.18235 27.1029C7.32054 29.5536 7.40937 32.0042 7.44885 34.4548L8.99974 34.4299ZM8.73099 27.0156L10.2796 26.9283C10.1401 24.4547 9.99455 21.9662 9.84284 19.4629L8.29459 19.5568L6.74633 19.6506C6.89778 22.1496 7.04312 24.6337 7.18235 27.1029L8.73099 27.0156ZM8.29459 19.5568L9.84284 19.4629C9.71033 17.2763 10.2063 15.2748 11.3388 13.4154L10.0141 12.6086L8.68941 11.8017C7.22604 14.2043 6.57569 16.8349 6.74633 19.6506L8.29459 19.5568ZM10.0141 12.6086L11.3388 13.4154C12.496 11.5156 14.0211 10.0669 15.9294 9.04287L15.196 7.67613L14.4625 6.30939C12.0575 7.59999 10.1281 9.4396 8.68941 11.8017L10.0141 12.6086ZM15.196 7.67613L15.9294 9.04287C18.0649 7.89687 20.2323 6.79747 22.4315 5.74465L21.7618 4.3456L21.092 2.94655C18.8501 4.0198 16.6403 5.14075 14.4625 6.30939L15.196 7.67613ZM21.7618 4.3456L22.4315 5.74465C24.5544 4.72839 26.7867 3.93091 29.1306 3.35299L28.7593 1.84699L28.388 0.340999C25.843 0.968491 23.4103 1.83674 21.092 2.94655L21.7618 4.3456ZM28.7593 1.84699L29.1306 3.35299C31.1915 2.84484 33.0953 3.10788 34.9265 4.14912L35.6932 2.80076L36.4599 1.45239C33.9347 0.0165354 31.2159 -0.356261 28.388 0.340999L28.7593 1.84699ZM35.6932 2.80076L34.9265 4.14912C37.0676 5.36654 39.1291 6.65572 41.1112 8.01652L41.9891 6.73776L42.867 5.45901C40.8111 4.04756 38.6753 2.71206 36.4599 1.45239L35.6932 2.80076ZM41.9891 6.73776L41.1112 8.01652C42.998 9.31182 44.6345 10.8578 46.0256 12.658L47.2529 11.7096L48.4803 10.7612C46.891 8.70451 45.0184 6.93596 42.867 5.45901L41.9891 6.73776ZM47.2529 11.7096L46.0256 12.658C47.4701 14.5274 48.7903 16.5139 49.9861 18.6185L51.3347 17.8522L52.6833 17.0859C51.417 14.8572 50.0161 12.7487 48.4803 10.7612L47.2529 11.7096ZM51.3347 17.8522L49.9861 18.6185C50.5813 19.666 50.9506 20.4564 51.1383 21.0154C51.232 21.2944 51.2634 21.4666 51.2708 21.553C51.2791 21.6504 51.2496 21.5462 51.3383 21.3608L52.7376 22.03L54.1369 22.6991C54.3735 22.2045 54.3964 21.6942 54.3618 21.2889C54.3262 20.8725 54.2193 20.4452 54.0791 20.0279C53.7992 19.1942 53.3192 18.2051 52.6833 17.0859L51.3347 17.8522ZM52.7376 22.03L51.3383 21.3608C51.0907 21.8784 50.9222 22.6017 50.7865 23.3772C50.6429 24.1978 50.5111 25.2364 50.3886 26.4806L51.9323 26.6325L53.4759 26.7844C53.5946 25.5788 53.7175 24.6254 53.8423 23.9118C53.9751 23.1531 54.0886 22.8001 54.1369 22.6991L52.7376 22.03Z" fill="var(--stroke-0, #1A1A1A)"/>
</g>
</svg>
